<?xml version='1.0' encoding='utf-8'?>
<svg xmlns:xlink="http://www.w3.org/1999/xlink" class="pygal-chart" id="chart-d007c716-410a-4000-a364-3dd098396c53" viewBox="0 0 800 600" xmlns="http://www.w3.org/2000/svg"><!--Generated with pygal 2.4.0 (etree) ©Kozea 2012-2016 on 2019-01-14--><!--http://pygal.org--><!--http://github.com/Kozea/pygal--><defs><style type="text/css">#chart-d007c716-410a-4000-a364-3dd098396c53{-webkit-user-select:none;-webkit-font-smoothing:antialiased;font-family:Consolas,"Liberation Mono",Menlo,Courier,monospace}#chart-d007c716-410a-4000-a364-3dd098396c53 .title{font-family:Consolas,"Liberation Mono",Menlo,Courier,monospace;font-size:16px}#chart-d007c716-410a-4000-a364-3dd098396c53 .legends .legend text{font-family:Consolas,"Liberation Mono",Menlo,Courier,monospace;font-size:14px}#chart-d007c716-410a-4000-a364-3dd098396c53 .axis text{font-family:Consolas,"Liberation Mono",Menlo,Courier,monospace;font-size:10px}#chart-d007c716-410a-4000-a364-3dd098396c53 .axis text.major{font-family:Consolas,"Liberation Mono",Menlo,Courier,monospace;font-size:10px}#chart-d007c716-410a-4000-a364-3dd098396c53 .text-overlay text.value{font-family:Consolas,"Liberation Mono",Menlo,Courier,monospace;font-size:16px}#chart-d007c716-410a-4000-a364-3dd098396c53 .text-overlay text.label{font-family:Consolas,"Liberation Mono",Menlo,Courier,monospace;font-size:10px}#chart-d007c716-410a-4000-a364-3dd098396c53 .tooltip{font-family:Consolas,"Liberation Mono",Menlo,Courier,monospace;font-size:14px}#chart-d007c716-410a-4000-a364-3dd098396c53 text.no_data{font-family:Consolas,"Liberation Mono",Menlo,Courier,monospace;font-size:64px}
#chart-d007c716-410a-4000-a364-3dd098396c53{background-color:transparent}#chart-d007c716-410a-4000-a364-3dd098396c53 path,#chart-d007c716-410a-4000-a364-3dd098396c53 line,#chart-d007c716-410a-4000-a364-3dd098396c53 rect,#chart-d007c716-410a-4000-a364-3dd098396c53 circle{-webkit-transition:100ms ease-in;-moz-transition:100ms ease-in;transition:100ms ease-in}#chart-d007c716-410a-4000-a364-3dd098396c53 .graph &gt; .background{fill:transparent}#chart-d007c716-410a-4000-a364-3dd098396c53 .plot &gt; .background{fill:transparent}#chart-d007c716-410a-4000-a364-3dd098396c53 .graph{fill:#000000}#chart-d007c716-410a-4000-a364-3dd098396c53 text.no_data{fill:#000000}#chart-d007c716-410a-4000-a364-3dd098396c53 .title{fill:#000000}#chart-d007c716-410a-4000-a364-3dd098396c53 .legends .legend text{fill:#000000}#chart-d007c716-410a-4000-a364-3dd098396c53 .legends .legend:hover text{fill:#000000}#chart-d007c716-410a-4000-a364-3dd098396c53 .axis .line{stroke:#000000}#chart-d007c716-410a-4000-a364-3dd098396c53 .axis .guide.line{stroke:#006400d}#chart-d007c716-410a-4000-a364-3dd098396c53 .axis .major.line{stroke:#000000}#chart-d007c716-410a-4000-a364-3dd098396c53 .axis text.major{fill:#000000}#chart-d007c716-410a-4000-a364-3dd098396c53 .axis.y .guides:hover .guide.line,#chart-d007c716-410a-4000-a364-3dd098396c53 .line-graph .axis.x .guides:hover .guide.line,#chart-d007c716-410a-4000-a364-3dd098396c53 .stackedline-graph .axis.x .guides:hover .guide.line,#chart-d007c716-410a-4000-a364-3dd098396c53 .xy-graph .axis.x .guides:hover .guide.line{stroke:#000000}#chart-d007c716-410a-4000-a364-3dd098396c53 .axis .guides:hover text{fill:#000000}#chart-d007c716-410a-4000-a364-3dd098396c53 .reactive{fill-opacity:.6;stroke-opacity:.8}#chart-d007c716-410a-4000-a364-3dd098396c53 .ci{stroke:#000000}#chart-d007c716-410a-4000-a364-3dd098396c53 .reactive.active,#chart-d007c716-410a-4000-a364-3dd098396c53 .active .reactive{fill-opacity:.9;stroke-opacity:.9;stroke-width:4}#chart-d007c716-410a-4000-a364-3dd098396c53 .ci .reactive.active{stroke-width:1.5}#chart-d007c716-410a-4000-a364-3dd098396c53 .series text{fill:#000000}#chart-d007c716-410a-4000-a364-3dd098396c53 .tooltip rect{fill:transparent;stroke:#000000;-webkit-transition:opacity 100ms ease-in;-moz-transition:opacity 100ms ease-in;transition:opacity 100ms ease-in}#chart-d007c716-410a-4000-a364-3dd098396c53 .tooltip .label{fill:#000000}#chart-d007c716-410a-4000-a364-3dd098396c53 .tooltip .label{fill:#000000}#chart-d007c716-410a-4000-a364-3dd098396c53 .tooltip .legend{font-size:.8em;fill:#006400d}#chart-d007c716-410a-4000-a364-3dd098396c53 .tooltip .x_label{font-size:.6em;fill:#000000}#chart-d007c716-410a-4000-a364-3dd098396c53 .tooltip .xlink{font-size:.5em;text-decoration:underline}#chart-d007c716-410a-4000-a364-3dd098396c53 .tooltip .value{font-size:1.5em}#chart-d007c716-410a-4000-a364-3dd098396c53 .bound{font-size:.5em}#chart-d007c716-410a-4000-a364-3dd098396c53 .max-value{font-size:.75em;fill:#006400d}#chart-d007c716-410a-4000-a364-3dd098396c53 .map-element{fill:transparent;stroke:#006400d !important}#chart-d007c716-410a-4000-a364-3dd098396c53 .map-element .reactive{fill-opacity:inherit;stroke-opacity:inherit}#chart-d007c716-410a-4000-a364-3dd098396c53 .color-0,#chart-d007c716-410a-4000-a364-3dd098396c53 .color-0 a:visited{stroke:#006400;fill:#006400}#chart-d007c716-410a-4000-a364-3dd098396c53 .color-1,#chart-d007c716-410a-4000-a364-3dd098396c53 .color-1 a:visited{stroke:#0022AA;fill:#0022AA}#chart-d007c716-410a-4000-a364-3dd098396c53 .color-2,#chart-d007c716-410a-4000-a364-3dd098396c53 .color-2 a:visited{stroke:#FF1111;fill:#FF1111}#chart-d007c716-410a-4000-a364-3dd098396c53 .text-overlay .color-0 text{fill:black}#chart-d007c716-410a-4000-a364-3dd098396c53 .text-overlay .color-1 text{fill:black}#chart-d007c716-410a-4000-a364-3dd098396c53 .text-overlay .color-2 text{fill:black}
#chart-d007c716-410a-4000-a364-3dd098396c53 text.no_data{text-anchor:middle}#chart-d007c716-410a-4000-a364-3dd098396c53 .guide.line{fill:none}#chart-d007c716-410a-4000-a364-3dd098396c53 .centered{text-anchor:middle}#chart-d007c716-410a-4000-a364-3dd098396c53 .title{text-anchor:middle}#chart-d007c716-410a-4000-a364-3dd098396c53 .legends .legend text{fill-opacity:1}#chart-d007c716-410a-4000-a364-3dd098396c53 .axis.x text{text-anchor:middle}#chart-d007c716-410a-4000-a364-3dd098396c53 .axis.x:not(.web) text[transform]{text-anchor:start}#chart-d007c716-410a-4000-a364-3dd098396c53 .axis.x:not(.web) text[transform].backwards{text-anchor:end}#chart-d007c716-410a-4000-a364-3dd098396c53 .axis.y text{text-anchor:end}#chart-d007c716-410a-4000-a364-3dd098396c53 .axis.y text[transform].backwards{text-anchor:start}#chart-d007c716-410a-4000-a364-3dd098396c53 .axis.y2 text{text-anchor:start}#chart-d007c716-410a-4000-a364-3dd098396c53 .axis.y2 text[transform].backwards{text-anchor:end}#chart-d007c716-410a-4000-a364-3dd098396c53 .axis .guide.line{stroke-dasharray:4,4}#chart-d007c716-410a-4000-a364-3dd098396c53 .axis .major.guide.line{stroke-dasharray:6,6}#chart-d007c716-410a-4000-a364-3dd098396c53 .horizontal .axis.y .guide.line,#chart-d007c716-410a-4000-a364-3dd098396c53 .horizontal .axis.y2 .guide.line,#chart-d007c716-410a-4000-a364-3dd098396c53 .vertical .axis.x .guide.line{opacity:0}#chart-d007c716-410a-4000-a364-3dd098396c53 .horizontal .axis.always_show .guide.line,#chart-d007c716-410a-4000-a364-3dd098396c53 .vertical .axis.always_show .guide.line{opacity:1 !important}#chart-d007c716-410a-4000-a364-3dd098396c53 .axis.y .guides:hover .guide.line,#chart-d007c716-410a-4000-a364-3dd098396c53 .axis.y2 .guides:hover .guide.line,#chart-d007c716-410a-4000-a364-3dd098396c53 .axis.x .guides:hover .guide.line{opacity:1}#chart-d007c716-410a-4000-a364-3dd098396c53 .axis .guides:hover text{opacity:1}#chart-d007c716-410a-4000-a364-3dd098396c53 .nofill{fill:none}#chart-d007c716-410a-4000-a364-3dd098396c53 .subtle-fill{fill-opacity:.2}#chart-d007c716-410a-4000-a364-3dd098396c53 .dot{stroke-width:1px;fill-opacity:1}#chart-d007c716-410a-4000-a364-3dd098396c53 .dot.active{stroke-width:5px}#chart-d007c716-410a-4000-a364-3dd098396c53 .dot.negative{fill:transparent}#chart-d007c716-410a-4000-a364-3dd098396c53 text,#chart-d007c716-410a-4000-a364-3dd098396c53 tspan{stroke:none !important}#chart-d007c716-410a-4000-a364-3dd098396c53 .series text.active{opacity:1}#chart-d007c716-410a-4000-a364-3dd098396c53 .tooltip rect{fill-opacity:.95;stroke-width:.5}#chart-d007c716-410a-4000-a364-3dd098396c53 .tooltip text{fill-opacity:1}#chart-d007c716-410a-4000-a364-3dd098396c53 .showable{visibility:hidden}#chart-d007c716-410a-4000-a364-3dd098396c53 .showable.shown{visibility:visible}#chart-d007c716-410a-4000-a364-3dd098396c53 .gauge-background{fill:rgba(229,229,229,1);stroke:none}#chart-d007c716-410a-4000-a364-3dd098396c53 .bg-lines{stroke:transparent;stroke-width:2px}</style><script type="text/javascript">window.pygal = window.pygal || {};window.pygal.config = window.pygal.config || {};window.pygal.config['d007c716-410a-4000-a364-3dd098396c53'] = {"dynamic_print_values": false, "truncate_label": null, "inner_radius": 0, "print_values": false, "xrange": null, "box_mode": "extremes", "title": null, "legend_at_bottom_columns": null, "height": 600, "legend_at_bottom": false, "show_legend": true, "show_dots": false, "explicit_size": false, "y_labels_major": null, "show_minor_x_labels": true, "width": 800, "force_uri_protocol": "https", "half_pie": false, "style": {"major_label_font_family": "Consolas, \"Liberation Mono\", Menlo, Courier, monospace", "title_font_family": "Consolas, \"Liberation Mono\", Menlo, Courier, monospace", "stroke_opacity": ".8", "legend_font_family": "Consolas, \"Liberation Mono\", Menlo, Courier, monospace", "colors": ["#006400", "#0022AA", "#FF1111", "#FFEBCD", "#DC143C", "#FFFFFF", "#6495ED", "#B0C4DE", "#D2691E", "#8B0000"], "legend_font_size": 14, "no_data_font_family": "Consolas, \"Liberation Mono\", Menlo, Courier, monospace", "major_label_font_size": 10, "value_background": "rgba(229, 229, 229, 1)", "ci_colors": [], "label_font_family": "Consolas, \"Liberation Mono\", Menlo, Courier, monospace", "label_font_size": 10, "tooltip_font_size": 14, "value_font_size": 16, "font_family": "Consolas, \"Liberation Mono\", Menlo, Courier, monospace", "opacity": ".6", "foreground": "#000000", "plot_background": "transparent", "value_label_font_size": 10, "value_label_font_family": "Consolas, \"Liberation Mono\", Menlo, Courier, monospace", "background": "transparent", "no_data_font_size": 64, "value_colors": [], "guide_stroke_dasharray": "4,4", "transition": "100ms ease-in", "foreground_subtle": "#006400d", "value_font_family": "Consolas, \"Liberation Mono\", Menlo, Courier, monospace", "tooltip_font_family": "Consolas, \"Liberation Mono\", Menlo, Courier, monospace", "title_font_size": 16, "stroke_opacity_hover": ".9", "major_guide_stroke_dasharray": "6,6", "opacity_hover": ".9", "foreground_strong": "#000000"}, "x_label_rotation": 0, "fill": false, "missing_value_fill_truncation": "x", "zero": 0, "margin_right": null, "interpolation_parameters": {}, "x_labels_major": null, "rounded_bars": null, "show_y_labels": true, "dots_size": 2.5, "show_y_guides": true, "show_minor_y_labels": true, "x_labels": null, "y_title": null, "order_min": null, "formatter": null, "disable_xml_declaration": false, "strict": false, "css": ["file://style.css", "file://graph.css"], "tooltip_fancy_mode": true, "defs": [], "show_only_major_dots": false, "y_label_rotation": 0, "show_x_labels": true, "min_scale": 4, "show_x_guides": false, "spacing": 10, "x_labels_major_count": null, "pretty_print": false, "tooltip_border_radius": 0, "interpolate": null, "js": ["//kozea.github.io/pygal.js/2.0.x/pygal-tooltips.min.js"], "y_labels": null, "stroke_style": null, "print_labels": false, "interpolation_precision": 250, "x_title": "pure_500kbps", "y_labels_major_every": null, "logarithmic": false, "legends": ["qdelay", "txed(kbps)", "topo(kbps)"], "max_scale": 16, "print_zeroes": true, "no_data_text": "No data", "truncate_legend": null, "x_labels_major_every": null, "secondary_range": null, "legend_box_size": 12, "no_prefix": false, "stroke": true, "stack_from_top": false, "include_x_axis": false, "range": [0, 1000], "classes": ["pygal-chart"], "margin_top": null, "margin_left": null, "y_labels_major_count": null, "margin_bottom": null, "inverse_y_axis": false, "margin": 20, "allow_interruptions": false, "print_values_position": "center"}</script><script type="text/javascript" xlink:href="https://kozea.github.io/pygal.js/2.0.x/pygal-tooltips.min.js" /></defs><title>Pygal</title><g class="graph xy-graph vertical"><rect class="background" height="600" width="800" x="0" y="0" /><g class="plot" transform="translate(160, 20)"><rect class="background" height="514" width="620.0" x="0" y="0" /><g class="axis y always_show"><g class="guides"><path class="axis major line" d="M0.000000 504.115385 h620.000000" /><text class="major" x="-5" y="507.615384615">0</text><title>0</title></g><g class="guides"><path class="guide line" d="M0.000000 454.692308 h620.000000" /><text class="" x="-5" y="458.192307692">100</text><title>100</title></g><g class="guides"><path class="guide line" d="M0.000000 405.269231 h620.000000" /><text class="" x="-5" y="408.769230769">200</text><title>200</title></g><g class="guides"><path class="guide line" d="M0.000000 355.846154 h620.000000" /><text class="" x="-5" y="359.346153846">300</text><title>300</title></g><g class="guides"><path class="guide line" d="M0.000000 306.423077 h620.000000" /><text class="" x="-5" y="309.923076923">400</text><title>400</title></g><g class="guides"><path class="major guide line" d="M0.000000 257.000000 h620.000000" /><text class="major" x="-5" y="260.5">500</text><title>500</title></g><g class="guides"><path class="guide line" d="M0.000000 207.576923 h620.000000" /><text class="" x="-5" y="211.076923077">600</text><title>600</title></g><g class="guides"><path class="guide line" d="M0.000000 158.153846 h620.000000" /><text class="" x="-5" y="161.653846154">700</text><title>700</title></g><g class="guides"><path class="guide line" d="M0.000000 108.730769 h620.000000" /><text class="" x="-5" y="112.230769231">800</text><title>800</title></g><g class="guides"><path class="guide line" d="M0.000000 59.307692 h620.000000" /><text class="" x="-5" y="62.8076923077">900</text><title>900</title></g><g class="guides"><path class="major guide line" d="M0.000000 9.884615 h620.000000" /><text class="major" x="-5" y="13.3846153846">1000</text><title>1000</title></g></g><g class="axis x"><path class="line" d="M0.000000 0.000000 v514.000000" /><g class="guides"><path class="guide line" d="M60.221655 0.000000 v514.000000" /><text class="" x="60.2216553809" y="529.0">10</text><title>10</title></g><g class="guides"><path class="guide line" d="M110.067463 0.000000 v514.000000" /><text class="" x="110.06746265" y="529.0">20</text><title>20</title></g><g class="guides"><path class="guide line" d="M159.913270 0.000000 v514.000000" /><text class="" x="159.913269919" y="529.0">30</text><title>30</title></g><g class="guides"><path class="guide line" d="M209.759077 0.000000 v514.000000" /><text class="" x="209.759077189" y="529.0">40</text><title>40</title></g><g class="guides"><path class="guide line" d="M259.604884 0.000000 v514.000000" /><text class="" x="259.604884458" y="529.0">50</text><title>50</title></g><g class="guides"><path class="guide line" d="M309.450692 0.000000 v514.000000" /><text class="" x="309.450691727" y="529.0">60</text><title>60</title></g><g class="guides"><path class="guide line" d="M359.296499 0.000000 v514.000000" /><text class="" x="359.296498996" y="529.0">70</text><title>70</title></g><g class="guides"><path class="guide line" d="M409.142306 0.000000 v514.000000" /><text class="" x="409.142306265" y="529.0">80</text><title>80</title></g><g class="guides"><path class="guide line" d="M458.988114 0.000000 v514.000000" /><text class="" x="458.988113535" y="529.0">90</text><title>90</title></g><g class="guides"><path class="guide line" d="M508.833921 0.000000 v514.000000" /><text class="" x="508.833920804" y="529.0">100</text><title>100</title></g><g class="guides"><path class="guide line" d="M558.679728 0.000000 v514.000000" /><text class="" x="558.679728073" y="529.0">110</text><title>110</title></g></g><g class="series serie-0 color-0"><path class="line reactive nofill" d="M11.923077 504.115385 L12.420259 504.115385 12.918717 504.115385 13.417494 502.632692 13.915952 504.115385 14.414091 500.655769 14.912868 500.161538 15.411022 500.161538 15.909779 500.161538 16.407938 499.667308 16.906995 504.115385 17.404855 500.161538 17.903612 503.621154 18.401771 503.126923 18.900528 500.655769 19.398986 500.161538 19.897145 500.161538 20.395902 500.655769 20.894360 499.173077 21.392818 504.115385 21.891276 500.161538 22.389435 503.126923 22.888192 504.115385 23.386651 504.115385 23.885109 498.184615 24.383567 502.138462 24.881726 498.678846 25.380483 498.678846 25.878642 499.173077 26.377399 500.655769 26.875857 503.126923 27.374315 499.667308 27.872474 498.184615 28.371231 504.115385 28.869689 497.690385 29.367848 497.196154 29.866606 502.138462 30.365064 496.701923 30.863522 503.126923 31.361681 498.678846 31.860438 503.126923 32.359195 503.621154 32.857354 496.701923 33.355812 503.126923 33.853971 496.701923 34.352728 503.126923 34.850887 496.701923 35.349943 503.126923 35.848102 503.621154 36.346560 504.115385 36.845019 503.621154 37.343477 501.644231 37.841935 503.621154 38.340393 497.196154 38.838552 497.690385 39.337608 503.126923 39.835767 503.621154 40.334225 503.621154 40.832384 498.678846 41.331440 503.126923 41.829599 497.690385 42.328057 503.621154 42.826515 498.184615 43.324674 496.701923 43.823432 496.701923 44.321890 503.621154 44.820348 503.621154 45.318806 496.701923 45.817264 503.621154 46.315722 499.667308 46.813881 496.701923 47.312638 503.621154 47.811096 503.126923 48.309554 499.667308 48.808012 497.690385 49.306769 504.115385 49.804928 498.678846 50.303386 503.621154 50.802144 503.621154 51.300303 498.184615 51.798761 503.126923 52.297219 496.701923 52.795677 503.621154 53.294135 498.184615 53.792892 504.115385 54.291051 500.655769 54.789509 503.621154 55.287967 500.161538 55.786425 502.632692 56.284883 503.621154 56.783341 501.150000 57.281800 503.621154 57.780258 499.173077 58.278716 501.644231 58.776875 496.701923 59.275931 503.621154 59.774389 503.621154 60.272997 503.621154 60.770458 497.690385 61.269913 504.115385 61.767872 501.644231 62.265832 496.207692 62.764290 497.196154 63.263745 504.115385 63.762203 503.126923 64.260163 503.126923 64.758621 502.138462 65.257079 503.621154 65.755537 504.115385 66.253995 503.126923 66.752453 498.184615 67.250911 497.690385 67.749369 500.161538 68.247827 502.632692 68.746285 502.632692 69.245242 503.126923 69.742703 498.184615 70.242158 503.126923 70.740616 503.621154 71.238576 502.138462 71.737532 502.632692 72.235492 502.632692 72.733950 502.138462 73.232408 497.196154 73.730866 504.115385 74.229324 503.621154 74.728281 502.138462 75.226240 503.621154 75.725197 503.126923 76.223156 501.150000 76.721615 503.126923 77.220571 503.126923 77.718531 503.621154 78.217487 503.621154 78.715447 503.126923 79.214403 504.115385 79.712363 503.621154 80.211319 500.655769 80.709279 503.126923 81.208236 503.621154 81.706195 503.621154 82.205152 503.621154 82.703111 501.150000 83.201569 503.126923 83.700526 495.713462 84.198486 499.667308 84.696944 499.173077 85.195900 498.184615 85.694358 497.196154 86.192816 501.150000 86.691274 500.655769 87.189732 503.126923 87.687692 499.173077 88.186649 500.655769 88.684608 500.161538 89.183565 501.150000 89.682023 502.632692 90.179982 502.632692 90.678939 503.126923 91.177397 501.644231 91.675357 503.621154 92.174313 501.644231 92.672273 501.644231 93.171229 503.621154 93.669189 502.138462 94.167647 501.644231 94.666604 501.644231 95.164563 502.138462 95.663520 502.138462 96.161479 502.632692 96.660436 504.115385 97.158894 502.138462 97.656854 501.644231 98.155810 501.150000 98.653770 501.150000 99.152726 502.138462 99.650686 502.632692 100.149642 503.621154 100.647602 502.138462 101.146559 504.115385 101.644518 502.138462 102.143475 501.644231 102.641434 501.644231 103.140391 503.126923 103.638849 503.126923 104.136809 502.138462 104.635765 501.644231 105.133725 502.138462 105.632681 502.138462 106.131139 484.840385 106.629597 469.025000 107.128055 496.207692 107.626513 499.667308 108.124972 501.150000 108.623430 500.655769 109.121389 501.150000 109.619847 500.655769 110.118305 502.632692 110.616763 503.126923 111.115720 502.632692 111.614178 503.126923 112.112636 502.632692 112.610596 498.184615 113.109552 502.632692 113.608010 502.632692 114.105970 498.678846 114.604428 500.655769 115.102886 501.644231 115.601843 501.644231 116.100301 503.126923 116.598759 502.632692 117.097217 503.621154 117.595176 501.644231 118.094133 503.126923 118.592093 502.138462 119.091049 502.138462 119.589507 502.632692 120.087965 502.138462 120.585925 503.126923 121.084881 502.632692 121.582841 503.126923 122.081798 501.150000 122.579757 499.667308 123.078714 502.632692 123.576673 503.126923 124.075630 500.655769 124.573589 502.138462 125.072048 500.161538 125.571004 502.138462 126.068964 502.632692 126.567920 503.621154 127.066378 501.644231 127.564338 503.126923 128.063294 503.126923 128.561254 503.126923 129.060211 500.161538 129.558669 501.644231 130.057127 478.909615 130.555585 482.369231 131.054043 491.759615 131.552002 498.678846 132.050959 500.655769 132.549417 499.667308 133.047875 500.161538 133.546333 501.150000 134.044293 503.621154 134.542751 499.173077 135.041707 499.667308 135.540166 502.632692 136.038624 501.150000 136.537082 502.138462 137.035540 501.644231 137.533998 499.667308 138.032456 500.655769 138.530914 500.655769 139.029372 501.150000 139.527332 501.644231 140.026288 499.173077 140.524746 501.644231 141.023204 500.161538 141.521662 502.632692 142.020120 501.644231 142.518579 504.115385 143.016538 500.161538 143.515495 500.161538 144.013953 499.667308 144.511912 500.655769 145.010869 502.632692 145.509327 499.667308 146.008284 498.678846 146.506243 500.655769 147.004701 502.632692 147.502661 501.644231 148.001119 502.632692 148.500075 500.161538 148.998035 500.655769 149.496992 500.655769 149.995450 500.655769 150.493908 499.173077 150.992366 502.138462 151.490824 502.138462 151.988783 499.173077 152.487740 500.655769 152.986198 498.678846 153.484656 502.138462 153.983114 500.161538 154.481074 501.150000 154.979532 500.161538 155.478488 500.655769 155.976448 500.655769 156.475405 501.150000 156.973364 502.138462 157.472321 501.644231 157.970779 495.713462 158.469237 490.276923 158.967695 499.667308 159.466651 496.207692 159.964611 488.300000 160.463069 479.403846 160.961527 465.071154 161.459985 462.105769 161.958443 462.600000 162.456901 464.576923 162.955360 500.161538 163.452821 500.655769 163.951777 500.161538 164.450734 496.701923 164.949192 499.173077 165.447650 503.621154 165.946108 497.196154 166.444566 501.150000 166.943024 502.632692 167.440984 501.644231 167.939940 499.173077 168.438398 496.701923 168.936856 500.161538 169.434816 499.667308 169.933773 498.678846 170.431732 497.196154 170.930689 498.184615 171.429147 502.138462 171.927605 499.173077 172.426063 498.184615 172.924023 503.621154 173.422481 499.667308 173.921437 495.713462 174.419895 497.690385 174.918353 498.678846 175.416811 500.655769 175.915269 498.678846 176.413727 497.690385 176.912186 500.655769 177.410644 498.184615 177.909102 503.621154 178.407560 497.690385 178.906018 499.173077 179.404476 500.161538 179.902934 497.690385 180.401392 499.173077 180.899850 497.196154 181.398308 494.725000 181.896766 496.701923 182.394726 498.678846 182.893682 498.678846 183.392141 499.667308 183.890599 502.632692 184.389057 500.161538 184.887515 498.184615 185.385973 503.126923 185.884431 501.150000 186.382889 500.161538 186.881347 497.196154 187.379805 498.678846 187.877765 501.150000 188.376721 501.150000 188.875179 493.736538 189.373637 492.748077 189.872095 500.161538 190.370554 500.161538 190.869012 500.655769 191.367470 496.207692 191.865928 501.150000 192.364386 498.184615 192.862844 500.161538 193.361302 496.207692 193.859760 499.173077 194.358218 502.632692 194.856178 502.138462 195.355134 501.644231 195.853592 501.150000 196.352050 501.150000 196.850508 500.655769 197.348967 497.196154 197.847425 496.207692 198.345883 488.794231 198.844341 500.655769 199.342799 497.196154 199.841257 503.126923 200.339715 499.173077 200.838173 497.690385 201.336631 502.138462 201.834591 496.207692 202.333547 503.621154 202.832005 497.690385 203.330463 496.701923 203.828921 500.655769 204.327380 500.655769 204.825838 497.690385 205.324296 501.644231 205.822754 497.196154 206.321212 494.725000 206.819670 496.207692 207.318128 498.678846 207.816586 503.126923 208.315044 496.701923 208.813502 497.690385 209.311462 498.184615 209.810418 501.644231 210.308876 499.667308 210.807335 497.690385 211.305793 499.667308 211.804251 497.196154 212.302709 499.667308 212.801167 496.701923 213.300123 498.184615 213.798083 502.138462 214.296043 497.196154 214.794999 497.196154 215.293457 501.150000 215.791417 503.126923 216.290373 500.161538 216.788831 496.701923 217.287289 495.713462 217.785748 501.644231 218.284206 503.621154 218.782664 497.690385 219.280623 499.173077 219.779580 495.219231 220.278038 491.759615 220.776496 496.207692 221.274954 502.632692 221.773412 501.150000 222.271870 500.161538 222.769830 498.678846 223.268786 500.655769 223.767244 497.196154 224.265702 490.276923 224.764659 493.736538 225.262619 498.678846 225.761077 498.184615 226.259036 503.621154 226.757494 501.644231 227.256451 498.678846 227.754909 500.161538 228.252869 497.690385 228.751327 498.678846 229.250283 499.173077 229.748741 496.701923 230.247199 499.173077 230.745657 498.184615 231.244115 497.690385 231.742574 502.632692 232.241032 498.184615 232.739490 498.678846 233.237948 498.184615 233.735907 496.701923 234.234864 498.184615 234.733322 499.667308 235.231780 500.655769 235.730238 495.713462 236.228696 497.690385 236.727154 497.196154 237.225612 499.173077 237.724070 500.655769 238.222529 497.196154 238.720987 500.161538 239.219445 499.173077 239.717903 503.126923 240.216361 500.655769 240.714819 497.196154 241.213277 502.632692 241.711735 502.138462 242.210193 499.667308 242.708651 500.655769 243.207109 492.748077 243.705567 495.219231 244.204025 497.690385 244.702483 503.126923 245.200942 502.632692 245.699400 499.667308 246.197858 500.161538 246.696316 499.667308 247.194774 499.667308 247.693232 496.701923 248.191690 498.184615 248.690148 499.667308 249.188606 498.184615 249.687064 497.690385 250.185522 499.173077 250.683980 502.138462 251.182438 500.655769 251.680896 502.138462 252.179355 494.725000 252.677813 497.690385 253.176271 499.667308 253.674729 501.644231 254.173187 503.621154 254.671146 501.150000 255.170103 497.690385 255.668561 502.138462 256.166521 496.701923 256.665477 497.690385 257.163935 498.184615 257.662892 497.196154 258.160353 499.667308 258.659309 496.207692 259.157768 500.161538 259.656226 493.736538 260.154684 497.196154 260.653142 501.644231 261.151600 499.173077 261.650058 498.184615 262.148516 498.184615 262.646974 496.701923 263.145432 498.184615 263.643890 499.173077 264.141850 500.161538 264.640806 497.196154 265.139264 500.655769 265.637723 493.242308 266.136181 501.150000 266.634639 501.150000 267.132598 500.161538 267.631555 497.196154 268.130013 493.242308 268.628471 498.678846 269.126929 496.207692 269.625387 490.276923 270.123845 498.678846 270.622303 497.196154 271.120761 498.184615 271.618721 503.621154 272.117677 498.678846 272.616136 500.655769 273.114095 499.173077 273.613052 499.667308 274.111510 499.667308 274.609968 503.126923 275.107927 497.196154 275.606386 498.184615 276.104844 499.173077 276.603800 496.207692 277.102258 501.644231 277.600218 499.667308 278.099174 499.173077 278.597632 500.161538 279.096090 503.126923 279.594549 492.253846 280.093007 500.655769 280.591465 496.207692 281.089923 496.207692 281.588381 499.173077 282.086839 499.173077 282.585297 496.207692 283.083755 495.713462 283.582213 497.196154 284.080671 499.667308 284.579129 496.207692 285.077587 501.150000 285.576045 503.621154 286.074503 495.713462 286.572962 495.219231 287.071420 496.701923 287.569878 500.161538 288.068336 500.655769 288.566794 500.655769 289.065252 502.632692 289.564208 496.207692 290.062168 496.701923 290.560626 496.207692 291.059084 496.701923 291.557542 498.184615 292.056000 495.713462 292.554458 496.207692 293.052917 500.161538 293.550876 498.678846 294.049833 500.655769 294.547792 499.667308 295.046250 497.690385 295.545207 500.161538 296.043665 494.725000 296.542123 502.632692 297.040581 498.184615 297.539039 499.667308 298.036999 497.196154 298.535955 500.655769 299.034413 499.667308 299.532871 496.207692 300.031330 496.207692 300.529788 496.207692 301.028246 497.690385 301.526704 496.701923 302.025162 492.253846 302.523620 500.655769 303.022078 499.667308 303.520536 500.655769 304.018994 497.196154 304.517452 502.138462 305.015910 500.161538 305.514368 502.138462 306.012826 500.161538 306.511284 499.667308 307.009743 503.621154 307.508201 496.207692 308.006659 498.184615 308.505117 497.690385 309.003076 498.678846 309.502033 502.138462 310.000491 496.207692 310.498949 502.138462 310.997407 495.713462 311.495865 493.736538 311.994323 495.713462 312.492781 485.828846 312.991239 495.713462 313.489697 499.667308 313.988156 503.126923 314.486614 498.678846 314.985072 486.817308 315.483530 492.253846 315.981489 498.678846 316.480446 499.173077 316.978904 497.690385 317.477362 499.667308 317.975820 501.644231 318.474278 496.207692 318.972736 503.126923 319.471194 499.667308 319.969154 499.173077 320.468111 498.678846 320.966569 497.690385 321.465027 503.126923 321.963485 496.207692 322.461943 497.196154 322.960401 500.655769 323.458859 498.184615 323.957317 500.655769 324.455775 496.207692 324.954233 493.242308 325.452691 496.207692 325.951149 500.161538 326.449607 502.138462 326.948065 503.126923 327.446025 496.207692 327.944982 503.621154 328.443440 501.150000 328.941898 501.644231 329.440356 499.173077 329.938814 500.655769 330.436774 499.173077 330.935730 500.161538 331.434188 498.184615 331.932646 498.184615 332.431104 497.690385 332.929562 501.644231 333.428020 497.690385 333.926478 493.736538 334.424937 497.690385 334.923395 500.655769 335.421853 498.184615 335.920311 496.701923 336.418270 497.690385 336.917227 495.713462 337.415685 499.667308 337.914143 501.150000 338.412601 500.161538 338.910561 503.621154 339.409517 502.138462 339.907975 497.196154 340.406433 499.667308 340.904891 495.713462 341.403350 499.173077 341.901808 500.655769 342.400266 498.678846 342.898724 501.644231 343.396683 498.678846 343.895640 499.667308 344.394098 501.644231 344.892556 500.161538 345.391014 497.690385 345.889472 503.126923 346.387930 499.173077 346.886388 498.678846 347.384846 499.173077 347.883305 501.150000 348.381763 502.138462 348.880221 501.150000 349.378679 502.632692 349.876638 497.690385 350.375096 501.644231 350.874053 497.196154 351.372511 496.207692 351.870969 499.667308 352.369427 496.207692 352.867885 500.655769 353.366343 497.690385 353.864801 501.644231 354.363259 503.621154 354.861718 499.173077 355.360176 501.644231 355.858634 498.184615 356.357092 498.678846 356.855550 496.207692 357.354008 491.265385 357.852466 498.678846 358.350924 500.655769 358.849382 499.667308 359.347840 502.632692 359.846298 499.667308 360.344756 491.759615 360.843214 495.713462 361.341672 498.678846 361.840131 497.196154 362.338589 500.161538 362.837047 498.678846 363.335505 496.207692 363.833963 501.644231 364.332421 498.678846 364.830879 501.644231 365.329337 496.701923 365.827795 499.667308 366.326253 500.161538 366.824711 497.690385 367.323169 497.690385 367.821627 499.173077 368.319587 497.196154 368.818544 500.161538 369.317002 497.196154 369.815460 496.207692 370.313918 502.138462 370.812376 498.184615 371.310834 496.701923 371.809292 499.667308 372.307750 498.678846 372.806208 482.369231 373.304666 487.311538 373.803124 500.161538 374.301582 497.196154 374.800040 500.161538 375.298499 498.678846 375.796957 495.713462 376.295415 495.713462 376.794371 493.736538 377.292331 500.161538 377.790290 496.701923 378.289247 503.621154 378.787705 500.161538 379.285665 501.150000 379.784621 498.184615 380.283079 496.701923 380.781537 501.644231 381.279995 496.207692 381.778453 499.173077 382.276912 501.644231 382.775370 492.748077 383.273828 494.230769 383.772286 502.138462 384.270744 498.678846 384.769202 498.184615 385.267660 498.678846 385.766118 500.161538 386.264576 496.701923 386.763034 499.667308 387.261492 497.690385 387.759950 497.690385 388.258408 496.701923 388.756866 496.207692 389.255823 498.184615 389.753783 497.196154 390.252241 500.161538 390.750699 494.725000 391.249157 498.184615 391.747615 498.678846 392.246073 496.207692 392.744531 501.644231 393.242989 499.173077 393.741447 498.678846 394.239905 492.253846 394.738363 502.138462 395.236821 497.196154 395.735279 498.184615 396.233738 499.667308 396.732196 500.655769 397.230654 498.184615 397.729112 498.184615 398.227570 497.690385 398.726028 500.161538 399.224486 497.196154 399.722944 502.138462 400.221402 496.207692 400.719860 502.138462 401.218318 500.655769 401.716776 503.621154 402.215234 498.184615 402.713693 496.701923 403.212151 499.173077 403.710609 504.115385 404.209067 498.184615 404.707525 498.678846 405.205983 498.184615 405.703942 496.701923 406.202899 503.621154 406.700859 497.690385 407.199815 497.690385 407.697775 500.655769 408.196731 499.173077 408.695189 497.196154 409.193647 496.207692 409.692106 500.655769 410.190564 498.184615 410.689022 499.173077 411.187480 500.161538 411.685938 495.713462 412.184396 500.161538 412.682355 497.196154 413.181312 500.161538 413.679770 500.655769 414.178228 498.678846 414.676686 495.713462 415.175144 488.794231 415.673602 494.230769 416.172060 501.150000 416.670519 496.701923 417.168478 503.126923 417.667435 496.701923 418.165893 498.678846 418.663852 503.126923 419.162809 497.196154 419.661267 502.632692 420.159725 496.207692 420.658183 500.655769 421.156641 495.713462 421.655099 501.150000 422.153557 500.655769 422.652015 500.161538 423.150473 497.690385 423.648932 502.632692 424.147390 499.173077 424.645848 499.173077 425.144306 498.678846 425.642764 502.138462 426.141222 500.655769 426.639680 501.150000 427.137640 501.150000 427.636596 499.667308 428.135054 493.736538 428.633512 503.621154 429.131970 498.678846 429.630428 501.150000 430.128887 501.644231 430.626846 500.161538 431.125803 501.644231 431.624261 501.644231 432.122220 497.196154 432.621177 497.196154 433.119635 498.678846 433.618093 499.173077 434.116551 497.196154 434.615009 499.173077 435.113467 501.150000 435.611925 500.161538 436.110383 498.678846 436.608841 496.207692 437.107300 501.150000 437.605758 498.184615 438.104216 498.678846 438.602674 501.150000 439.101132 496.701923 439.599590 501.150000 440.098048 501.644231 440.596008 499.667308 441.094964 499.173077 441.593422 498.678846 442.091880 500.655769 442.590338 499.173077 443.088796 499.173077 443.586756 501.150000 444.085713 496.701923 444.584171 495.713462 445.082629 501.150000 445.581087 501.150000 446.079545 496.701923 446.578003 498.678846 447.076461 498.678846 447.574919 499.667308 448.073377 501.644231 448.571835 499.667308 449.070293 498.678846 449.568751 499.667308 450.067209 497.690385 450.565667 497.690385 451.064126 497.690385 451.562584 494.725000 452.061042 487.311538 452.559500 475.944231 453.057958 472.978846 453.556416 475.450000 454.054874 484.346154 454.553332 490.276923 455.051790 492.748077 455.550747 493.736538 456.048706 500.655769 456.547164 500.655769 457.045622 497.690385 457.543582 497.690385 458.042539 499.173077 458.540997 500.161538 459.039455 502.138462 459.537913 495.713462 460.036371 494.230769 460.534829 497.690385 461.033287 500.655769 461.531745 502.138462 462.030203 497.196154 462.528661 497.196154 463.027119 503.621154 463.525577 500.655769 464.024035 498.678846 464.522494 499.173077 465.020952 499.667308 465.519410 499.173077 466.017868 499.667308 466.516326 501.150000 467.014784 501.644231 467.513242 498.184615 468.011700 499.667308 468.510158 500.161538 469.008616 501.644231 469.507074 486.323077 470.005532 479.898077 470.503990 494.725000 471.002448 493.736538 471.500907 471.496154 471.999365 485.334615 472.497823 492.253846 472.995782 499.667308 473.494739 497.196154 473.993197 501.150000 474.491655 492.253846 474.990113 498.184615 475.488571 500.161538 475.987029 499.667308 476.485487 498.184615 476.983945 498.678846 477.482403 500.161538 477.980861 500.655769 478.479320 502.138462 478.977778 499.667308 479.476236 503.126923 479.974694 500.161538 480.473152 499.173077 480.971610 495.713462 481.470068 490.276923 481.968526 497.196154 482.466486 497.196154 482.965442 495.713462 483.463900 487.311538 483.962358 497.196154 484.460816 498.184615 484.959274 497.690385 485.457733 502.138462 485.956191 501.150000 486.454649 501.644231 486.953107 497.690385 487.451565 501.150000 487.950023 499.667308 488.448481 499.173077 488.946939 496.207692 489.444899 498.678846 489.943855 499.667308 490.442313 496.701923 490.940771 501.644231 491.439229 503.126923 491.937688 499.173077 492.436146 499.173077 492.934604 500.655769 493.433062 503.126923 493.931520 501.644231 494.429978 495.713462 494.928436 499.173077 495.426894 499.667308 495.925352 498.184615 496.423810 498.678846 496.922268 499.667308 497.420726 497.196154 497.919184 502.138462 498.417144 497.690385 498.916101 499.667308 499.414559 499.173077 499.913017 494.725000 500.411475 491.265385 500.909933 498.678846 501.408391 500.161538 501.906849 500.161538 502.405307 498.184615 502.903765 499.173077 503.402223 499.667308 503.900681 496.207692 504.399139 499.173077 504.897099 503.126923 505.396055 502.632692 505.894514 502.138462 506.392473 498.678846 506.891430 498.184615 507.389888 496.207692 507.888346 498.678846 508.386804 498.184615 508.883767 498.184615 509.382225 499.667308 509.880683 500.161538 510.379141 500.655769 510.877599 504.115385 511.376057 499.173077 511.874515 503.126923 512.372973 498.184615 512.871431 502.138462 513.369889 499.667308 513.868347 495.713462 514.366805 495.713462 514.865263 487.311538 515.363722 500.161538 515.862180 497.196154 516.360638 494.230769 516.859096 498.184615 517.357554 498.184615 517.856012 497.690385 518.354470 495.219231 518.852928 499.667308 519.351386 498.184615 519.849844 496.701923 520.348302 500.161538 520.846760 502.632692 521.345218 499.173077 521.843677 501.150000 522.342135 498.678846 522.840593 503.621154 523.339051 500.655769 523.837509 500.161538 524.335967 495.219231 524.834425 497.196154 525.332883 490.771154 525.831341 502.138462 526.329799 504.115385 526.828257 496.701923 527.326715 498.184615 527.825173 496.207692 528.323631 503.621154 528.822090 499.173077 529.320548 502.632692 529.819006 502.632692 530.317464 497.690385 530.815922 502.632692 531.314380 500.161538 531.812838 503.126923 532.311296 496.701923 532.809754 489.782692 533.308212 500.655769 533.806670 499.173077 534.305128 498.678846 534.803586 499.667308 535.302044 500.655769 535.800503 498.678846 536.298961 500.161538 536.797419 495.713462 537.295877 496.207692 537.794335 498.184615 538.292793 500.161538 538.791251 502.138462 539.289709 496.701923 539.788167 501.644231 540.286625 499.173077 540.785083 496.701923 541.283541 499.667308 541.781999 494.725000 542.280457 499.173077 542.778916 498.184615 543.277374 499.667308 543.775832 497.196154 544.274290 503.621154 544.772748 492.253846 545.271206 493.736538 545.769664 500.655769 546.268122 501.150000 546.766580 503.621154 547.265038 491.265385 547.763496 497.690385 548.261954 502.632692 548.760412 496.207692 549.258870 500.655769 549.757329 497.690385 550.255787 499.173077 550.754245 500.655769 551.252703 492.253846 551.751161 499.173077 552.249619 501.644231 552.748077 502.138462 553.246535 501.150000 553.744993 502.138462 554.243451 496.207692 554.741909 498.184615 555.240367 487.805769 555.738825 492.748077 556.237284 503.126923 556.735742 497.690385 557.234200 495.219231 557.732658 485.334615 558.231116 487.805769 558.729574 491.759615 559.228032 500.161538 559.726490 500.161538 560.224948 503.621154 560.723406 501.150000 561.221864 496.207692 561.720322 501.150000 562.218780 498.184615 562.717238 501.150000 563.215697 496.701923 563.714155 501.644231 564.212613 499.667308 564.711071 498.184615 565.209529 497.690385 565.707987 499.667308 566.206445 500.161538 566.704903 496.207692 567.203361 495.713462 567.701819 496.701923 568.200277 498.184615 568.698735 501.150000 569.197193 497.690385 569.695651 502.138462 570.194110 497.690385 570.692568 499.173077 571.191026 497.690385 571.689484 498.678846 572.187942 495.713462 572.686400 494.725000 573.184858 500.655769 573.683316 500.161538 574.181774 495.219231 574.680232 503.621154 575.178690 498.184615 575.677148 501.150000 576.175606 501.644231 576.674064 501.644231 577.172523 502.138462 577.670981 499.667308 578.169439 498.184615 578.667897 500.655769 579.166355 496.701923 579.664813 501.644231 580.163271 501.150000 580.661729 498.678846 581.160187 498.678846 581.658645 497.690385 582.157103 496.207692 582.655561 499.667308 583.154019 498.184615 583.652478 498.678846 584.150936 496.701923 584.649394 501.150000 585.147852 499.173077 585.646310 497.196154 586.144768 501.150000 586.643226 498.678846 587.141684 495.713462 587.640142 499.667308 588.138600 499.667308 588.637058 493.736538 589.135516 498.184615 589.633974 497.690385 590.132432 498.678846 590.630891 498.184615 591.129349 496.701923 591.627807 501.644231 592.126265 503.126923 592.624723 501.150000 593.123181 499.173077 593.621639 503.621154 594.120097 498.678846 594.618555 497.690385 595.117013 498.184615 595.615471 497.196154 596.113929 498.184615 596.612387 499.667308 597.110845 503.621154 597.609304 501.644231 598.107762 500.161538 598.606220 499.667308 599.104678 497.690385 599.603136 498.678846 600.101594 499.173077 600.600052 498.184615 601.098510 497.690385 601.596968 492.253846 602.095426 494.230769 602.593884 501.644231 603.092342 498.678846 603.590800 500.655769 604.089258 502.632692 604.587717 496.207692 605.086175 497.196154 605.584633 497.196154 606.083091 497.690385 606.581549 500.161538 607.080007 500.655769 607.578465 501.644231 608.076923 503.621154" /></g><g class="series serie-1 color-1"><path class="line reactive nofill" d="M11.923077 374.626923 L12.420259 472.978846 12.918717 479.898077 13.417494 426.521154 13.915952 425.038462 14.414091 444.807692 14.912868 412.682692 15.411022 443.325000 15.909779 406.257692 16.407938 395.384615 16.906995 395.878846 17.404855 444.807692 17.903612 392.419231 18.401771 451.726923 18.900528 406.257692 19.398986 413.671154 19.897145 444.313462 20.395902 416.142308 20.894360 395.878846 21.392818 433.440385 21.891276 417.625000 22.389435 478.415385 22.888192 393.901923 23.386651 444.807692 23.885109 402.798077 24.383567 420.096154 24.881726 436.405769 25.380483 412.682692 25.878642 442.336538 26.377399 422.073077 26.875857 425.532692 27.374315 427.015385 27.872474 410.211538 28.371231 428.003846 28.869689 435.911538 29.367848 433.440385 29.866606 383.028846 30.365064 392.419231 30.863522 411.200000 31.361681 440.853846 31.860438 386.488462 32.359195 383.523077 32.857354 390.936538 33.355812 423.555769 33.853971 431.463462 34.352728 425.038462 34.850887 427.015385 35.349943 390.936538 35.848102 397.361538 36.346560 403.786538 36.845019 429.980769 37.343477 390.442308 37.841935 422.073077 38.340393 403.786538 38.838552 440.359615 39.337608 362.765385 39.835767 397.361538 40.334225 424.050000 40.832384 444.807692 41.331440 382.040385 41.829599 399.338462 42.328057 418.613462 42.826515 399.832692 43.324674 432.946154 43.823432 394.890385 44.321890 425.532692 44.820348 425.038462 45.318806 393.407692 45.817264 366.225000 46.315722 386.488462 46.813881 430.969231 47.312638 389.453846 47.811096 391.430769 48.309554 367.213462 48.808012 401.315385 49.306769 383.028846 49.804928 402.303846 50.303386 424.050000 50.802144 402.303846 51.300303 403.292308 51.798761 436.405769 52.297219 391.925000 52.795677 394.396154 53.294135 354.857692 53.792892 422.567308 54.291051 387.971154 54.789509 387.476923 55.287967 376.109615 55.786425 425.038462 56.284883 427.015385 56.783341 430.475000 57.281800 398.350000 57.780258 451.232692 58.278716 414.659615 58.776875 428.498077 59.275931 385.005769 59.774389 389.453846 60.272997 394.890385 60.770458 434.923077 61.269913 376.109615 61.767872 384.017308 62.265832 427.015385 62.764290 432.946154 63.263745 381.546154 63.762203 379.569231 64.260163 374.132692 64.758621 380.063462 65.257079 423.555769 65.755537 404.280769 66.253995 380.063462 66.752453 402.798077 67.250911 392.419231 67.749369 369.684615 68.247827 436.900000 68.746285 421.084615 69.245242 388.959615 69.742703 404.280769 70.242158 374.132692 70.740616 385.500000 71.238576 416.636538 71.737532 340.030769 72.235492 382.534615 72.733950 393.901923 73.232408 385.994231 73.730866 420.590385 74.229324 389.948077 74.728281 399.338462 75.226240 382.534615 75.725197 434.428846 76.223156 381.546154 76.721615 387.476923 77.220571 405.763462 77.718531 372.650000 78.217487 400.326923 78.715447 393.407692 79.214403 421.578846 79.712363 428.498077 80.211319 359.305769 80.709279 384.017308 81.208236 407.246154 81.706195 424.544231 82.205152 377.592308 82.703111 407.246154 83.201569 375.615385 83.700526 273.803846 84.198486 421.084615 84.696944 377.592308 85.195900 299.009615 85.694358 315.319231 86.192816 297.032692 86.691274 363.259615 87.189732 339.042308 87.687692 365.730769 88.186649 374.132692 88.684608 340.030769 89.183565 345.961538 89.682023 362.271154 90.179982 410.211538 90.678939 392.913462 91.177397 347.938462 91.675357 421.578846 92.174313 356.340385 92.672273 395.384615 93.171229 378.580769 93.669189 403.292308 94.167647 350.409615 94.666604 385.994231 95.164563 400.326923 95.663520 347.444231 96.161479 361.776923 96.660436 407.246154 97.158894 367.213462 97.656854 401.809615 98.155810 373.638462 98.653770 391.430769 99.152726 394.396154 99.650686 364.742308 100.149642 427.015385 100.647602 369.190385 101.146559 385.500000 101.644518 400.326923 102.143475 404.280769 102.641434 385.500000 103.140391 417.625000 103.638849 344.478846 104.136809 350.903846 104.635765 393.407692 105.133725 408.234615 105.632681 298.021154 106.131139 137.396154 106.629597 295.550000 107.128055 346.455769 107.626513 288.136538 108.124972 325.203846 108.623430 350.409615 109.121389 383.523077 109.619847 374.626923 110.118305 365.236538 110.616763 452.221154 111.115720 370.673077 111.614178 370.673077 112.112636 374.626923 112.610596 401.315385 113.109552 350.903846 113.608010 345.467308 114.105970 403.786538 114.604428 440.359615 115.102886 416.142308 115.601843 390.442308 116.100301 361.776923 116.598759 402.303846 117.097217 434.923077 117.595176 396.867308 118.094133 370.673077 118.592093 366.719231 119.091049 358.811538 119.589507 311.859615 120.087965 362.765385 120.585925 431.957692 121.084881 410.211538 121.582841 415.153846 122.081798 358.317308 122.579757 348.926923 123.078714 355.846154 123.576673 395.878846 124.075630 371.661538 124.573589 372.650000 125.072048 372.155769 125.571004 393.407692 126.068964 366.719231 126.567920 378.086538 127.066378 344.973077 127.564338 419.601923 128.063294 354.857692 128.561254 405.763462 129.060211 356.834615 129.558669 240.690385 130.057127 127.511538 130.555585 309.388462 131.054043 348.432692 131.552002 359.800000 132.050959 315.813462 132.549417 318.778846 133.047875 338.548077 133.546333 384.017308 134.044293 385.005769 134.542751 378.580769 135.041707 339.536538 135.540166 355.846154 136.038624 342.007692 136.537082 357.328846 137.035540 343.490385 137.533998 342.007692 138.032456 323.226923 138.530914 354.363462 139.029372 330.146154 139.527332 398.350000 140.026288 291.596154 140.524746 371.661538 141.023204 345.467308 141.521662 353.869231 142.020120 360.788462 142.518579 387.971154 143.016538 345.467308 143.515495 361.776923 144.013953 353.869231 144.511912 351.398077 145.010869 346.455769 145.509327 295.055769 146.008284 289.125000 146.506243 329.651923 147.004701 340.525000 147.502661 387.971154 148.001119 360.788462 148.500075 277.263462 148.998035 349.915385 149.496992 351.398077 149.995450 320.261538 150.493908 304.940385 150.992366 377.592308 151.490824 332.617308 151.988783 357.823077 152.487740 312.353846 152.986198 320.755769 153.484656 342.501923 153.983114 359.800000 154.481074 351.892308 154.979532 379.569231 155.478488 354.857692 155.976448 391.430769 156.475405 376.603846 156.973364 394.396154 157.472321 381.051923 157.970779 178.911538 158.469237 343.984615 158.967695 305.434615 159.466651 237.230769 159.964611 183.359615 160.463069 143.821154 160.961527 245.138462 161.459985 268.861538 161.958443 268.367308 162.456901 202.140385 162.955360 469.519231 163.452821 455.186538 163.951777 327.180769 164.450734 392.913462 164.949192 380.557692 165.447650 337.065385 165.946108 270.344231 166.444566 341.019231 166.943024 378.086538 167.440984 414.659615 167.939940 308.894231 168.438398 277.757692 168.936856 337.065385 169.434816 335.088462 169.933773 315.813462 170.431732 392.913462 170.930689 295.550000 171.429147 369.190385 171.927605 334.100000 172.426063 321.744231 172.924023 418.613462 173.422481 406.257692 173.921437 268.861538 174.419895 325.203846 174.918353 272.321154 175.416811 298.021154 175.915269 342.996154 176.413727 293.078846 176.912186 363.259615 177.410644 279.734615 177.909102 357.823077 178.407560 283.194231 178.906018 309.388462 179.404476 253.046154 179.902934 302.469231 180.401392 351.398077 180.899850 287.148077 181.398308 277.757692 181.896766 315.319231 182.394726 326.192308 182.893682 292.090385 183.392141 285.171154 183.890599 317.296154 184.389057 322.238462 184.887515 327.675000 185.385973 364.742308 185.884431 299.009615 186.382889 346.455769 186.881347 314.330769 187.379805 315.319231 187.877765 411.200000 188.376721 308.400000 188.875179 182.865385 189.373637 330.146154 189.872095 285.171154 190.370554 328.663462 190.869012 313.342308 191.367470 283.688462 191.865928 307.411538 192.364386 301.975000 192.862844 284.676923 193.361302 354.857692 193.859760 309.388462 194.358218 376.603846 194.856178 362.765385 195.355134 305.928846 195.853592 328.169231 196.352050 342.007692 196.850508 335.088462 197.348967 316.307692 197.847425 305.928846 198.345883 304.940385 198.844341 319.273077 199.342799 271.826923 199.841257 341.513462 200.339715 360.788462 200.838173 311.859615 201.336631 361.776923 201.834591 336.571154 202.333547 355.846154 202.832005 243.161538 203.330463 316.307692 203.828921 297.032692 204.327380 301.975000 204.825838 320.261538 205.324296 321.250000 205.822754 314.825000 206.321212 233.771154 206.819670 319.273077 207.318128 331.134615 207.816586 332.617308 208.315044 313.342308 208.813502 324.709615 209.311462 357.823077 209.810418 281.711538 210.308876 270.344231 210.807335 296.538462 211.305793 297.032692 211.804251 317.790385 212.302709 293.573077 212.801167 297.526923 213.300123 279.240385 213.798083 354.857692 214.296043 314.330769 214.794999 325.203846 215.293457 273.803846 215.791417 349.915385 216.290373 329.157692 216.788831 315.319231 217.287289 258.976923 217.785748 302.469231 218.284206 345.961538 218.782664 301.975000 219.280623 330.640385 219.779580 249.092308 220.278038 213.013462 220.776496 307.905769 221.274954 349.421154 221.773412 304.940385 222.271870 324.215385 222.769830 363.753846 223.268786 345.961538 223.767244 271.332692 224.265702 245.632692 224.764659 295.055769 225.262619 294.561538 225.761077 318.284615 226.259036 398.350000 226.757494 386.982692 227.256451 280.723077 227.754909 300.986538 228.252869 356.340385 228.751327 368.696154 229.250283 334.594231 229.748741 310.871154 230.247199 325.203846 230.745657 331.134615 231.244115 279.240385 231.742574 340.030769 232.241032 265.896154 232.739490 293.573077 233.237948 293.573077 233.735907 388.959615 234.234864 361.776923 234.733322 308.894231 235.231780 339.536538 235.730238 267.873077 236.228696 319.273077 236.727154 303.951923 237.225612 288.136538 237.724070 297.032692 238.222529 320.755769 238.720987 272.321154 239.219445 303.951923 239.717903 315.319231 240.216361 351.398077 240.714819 321.250000 241.213277 350.903846 241.711735 348.432692 242.210193 332.617308 242.708651 282.205769 243.207109 250.575000 243.705567 305.434615 244.204025 278.746154 244.702483 346.455769 245.200942 386.488462 245.699400 342.007692 246.197858 346.950000 246.696316 301.480769 247.194774 324.215385 247.693232 270.344231 248.191690 311.365385 248.690148 316.801923 249.188606 292.584615 249.687064 308.400000 250.185522 301.975000 250.683980 336.076923 251.182438 349.915385 251.680896 337.065385 252.179355 224.380769 252.677813 335.582692 253.176271 294.561538 253.674729 316.801923 254.173187 361.776923 254.671146 346.455769 255.170103 320.755769 255.668561 358.317308 256.166521 388.959615 256.665477 322.238462 257.163935 241.678846 257.662892 245.138462 258.160353 386.982692 258.659309 307.905769 259.157768 344.973077 259.656226 245.138462 260.154684 331.628846 260.653142 337.065385 261.151600 315.813462 261.650058 316.307692 262.148516 282.700000 262.646974 316.801923 263.145432 360.788462 263.643890 312.848077 264.141850 373.638462 264.640806 289.619231 265.139264 274.298077 265.637723 273.309615 266.136181 354.857692 266.634639 352.386538 267.132598 367.707692 267.631555 281.711538 268.130013 256.505769 268.628471 323.226923 269.126929 191.761538 269.625387 294.561538 270.123845 306.423077 270.622303 276.769231 271.120761 276.769231 271.618721 394.890385 272.117677 276.769231 272.616136 294.561538 273.114095 365.236538 273.613052 281.711538 274.111510 279.240385 274.609968 314.330769 275.107927 397.855769 275.606386 365.236538 276.104844 334.100000 276.603800 278.746154 277.102258 311.365385 277.600218 365.236538 278.099174 314.825000 278.597632 299.998077 279.096090 275.286538 279.594549 248.103846 280.093007 321.744231 280.591465 273.803846 281.089923 277.757692 281.588381 312.848077 282.086839 324.709615 282.585297 253.540385 283.083755 320.755769 283.582213 312.353846 284.080671 270.838462 284.579129 306.917308 285.077587 292.584615 285.576045 333.111538 286.074503 273.803846 286.572962 253.046154 287.071420 351.892308 287.569878 265.401923 288.068336 251.069231 288.566794 262.930769 289.065252 318.778846 289.564208 250.575000 290.062168 317.296154 290.560626 307.905769 291.059084 260.953846 291.557542 331.134615 292.056000 267.873077 292.554458 307.905769 293.052917 342.501923 293.550876 383.523077 294.049833 299.009615 294.547792 370.673077 295.046250 317.296154 295.545207 225.369231 296.043665 317.790385 296.542123 338.548077 297.040581 242.173077 297.539039 317.790385 298.036999 315.319231 298.535955 327.180769 299.034413 304.446154 299.532871 326.192308 300.031330 300.492308 300.529788 299.998077 301.028246 321.250000 301.526704 267.378846 302.025162 277.263462 302.523620 274.298077 303.022078 317.296154 303.520536 304.446154 304.018994 296.538462 304.517452 314.825000 305.015910 294.067308 305.514368 287.148077 306.012826 316.307692 306.511284 334.594231 307.009743 311.365385 307.508201 243.161538 308.006659 297.032692 308.505117 265.896154 309.003076 330.640385 309.502033 326.686538 310.000491 314.825000 310.498949 324.709615 310.997407 270.344231 311.495865 301.480769 311.994323 212.025000 312.492781 231.300000 312.991239 349.421154 313.489697 301.480769 313.988156 307.905769 314.486614 276.769231 314.985072 229.817308 315.483530 308.400000 315.981489 358.811538 316.480446 291.596154 316.978904 313.836538 317.477362 341.513462 317.975820 366.225000 318.474278 301.480769 318.972736 337.559615 319.471194 347.444231 319.969154 348.432692 320.468111 322.732692 320.966569 285.665385 321.465027 373.638462 321.963485 302.469231 322.461943 306.917308 322.960401 330.146154 323.458859 286.159615 323.957317 387.971154 324.455775 312.353846 324.954233 232.288462 325.452691 338.548077 325.951149 249.092308 326.449607 342.007692 326.948065 369.684615 327.446025 385.994231 327.944982 333.111538 328.443440 390.936538 328.941898 290.113462 329.440356 268.861538 329.938814 347.938462 330.436774 323.226923 330.935730 311.859615 331.434188 295.550000 331.932646 300.492308 332.431104 313.342308 332.929562 282.700000 333.428020 285.171154 333.926478 231.794231 334.424937 298.021154 334.923395 316.801923 335.421853 258.976923 335.920311 300.986538 336.418270 360.294231 336.917227 212.519231 337.415685 280.228846 337.914143 317.296154 338.412601 319.767308 338.910561 354.363462 339.409517 311.365385 339.907975 268.861538 340.406433 301.480769 340.904891 289.619231 341.403350 297.526923 341.901808 331.134615 342.400266 345.467308 342.898724 350.903846 343.396683 357.823077 343.895640 317.790385 344.394098 343.984615 344.892556 268.861538 345.391014 361.282692 345.889472 317.790385 346.387930 292.090385 346.886388 324.215385 347.384846 282.205769 347.883305 293.573077 348.381763 288.136538 348.880221 286.159615 349.378679 375.121154 349.876638 353.869231 350.375096 375.121154 350.874053 251.069231 351.372511 266.390385 351.870969 302.469231 352.369427 284.182692 352.867885 305.434615 353.366343 252.551923 353.864801 288.136538 354.363259 365.236538 354.861718 267.378846 355.360176 330.146154 355.858634 334.100000 356.357092 304.446154 356.855550 255.517308 357.354008 300.986538 357.852466 358.317308 358.350924 287.148077 358.849382 261.448077 359.347840 309.388462 359.846298 315.813462 360.344756 210.048077 360.843214 275.780769 361.341672 344.973077 361.840131 302.469231 362.338589 360.788462 362.837047 284.182692 363.335505 285.171154 363.833963 319.767308 364.332421 295.055769 364.830879 342.007692 365.329337 270.344231 365.827795 306.917308 366.326253 314.330769 366.824711 245.632692 367.323169 309.388462 367.821627 308.894231 368.319587 353.869231 368.818544 273.309615 369.317002 268.367308 369.815460 283.688462 370.313918 324.215385 370.812376 308.400000 371.310834 274.792308 371.809292 345.961538 372.307750 209.059615 372.806208 134.430769 373.304666 373.638462 373.803124 347.938462 374.301582 334.594231 374.800040 332.123077 375.298499 311.859615 375.796957 269.850000 376.295415 254.034615 376.794371 285.171154 377.292331 327.180769 377.790290 311.365385 378.289247 330.640385 378.787705 305.928846 379.285665 390.442308 379.784621 323.721154 380.283079 309.388462 380.781537 397.361538 381.279995 287.148077 381.778453 293.078846 382.276912 310.376923 382.775370 242.173077 383.273828 299.009615 383.772286 346.455769 384.270744 314.825000 384.769202 275.780769 385.267660 327.180769 385.766118 325.203846 386.264576 260.459615 386.763034 311.365385 387.261492 265.401923 387.759950 275.780769 388.258408 303.457692 388.756866 253.540385 389.255823 298.515385 389.753783 334.594231 390.252241 342.996154 390.750699 243.161538 391.249157 319.273077 391.747615 314.825000 392.246073 234.759615 392.744531 296.538462 393.242989 296.538462 393.741447 207.082692 394.239905 305.434615 394.738363 345.467308 395.236821 323.226923 395.735279 296.538462 396.233738 339.042308 396.732196 347.938462 397.230654 307.411538 397.729112 272.815385 398.227570 284.182692 398.726028 320.261538 399.224486 287.642308 399.722944 326.192308 400.221402 240.690385 400.719860 323.721154 401.218318 319.273077 401.716776 366.225000 402.215234 342.501923 402.713693 272.321154 403.212151 325.203846 403.710609 333.605769 404.209067 332.617308 404.707525 300.492308 405.205983 312.353846 405.703942 353.375000 406.202899 326.192308 406.700859 358.811538 407.199815 252.551923 407.697775 382.534615 408.196731 288.630769 408.695189 273.803846 409.193647 295.550000 409.692106 313.836538 410.190564 280.228846 410.689022 348.432692 411.187480 256.505769 411.685938 306.423077 412.184396 344.478846 412.682355 353.869231 413.181312 318.284615 413.679770 332.123077 414.178228 328.663462 414.676686 221.415385 415.175144 246.126923 415.673602 339.042308 416.172060 304.940385 416.670519 322.732692 417.168478 382.040385 417.667435 319.273077 418.165893 316.307692 418.663852 381.546154 419.162809 312.848077 419.661267 340.525000 420.159725 277.263462 420.658183 304.446154 421.156641 283.194231 421.655099 290.113462 422.153557 303.951923 422.652015 359.305769 423.150473 300.986538 423.648932 400.326923 424.147390 352.386538 424.645848 326.686538 425.144306 302.469231 425.642764 344.478846 426.141222 299.503846 426.639680 348.432692 427.137640 352.880769 427.636596 300.492308 428.135054 276.769231 428.633512 384.511538 429.131970 305.928846 429.630428 333.111538 430.128887 343.490385 430.626846 290.113462 431.125803 341.019231 431.624261 318.284615 432.122220 366.719231 432.621177 310.376923 433.119635 329.157692 433.618093 373.144231 434.116551 315.813462 434.615009 295.550000 435.113467 299.998077 435.611925 357.823077 436.110383 307.411538 436.608841 299.503846 437.107300 298.515385 437.605758 304.940385 438.104216 328.169231 438.602674 299.009615 439.101132 261.448077 439.599590 356.834615 440.098048 335.582692 440.596008 411.200000 441.094964 311.859615 441.593422 359.305769 442.091880 301.480769 442.590338 314.825000 443.088796 306.423077 443.586756 352.880769 444.085713 245.632692 444.584171 261.942308 445.082629 310.871154 445.581087 336.571154 446.079545 289.619231 446.578003 289.619231 447.076461 292.090385 447.574919 321.744231 448.073377 351.398077 448.571835 328.663462 449.070293 334.594231 449.568751 321.250000 450.067209 288.630769 450.565667 222.898077 451.064126 301.975000 451.562584 197.692308 452.061042 194.232692 452.559500 212.519231 453.057958 263.425000 453.556416 297.032692 454.054874 290.607692 454.553332 301.975000 455.051790 337.559615 455.550747 255.023077 456.048706 340.030769 456.547164 342.007692 457.045622 244.644231 457.543582 355.351923 458.042539 310.871154 458.540997 339.536538 459.039455 372.650000 459.537913 333.605769 460.036371 277.757692 460.534829 361.776923 461.033287 353.869231 461.531745 359.305769 462.030203 269.850000 462.528661 275.780769 463.027119 344.478846 463.525577 354.363462 464.024035 318.778846 464.522494 291.101923 465.020952 352.386538 465.519410 292.584615 466.017868 331.628846 466.516326 320.755769 467.014784 360.294231 467.513242 322.238462 468.011700 314.825000 468.510158 306.423077 469.008616 273.309615 469.507074 117.132692 470.005532 331.134615 470.503990 267.873077 471.002448 168.038462 471.500907 224.380769 471.999365 309.882692 472.497823 293.078846 472.995782 329.651923 473.494739 312.353846 473.993197 303.457692 474.491655 260.953846 474.990113 321.250000 475.488571 327.180769 475.987029 311.365385 476.485487 326.192308 476.983945 298.515385 477.482403 332.123077 477.980861 323.721154 478.479320 344.973077 478.977778 325.698077 479.476236 377.098077 479.974694 276.769231 480.473152 271.332692 480.971610 231.300000 481.470068 261.448077 481.968526 284.676923 482.466486 350.903846 482.965442 231.300000 483.463900 269.850000 483.962358 297.032692 484.460816 276.769231 484.959274 322.732692 485.457733 304.940385 485.956191 332.617308 486.454649 354.363462 486.953107 283.688462 487.451565 293.573077 487.950023 315.319231 488.448481 288.630769 488.946939 275.286538 489.444899 366.225000 489.943855 331.628846 490.442313 275.780769 490.940771 294.067308 491.439229 297.526923 491.937688 264.413462 492.436146 302.963462 492.934604 333.605769 493.433062 363.259615 493.931520 325.203846 494.429978 295.055769 494.928436 289.125000 495.426894 297.032692 495.925352 285.171154 496.423810 269.850000 496.922268 323.721154 497.420726 267.378846 497.919184 337.559615 498.417144 362.765385 498.916101 294.561538 499.414559 319.273077 499.913017 248.598077 500.411475 233.276923 500.909933 323.226923 501.408391 296.538462 501.906849 287.148077 502.405307 319.767308 502.903765 324.709615 503.402223 334.100000 503.900681 277.757692 504.399139 316.307692 504.897099 382.534615 505.396055 362.271154 505.894514 334.100000 506.392473 358.811538 506.891430 338.548077 507.389888 288.136538 507.888346 362.271154 508.386804 276.769231 508.883767 259.965385 509.382225 352.386538 509.880683 331.628846 510.379141 304.446154 510.877599 362.765385 511.376057 314.330769 511.874515 341.513462 512.372973 276.769231 512.871431 380.557692 513.369889 296.538462 513.868347 243.161538 514.366805 263.425000 514.865263 286.653846 515.363722 363.753846 515.862180 277.263462 516.360638 288.630769 516.859096 319.767308 517.357554 280.723077 517.856012 278.746154 518.354470 240.196154 518.852928 307.905769 519.351386 273.309615 519.849844 305.928846 520.348302 306.917308 520.846760 340.525000 521.345218 311.859615 521.843677 365.730769 522.342135 297.032692 522.840593 316.307692 523.339051 278.251923 523.837509 306.917308 524.335967 207.576923 524.834425 283.688462 525.332883 280.723077 525.831341 347.938462 526.329799 345.467308 526.828257 284.182692 527.326715 305.434615 527.825173 301.480769 528.323631 353.375000 528.822090 315.813462 529.320548 343.490385 529.819006 322.238462 530.317464 305.928846 530.815922 342.501923 531.314380 336.076923 531.812838 282.700000 532.311296 259.965385 532.809754 285.665385 533.308212 376.109615 533.806670 348.926923 534.305128 350.903846 534.803586 280.723077 535.302044 310.376923 535.800503 368.201923 536.298961 264.907692 536.797419 317.790385 537.295877 276.769231 537.794335 309.388462 538.292793 288.630769 538.791251 353.375000 539.289709 314.825000 539.788167 318.778846 540.286625 323.226923 540.785083 313.342308 541.283541 268.861538 541.781999 263.425000 542.280457 328.169231 542.778916 304.940385 543.277374 329.157692 543.775832 293.573077 544.274290 305.928846 544.772748 204.117308 545.271206 265.401923 545.769664 284.182692 546.268122 343.490385 546.766580 317.790385 547.265038 270.344231 547.763496 325.203846 548.261954 322.238462 548.760412 267.378846 549.258870 329.157692 549.757329 323.226923 550.255787 326.192308 550.754245 237.230769 551.252703 248.103846 551.751161 350.903846 552.249619 307.411538 552.748077 355.351923 553.246535 322.732692 553.744993 364.742308 554.243451 315.813462 554.741909 202.634615 555.240367 214.496154 555.738825 316.801923 556.237284 380.557692 556.735742 276.275000 557.234200 228.334615 557.732658 233.276923 558.231116 306.423077 558.729574 308.400000 559.228032 292.584615 559.726490 332.617308 560.224948 342.007692 560.723406 314.825000 561.221864 258.976923 561.720322 355.846154 562.218780 237.230769 562.717238 311.365385 563.215697 350.409615 563.714155 359.305769 564.212613 267.378846 564.711071 313.342308 565.209529 277.757692 565.707987 306.917308 566.206445 313.836538 566.704903 275.286538 567.203361 299.998077 567.701819 292.090385 568.200277 357.823077 568.698735 312.848077 569.197193 274.298077 569.695651 297.032692 570.194110 259.471154 570.692568 300.492308 571.191026 296.044231 571.689484 342.501923 572.187942 203.128846 572.686400 350.409615 573.184858 327.675000 573.683316 288.630769 574.181774 271.826923 574.680232 326.192308 575.178690 304.446154 575.677148 309.882692 576.175606 309.882692 576.674064 304.940385 577.172523 292.584615 577.670981 305.928846 578.169439 301.975000 578.667897 409.223077 579.166355 271.826923 579.664813 318.284615 580.163271 330.640385 580.661729 300.986538 581.160187 298.515385 581.658645 305.928846 582.157103 280.723077 582.655561 343.984615 583.154019 364.742308 583.652478 279.734615 584.150936 353.375000 584.649394 301.975000 585.147852 271.826923 585.646310 293.573077 586.144768 338.548077 586.643226 298.021154 587.141684 227.346154 587.640142 326.686538 588.138600 278.251923 588.637058 302.963462 589.135516 321.744231 589.633974 279.240385 590.132432 341.513462 590.630891 293.078846 591.129349 275.780769 591.627807 385.005769 592.126265 343.490385 592.624723 308.400000 593.123181 371.167308 593.621639 285.171154 594.120097 312.353846 594.618555 280.723077 595.117013 325.203846 595.615471 270.344231 596.113929 298.515385 596.612387 284.676923 597.110845 376.603846 597.609304 320.755769 598.107762 374.626923 598.606220 347.938462 599.104678 282.700000 599.603136 334.594231 600.101594 307.411538 600.600052 292.090385 601.098510 229.817308 601.596968 258.482692 602.095426 263.919231 602.593884 291.596154 603.092342 283.194231 603.590800 312.353846 604.089258 301.975000 604.587717 275.780769 605.086175 302.469231 605.584633 268.367308 606.083091 333.605769 606.581549 300.986538 607.080007 304.446154 607.578465 350.409615 608.076923 307.905769" /></g><g class="series serie-2 color-2"><path class="line reactive nofill" d="M11.923077 257.000000 L12.420259 257.000000 12.918717 257.000000 13.417494 257.000000 13.915952 257.000000 14.414091 257.000000 14.912868 257.000000 15.411022 257.000000 15.909779 257.000000 16.407938 257.000000 16.906995 257.000000 17.404855 257.000000 17.903612 257.000000 18.401771 257.000000 18.900528 257.000000 19.398986 257.000000 19.897145 257.000000 20.395902 257.000000 20.894360 257.000000 21.392818 257.000000 21.891276 257.000000 22.389435 257.000000 22.888192 257.000000 23.386651 257.000000 23.885109 257.000000 24.383567 257.000000 24.881726 257.000000 25.380483 257.000000 25.878642 257.000000 26.377399 257.000000 26.875857 257.000000 27.374315 257.000000 27.872474 257.000000 28.371231 257.000000 28.869689 257.000000 29.367848 257.000000 29.866606 257.000000 30.365064 257.000000 30.863522 257.000000 31.361681 257.000000 31.860438 257.000000 32.359195 257.000000 32.857354 257.000000 33.355812 257.000000 33.853971 257.000000 34.352728 257.000000 34.850887 257.000000 35.349943 257.000000 35.848102 257.000000 36.346560 257.000000 36.845019 257.000000 37.343477 257.000000 37.841935 257.000000 38.340393 257.000000 38.838552 257.000000 39.337608 257.000000 39.835767 257.000000 40.334225 257.000000 40.832384 257.000000 41.331440 257.000000 41.829599 257.000000 42.328057 257.000000 42.826515 257.000000 43.324674 257.000000 43.823432 257.000000 44.321890 257.000000 44.820348 257.000000 45.318806 257.000000 45.817264 257.000000 46.315722 257.000000 46.813881 257.000000 47.312638 257.000000 47.811096 257.000000 48.309554 257.000000 48.808012 257.000000 49.306769 257.000000 49.804928 257.000000 50.303386 257.000000 50.802144 257.000000 51.300303 257.000000 51.798761 257.000000 52.297219 257.000000 52.795677 257.000000 53.294135 257.000000 53.792892 257.000000 54.291051 257.000000 54.789509 257.000000 55.287967 257.000000 55.786425 257.000000 56.284883 257.000000 56.783341 257.000000 57.281800 257.000000 57.780258 257.000000 58.278716 257.000000 58.776875 257.000000 59.275931 257.000000 59.774389 257.000000 60.272997 257.000000 60.770458 257.000000 61.269913 257.000000 61.767872 257.000000 62.265832 257.000000 62.764290 257.000000 63.263745 257.000000 63.762203 257.000000 64.260163 257.000000 64.758621 257.000000 65.257079 257.000000 65.755537 257.000000 66.253995 257.000000 66.752453 257.000000 67.250911 257.000000 67.749369 257.000000 68.247827 257.000000 68.746285 257.000000 69.245242 257.000000 69.742703 257.000000 70.242158 257.000000 70.740616 257.000000 71.238576 257.000000 71.737532 257.000000 72.235492 257.000000 72.733950 257.000000 73.232408 257.000000 73.730866 257.000000 74.229324 257.000000 74.728281 257.000000 75.226240 257.000000 75.725197 257.000000 76.223156 257.000000 76.721615 257.000000 77.220571 257.000000 77.718531 257.000000 78.217487 257.000000 78.715447 257.000000 79.214403 257.000000 79.712363 257.000000 80.211319 257.000000 80.709279 257.000000 81.208236 257.000000 81.706195 257.000000 82.205152 257.000000 82.703111 257.000000 83.201569 257.000000 83.700526 257.000000 84.198486 257.000000 84.696944 257.000000 85.195900 257.000000 85.694358 257.000000 86.192816 257.000000 86.691274 257.000000 87.189732 257.000000 87.687692 257.000000 88.186649 257.000000 88.684608 257.000000 89.183565 257.000000 89.682023 257.000000 90.179982 257.000000 90.678939 257.000000 91.177397 257.000000 91.675357 257.000000 92.174313 257.000000 92.672273 257.000000 93.171229 257.000000 93.669189 257.000000 94.167647 257.000000 94.666604 257.000000 95.164563 257.000000 95.663520 257.000000 96.161479 257.000000 96.660436 257.000000 97.158894 257.000000 97.656854 257.000000 98.155810 257.000000 98.653770 257.000000 99.152726 257.000000 99.650686 257.000000 100.149642 257.000000 100.647602 257.000000 101.146559 257.000000 101.644518 257.000000 102.143475 257.000000 102.641434 257.000000 103.140391 257.000000 103.638849 257.000000 104.136809 257.000000 104.635765 257.000000 105.133725 257.000000 105.632681 257.000000 106.131139 257.000000 106.629597 257.000000 107.128055 257.000000 107.626513 257.000000 108.124972 257.000000 108.623430 257.000000 109.121389 257.000000 109.619847 257.000000 110.118305 257.000000 110.616763 257.000000 111.115720 257.000000 111.614178 257.000000 112.112636 257.000000 112.610596 257.000000 113.109552 257.000000 113.608010 257.000000 114.105970 257.000000 114.604428 257.000000 115.102886 257.000000 115.601843 257.000000 116.100301 257.000000 116.598759 257.000000 117.097217 257.000000 117.595176 257.000000 118.094133 257.000000 118.592093 257.000000 119.091049 257.000000 119.589507 257.000000 120.087965 257.000000 120.585925 257.000000 121.084881 257.000000 121.582841 257.000000 122.081798 257.000000 122.579757 257.000000 123.078714 257.000000 123.576673 257.000000 124.075630 257.000000 124.573589 257.000000 125.072048 257.000000 125.571004 257.000000 126.068964 257.000000 126.567920 257.000000 127.066378 257.000000 127.564338 257.000000 128.063294 257.000000 128.561254 257.000000 129.060211 257.000000 129.558669 257.000000 130.057127 257.000000 130.555585 257.000000 131.054043 257.000000 131.552002 257.000000 132.050959 257.000000 132.549417 257.000000 133.047875 257.000000 133.546333 257.000000 134.044293 257.000000 134.542751 257.000000 135.041707 257.000000 135.540166 257.000000 136.038624 257.000000 136.537082 257.000000 137.035540 257.000000 137.533998 257.000000 138.032456 257.000000 138.530914 257.000000 139.029372 257.000000 139.527332 257.000000 140.026288 257.000000 140.524746 257.000000 141.023204 257.000000 141.521662 257.000000 142.020120 257.000000 142.518579 257.000000 143.016538 257.000000 143.515495 257.000000 144.013953 257.000000 144.511912 257.000000 145.010869 257.000000 145.509327 257.000000 146.008284 257.000000 146.506243 257.000000 147.004701 257.000000 147.502661 257.000000 148.001119 257.000000 148.500075 257.000000 148.998035 257.000000 149.496992 257.000000 149.995450 257.000000 150.493908 257.000000 150.992366 257.000000 151.490824 257.000000 151.988783 257.000000 152.487740 257.000000 152.986198 257.000000 153.484656 257.000000 153.983114 257.000000 154.481074 257.000000 154.979532 257.000000 155.478488 257.000000 155.976448 257.000000 156.475405 257.000000 156.973364 257.000000 157.472321 257.000000 157.970779 257.000000 158.469237 257.000000 158.967695 257.000000 159.466651 257.000000 159.964611 257.000000 160.463069 257.000000 160.961527 257.000000 161.459985 257.000000 161.958443 257.000000 162.456901 257.000000 162.955360 257.000000 163.452821 257.000000 163.951777 257.000000 164.450734 257.000000 164.949192 257.000000 165.447650 257.000000 165.946108 257.000000 166.444566 257.000000 166.943024 257.000000 167.440984 257.000000 167.939940 257.000000 168.438398 257.000000 168.936856 257.000000 169.434816 257.000000 169.933773 257.000000 170.431732 257.000000 170.930689 257.000000 171.429147 257.000000 171.927605 257.000000 172.426063 257.000000 172.924023 257.000000 173.422481 257.000000 173.921437 257.000000 174.419895 257.000000 174.918353 257.000000 175.416811 257.000000 175.915269 257.000000 176.413727 257.000000 176.912186 257.000000 177.410644 257.000000 177.909102 257.000000 178.407560 257.000000 178.906018 257.000000 179.404476 257.000000 179.902934 257.000000 180.401392 257.000000 180.899850 257.000000 181.398308 257.000000 181.896766 257.000000 182.394726 257.000000 182.893682 257.000000 183.392141 257.000000 183.890599 257.000000 184.389057 257.000000 184.887515 257.000000 185.385973 257.000000 185.884431 257.000000 186.382889 257.000000 186.881347 257.000000 187.379805 257.000000 187.877765 257.000000 188.376721 257.000000 188.875179 257.000000 189.373637 257.000000 189.872095 257.000000 190.370554 257.000000 190.869012 257.000000 191.367470 257.000000 191.865928 257.000000 192.364386 257.000000 192.862844 257.000000 193.361302 257.000000 193.859760 257.000000 194.358218 257.000000 194.856178 257.000000 195.355134 257.000000 195.853592 257.000000 196.352050 257.000000 196.850508 257.000000 197.348967 257.000000 197.847425 257.000000 198.345883 257.000000 198.844341 257.000000 199.342799 257.000000 199.841257 257.000000 200.339715 257.000000 200.838173 257.000000 201.336631 257.000000 201.834591 257.000000 202.333547 257.000000 202.832005 257.000000 203.330463 257.000000 203.828921 257.000000 204.327380 257.000000 204.825838 257.000000 205.324296 257.000000 205.822754 257.000000 206.321212 257.000000 206.819670 257.000000 207.318128 257.000000 207.816586 257.000000 208.315044 257.000000 208.813502 257.000000 209.311462 257.000000 209.810418 257.000000 210.308876 257.000000 210.807335 257.000000 211.305793 257.000000 211.804251 257.000000 212.302709 257.000000 212.801167 257.000000 213.300123 257.000000 213.798083 257.000000 214.296043 257.000000 214.794999 257.000000 215.293457 257.000000 215.791417 257.000000 216.290373 257.000000 216.788831 257.000000 217.287289 257.000000 217.785748 257.000000 218.284206 257.000000 218.782664 257.000000 219.280623 257.000000 219.779580 257.000000 220.278038 257.000000 220.776496 257.000000 221.274954 257.000000 221.773412 257.000000 222.271870 257.000000 222.769830 257.000000 223.268786 257.000000 223.767244 257.000000 224.265702 257.000000 224.764659 257.000000 225.262619 257.000000 225.761077 257.000000 226.259036 257.000000 226.757494 257.000000 227.256451 257.000000 227.754909 257.000000 228.252869 257.000000 228.751327 257.000000 229.250283 257.000000 229.748741 257.000000 230.247199 257.000000 230.745657 257.000000 231.244115 257.000000 231.742574 257.000000 232.241032 257.000000 232.739490 257.000000 233.237948 257.000000 233.735907 257.000000 234.234864 257.000000 234.733322 257.000000 235.231780 257.000000 235.730238 257.000000 236.228696 257.000000 236.727154 257.000000 237.225612 257.000000 237.724070 257.000000 238.222529 257.000000 238.720987 257.000000 239.219445 257.000000 239.717903 257.000000 240.216361 257.000000 240.714819 257.000000 241.213277 257.000000 241.711735 257.000000 242.210193 257.000000 242.708651 257.000000 243.207109 257.000000 243.705567 257.000000 244.204025 257.000000 244.702483 257.000000 245.200942 257.000000 245.699400 257.000000 246.197858 257.000000 246.696316 257.000000 247.194774 257.000000 247.693232 257.000000 248.191690 257.000000 248.690148 257.000000 249.188606 257.000000 249.687064 257.000000 250.185522 257.000000 250.683980 257.000000 251.182438 257.000000 251.680896 257.000000 252.179355 257.000000 252.677813 257.000000 253.176271 257.000000 253.674729 257.000000 254.173187 257.000000 254.671146 257.000000 255.170103 257.000000 255.668561 257.000000 256.166521 257.000000 256.665477 257.000000 257.163935 257.000000 257.662892 257.000000 258.160353 257.000000 258.659309 257.000000 259.157768 257.000000 259.656226 257.000000 260.154684 257.000000 260.653142 257.000000 261.151600 257.000000 261.650058 257.000000 262.148516 257.000000 262.646974 257.000000 263.145432 257.000000 263.643890 257.000000 264.141850 257.000000 264.640806 257.000000 265.139264 257.000000 265.637723 257.000000 266.136181 257.000000 266.634639 257.000000 267.132598 257.000000 267.631555 257.000000 268.130013 257.000000 268.628471 257.000000 269.126929 257.000000 269.625387 257.000000 270.123845 257.000000 270.622303 257.000000 271.120761 257.000000 271.618721 257.000000 272.117677 257.000000 272.616136 257.000000 273.114095 257.000000 273.613052 257.000000 274.111510 257.000000 274.609968 257.000000 275.107927 257.000000 275.606386 257.000000 276.104844 257.000000 276.603800 257.000000 277.102258 257.000000 277.600218 257.000000 278.099174 257.000000 278.597632 257.000000 279.096090 257.000000 279.594549 257.000000 280.093007 257.000000 280.591465 257.000000 281.089923 257.000000 281.588381 257.000000 282.086839 257.000000 282.585297 257.000000 283.083755 257.000000 283.582213 257.000000 284.080671 257.000000 284.579129 257.000000 285.077587 257.000000 285.576045 257.000000 286.074503 257.000000 286.572962 257.000000 287.071420 257.000000 287.569878 257.000000 288.068336 257.000000 288.566794 257.000000 289.065252 257.000000 289.564208 257.000000 290.062168 257.000000 290.560626 257.000000 291.059084 257.000000 291.557542 257.000000 292.056000 257.000000 292.554458 257.000000 293.052917 257.000000 293.550876 257.000000 294.049833 257.000000 294.547792 257.000000 295.046250 257.000000 295.545207 257.000000 296.043665 257.000000 296.542123 257.000000 297.040581 257.000000 297.539039 257.000000 298.036999 257.000000 298.535955 257.000000 299.034413 257.000000 299.532871 257.000000 300.031330 257.000000 300.529788 257.000000 301.028246 257.000000 301.526704 257.000000 302.025162 257.000000 302.523620 257.000000 303.022078 257.000000 303.520536 257.000000 304.018994 257.000000 304.517452 257.000000 305.015910 257.000000 305.514368 257.000000 306.012826 257.000000 306.511284 257.000000 307.009743 257.000000 307.508201 257.000000 308.006659 257.000000 308.505117 257.000000 309.003076 257.000000 309.502033 257.000000 310.000491 257.000000 310.498949 257.000000 310.997407 257.000000 311.495865 257.000000 311.994323 257.000000 312.492781 257.000000 312.991239 257.000000 313.489697 257.000000 313.988156 257.000000 314.486614 257.000000 314.985072 257.000000 315.483530 257.000000 315.981489 257.000000 316.480446 257.000000 316.978904 257.000000 317.477362 257.000000 317.975820 257.000000 318.474278 257.000000 318.972736 257.000000 319.471194 257.000000 319.969154 257.000000 320.468111 257.000000 320.966569 257.000000 321.465027 257.000000 321.963485 257.000000 322.461943 257.000000 322.960401 257.000000 323.458859 257.000000 323.957317 257.000000 324.455775 257.000000 324.954233 257.000000 325.452691 257.000000 325.951149 257.000000 326.449607 257.000000 326.948065 257.000000 327.446025 257.000000 327.944982 257.000000 328.443440 257.000000 328.941898 257.000000 329.440356 257.000000 329.938814 257.000000 330.436774 257.000000 330.935730 257.000000 331.434188 257.000000 331.932646 257.000000 332.431104 257.000000 332.929562 257.000000 333.428020 257.000000 333.926478 257.000000 334.424937 257.000000 334.923395 257.000000 335.421853 257.000000 335.920311 257.000000 336.418270 257.000000 336.917227 257.000000 337.415685 257.000000 337.914143 257.000000 338.412601 257.000000 338.910561 257.000000 339.409517 257.000000 339.907975 257.000000 340.406433 257.000000 340.904891 257.000000 341.403350 257.000000 341.901808 257.000000 342.400266 257.000000 342.898724 257.000000 343.396683 257.000000 343.895640 257.000000 344.394098 257.000000 344.892556 257.000000 345.391014 257.000000 345.889472 257.000000 346.387930 257.000000 346.886388 257.000000 347.384846 257.000000 347.883305 257.000000 348.381763 257.000000 348.880221 257.000000 349.378679 257.000000 349.876638 257.000000 350.375096 257.000000 350.874053 257.000000 351.372511 257.000000 351.870969 257.000000 352.369427 257.000000 352.867885 257.000000 353.366343 257.000000 353.864801 257.000000 354.363259 257.000000 354.861718 257.000000 355.360176 257.000000 355.858634 257.000000 356.357092 257.000000 356.855550 257.000000 357.354008 257.000000 357.852466 257.000000 358.350924 257.000000 358.849382 257.000000 359.347840 257.000000 359.846298 257.000000 360.344756 257.000000 360.843214 257.000000 361.341672 257.000000 361.840131 257.000000 362.338589 257.000000 362.837047 257.000000 363.335505 257.000000 363.833963 257.000000 364.332421 257.000000 364.830879 257.000000 365.329337 257.000000 365.827795 257.000000 366.326253 257.000000 366.824711 257.000000 367.323169 257.000000 367.821627 257.000000 368.319587 257.000000 368.818544 257.000000 369.317002 257.000000 369.815460 257.000000 370.313918 257.000000 370.812376 257.000000 371.310834 257.000000 371.809292 257.000000 372.307750 257.000000 372.806208 257.000000 373.304666 257.000000 373.803124 257.000000 374.301582 257.000000 374.800040 257.000000 375.298499 257.000000 375.796957 257.000000 376.295415 257.000000 376.794371 257.000000 377.292331 257.000000 377.790290 257.000000 378.289247 257.000000 378.787705 257.000000 379.285665 257.000000 379.784621 257.000000 380.283079 257.000000 380.781537 257.000000 381.279995 257.000000 381.778453 257.000000 382.276912 257.000000 382.775370 257.000000 383.273828 257.000000 383.772286 257.000000 384.270744 257.000000 384.769202 257.000000 385.267660 257.000000 385.766118 257.000000 386.264576 257.000000 386.763034 257.000000 387.261492 257.000000 387.759950 257.000000 388.258408 257.000000 388.756866 257.000000 389.255823 257.000000 389.753783 257.000000 390.252241 257.000000 390.750699 257.000000 391.249157 257.000000 391.747615 257.000000 392.246073 257.000000 392.744531 257.000000 393.242989 257.000000 393.741447 257.000000 394.239905 257.000000 394.738363 257.000000 395.236821 257.000000 395.735279 257.000000 396.233738 257.000000 396.732196 257.000000 397.230654 257.000000 397.729112 257.000000 398.227570 257.000000 398.726028 257.000000 399.224486 257.000000 399.722944 257.000000 400.221402 257.000000 400.719860 257.000000 401.218318 257.000000 401.716776 257.000000 402.215234 257.000000 402.713693 257.000000 403.212151 257.000000 403.710609 257.000000 404.209067 257.000000 404.707525 257.000000 405.205983 257.000000 405.703942 257.000000 406.202899 257.000000 406.700859 257.000000 407.199815 257.000000 407.697775 257.000000 408.196731 257.000000 408.695189 257.000000 409.193647 257.000000 409.692106 257.000000 410.190564 257.000000 410.689022 257.000000 411.187480 257.000000 411.685938 257.000000 412.184396 257.000000 412.682355 257.000000 413.181312 257.000000 413.679770 257.000000 414.178228 257.000000 414.676686 257.000000 415.175144 257.000000 415.673602 257.000000 416.172060 257.000000 416.670519 257.000000 417.168478 257.000000 417.667435 257.000000 418.165893 257.000000 418.663852 257.000000 419.162809 257.000000 419.661267 257.000000 420.159725 257.000000 420.658183 257.000000 421.156641 257.000000 421.655099 257.000000 422.153557 257.000000 422.652015 257.000000 423.150473 257.000000 423.648932 257.000000 424.147390 257.000000 424.645848 257.000000 425.144306 257.000000 425.642764 257.000000 426.141222 257.000000 426.639680 257.000000 427.137640 257.000000 427.636596 257.000000 428.135054 257.000000 428.633512 257.000000 429.131970 257.000000 429.630428 257.000000 430.128887 257.000000 430.626846 257.000000 431.125803 257.000000 431.624261 257.000000 432.122220 257.000000 432.621177 257.000000 433.119635 257.000000 433.618093 257.000000 434.116551 257.000000 434.615009 257.000000 435.113467 257.000000 435.611925 257.000000 436.110383 257.000000 436.608841 257.000000 437.107300 257.000000 437.605758 257.000000 438.104216 257.000000 438.602674 257.000000 439.101132 257.000000 439.599590 257.000000 440.098048 257.000000 440.596008 257.000000 441.094964 257.000000 441.593422 257.000000 442.091880 257.000000 442.590338 257.000000 443.088796 257.000000 443.586756 257.000000 444.085713 257.000000 444.584171 257.000000 445.082629 257.000000 445.581087 257.000000 446.079545 257.000000 446.578003 257.000000 447.076461 257.000000 447.574919 257.000000 448.073377 257.000000 448.571835 257.000000 449.070293 257.000000 449.568751 257.000000 450.067209 257.000000 450.565667 257.000000 451.064126 257.000000 451.562584 257.000000 452.061042 257.000000 452.559500 257.000000 453.057958 257.000000 453.556416 257.000000 454.054874 257.000000 454.553332 257.000000 455.051790 257.000000 455.550747 257.000000 456.048706 257.000000 456.547164 257.000000 457.045622 257.000000 457.543582 257.000000 458.042539 257.000000 458.540997 257.000000 459.039455 257.000000 459.537913 257.000000 460.036371 257.000000 460.534829 257.000000 461.033287 257.000000 461.531745 257.000000 462.030203 257.000000 462.528661 257.000000 463.027119 257.000000 463.525577 257.000000 464.024035 257.000000 464.522494 257.000000 465.020952 257.000000 465.519410 257.000000 466.017868 257.000000 466.516326 257.000000 467.014784 257.000000 467.513242 257.000000 468.011700 257.000000 468.510158 257.000000 469.008616 257.000000 469.507074 257.000000 470.005532 257.000000 470.503990 257.000000 471.002448 257.000000 471.500907 257.000000 471.999365 257.000000 472.497823 257.000000 472.995782 257.000000 473.494739 257.000000 473.993197 257.000000 474.491655 257.000000 474.990113 257.000000 475.488571 257.000000 475.987029 257.000000 476.485487 257.000000 476.983945 257.000000 477.482403 257.000000 477.980861 257.000000 478.479320 257.000000 478.977778 257.000000 479.476236 257.000000 479.974694 257.000000 480.473152 257.000000 480.971610 257.000000 481.470068 257.000000 481.968526 257.000000 482.466486 257.000000 482.965442 257.000000 483.463900 257.000000 483.962358 257.000000 484.460816 257.000000 484.959274 257.000000 485.457733 257.000000 485.956191 257.000000 486.454649 257.000000 486.953107 257.000000 487.451565 257.000000 487.950023 257.000000 488.448481 257.000000 488.946939 257.000000 489.444899 257.000000 489.943855 257.000000 490.442313 257.000000 490.940771 257.000000 491.439229 257.000000 491.937688 257.000000 492.436146 257.000000 492.934604 257.000000 493.433062 257.000000 493.931520 257.000000 494.429978 257.000000 494.928436 257.000000 495.426894 257.000000 495.925352 257.000000 496.423810 257.000000 496.922268 257.000000 497.420726 257.000000 497.919184 257.000000 498.417144 257.000000 498.916101 257.000000 499.414559 257.000000 499.913017 257.000000 500.411475 257.000000 500.909933 257.000000 501.408391 257.000000 501.906849 257.000000 502.405307 257.000000 502.903765 257.000000 503.402223 257.000000 503.900681 257.000000 504.399139 257.000000 504.897099 257.000000 505.396055 257.000000 505.894514 257.000000 506.392473 257.000000 506.891430 257.000000 507.389888 257.000000 507.888346 257.000000 508.386804 257.000000 508.883767 257.000000 509.382225 257.000000 509.880683 257.000000 510.379141 257.000000 510.877599 257.000000 511.376057 257.000000 511.874515 257.000000 512.372973 257.000000 512.871431 257.000000 513.369889 257.000000 513.868347 257.000000 514.366805 257.000000 514.865263 257.000000 515.363722 257.000000 515.862180 257.000000 516.360638 257.000000 516.859096 257.000000 517.357554 257.000000 517.856012 257.000000 518.354470 257.000000 518.852928 257.000000 519.351386 257.000000 519.849844 257.000000 520.348302 257.000000 520.846760 257.000000 521.345218 257.000000 521.843677 257.000000 522.342135 257.000000 522.840593 257.000000 523.339051 257.000000 523.837509 257.000000 524.335967 257.000000 524.834425 257.000000 525.332883 257.000000 525.831341 257.000000 526.329799 257.000000 526.828257 257.000000 527.326715 257.000000 527.825173 257.000000 528.323631 257.000000 528.822090 257.000000 529.320548 257.000000 529.819006 257.000000 530.317464 257.000000 530.815922 257.000000 531.314380 257.000000 531.812838 257.000000 532.311296 257.000000 532.809754 257.000000 533.308212 257.000000 533.806670 257.000000 534.305128 257.000000 534.803586 257.000000 535.302044 257.000000 535.800503 257.000000 536.298961 257.000000 536.797419 257.000000 537.295877 257.000000 537.794335 257.000000 538.292793 257.000000 538.791251 257.000000 539.289709 257.000000 539.788167 257.000000 540.286625 257.000000 540.785083 257.000000 541.283541 257.000000 541.781999 257.000000 542.280457 257.000000 542.778916 257.000000 543.277374 257.000000 543.775832 257.000000 544.274290 257.000000 544.772748 257.000000 545.271206 257.000000 545.769664 257.000000 546.268122 257.000000 546.766580 257.000000 547.265038 257.000000 547.763496 257.000000 548.261954 257.000000 548.760412 257.000000 549.258870 257.000000 549.757329 257.000000 550.255787 257.000000 550.754245 257.000000 551.252703 257.000000 551.751161 257.000000 552.249619 257.000000 552.748077 257.000000 553.246535 257.000000 553.744993 257.000000 554.243451 257.000000 554.741909 257.000000 555.240367 257.000000 555.738825 257.000000 556.237284 257.000000 556.735742 257.000000 557.234200 257.000000 557.732658 257.000000 558.231116 257.000000 558.729574 257.000000 559.228032 257.000000 559.726490 257.000000 560.224948 257.000000 560.723406 257.000000 561.221864 257.000000 561.720322 257.000000 562.218780 257.000000 562.717238 257.000000 563.215697 257.000000 563.714155 257.000000 564.212613 257.000000 564.711071 257.000000 565.209529 257.000000 565.707987 257.000000 566.206445 257.000000 566.704903 257.000000 567.203361 257.000000 567.701819 257.000000 568.200277 257.000000 568.698735 257.000000 569.197193 257.000000 569.695651 257.000000 570.194110 257.000000 570.692568 257.000000 571.191026 257.000000 571.689484 257.000000 572.187942 257.000000 572.686400 257.000000 573.184858 257.000000 573.683316 257.000000 574.181774 257.000000 574.680232 257.000000 575.178690 257.000000 575.677148 257.000000 576.175606 257.000000 576.674064 257.000000 577.172523 257.000000 577.670981 257.000000 578.169439 257.000000 578.667897 257.000000 579.166355 257.000000 579.664813 257.000000 580.163271 257.000000 580.661729 257.000000 581.160187 257.000000 581.658645 257.000000 582.157103 257.000000 582.655561 257.000000 583.154019 257.000000 583.652478 257.000000 584.150936 257.000000 584.649394 257.000000 585.147852 257.000000 585.646310 257.000000 586.144768 257.000000 586.643226 257.000000 587.141684 257.000000 587.640142 257.000000 588.138600 257.000000 588.637058 257.000000 589.135516 257.000000 589.633974 257.000000 590.132432 257.000000 590.630891 257.000000 591.129349 257.000000 591.627807 257.000000 592.126265 257.000000 592.624723 257.000000 593.123181 257.000000 593.621639 257.000000 594.120097 257.000000 594.618555 257.000000 595.117013 257.000000 595.615471 257.000000 596.113929 257.000000 596.612387 257.000000 597.110845 257.000000 597.609304 257.000000 598.107762 257.000000 598.606220 257.000000 599.104678 257.000000 599.603136 257.000000 600.101594 257.000000 600.600052 257.000000 601.098510 257.000000 601.596968 257.000000 602.095426 257.000000 602.593884 257.000000 603.092342 257.000000 603.590800 257.000000 604.089258 257.000000 604.587717 257.000000 605.086175 257.000000 605.584633 257.000000 606.083091 257.000000 606.581549 257.000000 607.080007 257.000000 607.578465 257.000000 608.076923 257.000000" /></g></g><g class="titles"><text class="title" x="470.0" y="580">pure_500kbps</text></g><g class="plot overlay" transform="translate(160, 20)"><g class="series serie-0 color-0" /><g class="series serie-1 color-1" /><g class="series serie-2 color-2" /></g><g class="plot text-overlay" transform="translate(160, 20)"><g class="series serie-0 color-0" /><g class="series serie-1 color-1" /><g class="series serie-2 color-2" /></g><g class="plot tooltip-overlay" transform="translate(160, 20)"><g class="tooltip" style="opacity: 0" transform="translate(0 0)"><rect class="tooltip-box" height="0" rx="0" ry="0" width="0" /><g class="text" /></g></g><g class="legends" transform="translate(10, 30)"><g class="legend reactive activate-serie" id="activate-serie-0"><rect class="color-0 reactive" height="12" width="12" x="0.0" y="1.0" /><text x="17.0" y="11.2">qdelay</text></g><g class="legend reactive activate-serie" id="activate-serie-1"><rect class="color-1 reactive" height="12" width="12" x="0.0" y="22.0" /><text x="17.0" y="32.2">txed(kbps)</text></g><g class="legend reactive activate-serie" id="activate-serie-2"><rect class="color-2 reactive" height="12" width="12" x="0.0" y="43.0" /><text x="17.0" y="53.2">topo(kbps)</text></g></g><g class="legends" transform="translate(790, 30)" /></g></svg>