<?xml version='1.0' encoding='utf-8'?>
<svg xmlns:xlink="http://www.w3.org/1999/xlink" class="pygal-chart" id="chart-ef072a97-69fc-4427-94a6-67316fc23ef0" viewBox="0 0 800 600" xmlns="http://www.w3.org/2000/svg"><!--Generated with pygal 2.4.0 (etree) ©Kozea 2012-2016 on 2019-09-27--><!--http://pygal.org--><!--http://github.com/Kozea/pygal--><defs><style type="text/css">#chart-ef072a97-69fc-4427-94a6-67316fc23ef0{-webkit-user-select:none;-webkit-font-smoothing:antialiased;font-family:Consolas,"Liberation Mono",Menlo,Courier,monospace}#chart-ef072a97-69fc-4427-94a6-67316fc23ef0 .title{font-family:Consolas,"Liberation Mono",Menlo,Courier,monospace;font-size:16px}#chart-ef072a97-69fc-4427-94a6-67316fc23ef0 .legends .legend text{font-family:Consolas,"Liberation Mono",Menlo,Courier,monospace;font-size:14px}#chart-ef072a97-69fc-4427-94a6-67316fc23ef0 .axis text{font-family:Consolas,"Liberation Mono",Menlo,Courier,monospace;font-size:10px}#chart-ef072a97-69fc-4427-94a6-67316fc23ef0 .axis text.major{font-family:Consolas,"Liberation Mono",Menlo,Courier,monospace;font-size:10px}#chart-ef072a97-69fc-4427-94a6-67316fc23ef0 .text-overlay text.value{font-family:Consolas,"Liberation Mono",Menlo,Courier,monospace;font-size:16px}#chart-ef072a97-69fc-4427-94a6-67316fc23ef0 .text-overlay text.label{font-family:Consolas,"Liberation Mono",Menlo,Courier,monospace;font-size:10px}#chart-ef072a97-69fc-4427-94a6-67316fc23ef0 .tooltip{font-family:Consolas,"Liberation Mono",Menlo,Courier,monospace;font-size:14px}#chart-ef072a97-69fc-4427-94a6-67316fc23ef0 text.no_data{font-family:Consolas,"Liberation Mono",Menlo,Courier,monospace;font-size:64px}
#chart-ef072a97-69fc-4427-94a6-67316fc23ef0{background-color:transparent}#chart-ef072a97-69fc-4427-94a6-67316fc23ef0 path,#chart-ef072a97-69fc-4427-94a6-67316fc23ef0 line,#chart-ef072a97-69fc-4427-94a6-67316fc23ef0 rect,#chart-ef072a97-69fc-4427-94a6-67316fc23ef0 circle{-webkit-transition:100ms ease-in;-moz-transition:100ms ease-in;transition:100ms ease-in}#chart-ef072a97-69fc-4427-94a6-67316fc23ef0 .graph &gt; .background{fill:transparent}#chart-ef072a97-69fc-4427-94a6-67316fc23ef0 .plot &gt; .background{fill:transparent}#chart-ef072a97-69fc-4427-94a6-67316fc23ef0 .graph{fill:#000000}#chart-ef072a97-69fc-4427-94a6-67316fc23ef0 text.no_data{fill:#000000}#chart-ef072a97-69fc-4427-94a6-67316fc23ef0 .title{fill:#000000}#chart-ef072a97-69fc-4427-94a6-67316fc23ef0 .legends .legend text{fill:#000000}#chart-ef072a97-69fc-4427-94a6-67316fc23ef0 .legends .legend:hover text{fill:#000000}#chart-ef072a97-69fc-4427-94a6-67316fc23ef0 .axis .line{stroke:#000000}#chart-ef072a97-69fc-4427-94a6-67316fc23ef0 .axis .guide.line{stroke:#006400d}#chart-ef072a97-69fc-4427-94a6-67316fc23ef0 .axis .major.line{stroke:#000000}#chart-ef072a97-69fc-4427-94a6-67316fc23ef0 .axis text.major{fill:#000000}#chart-ef072a97-69fc-4427-94a6-67316fc23ef0 .axis.y .guides:hover .guide.line,#chart-ef072a97-69fc-4427-94a6-67316fc23ef0 .line-graph .axis.x .guides:hover .guide.line,#chart-ef072a97-69fc-4427-94a6-67316fc23ef0 .stackedline-graph .axis.x .guides:hover .guide.line,#chart-ef072a97-69fc-4427-94a6-67316fc23ef0 .xy-graph .axis.x .guides:hover .guide.line{stroke:#000000}#chart-ef072a97-69fc-4427-94a6-67316fc23ef0 .axis .guides:hover text{fill:#000000}#chart-ef072a97-69fc-4427-94a6-67316fc23ef0 .reactive{fill-opacity:.6;stroke-opacity:.8}#chart-ef072a97-69fc-4427-94a6-67316fc23ef0 .ci{stroke:#000000}#chart-ef072a97-69fc-4427-94a6-67316fc23ef0 .reactive.active,#chart-ef072a97-69fc-4427-94a6-67316fc23ef0 .active .reactive{fill-opacity:.9;stroke-opacity:.9;stroke-width:4}#chart-ef072a97-69fc-4427-94a6-67316fc23ef0 .ci .reactive.active{stroke-width:1.5}#chart-ef072a97-69fc-4427-94a6-67316fc23ef0 .series text{fill:#000000}#chart-ef072a97-69fc-4427-94a6-67316fc23ef0 .tooltip rect{fill:transparent;stroke:#000000;-webkit-transition:opacity 100ms ease-in;-moz-transition:opacity 100ms ease-in;transition:opacity 100ms ease-in}#chart-ef072a97-69fc-4427-94a6-67316fc23ef0 .tooltip .label{fill:#000000}#chart-ef072a97-69fc-4427-94a6-67316fc23ef0 .tooltip .label{fill:#000000}#chart-ef072a97-69fc-4427-94a6-67316fc23ef0 .tooltip .legend{font-size:.8em;fill:#006400d}#chart-ef072a97-69fc-4427-94a6-67316fc23ef0 .tooltip .x_label{font-size:.6em;fill:#000000}#chart-ef072a97-69fc-4427-94a6-67316fc23ef0 .tooltip .xlink{font-size:.5em;text-decoration:underline}#chart-ef072a97-69fc-4427-94a6-67316fc23ef0 .tooltip .value{font-size:1.5em}#chart-ef072a97-69fc-4427-94a6-67316fc23ef0 .bound{font-size:.5em}#chart-ef072a97-69fc-4427-94a6-67316fc23ef0 .max-value{font-size:.75em;fill:#006400d}#chart-ef072a97-69fc-4427-94a6-67316fc23ef0 .map-element{fill:transparent;stroke:#006400d !important}#chart-ef072a97-69fc-4427-94a6-67316fc23ef0 .map-element .reactive{fill-opacity:inherit;stroke-opacity:inherit}#chart-ef072a97-69fc-4427-94a6-67316fc23ef0 .color-0,#chart-ef072a97-69fc-4427-94a6-67316fc23ef0 .color-0 a:visited{stroke:#006400;fill:#006400}#chart-ef072a97-69fc-4427-94a6-67316fc23ef0 .color-1,#chart-ef072a97-69fc-4427-94a6-67316fc23ef0 .color-1 a:visited{stroke:#0022AA;fill:#0022AA}#chart-ef072a97-69fc-4427-94a6-67316fc23ef0 .color-2,#chart-ef072a97-69fc-4427-94a6-67316fc23ef0 .color-2 a:visited{stroke:#FF1111;fill:#FF1111}#chart-ef072a97-69fc-4427-94a6-67316fc23ef0 .text-overlay .color-0 text{fill:black}#chart-ef072a97-69fc-4427-94a6-67316fc23ef0 .text-overlay .color-1 text{fill:black}#chart-ef072a97-69fc-4427-94a6-67316fc23ef0 .text-overlay .color-2 text{fill:black}
#chart-ef072a97-69fc-4427-94a6-67316fc23ef0 text.no_data{text-anchor:middle}#chart-ef072a97-69fc-4427-94a6-67316fc23ef0 .guide.line{fill:none}#chart-ef072a97-69fc-4427-94a6-67316fc23ef0 .centered{text-anchor:middle}#chart-ef072a97-69fc-4427-94a6-67316fc23ef0 .title{text-anchor:middle}#chart-ef072a97-69fc-4427-94a6-67316fc23ef0 .legends .legend text{fill-opacity:1}#chart-ef072a97-69fc-4427-94a6-67316fc23ef0 .axis.x text{text-anchor:middle}#chart-ef072a97-69fc-4427-94a6-67316fc23ef0 .axis.x:not(.web) text[transform]{text-anchor:start}#chart-ef072a97-69fc-4427-94a6-67316fc23ef0 .axis.x:not(.web) text[transform].backwards{text-anchor:end}#chart-ef072a97-69fc-4427-94a6-67316fc23ef0 .axis.y text{text-anchor:end}#chart-ef072a97-69fc-4427-94a6-67316fc23ef0 .axis.y text[transform].backwards{text-anchor:start}#chart-ef072a97-69fc-4427-94a6-67316fc23ef0 .axis.y2 text{text-anchor:start}#chart-ef072a97-69fc-4427-94a6-67316fc23ef0 .axis.y2 text[transform].backwards{text-anchor:end}#chart-ef072a97-69fc-4427-94a6-67316fc23ef0 .axis .guide.line{stroke-dasharray:4,4}#chart-ef072a97-69fc-4427-94a6-67316fc23ef0 .axis .major.guide.line{stroke-dasharray:6,6}#chart-ef072a97-69fc-4427-94a6-67316fc23ef0 .horizontal .axis.y .guide.line,#chart-ef072a97-69fc-4427-94a6-67316fc23ef0 .horizontal .axis.y2 .guide.line,#chart-ef072a97-69fc-4427-94a6-67316fc23ef0 .vertical .axis.x .guide.line{opacity:0}#chart-ef072a97-69fc-4427-94a6-67316fc23ef0 .horizontal .axis.always_show .guide.line,#chart-ef072a97-69fc-4427-94a6-67316fc23ef0 .vertical .axis.always_show .guide.line{opacity:1 !important}#chart-ef072a97-69fc-4427-94a6-67316fc23ef0 .axis.y .guides:hover .guide.line,#chart-ef072a97-69fc-4427-94a6-67316fc23ef0 .axis.y2 .guides:hover .guide.line,#chart-ef072a97-69fc-4427-94a6-67316fc23ef0 .axis.x .guides:hover .guide.line{opacity:1}#chart-ef072a97-69fc-4427-94a6-67316fc23ef0 .axis .guides:hover text{opacity:1}#chart-ef072a97-69fc-4427-94a6-67316fc23ef0 .nofill{fill:none}#chart-ef072a97-69fc-4427-94a6-67316fc23ef0 .subtle-fill{fill-opacity:.2}#chart-ef072a97-69fc-4427-94a6-67316fc23ef0 .dot{stroke-width:1px;fill-opacity:1}#chart-ef072a97-69fc-4427-94a6-67316fc23ef0 .dot.active{stroke-width:5px}#chart-ef072a97-69fc-4427-94a6-67316fc23ef0 .dot.negative{fill:transparent}#chart-ef072a97-69fc-4427-94a6-67316fc23ef0 text,#chart-ef072a97-69fc-4427-94a6-67316fc23ef0 tspan{stroke:none !important}#chart-ef072a97-69fc-4427-94a6-67316fc23ef0 .series text.active{opacity:1}#chart-ef072a97-69fc-4427-94a6-67316fc23ef0 .tooltip rect{fill-opacity:.95;stroke-width:.5}#chart-ef072a97-69fc-4427-94a6-67316fc23ef0 .tooltip text{fill-opacity:1}#chart-ef072a97-69fc-4427-94a6-67316fc23ef0 .showable{visibility:hidden}#chart-ef072a97-69fc-4427-94a6-67316fc23ef0 .showable.shown{visibility:visible}#chart-ef072a97-69fc-4427-94a6-67316fc23ef0 .gauge-background{fill:rgba(229,229,229,1);stroke:none}#chart-ef072a97-69fc-4427-94a6-67316fc23ef0 .bg-lines{stroke:transparent;stroke-width:2px}</style><script type="text/javascript">window.pygal = window.pygal || {};window.pygal.config = window.pygal.config || {};window.pygal.config['ef072a97-69fc-4427-94a6-67316fc23ef0'] = {"dynamic_print_values": false, "truncate_label": null, "inner_radius": 0, "print_values": false, "xrange": null, "box_mode": "extremes", "title": null, "legend_at_bottom_columns": null, "height": 600, "legend_at_bottom": false, "show_legend": true, "show_dots": false, "explicit_size": false, "y_labels_major": null, "show_minor_x_labels": true, "width": 800, "force_uri_protocol": "https", "half_pie": false, "style": {"major_label_font_family": "Consolas, \"Liberation Mono\", Menlo, Courier, monospace", "title_font_family": "Consolas, \"Liberation Mono\", Menlo, Courier, monospace", "stroke_opacity": ".8", "legend_font_family": "Consolas, \"Liberation Mono\", Menlo, Courier, monospace", "colors": ["#006400", "#0022AA", "#FF1111", "#FFEBCD", "#DC143C", "#FFFFFF", "#6495ED", "#B0C4DE", "#D2691E", "#8B0000"], "legend_font_size": 14, "no_data_font_family": "Consolas, \"Liberation Mono\", Menlo, Courier, monospace", "major_label_font_size": 10, "value_background": "rgba(229, 229, 229, 1)", "ci_colors": [], "label_font_family": "Consolas, \"Liberation Mono\", Menlo, Courier, monospace", "label_font_size": 10, "tooltip_font_size": 14, "value_font_size": 16, "font_family": "Consolas, \"Liberation Mono\", Menlo, Courier, monospace", "opacity": ".6", "foreground": "#000000", "plot_background": "transparent", "value_label_font_size": 10, "value_label_font_family": "Consolas, \"Liberation Mono\", Menlo, Courier, monospace", "background": "transparent", "no_data_font_size": 64, "value_colors": [], "guide_stroke_dasharray": "4,4", "transition": "100ms ease-in", "foreground_subtle": "#006400d", "value_font_family": "Consolas, \"Liberation Mono\", Menlo, Courier, monospace", "tooltip_font_family": "Consolas, \"Liberation Mono\", Menlo, Courier, monospace", "title_font_size": 16, "stroke_opacity_hover": ".9", "major_guide_stroke_dasharray": "6,6", "opacity_hover": ".9", "foreground_strong": "#000000"}, "x_label_rotation": 0, "fill": false, "missing_value_fill_truncation": "x", "zero": 0, "margin_right": null, "interpolation_parameters": {}, "x_labels_major": null, "rounded_bars": null, "show_y_labels": true, "dots_size": 2.5, "show_y_guides": true, "show_minor_y_labels": true, "x_labels": null, "y_title": null, "order_min": null, "formatter": null, "disable_xml_declaration": false, "strict": false, "css": ["file://style.css", "file://graph.css"], "tooltip_fancy_mode": true, "defs": [], "show_only_major_dots": false, "y_label_rotation": 0, "show_x_labels": true, "min_scale": 4, "show_x_guides": false, "spacing": 10, "x_labels_major_count": null, "pretty_print": false, "tooltip_border_radius": 0, "interpolate": null, "js": ["//kozea.github.io/pygal.js/2.0.x/pygal-tooltips.min.js"], "y_labels": null, "stroke_style": null, "print_labels": false, "interpolation_precision": 250, "x_title": "pure_300kbps", "y_labels_major_every": null, "logarithmic": false, "legends": ["qdelay", "txed(kbps)", "topo(kbps)"], "max_scale": 16, "print_zeroes": true, "no_data_text": "No data", "truncate_legend": null, "x_labels_major_every": null, "secondary_range": null, "legend_box_size": 12, "no_prefix": false, "stroke": true, "stack_from_top": false, "include_x_axis": false, "range": [0, 600], "classes": ["pygal-chart"], "margin_top": null, "margin_left": null, "y_labels_major_count": null, "margin_bottom": null, "inverse_y_axis": false, "margin": 20, "allow_interruptions": false, "print_values_position": "center"}</script><script type="text/javascript" xlink:href="https://kozea.github.io/pygal.js/2.0.x/pygal-tooltips.min.js" /></defs><title>Pygal</title><g class="graph xy-graph vertical"><rect class="background" height="600" width="800" x="0" y="0" /><g class="plot" transform="translate(154, 20)"><rect class="background" height="514" width="626.0" x="0" y="0" /><g class="axis y always_show"><g class="guides"><path class="axis major line" d="M0.000000 504.115385 h626.000000" /><text class="major" x="-5" y="507.615384615">0</text><title>0</title></g><g class="guides"><path class="guide line" d="M0.000000 421.743590 h626.000000" /><text class="" x="-5" y="425.243589744">100</text><title>100</title></g><g class="guides"><path class="guide line" d="M0.000000 339.371795 h626.000000" /><text class="" x="-5" y="342.871794872">200</text><title>200</title></g><g class="guides"><path class="guide line" d="M0.000000 257.000000 h626.000000" /><text class="" x="-5" y="260.5">300</text><title>300</title></g><g class="guides"><path class="guide line" d="M0.000000 174.628205 h626.000000" /><text class="" x="-5" y="178.128205128">400</text><title>400</title></g><g class="guides"><path class="major guide line" d="M0.000000 92.256410 h626.000000" /><text class="major" x="-5" y="95.7564102564">500</text><title>500</title></g><g class="guides"><path class="guide line" d="M0.000000 9.884615 h626.000000" /><text class="" x="-5" y="13.3846153846">600</text><title>600</title></g></g><g class="axis x"><path class="line" d="M0.000000 0.000000 v514.000000" /><g class="guides"><path class="guide line" d="M60.745680 0.000000 v514.000000" /><text class="" x="60.7456799703" y="529.0">10</text><title>10</title></g><g class="guides"><path class="guide line" d="M111.073718 0.000000 v514.000000" /><text class="" x="111.073717896" y="529.0">20</text><title>20</title></g><g class="guides"><path class="guide line" d="M161.401756 0.000000 v514.000000" /><text class="" x="161.401755823" y="529.0">30</text><title>30</title></g><g class="guides"><path class="guide line" d="M211.729794 0.000000 v514.000000" /><text class="" x="211.729793749" y="529.0">40</text><title>40</title></g><g class="guides"><path class="guide line" d="M262.057832 0.000000 v514.000000" /><text class="" x="262.057831675" y="529.0">50</text><title>50</title></g><g class="guides"><path class="guide line" d="M312.385870 0.000000 v514.000000" /><text class="" x="312.385869601" y="529.0">60</text><title>60</title></g><g class="guides"><path class="guide line" d="M362.713908 0.000000 v514.000000" /><text class="" x="362.713907527" y="529.0">70</text><title>70</title></g><g class="guides"><path class="guide line" d="M413.041945 0.000000 v514.000000" /><text class="" x="413.041945453" y="529.0">80</text><title>80</title></g><g class="guides"><path class="guide line" d="M463.369983 0.000000 v514.000000" /><text class="" x="463.369983379" y="529.0">90</text><title>90</title></g><g class="guides"><path class="guide line" d="M513.698021 0.000000 v514.000000" /><text class="" x="513.698021305" y="529.0">100</text><title>100</title></g><g class="guides"><path class="guide line" d="M564.026059 0.000000 v514.000000" /><text class="" x="564.026059231" y="529.0">110</text><title>110</title></g></g><g class="series serie-0 color-0"><path class="line reactive nofill" d="M12.038462 504.115385 L12.542814 504.115385 13.044484 504.115385 13.548303 499.996795 14.051583 498.349359 14.554325 495.054487 15.058144 494.230769 15.560866 495.054487 16.064700 494.230769 16.567426 492.583333 17.071814 499.173077 17.573987 494.230769 18.077821 496.701923 18.580548 501.644231 19.084382 493.407051 19.587662 495.054487 20.090389 494.230769 20.594223 495.054487 21.097503 490.112179 21.600784 503.291667 22.104064 496.701923 22.606791 504.115385 23.111178 502.467949 23.613352 493.407051 24.117186 490.112179 24.620466 495.878205 25.123193 493.407051 25.627027 493.407051 26.129754 493.407051 26.633588 497.525641 27.136868 497.525641 27.640148 495.054487 28.142875 490.935897 28.646709 504.115385 29.149989 488.464744 29.652716 486.817308 30.156550 495.878205 30.659277 484.346154 31.163111 497.525641 31.665838 490.935897 32.170225 500.820513 32.672952 492.583333 33.175679 485.169872 33.679513 501.644231 34.182240 486.817308 34.686074 497.525641 35.188800 486.817308 35.693188 500.820513 36.195361 487.641026 36.699195 490.935897 37.202475 499.996795 37.705756 499.996795 38.209036 501.644231 38.712317 488.464744 39.215043 490.112179 39.719431 495.878205 40.222158 488.464744 40.724885 484.346154 41.228165 492.583333 41.731999 499.173077 42.235279 490.112179 42.738560 499.173077 43.241840 490.112179 43.744567 487.641026 44.248401 487.641026 44.751128 485.993590 45.254408 485.993590 45.758242 487.641026 46.261522 488.464744 46.764803 490.112179 47.267529 487.641026 47.771363 488.464744 48.274644 490.935897 48.777924 490.935897 49.281205 488.464744 49.784485 500.820513 50.287765 491.759615 50.790492 485.169872 51.294326 497.525641 51.797606 490.935897 52.300887 497.525641 52.804167 486.817308 53.307448 491.759615 53.810728 485.169872 54.314008 484.346154 54.817289 493.407051 55.320016 485.169872 55.823850 490.112179 56.327130 501.644231 56.829857 487.641026 57.333691 498.349359 57.836971 490.935897 58.339698 493.407051 58.843532 493.407051 59.346259 486.817308 59.850093 492.583333 60.353373 487.641026 60.856905 496.701923 61.359179 490.112179 61.863466 487.641026 62.366746 493.407051 62.869020 485.993590 63.372300 487.641026 63.876587 490.112179 64.379868 495.878205 64.883148 499.173077 65.386428 497.525641 65.888702 485.993590 66.392989 490.112179 66.896269 501.644231 67.399550 490.112179 67.901824 486.817308 68.406111 488.464744 68.909391 497.525641 69.412671 499.173077 69.916455 497.525641 70.418226 490.935897 70.923016 499.996795 71.425793 497.525641 71.929073 502.467949 72.432354 491.759615 72.935634 495.878205 73.438914 499.173077 73.942195 485.993590 74.445475 500.820513 74.948756 487.641026 75.452036 493.407051 75.954310 483.522436 76.459100 499.173077 76.961877 491.759615 77.465157 499.173077 77.968941 502.467949 78.471718 494.230769 78.975502 498.349359 79.478279 499.173077 79.981559 499.996795 80.484840 499.173077 80.988623 490.935897 81.491400 499.996795 81.995184 499.996795 82.496955 485.169872 83.001745 498.349359 83.504522 491.759615 84.007802 501.644231 84.511083 488.464744 85.013357 499.173077 85.516637 485.993590 86.020924 493.407051 86.523198 485.993590 87.027485 491.759615 87.530765 495.878205 88.034045 491.759615 88.537326 494.230769 89.040606 500.820513 89.543887 498.349359 90.047670 494.230769 90.550447 495.878205 91.053728 500.820513 91.557008 499.173077 92.060792 497.525641 92.562562 490.112179 93.067352 503.291667 93.570130 495.054487 94.073410 488.464744 94.576690 496.701923 95.079971 499.996795 95.583251 498.349359 96.086531 502.467949 96.589812 490.112179 97.093092 494.230769 97.595366 485.993590 98.099653 485.169872 98.602933 504.115385 99.106717 497.525641 99.609494 498.349359 100.112775 499.996795 100.616055 495.054487 101.119335 498.349359 101.621609 484.346154 102.125896 490.935897 102.629176 497.525641 103.131450 484.346154 103.635737 493.407051 104.139018 490.935897 104.642801 495.054487 105.145578 493.407051 105.648859 504.115385 106.152139 499.996795 106.655923 499.996795 107.159203 480.227564 107.662483 499.173077 108.165261 498.349359 108.669044 496.701923 109.171821 488.464744 109.675102 500.820513 110.178382 495.878205 110.681662 491.759615 111.184943 499.173077 111.688223 494.230769 112.192007 498.349359 112.694784 492.583333 113.198064 493.407051 113.701345 489.288462 114.205128 495.054487 114.707906 490.112179 115.211186 489.288462 115.714466 497.525641 116.217747 498.349359 116.721530 498.349359 117.224307 494.230769 117.727588 497.525641 118.230868 493.407051 118.734149 498.349359 119.237429 485.993590 119.740709 496.701923 120.243990 497.525641 120.747270 493.407051 121.250550 484.346154 121.752824 492.583333 122.257111 488.464744 122.759385 485.993590 123.264175 497.525641 123.766952 491.759615 124.270736 485.993590 124.773513 494.230769 125.277297 499.996795 125.780074 489.288462 126.283354 499.173077 126.786635 497.525641 127.289915 499.996795 127.793195 487.641026 128.296979 494.230769 128.798750 490.112179 129.303037 489.288462 129.806317 500.820513 130.310101 493.407051 130.812878 491.759615 131.316158 486.817308 131.819942 498.349359 132.321712 501.644231 132.825999 493.407051 133.329280 496.701923 133.832560 499.173077 134.335840 489.288462 134.839121 499.173077 135.342401 489.288462 135.845681 502.467949 136.349465 498.349359 136.852242 495.878205 137.355523 492.583333 137.858803 484.346154 138.362083 490.112179 138.865867 497.525641 139.368644 499.173077 139.872428 490.112179 140.375205 490.112179 140.877479 485.169872 141.382269 481.875000 141.885549 491.759615 142.388830 498.349359 142.891607 495.054487 143.394887 489.288462 143.898168 492.583333 144.401448 498.349359 144.905232 499.173077 145.408512 496.701923 145.911289 499.173077 146.414569 496.701923 146.918353 497.525641 147.421633 482.698718 147.925417 485.993590 148.427691 501.644231 148.930971 502.467949 149.434252 495.878205 149.938035 490.112179 150.440812 497.525641 150.944596 495.054487 151.447373 496.701923 151.950654 499.996795 152.453934 495.878205 152.957214 491.759615 153.460495 494.230769 153.963775 499.173077 154.467559 495.878205 154.970839 499.173077 155.473616 499.173077 155.976897 496.701923 156.480680 501.644231 156.983457 498.349359 157.486738 499.173077 157.990521 499.173077 158.493299 496.701923 158.997082 495.054487 159.500363 502.467949 160.002133 485.993590 160.506420 499.173077 161.010707 490.112179 161.512981 498.349359 162.016764 488.464744 162.520045 491.759615 163.022822 495.878205 163.526102 495.878205 164.029383 498.349359 164.531657 484.346154 165.035943 484.346154 165.539727 495.054487 166.042504 501.644231 166.545785 502.467949 167.049065 489.288462 167.552849 485.169872 168.055626 491.759615 168.558906 495.878205 169.061180 488.464744 169.565467 497.525641 170.069251 499.173077 170.572028 494.230769 171.075308 496.701923 171.579092 496.701923 172.081869 497.525641 172.585652 498.349359 173.088430 497.525641 173.592213 496.701923 174.094990 500.820513 174.597264 492.583333 175.100544 495.054487 175.605335 486.817308 176.108615 498.349359 176.611895 490.935897 177.114673 495.054487 177.618456 499.996795 178.121737 494.230769 178.624514 496.701923 179.128297 497.525641 179.631074 500.820513 180.134858 496.701923 180.637635 497.525641 181.141419 493.407051 181.644196 495.054487 182.147476 495.878205 182.650757 488.464744 183.154540 489.288462 183.657821 496.701923 184.160598 499.173077 184.664382 495.054487 185.167662 493.407051 185.670439 496.701923 186.174223 494.230769 186.677503 500.820513 187.180280 499.996795 187.684064 494.230769 188.186841 495.878205 188.690625 497.525641 189.193402 490.112179 189.696682 495.878205 190.199962 495.054487 190.703746 475.285256 191.207026 484.346154 191.710307 489.288462 192.213084 496.701923 192.716364 493.407051 193.219645 486.817308 193.723428 498.349359 194.226709 497.525641 194.729486 490.935897 195.233269 495.878205 195.736550 501.644231 196.238320 490.112179 196.742607 495.054487 197.245888 497.525641 197.749671 486.817308 198.252448 499.996795 198.755729 494.230769 199.259513 495.878205 199.762793 500.820513 200.266073 485.169872 200.769354 494.230769 201.272131 484.346154 201.775411 499.173077 202.278692 492.583333 202.782475 497.525641 203.285252 495.054487 203.789036 493.407051 204.291813 498.349359 204.795597 497.525641 205.298877 499.173077 205.801654 493.407051 206.305438 495.878205 206.808215 499.173077 207.311999 499.996795 207.814776 489.288462 208.318559 481.875000 208.821840 491.759615 209.324617 493.407051 209.827897 491.759615 210.331178 495.054487 210.834961 495.878205 211.337738 504.115385 211.841522 496.701923 212.344802 492.583333 212.848083 495.878205 213.350860 483.522436 213.854644 496.701923 214.357421 494.230769 214.861204 493.407051 215.364485 495.054487 215.867262 496.701923 216.370542 497.525641 216.874326 494.230769 217.377606 495.054487 217.880383 499.173077 218.383664 497.525641 218.886944 496.701923 219.390728 490.112179 219.893505 495.054487 220.397288 492.583333 220.900569 496.701923 221.403346 499.996795 221.907130 485.169872 222.410410 482.698718 222.913690 486.817308 223.416971 494.230769 223.920251 497.525641 224.423531 499.173077 224.926309 499.173077 225.429589 497.525641 225.933373 497.525641 226.436653 476.932692 226.939933 476.108974 227.443214 491.759615 227.946494 496.701923 228.448265 483.522436 228.952552 499.173077 229.456335 494.230769 229.959616 493.407051 230.462896 499.996795 230.965673 497.525641 231.468954 498.349359 231.972737 497.525641 232.475514 494.230769 232.978795 497.525641 233.482578 488.464744 233.985355 496.701923 234.489139 493.407051 234.991916 495.054487 235.495700 497.525641 235.998477 495.878205 236.501757 500.820513 237.005541 490.112179 237.508318 497.525641 238.012102 490.112179 238.515382 498.349359 239.018662 493.407051 239.521943 492.583333 240.025223 497.525641 240.528000 494.230769 241.031784 491.759615 241.535064 494.230769 242.037841 494.230769 242.541122 500.820513 243.044402 491.759615 243.547683 498.349359 244.051466 495.054487 244.554243 494.230769 245.058027 490.112179 245.561307 479.403846 246.064588 480.227564 246.567868 489.288462 247.070645 491.759615 247.573926 500.820513 248.077709 498.349359 248.580486 496.701923 249.084270 494.230769 249.587047 495.878205 250.090831 493.407051 250.593608 495.054487 251.097392 496.701923 251.600672 494.230769 252.103952 494.230769 252.606729 490.935897 253.110010 493.407051 253.613290 495.878205 254.117074 494.230769 254.620354 478.580128 255.123131 493.407051 255.626915 495.054487 256.129692 491.759615 256.632972 498.349359 257.135246 487.641026 257.640037 495.878205 258.143317 502.467949 258.646094 497.525641 259.149374 496.701923 259.653158 490.935897 260.156438 487.641026 260.659216 496.701923 261.162999 501.644231 261.665776 492.583333 262.169560 484.346154 262.672840 495.878205 263.175617 496.701923 263.679401 501.644231 264.182681 497.525641 264.685459 501.644231 265.188739 491.759615 265.692019 484.346154 266.195300 491.759615 266.698580 496.701923 267.202364 495.878205 267.705644 493.407051 268.208924 481.875000 268.711702 492.583333 269.214982 498.349359 269.718262 499.173077 270.222046 493.407051 270.725326 479.403846 271.228103 483.522436 271.731887 483.522436 272.235168 475.285256 272.737945 494.230769 273.241728 497.525641 273.745009 503.291667 274.247786 491.759615 274.751569 495.878205 275.254346 494.230769 275.757627 502.467949 276.261411 489.288462 276.764691 493.407051 277.267971 497.525641 277.770748 503.291667 278.274029 504.115385 278.777309 501.644231 279.281093 490.935897 279.784373 496.701923 280.287150 498.349359 280.790431 491.759615 281.294214 498.349359 281.796991 485.169872 282.300272 479.403846 282.804055 495.054487 283.307336 490.112179 283.810616 496.701923 284.313393 497.525641 284.816674 494.230769 285.320457 492.583333 285.823738 499.996795 286.327018 495.878205 286.829795 495.054487 287.333579 489.288462 287.836356 490.112179 288.339636 499.173077 288.842917 482.698718 289.347204 488.464744 289.849477 480.227564 290.353261 495.054487 290.856038 494.230769 291.359822 492.583333 291.862599 490.112179 292.366383 486.817308 292.869663 490.112179 293.372943 499.173077 293.876224 494.230769 294.379504 496.701923 294.882785 485.169872 295.386065 500.820513 295.888842 492.583333 296.392122 496.701923 296.895906 495.054487 297.399186 500.820513 297.901964 495.054487 298.405747 482.698718 298.909028 496.701923 299.411805 495.878205 299.915085 482.698718 300.418869 494.230769 300.921646 497.525641 301.425430 495.054487 301.928207 495.878205 302.431990 501.644231 302.934767 483.522436 303.438551 492.583333 303.941328 498.349359 304.445112 496.701923 304.948392 495.878205 305.451169 494.230769 305.954450 493.407051 306.457730 490.935897 306.961514 501.644231 307.464291 496.701923 307.968074 494.230769 308.470852 491.759615 308.974132 494.230769 309.476406 485.169872 309.981196 498.349359 310.483973 489.288462 310.987757 495.054487 311.491037 495.878205 311.992808 483.522436 312.497598 497.525641 313.000375 495.878205 313.503655 496.701923 314.007439 485.993590 314.510719 493.407051 315.014000 482.698718 315.516777 469.519231 316.021064 496.701923 316.523338 493.407051 317.027121 498.349359 317.529898 482.698718 318.033682 475.285256 318.536962 490.112179 319.039739 492.583333 319.543523 493.407051 320.046804 499.996795 320.549581 496.701923 321.052861 496.701923 321.556141 487.641026 322.059925 500.820513 322.561696 485.169872 323.065983 495.054487 323.569766 485.169872 324.073047 495.878205 324.575824 499.173077 325.079607 495.054487 325.582384 496.701923 326.086168 496.701923 326.588945 499.173077 327.092226 502.467949 327.596009 495.054487 328.099290 482.698718 328.602570 494.230769 329.105347 494.230769 329.609131 495.054487 330.111908 497.525641 330.615188 501.644231 331.118469 491.759615 331.621749 495.054487 332.125533 494.230769 332.628310 491.759615 333.131590 492.583333 333.634870 497.525641 334.138151 493.407051 334.641935 496.701923 335.144712 490.935897 335.648495 498.349359 336.151272 494.230769 336.655056 490.935897 337.158336 489.288462 337.661114 494.230769 338.164897 495.054487 338.668178 495.878205 339.171458 494.230769 339.674235 498.349359 340.178019 484.346154 340.681299 494.230769 341.184076 493.407051 341.687860 504.115385 342.189630 497.525641 342.694421 496.701923 343.197701 490.935897 343.700478 489.288462 344.203758 484.346154 344.707039 491.759615 345.210319 483.522436 345.713600 500.820513 346.216880 495.878205 346.720160 500.820513 347.223441 490.935897 347.727224 496.701923 348.230001 496.701923 348.733282 494.230769 349.236562 498.349359 349.739843 492.583333 350.243626 499.996795 350.746403 491.759615 351.250187 494.230769 351.752964 495.054487 352.256748 495.878205 352.759525 499.173077 353.262805 497.525641 353.766589 500.820513 354.269366 485.169872 354.773150 492.583333 355.276430 493.407051 355.779710 493.407051 356.282488 493.407051 356.786271 494.230769 357.289048 495.878205 357.792329 497.525641 358.296112 497.525641 358.799393 496.701923 359.302170 495.878205 359.805953 499.173077 360.308731 493.407051 360.812514 489.288462 361.315291 499.996795 361.819075 494.230769 362.321852 489.288462 362.825132 496.701923 363.328916 499.173077 363.832197 478.580128 364.335477 490.112179 364.838254 489.288462 365.342038 495.054487 365.844815 496.701923 366.348095 483.522436 366.851879 493.407051 367.354656 495.054487 367.857936 495.054487 368.361720 499.996795 368.865000 494.230769 369.367777 494.230769 369.871561 499.173077 370.374841 495.054487 370.878122 490.935897 371.380899 490.935897 371.884179 499.173077 372.387963 492.583333 372.891243 489.288462 373.394524 488.464744 373.897301 497.525641 374.401084 492.583333 374.903862 501.644231 375.407645 492.583333 375.910422 495.054487 376.414206 464.576923 376.917486 453.868590 377.420263 493.407051 377.923544 502.467949 378.426824 496.701923 378.930105 491.759615 379.433888 481.051282 379.936665 485.169872 380.440449 487.641026 380.943729 494.230769 381.447010 496.701923 381.949787 498.349359 382.453067 494.230769 382.956348 502.467949 383.458621 482.698718 383.963412 495.054487 384.466189 497.525641 384.969972 497.525641 385.472750 493.407051 385.976533 497.525641 386.479814 478.580128 386.983094 488.464744 387.486374 498.349359 387.989151 495.878205 388.492935 492.583333 388.996215 495.878205 389.498993 492.583333 390.002776 495.878205 390.505553 495.878205 391.009337 496.701923 391.512617 495.878205 392.015394 494.230769 392.519178 485.169872 393.022459 493.407051 393.525739 500.820513 394.028516 487.641026 394.532300 481.051282 395.035077 492.583333 395.538357 498.349359 396.042141 485.993590 396.544918 495.054487 397.048198 492.583333 397.551982 492.583333 398.055262 484.346154 398.558543 499.996795 399.061320 490.112179 399.565103 497.525641 400.067881 502.467949 400.571161 495.054487 401.074945 497.525641 401.577722 483.522436 402.081505 493.407051 402.584282 503.291667 403.088066 490.935897 403.590843 498.349359 404.094627 482.698718 404.597907 497.525641 405.100684 490.935897 405.603965 499.996795 406.107748 499.173077 406.611029 495.054487 407.113806 493.407051 407.617086 500.820513 408.120367 502.467949 408.623647 487.641026 409.126927 490.112179 409.630208 497.525641 410.133488 499.996795 410.637272 502.467949 411.140552 491.759615 411.643329 495.054487 412.147113 492.583333 412.650393 489.288462 413.153674 495.054487 413.656451 493.407051 414.160234 497.525641 414.663012 493.407051 415.166292 493.407051 415.670076 485.993590 416.173356 500.820513 416.676133 498.349359 417.179413 494.230769 417.683197 497.525641 418.185974 499.173077 418.689758 481.875000 419.193038 478.580128 419.696319 489.288462 420.199599 495.878205 420.702879 499.173077 421.204650 481.875000 421.709440 495.054487 422.212721 494.230769 422.715498 500.820513 423.218778 497.525641 423.722058 497.525641 424.225842 495.054487 424.729122 494.230769 425.231900 483.522436 425.735683 495.054487 426.238964 496.701923 426.741741 493.407051 427.245524 499.173077 427.747295 490.112179 428.251582 490.935897 428.754862 493.407051 429.258143 495.054487 429.761423 498.349359 430.264703 494.230769 430.767984 495.878205 431.271264 496.701923 431.774544 497.525641 432.278328 485.169872 432.781105 499.996795 433.284386 484.346154 433.787666 500.820513 434.290946 495.878205 434.793220 482.698718 435.297507 498.349359 435.800787 488.464744 436.304068 503.291667 436.807348 495.878205 437.311132 495.878205 437.812902 484.346154 438.317693 495.878205 438.820470 495.054487 439.324253 496.701923 439.826024 485.169872 440.330311 490.935897 440.834095 499.996795 441.336872 495.054487 441.840655 491.759615 442.343432 495.878205 442.847216 495.054487 443.350496 490.935897 443.852267 487.641026 444.356554 498.349359 444.859834 503.291667 445.363618 490.935897 445.866395 495.054487 446.370179 497.525641 446.872956 494.230769 447.376236 496.701923 447.879517 497.525641 448.383300 487.641026 448.886581 490.935897 449.389861 497.525641 449.892638 490.112179 450.395918 488.464744 450.899702 491.759615 451.402983 496.701923 451.906263 497.525641 452.409040 495.054487 452.912320 487.641026 453.416104 490.935897 453.918881 497.525641 454.422162 488.464744 454.925945 493.407051 455.428722 495.054487 455.932506 497.525641 456.435283 496.701923 456.939067 497.525641 457.441844 493.407051 457.945627 495.878205 458.448405 494.230769 458.952188 495.878205 459.455469 488.464744 459.958749 483.522436 460.461526 483.522436 460.965310 497.525641 461.468087 487.641026 461.971870 492.583333 462.474648 496.701923 462.977928 496.701923 463.481208 496.701923 463.984489 485.993590 464.488272 477.756410 464.991553 490.112179 465.494833 500.820513 465.997610 495.054487 466.501394 492.583333 467.004674 489.288462 467.507451 497.525641 468.010732 497.525641 468.514012 490.935897 469.017796 496.701923 469.520573 486.817308 470.024357 491.759615 470.527134 494.230769 471.030917 495.054487 471.532688 488.464744 472.036975 498.349359 472.540758 497.525641 473.044039 497.525641 473.546816 498.349359 474.050600 473.637821 474.554383 481.051282 475.056657 491.759615 475.560441 485.169872 476.064224 468.695513 476.567001 485.993590 477.069779 491.759615 477.573059 493.407051 478.076843 497.525641 478.579620 482.698718 479.083403 481.875000 479.586684 492.583333 480.089964 495.878205 480.592741 498.349359 481.096525 497.525641 481.599302 490.112179 482.102582 493.407051 482.605863 488.464744 483.109646 495.878205 483.612424 494.230769 484.114697 495.878205 484.619488 492.583333 485.122768 495.054487 485.626048 484.346154 486.129329 479.403846 486.632609 490.935897 487.135386 496.701923 487.639170 481.875000 488.142953 490.112179 488.645227 497.525641 489.148508 490.935897 489.652291 499.173077 490.155068 495.878205 490.658349 495.054487 491.161629 494.230769 491.665413 492.583333 492.168693 494.230769 492.671470 493.407051 493.175254 493.407051 493.678534 497.525641 494.181311 493.407051 494.684592 501.644231 495.188376 495.878205 495.691153 492.583333 496.194433 497.525641 496.698217 495.054487 497.200994 483.522436 497.704777 499.173077 498.206548 485.169872 498.710835 496.701923 499.214619 492.583333 499.717396 497.525641 500.220676 500.820513 500.724460 491.759615 501.227740 493.407051 501.730517 493.407051 502.234301 489.288462 502.737078 499.996795 503.240358 498.349359 503.743639 485.993590 504.246919 486.817308 504.750703 487.641026 505.253983 482.698718 505.757263 499.173077 506.260041 493.407051 506.763321 491.759615 507.266601 490.112179 507.769882 495.878205 508.273162 492.583333 508.776442 482.698718 509.280226 499.173077 509.783003 499.173077 510.286284 490.112179 510.789564 495.878205 511.292844 489.288462 511.796125 499.996795 512.299908 495.054487 512.802686 495.054487 513.306469 490.935897 513.808743 493.407051 514.312023 495.878205 514.815304 495.054487 515.318584 495.878205 515.821865 495.878205 516.325145 491.759615 516.828425 499.173077 517.331706 493.407051 517.834986 499.173077 518.338266 492.583333 518.841547 487.641026 519.344827 484.346154 519.848108 473.637821 520.351388 489.288462 520.854668 495.054487 521.357949 490.112179 521.861229 498.349359 522.364509 489.288462 522.867790 496.701923 523.371070 485.169872 523.874351 495.054487 524.377631 490.935897 524.880911 500.820513 525.384192 495.054487 525.887472 496.701923 526.390752 491.759615 526.894033 502.467949 527.397313 498.349359 527.900594 490.112179 528.403874 494.230769 528.907154 493.407051 529.410435 481.875000 529.913715 496.701923 530.416996 491.759615 530.920276 492.583333 531.423556 499.996795 531.926837 495.054487 532.430117 490.935897 532.933397 499.173077 533.436678 498.349359 533.939958 497.525641 534.443239 495.878205 534.946519 497.525641 535.449799 488.464744 535.953080 498.349359 536.456360 494.230769 536.959640 497.525641 537.462921 489.288462 537.966201 479.403846 538.469482 496.701923 538.972762 490.112179 539.476042 491.759615 539.979323 491.759615 540.482603 488.464744 540.985883 501.644231 541.489164 492.583333 541.992444 485.993590 542.495725 496.701923 542.999005 495.878205 543.502285 501.644231 544.005566 496.701923 544.508846 498.349359 545.012127 495.054487 545.515407 495.878205 546.018687 496.701923 546.521968 497.525641 547.025248 490.112179 547.528528 501.644231 548.031809 495.054487 548.535089 494.230769 549.038370 497.525641 549.541650 498.349359 550.044930 483.522436 550.548211 486.817308 551.051491 494.230769 551.554771 495.878205 552.058052 490.935897 552.561332 482.698718 553.064613 497.525641 553.567893 490.112179 554.071173 495.878205 554.574454 495.878205 555.077734 499.173077 555.581014 492.583333 556.084295 494.230769 556.587575 483.522436 557.090856 486.817308 557.594136 496.701923 558.097416 489.288462 558.600697 495.054487 559.103977 492.583333 559.607258 500.820513 560.110538 495.054487 560.613818 472.814103 561.117099 489.288462 561.620379 499.996795 562.123659 489.288462 562.626940 487.641026 563.130220 467.871795 563.633501 480.227564 564.136781 495.054487 564.640061 498.349359 565.143342 492.583333 565.646622 499.996795 566.149902 494.230769 566.653183 492.583333 567.156463 485.993590 567.659744 490.935897 568.163024 497.525641 568.666304 501.644231 569.169585 496.701923 569.672865 493.407051 570.176145 490.935897 570.679426 496.701923 571.182706 501.644231 571.685987 494.230769 572.189267 495.878205 572.692547 492.583333 573.195828 495.054487 573.699108 497.525641 574.202388 496.701923 574.705669 495.054487 575.208949 495.878205 575.712230 490.935897 576.215510 493.407051 576.718790 502.467949 577.222071 496.701923 577.725351 481.875000 578.228632 494.230769 578.731912 494.230769 579.235192 493.407051 579.738473 486.817308 580.241753 499.996795 580.745033 502.467949 581.248314 496.701923 581.751594 497.525641 582.254875 495.054487 582.758155 496.701923 583.261435 496.701923 583.764716 491.759615 584.267996 495.878205 584.771276 493.407051 585.274557 495.054487 585.777837 495.878205 586.281118 494.230769 586.784398 494.230769 587.287678 493.407051 587.790959 485.169872 588.294239 496.701923 588.797519 498.349359 589.300800 490.935897 589.804080 495.054487 590.307361 495.054487 590.810641 487.641026 591.313921 495.054487 591.817202 487.641026 592.320482 499.173077 592.823763 490.935897 593.327043 492.583333 593.830323 493.407051 594.333604 490.112179 594.836884 485.993590 595.340164 486.817308 595.843445 490.112179 596.346725 495.878205 596.850006 484.346154 597.353286 502.467949 597.856566 500.820513 598.359847 495.054487 598.863127 499.173077 599.366407 497.525641 599.869688 495.878205 600.372968 493.407051 600.876249 485.169872 601.379529 485.169872 601.882809 495.054487 602.386090 493.407051 602.889370 498.349359 603.392650 495.054487 603.895931 496.701923 604.399211 492.583333 604.902492 498.349359 605.405772 496.701923 605.909052 496.701923 606.412333 495.878205 606.915613 490.112179 607.418894 482.698718 607.922174 490.935897 608.425454 495.878205 608.928735 495.054487 609.432015 494.230769 609.935295 497.525641 610.438576 487.641026 610.941856 495.878205 611.445137 497.525641 611.948417 500.820513 612.451697 494.230769 612.954978 495.054487 613.458258 500.820513 613.961538 496.701923" /></g><g class="series serie-1 color-1"><path class="line reactive nofill" d="M12.038462 161.448718 L12.542814 452.221154 13.044484 463.753205 13.548303 374.791667 14.051583 372.320513 14.554325 405.269231 15.058144 352.551282 15.560866 402.798077 16.064700 341.019231 16.567426 322.897436 17.071814 323.721154 17.573987 405.269231 18.077821 317.955128 18.580548 416.801282 19.084382 341.019231 19.587662 353.375000 20.090389 404.445513 20.594223 357.493590 21.097503 323.721154 21.600784 386.323718 22.104064 359.964744 22.606791 461.282051 23.111178 319.602564 23.613352 405.269231 24.117186 335.253205 24.620466 364.083333 25.123193 354.198718 25.627027 407.740385 26.129754 401.150641 26.633588 367.378205 27.136868 373.144231 27.640148 375.615385 28.142875 347.608974 28.646709 377.262821 29.149989 390.442308 29.652716 386.323718 30.156550 303.951923 30.659277 318.778846 31.163111 352.551282 31.665838 399.503205 32.170225 367.378205 32.672952 309.717949 33.175679 321.250000 33.679513 373.967949 34.182240 386.323718 34.686074 377.262821 35.188800 383.852564 35.693188 327.016026 36.195361 386.323718 36.699195 345.137821 37.202475 343.490385 37.705756 323.721154 38.209036 316.307692 38.712317 345.137821 39.215043 403.621795 39.719431 281.711538 40.222158 336.076923 40.724885 377.262821 41.228165 348.432692 41.731999 313.836538 42.235279 341.842949 42.738560 371.496795 43.241840 341.842949 43.744567 393.737179 44.248401 334.429487 44.751128 381.381410 45.254408 381.381410 45.758242 331.958333 46.261522 350.080128 46.764803 321.250000 47.267529 390.442308 47.771363 322.073718 48.274644 388.794872 48.777924 353.375000 49.281205 345.137821 49.784485 317.131410 50.287765 346.785256 50.790492 379.733974 51.294326 345.961538 51.797606 346.785256 52.300887 336.900641 52.804167 327.839744 53.307448 331.958333 53.810728 328.663462 54.314008 376.439103 54.817289 321.250000 55.320016 378.910256 55.823850 303.128205 56.327130 379.733974 56.829857 383.028846 57.333691 436.570513 57.836971 337.724359 58.339698 420.919872 58.843532 363.259615 59.346259 385.500000 59.850093 317.131410 60.353373 324.544872 60.856905 332.782051 61.359179 394.560897 61.863466 300.657051 62.366746 313.836538 62.869020 382.205128 63.372300 391.266026 63.876587 309.717949 64.379868 306.423077 64.883148 294.067308 65.386428 303.951923 65.888702 378.086538 66.392989 345.137821 66.896269 305.599359 67.399550 341.842949 67.901824 324.544872 68.406111 285.830128 68.909391 397.855769 69.412671 303.951923 69.916455 318.778846 70.418226 341.019231 70.923016 296.538462 71.425793 313.836538 71.929073 364.083333 72.432354 238.878205 72.935634 309.717949 73.438914 327.839744 73.942195 317.131410 74.445475 369.849359 74.948756 319.602564 75.452036 340.195513 75.954310 373.967949 76.459100 396.208333 76.961877 312.189103 77.465157 315.483974 77.968941 350.080128 78.471718 291.596154 78.975502 341.019231 79.478279 327.016026 79.981559 323.721154 80.484840 384.676282 80.988623 273.474359 81.491400 309.717949 81.995184 352.551282 82.496955 375.615385 83.001745 302.304487 83.504522 352.551282 84.007802 363.259615 84.511083 328.663462 85.013357 425.862179 85.516637 380.557692 86.020924 306.423077 86.523198 375.615385 87.027485 336.076923 87.530765 376.439103 88.034045 345.137821 88.537326 299.009615 89.040606 370.673077 89.543887 284.182692 90.047670 287.477564 90.550447 299.833333 91.053728 369.849359 91.557008 306.423077 92.060792 294.891026 92.562562 336.076923 93.067352 358.317308 93.570130 373.967949 94.073410 339.371795 94.576690 372.320513 95.079971 289.948718 95.583251 299.833333 96.086531 373.967949 96.589812 302.304487 97.093092 320.426282 97.595366 328.663462 98.099653 316.307692 98.602933 369.849359 99.106717 350.903846 99.609494 344.314103 100.112775 312.189103 100.616055 309.717949 101.119335 420.096154 101.621609 381.381410 102.125896 411.035256 102.629176 342.666667 103.131450 347.608974 103.635737 299.833333 104.139018 342.666667 104.642801 299.009615 105.145578 358.317308 105.648859 310.541667 106.152139 381.381410 106.655923 303.951923 107.159203 233.935897 107.662483 362.435897 108.165261 363.259615 108.669044 341.842949 109.171821 271.826923 109.675102 364.907051 110.178382 299.009615 110.681662 319.602564 111.184943 299.009615 111.688223 435.746795 112.192007 308.070513 112.694784 309.717949 113.198064 320.426282 113.701345 359.964744 114.205128 355.022436 114.707906 283.358974 115.211186 364.907051 115.714466 427.509615 116.217747 317.955128 116.721530 294.891026 117.224307 301.480769 117.727588 319.602564 118.230868 358.317308 118.734149 300.657051 119.237429 326.192308 119.740709 311.365385 120.243990 299.009615 120.747270 237.230769 121.250550 332.782051 121.752824 359.141026 122.257111 331.134615 122.759385 388.794872 123.264175 299.833333 123.766952 302.304487 124.270736 357.493590 124.773513 349.256410 125.277297 347.608974 125.780074 334.429487 126.283354 319.602564 126.786635 374.791667 127.289915 383.028846 127.793195 326.192308 128.296979 305.599359 128.798750 401.974359 129.303037 310.541667 129.806317 376.439103 130.310101 313.012821 130.812878 299.009615 131.316158 357.493590 131.819942 345.961538 132.321712 375.615385 132.825999 344.314103 133.329280 369.849359 133.832560 311.365385 134.335840 339.371795 134.839121 308.894231 135.342401 341.842949 135.845681 352.551282 136.349465 351.727564 136.852242 371.496795 137.355523 300.657051 137.858803 283.358974 138.362083 313.836538 138.865867 351.727564 139.368644 289.125000 139.872428 297.362179 140.375205 289.948718 140.877479 378.910256 141.382269 275.945513 141.885549 369.025641 142.388830 298.185897 142.891607 348.432692 143.394887 336.076923 143.898168 369.025641 144.401448 298.185897 144.905232 289.948718 145.408512 392.913462 145.911289 366.554487 146.414569 383.028846 146.918353 285.006410 147.421633 229.817308 147.925417 298.185897 148.427691 264.413462 148.930971 374.791667 149.434252 376.439103 149.938035 303.128205 150.440812 303.128205 150.944596 343.490385 151.447373 286.653846 151.950654 254.528846 152.453934 365.730769 152.957214 299.009615 153.460495 280.064103 153.963775 313.836538 154.467559 283.358974 154.970839 342.666667 155.473616 363.259615 155.976897 302.304487 156.480680 397.855769 156.983457 340.195513 157.486738 301.480769 157.990521 300.657051 158.493299 304.775641 158.997082 306.423077 159.500363 365.730769 160.002133 375.615385 160.506420 304.775641 161.010707 228.169872 161.512981 267.708333 162.016764 305.599359 162.520045 337.724359 163.022822 303.128205 163.526102 343.490385 164.029383 280.064103 164.531657 378.086538 165.035943 324.544872 165.539727 305.599359 166.042504 345.961538 166.545785 359.141026 167.049065 288.301282 167.552849 247.939103 168.055626 364.907051 168.558906 378.910256 169.061180 390.442308 169.565467 334.429487 170.069251 329.487179 170.572028 364.907051 171.075308 309.717949 171.579092 277.592949 172.081869 327.839744 172.585652 322.073718 173.088430 357.493590 173.592213 369.025641 174.094990 349.256410 174.597264 406.916667 175.100544 415.153846 175.605335 270.179487 176.108615 299.833333 176.611895 273.474359 177.114673 299.009615 177.618456 370.673077 178.121737 309.717949 178.624514 313.012821 179.128297 254.528846 179.631074 352.551282 180.134858 288.301282 180.637635 372.320513 181.141419 300.657051 181.644196 297.362179 182.147476 378.910256 182.650757 276.769231 183.154540 289.948718 183.657821 289.125000 184.160598 299.009615 184.664382 317.955128 185.167662 284.182692 185.670439 289.948718 186.174223 281.711538 186.677503 300.657051 187.180280 324.544872 187.684064 322.897436 188.186841 281.711538 188.690625 344.314103 189.193402 340.195513 189.696682 373.144231 190.199962 304.775641 190.703746 167.214744 191.207026 355.846154 191.710307 258.647436 192.213084 355.022436 192.716364 314.660256 193.219645 280.887821 193.723428 352.551282 194.226709 278.416667 194.729486 313.836538 195.233269 356.669872 195.736550 284.182692 196.238320 403.621795 196.742607 373.144231 197.245888 280.064103 197.749671 328.663462 198.252448 343.490385 198.755729 270.179487 199.259513 290.772436 199.762793 270.179487 200.266073 339.371795 200.769354 280.887821 201.272131 272.650641 201.775411 345.137821 202.278692 384.676282 202.782475 307.246795 203.285252 371.496795 203.789036 317.131410 204.291813 328.663462 204.795597 271.003205 205.298877 349.256410 205.801654 271.826923 206.305438 333.605769 206.808215 321.250000 207.311999 350.080128 207.814776 276.769231 208.318559 228.169872 208.821840 320.426282 209.324617 331.958333 209.827897 333.605769 210.331178 299.833333 210.834961 286.653846 211.337738 359.141026 211.841522 286.653846 212.344802 271.826923 212.848083 328.663462 213.350860 324.544872 213.854644 298.185897 214.357421 288.301282 214.861204 331.134615 215.364485 280.064103 215.867262 289.948718 216.370542 348.432692 216.874326 287.477564 217.377606 341.842949 217.880383 333.605769 218.383664 353.375000 218.886944 315.483974 219.390728 256.176282 219.893505 272.650641 220.397288 373.967949 220.900569 280.064103 221.403346 362.435897 221.907130 252.057692 222.410410 232.288462 222.913690 329.487179 223.416971 320.426282 223.920251 279.240385 224.423531 325.368590 224.926309 364.083333 225.429589 373.144231 225.933373 272.650641 226.436653 203.458333 226.939933 295.714744 227.443214 360.788462 227.946494 318.778846 228.448265 373.144231 228.952552 384.676282 229.456335 280.887821 229.959616 336.900641 230.462896 328.663462 230.965673 357.493590 231.468954 361.612179 231.972737 286.653846 232.475514 311.365385 232.978795 294.891026 233.482578 232.288462 233.985355 341.842949 234.489139 280.887821 234.991916 282.535256 235.495700 355.846154 235.998477 347.608974 236.501757 364.083333 237.005541 327.839744 237.508318 275.945513 238.012102 264.413462 238.515382 290.772436 239.018662 261.118590 239.521943 259.471154 240.025223 335.253205 240.528000 252.057692 241.031784 269.355769 241.535064 278.416667 242.037841 322.073718 242.541122 327.016026 243.044402 344.314103 243.547683 348.432692 244.051466 373.967949 244.554243 275.121795 245.058027 255.352564 245.561307 238.878205 246.064588 269.355769 246.567868 275.945513 247.070645 304.775641 247.573926 341.842949 248.077709 299.833333 248.580486 278.416667 249.084270 272.650641 249.587047 299.833333 250.090831 266.884615 250.593608 303.128205 251.097392 350.903846 251.600672 289.125000 252.103952 272.650641 252.606729 299.009615 253.110010 303.128205 253.613290 293.243590 254.117074 373.967949 254.620354 209.224359 255.123131 280.887821 255.626915 321.250000 256.129692 303.951923 256.632972 306.423077 257.135246 385.500000 257.640037 279.240385 258.143317 383.028846 258.646094 355.022436 259.149374 288.301282 259.653158 233.935897 260.156438 257.000000 260.659216 397.855769 261.162999 336.076923 261.665776 343.490385 262.169560 242.996795 262.672840 353.375000 263.175617 309.717949 263.679401 359.964744 264.182681 284.182692 264.685459 254.528846 265.188739 262.766026 265.692019 348.432692 266.195300 277.592949 266.698580 364.083333 267.202364 317.131410 267.705644 271.826923 268.208924 297.362179 268.711702 375.615385 269.214982 291.596154 269.718262 359.964744 270.222046 252.057692 270.725326 272.650641 271.228103 321.250000 271.731887 230.641026 272.235168 288.301282 272.737945 285.830128 273.241728 238.878205 273.745009 351.727564 274.247786 385.500000 274.751569 275.945513 275.254346 270.179487 275.757627 368.201923 276.261411 286.653846 276.764691 257.000000 277.267971 291.596154 277.770748 400.326923 278.274029 369.025641 278.777309 377.262821 279.281093 284.182692 279.784373 323.721154 280.287150 308.070513 280.790431 276.769231 281.294214 368.201923 281.796991 300.657051 282.300272 215.814103 282.804055 297.362179 283.307336 247.939103 283.810616 281.711538 284.313393 351.727564 284.816674 305.599359 285.320457 260.294872 285.823738 297.362179 286.327018 289.948718 286.829795 291.596154 287.333579 277.592949 287.836356 270.179487 288.339636 337.724359 288.842917 241.349359 289.347204 236.407051 289.849477 375.615385 290.353261 332.782051 290.856038 257.823718 291.359822 331.958333 291.862599 296.538462 292.366383 191.102564 292.869663 283.358974 293.372943 342.666667 293.876224 266.884615 294.379504 290.772436 294.882785 274.298077 295.386065 291.596154 295.888842 366.554487 296.392122 320.426282 296.895906 331.958333 297.399186 368.201923 297.901964 347.608974 298.405747 205.929487 298.909028 339.371795 299.411805 317.131410 299.915085 250.410256 300.418869 350.903846 300.921646 359.964744 301.425430 359.964744 301.928207 283.358974 302.431990 366.554487 302.934767 285.006410 303.438551 289.948718 303.941328 323.721154 304.445112 247.115385 304.948392 356.669872 305.451169 284.182692 305.954450 295.714744 306.457730 337.724359 306.961514 338.548077 307.464291 350.903846 307.968074 290.772436 308.470852 273.474359 308.974132 328.663462 309.476406 391.266026 309.981196 383.028846 310.483973 259.471154 310.987757 265.237179 311.491037 338.548077 311.992808 373.967949 312.497598 359.964744 313.000375 321.250000 313.503655 330.310897 314.007439 240.525641 314.510719 336.900641 315.014000 192.750000 315.516777 239.701923 316.021064 387.147436 316.523338 269.355769 317.027121 289.948718 317.529898 251.233974 318.033682 275.121795 318.536962 323.721154 319.039739 358.317308 319.543523 258.647436 320.046804 289.948718 320.549581 367.378205 321.052861 358.317308 321.556141 240.525641 322.059925 377.262821 322.561696 378.910256 323.065983 311.365385 323.569766 289.125000 324.073047 275.121795 324.575824 376.439103 325.079607 285.006410 325.582384 273.474359 326.086168 369.025641 326.588945 314.660256 327.092226 365.730769 327.596009 289.948718 328.099290 286.653846 328.602570 371.496795 329.105347 255.352564 329.609131 373.144231 330.111908 373.144231 330.615188 352.551282 331.118469 305.599359 331.621749 327.839744 332.125533 295.714744 332.628310 257.823718 333.131590 355.846154 333.634870 336.076923 334.138151 332.782051 334.641935 330.310897 335.144712 303.951923 335.648495 300.657051 336.151272 335.253205 336.655056 254.528846 337.158336 275.121795 337.661114 276.769231 338.164897 346.785256 338.668178 254.528846 339.171458 316.307692 339.674235 298.185897 340.178019 247.115385 340.681299 273.474359 341.184076 373.144231 341.687860 350.080128 342.189630 358.317308 342.694421 343.490385 343.197701 275.121795 343.700478 321.250000 344.203758 273.474359 344.707039 298.185897 345.210319 338.548077 345.713600 336.900641 346.216880 355.022436 346.720160 305.599359 347.223441 294.891026 347.727224 332.782051 348.230001 299.833333 348.733282 339.371795 349.236562 349.256410 349.739843 275.121795 350.243626 289.948718 350.746403 260.294872 351.250187 317.131410 351.752964 331.958333 352.256748 324.544872 352.759525 383.852564 353.262805 291.596154 353.766589 411.858974 354.269366 323.721154 354.773150 283.358974 355.276430 333.605769 355.779710 289.125000 356.282488 283.358974 356.786271 324.544872 357.289048 261.942308 357.792329 369.025641 358.296112 339.371795 358.799393 305.599359 359.302170 365.730769 359.805953 282.535256 360.308731 246.291667 360.812514 325.368590 361.315291 369.849359 361.819075 271.003205 362.321852 319.602564 362.825132 287.477564 363.328916 293.243590 363.832197 272.650641 364.335477 337.724359 364.838254 293.243590 365.342038 333.605769 365.844815 369.025641 366.348095 314.660256 366.851879 323.721154 367.354656 351.727564 367.857936 273.474359 368.361720 377.262821 368.865000 278.416667 369.367777 280.064103 369.871561 291.596154 370.374841 252.057692 370.878122 331.958333 371.380899 323.721154 371.884179 291.596154 372.387963 252.057692 372.891243 235.583333 373.394524 261.942308 373.897301 328.663462 374.401084 275.121795 374.903862 313.836538 375.407645 350.080128 375.910422 205.929487 376.414206 148.269231 376.917486 350.903846 377.420263 379.733974 377.923544 347.608974 378.426824 310.541667 378.930105 345.961538 379.433888 243.820513 379.936665 317.955128 380.440449 285.830128 380.943729 363.259615 381.447010 308.070513 381.949787 310.541667 382.453067 342.666667 382.956348 384.676282 383.458621 369.849359 383.963412 293.243590 384.466189 430.804487 384.969972 332.782051 385.472750 274.298077 385.976533 290.772436 386.479814 187.807692 386.983094 270.179487 387.486374 349.256410 387.989151 285.006410 388.492935 286.653846 388.996215 354.198718 389.498993 257.823718 390.002776 264.413462 390.505553 292.419872 391.009337 248.762821 391.512617 291.596154 392.015394 281.711538 392.519178 259.471154 393.022459 280.064103 393.525739 354.198718 394.028516 275.121795 394.532300 273.474359 395.035077 299.833333 395.538357 351.727564 396.042141 274.298077 396.544918 283.358974 397.048198 277.592949 397.551982 257.823718 398.055262 276.769231 398.558543 380.557692 399.061320 272.650641 399.565103 328.663462 400.067881 357.493590 400.571161 289.125000 401.074945 289.125000 401.577722 309.717949 402.081505 327.839744 402.584282 360.788462 403.088066 269.355769 403.590843 334.429487 404.094627 224.875000 404.597907 345.137821 405.100684 308.894231 405.603965 372.320513 406.107748 372.320513 406.611029 244.644231 407.113806 361.612179 407.617086 341.019231 408.120367 341.842949 408.623647 281.711538 409.126927 349.256410 409.630208 331.958333 410.133488 334.429487 410.637272 347.608974 411.140552 264.413462 411.643329 350.080128 412.147113 354.198718 412.650393 267.708333 413.153674 294.891026 413.656451 294.067308 414.160234 352.551282 414.663012 359.141026 415.166292 229.817308 415.670076 315.483974 416.173356 359.964744 416.676133 362.435897 417.179413 352.551282 417.683197 373.144231 418.185974 364.907051 418.689758 205.929487 419.193038 257.823718 419.696319 289.948718 420.199599 345.961538 420.702879 289.948718 421.204650 397.032051 421.709440 283.358974 422.212721 286.653846 422.715498 415.977564 423.218778 358.317308 423.722058 281.711538 424.225842 287.477564 424.729122 285.006410 425.231900 321.250000 425.735683 271.826923 426.238964 292.419872 426.741741 299.833333 427.245524 342.666667 427.747295 405.269231 428.251582 359.141026 428.754862 306.423077 429.258143 339.371795 429.761423 379.733974 430.264703 280.887821 430.767984 383.852564 431.271264 336.900641 431.774544 271.826923 432.278328 230.641026 432.781105 364.083333 433.284386 295.714744 433.787666 323.721154 434.290946 360.788462 434.793220 327.839744 435.297507 370.673077 435.800787 302.304487 436.304068 360.788462 436.807348 293.243590 437.311132 363.259615 437.812902 371.496795 438.317693 279.240385 438.820470 284.182692 439.324253 287.477564 439.826024 386.323718 440.330311 349.256410 440.834095 336.076923 441.336872 280.887821 441.840655 341.842949 442.343432 310.541667 442.847216 326.192308 443.350496 278.416667 443.852267 335.253205 444.356554 343.490385 444.859834 443.983974 445.363618 300.657051 445.866395 355.846154 446.370179 347.608974 446.872956 297.362179 447.376236 315.483974 447.879517 317.955128 448.383300 257.000000 448.886581 272.650641 449.389861 351.727564 449.892638 372.320513 450.395918 233.112179 450.899702 327.016026 451.402983 282.535256 451.906263 322.897436 452.409040 366.554487 452.912320 298.185897 453.416104 343.490385 453.918881 290.772436 454.422162 275.945513 454.925945 322.073718 455.428722 309.717949 455.932506 317.955128 456.435283 321.250000 456.939067 292.419872 457.441844 307.246795 457.945627 341.019231 458.448405 278.416667 458.952188 258.647436 459.455469 277.592949 459.958749 239.701923 460.461526 354.198718 460.965310 360.788462 461.468087 273.474359 461.971870 355.846154 462.474648 275.945513 462.977928 308.894231 463.481208 393.737179 463.984489 329.487179 464.488272 278.416667 464.991553 293.243590 465.494833 418.448718 465.997610 355.846154 466.501394 246.291667 467.004674 238.054487 467.507451 356.669872 468.010732 306.423077 468.514012 295.714744 469.017796 328.663462 469.520573 357.493590 470.024357 272.650641 470.527134 300.657051 471.030917 357.493590 471.532688 395.384615 472.036975 303.951923 472.540758 287.477564 473.044039 288.301282 473.546816 285.830128 474.050600 137.560897 474.554383 310.541667 475.056657 282.535256 475.560441 157.330128 476.064224 291.596154 476.567001 283.358974 477.069779 303.951923 477.573059 373.967949 478.076843 332.782051 478.579620 313.836538 479.083403 267.708333 479.586684 336.076923 480.089964 300.657051 480.592741 285.830128 481.096525 305.599359 481.599302 311.365385 482.102582 307.246795 482.605863 303.128205 483.109646 345.961538 483.612424 328.663462 484.114697 358.317308 484.619488 257.823718 485.122768 308.070513 485.626048 242.173077 486.129329 270.179487 486.632609 327.016026 487.135386 356.669872 487.639170 204.282051 488.142953 350.903846 488.645227 341.019231 489.148508 257.823718 489.652291 364.907051 490.155068 285.006410 490.658349 311.365385 491.161629 369.025641 491.665413 275.945513 492.168693 329.487179 492.671470 294.891026 493.175254 324.544872 493.678534 332.782051 494.181311 345.137821 494.684592 326.192308 495.188376 275.945513 495.691153 308.894231 496.194433 299.009615 496.698217 325.368590 497.200994 321.250000 497.704777 378.086538 498.206548 369.025641 498.710835 359.964744 499.214619 256.176282 499.717396 348.432692 500.220676 348.432692 500.724460 259.471154 501.227740 278.416667 501.730517 292.419872 502.234301 261.942308 502.737078 359.141026 503.240358 308.070513 503.743639 285.830128 504.246919 343.490385 504.750703 253.705128 505.253983 243.820513 505.757263 360.788462 506.260041 276.769231 506.763321 305.599359 507.266601 316.307692 507.769882 303.951923 508.273162 330.310897 508.776442 266.884615 509.280226 364.907051 509.783003 345.961538 510.286284 351.727564 510.789564 384.676282 511.292844 350.080128 511.796125 359.141026 512.299908 324.544872 512.802686 358.317308 513.306469 250.410256 513.808743 269.355769 514.312023 386.323718 514.815304 272.650641 515.318584 290.772436 515.821865 389.618590 516.325145 294.067308 516.828425 347.608974 517.331706 285.830128 517.834986 385.500000 518.338266 304.775641 518.841547 233.112179 519.344827 278.416667 519.848108 242.996795 520.351388 370.673077 520.854668 230.641026 521.357949 286.653846 521.861229 364.907051 522.364509 289.125000 522.867790 353.375000 523.371070 249.586538 523.874351 287.477564 524.377631 309.717949 524.880911 275.945513 525.384192 336.076923 525.887472 347.608974 526.390752 297.362179 526.894033 400.326923 527.397313 279.240385 527.900594 352.551282 528.403874 260.294872 528.907154 277.592949 529.410435 254.528846 529.913715 266.884615 530.416996 294.067308 530.920276 359.964744 531.423556 352.551282 531.926837 292.419872 532.430117 293.243590 532.933397 355.846154 533.436678 364.083333 533.939958 307.246795 534.443239 337.724359 534.946519 331.134615 535.449799 291.596154 535.953080 357.493590 536.456360 371.496795 536.959640 318.778846 537.462921 257.823718 537.966201 263.589744 538.469482 370.673077 538.972762 355.022436 539.476042 356.669872 539.979323 334.429487 540.482603 280.064103 540.985883 373.967949 541.489164 300.657051 541.992444 298.185897 542.495725 300.657051 542.999005 291.596154 543.502285 307.246795 544.005566 322.073718 544.508846 295.714744 545.012127 298.185897 545.515407 292.419872 546.018687 293.243590 546.521968 328.663462 547.025248 350.080128 547.528528 373.144231 548.031809 340.195513 548.535089 364.083333 549.038370 329.487179 549.541650 285.830128 550.044930 347.608974 550.548211 328.663462 551.051491 292.419872 551.554771 339.371795 552.058052 322.073718 552.561332 241.349359 553.064613 359.964744 553.567893 301.480769 554.071173 327.839744 554.574454 285.006410 555.077734 365.730769 555.581014 332.782051 556.084295 312.189103 556.587575 275.121795 557.090856 353.375000 557.594136 342.666667 558.097416 332.782051 558.600697 319.602564 559.103977 369.849359 559.607258 335.253205 560.110538 188.631410 560.613818 191.102564 561.117099 294.891026 561.620379 347.608974 562.123659 261.118590 562.626940 245.467949 563.130220 210.871795 563.633501 270.179487 564.136781 322.073718 564.640061 330.310897 565.143342 367.378205 565.646622 364.907051 566.149902 294.067308 566.653183 282.535256 567.156463 333.605769 567.659744 247.115385 568.163024 349.256410 568.666304 356.669872 569.169585 350.080128 569.672865 232.288462 570.176145 289.948718 570.679426 294.891026 571.182706 286.653846 571.685987 350.903846 572.189267 280.064103 572.692547 281.711538 573.195828 327.839744 573.699108 362.435897 574.202388 349.256410 574.705669 283.358974 575.208949 359.141026 575.712230 278.416667 576.215510 281.711538 576.718790 354.198718 577.222071 282.535256 577.725351 214.166667 578.228632 303.128205 578.731912 350.903846 579.235192 268.532051 579.738473 259.471154 580.241753 333.605769 580.745033 341.842949 581.248314 289.948718 581.751594 353.375000 582.254875 285.006410 582.758155 327.016026 583.261435 275.945513 583.764716 309.717949 584.267996 412.682692 584.771276 287.477564 585.274557 297.362179 585.777837 337.724359 586.281118 295.714744 586.784398 268.532051 587.287678 275.121795 587.790959 289.125000 588.294239 313.012821 588.797519 369.025641 589.300800 252.881410 589.804080 331.134615 590.307361 280.887821 590.810641 263.589744 591.313921 263.589744 591.817202 334.429487 592.320482 278.416667 592.823763 285.830128 593.327043 361.612179 593.830323 258.647436 594.333604 298.185897 594.836884 298.185897 595.340164 287.477564 595.843445 282.535256 596.346725 300.657051 596.850006 285.006410 597.353286 371.496795 597.856566 349.256410 598.359847 274.298077 598.863127 364.907051 599.366407 359.141026 599.869688 291.596154 600.372968 251.233974 600.876249 294.067308 601.379529 279.240385 601.882809 280.064103 602.386090 291.596154 602.889370 371.496795 603.392650 333.605769 603.895931 348.432692 604.399211 326.192308 604.902492 351.727564 605.405772 275.121795 605.909052 287.477564 606.412333 281.711538 606.915613 240.525641 607.418894 295.714744 607.922174 328.663462 608.425454 271.826923 608.928735 342.666667 609.432015 308.894231 609.935295 339.371795 610.438576 285.830128 610.941856 296.538462 611.445137 335.253205 611.948417 350.903846 612.451697 281.711538 612.954978 325.368590 613.458258 359.141026 613.961538 355.022436" /></g><g class="series serie-2 color-2"><path class="line reactive nofill" d="M12.038462 257.000000 L12.542814 257.000000 13.044484 257.000000 13.548303 257.000000 14.051583 257.000000 14.554325 257.000000 15.058144 257.000000 15.560866 257.000000 16.064700 257.000000 16.567426 257.000000 17.071814 257.000000 17.573987 257.000000 18.077821 257.000000 18.580548 257.000000 19.084382 257.000000 19.587662 257.000000 20.090389 257.000000 20.594223 257.000000 21.097503 257.000000 21.600784 257.000000 22.104064 257.000000 22.606791 257.000000 23.111178 257.000000 23.613352 257.000000 24.117186 257.000000 24.620466 257.000000 25.123193 257.000000 25.627027 257.000000 26.129754 257.000000 26.633588 257.000000 27.136868 257.000000 27.640148 257.000000 28.142875 257.000000 28.646709 257.000000 29.149989 257.000000 29.652716 257.000000 30.156550 257.000000 30.659277 257.000000 31.163111 257.000000 31.665838 257.000000 32.170225 257.000000 32.672952 257.000000 33.175679 257.000000 33.679513 257.000000 34.182240 257.000000 34.686074 257.000000 35.188800 257.000000 35.693188 257.000000 36.195361 257.000000 36.699195 257.000000 37.202475 257.000000 37.705756 257.000000 38.209036 257.000000 38.712317 257.000000 39.215043 257.000000 39.719431 257.000000 40.222158 257.000000 40.724885 257.000000 41.228165 257.000000 41.731999 257.000000 42.235279 257.000000 42.738560 257.000000 43.241840 257.000000 43.744567 257.000000 44.248401 257.000000 44.751128 257.000000 45.254408 257.000000 45.758242 257.000000 46.261522 257.000000 46.764803 257.000000 47.267529 257.000000 47.771363 257.000000 48.274644 257.000000 48.777924 257.000000 49.281205 257.000000 49.784485 257.000000 50.287765 257.000000 50.790492 257.000000 51.294326 257.000000 51.797606 257.000000 52.300887 257.000000 52.804167 257.000000 53.307448 257.000000 53.810728 257.000000 54.314008 257.000000 54.817289 257.000000 55.320016 257.000000 55.823850 257.000000 56.327130 257.000000 56.829857 257.000000 57.333691 257.000000 57.836971 257.000000 58.339698 257.000000 58.843532 257.000000 59.346259 257.000000 59.850093 257.000000 60.353373 257.000000 60.856905 257.000000 61.359179 257.000000 61.863466 257.000000 62.366746 257.000000 62.869020 257.000000 63.372300 257.000000 63.876587 257.000000 64.379868 257.000000 64.883148 257.000000 65.386428 257.000000 65.888702 257.000000 66.392989 257.000000 66.896269 257.000000 67.399550 257.000000 67.901824 257.000000 68.406111 257.000000 68.909391 257.000000 69.412671 257.000000 69.916455 257.000000 70.418226 257.000000 70.923016 257.000000 71.425793 257.000000 71.929073 257.000000 72.432354 257.000000 72.935634 257.000000 73.438914 257.000000 73.942195 257.000000 74.445475 257.000000 74.948756 257.000000 75.452036 257.000000 75.954310 257.000000 76.459100 257.000000 76.961877 257.000000 77.465157 257.000000 77.968941 257.000000 78.471718 257.000000 78.975502 257.000000 79.478279 257.000000 79.981559 257.000000 80.484840 257.000000 80.988623 257.000000 81.491400 257.000000 81.995184 257.000000 82.496955 257.000000 83.001745 257.000000 83.504522 257.000000 84.007802 257.000000 84.511083 257.000000 85.013357 257.000000 85.516637 257.000000 86.020924 257.000000 86.523198 257.000000 87.027485 257.000000 87.530765 257.000000 88.034045 257.000000 88.537326 257.000000 89.040606 257.000000 89.543887 257.000000 90.047670 257.000000 90.550447 257.000000 91.053728 257.000000 91.557008 257.000000 92.060792 257.000000 92.562562 257.000000 93.067352 257.000000 93.570130 257.000000 94.073410 257.000000 94.576690 257.000000 95.079971 257.000000 95.583251 257.000000 96.086531 257.000000 96.589812 257.000000 97.093092 257.000000 97.595366 257.000000 98.099653 257.000000 98.602933 257.000000 99.106717 257.000000 99.609494 257.000000 100.112775 257.000000 100.616055 257.000000 101.119335 257.000000 101.621609 257.000000 102.125896 257.000000 102.629176 257.000000 103.131450 257.000000 103.635737 257.000000 104.139018 257.000000 104.642801 257.000000 105.145578 257.000000 105.648859 257.000000 106.152139 257.000000 106.655923 257.000000 107.159203 257.000000 107.662483 257.000000 108.165261 257.000000 108.669044 257.000000 109.171821 257.000000 109.675102 257.000000 110.178382 257.000000 110.681662 257.000000 111.184943 257.000000 111.688223 257.000000 112.192007 257.000000 112.694784 257.000000 113.198064 257.000000 113.701345 257.000000 114.205128 257.000000 114.707906 257.000000 115.211186 257.000000 115.714466 257.000000 116.217747 257.000000 116.721530 257.000000 117.224307 257.000000 117.727588 257.000000 118.230868 257.000000 118.734149 257.000000 119.237429 257.000000 119.740709 257.000000 120.243990 257.000000 120.747270 257.000000 121.250550 257.000000 121.752824 257.000000 122.257111 257.000000 122.759385 257.000000 123.264175 257.000000 123.766952 257.000000 124.270736 257.000000 124.773513 257.000000 125.277297 257.000000 125.780074 257.000000 126.283354 257.000000 126.786635 257.000000 127.289915 257.000000 127.793195 257.000000 128.296979 257.000000 128.798750 257.000000 129.303037 257.000000 129.806317 257.000000 130.310101 257.000000 130.812878 257.000000 131.316158 257.000000 131.819942 257.000000 132.321712 257.000000 132.825999 257.000000 133.329280 257.000000 133.832560 257.000000 134.335840 257.000000 134.839121 257.000000 135.342401 257.000000 135.845681 257.000000 136.349465 257.000000 136.852242 257.000000 137.355523 257.000000 137.858803 257.000000 138.362083 257.000000 138.865867 257.000000 139.368644 257.000000 139.872428 257.000000 140.375205 257.000000 140.877479 257.000000 141.382269 257.000000 141.885549 257.000000 142.388830 257.000000 142.891607 257.000000 143.394887 257.000000 143.898168 257.000000 144.401448 257.000000 144.905232 257.000000 145.408512 257.000000 145.911289 257.000000 146.414569 257.000000 146.918353 257.000000 147.421633 257.000000 147.925417 257.000000 148.427691 257.000000 148.930971 257.000000 149.434252 257.000000 149.938035 257.000000 150.440812 257.000000 150.944596 257.000000 151.447373 257.000000 151.950654 257.000000 152.453934 257.000000 152.957214 257.000000 153.460495 257.000000 153.963775 257.000000 154.467559 257.000000 154.970839 257.000000 155.473616 257.000000 155.976897 257.000000 156.480680 257.000000 156.983457 257.000000 157.486738 257.000000 157.990521 257.000000 158.493299 257.000000 158.997082 257.000000 159.500363 257.000000 160.002133 257.000000 160.506420 257.000000 161.010707 257.000000 161.512981 257.000000 162.016764 257.000000 162.520045 257.000000 163.022822 257.000000 163.526102 257.000000 164.029383 257.000000 164.531657 257.000000 165.035943 257.000000 165.539727 257.000000 166.042504 257.000000 166.545785 257.000000 167.049065 257.000000 167.552849 257.000000 168.055626 257.000000 168.558906 257.000000 169.061180 257.000000 169.565467 257.000000 170.069251 257.000000 170.572028 257.000000 171.075308 257.000000 171.579092 257.000000 172.081869 257.000000 172.585652 257.000000 173.088430 257.000000 173.592213 257.000000 174.094990 257.000000 174.597264 257.000000 175.100544 257.000000 175.605335 257.000000 176.108615 257.000000 176.611895 257.000000 177.114673 257.000000 177.618456 257.000000 178.121737 257.000000 178.624514 257.000000 179.128297 257.000000 179.631074 257.000000 180.134858 257.000000 180.637635 257.000000 181.141419 257.000000 181.644196 257.000000 182.147476 257.000000 182.650757 257.000000 183.154540 257.000000 183.657821 257.000000 184.160598 257.000000 184.664382 257.000000 185.167662 257.000000 185.670439 257.000000 186.174223 257.000000 186.677503 257.000000 187.180280 257.000000 187.684064 257.000000 188.186841 257.000000 188.690625 257.000000 189.193402 257.000000 189.696682 257.000000 190.199962 257.000000 190.703746 257.000000 191.207026 257.000000 191.710307 257.000000 192.213084 257.000000 192.716364 257.000000 193.219645 257.000000 193.723428 257.000000 194.226709 257.000000 194.729486 257.000000 195.233269 257.000000 195.736550 257.000000 196.238320 257.000000 196.742607 257.000000 197.245888 257.000000 197.749671 257.000000 198.252448 257.000000 198.755729 257.000000 199.259513 257.000000 199.762793 257.000000 200.266073 257.000000 200.769354 257.000000 201.272131 257.000000 201.775411 257.000000 202.278692 257.000000 202.782475 257.000000 203.285252 257.000000 203.789036 257.000000 204.291813 257.000000 204.795597 257.000000 205.298877 257.000000 205.801654 257.000000 206.305438 257.000000 206.808215 257.000000 207.311999 257.000000 207.814776 257.000000 208.318559 257.000000 208.821840 257.000000 209.324617 257.000000 209.827897 257.000000 210.331178 257.000000 210.834961 257.000000 211.337738 257.000000 211.841522 257.000000 212.344802 257.000000 212.848083 257.000000 213.350860 257.000000 213.854644 257.000000 214.357421 257.000000 214.861204 257.000000 215.364485 257.000000 215.867262 257.000000 216.370542 257.000000 216.874326 257.000000 217.377606 257.000000 217.880383 257.000000 218.383664 257.000000 218.886944 257.000000 219.390728 257.000000 219.893505 257.000000 220.397288 257.000000 220.900569 257.000000 221.403346 257.000000 221.907130 257.000000 222.410410 257.000000 222.913690 257.000000 223.416971 257.000000 223.920251 257.000000 224.423531 257.000000 224.926309 257.000000 225.429589 257.000000 225.933373 257.000000 226.436653 257.000000 226.939933 257.000000 227.443214 257.000000 227.946494 257.000000 228.448265 257.000000 228.952552 257.000000 229.456335 257.000000 229.959616 257.000000 230.462896 257.000000 230.965673 257.000000 231.468954 257.000000 231.972737 257.000000 232.475514 257.000000 232.978795 257.000000 233.482578 257.000000 233.985355 257.000000 234.489139 257.000000 234.991916 257.000000 235.495700 257.000000 235.998477 257.000000 236.501757 257.000000 237.005541 257.000000 237.508318 257.000000 238.012102 257.000000 238.515382 257.000000 239.018662 257.000000 239.521943 257.000000 240.025223 257.000000 240.528000 257.000000 241.031784 257.000000 241.535064 257.000000 242.037841 257.000000 242.541122 257.000000 243.044402 257.000000 243.547683 257.000000 244.051466 257.000000 244.554243 257.000000 245.058027 257.000000 245.561307 257.000000 246.064588 257.000000 246.567868 257.000000 247.070645 257.000000 247.573926 257.000000 248.077709 257.000000 248.580486 257.000000 249.084270 257.000000 249.587047 257.000000 250.090831 257.000000 250.593608 257.000000 251.097392 257.000000 251.600672 257.000000 252.103952 257.000000 252.606729 257.000000 253.110010 257.000000 253.613290 257.000000 254.117074 257.000000 254.620354 257.000000 255.123131 257.000000 255.626915 257.000000 256.129692 257.000000 256.632972 257.000000 257.135246 257.000000 257.640037 257.000000 258.143317 257.000000 258.646094 257.000000 259.149374 257.000000 259.653158 257.000000 260.156438 257.000000 260.659216 257.000000 261.162999 257.000000 261.665776 257.000000 262.169560 257.000000 262.672840 257.000000 263.175617 257.000000 263.679401 257.000000 264.182681 257.000000 264.685459 257.000000 265.188739 257.000000 265.692019 257.000000 266.195300 257.000000 266.698580 257.000000 267.202364 257.000000 267.705644 257.000000 268.208924 257.000000 268.711702 257.000000 269.214982 257.000000 269.718262 257.000000 270.222046 257.000000 270.725326 257.000000 271.228103 257.000000 271.731887 257.000000 272.235168 257.000000 272.737945 257.000000 273.241728 257.000000 273.745009 257.000000 274.247786 257.000000 274.751569 257.000000 275.254346 257.000000 275.757627 257.000000 276.261411 257.000000 276.764691 257.000000 277.267971 257.000000 277.770748 257.000000 278.274029 257.000000 278.777309 257.000000 279.281093 257.000000 279.784373 257.000000 280.287150 257.000000 280.790431 257.000000 281.294214 257.000000 281.796991 257.000000 282.300272 257.000000 282.804055 257.000000 283.307336 257.000000 283.810616 257.000000 284.313393 257.000000 284.816674 257.000000 285.320457 257.000000 285.823738 257.000000 286.327018 257.000000 286.829795 257.000000 287.333579 257.000000 287.836356 257.000000 288.339636 257.000000 288.842917 257.000000 289.347204 257.000000 289.849477 257.000000 290.353261 257.000000 290.856038 257.000000 291.359822 257.000000 291.862599 257.000000 292.366383 257.000000 292.869663 257.000000 293.372943 257.000000 293.876224 257.000000 294.379504 257.000000 294.882785 257.000000 295.386065 257.000000 295.888842 257.000000 296.392122 257.000000 296.895906 257.000000 297.399186 257.000000 297.901964 257.000000 298.405747 257.000000 298.909028 257.000000 299.411805 257.000000 299.915085 257.000000 300.418869 257.000000 300.921646 257.000000 301.425430 257.000000 301.928207 257.000000 302.431990 257.000000 302.934767 257.000000 303.438551 257.000000 303.941328 257.000000 304.445112 257.000000 304.948392 257.000000 305.451169 257.000000 305.954450 257.000000 306.457730 257.000000 306.961514 257.000000 307.464291 257.000000 307.968074 257.000000 308.470852 257.000000 308.974132 257.000000 309.476406 257.000000 309.981196 257.000000 310.483973 257.000000 310.987757 257.000000 311.491037 257.000000 311.992808 257.000000 312.497598 257.000000 313.000375 257.000000 313.503655 257.000000 314.007439 257.000000 314.510719 257.000000 315.014000 257.000000 315.516777 257.000000 316.021064 257.000000 316.523338 257.000000 317.027121 257.000000 317.529898 257.000000 318.033682 257.000000 318.536962 257.000000 319.039739 257.000000 319.543523 257.000000 320.046804 257.000000 320.549581 257.000000 321.052861 257.000000 321.556141 257.000000 322.059925 257.000000 322.561696 257.000000 323.065983 257.000000 323.569766 257.000000 324.073047 257.000000 324.575824 257.000000 325.079607 257.000000 325.582384 257.000000 326.086168 257.000000 326.588945 257.000000 327.092226 257.000000 327.596009 257.000000 328.099290 257.000000 328.602570 257.000000 329.105347 257.000000 329.609131 257.000000 330.111908 257.000000 330.615188 257.000000 331.118469 257.000000 331.621749 257.000000 332.125533 257.000000 332.628310 257.000000 333.131590 257.000000 333.634870 257.000000 334.138151 257.000000 334.641935 257.000000 335.144712 257.000000 335.648495 257.000000 336.151272 257.000000 336.655056 257.000000 337.158336 257.000000 337.661114 257.000000 338.164897 257.000000 338.668178 257.000000 339.171458 257.000000 339.674235 257.000000 340.178019 257.000000 340.681299 257.000000 341.184076 257.000000 341.687860 257.000000 342.189630 257.000000 342.694421 257.000000 343.197701 257.000000 343.700478 257.000000 344.203758 257.000000 344.707039 257.000000 345.210319 257.000000 345.713600 257.000000 346.216880 257.000000 346.720160 257.000000 347.223441 257.000000 347.727224 257.000000 348.230001 257.000000 348.733282 257.000000 349.236562 257.000000 349.739843 257.000000 350.243626 257.000000 350.746403 257.000000 351.250187 257.000000 351.752964 257.000000 352.256748 257.000000 352.759525 257.000000 353.262805 257.000000 353.766589 257.000000 354.269366 257.000000 354.773150 257.000000 355.276430 257.000000 355.779710 257.000000 356.282488 257.000000 356.786271 257.000000 357.289048 257.000000 357.792329 257.000000 358.296112 257.000000 358.799393 257.000000 359.302170 257.000000 359.805953 257.000000 360.308731 257.000000 360.812514 257.000000 361.315291 257.000000 361.819075 257.000000 362.321852 257.000000 362.825132 257.000000 363.328916 257.000000 363.832197 257.000000 364.335477 257.000000 364.838254 257.000000 365.342038 257.000000 365.844815 257.000000 366.348095 257.000000 366.851879 257.000000 367.354656 257.000000 367.857936 257.000000 368.361720 257.000000 368.865000 257.000000 369.367777 257.000000 369.871561 257.000000 370.374841 257.000000 370.878122 257.000000 371.380899 257.000000 371.884179 257.000000 372.387963 257.000000 372.891243 257.000000 373.394524 257.000000 373.897301 257.000000 374.401084 257.000000 374.903862 257.000000 375.407645 257.000000 375.910422 257.000000 376.414206 257.000000 376.917486 257.000000 377.420263 257.000000 377.923544 257.000000 378.426824 257.000000 378.930105 257.000000 379.433888 257.000000 379.936665 257.000000 380.440449 257.000000 380.943729 257.000000 381.447010 257.000000 381.949787 257.000000 382.453067 257.000000 382.956348 257.000000 383.458621 257.000000 383.963412 257.000000 384.466189 257.000000 384.969972 257.000000 385.472750 257.000000 385.976533 257.000000 386.479814 257.000000 386.983094 257.000000 387.486374 257.000000 387.989151 257.000000 388.492935 257.000000 388.996215 257.000000 389.498993 257.000000 390.002776 257.000000 390.505553 257.000000 391.009337 257.000000 391.512617 257.000000 392.015394 257.000000 392.519178 257.000000 393.022459 257.000000 393.525739 257.000000 394.028516 257.000000 394.532300 257.000000 395.035077 257.000000 395.538357 257.000000 396.042141 257.000000 396.544918 257.000000 397.048198 257.000000 397.551982 257.000000 398.055262 257.000000 398.558543 257.000000 399.061320 257.000000 399.565103 257.000000 400.067881 257.000000 400.571161 257.000000 401.074945 257.000000 401.577722 257.000000 402.081505 257.000000 402.584282 257.000000 403.088066 257.000000 403.590843 257.000000 404.094627 257.000000 404.597907 257.000000 405.100684 257.000000 405.603965 257.000000 406.107748 257.000000 406.611029 257.000000 407.113806 257.000000 407.617086 257.000000 408.120367 257.000000 408.623647 257.000000 409.126927 257.000000 409.630208 257.000000 410.133488 257.000000 410.637272 257.000000 411.140552 257.000000 411.643329 257.000000 412.147113 257.000000 412.650393 257.000000 413.153674 257.000000 413.656451 257.000000 414.160234 257.000000 414.663012 257.000000 415.166292 257.000000 415.670076 257.000000 416.173356 257.000000 416.676133 257.000000 417.179413 257.000000 417.683197 257.000000 418.185974 257.000000 418.689758 257.000000 419.193038 257.000000 419.696319 257.000000 420.199599 257.000000 420.702879 257.000000 421.204650 257.000000 421.709440 257.000000 422.212721 257.000000 422.715498 257.000000 423.218778 257.000000 423.722058 257.000000 424.225842 257.000000 424.729122 257.000000 425.231900 257.000000 425.735683 257.000000 426.238964 257.000000 426.741741 257.000000 427.245524 257.000000 427.747295 257.000000 428.251582 257.000000 428.754862 257.000000 429.258143 257.000000 429.761423 257.000000 430.264703 257.000000 430.767984 257.000000 431.271264 257.000000 431.774544 257.000000 432.278328 257.000000 432.781105 257.000000 433.284386 257.000000 433.787666 257.000000 434.290946 257.000000 434.793220 257.000000 435.297507 257.000000 435.800787 257.000000 436.304068 257.000000 436.807348 257.000000 437.311132 257.000000 437.812902 257.000000 438.317693 257.000000 438.820470 257.000000 439.324253 257.000000 439.826024 257.000000 440.330311 257.000000 440.834095 257.000000 441.336872 257.000000 441.840655 257.000000 442.343432 257.000000 442.847216 257.000000 443.350496 257.000000 443.852267 257.000000 444.356554 257.000000 444.859834 257.000000 445.363618 257.000000 445.866395 257.000000 446.370179 257.000000 446.872956 257.000000 447.376236 257.000000 447.879517 257.000000 448.383300 257.000000 448.886581 257.000000 449.389861 257.000000 449.892638 257.000000 450.395918 257.000000 450.899702 257.000000 451.402983 257.000000 451.906263 257.000000 452.409040 257.000000 452.912320 257.000000 453.416104 257.000000 453.918881 257.000000 454.422162 257.000000 454.925945 257.000000 455.428722 257.000000 455.932506 257.000000 456.435283 257.000000 456.939067 257.000000 457.441844 257.000000 457.945627 257.000000 458.448405 257.000000 458.952188 257.000000 459.455469 257.000000 459.958749 257.000000 460.461526 257.000000 460.965310 257.000000 461.468087 257.000000 461.971870 257.000000 462.474648 257.000000 462.977928 257.000000 463.481208 257.000000 463.984489 257.000000 464.488272 257.000000 464.991553 257.000000 465.494833 257.000000 465.997610 257.000000 466.501394 257.000000 467.004674 257.000000 467.507451 257.000000 468.010732 257.000000 468.514012 257.000000 469.017796 257.000000 469.520573 257.000000 470.024357 257.000000 470.527134 257.000000 471.030917 257.000000 471.532688 257.000000 472.036975 257.000000 472.540758 257.000000 473.044039 257.000000 473.546816 257.000000 474.050600 257.000000 474.554383 257.000000 475.056657 257.000000 475.560441 257.000000 476.064224 257.000000 476.567001 257.000000 477.069779 257.000000 477.573059 257.000000 478.076843 257.000000 478.579620 257.000000 479.083403 257.000000 479.586684 257.000000 480.089964 257.000000 480.592741 257.000000 481.096525 257.000000 481.599302 257.000000 482.102582 257.000000 482.605863 257.000000 483.109646 257.000000 483.612424 257.000000 484.114697 257.000000 484.619488 257.000000 485.122768 257.000000 485.626048 257.000000 486.129329 257.000000 486.632609 257.000000 487.135386 257.000000 487.639170 257.000000 488.142953 257.000000 488.645227 257.000000 489.148508 257.000000 489.652291 257.000000 490.155068 257.000000 490.658349 257.000000 491.161629 257.000000 491.665413 257.000000 492.168693 257.000000 492.671470 257.000000 493.175254 257.000000 493.678534 257.000000 494.181311 257.000000 494.684592 257.000000 495.188376 257.000000 495.691153 257.000000 496.194433 257.000000 496.698217 257.000000 497.200994 257.000000 497.704777 257.000000 498.206548 257.000000 498.710835 257.000000 499.214619 257.000000 499.717396 257.000000 500.220676 257.000000 500.724460 257.000000 501.227740 257.000000 501.730517 257.000000 502.234301 257.000000 502.737078 257.000000 503.240358 257.000000 503.743639 257.000000 504.246919 257.000000 504.750703 257.000000 505.253983 257.000000 505.757263 257.000000 506.260041 257.000000 506.763321 257.000000 507.266601 257.000000 507.769882 257.000000 508.273162 257.000000 508.776442 257.000000 509.280226 257.000000 509.783003 257.000000 510.286284 257.000000 510.789564 257.000000 511.292844 257.000000 511.796125 257.000000 512.299908 257.000000 512.802686 257.000000 513.306469 257.000000 513.808743 257.000000 514.312023 257.000000 514.815304 257.000000 515.318584 257.000000 515.821865 257.000000 516.325145 257.000000 516.828425 257.000000 517.331706 257.000000 517.834986 257.000000 518.338266 257.000000 518.841547 257.000000 519.344827 257.000000 519.848108 257.000000 520.351388 257.000000 520.854668 257.000000 521.357949 257.000000 521.861229 257.000000 522.364509 257.000000 522.867790 257.000000 523.371070 257.000000 523.874351 257.000000 524.377631 257.000000 524.880911 257.000000 525.384192 257.000000 525.887472 257.000000 526.390752 257.000000 526.894033 257.000000 527.397313 257.000000 527.900594 257.000000 528.403874 257.000000 528.907154 257.000000 529.410435 257.000000 529.913715 257.000000 530.416996 257.000000 530.920276 257.000000 531.423556 257.000000 531.926837 257.000000 532.430117 257.000000 532.933397 257.000000 533.436678 257.000000 533.939958 257.000000 534.443239 257.000000 534.946519 257.000000 535.449799 257.000000 535.953080 257.000000 536.456360 257.000000 536.959640 257.000000 537.462921 257.000000 537.966201 257.000000 538.469482 257.000000 538.972762 257.000000 539.476042 257.000000 539.979323 257.000000 540.482603 257.000000 540.985883 257.000000 541.489164 257.000000 541.992444 257.000000 542.495725 257.000000 542.999005 257.000000 543.502285 257.000000 544.005566 257.000000 544.508846 257.000000 545.012127 257.000000 545.515407 257.000000 546.018687 257.000000 546.521968 257.000000 547.025248 257.000000 547.528528 257.000000 548.031809 257.000000 548.535089 257.000000 549.038370 257.000000 549.541650 257.000000 550.044930 257.000000 550.548211 257.000000 551.051491 257.000000 551.554771 257.000000 552.058052 257.000000 552.561332 257.000000 553.064613 257.000000 553.567893 257.000000 554.071173 257.000000 554.574454 257.000000 555.077734 257.000000 555.581014 257.000000 556.084295 257.000000 556.587575 257.000000 557.090856 257.000000 557.594136 257.000000 558.097416 257.000000 558.600697 257.000000 559.103977 257.000000 559.607258 257.000000 560.110538 257.000000 560.613818 257.000000 561.117099 257.000000 561.620379 257.000000 562.123659 257.000000 562.626940 257.000000 563.130220 257.000000 563.633501 257.000000 564.136781 257.000000 564.640061 257.000000 565.143342 257.000000 565.646622 257.000000 566.149902 257.000000 566.653183 257.000000 567.156463 257.000000 567.659744 257.000000 568.163024 257.000000 568.666304 257.000000 569.169585 257.000000 569.672865 257.000000 570.176145 257.000000 570.679426 257.000000 571.182706 257.000000 571.685987 257.000000 572.189267 257.000000 572.692547 257.000000 573.195828 257.000000 573.699108 257.000000 574.202388 257.000000 574.705669 257.000000 575.208949 257.000000 575.712230 257.000000 576.215510 257.000000 576.718790 257.000000 577.222071 257.000000 577.725351 257.000000 578.228632 257.000000 578.731912 257.000000 579.235192 257.000000 579.738473 257.000000 580.241753 257.000000 580.745033 257.000000 581.248314 257.000000 581.751594 257.000000 582.254875 257.000000 582.758155 257.000000 583.261435 257.000000 583.764716 257.000000 584.267996 257.000000 584.771276 257.000000 585.274557 257.000000 585.777837 257.000000 586.281118 257.000000 586.784398 257.000000 587.287678 257.000000 587.790959 257.000000 588.294239 257.000000 588.797519 257.000000 589.300800 257.000000 589.804080 257.000000 590.307361 257.000000 590.810641 257.000000 591.313921 257.000000 591.817202 257.000000 592.320482 257.000000 592.823763 257.000000 593.327043 257.000000 593.830323 257.000000 594.333604 257.000000 594.836884 257.000000 595.340164 257.000000 595.843445 257.000000 596.346725 257.000000 596.850006 257.000000 597.353286 257.000000 597.856566 257.000000 598.359847 257.000000 598.863127 257.000000 599.366407 257.000000 599.869688 257.000000 600.372968 257.000000 600.876249 257.000000 601.379529 257.000000 601.882809 257.000000 602.386090 257.000000 602.889370 257.000000 603.392650 257.000000 603.895931 257.000000 604.399211 257.000000 604.902492 257.000000 605.405772 257.000000 605.909052 257.000000 606.412333 257.000000 606.915613 257.000000 607.418894 257.000000 607.922174 257.000000 608.425454 257.000000 608.928735 257.000000 609.432015 257.000000 609.935295 257.000000 610.438576 257.000000 610.941856 257.000000 611.445137 257.000000 611.948417 257.000000 612.451697 257.000000 612.954978 257.000000 613.458258 257.000000 613.961538 257.000000" /></g></g><g class="titles"><text class="title" x="467.0" y="580">pure_300kbps</text></g><g class="plot overlay" transform="translate(154, 20)"><g class="series serie-0 color-0" /><g class="series serie-1 color-1" /><g class="series serie-2 color-2" /></g><g class="plot text-overlay" transform="translate(154, 20)"><g class="series serie-0 color-0" /><g class="series serie-1 color-1" /><g class="series serie-2 color-2" /></g><g class="plot tooltip-overlay" transform="translate(154, 20)"><g class="tooltip" style="opacity: 0" transform="translate(0 0)"><rect class="tooltip-box" height="0" rx="0" ry="0" width="0" /><g class="text" /></g></g><g class="legends" transform="translate(10, 30)"><g class="legend reactive activate-serie" id="activate-serie-0"><rect class="color-0 reactive" height="12" width="12" x="0.0" y="1.0" /><text x="17.0" y="11.2">qdelay</text></g><g class="legend reactive activate-serie" id="activate-serie-1"><rect class="color-1 reactive" height="12" width="12" x="0.0" y="22.0" /><text x="17.0" y="32.2">txed(kbps)</text></g><g class="legend reactive activate-serie" id="activate-serie-2"><rect class="color-2 reactive" height="12" width="12" x="0.0" y="43.0" /><text x="17.0" y="53.2">topo(kbps)</text></g></g><g class="legends" transform="translate(790, 30)" /></g></svg>