<?xml version='1.0' encoding='utf-8'?>
<svg xmlns:xlink="http://www.w3.org/1999/xlink" class="pygal-chart" id="chart-93173308-1de1-4bd9-9a84-1151b0cc9281" viewBox="0 0 800 600" xmlns="http://www.w3.org/2000/svg"><!--Generated with pygal 2.4.0 (etree) ©Kozea 2012-2016 on 2019-01-14--><!--http://pygal.org--><!--http://github.com/Kozea/pygal--><defs><style type="text/css">#chart-93173308-1de1-4bd9-9a84-1151b0cc9281{-webkit-user-select:none;-webkit-font-smoothing:antialiased;font-family:Consolas,"Liberation Mono",Menlo,Courier,monospace}#chart-93173308-1de1-4bd9-9a84-1151b0cc9281 .title{font-family:Consolas,"Liberation Mono",Menlo,Courier,monospace;font-size:16px}#chart-93173308-1de1-4bd9-9a84-1151b0cc9281 .legends .legend text{font-family:Consolas,"Liberation Mono",Menlo,Courier,monospace;font-size:14px}#chart-93173308-1de1-4bd9-9a84-1151b0cc9281 .axis text{font-family:Consolas,"Liberation Mono",Menlo,Courier,monospace;font-size:10px}#chart-93173308-1de1-4bd9-9a84-1151b0cc9281 .axis text.major{font-family:Consolas,"Liberation Mono",Menlo,Courier,monospace;font-size:10px}#chart-93173308-1de1-4bd9-9a84-1151b0cc9281 .text-overlay text.value{font-family:Consolas,"Liberation Mono",Menlo,Courier,monospace;font-size:16px}#chart-93173308-1de1-4bd9-9a84-1151b0cc9281 .text-overlay text.label{font-family:Consolas,"Liberation Mono",Menlo,Courier,monospace;font-size:10px}#chart-93173308-1de1-4bd9-9a84-1151b0cc9281 .tooltip{font-family:Consolas,"Liberation Mono",Menlo,Courier,monospace;font-size:14px}#chart-93173308-1de1-4bd9-9a84-1151b0cc9281 text.no_data{font-family:Consolas,"Liberation Mono",Menlo,Courier,monospace;font-size:64px}
#chart-93173308-1de1-4bd9-9a84-1151b0cc9281{background-color:transparent}#chart-93173308-1de1-4bd9-9a84-1151b0cc9281 path,#chart-93173308-1de1-4bd9-9a84-1151b0cc9281 line,#chart-93173308-1de1-4bd9-9a84-1151b0cc9281 rect,#chart-93173308-1de1-4bd9-9a84-1151b0cc9281 circle{-webkit-transition:100ms ease-in;-moz-transition:100ms ease-in;transition:100ms ease-in}#chart-93173308-1de1-4bd9-9a84-1151b0cc9281 .graph &gt; .background{fill:transparent}#chart-93173308-1de1-4bd9-9a84-1151b0cc9281 .plot &gt; .background{fill:transparent}#chart-93173308-1de1-4bd9-9a84-1151b0cc9281 .graph{fill:#000000}#chart-93173308-1de1-4bd9-9a84-1151b0cc9281 text.no_data{fill:#000000}#chart-93173308-1de1-4bd9-9a84-1151b0cc9281 .title{fill:#000000}#chart-93173308-1de1-4bd9-9a84-1151b0cc9281 .legends .legend text{fill:#000000}#chart-93173308-1de1-4bd9-9a84-1151b0cc9281 .legends .legend:hover text{fill:#000000}#chart-93173308-1de1-4bd9-9a84-1151b0cc9281 .axis .line{stroke:#000000}#chart-93173308-1de1-4bd9-9a84-1151b0cc9281 .axis .guide.line{stroke:#006400d}#chart-93173308-1de1-4bd9-9a84-1151b0cc9281 .axis .major.line{stroke:#000000}#chart-93173308-1de1-4bd9-9a84-1151b0cc9281 .axis text.major{fill:#000000}#chart-93173308-1de1-4bd9-9a84-1151b0cc9281 .axis.y .guides:hover .guide.line,#chart-93173308-1de1-4bd9-9a84-1151b0cc9281 .line-graph .axis.x .guides:hover .guide.line,#chart-93173308-1de1-4bd9-9a84-1151b0cc9281 .stackedline-graph .axis.x .guides:hover .guide.line,#chart-93173308-1de1-4bd9-9a84-1151b0cc9281 .xy-graph .axis.x .guides:hover .guide.line{stroke:#000000}#chart-93173308-1de1-4bd9-9a84-1151b0cc9281 .axis .guides:hover text{fill:#000000}#chart-93173308-1de1-4bd9-9a84-1151b0cc9281 .reactive{fill-opacity:.6;stroke-opacity:.8}#chart-93173308-1de1-4bd9-9a84-1151b0cc9281 .ci{stroke:#000000}#chart-93173308-1de1-4bd9-9a84-1151b0cc9281 .reactive.active,#chart-93173308-1de1-4bd9-9a84-1151b0cc9281 .active .reactive{fill-opacity:.9;stroke-opacity:.9;stroke-width:4}#chart-93173308-1de1-4bd9-9a84-1151b0cc9281 .ci .reactive.active{stroke-width:1.5}#chart-93173308-1de1-4bd9-9a84-1151b0cc9281 .series text{fill:#000000}#chart-93173308-1de1-4bd9-9a84-1151b0cc9281 .tooltip rect{fill:transparent;stroke:#000000;-webkit-transition:opacity 100ms ease-in;-moz-transition:opacity 100ms ease-in;transition:opacity 100ms ease-in}#chart-93173308-1de1-4bd9-9a84-1151b0cc9281 .tooltip .label{fill:#000000}#chart-93173308-1de1-4bd9-9a84-1151b0cc9281 .tooltip .label{fill:#000000}#chart-93173308-1de1-4bd9-9a84-1151b0cc9281 .tooltip .legend{font-size:.8em;fill:#006400d}#chart-93173308-1de1-4bd9-9a84-1151b0cc9281 .tooltip .x_label{font-size:.6em;fill:#000000}#chart-93173308-1de1-4bd9-9a84-1151b0cc9281 .tooltip .xlink{font-size:.5em;text-decoration:underline}#chart-93173308-1de1-4bd9-9a84-1151b0cc9281 .tooltip .value{font-size:1.5em}#chart-93173308-1de1-4bd9-9a84-1151b0cc9281 .bound{font-size:.5em}#chart-93173308-1de1-4bd9-9a84-1151b0cc9281 .max-value{font-size:.75em;fill:#006400d}#chart-93173308-1de1-4bd9-9a84-1151b0cc9281 .map-element{fill:transparent;stroke:#006400d !important}#chart-93173308-1de1-4bd9-9a84-1151b0cc9281 .map-element .reactive{fill-opacity:inherit;stroke-opacity:inherit}#chart-93173308-1de1-4bd9-9a84-1151b0cc9281 .color-0,#chart-93173308-1de1-4bd9-9a84-1151b0cc9281 .color-0 a:visited{stroke:#006400;fill:#006400}#chart-93173308-1de1-4bd9-9a84-1151b0cc9281 .color-1,#chart-93173308-1de1-4bd9-9a84-1151b0cc9281 .color-1 a:visited{stroke:#0022AA;fill:#0022AA}#chart-93173308-1de1-4bd9-9a84-1151b0cc9281 .color-2,#chart-93173308-1de1-4bd9-9a84-1151b0cc9281 .color-2 a:visited{stroke:#FF1111;fill:#FF1111}#chart-93173308-1de1-4bd9-9a84-1151b0cc9281 .text-overlay .color-0 text{fill:black}#chart-93173308-1de1-4bd9-9a84-1151b0cc9281 .text-overlay .color-1 text{fill:black}#chart-93173308-1de1-4bd9-9a84-1151b0cc9281 .text-overlay .color-2 text{fill:black}
#chart-93173308-1de1-4bd9-9a84-1151b0cc9281 text.no_data{text-anchor:middle}#chart-93173308-1de1-4bd9-9a84-1151b0cc9281 .guide.line{fill:none}#chart-93173308-1de1-4bd9-9a84-1151b0cc9281 .centered{text-anchor:middle}#chart-93173308-1de1-4bd9-9a84-1151b0cc9281 .title{text-anchor:middle}#chart-93173308-1de1-4bd9-9a84-1151b0cc9281 .legends .legend text{fill-opacity:1}#chart-93173308-1de1-4bd9-9a84-1151b0cc9281 .axis.x text{text-anchor:middle}#chart-93173308-1de1-4bd9-9a84-1151b0cc9281 .axis.x:not(.web) text[transform]{text-anchor:start}#chart-93173308-1de1-4bd9-9a84-1151b0cc9281 .axis.x:not(.web) text[transform].backwards{text-anchor:end}#chart-93173308-1de1-4bd9-9a84-1151b0cc9281 .axis.y text{text-anchor:end}#chart-93173308-1de1-4bd9-9a84-1151b0cc9281 .axis.y text[transform].backwards{text-anchor:start}#chart-93173308-1de1-4bd9-9a84-1151b0cc9281 .axis.y2 text{text-anchor:start}#chart-93173308-1de1-4bd9-9a84-1151b0cc9281 .axis.y2 text[transform].backwards{text-anchor:end}#chart-93173308-1de1-4bd9-9a84-1151b0cc9281 .axis .guide.line{stroke-dasharray:4,4}#chart-93173308-1de1-4bd9-9a84-1151b0cc9281 .axis .major.guide.line{stroke-dasharray:6,6}#chart-93173308-1de1-4bd9-9a84-1151b0cc9281 .horizontal .axis.y .guide.line,#chart-93173308-1de1-4bd9-9a84-1151b0cc9281 .horizontal .axis.y2 .guide.line,#chart-93173308-1de1-4bd9-9a84-1151b0cc9281 .vertical .axis.x .guide.line{opacity:0}#chart-93173308-1de1-4bd9-9a84-1151b0cc9281 .horizontal .axis.always_show .guide.line,#chart-93173308-1de1-4bd9-9a84-1151b0cc9281 .vertical .axis.always_show .guide.line{opacity:1 !important}#chart-93173308-1de1-4bd9-9a84-1151b0cc9281 .axis.y .guides:hover .guide.line,#chart-93173308-1de1-4bd9-9a84-1151b0cc9281 .axis.y2 .guides:hover .guide.line,#chart-93173308-1de1-4bd9-9a84-1151b0cc9281 .axis.x .guides:hover .guide.line{opacity:1}#chart-93173308-1de1-4bd9-9a84-1151b0cc9281 .axis .guides:hover text{opacity:1}#chart-93173308-1de1-4bd9-9a84-1151b0cc9281 .nofill{fill:none}#chart-93173308-1de1-4bd9-9a84-1151b0cc9281 .subtle-fill{fill-opacity:.2}#chart-93173308-1de1-4bd9-9a84-1151b0cc9281 .dot{stroke-width:1px;fill-opacity:1}#chart-93173308-1de1-4bd9-9a84-1151b0cc9281 .dot.active{stroke-width:5px}#chart-93173308-1de1-4bd9-9a84-1151b0cc9281 .dot.negative{fill:transparent}#chart-93173308-1de1-4bd9-9a84-1151b0cc9281 text,#chart-93173308-1de1-4bd9-9a84-1151b0cc9281 tspan{stroke:none !important}#chart-93173308-1de1-4bd9-9a84-1151b0cc9281 .series text.active{opacity:1}#chart-93173308-1de1-4bd9-9a84-1151b0cc9281 .tooltip rect{fill-opacity:.95;stroke-width:.5}#chart-93173308-1de1-4bd9-9a84-1151b0cc9281 .tooltip text{fill-opacity:1}#chart-93173308-1de1-4bd9-9a84-1151b0cc9281 .showable{visibility:hidden}#chart-93173308-1de1-4bd9-9a84-1151b0cc9281 .showable.shown{visibility:visible}#chart-93173308-1de1-4bd9-9a84-1151b0cc9281 .gauge-background{fill:rgba(229,229,229,1);stroke:none}#chart-93173308-1de1-4bd9-9a84-1151b0cc9281 .bg-lines{stroke:transparent;stroke-width:2px}</style><script type="text/javascript">window.pygal = window.pygal || {};window.pygal.config = window.pygal.config || {};window.pygal.config['93173308-1de1-4bd9-9a84-1151b0cc9281'] = {"dynamic_print_values": false, "truncate_label": null, "inner_radius": 0, "print_values": false, "xrange": null, "box_mode": "extremes", "title": null, "legend_at_bottom_columns": null, "height": 600, "legend_at_bottom": false, "show_legend": true, "show_dots": false, "explicit_size": false, "y_labels_major": null, "show_minor_x_labels": true, "width": 800, "force_uri_protocol": "https", "half_pie": false, "style": {"major_label_font_family": "Consolas, \"Liberation Mono\", Menlo, Courier, monospace", "title_font_family": "Consolas, \"Liberation Mono\", Menlo, Courier, monospace", "stroke_opacity": ".8", "legend_font_family": "Consolas, \"Liberation Mono\", Menlo, Courier, monospace", "colors": ["#006400", "#0022AA", "#FF1111", "#FFEBCD", "#DC143C", "#FFFFFF", "#6495ED", "#B0C4DE", "#D2691E", "#8B0000"], "legend_font_size": 14, "no_data_font_family": "Consolas, \"Liberation Mono\", Menlo, Courier, monospace", "major_label_font_size": 10, "value_background": "rgba(229, 229, 229, 1)", "ci_colors": [], "label_font_family": "Consolas, \"Liberation Mono\", Menlo, Courier, monospace", "label_font_size": 10, "tooltip_font_size": 14, "value_font_size": 16, "font_family": "Consolas, \"Liberation Mono\", Menlo, Courier, monospace", "opacity": ".6", "foreground": "#000000", "plot_background": "transparent", "value_label_font_size": 10, "value_label_font_family": "Consolas, \"Liberation Mono\", Menlo, Courier, monospace", "background": "transparent", "no_data_font_size": 64, "value_colors": [], "guide_stroke_dasharray": "4,4", "transition": "100ms ease-in", "foreground_subtle": "#006400d", "value_font_family": "Consolas, \"Liberation Mono\", Menlo, Courier, monospace", "tooltip_font_family": "Consolas, \"Liberation Mono\", Menlo, Courier, monospace", "title_font_size": 16, "stroke_opacity_hover": ".9", "major_guide_stroke_dasharray": "6,6", "opacity_hover": ".9", "foreground_strong": "#000000"}, "x_label_rotation": 0, "fill": false, "missing_value_fill_truncation": "x", "zero": 0, "margin_right": null, "interpolation_parameters": {}, "x_labels_major": null, "rounded_bars": null, "show_y_labels": true, "dots_size": 2.5, "show_y_guides": true, "show_minor_y_labels": true, "x_labels": null, "y_title": null, "order_min": null, "formatter": null, "disable_xml_declaration": false, "strict": false, "css": ["file://style.css", "file://graph.css"], "tooltip_fancy_mode": true, "defs": [], "show_only_major_dots": false, "y_label_rotation": 0, "show_x_labels": true, "min_scale": 4, "show_x_guides": false, "spacing": 10, "x_labels_major_count": null, "pretty_print": false, "tooltip_border_radius": 0, "interpolate": null, "js": ["//kozea.github.io/pygal.js/2.0.x/pygal-tooltips.min.js"], "y_labels": null, "stroke_style": null, "print_labels": false, "interpolation_precision": 250, "x_title": "pure_2000kbps", "y_labels_major_every": null, "logarithmic": false, "legends": ["qdelay", "txed(kbps)", "topo(kbps)"], "max_scale": 16, "print_zeroes": true, "no_data_text": "No data", "truncate_legend": null, "x_labels_major_every": null, "secondary_range": null, "legend_box_size": 12, "no_prefix": false, "stroke": true, "stack_from_top": false, "include_x_axis": false, "range": [0, 2400], "classes": ["pygal-chart"], "margin_top": null, "margin_left": null, "y_labels_major_count": null, "margin_bottom": null, "inverse_y_axis": false, "margin": 20, "allow_interruptions": false, "print_values_position": "center"}</script><script type="text/javascript" xlink:href="https://kozea.github.io/pygal.js/2.0.x/pygal-tooltips.min.js" /></defs><title>Pygal</title><g class="graph xy-graph vertical"><rect class="background" height="600" width="800" x="0" y="0" /><g class="plot" transform="translate(160, 20)"><rect class="background" height="514" width="620.0" x="0" y="0" /><g class="axis y always_show"><g class="guides"><path class="axis major line" d="M0.000000 504.115385 h620.000000" /><text class="major" x="-5" y="507.615384615">0</text><title>0</title></g><g class="guides"><path class="guide line" d="M0.000000 462.929487 h620.000000" /><text class="" x="-5" y="466.429487179">200</text><title>200</title></g><g class="guides"><path class="guide line" d="M0.000000 421.743590 h620.000000" /><text class="" x="-5" y="425.243589744">400</text><title>400</title></g><g class="guides"><path class="guide line" d="M0.000000 380.557692 h620.000000" /><text class="" x="-5" y="384.057692308">600</text><title>600</title></g><g class="guides"><path class="guide line" d="M0.000000 339.371795 h620.000000" /><text class="" x="-5" y="342.871794872">800</text><title>800</title></g><g class="guides"><path class="major guide line" d="M0.000000 298.185897 h620.000000" /><text class="major" x="-5" y="301.685897436">1000</text><title>1000</title></g><g class="guides"><path class="guide line" d="M0.000000 257.000000 h620.000000" /><text class="" x="-5" y="260.5">1200</text><title>1200</title></g><g class="guides"><path class="guide line" d="M0.000000 215.814103 h620.000000" /><text class="" x="-5" y="219.314102564">1400</text><title>1400</title></g><g class="guides"><path class="guide line" d="M0.000000 174.628205 h620.000000" /><text class="" x="-5" y="178.128205128">1600</text><title>1600</title></g><g class="guides"><path class="guide line" d="M0.000000 133.442308 h620.000000" /><text class="" x="-5" y="136.942307692">1800</text><title>1800</title></g><g class="guides"><path class="major guide line" d="M0.000000 92.256410 h620.000000" /><text class="major" x="-5" y="95.7564102564">2000</text><title>2000</title></g><g class="guides"><path class="guide line" d="M0.000000 51.070513 h620.000000" /><text class="" x="-5" y="54.5705128205">2200</text><title>2200</title></g><g class="guides"><path class="guide line" d="M0.000000 9.884615 h620.000000" /><text class="" x="-5" y="13.3846153846">2400</text><title>2400</title></g></g><g class="axis x"><path class="line" d="M0.000000 0.000000 v514.000000" /><g class="guides"><path class="guide line" d="M60.248248 0.000000 v514.000000" /><text class="" x="60.2482477839" y="529.0">10</text><title>10</title></g><g class="guides"><path class="guide line" d="M110.052213 0.000000 v514.000000" /><text class="" x="110.052212919" y="529.0">20</text><title>20</title></g><g class="guides"><path class="guide line" d="M159.856178 0.000000 v514.000000" /><text class="" x="159.856178053" y="529.0">30</text><title>30</title></g><g class="guides"><path class="guide line" d="M209.660143 0.000000 v514.000000" /><text class="" x="209.660143188" y="529.0">40</text><title>40</title></g><g class="guides"><path class="guide line" d="M259.464108 0.000000 v514.000000" /><text class="" x="259.464108323" y="529.0">50</text><title>50</title></g><g class="guides"><path class="guide line" d="M309.268073 0.000000 v514.000000" /><text class="" x="309.268073458" y="529.0">60</text><title>60</title></g><g class="guides"><path class="guide line" d="M359.072039 0.000000 v514.000000" /><text class="" x="359.072038593" y="529.0">70</text><title>70</title></g><g class="guides"><path class="guide line" d="M408.876004 0.000000 v514.000000" /><text class="" x="408.876003727" y="529.0">80</text><title>80</title></g><g class="guides"><path class="guide line" d="M458.679969 0.000000 v514.000000" /><text class="" x="458.679968862" y="529.0">90</text><title>90</title></g><g class="guides"><path class="guide line" d="M508.483934 0.000000 v514.000000" /><text class="" x="508.483933997" y="529.0">100</text><title>100</title></g><g class="guides"><path class="guide line" d="M558.287899 0.000000 v514.000000" /><text class="" x="558.287899132" y="529.0">110</text><title>110</title></g></g><g class="series serie-0 color-0"><path class="line reactive nofill" d="M11.923077 504.115385 L12.420957 503.909455 12.918917 503.909455 13.417037 503.703526 13.915076 504.115385 14.413036 503.703526 14.911155 503.497596 15.409115 503.703526 15.907230 503.703526 16.405170 503.497596 16.903409 504.115385 17.401249 503.703526 17.899388 504.115385 18.397328 503.909455 18.895468 503.703526 19.393507 503.703526 19.891447 503.703526 20.389587 503.703526 20.887626 503.497596 21.385666 504.115385 21.883606 503.703526 22.381745 503.909455 22.879785 504.115385 23.377825 504.115385 23.875864 503.703526 24.373804 503.497596 24.871944 503.909455 25.369983 503.497596 25.867923 503.703526 26.366062 503.909455 26.864102 504.115385 27.362042 503.703526 27.860181 503.703526 28.358221 504.115385 28.856261 503.291667 29.354201 503.291667 29.852340 503.703526 30.350380 503.291667 30.848419 503.909455 31.346359 503.497596 31.844748 503.909455 32.342638 503.909455 32.840678 503.497596 33.338717 503.909455 33.836757 503.909455 34.334796 503.291667 34.832886 503.909455 35.331025 503.703526 35.828915 503.703526 36.326855 503.497596 36.825045 503.909455 37.323034 503.703526 37.821074 503.909455 38.319114 503.497596 38.817153 503.497596 39.315243 503.703526 39.813282 503.909455 40.311173 503.291667 40.809312 503.909455 41.307352 503.497596 41.805391 503.703526 42.303431 503.497596 42.801471 503.703526 43.299510 503.497596 43.797550 503.703526 44.295639 503.703526 44.793629 503.909455 45.291719 503.909455 45.789858 503.703526 46.287898 503.909455 46.785788 503.909455 47.283877 503.909455 47.781917 503.703526 48.279957 503.909455 48.778096 503.909455 49.276036 503.909455 49.774075 503.909455 50.272115 503.909455 50.770155 503.909455 51.268145 504.115385 51.766184 503.703526 52.264274 503.909455 52.762313 503.909455 53.260453 503.497596 53.758393 503.703526 54.256532 503.497596 54.754572 503.909455 55.252611 503.703526 55.750551 503.909455 56.248591 503.909455 56.746581 503.291667 57.244620 503.703526 57.742660 503.909455 58.240750 503.703526 58.738789 503.909455 59.236928 503.909455 59.734869 503.703526 60.232908 504.115385 60.730848 503.497596 61.228888 503.703526 61.726928 503.703526 62.224967 503.497596 62.723007 503.497596 63.221545 503.703526 63.719584 503.703526 64.217126 503.909455 64.715165 503.703526 65.213205 504.115385 65.711245 503.291667 66.209284 503.703526 66.707324 503.291667 67.205862 503.909455 67.703901 503.703526 68.201443 504.115385 68.699483 503.909455 69.198020 503.909455 69.695562 503.703526 70.194100 503.909455 70.692139 503.497596 71.189681 503.909455 71.688219 503.909455 72.186258 503.909455 72.683800 503.703526 73.182338 503.497596 73.679879 503.909455 74.177919 503.909455 74.675958 503.909455 75.174496 503.909455 75.672038 503.497596 76.170575 503.703526 76.668615 503.497596 77.166157 503.703526 77.664694 503.703526 78.162734 503.909455 78.660276 503.497596 79.158315 503.703526 79.656355 503.909455 80.154893 503.909455 80.652434 503.909455 81.150474 503.909455 81.648514 503.703526 82.146553 503.909455 82.645091 503.703526 83.142633 504.115385 83.640672 503.909455 84.138712 503.703526 84.636751 503.291667 85.135289 503.909455 85.633329 503.703526 86.131368 503.909455 86.628910 503.703526 87.127448 503.909455 87.625487 503.909455 88.123527 504.115385 88.621567 503.703526 89.119606 503.909455 89.617646 503.703526 90.115686 503.703526 90.613725 503.909455 91.111765 503.703526 91.609805 503.909455 92.107844 503.703526 92.605884 503.291667 93.103426 503.909455 93.601465 504.115385 94.099505 503.497596 94.598043 503.703526 95.096082 504.115385 95.594122 503.703526 96.092161 503.909455 96.590201 503.703526 97.088241 503.497596 97.586280 503.909455 98.084320 504.115385 98.581862 503.703526 99.080399 503.497596 99.578439 503.909455 100.076479 503.497596 100.574518 503.703526 101.072060 503.909455 101.570598 503.909455 102.068139 503.909455 102.566677 503.909455 103.064717 504.115385 103.562756 503.497596 104.060796 504.115385 104.558836 504.115385 105.056875 503.703526 105.554915 503.497596 106.052955 503.497596 106.550994 503.909455 107.049034 503.703526 107.547073 503.909455 108.045113 503.909455 108.543153 503.291667 109.041192 503.909455 109.539232 503.703526 110.037272 503.909455 110.534813 503.703526 111.033351 503.497596 111.531391 503.703526 112.029430 503.909455 112.527470 503.703526 113.025510 503.703526 113.523549 503.909455 114.021589 503.909455 114.519131 503.291667 115.017668 503.703526 115.515708 503.703526 116.013748 503.703526 116.511787 503.909455 117.009329 503.909455 117.507866 503.703526 118.005906 503.703526 118.503946 503.497596 119.001985 503.909455 119.500025 503.909455 119.998065 503.703526 120.495606 503.703526 120.994144 503.703526 121.492184 504.115385 121.990223 503.909455 122.488263 503.703526 122.986303 503.703526 123.483844 503.291667 123.982382 503.909455 124.480422 503.909455 124.978461 504.115385 125.476501 503.497596 125.974541 503.909455 126.472580 503.909455 126.970620 503.703526 127.468660 504.115385 127.966699 503.909455 128.464739 503.909455 128.962778 503.497596 129.460818 503.497596 129.958858 503.291667 130.456897 503.497596 130.954937 504.115385 131.452479 503.497596 131.951016 504.115385 132.449056 503.909455 132.947096 504.115385 133.445135 503.909455 133.943175 503.909455 134.441215 503.703526 134.939254 503.909455 135.437294 503.909455 135.935334 503.909455 136.433373 503.497596 136.931413 503.909455 137.429453 503.909455 137.927492 503.703526 138.426030 503.703526 138.923572 503.497596 139.421611 503.291667 139.920149 502.673878 140.417690 503.703526 140.915730 504.115385 141.413770 503.909455 141.911809 503.909455 142.409849 503.291667 142.907889 504.115385 143.405928 503.703526 143.903968 504.115385 144.402008 504.115385 144.900047 503.497596 145.398087 503.497596 145.896625 502.262019 146.394664 498.555288 146.892704 503.909455 147.390246 503.909455 147.888285 503.703526 148.386823 503.085737 148.884365 503.909455 149.382404 503.909455 149.880444 504.115385 150.378483 503.291667 150.876523 503.703526 151.374563 503.291667 151.872602 503.909455 152.371140 503.909455 152.869180 503.291667 153.366721 503.909455 153.864761 503.497596 154.362801 503.703526 154.860840 503.909455 155.358880 503.703526 155.856920 503.909455 156.354959 503.909455 156.852999 503.703526 157.351039 503.909455 157.849078 503.703526 158.347118 503.497596 158.845158 503.909455 159.343695 503.291667 159.841237 503.909455 160.339775 501.644231 160.837316 503.497596 161.335356 503.909455 161.833395 503.291667 162.331435 503.703526 162.829475 503.703526 163.327514 503.497596 163.825554 503.909455 164.323594 503.909455 164.821633 503.497596 165.319673 503.703526 165.818211 503.085737 166.316250 503.291667 166.813792 503.909455 167.311334 503.703526 167.809871 503.497596 168.308409 503.291667 168.805951 503.909455 169.303990 503.909455 169.802528 503.291667 170.300070 503.497596 170.798109 503.909455 171.296149 503.703526 171.794188 503.703526 172.292228 503.909455 172.790268 503.703526 173.288307 503.909455 173.786347 503.703526 174.284885 503.703526 174.782924 503.291667 175.280466 503.497596 175.778506 503.909455 176.276545 503.703526 176.774585 503.909455 177.273123 503.909455 177.770664 503.497596 178.269202 503.497596 178.766744 503.703526 179.265281 503.909455 179.763321 503.909455 180.260863 503.497596 180.758902 503.291667 181.257440 501.850160 181.755480 503.497596 182.253021 503.497596 182.751061 503.909455 183.249599 503.497596 183.747140 503.703526 184.245678 503.703526 184.743219 503.909455 185.241259 503.909455 185.739299 503.703526 186.237338 503.703526 186.735378 504.115385 187.233418 503.291667 187.730959 503.497596 188.229497 503.703526 188.728035 501.850160 189.226074 500.408654 189.724114 503.703526 190.221656 503.909455 190.719695 503.703526 191.218233 503.703526 191.715775 503.703526 192.213814 503.703526 192.711854 503.291667 193.209894 503.291667 193.707933 503.703526 194.205973 503.497596 194.704012 503.497596 195.202052 503.703526 195.700590 503.497596 196.198131 503.909455 196.696171 503.909455 197.194211 503.909455 197.692250 503.291667 198.190788 501.438301 198.688330 503.497596 199.186369 503.703526 199.684409 503.909455 200.182449 503.703526 200.680488 503.703526 201.178528 503.497596 201.676568 503.497596 202.174607 503.703526 202.673145 504.115385 203.171185 503.497596 203.668726 504.115385 204.166766 503.909455 204.664805 503.497596 205.162845 503.703526 205.660885 503.909455 206.159422 502.879808 206.656964 503.497596 207.155004 503.291667 207.653043 503.703526 208.151083 503.909455 208.649621 504.115385 209.147162 503.291667 209.645202 503.497596 210.143740 503.497596 210.641779 503.497596 211.139321 503.497596 211.637361 503.703526 212.135400 503.909455 212.633938 503.497596 213.131978 503.497596 213.629519 504.115385 214.127559 503.703526 214.626097 503.909455 215.123638 503.703526 215.621678 503.703526 216.119717 503.291667 216.617757 503.703526 217.116295 502.879808 217.613836 503.909455 218.111876 503.909455 218.609916 503.703526 219.107955 503.909455 219.606493 503.291667 220.104533 502.467949 220.602572 503.703526 221.100114 503.909455 221.598154 504.115385 222.096193 503.703526 222.594233 503.703526 223.092273 503.703526 223.590312 503.909455 224.088850 501.438301 224.586890 500.614583 225.084929 503.497596 225.582471 503.291667 226.080510 504.115385 226.578550 503.909455 227.076590 503.703526 227.574629 503.291667 228.072669 503.497596 228.570709 503.909455 229.068748 503.703526 229.566788 503.703526 230.064828 503.909455 230.562867 503.291667 231.061405 503.291667 231.558947 503.909455 232.056986 503.703526 232.555026 503.909455 233.053066 503.291667 233.551105 503.703526 234.049145 503.909455 234.547185 503.291667 235.045224 503.909455 235.543762 503.291667 236.041304 503.909455 236.539841 503.909455 237.037383 503.909455 237.535422 503.909455 238.033462 503.291667 238.531502 503.291667 239.029541 503.909455 239.527581 503.703526 240.025621 503.703526 240.523660 503.703526 241.021700 503.703526 241.519740 503.497596 242.017779 503.703526 242.515819 503.909455 243.014357 502.056090 243.512396 503.497596 244.009938 503.909455 244.507978 503.909455 245.006017 504.115385 245.504057 504.115385 246.002097 503.497596 246.500136 503.909455 246.998176 503.291667 247.496714 503.497596 247.994255 503.909455 248.492295 503.909455 248.990334 503.497596 249.488872 503.291667 249.986414 503.497596 250.484453 503.909455 250.982493 503.703526 251.480533 503.291667 251.979070 503.085737 252.476612 503.909455 252.974652 503.909455 253.473189 503.497596 253.970731 503.291667 254.468771 503.703526 254.966810 503.909455 255.464850 503.703526 255.962890 503.909455 256.460929 503.703526 256.958969 503.703526 257.457507 503.703526 257.955048 503.909455 258.453088 503.291667 258.951127 503.703526 259.449665 503.085737 259.947207 503.909455 260.445246 504.115385 260.943286 503.497596 261.441326 503.703526 261.939365 503.909455 262.437405 503.703526 262.935445 503.909455 263.433484 503.909455 263.931524 503.703526 264.429564 503.703526 264.927603 503.703526 265.426141 502.262019 265.923683 503.909455 266.421722 503.291667 266.919762 503.703526 267.418300 503.497596 267.916339 502.262019 268.413881 503.291667 268.912419 503.291667 269.410458 501.232372 269.908000 503.909455 270.406039 503.703526 270.904079 503.497596 271.402119 503.291667 271.900656 503.497596 272.398198 503.909455 272.896238 503.909455 273.394277 503.909455 273.892815 503.291667 274.390357 503.291667 274.888396 503.909455 275.386436 503.497596 275.884476 503.497596 276.383013 503.291667 276.880555 503.497596 277.378595 503.497596 277.877132 503.909455 278.374674 503.909455 278.872714 503.909455 279.371251 502.262019 279.868793 503.703526 280.367331 503.497596 280.865370 503.497596 281.362912 503.909455 281.860951 503.909455 282.359489 503.497596 282.857031 503.497596 283.355070 503.909455 283.853110 504.115385 284.351648 503.291667 284.849189 503.497596 285.347229 503.909455 285.845767 503.497596 286.343806 503.291667 286.841846 503.703526 287.339388 503.497596 287.837925 504.115385 288.335467 503.291667 288.833507 503.909455 289.332044 503.291667 289.830084 503.909455 290.327626 503.497596 290.826163 503.909455 291.323705 503.497596 291.822243 503.085737 292.319784 503.703526 292.817824 503.497596 293.315863 503.291667 293.813903 503.291667 294.311943 504.115385 294.809982 503.703526 295.308520 503.291667 295.806062 503.497596 296.304101 503.909455 296.802639 503.703526 297.300679 503.909455 297.798220 504.115385 298.296260 503.497596 298.794300 503.909455 299.292339 503.909455 299.790379 503.703526 300.288419 503.291667 300.786458 503.703526 301.284498 503.909455 301.783036 503.291667 302.280577 503.909455 302.778617 503.909455 303.276656 504.115385 303.774696 503.703526 304.272736 503.703526 304.770775 503.703526 305.268815 503.497596 305.766855 503.497596 306.264894 503.291667 306.762934 503.703526 307.261472 503.909455 307.759013 503.497596 308.257551 503.497596 308.755093 503.909455 309.253132 503.703526 309.751172 503.703526 310.249212 503.703526 310.747749 503.291667 311.245291 503.703526 311.743829 503.291667 312.241868 501.438301 312.739410 503.291667 313.237449 504.115385 313.735489 503.703526 314.233529 503.909455 314.732066 501.232372 315.229608 503.291667 315.727648 503.703526 316.225687 503.497596 316.723727 503.497596 317.221767 504.115385 317.719806 503.909455 318.217846 503.497596 318.715886 503.909455 319.213925 503.909455 319.711965 503.703526 320.210005 503.291667 320.708044 503.703526 321.206084 503.703526 321.704124 503.703526 322.202163 503.703526 322.700203 503.703526 323.198243 503.703526 323.696282 503.291667 324.194322 503.909455 324.692859 503.291667 325.190401 503.909455 325.688441 503.703526 326.186480 503.497596 326.684520 503.909455 327.182560 503.909455 327.680599 503.703526 328.178639 503.291667 328.676679 503.703526 329.174718 503.909455 329.672758 504.115385 330.170798 503.497596 330.668837 503.909455 331.166877 503.703526 331.665415 503.703526 332.162956 503.909455 332.660996 503.703526 333.159534 503.909455 333.657573 503.291667 334.155115 503.909455 334.653154 503.703526 335.151194 503.291667 335.649234 503.909455 336.147273 503.909455 336.645811 503.085737 337.143353 503.703526 337.641392 503.703526 338.139432 503.703526 338.637472 503.703526 339.135511 503.497596 339.633551 503.703526 340.131591 503.497596 340.629630 503.291667 341.127670 503.909455 341.625710 503.909455 342.123749 503.497596 342.621789 503.909455 343.119829 503.703526 343.617868 503.703526 344.115908 503.703526 344.613948 503.291667 345.111987 503.497596 345.610027 503.909455 346.108066 503.909455 346.606106 503.703526 347.104146 503.909455 347.602185 503.703526 348.100225 503.703526 348.598265 503.703526 349.096304 503.703526 349.594344 503.497596 350.092384 503.909455 350.590423 503.291667 351.088463 504.115385 351.586503 504.115385 352.084542 503.909455 352.582582 503.703526 353.081120 503.497596 353.578661 503.909455 354.076701 503.497596 354.574741 503.703526 355.072780 503.909455 355.570820 503.497596 356.068859 504.115385 356.566899 503.291667 357.065437 503.291667 357.562978 503.703526 358.061018 503.909455 358.559058 503.497596 359.057097 503.909455 359.555137 503.703526 360.053675 502.262019 360.551216 503.703526 361.049256 503.909455 361.547296 503.291667 362.045335 503.703526 362.543375 503.909455 363.041913 503.703526 363.539454 503.909455 364.037494 503.703526 364.535534 503.497596 365.033573 503.909455 365.531613 504.115385 366.029653 503.703526 366.527692 503.497596 367.025732 503.703526 367.523771 503.703526 368.021811 504.115385 368.519851 503.909455 369.018388 503.703526 369.515930 503.497596 370.013970 503.703526 370.512507 503.703526 371.010049 503.909455 371.508089 503.497596 372.006128 503.291667 372.504666 499.790865 373.002208 503.909455 373.500247 503.909455 373.998287 503.703526 374.496327 503.497596 374.994366 503.909455 375.492904 503.291667 375.990446 503.703526 376.488983 503.497596 376.986525 503.703526 377.484565 503.909455 377.982604 503.909455 378.480644 503.909455 378.978683 503.909455 379.476723 503.703526 379.974763 503.497596 380.472802 503.703526 380.970842 503.703526 381.468882 503.703526 381.966921 503.497596 382.465459 502.467949 382.963499 503.497596 383.461040 503.909455 383.959080 503.291667 384.457120 503.291667 384.955159 503.909455 385.453199 503.703526 385.951737 503.703526 386.449278 503.497596 386.947318 503.497596 387.445856 503.291667 387.943397 503.909455 388.441935 503.291667 388.939476 503.703526 389.437516 503.703526 389.935556 503.497596 390.434093 503.291667 390.931635 503.703526 391.429675 503.497596 391.928212 503.497596 392.425754 503.909455 392.923794 503.703526 393.422331 503.703526 393.920371 503.291667 394.417913 503.703526 394.915952 503.497596 395.413992 503.909455 395.912032 504.115385 396.410071 503.909455 396.908111 503.703526 397.406649 503.703526 397.904190 503.703526 398.402230 503.497596 398.900270 503.497596 399.398309 503.909455 399.896847 503.291667 400.394388 503.703526 400.892428 503.909455 401.390468 503.703526 401.888507 503.497596 402.386547 503.703526 402.884587 503.909455 403.382626 503.703526 403.880666 504.115385 404.378706 503.909455 404.876745 504.115385 405.374785 503.909455 405.872825 503.703526 406.370864 503.909455 406.869402 503.703526 407.366944 503.909455 407.864983 503.909455 408.363521 503.703526 408.861063 503.497596 409.359102 503.703526 409.857142 503.703526 410.355181 503.497596 410.853719 503.909455 411.351759 503.703526 411.849300 503.497596 412.347340 503.909455 412.845380 503.909455 413.343419 504.115385 413.841459 503.909455 414.339997 503.909455 414.838036 502.673878 415.335578 503.291667 415.833618 503.291667 416.331657 503.703526 416.829697 503.909455 417.328235 503.909455 417.825776 503.703526 418.323816 503.703526 418.821856 504.115385 419.319895 503.497596 419.818433 503.909455 420.315975 503.703526 420.814512 503.703526 421.312054 503.909455 421.810093 503.703526 422.308133 503.909455 422.806173 503.497596 423.304212 503.703526 423.802252 503.703526 424.300292 503.291667 424.798331 504.115385 425.296371 503.703526 425.794411 503.703526 426.292450 503.703526 426.790490 503.497596 427.288530 503.909455 427.787067 502.673878 428.284609 503.291667 428.782649 503.703526 429.280688 503.703526 429.778728 504.115385 430.276768 503.703526 430.774807 503.909455 431.272847 503.497596 431.770886 503.909455 432.268926 503.291667 432.766966 503.703526 433.265005 503.909455 433.763045 503.703526 434.261085 503.497596 434.759124 503.909455 435.257164 503.909455 435.755204 503.909455 436.253243 503.291667 436.751283 503.909455 437.249323 503.909455 437.747362 503.497596 438.245402 503.909455 438.743940 503.291667 439.241481 503.497596 439.739521 503.497596 440.237561 503.909455 440.735600 503.909455 441.233640 503.909455 441.731680 503.497596 442.229719 503.497596 442.727759 503.909455 443.225798 503.703526 443.724336 503.703526 444.221878 503.291667 444.719917 503.909455 445.217957 503.703526 445.715997 504.115385 446.214036 503.703526 446.712076 503.703526 447.210116 503.497596 447.708155 503.909455 448.206195 503.497596 448.704235 503.497596 449.202274 503.703526 449.700314 503.291667 450.198354 503.909455 450.696393 503.909455 451.194433 503.703526 451.692473 503.909455 452.190512 503.497596 452.688552 504.115385 453.186592 503.909455 453.684631 503.703526 454.182671 503.909455 454.681209 503.703526 455.179248 503.291667 455.676790 503.291667 456.174829 503.909455 456.672869 503.703526 457.170909 503.909455 457.669446 503.703526 458.166988 504.115385 458.665028 503.703526 459.163067 503.909455 459.661605 502.879808 460.159645 503.909455 460.657186 503.497596 461.155226 503.909455 461.653764 503.703526 462.151803 503.703526 462.649345 503.703526 463.147385 503.909455 463.645424 503.909455 464.143464 503.703526 464.641503 503.909455 465.139543 503.497596 465.637583 503.703526 466.135622 503.909455 466.633662 503.909455 467.131702 503.909455 467.629741 503.703526 468.127781 503.497596 468.625821 503.291667 469.124358 500.202724 469.622398 503.291667 470.119940 503.909455 470.618477 503.291667 471.116517 500.614583 471.614059 503.497596 472.112098 503.497596 472.610138 503.497596 473.108178 503.703526 473.606217 503.703526 474.104755 503.291667 474.602297 503.497596 475.100336 503.909455 475.598376 503.291667 476.096415 503.703526 476.594455 503.909455 477.092495 503.909455 477.590534 503.703526 478.088574 503.909455 478.586614 503.909455 479.084653 503.909455 479.582693 503.291667 480.080733 503.703526 480.579270 503.497596 481.077310 503.085737 481.574852 503.291667 482.072891 503.703526 482.571429 503.085737 483.069469 503.291667 483.567010 503.909455 484.065050 503.703526 484.563090 503.909455 485.061129 503.909455 485.559169 503.909455 486.057208 503.703526 486.555248 503.909455 487.053288 503.497596 487.551327 503.703526 488.049367 503.703526 488.547407 503.291667 489.045446 503.909455 489.543486 503.703526 490.042024 503.703526 490.539565 503.497596 491.037605 503.909455 491.535645 503.703526 492.033684 503.909455 492.531724 503.497596 493.029764 503.497596 493.527803 503.909455 494.026341 503.909455 494.523883 503.291667 495.021922 503.703526 495.520460 503.497596 496.018002 503.703526 496.516041 503.497596 497.014579 503.703526 497.512120 503.909455 498.010160 503.703526 498.508200 503.497596 499.006239 503.703526 499.504777 502.879808 500.002817 502.467949 500.500358 503.497596 500.998398 503.703526 501.496438 503.703526 501.994477 503.497596 502.492517 503.909455 502.990557 503.703526 503.489094 503.909455 503.986636 503.291667 504.484676 504.115385 504.982715 503.497596 505.480755 503.703526 505.978795 503.703526 506.476834 503.497596 506.974874 503.703526 507.472914 503.703526 507.970953 503.703526 508.469491 503.909455 508.967032 503.703526 509.465072 503.909455 509.963112 503.909455 510.461151 503.497596 510.959191 503.909455 511.457231 503.291667 511.955270 503.703526 512.453310 503.909455 512.951350 503.497596 513.449389 503.291667 513.947429 503.909455 514.445469 500.408654 514.943508 503.497596 515.441548 503.497596 515.939588 503.703526 516.437627 503.703526 516.935667 503.497596 517.433707 503.703526 517.931746 503.291667 518.429786 503.703526 518.927825 503.703526 519.425865 503.909455 519.923905 503.909455 520.421944 503.909455 520.919984 503.909455 521.418024 503.909455 521.916063 504.115385 522.414103 503.497596 522.912143 503.909455 523.410182 503.497596 523.908222 503.291667 524.406262 503.497596 524.904301 503.291667 525.402341 504.115385 525.900381 503.703526 526.398420 503.909455 526.896460 503.703526 527.394500 503.497596 527.892539 503.497596 528.390579 504.115385 528.888619 503.497596 529.386658 503.909455 529.884698 503.909455 530.382737 503.909455 530.880777 503.703526 531.378817 503.703526 531.876856 503.703526 532.374896 502.262019 532.872936 503.497596 533.370975 503.909455 533.869015 503.703526 534.367055 503.909455 534.865094 503.497596 535.363134 503.703526 535.861174 503.703526 536.359213 503.703526 536.857253 503.909455 537.355293 503.497596 537.853332 503.703526 538.351372 503.909455 538.849412 503.909455 539.347451 503.909455 539.845491 503.703526 540.343530 503.909455 540.841570 503.909455 541.339610 503.291667 541.837649 503.703526 542.335689 503.703526 542.833729 503.909455 543.331768 503.703526 543.829808 503.703526 544.327848 502.056090 544.825887 503.291667 545.323927 503.909455 545.821967 503.497596 546.320006 503.703526 546.818046 502.673878 547.316086 503.703526 547.814125 503.703526 548.312165 503.291667 548.810205 503.497596 549.308244 503.703526 549.806284 503.703526 550.304324 503.291667 550.802363 503.291667 551.300403 503.497596 551.798442 503.497596 552.296482 504.115385 552.794522 503.291667 553.292561 503.497596 553.790601 503.703526 554.288641 503.703526 554.786680 500.614583 555.284720 503.703526 555.782760 503.497596 556.280799 503.703526 556.778839 502.879808 557.276879 500.614583 557.774918 503.909455 558.272958 503.497596 558.770998 504.115385 559.269037 503.703526 559.767077 503.909455 560.265117 503.703526 560.763156 503.497596 561.261196 503.909455 561.759236 503.291667 562.257275 503.703526 562.755315 503.909455 563.253354 503.497596 563.751394 503.497596 564.249434 503.291667 564.747473 503.703526 565.245513 503.703526 565.743553 503.497596 566.241592 503.497596 566.739632 503.703526 567.237672 503.497596 567.735711 503.909455 568.233751 503.703526 568.731791 503.703526 569.229830 503.497596 569.727870 503.497596 570.225910 503.497596 570.723949 503.909455 571.221989 503.703526 571.720029 503.497596 572.218068 503.703526 572.716108 503.703526 573.214147 503.909455 573.712187 503.497596 574.210227 503.909455 574.708266 503.497596 575.206306 503.703526 575.704346 503.909455 576.202385 503.703526 576.700425 503.497596 577.198465 504.115385 577.696504 503.703526 578.194544 503.909455 578.692584 503.909455 579.190623 503.909455 579.688663 503.497596 580.186703 503.291667 580.684742 503.909455 581.182782 503.703526 581.680822 503.909455 582.178861 503.703526 582.676901 503.703526 583.174941 503.291667 583.672980 503.497596 584.171020 503.909455 584.669059 503.703526 585.167099 503.497596 585.665139 503.497596 586.163178 503.497596 586.661218 503.085737 587.159258 503.291667 587.657297 503.497596 588.155337 503.909455 588.653377 503.703526 589.151416 503.703526 589.649456 503.909455 590.147496 503.703526 590.645535 503.909455 591.143575 503.497596 591.641615 504.115385 592.139654 503.909455 592.637694 503.909455 593.135734 503.497596 593.633773 503.497596 594.131813 503.703526 594.629852 503.703526 595.127892 503.703526 595.625932 503.703526 596.123971 503.497596 596.622011 503.703526 597.120051 503.909455 597.618090 503.909455 598.116130 503.909455 598.614170 503.291667 599.112209 503.497596 599.610249 503.497596 600.108289 503.703526 600.606328 503.497596 601.104368 503.291667 601.602408 503.497596 602.100447 503.703526 602.598487 503.909455 603.096527 503.497596 603.594566 503.291667 604.092606 503.703526 604.590646 503.909455 605.088685 503.291667 605.586725 503.497596 606.084764 503.909455 606.582804 503.909455 607.080844 503.703526 607.578883 503.703526 608.076923 503.497596" /></g><g class="series serie-1 color-1"><path class="line reactive nofill" d="M11.923077 422.979167 L12.420957 485.375801 12.918917 494.024840 13.417037 471.784455 13.915076 471.166667 14.413036 479.403846 14.911155 466.018429 15.409115 478.786058 15.907230 463.341346 16.405170 475.285256 16.903409 442.542468 17.401249 479.403846 17.899388 457.575321 18.397328 467.048077 18.895468 463.135417 19.393507 466.430288 19.891447 479.197917 20.389587 467.459936 20.887626 459.016827 21.385666 474.667468 21.883606 478.168269 22.381745 483.316506 22.879785 458.193109 23.377825 479.403846 23.875864 461.899840 24.373804 473.637821 24.871944 475.903045 25.369983 466.018429 25.867923 478.374199 26.366062 469.931090 26.864102 471.372596 27.362042 482.080929 27.860181 464.988782 28.358221 458.810897 28.856261 460.458333 29.354201 474.667468 29.852340 468.077724 30.350380 457.575321 30.848419 465.400641 31.346359 477.756410 31.844748 382.411058 32.342638 424.626603 32.840678 417.625000 33.338717 442.542468 33.836757 429.568910 34.334796 423.802885 34.832886 427.715545 35.331025 360.376603 35.828915 433.275641 36.326855 445.837340 36.825045 416.389423 37.323034 423.596955 37.821074 423.802885 38.319114 424.420673 38.817153 431.834135 39.315243 396.620192 39.813282 413.506410 40.311173 441.718750 40.809312 445.631410 41.307352 417.007212 41.805391 439.865385 42.303431 431.628205 42.801471 440.071314 43.299510 441.306891 43.797550 424.214744 44.295639 387.765224 44.793629 423.185096 45.291719 417.007212 45.789858 374.585737 46.287898 385.911859 46.785788 435.952724 47.283877 410.829327 47.781917 408.564103 48.279957 389.206731 48.778096 385.294071 49.276036 385.500000 49.774075 417.830929 50.272115 418.242788 50.770155 413.918269 51.268145 424.420673 51.766184 438.217949 52.264274 421.537660 52.762313 414.124199 53.260453 376.850962 53.758393 406.916667 54.256532 364.907051 54.754572 389.206731 55.252611 367.995994 55.750551 391.883814 56.248591 412.888622 56.746581 429.157051 57.244620 440.071314 57.742660 440.277244 58.240750 391.471955 58.738789 428.745192 59.236928 383.234776 59.734869 390.648237 60.232908 402.798077 60.730848 428.333333 61.228888 378.910256 61.726928 390.854167 62.224967 400.944712 62.723007 403.415865 63.221545 348.020833 63.719584 330.928686 64.217126 376.027244 64.715165 383.440705 65.213205 382.822917 65.711245 391.060096 66.209284 388.177083 66.707324 391.883814 67.205862 334.635417 67.703901 328.663462 68.201443 388.383013 68.699483 360.376603 69.198020 355.022436 69.695562 394.560897 70.194100 328.251603 70.692139 335.459135 71.189681 363.259615 71.688219 318.572917 72.186258 351.521635 72.683800 355.846154 73.182338 330.722756 73.679879 397.649840 74.177919 388.177083 74.675958 362.229968 75.174496 360.788462 75.672038 385.088141 76.170575 350.080128 76.668615 348.020833 77.166157 343.490385 77.664694 346.785256 78.162734 344.314103 78.660276 370.879006 79.158315 375.615385 79.656355 384.676282 80.154893 343.284455 80.652434 365.524840 81.150474 363.671474 81.648514 357.493590 82.146553 363.671474 82.645091 336.282853 83.142633 375.615385 83.640672 370.261218 84.138712 408.564103 84.636751 359.346955 85.135289 312.600962 85.633329 324.544872 86.131368 341.225160 86.628910 362.847756 87.127448 349.462340 87.625487 330.104968 88.123527 322.485577 88.621567 331.546474 89.119606 272.444712 89.617646 313.424679 90.115686 343.078526 90.613725 322.073718 91.111765 289.330929 91.609805 335.665064 92.107844 324.750801 92.605884 331.752404 93.103426 358.523237 93.601465 355.846154 94.099505 353.580929 94.598043 338.548077 95.096082 364.701122 95.594122 306.011218 96.092161 321.044071 96.590201 322.485577 97.088241 310.541667 97.586280 345.755609 98.084320 296.126603 98.581862 352.551282 99.080399 315.278045 99.578439 291.184295 100.076479 349.050481 100.574518 347.608974 101.072060 355.022436 101.570598 309.923878 102.068139 362.641827 102.566677 308.894231 103.064717 320.632212 103.562756 315.895833 104.060796 340.195513 104.558836 342.460737 105.056875 340.195513 105.554915 326.604167 106.052955 179.776442 106.550994 314.454327 107.049034 294.891026 107.547073 261.942308 108.045113 247.115385 108.543153 277.798878 109.041192 268.532051 109.539232 298.391827 110.037272 329.075321 110.534813 353.786859 111.033351 333.399840 111.531391 312.395032 112.029430 303.540064 112.527470 314.042468 113.025510 294.273237 113.523549 250.410256 114.021589 327.633814 114.519131 360.994391 115.017668 342.666667 115.515708 286.653846 116.013748 296.744391 116.511787 314.042468 117.009329 364.495192 117.507866 304.775641 118.005906 318.778846 118.503946 310.953526 119.001985 321.044071 119.500025 252.263622 119.998065 253.499199 120.495606 374.791667 120.994144 340.813301 121.492184 352.963141 121.990223 313.218750 122.488263 263.795673 122.986303 262.560096 123.483844 351.727564 123.982382 235.377404 124.480422 299.215545 124.978461 300.451122 125.476501 281.711538 125.974541 323.927083 126.472580 332.164263 126.970620 209.430288 127.468660 286.036058 127.966699 271.209135 128.464739 307.040865 128.962778 223.021635 129.460818 219.108974 129.958858 248.145032 130.456897 238.054487 130.954937 336.900641 131.452479 348.638622 131.951016 289.125000 132.449056 226.728365 132.947096 168.656250 133.445135 229.817308 133.943175 296.332532 134.441215 279.034455 134.939254 231.052885 135.437294 226.934295 135.935334 247.733173 136.433373 187.807692 136.931413 210.048077 137.429453 220.550481 137.927492 149.710737 138.426030 223.433494 138.923572 202.016827 139.421611 280.270032 139.920149 96.375000 140.417690 203.458333 140.915730 218.697115 141.413770 199.133814 141.911809 261.942308 142.409849 226.316506 142.907889 216.225962 143.405928 160.007212 143.903968 200.987179 144.402008 202.222756 144.900047 179.776442 145.398087 148.887019 145.896625 10.502404 146.394664 136.325321 146.892704 163.508013 147.390246 270.591346 147.888285 222.403846 148.386823 86.078526 148.884365 188.631410 149.382404 175.040064 149.880444 183.895032 150.378483 154.447115 150.876523 219.932692 151.374563 146.209936 151.872602 193.779647 152.371140 154.035256 152.869180 136.119391 153.366721 197.486378 153.864761 222.403846 154.362801 197.692308 154.860840 310.335737 155.358880 192.750000 155.856920 203.664263 156.354959 196.456731 156.852999 225.286859 157.351039 193.985577 157.849078 204.282051 158.347118 265.649038 158.845158 223.845353 159.343695 125.205128 159.841237 119.850962 160.339775 184.512821 160.837316 192.955929 161.335356 205.723558 161.833395 196.250801 162.331435 207.782853 162.829475 318.984776 163.327514 183.895032 163.825554 168.450321 164.323594 246.909455 164.821633 227.140224 165.319673 184.718750 165.818211 60.337340 166.316250 197.692308 166.813792 279.652244 167.311334 354.610577 167.809871 181.835737 168.308409 110.995994 168.805951 231.670673 169.303990 241.143429 169.802528 133.648237 170.300070 285.212340 170.798109 161.036859 171.296149 209.636218 171.794188 215.814103 172.292228 222.403846 172.790268 333.193910 173.288307 302.716346 173.786347 150.740385 174.284885 201.604968 174.782924 100.905449 175.280466 178.746795 175.778506 209.224359 176.276545 170.097756 176.774585 223.639423 177.273123 149.504808 177.770664 249.380609 178.269202 119.850962 178.766744 182.041667 179.265281 122.939904 179.763321 166.802885 180.260863 201.193109 180.758902 170.921474 181.257440 114.908654 181.755480 219.314904 182.253021 198.516026 182.751061 162.890224 183.249599 160.625000 183.747140 210.665865 184.245678 146.827724 184.743219 230.846955 185.241259 213.960737 185.739299 184.718750 186.237338 156.918269 186.735378 204.487981 187.233418 158.153846 187.730959 366.554487 188.229497 154.035256 188.728035 2.265224 189.226074 186.160256 189.724114 165.567308 190.221656 195.838942 190.719695 194.397436 191.218233 148.063301 191.715775 178.334936 192.213814 176.275641 192.711854 141.267628 193.209894 233.318109 193.707933 212.519231 194.205973 283.358974 194.704012 320.014423 195.202052 160.007212 195.700590 195.838942 196.198131 230.435096 196.696171 181.423878 197.194211 202.428686 197.692250 150.534455 198.190788 163.919872 198.688330 177.923077 199.186369 154.035256 199.684409 236.201122 200.182449 254.734776 200.680488 204.693910 201.178528 248.350962 201.676568 244.232372 202.174607 242.379006 202.673145 139.414263 203.171185 193.573718 203.668726 185.954327 204.166766 179.570513 204.664805 167.214744 205.162845 209.842147 205.660885 146.415865 206.159422 92.050481 206.656964 215.814103 207.155004 212.519231 207.653043 232.288462 208.151083 156.712340 208.649621 192.955929 209.147162 262.971955 209.645202 185.542468 210.143740 119.027244 210.641779 172.362981 211.139321 152.593750 211.637361 211.283654 212.135400 179.776442 212.633938 159.389423 213.131978 116.967949 213.629519 230.641026 214.127559 208.606571 214.626097 156.918269 215.123638 169.891827 215.621678 272.032853 216.119717 229.199519 216.617757 190.278846 217.116295 96.375000 217.613836 182.865385 218.111876 164.743590 218.609916 204.076122 219.107955 215.608173 219.606493 104.612179 220.104533 10.708333 220.602572 216.843750 221.100114 231.876603 221.598154 221.168269 222.096193 212.107372 222.594233 258.235577 223.092273 255.970353 223.590312 168.656250 224.088850 58.072115 224.586890 134.883814 225.084929 177.717147 225.582471 212.107372 226.080510 312.395032 226.578550 294.479167 227.076590 169.479968 227.574629 151.152244 228.072669 248.762821 228.570709 262.354167 229.068748 232.082532 229.566788 201.604968 230.064828 248.968750 230.562867 198.516026 231.061405 127.676282 231.558947 237.642628 232.056986 174.834135 232.555026 185.542468 233.053066 195.427083 233.551105 291.596154 234.049145 235.583333 234.547185 181.012019 235.045224 212.313301 235.543762 132.824519 236.041304 223.021635 236.539841 172.568910 237.037383 190.072917 237.535422 177.923077 238.033462 195.015224 238.531502 155.682692 239.029541 172.157051 239.527581 236.818910 240.025621 228.169872 240.523660 209.636218 241.021700 250.616186 241.519740 253.705128 242.017779 178.952724 242.515819 174.628205 243.014357 101.317308 243.512396 168.862179 244.009938 179.158654 244.507978 223.639423 245.006017 252.675481 245.504057 230.023237 246.002097 213.754808 246.500136 186.366186 246.998176 203.252404 247.496714 111.819712 247.994255 201.399038 248.492295 193.367788 248.990334 155.476763 249.488872 158.977564 249.986414 199.751603 250.484453 232.288462 250.982493 199.133814 251.480533 238.054487 251.979070 129.941506 252.476612 235.583333 252.974652 203.252404 253.473189 140.237981 253.970731 280.064103 254.468771 262.354167 254.966810 170.509615 255.464850 201.193109 255.962890 337.106571 256.460929 222.609776 256.958969 138.796474 257.457507 149.916667 257.955048 291.184295 258.453088 199.339744 258.951127 250.410256 259.449665 93.697917 259.947207 202.222756 260.445246 261.942308 260.943286 216.431891 261.441326 224.257212 261.939365 195.427083 262.437405 207.988782 262.935445 239.907853 263.433484 174.010417 263.931524 290.772436 264.429564 184.306891 264.927603 154.653045 265.426141 114.290865 265.923683 309.100160 266.421722 215.814103 266.919762 276.357372 267.418300 125.616987 267.916339 132.618590 268.413881 191.308494 268.912419 -10.090545 269.410458 198.310096 269.908000 216.431891 270.406039 160.213141 270.904079 175.657853 271.402119 279.446314 271.900656 154.447115 272.398198 161.448718 272.896238 295.096955 273.394277 161.448718 273.892815 129.941506 274.390357 203.046474 274.888396 324.133013 275.386436 308.070513 275.884476 268.943910 276.383013 147.239583 276.880555 199.339744 277.378595 268.120192 277.877132 158.771635 278.374674 226.110577 278.872714 184.512821 279.371251 102.964744 279.868793 212.725160 280.367331 139.620192 280.865370 133.236378 281.362912 235.995192 281.860951 224.051282 282.359489 108.112981 282.857031 192.750000 283.355070 222.197917 283.853110 143.120994 284.351648 163.919872 284.849189 184.718750 285.347229 222.609776 285.845767 94.109776 286.343806 116.556090 286.841846 233.318109 287.339388 182.041667 287.837925 120.880609 288.335467 181.423878 288.833507 226.934295 289.332044 107.083333 289.830084 188.837340 290.327626 196.868590 290.826163 152.181891 291.323705 184.718750 291.822243 138.178686 292.319784 232.494391 292.817824 233.729968 293.315863 284.388622 293.813903 166.802885 294.311943 297.774038 294.809982 222.609776 295.308520 62.602564 295.806062 245.467949 296.304101 248.762821 296.802639 111.613782 297.300679 183.071314 297.798220 237.642628 298.296260 202.634615 298.794300 216.431891 299.292339 176.687500 299.790379 169.068109 300.288419 188.631410 300.786458 189.043269 301.284498 130.559295 301.783036 169.891827 302.280577 203.870192 302.778617 224.051282 303.276656 205.929487 303.774696 217.049679 304.272736 238.466346 304.770775 198.104167 305.268815 211.901442 305.766855 214.166667 306.264894 238.260417 306.762934 256.588141 307.261472 167.214744 307.759013 172.568910 308.257551 147.239583 308.755093 273.680288 309.253132 223.433494 309.751172 191.102564 310.249212 205.517628 310.747749 116.556090 311.245291 191.514423 311.743829 99.669872 312.241868 65.691506 312.739410 296.332532 313.237449 177.717147 313.735489 230.023237 314.233529 128.911859 314.732066 169.274038 315.229608 181.217949 315.727648 309.512019 316.225687 158.771635 316.723727 164.743590 317.221767 258.029647 317.719806 226.522436 318.217846 141.061699 318.715886 272.238782 319.213925 277.592949 319.711965 274.504006 320.210005 164.537660 320.708044 200.987179 321.206084 254.528846 321.704124 204.487981 322.202163 170.509615 322.700203 248.350962 323.198243 154.858974 323.696282 272.238782 324.194322 260.706731 324.692859 135.089744 325.190401 226.316506 325.688441 115.938301 326.186480 266.266827 326.684520 311.983173 327.182560 266.472756 327.680599 220.962340 328.178639 301.686699 328.676679 196.456731 329.174718 171.745192 329.672758 266.266827 330.170798 248.968750 330.668837 172.568910 331.166877 179.364583 331.665415 148.475160 332.162956 213.754808 332.660996 195.221154 333.159534 136.119391 333.657573 123.557692 334.155115 183.895032 334.653154 229.405449 335.151194 172.362981 335.649234 199.545673 336.147273 249.380609 336.645811 122.939904 337.143353 202.840545 337.641392 272.856571 338.139432 219.108974 338.637472 272.856571 339.135511 182.865385 339.633551 164.537660 340.131591 165.979167 340.629630 202.840545 341.127670 217.461538 341.625710 232.906250 342.123749 236.612981 342.621789 268.326122 343.119829 262.560096 343.617868 233.935897 344.115908 236.201122 344.613948 160.625000 345.111987 288.713141 345.610027 238.054487 346.108066 192.132212 346.606106 201.604968 347.104146 200.575321 347.602185 203.664263 348.100225 203.252404 348.598265 206.341346 349.096304 268.532051 349.594344 258.647436 350.092384 334.017628 350.590423 145.592147 351.088463 183.277244 351.586503 190.072917 352.084542 189.455128 352.582582 227.552083 353.081120 130.971154 353.578661 162.478365 354.076701 302.922276 354.574741 170.509615 355.072780 239.701923 355.570820 215.196314 356.068859 228.169872 356.566899 100.493590 357.065437 182.247596 357.562978 238.260417 358.061018 222.609776 358.559058 181.629808 359.057097 200.987179 359.555137 210.254006 360.053675 68.368590 360.551216 195.838942 361.049256 214.990385 361.547296 221.374199 362.045335 250.204327 362.543375 204.487981 363.041913 155.888622 363.539454 227.552083 364.037494 213.960737 364.535534 246.497596 365.033573 171.333333 365.531613 190.072917 366.029653 228.375801 366.527692 121.704327 367.025732 211.489583 367.523771 158.359776 368.021811 250.616186 368.519851 155.064904 369.018388 128.088141 369.515930 182.041667 370.013970 238.878205 370.512507 169.068109 371.010049 202.634615 371.508089 240.319712 372.006128 95.757212 372.504666 -58.072115 373.002208 322.485577 373.500247 247.115385 373.998287 217.461538 374.496327 254.322917 374.994366 219.314904 375.492904 115.114583 375.990446 125.205128 376.488983 183.277244 376.986525 213.548878 377.484565 227.346154 377.982604 263.383814 378.480644 212.519231 378.978683 326.810096 379.476723 252.057692 379.974763 176.893429 380.472802 293.037660 380.970842 170.097756 381.468882 193.161859 381.966921 207.165064 382.465459 96.375000 382.963499 172.980769 383.461040 241.967147 383.959080 195.221154 384.457120 148.681090 384.955159 227.140224 385.453199 171.539263 385.951737 157.741987 386.449278 218.697115 386.947318 136.737179 387.445856 165.361378 387.943397 196.044872 388.441935 114.084936 388.939476 171.745192 389.437516 223.845353 389.935556 167.214744 390.434093 120.880609 390.931635 227.552083 391.429675 203.664263 391.928212 127.882212 392.425754 215.608173 392.923794 224.257212 393.422331 78.459135 393.920371 164.125801 394.417913 250.616186 394.915952 192.132212 395.413992 208.194712 395.912032 212.931090 396.410071 235.377404 396.908111 199.133814 397.406649 135.913462 397.904190 182.247596 398.402230 214.578526 398.900270 167.008814 399.398309 258.029647 399.896847 120.674679 400.394388 186.778045 400.892428 218.903045 401.390468 255.352564 401.888507 192.955929 402.386547 143.944712 402.884587 235.789263 403.382626 245.467949 403.880666 252.057692 404.378706 203.458333 404.876745 191.926282 405.374785 307.040865 405.872825 225.492788 406.370864 243.408654 406.869402 127.058494 407.366944 268.326122 407.864983 191.926282 408.363521 131.383013 408.861063 161.242788 409.359102 221.580128 409.857142 221.168269 410.355181 265.649038 410.853719 96.580929 411.351759 221.374199 411.849300 237.642628 412.347340 260.088942 412.845380 232.906250 413.343419 229.405449 413.841459 255.970353 414.339997 86.490385 414.838036 138.590545 415.335578 220.550481 415.833618 157.330128 416.331657 215.814103 416.829697 340.195513 417.328235 156.712340 417.825776 167.420673 418.323816 304.775641 418.821856 249.998397 419.319895 222.197917 419.818433 156.300481 420.315975 181.217949 420.814512 162.272436 421.312054 214.372596 421.810093 191.102564 422.308133 259.471154 422.806173 189.866987 423.304212 278.004808 423.802252 273.062500 424.300292 211.489583 424.798331 188.631410 425.296371 222.403846 425.794411 220.550481 426.292450 246.497596 426.790490 267.502404 427.288530 173.804487 427.787067 86.284455 428.284609 329.693109 428.782649 181.629808 429.280688 278.004808 429.778728 265.237179 430.276768 235.789263 430.774807 289.948718 431.272847 217.461538 431.770886 305.599359 432.268926 171.539263 432.766966 225.698718 433.265005 270.385417 433.763045 229.405449 434.261085 171.745192 434.759124 225.080929 435.257164 259.677083 435.755204 256.176282 436.253243 197.280449 436.751283 200.987179 437.249323 188.013622 437.747362 225.286859 438.245402 202.016827 438.743940 140.443910 439.241481 304.157853 439.739521 266.678686 440.237561 336.694712 440.735600 231.670673 441.233640 237.642628 441.731680 214.578526 442.229719 216.225962 442.727759 222.609776 443.225798 282.329327 443.724336 127.470353 444.221878 161.448718 444.719917 230.641026 445.217957 255.558494 445.715997 183.277244 446.214036 156.506410 446.712076 192.544071 447.210116 205.929487 447.708155 244.644231 448.206195 207.370994 448.704235 205.723558 449.202274 219.726763 449.700314 182.659455 450.198354 172.568910 450.696393 241.555288 451.194433 192.544071 451.692473 220.550481 452.190512 221.991987 452.688552 238.466346 453.186592 227.140224 453.684631 214.166667 454.182671 118.615385 454.681209 175.245994 455.179248 49.629006 455.676790 215.196314 456.174829 227.346154 456.672869 130.765224 457.170909 259.265224 457.669446 172.362981 458.166988 269.355769 458.665028 254.116987 459.163067 215.402244 459.661605 75.576122 460.159645 241.761218 460.657186 301.892628 461.155226 225.904647 461.653764 144.974359 462.151803 154.447115 462.649345 253.705128 463.147385 232.082532 463.645424 202.634615 464.143464 161.242788 464.641503 250.204327 465.139543 210.459936 465.637583 204.076122 466.135622 240.319712 466.633662 273.062500 467.131702 270.797276 467.629741 183.071314 468.127781 235.995192 468.625821 147.239583 469.124358 -47.363782 469.622398 215.402244 470.119940 197.692308 470.618477 -5.354167 471.116517 214.990385 471.614059 248.556891 472.112098 210.665865 472.610138 301.274840 473.108178 224.669071 473.606217 161.860577 474.104755 173.598558 474.602297 182.247596 475.100336 233.112179 475.598376 212.725160 476.096415 210.254006 476.594455 231.670673 477.092495 210.048077 477.590534 227.758013 478.088574 225.904647 478.586614 235.583333 479.084653 308.688301 479.582693 182.247596 480.080733 175.245994 480.579270 84.225160 481.077310 162.890224 481.574852 182.865385 482.072891 239.907853 482.571429 71.663462 483.069469 207.576923 483.567010 218.491186 484.065050 165.773237 484.563090 196.456731 485.061129 227.963942 485.559169 257.000000 486.057208 223.845353 486.555248 165.773237 487.053288 169.068109 487.551327 233.935897 488.049367 155.270833 488.547407 152.593750 489.045446 256.176282 489.543486 252.469551 490.042024 148.887019 490.539565 172.980769 491.037605 220.138622 491.535645 155.064904 492.033684 231.670673 492.531724 222.197917 493.029764 282.329327 493.527803 227.346154 494.026341 141.267628 494.523883 211.077724 495.021922 223.639423 495.520460 113.055288 496.018002 184.100962 496.516041 198.104167 497.014579 135.295673 497.512120 260.088942 498.010160 238.672276 498.508200 206.753205 499.006239 217.461538 499.504777 105.024038 500.002817 109.966346 500.500358 231.670673 500.998398 196.662660 501.496438 221.168269 501.994477 155.270833 502.492517 250.616186 502.990557 199.545673 503.489094 150.946314 503.986636 212.725160 504.484676 290.566506 504.982715 267.708333 505.480755 273.268429 505.978795 296.126603 506.476834 200.987179 506.974874 159.595353 507.472914 226.522436 507.970953 138.384615 508.469491 168.656250 508.967032 271.826923 509.465072 214.372596 509.963112 201.604968 510.461151 265.443109 510.959191 221.786058 511.457231 231.464744 511.955270 162.272436 512.453310 292.419872 512.951350 192.955929 513.449389 77.635417 513.947429 124.793269 514.445469 119.645032 514.943508 236.407051 515.441548 161.036859 515.939588 171.539263 516.437627 240.525641 516.935667 168.656250 517.433707 188.837340 517.931746 71.869391 518.429786 215.402244 518.927825 117.791667 519.425865 195.427083 519.923905 222.403846 520.421944 212.519231 520.919984 222.609776 521.418024 274.709936 521.916063 196.044872 522.414103 196.044872 522.912143 163.713942 523.410182 153.829327 523.908222 84.637019 524.406262 162.478365 524.904301 170.097756 525.402341 292.213942 525.900381 255.352564 526.398420 142.709135 526.896460 159.595353 527.394500 140.855769 527.892539 251.028045 528.390579 225.080929 528.888619 235.995192 529.386658 195.427083 529.884698 197.280449 530.382737 283.153045 530.880777 236.612981 531.378817 174.834135 531.876856 137.354968 532.374896 136.737179 532.872936 232.494391 533.370975 287.271635 533.869015 233.318109 534.367055 195.633013 534.865094 204.076122 535.363134 290.978365 535.861174 125.205128 536.359213 216.020032 536.857253 160.213141 537.355293 186.160256 537.853332 166.391026 538.351372 246.909455 538.849412 228.169872 539.347451 203.046474 539.845491 188.013622 540.343530 223.227564 540.841570 176.893429 541.339610 159.389423 541.837649 242.790865 542.335689 211.077724 542.833729 211.695513 543.331768 191.514423 543.829808 205.723558 544.327848 95.139423 544.825887 154.447115 545.323927 176.893429 545.821967 231.052885 546.320006 211.695513 546.818046 108.524840 547.316086 223.845353 547.814125 234.759615 548.312165 174.010417 548.810205 197.486378 549.308244 223.639423 549.806284 268.120192 550.304324 120.056891 550.802363 121.292468 551.300403 267.502404 551.798442 186.366186 552.296482 305.187500 552.794522 153.829327 553.292561 271.620994 553.790601 220.550481 554.288641 140.237981 554.786680 37.479167 555.284720 206.135417 555.782760 280.064103 556.280799 150.534455 556.778839 66.309295 557.276879 83.195513 557.774918 148.681090 558.272958 217.255609 558.770998 200.987179 559.269037 231.876603 559.767077 294.891026 560.265117 243.408654 560.763156 120.468750 561.261196 283.770833 561.759236 126.646635 562.257275 221.168269 562.755315 246.497596 563.253354 264.413462 563.751394 133.442308 564.249434 192.338141 564.747473 198.310096 565.245513 240.113782 565.743553 201.399038 566.241592 128.500000 566.739632 188.013622 567.237672 159.801282 567.735711 248.762821 568.233751 224.875000 568.731791 160.007212 569.229830 204.076122 569.727870 136.943109 570.225910 188.219551 570.723949 176.481571 571.221989 219.520833 571.720029 48.187500 572.218068 254.528846 572.716108 223.227564 573.214147 170.303686 573.712187 140.032051 574.210227 225.286859 574.708266 203.252404 575.206306 203.046474 575.704346 236.407051 576.202385 230.023237 576.700425 184.512821 577.198465 164.331731 577.696504 220.138622 578.194544 338.342147 578.692584 156.506410 579.190623 258.235577 579.688663 232.082532 580.186703 152.799679 580.684742 152.799679 581.182782 167.008814 581.680822 143.944712 582.178861 230.023237 582.676901 256.176282 583.174941 128.294071 583.672980 270.385417 584.171020 173.598558 584.669059 185.336538 585.167099 172.362981 585.665139 157.947917 586.163178 239.701923 586.661218 104.612179 587.159258 246.291667 587.657297 151.564103 588.155337 182.041667 588.653377 213.137019 589.151416 180.806090 589.649456 212.107372 590.147496 190.278846 590.645535 161.242788 591.143575 301.480769 591.641615 262.766026 592.139654 181.012019 592.637694 253.911058 593.135734 203.664263 593.633773 189.043269 594.131813 123.557692 594.629852 167.626603 595.127892 160.007212 595.625932 184.100962 596.123971 184.100962 596.622011 240.525641 597.120051 230.229167 597.618090 270.385417 598.116130 300.039263 598.614170 158.565705 599.112209 230.023237 599.610249 202.634615 600.108289 165.361378 600.606328 101.729167 601.104368 166.802885 601.602408 160.213141 602.100447 196.662660 602.598487 201.810897 603.096527 220.138622 603.594566 200.987179 604.092606 147.857372 604.590646 197.898237 605.088685 183.277244 605.586725 218.903045 606.084764 177.717147 606.582804 214.990385 607.080844 256.794071 607.578883 215.814103 608.076923 201.810897" /></g><g class="series serie-2 color-2"><path class="line reactive nofill" d="M11.923077 92.256410 L12.420957 92.256410 12.918917 92.256410 13.417037 92.256410 13.915076 92.256410 14.413036 92.256410 14.911155 92.256410 15.409115 92.256410 15.907230 92.256410 16.405170 92.256410 16.903409 92.256410 17.401249 92.256410 17.899388 92.256410 18.397328 92.256410 18.895468 92.256410 19.393507 92.256410 19.891447 92.256410 20.389587 92.256410 20.887626 92.256410 21.385666 92.256410 21.883606 92.256410 22.381745 92.256410 22.879785 92.256410 23.377825 92.256410 23.875864 92.256410 24.373804 92.256410 24.871944 92.256410 25.369983 92.256410 25.867923 92.256410 26.366062 92.256410 26.864102 92.256410 27.362042 92.256410 27.860181 92.256410 28.358221 92.256410 28.856261 92.256410 29.354201 92.256410 29.852340 92.256410 30.350380 92.256410 30.848419 92.256410 31.346359 92.256410 31.844748 92.256410 32.342638 92.256410 32.840678 92.256410 33.338717 92.256410 33.836757 92.256410 34.334796 92.256410 34.832886 92.256410 35.331025 92.256410 35.828915 92.256410 36.326855 92.256410 36.825045 92.256410 37.323034 92.256410 37.821074 92.256410 38.319114 92.256410 38.817153 92.256410 39.315243 92.256410 39.813282 92.256410 40.311173 92.256410 40.809312 92.256410 41.307352 92.256410 41.805391 92.256410 42.303431 92.256410 42.801471 92.256410 43.299510 92.256410 43.797550 92.256410 44.295639 92.256410 44.793629 92.256410 45.291719 92.256410 45.789858 92.256410 46.287898 92.256410 46.785788 92.256410 47.283877 92.256410 47.781917 92.256410 48.279957 92.256410 48.778096 92.256410 49.276036 92.256410 49.774075 92.256410 50.272115 92.256410 50.770155 92.256410 51.268145 92.256410 51.766184 92.256410 52.264274 92.256410 52.762313 92.256410 53.260453 92.256410 53.758393 92.256410 54.256532 92.256410 54.754572 92.256410 55.252611 92.256410 55.750551 92.256410 56.248591 92.256410 56.746581 92.256410 57.244620 92.256410 57.742660 92.256410 58.240750 92.256410 58.738789 92.256410 59.236928 92.256410 59.734869 92.256410 60.232908 92.256410 60.730848 92.256410 61.228888 92.256410 61.726928 92.256410 62.224967 92.256410 62.723007 92.256410 63.221545 92.256410 63.719584 92.256410 64.217126 92.256410 64.715165 92.256410 65.213205 92.256410 65.711245 92.256410 66.209284 92.256410 66.707324 92.256410 67.205862 92.256410 67.703901 92.256410 68.201443 92.256410 68.699483 92.256410 69.198020 92.256410 69.695562 92.256410 70.194100 92.256410 70.692139 92.256410 71.189681 92.256410 71.688219 92.256410 72.186258 92.256410 72.683800 92.256410 73.182338 92.256410 73.679879 92.256410 74.177919 92.256410 74.675958 92.256410 75.174496 92.256410 75.672038 92.256410 76.170575 92.256410 76.668615 92.256410 77.166157 92.256410 77.664694 92.256410 78.162734 92.256410 78.660276 92.256410 79.158315 92.256410 79.656355 92.256410 80.154893 92.256410 80.652434 92.256410 81.150474 92.256410 81.648514 92.256410 82.146553 92.256410 82.645091 92.256410 83.142633 92.256410 83.640672 92.256410 84.138712 92.256410 84.636751 92.256410 85.135289 92.256410 85.633329 92.256410 86.131368 92.256410 86.628910 92.256410 87.127448 92.256410 87.625487 92.256410 88.123527 92.256410 88.621567 92.256410 89.119606 92.256410 89.617646 92.256410 90.115686 92.256410 90.613725 92.256410 91.111765 92.256410 91.609805 92.256410 92.107844 92.256410 92.605884 92.256410 93.103426 92.256410 93.601465 92.256410 94.099505 92.256410 94.598043 92.256410 95.096082 92.256410 95.594122 92.256410 96.092161 92.256410 96.590201 92.256410 97.088241 92.256410 97.586280 92.256410 98.084320 92.256410 98.581862 92.256410 99.080399 92.256410 99.578439 92.256410 100.076479 92.256410 100.574518 92.256410 101.072060 92.256410 101.570598 92.256410 102.068139 92.256410 102.566677 92.256410 103.064717 92.256410 103.562756 92.256410 104.060796 92.256410 104.558836 92.256410 105.056875 92.256410 105.554915 92.256410 106.052955 92.256410 106.550994 92.256410 107.049034 92.256410 107.547073 92.256410 108.045113 92.256410 108.543153 92.256410 109.041192 92.256410 109.539232 92.256410 110.037272 92.256410 110.534813 92.256410 111.033351 92.256410 111.531391 92.256410 112.029430 92.256410 112.527470 92.256410 113.025510 92.256410 113.523549 92.256410 114.021589 92.256410 114.519131 92.256410 115.017668 92.256410 115.515708 92.256410 116.013748 92.256410 116.511787 92.256410 117.009329 92.256410 117.507866 92.256410 118.005906 92.256410 118.503946 92.256410 119.001985 92.256410 119.500025 92.256410 119.998065 92.256410 120.495606 92.256410 120.994144 92.256410 121.492184 92.256410 121.990223 92.256410 122.488263 92.256410 122.986303 92.256410 123.483844 92.256410 123.982382 92.256410 124.480422 92.256410 124.978461 92.256410 125.476501 92.256410 125.974541 92.256410 126.472580 92.256410 126.970620 92.256410 127.468660 92.256410 127.966699 92.256410 128.464739 92.256410 128.962778 92.256410 129.460818 92.256410 129.958858 92.256410 130.456897 92.256410 130.954937 92.256410 131.452479 92.256410 131.951016 92.256410 132.449056 92.256410 132.947096 92.256410 133.445135 92.256410 133.943175 92.256410 134.441215 92.256410 134.939254 92.256410 135.437294 92.256410 135.935334 92.256410 136.433373 92.256410 136.931413 92.256410 137.429453 92.256410 137.927492 92.256410 138.426030 92.256410 138.923572 92.256410 139.421611 92.256410 139.920149 92.256410 140.417690 92.256410 140.915730 92.256410 141.413770 92.256410 141.911809 92.256410 142.409849 92.256410 142.907889 92.256410 143.405928 92.256410 143.903968 92.256410 144.402008 92.256410 144.900047 92.256410 145.398087 92.256410 145.896625 92.256410 146.394664 92.256410 146.892704 92.256410 147.390246 92.256410 147.888285 92.256410 148.386823 92.256410 148.884365 92.256410 149.382404 92.256410 149.880444 92.256410 150.378483 92.256410 150.876523 92.256410 151.374563 92.256410 151.872602 92.256410 152.371140 92.256410 152.869180 92.256410 153.366721 92.256410 153.864761 92.256410 154.362801 92.256410 154.860840 92.256410 155.358880 92.256410 155.856920 92.256410 156.354959 92.256410 156.852999 92.256410 157.351039 92.256410 157.849078 92.256410 158.347118 92.256410 158.845158 92.256410 159.343695 92.256410 159.841237 92.256410 160.339775 92.256410 160.837316 92.256410 161.335356 92.256410 161.833395 92.256410 162.331435 92.256410 162.829475 92.256410 163.327514 92.256410 163.825554 92.256410 164.323594 92.256410 164.821633 92.256410 165.319673 92.256410 165.818211 92.256410 166.316250 92.256410 166.813792 92.256410 167.311334 92.256410 167.809871 92.256410 168.308409 92.256410 168.805951 92.256410 169.303990 92.256410 169.802528 92.256410 170.300070 92.256410 170.798109 92.256410 171.296149 92.256410 171.794188 92.256410 172.292228 92.256410 172.790268 92.256410 173.288307 92.256410 173.786347 92.256410 174.284885 92.256410 174.782924 92.256410 175.280466 92.256410 175.778506 92.256410 176.276545 92.256410 176.774585 92.256410 177.273123 92.256410 177.770664 92.256410 178.269202 92.256410 178.766744 92.256410 179.265281 92.256410 179.763321 92.256410 180.260863 92.256410 180.758902 92.256410 181.257440 92.256410 181.755480 92.256410 182.253021 92.256410 182.751061 92.256410 183.249599 92.256410 183.747140 92.256410 184.245678 92.256410 184.743219 92.256410 185.241259 92.256410 185.739299 92.256410 186.237338 92.256410 186.735378 92.256410 187.233418 92.256410 187.730959 92.256410 188.229497 92.256410 188.728035 92.256410 189.226074 92.256410 189.724114 92.256410 190.221656 92.256410 190.719695 92.256410 191.218233 92.256410 191.715775 92.256410 192.213814 92.256410 192.711854 92.256410 193.209894 92.256410 193.707933 92.256410 194.205973 92.256410 194.704012 92.256410 195.202052 92.256410 195.700590 92.256410 196.198131 92.256410 196.696171 92.256410 197.194211 92.256410 197.692250 92.256410 198.190788 92.256410 198.688330 92.256410 199.186369 92.256410 199.684409 92.256410 200.182449 92.256410 200.680488 92.256410 201.178528 92.256410 201.676568 92.256410 202.174607 92.256410 202.673145 92.256410 203.171185 92.256410 203.668726 92.256410 204.166766 92.256410 204.664805 92.256410 205.162845 92.256410 205.660885 92.256410 206.159422 92.256410 206.656964 92.256410 207.155004 92.256410 207.653043 92.256410 208.151083 92.256410 208.649621 92.256410 209.147162 92.256410 209.645202 92.256410 210.143740 92.256410 210.641779 92.256410 211.139321 92.256410 211.637361 92.256410 212.135400 92.256410 212.633938 92.256410 213.131978 92.256410 213.629519 92.256410 214.127559 92.256410 214.626097 92.256410 215.123638 92.256410 215.621678 92.256410 216.119717 92.256410 216.617757 92.256410 217.116295 92.256410 217.613836 92.256410 218.111876 92.256410 218.609916 92.256410 219.107955 92.256410 219.606493 92.256410 220.104533 92.256410 220.602572 92.256410 221.100114 92.256410 221.598154 92.256410 222.096193 92.256410 222.594233 92.256410 223.092273 92.256410 223.590312 92.256410 224.088850 92.256410 224.586890 92.256410 225.084929 92.256410 225.582471 92.256410 226.080510 92.256410 226.578550 92.256410 227.076590 92.256410 227.574629 92.256410 228.072669 92.256410 228.570709 92.256410 229.068748 92.256410 229.566788 92.256410 230.064828 92.256410 230.562867 92.256410 231.061405 92.256410 231.558947 92.256410 232.056986 92.256410 232.555026 92.256410 233.053066 92.256410 233.551105 92.256410 234.049145 92.256410 234.547185 92.256410 235.045224 92.256410 235.543762 92.256410 236.041304 92.256410 236.539841 92.256410 237.037383 92.256410 237.535422 92.256410 238.033462 92.256410 238.531502 92.256410 239.029541 92.256410 239.527581 92.256410 240.025621 92.256410 240.523660 92.256410 241.021700 92.256410 241.519740 92.256410 242.017779 92.256410 242.515819 92.256410 243.014357 92.256410 243.512396 92.256410 244.009938 92.256410 244.507978 92.256410 245.006017 92.256410 245.504057 92.256410 246.002097 92.256410 246.500136 92.256410 246.998176 92.256410 247.496714 92.256410 247.994255 92.256410 248.492295 92.256410 248.990334 92.256410 249.488872 92.256410 249.986414 92.256410 250.484453 92.256410 250.982493 92.256410 251.480533 92.256410 251.979070 92.256410 252.476612 92.256410 252.974652 92.256410 253.473189 92.256410 253.970731 92.256410 254.468771 92.256410 254.966810 92.256410 255.464850 92.256410 255.962890 92.256410 256.460929 92.256410 256.958969 92.256410 257.457507 92.256410 257.955048 92.256410 258.453088 92.256410 258.951127 92.256410 259.449665 92.256410 259.947207 92.256410 260.445246 92.256410 260.943286 92.256410 261.441326 92.256410 261.939365 92.256410 262.437405 92.256410 262.935445 92.256410 263.433484 92.256410 263.931524 92.256410 264.429564 92.256410 264.927603 92.256410 265.426141 92.256410 265.923683 92.256410 266.421722 92.256410 266.919762 92.256410 267.418300 92.256410 267.916339 92.256410 268.413881 92.256410 268.912419 92.256410 269.410458 92.256410 269.908000 92.256410 270.406039 92.256410 270.904079 92.256410 271.402119 92.256410 271.900656 92.256410 272.398198 92.256410 272.896238 92.256410 273.394277 92.256410 273.892815 92.256410 274.390357 92.256410 274.888396 92.256410 275.386436 92.256410 275.884476 92.256410 276.383013 92.256410 276.880555 92.256410 277.378595 92.256410 277.877132 92.256410 278.374674 92.256410 278.872714 92.256410 279.371251 92.256410 279.868793 92.256410 280.367331 92.256410 280.865370 92.256410 281.362912 92.256410 281.860951 92.256410 282.359489 92.256410 282.857031 92.256410 283.355070 92.256410 283.853110 92.256410 284.351648 92.256410 284.849189 92.256410 285.347229 92.256410 285.845767 92.256410 286.343806 92.256410 286.841846 92.256410 287.339388 92.256410 287.837925 92.256410 288.335467 92.256410 288.833507 92.256410 289.332044 92.256410 289.830084 92.256410 290.327626 92.256410 290.826163 92.256410 291.323705 92.256410 291.822243 92.256410 292.319784 92.256410 292.817824 92.256410 293.315863 92.256410 293.813903 92.256410 294.311943 92.256410 294.809982 92.256410 295.308520 92.256410 295.806062 92.256410 296.304101 92.256410 296.802639 92.256410 297.300679 92.256410 297.798220 92.256410 298.296260 92.256410 298.794300 92.256410 299.292339 92.256410 299.790379 92.256410 300.288419 92.256410 300.786458 92.256410 301.284498 92.256410 301.783036 92.256410 302.280577 92.256410 302.778617 92.256410 303.276656 92.256410 303.774696 92.256410 304.272736 92.256410 304.770775 92.256410 305.268815 92.256410 305.766855 92.256410 306.264894 92.256410 306.762934 92.256410 307.261472 92.256410 307.759013 92.256410 308.257551 92.256410 308.755093 92.256410 309.253132 92.256410 309.751172 92.256410 310.249212 92.256410 310.747749 92.256410 311.245291 92.256410 311.743829 92.256410 312.241868 92.256410 312.739410 92.256410 313.237449 92.256410 313.735489 92.256410 314.233529 92.256410 314.732066 92.256410 315.229608 92.256410 315.727648 92.256410 316.225687 92.256410 316.723727 92.256410 317.221767 92.256410 317.719806 92.256410 318.217846 92.256410 318.715886 92.256410 319.213925 92.256410 319.711965 92.256410 320.210005 92.256410 320.708044 92.256410 321.206084 92.256410 321.704124 92.256410 322.202163 92.256410 322.700203 92.256410 323.198243 92.256410 323.696282 92.256410 324.194322 92.256410 324.692859 92.256410 325.190401 92.256410 325.688441 92.256410 326.186480 92.256410 326.684520 92.256410 327.182560 92.256410 327.680599 92.256410 328.178639 92.256410 328.676679 92.256410 329.174718 92.256410 329.672758 92.256410 330.170798 92.256410 330.668837 92.256410 331.166877 92.256410 331.665415 92.256410 332.162956 92.256410 332.660996 92.256410 333.159534 92.256410 333.657573 92.256410 334.155115 92.256410 334.653154 92.256410 335.151194 92.256410 335.649234 92.256410 336.147273 92.256410 336.645811 92.256410 337.143353 92.256410 337.641392 92.256410 338.139432 92.256410 338.637472 92.256410 339.135511 92.256410 339.633551 92.256410 340.131591 92.256410 340.629630 92.256410 341.127670 92.256410 341.625710 92.256410 342.123749 92.256410 342.621789 92.256410 343.119829 92.256410 343.617868 92.256410 344.115908 92.256410 344.613948 92.256410 345.111987 92.256410 345.610027 92.256410 346.108066 92.256410 346.606106 92.256410 347.104146 92.256410 347.602185 92.256410 348.100225 92.256410 348.598265 92.256410 349.096304 92.256410 349.594344 92.256410 350.092384 92.256410 350.590423 92.256410 351.088463 92.256410 351.586503 92.256410 352.084542 92.256410 352.582582 92.256410 353.081120 92.256410 353.578661 92.256410 354.076701 92.256410 354.574741 92.256410 355.072780 92.256410 355.570820 92.256410 356.068859 92.256410 356.566899 92.256410 357.065437 92.256410 357.562978 92.256410 358.061018 92.256410 358.559058 92.256410 359.057097 92.256410 359.555137 92.256410 360.053675 92.256410 360.551216 92.256410 361.049256 92.256410 361.547296 92.256410 362.045335 92.256410 362.543375 92.256410 363.041913 92.256410 363.539454 92.256410 364.037494 92.256410 364.535534 92.256410 365.033573 92.256410 365.531613 92.256410 366.029653 92.256410 366.527692 92.256410 367.025732 92.256410 367.523771 92.256410 368.021811 92.256410 368.519851 92.256410 369.018388 92.256410 369.515930 92.256410 370.013970 92.256410 370.512507 92.256410 371.010049 92.256410 371.508089 92.256410 372.006128 92.256410 372.504666 92.256410 373.002208 92.256410 373.500247 92.256410 373.998287 92.256410 374.496327 92.256410 374.994366 92.256410 375.492904 92.256410 375.990446 92.256410 376.488983 92.256410 376.986525 92.256410 377.484565 92.256410 377.982604 92.256410 378.480644 92.256410 378.978683 92.256410 379.476723 92.256410 379.974763 92.256410 380.472802 92.256410 380.970842 92.256410 381.468882 92.256410 381.966921 92.256410 382.465459 92.256410 382.963499 92.256410 383.461040 92.256410 383.959080 92.256410 384.457120 92.256410 384.955159 92.256410 385.453199 92.256410 385.951737 92.256410 386.449278 92.256410 386.947318 92.256410 387.445856 92.256410 387.943397 92.256410 388.441935 92.256410 388.939476 92.256410 389.437516 92.256410 389.935556 92.256410 390.434093 92.256410 390.931635 92.256410 391.429675 92.256410 391.928212 92.256410 392.425754 92.256410 392.923794 92.256410 393.422331 92.256410 393.920371 92.256410 394.417913 92.256410 394.915952 92.256410 395.413992 92.256410 395.912032 92.256410 396.410071 92.256410 396.908111 92.256410 397.406649 92.256410 397.904190 92.256410 398.402230 92.256410 398.900270 92.256410 399.398309 92.256410 399.896847 92.256410 400.394388 92.256410 400.892428 92.256410 401.390468 92.256410 401.888507 92.256410 402.386547 92.256410 402.884587 92.256410 403.382626 92.256410 403.880666 92.256410 404.378706 92.256410 404.876745 92.256410 405.374785 92.256410 405.872825 92.256410 406.370864 92.256410 406.869402 92.256410 407.366944 92.256410 407.864983 92.256410 408.363521 92.256410 408.861063 92.256410 409.359102 92.256410 409.857142 92.256410 410.355181 92.256410 410.853719 92.256410 411.351759 92.256410 411.849300 92.256410 412.347340 92.256410 412.845380 92.256410 413.343419 92.256410 413.841459 92.256410 414.339997 92.256410 414.838036 92.256410 415.335578 92.256410 415.833618 92.256410 416.331657 92.256410 416.829697 92.256410 417.328235 92.256410 417.825776 92.256410 418.323816 92.256410 418.821856 92.256410 419.319895 92.256410 419.818433 92.256410 420.315975 92.256410 420.814512 92.256410 421.312054 92.256410 421.810093 92.256410 422.308133 92.256410 422.806173 92.256410 423.304212 92.256410 423.802252 92.256410 424.300292 92.256410 424.798331 92.256410 425.296371 92.256410 425.794411 92.256410 426.292450 92.256410 426.790490 92.256410 427.288530 92.256410 427.787067 92.256410 428.284609 92.256410 428.782649 92.256410 429.280688 92.256410 429.778728 92.256410 430.276768 92.256410 430.774807 92.256410 431.272847 92.256410 431.770886 92.256410 432.268926 92.256410 432.766966 92.256410 433.265005 92.256410 433.763045 92.256410 434.261085 92.256410 434.759124 92.256410 435.257164 92.256410 435.755204 92.256410 436.253243 92.256410 436.751283 92.256410 437.249323 92.256410 437.747362 92.256410 438.245402 92.256410 438.743940 92.256410 439.241481 92.256410 439.739521 92.256410 440.237561 92.256410 440.735600 92.256410 441.233640 92.256410 441.731680 92.256410 442.229719 92.256410 442.727759 92.256410 443.225798 92.256410 443.724336 92.256410 444.221878 92.256410 444.719917 92.256410 445.217957 92.256410 445.715997 92.256410 446.214036 92.256410 446.712076 92.256410 447.210116 92.256410 447.708155 92.256410 448.206195 92.256410 448.704235 92.256410 449.202274 92.256410 449.700314 92.256410 450.198354 92.256410 450.696393 92.256410 451.194433 92.256410 451.692473 92.256410 452.190512 92.256410 452.688552 92.256410 453.186592 92.256410 453.684631 92.256410 454.182671 92.256410 454.681209 92.256410 455.179248 92.256410 455.676790 92.256410 456.174829 92.256410 456.672869 92.256410 457.170909 92.256410 457.669446 92.256410 458.166988 92.256410 458.665028 92.256410 459.163067 92.256410 459.661605 92.256410 460.159645 92.256410 460.657186 92.256410 461.155226 92.256410 461.653764 92.256410 462.151803 92.256410 462.649345 92.256410 463.147385 92.256410 463.645424 92.256410 464.143464 92.256410 464.641503 92.256410 465.139543 92.256410 465.637583 92.256410 466.135622 92.256410 466.633662 92.256410 467.131702 92.256410 467.629741 92.256410 468.127781 92.256410 468.625821 92.256410 469.124358 92.256410 469.622398 92.256410 470.119940 92.256410 470.618477 92.256410 471.116517 92.256410 471.614059 92.256410 472.112098 92.256410 472.610138 92.256410 473.108178 92.256410 473.606217 92.256410 474.104755 92.256410 474.602297 92.256410 475.100336 92.256410 475.598376 92.256410 476.096415 92.256410 476.594455 92.256410 477.092495 92.256410 477.590534 92.256410 478.088574 92.256410 478.586614 92.256410 479.084653 92.256410 479.582693 92.256410 480.080733 92.256410 480.579270 92.256410 481.077310 92.256410 481.574852 92.256410 482.072891 92.256410 482.571429 92.256410 483.069469 92.256410 483.567010 92.256410 484.065050 92.256410 484.563090 92.256410 485.061129 92.256410 485.559169 92.256410 486.057208 92.256410 486.555248 92.256410 487.053288 92.256410 487.551327 92.256410 488.049367 92.256410 488.547407 92.256410 489.045446 92.256410 489.543486 92.256410 490.042024 92.256410 490.539565 92.256410 491.037605 92.256410 491.535645 92.256410 492.033684 92.256410 492.531724 92.256410 493.029764 92.256410 493.527803 92.256410 494.026341 92.256410 494.523883 92.256410 495.021922 92.256410 495.520460 92.256410 496.018002 92.256410 496.516041 92.256410 497.014579 92.256410 497.512120 92.256410 498.010160 92.256410 498.508200 92.256410 499.006239 92.256410 499.504777 92.256410 500.002817 92.256410 500.500358 92.256410 500.998398 92.256410 501.496438 92.256410 501.994477 92.256410 502.492517 92.256410 502.990557 92.256410 503.489094 92.256410 503.986636 92.256410 504.484676 92.256410 504.982715 92.256410 505.480755 92.256410 505.978795 92.256410 506.476834 92.256410 506.974874 92.256410 507.472914 92.256410 507.970953 92.256410 508.469491 92.256410 508.967032 92.256410 509.465072 92.256410 509.963112 92.256410 510.461151 92.256410 510.959191 92.256410 511.457231 92.256410 511.955270 92.256410 512.453310 92.256410 512.951350 92.256410 513.449389 92.256410 513.947429 92.256410 514.445469 92.256410 514.943508 92.256410 515.441548 92.256410 515.939588 92.256410 516.437627 92.256410 516.935667 92.256410 517.433707 92.256410 517.931746 92.256410 518.429786 92.256410 518.927825 92.256410 519.425865 92.256410 519.923905 92.256410 520.421944 92.256410 520.919984 92.256410 521.418024 92.256410 521.916063 92.256410 522.414103 92.256410 522.912143 92.256410 523.410182 92.256410 523.908222 92.256410 524.406262 92.256410 524.904301 92.256410 525.402341 92.256410 525.900381 92.256410 526.398420 92.256410 526.896460 92.256410 527.394500 92.256410 527.892539 92.256410 528.390579 92.256410 528.888619 92.256410 529.386658 92.256410 529.884698 92.256410 530.382737 92.256410 530.880777 92.256410 531.378817 92.256410 531.876856 92.256410 532.374896 92.256410 532.872936 92.256410 533.370975 92.256410 533.869015 92.256410 534.367055 92.256410 534.865094 92.256410 535.363134 92.256410 535.861174 92.256410 536.359213 92.256410 536.857253 92.256410 537.355293 92.256410 537.853332 92.256410 538.351372 92.256410 538.849412 92.256410 539.347451 92.256410 539.845491 92.256410 540.343530 92.256410 540.841570 92.256410 541.339610 92.256410 541.837649 92.256410 542.335689 92.256410 542.833729 92.256410 543.331768 92.256410 543.829808 92.256410 544.327848 92.256410 544.825887 92.256410 545.323927 92.256410 545.821967 92.256410 546.320006 92.256410 546.818046 92.256410 547.316086 92.256410 547.814125 92.256410 548.312165 92.256410 548.810205 92.256410 549.308244 92.256410 549.806284 92.256410 550.304324 92.256410 550.802363 92.256410 551.300403 92.256410 551.798442 92.256410 552.296482 92.256410 552.794522 92.256410 553.292561 92.256410 553.790601 92.256410 554.288641 92.256410 554.786680 92.256410 555.284720 92.256410 555.782760 92.256410 556.280799 92.256410 556.778839 92.256410 557.276879 92.256410 557.774918 92.256410 558.272958 92.256410 558.770998 92.256410 559.269037 92.256410 559.767077 92.256410 560.265117 92.256410 560.763156 92.256410 561.261196 92.256410 561.759236 92.256410 562.257275 92.256410 562.755315 92.256410 563.253354 92.256410 563.751394 92.256410 564.249434 92.256410 564.747473 92.256410 565.245513 92.256410 565.743553 92.256410 566.241592 92.256410 566.739632 92.256410 567.237672 92.256410 567.735711 92.256410 568.233751 92.256410 568.731791 92.256410 569.229830 92.256410 569.727870 92.256410 570.225910 92.256410 570.723949 92.256410 571.221989 92.256410 571.720029 92.256410 572.218068 92.256410 572.716108 92.256410 573.214147 92.256410 573.712187 92.256410 574.210227 92.256410 574.708266 92.256410 575.206306 92.256410 575.704346 92.256410 576.202385 92.256410 576.700425 92.256410 577.198465 92.256410 577.696504 92.256410 578.194544 92.256410 578.692584 92.256410 579.190623 92.256410 579.688663 92.256410 580.186703 92.256410 580.684742 92.256410 581.182782 92.256410 581.680822 92.256410 582.178861 92.256410 582.676901 92.256410 583.174941 92.256410 583.672980 92.256410 584.171020 92.256410 584.669059 92.256410 585.167099 92.256410 585.665139 92.256410 586.163178 92.256410 586.661218 92.256410 587.159258 92.256410 587.657297 92.256410 588.155337 92.256410 588.653377 92.256410 589.151416 92.256410 589.649456 92.256410 590.147496 92.256410 590.645535 92.256410 591.143575 92.256410 591.641615 92.256410 592.139654 92.256410 592.637694 92.256410 593.135734 92.256410 593.633773 92.256410 594.131813 92.256410 594.629852 92.256410 595.127892 92.256410 595.625932 92.256410 596.123971 92.256410 596.622011 92.256410 597.120051 92.256410 597.618090 92.256410 598.116130 92.256410 598.614170 92.256410 599.112209 92.256410 599.610249 92.256410 600.108289 92.256410 600.606328 92.256410 601.104368 92.256410 601.602408 92.256410 602.100447 92.256410 602.598487 92.256410 603.096527 92.256410 603.594566 92.256410 604.092606 92.256410 604.590646 92.256410 605.088685 92.256410 605.586725 92.256410 606.084764 92.256410 606.582804 92.256410 607.080844 92.256410 607.578883 92.256410 608.076923 92.256410" /></g></g><g class="titles"><text class="title" x="470.0" y="580">pure_2000kbps</text></g><g class="plot overlay" transform="translate(160, 20)"><g class="series serie-0 color-0" /><g class="series serie-1 color-1" /><g class="series serie-2 color-2" /></g><g class="plot text-overlay" transform="translate(160, 20)"><g class="series serie-0 color-0" /><g class="series serie-1 color-1" /><g class="series serie-2 color-2" /></g><g class="plot tooltip-overlay" transform="translate(160, 20)"><g class="tooltip" style="opacity: 0" transform="translate(0 0)"><rect class="tooltip-box" height="0" rx="0" ry="0" width="0" /><g class="text" /></g></g><g class="legends" transform="translate(10, 30)"><g class="legend reactive activate-serie" id="activate-serie-0"><rect class="color-0 reactive" height="12" width="12" x="0.0" y="1.0" /><text x="17.0" y="11.2">qdelay</text></g><g class="legend reactive activate-serie" id="activate-serie-1"><rect class="color-1 reactive" height="12" width="12" x="0.0" y="22.0" /><text x="17.0" y="32.2">txed(kbps)</text></g><g class="legend reactive activate-serie" id="activate-serie-2"><rect class="color-2 reactive" height="12" width="12" x="0.0" y="43.0" /><text x="17.0" y="53.2">topo(kbps)</text></g></g><g class="legends" transform="translate(790, 30)" /></g></svg>