<?xml version='1.0' encoding='utf-8'?>
<svg xmlns:xlink="http://www.w3.org/1999/xlink" class="pygal-chart" id="chart-1b0382f0-36d6-4e5d-9af0-41341528b8fa" viewBox="0 0 800 600" xmlns="http://www.w3.org/2000/svg"><!--Generated with pygal 2.4.0 (etree) ©Kozea 2012-2016 on 2019-09-27--><!--http://pygal.org--><!--http://github.com/Kozea/pygal--><defs><style type="text/css">#chart-1b0382f0-36d6-4e5d-9af0-41341528b8fa{-webkit-user-select:none;-webkit-font-smoothing:antialiased;font-family:Consolas,"Liberation Mono",Menlo,Courier,monospace}#chart-1b0382f0-36d6-4e5d-9af0-41341528b8fa .title{font-family:Consolas,"Liberation Mono",Menlo,Courier,monospace;font-size:16px}#chart-1b0382f0-36d6-4e5d-9af0-41341528b8fa .legends .legend text{font-family:Consolas,"Liberation Mono",Menlo,Courier,monospace;font-size:14px}#chart-1b0382f0-36d6-4e5d-9af0-41341528b8fa .axis text{font-family:Consolas,"Liberation Mono",Menlo,Courier,monospace;font-size:10px}#chart-1b0382f0-36d6-4e5d-9af0-41341528b8fa .axis text.major{font-family:Consolas,"Liberation Mono",Menlo,Courier,monospace;font-size:10px}#chart-1b0382f0-36d6-4e5d-9af0-41341528b8fa .text-overlay text.value{font-family:Consolas,"Liberation Mono",Menlo,Courier,monospace;font-size:16px}#chart-1b0382f0-36d6-4e5d-9af0-41341528b8fa .text-overlay text.label{font-family:Consolas,"Liberation Mono",Menlo,Courier,monospace;font-size:10px}#chart-1b0382f0-36d6-4e5d-9af0-41341528b8fa .tooltip{font-family:Consolas,"Liberation Mono",Menlo,Courier,monospace;font-size:14px}#chart-1b0382f0-36d6-4e5d-9af0-41341528b8fa text.no_data{font-family:Consolas,"Liberation Mono",Menlo,Courier,monospace;font-size:64px}
#chart-1b0382f0-36d6-4e5d-9af0-41341528b8fa{background-color:transparent}#chart-1b0382f0-36d6-4e5d-9af0-41341528b8fa path,#chart-1b0382f0-36d6-4e5d-9af0-41341528b8fa line,#chart-1b0382f0-36d6-4e5d-9af0-41341528b8fa rect,#chart-1b0382f0-36d6-4e5d-9af0-41341528b8fa circle{-webkit-transition:100ms ease-in;-moz-transition:100ms ease-in;transition:100ms ease-in}#chart-1b0382f0-36d6-4e5d-9af0-41341528b8fa .graph &gt; .background{fill:transparent}#chart-1b0382f0-36d6-4e5d-9af0-41341528b8fa .plot &gt; .background{fill:transparent}#chart-1b0382f0-36d6-4e5d-9af0-41341528b8fa .graph{fill:#000000}#chart-1b0382f0-36d6-4e5d-9af0-41341528b8fa text.no_data{fill:#000000}#chart-1b0382f0-36d6-4e5d-9af0-41341528b8fa .title{fill:#000000}#chart-1b0382f0-36d6-4e5d-9af0-41341528b8fa .legends .legend text{fill:#000000}#chart-1b0382f0-36d6-4e5d-9af0-41341528b8fa .legends .legend:hover text{fill:#000000}#chart-1b0382f0-36d6-4e5d-9af0-41341528b8fa .axis .line{stroke:#000000}#chart-1b0382f0-36d6-4e5d-9af0-41341528b8fa .axis .guide.line{stroke:#006400d}#chart-1b0382f0-36d6-4e5d-9af0-41341528b8fa .axis .major.line{stroke:#000000}#chart-1b0382f0-36d6-4e5d-9af0-41341528b8fa .axis text.major{fill:#000000}#chart-1b0382f0-36d6-4e5d-9af0-41341528b8fa .axis.y .guides:hover .guide.line,#chart-1b0382f0-36d6-4e5d-9af0-41341528b8fa .line-graph .axis.x .guides:hover .guide.line,#chart-1b0382f0-36d6-4e5d-9af0-41341528b8fa .stackedline-graph .axis.x .guides:hover .guide.line,#chart-1b0382f0-36d6-4e5d-9af0-41341528b8fa .xy-graph .axis.x .guides:hover .guide.line{stroke:#000000}#chart-1b0382f0-36d6-4e5d-9af0-41341528b8fa .axis .guides:hover text{fill:#000000}#chart-1b0382f0-36d6-4e5d-9af0-41341528b8fa .reactive{fill-opacity:.6;stroke-opacity:.8}#chart-1b0382f0-36d6-4e5d-9af0-41341528b8fa .ci{stroke:#000000}#chart-1b0382f0-36d6-4e5d-9af0-41341528b8fa .reactive.active,#chart-1b0382f0-36d6-4e5d-9af0-41341528b8fa .active .reactive{fill-opacity:.9;stroke-opacity:.9;stroke-width:4}#chart-1b0382f0-36d6-4e5d-9af0-41341528b8fa .ci .reactive.active{stroke-width:1.5}#chart-1b0382f0-36d6-4e5d-9af0-41341528b8fa .series text{fill:#000000}#chart-1b0382f0-36d6-4e5d-9af0-41341528b8fa .tooltip rect{fill:transparent;stroke:#000000;-webkit-transition:opacity 100ms ease-in;-moz-transition:opacity 100ms ease-in;transition:opacity 100ms ease-in}#chart-1b0382f0-36d6-4e5d-9af0-41341528b8fa .tooltip .label{fill:#000000}#chart-1b0382f0-36d6-4e5d-9af0-41341528b8fa .tooltip .label{fill:#000000}#chart-1b0382f0-36d6-4e5d-9af0-41341528b8fa .tooltip .legend{font-size:.8em;fill:#006400d}#chart-1b0382f0-36d6-4e5d-9af0-41341528b8fa .tooltip .x_label{font-size:.6em;fill:#000000}#chart-1b0382f0-36d6-4e5d-9af0-41341528b8fa .tooltip .xlink{font-size:.5em;text-decoration:underline}#chart-1b0382f0-36d6-4e5d-9af0-41341528b8fa .tooltip .value{font-size:1.5em}#chart-1b0382f0-36d6-4e5d-9af0-41341528b8fa .bound{font-size:.5em}#chart-1b0382f0-36d6-4e5d-9af0-41341528b8fa .max-value{font-size:.75em;fill:#006400d}#chart-1b0382f0-36d6-4e5d-9af0-41341528b8fa .map-element{fill:transparent;stroke:#006400d !important}#chart-1b0382f0-36d6-4e5d-9af0-41341528b8fa .map-element .reactive{fill-opacity:inherit;stroke-opacity:inherit}#chart-1b0382f0-36d6-4e5d-9af0-41341528b8fa .color-0,#chart-1b0382f0-36d6-4e5d-9af0-41341528b8fa .color-0 a:visited{stroke:#006400;fill:#006400}#chart-1b0382f0-36d6-4e5d-9af0-41341528b8fa .color-1,#chart-1b0382f0-36d6-4e5d-9af0-41341528b8fa .color-1 a:visited{stroke:#0022AA;fill:#0022AA}#chart-1b0382f0-36d6-4e5d-9af0-41341528b8fa .color-2,#chart-1b0382f0-36d6-4e5d-9af0-41341528b8fa .color-2 a:visited{stroke:#FF1111;fill:#FF1111}#chart-1b0382f0-36d6-4e5d-9af0-41341528b8fa .text-overlay .color-0 text{fill:black}#chart-1b0382f0-36d6-4e5d-9af0-41341528b8fa .text-overlay .color-1 text{fill:black}#chart-1b0382f0-36d6-4e5d-9af0-41341528b8fa .text-overlay .color-2 text{fill:black}
#chart-1b0382f0-36d6-4e5d-9af0-41341528b8fa text.no_data{text-anchor:middle}#chart-1b0382f0-36d6-4e5d-9af0-41341528b8fa .guide.line{fill:none}#chart-1b0382f0-36d6-4e5d-9af0-41341528b8fa .centered{text-anchor:middle}#chart-1b0382f0-36d6-4e5d-9af0-41341528b8fa .title{text-anchor:middle}#chart-1b0382f0-36d6-4e5d-9af0-41341528b8fa .legends .legend text{fill-opacity:1}#chart-1b0382f0-36d6-4e5d-9af0-41341528b8fa .axis.x text{text-anchor:middle}#chart-1b0382f0-36d6-4e5d-9af0-41341528b8fa .axis.x:not(.web) text[transform]{text-anchor:start}#chart-1b0382f0-36d6-4e5d-9af0-41341528b8fa .axis.x:not(.web) text[transform].backwards{text-anchor:end}#chart-1b0382f0-36d6-4e5d-9af0-41341528b8fa .axis.y text{text-anchor:end}#chart-1b0382f0-36d6-4e5d-9af0-41341528b8fa .axis.y text[transform].backwards{text-anchor:start}#chart-1b0382f0-36d6-4e5d-9af0-41341528b8fa .axis.y2 text{text-anchor:start}#chart-1b0382f0-36d6-4e5d-9af0-41341528b8fa .axis.y2 text[transform].backwards{text-anchor:end}#chart-1b0382f0-36d6-4e5d-9af0-41341528b8fa .axis .guide.line{stroke-dasharray:4,4}#chart-1b0382f0-36d6-4e5d-9af0-41341528b8fa .axis .major.guide.line{stroke-dasharray:6,6}#chart-1b0382f0-36d6-4e5d-9af0-41341528b8fa .horizontal .axis.y .guide.line,#chart-1b0382f0-36d6-4e5d-9af0-41341528b8fa .horizontal .axis.y2 .guide.line,#chart-1b0382f0-36d6-4e5d-9af0-41341528b8fa .vertical .axis.x .guide.line{opacity:0}#chart-1b0382f0-36d6-4e5d-9af0-41341528b8fa .horizontal .axis.always_show .guide.line,#chart-1b0382f0-36d6-4e5d-9af0-41341528b8fa .vertical .axis.always_show .guide.line{opacity:1 !important}#chart-1b0382f0-36d6-4e5d-9af0-41341528b8fa .axis.y .guides:hover .guide.line,#chart-1b0382f0-36d6-4e5d-9af0-41341528b8fa .axis.y2 .guides:hover .guide.line,#chart-1b0382f0-36d6-4e5d-9af0-41341528b8fa .axis.x .guides:hover .guide.line{opacity:1}#chart-1b0382f0-36d6-4e5d-9af0-41341528b8fa .axis .guides:hover text{opacity:1}#chart-1b0382f0-36d6-4e5d-9af0-41341528b8fa .nofill{fill:none}#chart-1b0382f0-36d6-4e5d-9af0-41341528b8fa .subtle-fill{fill-opacity:.2}#chart-1b0382f0-36d6-4e5d-9af0-41341528b8fa .dot{stroke-width:1px;fill-opacity:1}#chart-1b0382f0-36d6-4e5d-9af0-41341528b8fa .dot.active{stroke-width:5px}#chart-1b0382f0-36d6-4e5d-9af0-41341528b8fa .dot.negative{fill:transparent}#chart-1b0382f0-36d6-4e5d-9af0-41341528b8fa text,#chart-1b0382f0-36d6-4e5d-9af0-41341528b8fa tspan{stroke:none !important}#chart-1b0382f0-36d6-4e5d-9af0-41341528b8fa .series text.active{opacity:1}#chart-1b0382f0-36d6-4e5d-9af0-41341528b8fa .tooltip rect{fill-opacity:.95;stroke-width:.5}#chart-1b0382f0-36d6-4e5d-9af0-41341528b8fa .tooltip text{fill-opacity:1}#chart-1b0382f0-36d6-4e5d-9af0-41341528b8fa .showable{visibility:hidden}#chart-1b0382f0-36d6-4e5d-9af0-41341528b8fa .showable.shown{visibility:visible}#chart-1b0382f0-36d6-4e5d-9af0-41341528b8fa .gauge-background{fill:rgba(229,229,229,1);stroke:none}#chart-1b0382f0-36d6-4e5d-9af0-41341528b8fa .bg-lines{stroke:transparent;stroke-width:2px}</style><script type="text/javascript">window.pygal = window.pygal || {};window.pygal.config = window.pygal.config || {};window.pygal.config['1b0382f0-36d6-4e5d-9af0-41341528b8fa'] = {"dynamic_print_values": false, "truncate_label": null, "inner_radius": 0, "print_values": false, "xrange": null, "box_mode": "extremes", "title": null, "legend_at_bottom_columns": null, "height": 600, "legend_at_bottom": false, "show_legend": true, "show_dots": false, "explicit_size": false, "y_labels_major": null, "show_minor_x_labels": true, "width": 800, "force_uri_protocol": "https", "half_pie": false, "style": {"major_label_font_family": "Consolas, \"Liberation Mono\", Menlo, Courier, monospace", "title_font_family": "Consolas, \"Liberation Mono\", Menlo, Courier, monospace", "stroke_opacity": ".8", "legend_font_family": "Consolas, \"Liberation Mono\", Menlo, Courier, monospace", "colors": ["#006400", "#0022AA", "#FF1111", "#FFEBCD", "#DC143C", "#FFFFFF", "#6495ED", "#B0C4DE", "#D2691E", "#8B0000"], "legend_font_size": 14, "no_data_font_family": "Consolas, \"Liberation Mono\", Menlo, Courier, monospace", "major_label_font_size": 10, "value_background": "rgba(229, 229, 229, 1)", "ci_colors": [], "label_font_family": "Consolas, \"Liberation Mono\", Menlo, Courier, monospace", "label_font_size": 10, "tooltip_font_size": 14, "value_font_size": 16, "font_family": "Consolas, \"Liberation Mono\", Menlo, Courier, monospace", "opacity": ".6", "foreground": "#000000", "plot_background": "transparent", "value_label_font_size": 10, "value_label_font_family": "Consolas, \"Liberation Mono\", Menlo, Courier, monospace", "background": "transparent", "no_data_font_size": 64, "value_colors": [], "guide_stroke_dasharray": "4,4", "transition": "100ms ease-in", "foreground_subtle": "#006400d", "value_font_family": "Consolas, \"Liberation Mono\", Menlo, Courier, monospace", "tooltip_font_family": "Consolas, \"Liberation Mono\", Menlo, Courier, monospace", "title_font_size": 16, "stroke_opacity_hover": ".9", "major_guide_stroke_dasharray": "6,6", "opacity_hover": ".9", "foreground_strong": "#000000"}, "x_label_rotation": 0, "fill": false, "missing_value_fill_truncation": "x", "zero": 0, "margin_right": null, "interpolation_parameters": {}, "x_labels_major": null, "rounded_bars": null, "show_y_labels": true, "dots_size": 2.5, "show_y_guides": true, "show_minor_y_labels": true, "x_labels": null, "y_title": null, "order_min": null, "formatter": null, "disable_xml_declaration": false, "strict": false, "css": ["file://style.css", "file://graph.css"], "tooltip_fancy_mode": true, "defs": [], "show_only_major_dots": false, "y_label_rotation": 0, "show_x_labels": true, "min_scale": 4, "show_x_guides": false, "spacing": 10, "x_labels_major_count": null, "pretty_print": false, "tooltip_border_radius": 0, "interpolate": null, "js": ["//kozea.github.io/pygal.js/2.0.x/pygal-tooltips.min.js"], "y_labels": null, "stroke_style": null, "print_labels": false, "interpolation_precision": 250, "x_title": "pure_1000kbps", "y_labels_major_every": null, "logarithmic": false, "legends": ["qdelay", "txed(kbps)", "topo(kbps)"], "max_scale": 16, "print_zeroes": true, "no_data_text": "No data", "truncate_legend": null, "x_labels_major_every": null, "secondary_range": null, "legend_box_size": 12, "no_prefix": false, "stroke": true, "stack_from_top": false, "include_x_axis": false, "range": [0, 1500.0], "classes": ["pygal-chart"], "margin_top": null, "margin_left": null, "y_labels_major_count": null, "margin_bottom": null, "inverse_y_axis": false, "margin": 20, "allow_interruptions": false, "print_values_position": "center"}</script><script type="text/javascript" xlink:href="https://kozea.github.io/pygal.js/2.0.x/pygal-tooltips.min.js" /></defs><title>Pygal</title><g class="graph xy-graph vertical"><rect class="background" height="600" width="800" x="0" y="0" /><g class="plot" transform="translate(160, 20)"><rect class="background" height="514" width="620.0" x="0" y="0" /><g class="axis y always_show"><g class="guides"><path class="axis major line" d="M0.000000 504.115385 h620.000000" /><text class="major" x="-5" y="507.615384615">0</text><title>0</title></g><g class="guides"><path class="guide line" d="M0.000000 471.166667 h620.000000" /><text class="" x="-5" y="474.666666667">100</text><title>100</title></g><g class="guides"><path class="guide line" d="M0.000000 438.217949 h620.000000" /><text class="" x="-5" y="441.717948718">200</text><title>200</title></g><g class="guides"><path class="guide line" d="M0.000000 405.269231 h620.000000" /><text class="" x="-5" y="408.769230769">300</text><title>300</title></g><g class="guides"><path class="guide line" d="M0.000000 372.320513 h620.000000" /><text class="" x="-5" y="375.820512821">400</text><title>400</title></g><g class="guides"><path class="major guide line" d="M0.000000 339.371795 h620.000000" /><text class="major" x="-5" y="342.871794872">500</text><title>500</title></g><g class="guides"><path class="guide line" d="M0.000000 306.423077 h620.000000" /><text class="" x="-5" y="309.923076923">600</text><title>600</title></g><g class="guides"><path class="guide line" d="M0.000000 273.474359 h620.000000" /><text class="" x="-5" y="276.974358974">700</text><title>700</title></g><g class="guides"><path class="guide line" d="M0.000000 240.525641 h620.000000" /><text class="" x="-5" y="244.025641026">800</text><title>800</title></g><g class="guides"><path class="guide line" d="M0.000000 207.576923 h620.000000" /><text class="" x="-5" y="211.076923077">900</text><title>900</title></g><g class="guides"><path class="major guide line" d="M0.000000 174.628205 h620.000000" /><text class="major" x="-5" y="178.128205128">1000</text><title>1000</title></g><g class="guides"><path class="guide line" d="M0.000000 141.679487 h620.000000" /><text class="" x="-5" y="145.179487179">1100</text><title>1100</title></g><g class="guides"><path class="guide line" d="M0.000000 108.730769 h620.000000" /><text class="" x="-5" y="112.230769231">1200</text><title>1200</title></g><g class="guides"><path class="guide line" d="M0.000000 75.782051 h620.000000" /><text class="" x="-5" y="79.2820512821">1300</text><title>1300</title></g><g class="guides"><path class="guide line" d="M0.000000 42.833333 h620.000000" /><text class="" x="-5" y="46.3333333333">1400</text><title>1400</title></g><g class="guides"><path class="major guide line" d="M0.000000 9.884615 h620.000000" /><text class="major" x="-5" y="13.3846153846">1500</text><title>1500</title></g></g><g class="axis x"><path class="line" d="M0.000000 0.000000 v514.000000" /><g class="guides"><path class="guide line" d="M60.266553 0.000000 v514.000000" /><text class="" x="60.2665532504" y="529.0">10</text><title>10</title></g><g class="guides"><path class="guide line" d="M110.112357 0.000000 v514.000000" /><text class="" x="110.112357185" y="529.0">20</text><title>20</title></g><g class="guides"><path class="guide line" d="M159.958161 0.000000 v514.000000" /><text class="" x="159.958161121" y="529.0">30</text><title>30</title></g><g class="guides"><path class="guide line" d="M209.803965 0.000000 v514.000000" /><text class="" x="209.803965056" y="529.0">40</text><title>40</title></g><g class="guides"><path class="guide line" d="M259.649769 0.000000 v514.000000" /><text class="" x="259.649768991" y="529.0">50</text><title>50</title></g><g class="guides"><path class="guide line" d="M309.495573 0.000000 v514.000000" /><text class="" x="309.495572926" y="529.0">60</text><title>60</title></g><g class="guides"><path class="guide line" d="M359.341377 0.000000 v514.000000" /><text class="" x="359.341376861" y="529.0">70</text><title>70</title></g><g class="guides"><path class="guide line" d="M409.187181 0.000000 v514.000000" /><text class="" x="409.187180796" y="529.0">80</text><title>80</title></g><g class="guides"><path class="guide line" d="M459.032985 0.000000 v514.000000" /><text class="" x="459.032984731" y="529.0">90</text><title>90</title></g><g class="guides"><path class="guide line" d="M508.878789 0.000000 v514.000000" /><text class="" x="508.878788666" y="529.0">100</text><title>100</title></g><g class="guides"><path class="guide line" d="M558.724593 0.000000 v514.000000" /><text class="" x="558.724592601" y="529.0">110</text><title>110</title></g></g><g class="series serie-0 color-0"><path class="line reactive nofill" d="M11.923077 504.115385 L12.421216 504.115385 12.919514 504.115385 13.418132 503.456410 13.916590 504.115385 14.414889 502.797436 14.913506 502.797436 15.411810 502.797436 15.910417 502.797436 16.408726 502.467949 16.907483 504.115385 17.405642 502.467949 17.904249 504.115385 18.402558 503.456410 18.901165 502.467949 19.399624 502.467949 19.897932 502.467949 20.396540 502.467949 20.894998 502.138462 21.393456 504.115385 21.891764 502.467949 22.390372 503.785897 22.888830 504.115385 23.387288 504.115385 23.885746 502.138462 24.384204 503.456410 24.882512 502.467949 25.381120 502.467949 25.879428 502.467949 26.378036 503.126923 26.876494 503.785897 27.374952 502.797436 27.873261 502.138462 28.371868 504.115385 28.870326 501.808974 29.368635 501.808974 29.867242 503.456410 30.365700 501.479487 30.864158 503.785897 31.362467 502.138462 31.861074 503.456410 32.359682 504.115385 32.857991 501.479487 33.356449 503.785897 33.854757 501.808974 34.353365 503.785897 34.851673 501.479487 35.350430 503.785897 35.848739 503.785897 36.347197 504.115385 36.845954 502.467949 37.344262 503.126923 37.842721 502.138462 38.341179 502.797436 38.839487 502.138462 39.338244 503.785897 39.836702 503.456410 40.335160 503.785897 40.833469 503.456410 41.332076 503.785897 41.830385 502.797436 42.328992 503.785897 42.827301 502.467949 43.325759 502.138462 43.824217 502.797436 44.322825 503.126923 44.821133 502.797436 45.319591 503.785897 45.818049 502.138462 46.316657 502.467949 46.814816 502.467949 47.313423 502.797436 47.812031 502.467949 48.310489 502.467949 48.809146 504.115385 49.307604 503.785897 49.805863 503.126923 50.304321 502.467949 50.802978 503.785897 51.301237 503.785897 51.799695 504.115385 52.298153 501.808974 52.796811 503.785897 53.294920 501.150000 53.793876 501.479487 54.292185 503.785897 54.790443 503.456410 55.289101 502.138462 55.787359 502.797436 56.285818 503.785897 56.784276 503.126923 57.282584 503.785897 57.781042 503.126923 58.279650 502.138462 58.778108 502.138462 59.276915 503.785897 59.775223 504.115385 60.273532 503.785897 60.771990 503.126923 61.270448 501.479487 61.768906 501.808974 62.267364 501.808974 62.765822 502.467949 63.264280 503.785897 63.762738 502.797436 64.261196 503.456410 64.759654 502.797436 65.258611 504.115385 65.756570 502.797436 66.255028 503.456410 66.753486 503.126923 67.251944 503.126923 67.750901 500.491026 68.249359 503.456410 68.747318 503.126923 69.246275 503.456410 69.744234 503.456410 70.243191 503.456410 70.741150 503.456410 71.239609 503.456410 71.738565 503.456410 72.236525 502.797436 72.734983 503.785897 73.233441 502.467949 73.731899 503.126923 74.230357 503.785897 74.729313 503.126923 75.227771 503.785897 75.725731 503.456410 76.224687 502.138462 76.723145 501.808974 77.221603 503.785897 77.720061 503.456410 78.218520 501.808974 78.716978 503.126923 79.215436 503.785897 79.713894 503.785897 80.212352 501.150000 80.710810 503.456410 81.209268 503.456410 81.707726 503.456410 82.206184 503.785897 82.704642 502.797436 83.203100 503.126923 83.701060 503.456410 84.199518 503.126923 84.697976 502.138462 85.196932 501.479487 85.695390 502.138462 86.193350 502.138462 86.691808 502.467949 87.190764 502.797436 87.689222 501.808974 88.187680 502.138462 88.686138 503.456410 89.184596 500.161538 89.683054 501.808974 90.181512 503.785897 90.679971 501.808974 91.178429 501.479487 91.676887 500.820513 92.175345 502.138462 92.673803 501.479487 93.172261 502.797436 93.670719 501.808974 94.169177 502.797436 94.667635 500.820513 95.166093 502.797436 95.664551 501.479487 96.163009 498.514103 96.661467 495.878205 97.159925 496.207692 97.658383 501.150000 98.156841 500.820513 98.655299 501.479487 99.153757 502.138462 99.652215 500.820513 100.150673 498.184615 100.648633 502.138462 101.147589 502.797436 101.646047 503.456410 102.144505 503.785897 102.642963 499.832051 103.141422 497.196154 103.639880 497.525641 104.138338 492.253846 104.636796 491.594872 105.135254 490.276923 105.633712 488.958974 106.132170 489.288462 106.630628 474.132051 107.129086 467.212821 107.627544 466.224359 108.126002 468.201282 108.624460 501.150000 109.122420 503.785897 109.620878 502.797436 110.119336 502.797436 110.617794 503.785897 111.116252 502.138462 111.615208 503.785897 112.113666 499.173077 112.612124 503.456410 113.110582 503.456410 113.609040 499.502564 114.107498 501.479487 114.605458 502.467949 115.103916 502.797436 115.602872 502.138462 116.101331 501.150000 116.599789 503.785897 117.097748 503.456410 117.596705 502.467949 118.095163 502.467949 118.593621 503.785897 119.092079 503.785897 119.590537 501.150000 120.088995 498.514103 120.587453 502.467949 121.085412 503.456410 121.583871 501.808974 122.082827 502.138462 122.581285 503.126923 123.079743 496.866667 123.578201 503.456410 124.076659 502.467949 124.575117 502.797436 125.073077 503.785897 125.572033 503.456410 126.069993 502.797436 126.568451 502.467949 127.067407 501.150000 127.565865 501.150000 128.064323 501.479487 128.562283 503.785897 129.061240 502.138462 129.559698 499.502564 130.058156 495.878205 130.556614 499.832051 131.054573 501.150000 131.553031 503.456410 132.051988 503.785897 132.550446 502.467949 133.048904 498.184615 133.547362 492.912821 134.045820 503.456410 134.543780 501.808974 135.042736 501.808974 135.541194 502.467949 136.039652 501.479487 136.538110 502.138462 137.036568 499.173077 137.535026 494.560256 138.033484 496.537179 138.531942 490.935897 139.030400 485.993590 139.528858 484.346154 140.027316 489.947436 140.525774 479.403846 141.024232 477.426923 141.522691 480.721795 142.021149 485.993590 142.519607 498.514103 143.018065 503.126923 143.516523 501.808974 144.014981 503.785897 144.512940 502.467949 145.011897 501.479487 145.510355 503.456410 146.008813 498.514103 146.507271 491.594872 147.005729 500.161538 147.504187 503.126923 148.002147 503.785897 148.501103 501.150000 148.999561 501.479487 149.498019 501.808974 149.996477 503.126923 150.494935 503.456410 150.993393 502.797436 151.491851 502.138462 151.990309 503.456410 152.488767 501.479487 152.987225 501.479487 153.485683 503.126923 153.984142 503.456410 154.482600 502.797436 154.980559 503.456410 155.479516 501.479487 155.977475 503.126923 156.476432 501.479487 156.974890 503.456410 157.473348 502.797436 157.971806 503.126923 158.469765 503.785897 158.968223 502.797436 159.467180 501.479487 159.965638 501.479487 160.464096 494.560256 160.962554 499.832051 161.461012 501.808974 161.959470 502.138462 162.457928 503.126923 162.955888 502.467949 163.454346 502.138462 163.953302 501.479487 164.451262 503.785897 164.950218 503.456410 165.448178 503.456410 165.947134 500.161538 166.445593 495.219231 166.943552 502.797436 167.442010 502.138462 167.940967 503.126923 168.439425 500.820513 168.937883 502.138462 169.435842 502.797436 169.934799 501.150000 170.432758 503.456410 170.931715 501.808974 171.430173 502.138462 171.928132 502.467949 172.426591 503.126923 172.925049 503.785897 173.423507 503.126923 173.922463 501.150000 174.420921 500.820513 174.919379 500.820513 175.417837 501.479487 175.915797 502.138462 176.414753 501.479487 176.913211 503.785897 177.411669 501.479487 177.909629 502.467949 178.408585 502.797436 178.907043 502.138462 179.405502 501.479487 179.903960 502.138462 180.402418 502.797436 180.900876 503.785897 181.399334 495.878205 181.897792 499.832051 182.396250 503.126923 182.894708 502.467949 183.393166 501.479487 183.891624 502.467949 184.390082 502.138462 184.888042 501.808974 185.386500 502.797436 185.885456 502.467949 186.383914 502.797436 186.882372 503.126923 187.380830 502.797436 187.878790 503.785897 188.377746 503.126923 188.876204 498.184615 189.374662 488.958974 189.873120 495.548718 190.371578 497.855128 190.870036 502.467949 191.368494 502.467949 191.866953 502.467949 192.365411 503.456410 192.863869 503.456410 193.362327 502.467949 193.860286 501.479487 194.358744 502.467949 194.857202 503.785897 195.356159 503.785897 195.854617 500.491026 196.352576 503.126923 196.851533 504.115385 197.349492 503.456410 197.848449 503.456410 198.346907 493.242308 198.845365 498.843590 199.343823 497.855128 199.842281 502.797436 200.340241 503.785897 200.839197 503.126923 201.337157 502.797436 201.835615 503.785897 202.334571 503.456410 202.833029 501.808974 203.331487 498.843590 203.829945 501.808974 204.328403 503.456410 204.826862 503.126923 205.325320 501.808974 205.823778 501.479487 206.322236 498.843590 206.820694 496.207692 207.319152 503.456410 207.817610 503.126923 208.316068 502.467949 208.814526 501.479487 209.312485 503.456410 209.811442 503.456410 210.309900 503.126923 210.808358 499.832051 211.306816 500.491026 211.805274 503.456410 212.303732 503.126923 212.802190 499.832051 213.300648 499.832051 213.799106 502.467949 214.297066 503.456410 214.796022 501.808974 215.294480 502.797436 215.792440 503.126923 216.291396 503.456410 216.789854 504.115385 217.288313 499.832051 217.786771 499.832051 218.285229 503.456410 218.783188 501.479487 219.281646 502.797436 219.780603 500.161538 220.279061 497.855128 220.777519 497.855128 221.275977 502.138462 221.774435 503.456410 222.272893 501.150000 222.770852 503.456410 223.269311 502.467949 223.768267 503.456410 224.266725 497.855128 224.765183 491.265385 225.263641 496.537179 225.762099 498.843590 226.260059 503.456410 226.758517 502.797436 227.257473 502.138462 227.755931 500.820513 228.253891 503.456410 228.752349 502.797436 229.251305 503.785897 229.749764 503.126923 230.247723 503.126923 230.746181 501.808974 231.245138 501.479487 231.743596 502.138462 232.242054 503.785897 232.740512 502.467949 233.238970 501.808974 233.736929 503.785897 234.235886 503.785897 234.734344 503.126923 235.232802 501.808974 235.731260 501.150000 236.229718 503.126923 236.728176 500.491026 237.226634 502.467949 237.725092 502.138462 238.223550 501.479487 238.722008 501.479487 239.220466 501.479487 239.718924 503.456410 240.217382 504.115385 240.715840 503.126923 241.213800 502.138462 241.712258 502.467949 242.211214 503.456410 242.709174 501.479487 243.208131 498.843590 243.706589 494.230769 244.205047 496.207692 244.703505 500.161538 245.201464 502.138462 245.699922 502.138462 246.198879 503.126923 246.697337 502.797436 247.195795 503.456410 247.694253 501.808974 248.192711 501.479487 248.691169 503.126923 249.189627 502.138462 249.688085 499.502564 250.186543 502.797436 250.685001 502.797436 251.183459 501.808974 251.681419 502.797436 252.180375 500.161538 252.678833 503.126923 253.177291 502.797436 253.675749 501.479487 254.173709 503.126923 254.672167 503.126923 255.171124 501.808974 255.669582 503.126923 256.167541 502.797436 256.666498 503.456410 257.164956 501.479487 257.663414 499.173077 258.161872 502.797436 258.660330 501.479487 259.158289 503.785897 259.657246 500.161538 260.155704 501.479487 260.654162 503.126923 261.152620 502.797436 261.650580 502.138462 262.149536 502.138462 262.647994 501.479487 263.146452 501.150000 263.644910 503.126923 264.142870 503.785897 264.641826 503.785897 265.140284 501.808974 265.638742 497.525641 266.137200 500.161538 266.635658 500.161538 267.134116 502.138462 267.632574 501.479487 268.131033 495.548718 268.629491 489.288462 269.127949 486.982051 269.626407 477.097436 270.124865 484.016667 270.623323 487.311538 271.121781 491.924359 271.619740 502.138462 272.118697 503.126923 272.617155 503.456410 273.115114 503.126923 273.614071 503.456410 274.112529 501.808974 274.610987 503.456410 275.108947 501.808974 275.607405 502.467949 276.105863 503.456410 276.604819 501.479487 277.103277 502.797436 277.601237 503.785897 278.100193 503.126923 278.598153 502.138462 279.096611 503.456410 279.595567 497.855128 280.094025 500.491026 280.592484 502.467949 281.090942 500.161538 281.588901 501.479487 282.087858 503.456410 282.586316 501.150000 283.084774 501.150000 283.583232 503.785897 284.081690 502.797436 284.580148 499.502564 285.078606 502.467949 285.577064 503.456410 286.075522 502.138462 286.573980 499.502564 287.072438 497.855128 287.570896 502.797436 288.069354 503.126923 288.567812 503.126923 289.066270 503.126923 289.564728 501.479487 290.063186 498.514103 290.561644 503.785897 291.060102 502.467949 291.558560 502.467949 292.057018 500.820513 292.555476 503.785897 293.053934 503.785897 293.551894 503.456410 294.050851 501.479487 294.548810 503.785897 295.047268 503.456410 295.546225 502.797436 296.044683 502.797436 296.542642 503.456410 297.041599 502.797436 297.540057 500.491026 298.038016 501.808974 298.536973 503.126923 299.035431 503.785897 299.533889 501.479487 300.032347 503.785897 300.530805 501.479487 301.029263 501.808974 301.527721 501.479487 302.026179 497.525641 302.524637 503.126923 303.023095 503.126923 303.521553 501.808974 304.019513 501.479487 304.517971 502.138462 305.016927 502.797436 305.514887 502.467949 306.013844 503.126923 306.511803 503.456410 307.010261 503.785897 307.509218 501.479487 308.007676 500.491026 308.506134 501.479487 309.004093 502.467949 309.503050 502.797436 310.001508 503.785897 310.499966 503.456410 310.998424 501.150000 311.496882 498.514103 311.995340 499.832051 312.493798 493.571795 312.992256 491.265385 313.490714 500.161538 313.989172 503.456410 314.487630 502.797436 314.986088 493.901282 315.484546 495.548718 315.982506 502.797436 316.481462 502.138462 316.979920 501.479487 317.477880 503.785897 317.976338 503.456410 318.475295 503.456410 318.973254 503.126923 319.471712 503.456410 319.970170 503.126923 320.469127 502.797436 320.967585 503.456410 321.465544 503.126923 321.964501 503.456410 322.462959 502.138462 322.961417 501.479487 323.459376 502.467949 323.958333 500.820513 324.456293 503.456410 324.955249 500.491026 325.453707 501.479487 325.952165 502.797436 326.450125 503.785897 326.948583 502.797436 327.447041 504.115385 327.945499 503.785897 328.444455 503.126923 328.942913 502.797436 329.441371 502.138462 329.939331 503.456410 330.437789 503.785897 330.936745 501.808974 331.435204 502.138462 331.933662 504.115385 332.432120 501.479487 332.930578 502.467949 333.429036 501.479487 333.927494 499.832051 334.425952 501.479487 334.924410 503.126923 335.422868 501.479487 335.921326 502.467949 336.419285 502.467949 336.918242 501.150000 337.416700 497.525641 337.915158 503.126923 338.413616 501.808974 338.911576 503.785897 339.410532 502.467949 339.908990 499.832051 340.407448 495.219231 340.905906 493.901282 341.404364 486.652564 341.902822 485.664103 342.401280 490.276923 342.899738 495.878205 343.398196 501.150000 343.896655 504.115385 344.395113 503.785897 344.893571 502.797436 345.391530 502.467949 345.889988 502.467949 346.388945 502.797436 346.887403 503.126923 347.385861 502.138462 347.884319 502.467949 348.382777 502.467949 348.881235 503.126923 349.379194 503.785897 349.877653 503.456410 350.376111 503.456410 350.875067 501.808974 351.373525 500.491026 351.871983 501.479487 352.370441 503.126923 352.868899 502.467949 353.367357 501.150000 353.865815 503.126923 354.363775 503.785897 354.862731 501.808974 355.361189 503.785897 355.859647 502.797436 356.357607 502.138462 356.856564 502.797436 357.355022 496.207692 357.853480 502.797436 358.351439 502.138462 358.850396 503.126923 359.348854 503.456410 359.847312 502.797436 360.345770 498.843590 360.844228 498.843590 361.342686 502.797436 361.841144 501.808974 362.339104 503.126923 362.838060 502.797436 363.336518 500.820513 363.834478 501.808974 364.333434 503.785897 364.831394 502.138462 365.330350 501.479487 365.828808 503.456410 366.326768 502.467949 366.825724 501.808974 367.324182 502.467949 367.822640 501.808974 368.321098 503.456410 368.819556 503.456410 369.318015 500.161538 369.816473 499.173077 370.314432 502.138462 370.813389 502.138462 371.311348 501.479487 371.810305 502.138462 372.308763 502.467949 372.807221 494.889744 373.305679 487.970513 373.804137 503.456410 374.302595 502.467949 374.800554 503.785897 375.299013 502.467949 375.797969 499.502564 376.296427 499.832051 376.794885 497.525641 377.293343 500.491026 377.791303 501.808974 378.289761 503.456410 378.788717 503.785897 379.286677 503.456410 379.785135 502.138462 380.284091 500.820513 380.782051 503.785897 381.281007 501.479487 381.779466 502.138462 382.277924 502.797436 382.776382 499.173077 383.274840 496.537179 383.773298 502.467949 384.271756 501.808974 384.770214 501.479487 385.268672 503.126923 385.767130 502.467949 386.265588 503.126923 386.764046 502.467949 387.262504 502.138462 387.760962 500.820513 388.259420 502.467949 388.757878 501.479487 389.256336 500.491026 389.754794 503.785897 390.253252 503.126923 390.751710 500.491026 391.250168 502.467949 391.748128 501.808974 392.247084 502.467949 392.745542 502.797436 393.244000 503.126923 393.742458 501.808974 394.240916 494.889744 394.739375 501.808974 395.237833 502.797436 395.735792 501.808974 396.234749 502.467949 396.733207 503.456410 397.231665 501.808974 397.730123 502.467949 398.228581 499.832051 398.727039 501.479487 399.225497 502.138462 399.723456 502.138462 400.222413 501.479487 400.720871 500.820513 401.219329 502.138462 401.717289 503.785897 402.216245 502.138462 402.714703 503.456410 403.213161 503.126923 403.711121 503.456410 404.209579 501.808974 404.708535 502.467949 405.206993 502.797436 405.704953 503.785897 406.203909 503.126923 406.701869 502.138462 407.200826 501.150000 407.698785 501.808974 408.197742 503.456410 408.696200 500.491026 409.194658 499.502564 409.693116 502.797436 410.191574 504.115385 410.689533 501.808974 411.188490 502.138462 411.686948 497.855128 412.185406 503.785897 412.683365 503.785897 413.182322 502.467949 413.680282 503.126923 414.178740 501.808974 414.677696 502.797436 415.176154 494.230769 415.674612 493.571795 416.173070 500.491026 416.671528 503.785897 417.169488 503.126923 417.668444 500.820513 418.166902 502.467949 418.664862 502.797436 419.163320 503.785897 419.662276 503.785897 420.160735 503.456410 420.659193 503.126923 421.157651 499.832051 421.656109 502.467949 422.154567 503.126923 422.652526 502.797436 423.150984 502.138462 423.649442 504.115385 424.147900 503.126923 424.646358 503.126923 425.145315 502.467949 425.643275 501.479487 426.142231 503.126923 426.640191 503.126923 427.138649 503.785897 427.637605 502.467949 428.136063 499.502564 428.634521 503.126923 429.132481 502.467949 429.631437 503.126923 430.129397 503.785897 430.627855 503.785897 431.126313 502.138462 431.624771 502.138462 432.123229 501.808974 432.622186 501.479487 433.120644 503.126923 433.618603 503.456410 434.117560 502.797436 434.616018 501.808974 435.114476 503.456410 435.612934 503.456410 436.110893 503.126923 436.609850 503.785897 437.108308 502.467949 437.606766 498.843590 438.105224 501.150000 438.603682 501.479487 439.102140 498.843590 439.600598 501.808974 440.099056 503.126923 440.597016 503.456410 441.095474 503.126923 441.594430 503.456410 442.092390 503.785897 442.591346 502.797436 443.089306 501.808974 443.587764 503.456410 444.086720 501.150000 444.585178 501.479487 445.083636 503.785897 445.581596 502.138462 446.080553 501.808974 446.579011 501.479487 447.077469 502.467949 447.575428 502.467949 448.073886 503.126923 448.572344 501.479487 449.071301 501.808974 449.569759 503.456410 450.068217 503.456410 450.566675 503.126923 451.064635 503.785897 451.563591 501.808974 452.062049 502.138462 452.560009 501.808974 453.058965 503.126923 453.557423 502.467949 454.055881 503.785897 454.554339 502.138462 455.052797 499.832051 455.551255 500.161538 456.049713 497.855128 456.548171 503.785897 457.046629 501.808974 457.545087 501.808974 458.043546 501.808974 458.541505 503.785897 459.039963 502.797436 459.538421 503.456410 460.037378 499.173077 460.535836 500.820513 461.033795 502.797436 461.532752 503.456410 462.031210 501.808974 462.529668 500.820513 463.028126 503.456410 463.526085 502.467949 464.025042 503.126923 464.523500 501.808974 465.021460 503.456410 465.520416 502.138462 466.018874 503.126923 466.516834 502.467949 467.015292 502.797436 467.513750 502.797436 468.012706 503.126923 468.510666 501.479487 469.009124 502.797436 469.508080 496.207692 470.006538 492.583333 470.504997 501.150000 471.003455 500.820513 471.501913 486.982051 472.000371 501.479487 472.498829 500.161538 472.996788 503.785897 473.495745 503.785897 473.993704 502.797436 474.492661 498.184615 474.991119 500.820513 475.489078 502.467949 475.988035 502.797436 476.486493 502.467949 476.984453 503.126923 477.483409 503.126923 477.981369 501.479487 478.480325 502.797436 478.978783 503.785897 479.476743 503.456410 479.975699 501.808974 480.474157 503.456410 480.972615 502.467949 481.471073 496.207692 481.969531 497.855128 482.467989 504.115385 482.966447 501.150000 483.464906 494.560256 483.963364 501.150000 484.461822 502.138462 484.960280 502.797436 485.458738 503.785897 485.956697 501.808974 486.455155 502.467949 486.954112 502.138462 487.452570 503.456410 487.950529 503.785897 488.449486 502.138462 488.947944 501.479487 489.445904 503.126923 489.944362 503.785897 490.443318 501.150000 490.941776 502.467949 491.440234 503.785897 491.938692 502.797436 492.437150 503.456410 492.935608 502.467949 493.433568 503.785897 493.932026 502.467949 494.430982 501.808974 494.929440 503.126923 495.427400 504.115385 495.926357 501.808974 496.424815 502.467949 496.923273 503.785897 497.421731 501.150000 497.919690 503.785897 498.418148 502.467949 498.917105 503.456410 499.415064 503.126923 499.914021 500.491026 500.412479 497.525641 500.910937 502.138462 501.409395 502.797436 501.907355 502.138462 502.406311 502.797436 502.904271 503.456410 503.402729 502.467949 503.901685 502.797436 504.400143 502.467949 504.898103 503.456410 505.396561 503.456410 505.895019 503.126923 506.393477 502.797436 506.892433 502.467949 507.390891 501.479487 507.888851 503.126923 508.387807 501.479487 508.883773 501.808974 509.382231 503.456410 509.880689 503.785897 510.379147 503.456410 510.877605 503.785897 511.376063 503.785897 511.874521 503.456410 512.372980 502.797436 512.871438 502.797436 513.369896 502.138462 513.868354 500.161538 514.366812 501.150000 514.865270 494.230769 515.363728 503.785897 515.862186 502.138462 516.360644 500.491026 516.859102 502.797436 517.357560 502.467949 517.856018 502.467949 518.354476 500.820513 518.852934 502.797436 519.351392 501.808974 519.849850 501.808974 520.348308 503.126923 520.846766 502.797436 521.345224 503.785897 521.843682 502.138462 522.342140 502.138462 522.840598 503.456410 523.339056 503.126923 523.837514 503.126923 524.335972 500.820513 524.834431 502.467949 525.332889 497.855128 525.831347 502.797436 526.329805 504.115385 526.828263 502.138462 527.326721 502.138462 527.825179 501.479487 528.323637 503.785897 528.822095 503.456410 529.320553 503.785897 529.819011 503.785897 530.317469 503.126923 530.815927 503.126923 531.314385 502.467949 531.812843 504.115385 532.311301 501.150000 532.809759 497.196154 533.308217 502.138462 533.806675 503.456410 534.305133 502.797436 534.803591 502.467949 535.302049 503.785897 535.800507 502.797436 536.298965 502.797436 536.797423 502.797436 537.295881 501.479487 537.794340 502.138462 538.292798 503.456410 538.791256 503.785897 539.289714 502.138462 539.788172 503.785897 540.286630 502.467949 540.785088 503.456410 541.283546 503.126923 541.782004 500.491026 542.280462 501.479487 542.778920 502.797436 543.277378 503.785897 543.775836 501.479487 544.274294 503.785897 544.772752 498.843590 545.271210 498.843590 545.769668 501.808974 546.268126 503.785897 546.766584 503.785897 547.265042 498.514103 547.763500 501.479487 548.261958 503.456410 548.760416 501.479487 549.258874 502.467949 549.757332 502.467949 550.255791 503.456410 550.754249 503.456410 551.252707 499.173077 551.751165 502.797436 552.249623 503.785897 552.748081 503.785897 553.246539 501.479487 553.744997 502.797436 554.243455 502.138462 554.741913 501.479487 555.240371 495.878205 555.738829 499.173077 556.237287 503.785897 556.735745 501.479487 557.234203 499.832051 557.732661 494.560256 558.231119 494.889744 558.729577 499.502564 559.228035 503.126923 559.726493 501.808974 560.224951 503.785897 560.723409 503.126923 561.221867 502.467949 561.720325 501.808974 562.218783 501.808974 562.717241 503.456410 563.215700 501.479487 563.714158 502.138462 564.212616 502.467949 564.711074 501.808974 565.209532 502.797436 565.707990 503.126923 566.206448 503.456410 566.704906 501.479487 567.203364 501.479487 567.701822 503.456410 568.200280 503.785897 568.698738 503.785897 569.197196 502.467949 569.695654 503.456410 570.194112 501.479487 570.692570 502.467949 571.191028 501.479487 571.689486 502.467949 572.187944 501.150000 572.686402 500.820513 573.184860 501.808974 573.683318 502.797436 574.181776 500.820513 574.680234 503.456410 575.178692 502.467949 575.677151 503.456410 576.175609 502.797436 576.674067 503.126923 577.172525 503.785897 577.670983 503.126923 578.169441 502.797436 578.667899 501.808974 579.166357 501.808974 579.664815 503.456410 580.163273 503.456410 580.661731 502.467949 581.160189 501.808974 581.658647 502.797436 582.157105 501.808974 582.655563 503.785897 583.154021 503.785897 583.652479 501.479487 584.150937 502.467949 584.649395 502.138462 585.147853 499.832051 585.646311 494.889744 586.144769 491.594872 586.648212 491.924359 587.141685 491.265385 587.640143 483.687179 588.138602 488.958974 588.637060 487.970513 589.135518 498.514103 589.633976 497.196154 590.132434 503.126923 590.630892 503.126923 591.129350 502.138462 591.627808 502.797436 592.126266 503.126923 592.624724 503.785897 593.123182 502.138462 593.621640 503.456410 594.120098 502.467949 594.618556 502.797436 595.117014 502.797436 595.615472 501.150000 596.113930 503.456410 596.612388 502.797436 597.110846 503.456410 597.609304 502.797436 598.107762 502.138462 598.606220 502.797436 599.104678 501.479487 599.603136 501.808974 600.101594 502.467949 600.600052 501.808974 601.098511 501.479487 601.596969 495.878205 602.095427 497.855128 602.593885 502.467949 603.092343 502.797436 603.590801 502.797436 604.089259 502.797436 604.587717 502.138462 605.086175 502.467949 605.584633 501.808974 606.083091 502.138462 606.581549 502.797436 607.080007 501.479487 607.578465 503.456410 608.076923 503.456410" /></g><g class="series serie-1 color-1"><path class="line reactive nofill" d="M11.923077 374.297436 L12.421216 474.132051 12.919514 487.970513 13.418132 452.385897 13.916590 451.397436 14.414889 464.576923 14.913506 443.160256 15.411810 463.588462 15.910417 438.876923 16.408726 457.987179 16.907483 405.598718 17.405642 464.576923 17.904249 429.651282 18.402558 469.189744 18.901165 438.547436 19.399624 443.819231 19.897932 464.247436 20.396540 445.466667 20.894998 431.957692 21.393456 456.998718 21.891764 462.600000 22.390372 486.982051 22.888830 430.639744 23.387288 464.576923 23.885746 436.570513 24.384204 448.102564 24.882512 458.975641 25.381120 443.160256 25.879428 462.929487 26.378036 449.420513 26.876494 451.726923 27.374952 452.715385 27.873261 441.512821 28.371868 431.628205 28.870326 434.264103 29.368635 456.998718 29.867242 423.391026 30.365700 429.651282 30.864158 442.171795 31.362467 461.941026 31.861074 425.697436 32.359682 423.391026 32.857991 428.662821 33.356449 454.362821 33.854757 455.351282 34.353365 429.980769 34.851673 452.715385 35.350430 428.662821 35.848739 454.692308 36.347197 436.900000 36.845954 338.712821 37.344262 381.546154 37.842721 384.511538 38.341179 379.898718 38.839487 414.494872 39.338244 335.417949 39.836702 354.857692 40.335160 364.083333 40.833469 400.326923 41.332076 367.707692 41.830385 390.112821 42.328992 372.650000 42.827301 383.852564 43.325759 396.702564 43.824217 384.182051 44.322825 297.526923 44.821133 385.829487 45.319591 374.626923 45.818049 364.083333 46.316657 363.753846 46.814816 421.414103 47.313423 398.350000 47.812031 319.932051 48.310489 317.296154 48.809146 318.943590 49.307604 313.671795 49.805863 362.106410 50.304321 338.712821 50.802978 292.584615 51.301237 329.487179 51.799695 342.996154 52.298153 300.821795 52.796811 296.538462 53.294920 293.243590 53.793876 299.833333 54.292185 292.584615 54.790443 301.151282 55.289101 294.561538 55.787359 321.579487 56.285818 337.394872 56.784276 359.141026 57.282584 342.996154 57.781042 397.032051 58.279650 304.775641 58.778108 334.100000 59.276915 270.508974 59.775223 293.902564 60.273532 298.185897 60.771990 367.707692 61.270448 252.387179 61.768906 293.573077 62.267364 326.851282 62.765822 342.337179 63.264280 290.607692 63.762738 260.294872 64.261196 317.296154 64.759654 313.342308 65.258611 282.700000 65.756570 293.902564 66.255028 275.780769 66.753486 303.457692 67.251944 224.380769 67.750901 189.784615 68.249359 312.353846 68.747318 268.532051 69.246275 254.034615 69.744234 342.666667 70.243191 275.780769 70.741150 285.665385 71.239609 328.498718 71.738565 255.682051 72.236525 285.006410 72.734983 286.653846 73.233441 256.011538 73.731899 296.208974 74.230357 308.400000 74.729313 249.421795 75.227771 260.953846 75.725731 276.439744 76.224687 181.217949 76.723145 199.339744 77.221603 200.328205 77.720061 207.247436 78.218520 199.669231 78.716978 217.132051 79.215436 260.953846 79.713894 280.393590 80.212352 210.212821 80.710810 250.080769 81.209268 231.958974 81.707726 236.242308 82.206184 207.247436 82.704642 197.033333 83.203100 270.838462 83.701060 284.017949 84.199518 350.244872 84.697976 310.376923 85.196932 216.473077 85.695390 235.912821 86.193350 253.705128 86.691808 254.364103 87.190764 244.150000 87.689222 236.901282 88.187680 240.855128 88.686138 219.108974 89.184596 176.934615 89.683054 239.537179 90.181512 257.988462 90.679971 187.148718 91.178429 167.708974 91.676887 246.785897 92.175345 204.611538 92.673803 201.316667 93.172261 221.415385 93.670719 219.767949 94.169177 231.958974 94.667635 179.900000 95.166093 235.912821 95.664551 152.552564 96.163009 178.582051 96.661467 183.194872 97.159925 172.980769 97.658383 241.514103 98.156841 161.119231 98.655299 250.080769 99.153757 192.750000 99.652215 136.737179 100.150673 207.576923 100.648633 259.635897 101.147589 257.658974 101.646047 191.761538 102.144505 253.375641 102.642963 144.315385 103.141422 168.038462 103.639880 164.084615 104.138338 112.684615 104.636796 194.067949 105.135254 147.610256 105.633712 201.975641 106.132170 68.862821 106.630628 -35.255128 107.129086 227.675641 107.627544 174.628205 108.126002 189.455128 108.624460 361.776923 109.122420 385.500000 109.620878 352.880769 110.119336 258.317949 110.617794 255.682051 111.116252 274.792308 111.615208 240.525641 112.113666 159.471795 112.612124 227.675641 113.110582 217.132051 113.609040 169.685897 114.107498 239.207692 114.605458 306.093590 115.103916 251.728205 115.602872 179.570513 116.101331 205.600000 116.599789 219.108974 117.097748 306.752564 117.596705 205.929487 118.095163 231.958974 118.593621 246.456410 119.092079 231.300000 119.590537 143.326923 120.088995 120.262821 120.587453 338.712821 121.085412 282.370513 121.583871 250.080769 122.082827 223.392308 122.581285 173.310256 123.079743 99.175641 123.578201 325.533333 124.076659 178.911538 124.575117 291.266667 125.073077 272.815385 125.572033 224.051282 126.069993 260.953846 126.568451 276.110256 127.067407 131.794872 127.565865 281.711538 128.064323 201.975641 128.562283 279.405128 129.061240 177.264103 129.559698 179.900000 130.058156 108.071795 130.556614 235.253846 131.054573 297.526923 131.553031 311.035897 132.051988 245.797436 132.550446 209.224359 133.048904 115.650000 133.547362 200.987179 134.045820 281.382051 134.543780 271.826923 135.042736 220.426923 135.541194 217.461538 136.039652 211.530769 136.538110 208.565385 137.036568 171.333333 137.535026 152.223077 138.033484 97.857692 138.531942 117.297436 139.030400 176.605128 139.528858 209.553846 140.027316 165.073077 140.525774 112.025641 141.024232 225.369231 141.522691 198.351282 142.021149 275.121795 142.519607 257.988462 143.018065 267.873077 143.516523 227.016667 144.014981 285.006410 144.512940 257.000000 145.011897 228.005128 145.510355 198.021795 146.008813 84.348718 146.507271 157.494872 147.005729 202.964103 147.504187 309.717949 148.002147 264.907692 148.501103 151.564103 148.999561 272.485897 149.498019 200.987179 149.996477 226.028205 150.494935 196.374359 150.993393 248.433333 151.491851 205.270513 151.990309 224.710256 152.488767 219.438462 152.987225 193.408974 153.485683 230.970513 153.984142 247.444872 154.482600 219.767949 154.980559 322.897436 155.479516 222.733333 155.977475 261.283333 156.476432 242.173077 156.974890 286.983333 157.473348 230.970513 157.971806 251.728205 158.469765 310.376923 158.968223 268.861538 159.467180 187.478205 159.965638 175.616667 160.464096 227.016667 160.962554 222.733333 161.461012 253.046154 161.959470 225.698718 162.457928 247.774359 162.955888 337.724359 163.454346 231.629487 163.953302 203.623077 164.451262 308.400000 164.950218 235.912821 165.448178 246.785897 165.947134 116.638462 166.445593 208.235897 166.943552 308.070513 167.442010 359.141026 167.940967 215.484615 168.439425 160.789744 168.937883 258.317949 169.435842 301.151282 169.934799 192.091026 170.432758 312.024359 170.931715 199.339744 171.430173 237.889744 171.928132 267.214103 172.426591 264.248718 172.925049 355.516667 173.423507 325.862821 173.922463 215.155128 174.420921 240.855128 174.919379 158.153846 175.417837 249.421795 175.915797 255.023077 176.414753 215.814103 176.913211 261.612821 177.411669 201.646154 177.909629 259.306410 178.408585 200.987179 178.907043 213.837179 179.405502 168.697436 179.903960 223.392308 180.402418 246.456410 180.900876 224.051282 181.399334 152.223077 181.897792 280.393590 182.396250 245.797436 182.894708 213.507692 183.393166 219.767949 183.891624 248.762821 184.390082 178.911538 184.888042 263.919231 185.386500 266.884615 185.885456 207.247436 186.383914 207.576923 186.882372 213.178205 187.380830 219.438462 187.878790 381.546154 188.377746 194.397436 188.876204 55.353846 189.374662 202.305128 189.873120 245.797436 190.371578 228.334615 190.870036 253.375641 191.368494 205.270513 191.866953 213.178205 192.365411 217.461538 192.863869 177.264103 193.362327 274.792308 193.860286 252.716667 194.358744 315.978205 194.857202 356.834615 195.356159 195.056410 195.854617 237.560256 196.352576 268.861538 196.851533 232.288462 197.349492 245.797436 197.848449 190.773077 198.346907 188.137179 198.845365 214.825641 199.343823 167.708974 199.842281 268.861538 200.340241 304.775641 200.839197 247.774359 201.337157 270.179487 201.835615 287.642308 202.334571 285.006410 202.833029 183.524359 203.331487 223.392308 203.829945 212.848718 204.328403 216.143590 204.826862 216.143590 205.325320 249.751282 205.823778 185.830769 206.322236 139.373077 206.820694 216.473077 207.319152 253.046154 207.817610 274.462821 208.316068 228.005128 208.814526 213.837179 209.312485 292.255128 209.811442 217.461538 210.309900 177.593590 210.808358 187.807692 211.306816 176.934615 211.805274 261.942308 212.303732 230.641026 212.802190 206.917949 213.300648 143.985897 213.799106 265.237179 214.297066 242.832051 214.796022 217.132051 215.294480 227.675641 215.792440 312.024359 216.291396 257.000000 216.789854 237.889744 217.288313 148.598718 217.786771 204.941026 218.285229 220.756410 218.783188 239.537179 219.281646 259.635897 219.780603 165.073077 220.279061 90.608974 220.777519 254.034615 221.275977 278.746154 221.774435 249.092308 222.272893 246.456410 222.770852 276.110256 223.269311 304.116667 223.768267 197.362821 224.266725 103.458974 224.765183 166.061538 225.263641 251.069231 225.762099 233.935897 226.260059 353.210256 226.758517 311.365385 227.257473 211.530769 227.755931 165.402564 228.253891 305.764103 228.752349 291.266667 229.251305 287.312821 229.749764 229.982051 230.247723 272.485897 230.746181 249.092308 231.245138 159.471795 231.743596 236.242308 232.242054 213.837179 232.740512 200.657692 233.238970 212.519231 233.736929 303.787179 234.235886 265.237179 234.734344 233.276923 235.232802 232.617949 235.731260 167.708974 236.229718 242.502564 236.728176 185.171795 237.226634 223.392308 237.725092 200.657692 238.223550 214.496154 238.722008 188.466667 239.220466 184.842308 239.718924 258.317949 240.217382 257.658974 240.715840 255.682051 241.213800 283.029487 241.712258 257.988462 242.211214 225.369231 242.709174 213.507692 243.208131 112.684615 243.706589 196.703846 244.205047 196.374359 244.703505 246.785897 245.201464 277.428205 245.699922 248.762821 246.198879 242.502564 246.697337 206.917949 247.195795 266.884615 247.694253 160.789744 248.192711 249.751282 248.691169 215.484615 249.189627 172.651282 249.688085 182.206410 250.186543 222.733333 250.685001 262.271795 251.183459 223.062821 251.681419 268.532051 252.180375 160.130769 252.678833 258.317949 253.177291 207.906410 253.675749 164.414103 254.173709 297.197436 254.672167 299.503846 255.171124 184.512821 255.669582 238.548718 256.167541 343.325641 256.666498 239.537179 257.164956 164.084615 257.663414 136.737179 258.161872 305.764103 258.660330 253.046154 259.158289 275.780769 259.657246 136.407692 260.155704 232.947436 260.654162 288.960256 261.152620 225.039744 261.650580 218.779487 262.149536 210.212821 262.647994 243.491026 263.146452 286.983333 263.644910 220.097436 264.142870 290.937179 264.641826 199.339744 265.140284 164.414103 265.638742 62.932051 266.137200 295.550000 266.635658 178.911538 267.134116 276.769231 267.632574 136.737179 268.131033 81.053846 268.629491 187.478205 269.127949 64.579487 269.626407 184.512821 270.124865 230.311538 270.623323 216.143590 271.121781 222.403846 271.619740 355.846154 272.118697 234.594872 272.617155 233.935897 273.115114 316.637179 273.614071 206.917949 274.112529 177.264103 274.610987 269.191026 275.108947 357.823077 275.607405 330.805128 276.105863 298.844872 276.604819 194.726923 277.103277 239.866667 277.601237 313.671795 278.100193 216.802564 278.598153 252.387179 279.096611 219.108974 279.595567 163.096154 280.094025 229.652564 280.592484 187.807692 281.090942 166.061538 281.588901 247.444872 282.087858 256.670513 282.586316 160.460256 283.084774 226.357692 283.583232 267.214103 284.081690 187.148718 284.580148 194.726923 285.078606 224.710256 285.577064 272.156410 286.075522 160.460256 286.573980 163.425641 287.072438 250.410256 287.570896 231.958974 288.069354 183.853846 288.567812 228.664103 289.066270 271.497436 289.564728 164.414103 290.063186 210.871795 290.561644 236.571795 291.060102 170.344872 291.558560 239.207692 292.057018 180.229487 292.555476 262.930769 293.053934 258.976923 293.551894 333.770513 294.050851 202.964103 294.548810 319.273077 295.047268 275.451282 295.546225 150.246154 296.044683 271.497436 296.542642 303.128205 297.041599 181.217949 297.540057 230.311538 298.038016 262.930769 298.536973 230.311538 299.035431 234.594872 299.533889 181.217949 300.032347 198.680769 300.530805 249.092308 301.029263 252.057692 301.527721 186.160256 302.026179 166.720513 302.524637 241.843590 303.023095 249.421795 303.521553 228.664103 304.019513 246.785897 304.517971 258.317949 305.016927 228.334615 305.514887 235.583333 306.013844 271.497436 306.511803 271.167949 307.010261 292.255128 307.509218 199.010256 308.007676 182.206410 308.506134 177.264103 309.004093 277.757692 309.503050 236.901282 310.001508 234.924359 310.499966 231.300000 310.998424 155.517949 311.496882 225.369231 311.995340 132.453846 312.493798 132.453846 312.992256 241.843590 313.490714 202.634615 313.989172 259.965385 314.487630 169.356410 314.986088 155.517949 315.484546 194.726923 315.982506 319.273077 316.481462 210.871795 316.979920 215.155128 317.477880 257.329487 317.976338 263.589744 318.475295 221.744872 318.973254 303.457692 319.471712 293.573077 319.970170 312.353846 320.469127 227.346154 320.967585 232.288462 321.465544 287.971795 321.964501 253.375641 322.462959 205.600000 322.961417 266.555128 323.459376 208.235897 323.958333 290.278205 324.456293 268.532051 324.955249 159.142308 325.453707 275.451282 325.952165 154.529487 326.450125 291.596154 326.948583 312.024359 327.447041 287.971795 327.945499 241.514103 328.444455 318.284615 328.942913 243.491026 329.441371 207.906410 329.939331 289.948718 330.437789 284.017949 330.936745 204.282051 331.435204 226.687179 331.933662 226.357692 332.432120 239.537179 332.930578 226.687179 333.429036 179.241026 333.927494 158.812821 334.425952 220.097436 334.924410 273.474359 335.422868 218.779487 335.921326 218.779487 336.419285 283.688462 336.918242 158.153846 337.416700 211.530769 337.915158 243.491026 338.413616 165.402564 338.911576 283.358974 339.410532 182.206410 339.908990 128.170513 340.407448 197.362821 340.905906 125.864103 341.404364 186.489744 341.902822 154.529487 342.401280 225.369231 342.899738 246.785897 343.398196 234.265385 343.896655 265.896154 344.395113 257.988462 344.893571 209.224359 345.391530 302.798718 345.889988 253.705128 346.388945 234.594872 346.887403 215.484615 347.385861 234.924359 347.884319 214.166667 348.382777 232.617949 348.881235 228.005128 349.379194 280.064103 349.877653 284.017949 350.376111 333.111538 350.875067 199.339744 351.373525 211.201282 351.871983 228.664103 352.370441 197.362821 352.868899 249.092308 353.367357 179.241026 353.865815 209.883333 354.363775 311.365385 354.862731 202.634615 355.361189 264.248718 355.859647 239.537179 356.357607 241.514103 356.856564 130.806410 357.355022 238.548718 357.853480 271.167949 358.351439 231.958974 358.850396 224.051282 359.348854 272.485897 359.847312 238.219231 360.345770 145.633333 360.844228 225.369231 361.342686 237.230769 361.841144 226.357692 362.339104 305.434615 362.838060 229.652564 363.336518 196.374359 363.834478 247.444872 364.333434 267.873077 364.831394 281.711538 365.330350 206.258974 365.828808 228.334615 366.326768 265.896154 366.825724 162.107692 367.324182 235.912821 367.822640 177.264103 368.321098 268.202564 368.819556 185.830769 369.318015 165.073077 369.816473 210.212821 370.314432 254.693590 370.813389 204.282051 371.311348 242.832051 371.810305 285.006410 372.308763 127.511538 372.807221 17.792308 373.305679 254.364103 373.804137 261.612821 374.302595 266.884615 374.800554 293.573077 375.299013 265.896154 375.797969 124.216667 376.296427 182.865385 376.794885 183.524359 377.293343 237.560256 377.791303 260.953846 378.289761 292.255128 378.788717 232.617949 379.286677 345.961538 379.785135 282.370513 380.284091 203.293590 380.782051 327.510256 381.281007 205.270513 381.779466 220.756410 382.277924 237.560256 382.776382 129.488462 383.274840 200.328205 383.773298 285.006410 384.271756 212.848718 384.770214 187.148718 385.268672 260.953846 385.767130 213.837179 386.265588 192.091026 386.764046 240.525641 387.262504 170.674359 387.760962 187.478205 388.259420 220.756410 388.757878 130.147436 389.256336 216.473077 389.754794 268.861538 390.253252 202.305128 390.751710 145.962821 391.250168 250.080769 391.748128 255.023077 392.247084 159.142308 392.745542 266.555128 393.244000 244.479487 393.742458 118.944872 394.240916 168.697436 394.739375 294.232051 395.237833 225.039744 395.735792 218.450000 396.234749 275.451282 396.733207 264.248718 397.231665 228.334615 397.730123 160.130769 398.228581 222.074359 398.727039 238.878205 399.225497 214.496154 399.723456 283.358974 400.222413 173.639744 400.720871 214.166667 401.219329 245.797436 401.717289 286.653846 402.216245 249.092308 402.714703 193.738462 403.213161 254.034615 403.711121 293.573077 404.209579 289.619231 404.708535 226.357692 405.206993 235.912821 405.704953 323.226923 406.203909 257.329487 406.701869 276.110256 407.200826 181.876923 407.698785 307.082051 408.197742 235.912821 408.696200 156.506410 409.194658 188.796154 409.693116 238.548718 410.191574 250.410256 410.689533 288.301282 411.188490 157.165385 411.686948 229.652564 412.185406 282.700000 412.683365 269.520513 413.182322 243.820513 413.680282 251.398718 414.178740 272.485897 414.677696 140.691026 415.176154 174.957692 415.674612 227.346154 416.173070 220.426923 416.671528 213.507692 417.169488 379.569231 417.668444 216.802564 418.166902 199.669231 418.664862 324.544872 419.163320 267.214103 419.662276 273.144872 420.160735 215.814103 420.659193 227.016667 421.157651 169.356410 421.656109 235.583333 422.154567 217.791026 422.652526 283.358974 423.150984 246.456410 423.649442 318.284615 424.147900 282.041026 424.646358 254.034615 425.145315 222.403846 425.643275 228.005128 426.142231 234.924359 426.640191 262.271795 427.138649 294.561538 427.637605 205.270513 428.136063 133.771795 428.634521 353.869231 429.132481 227.346154 429.631437 293.573077 430.129397 281.382051 430.627855 262.271795 431.126313 304.446154 431.624771 256.341026 432.123229 340.030769 432.622186 232.947436 433.120644 236.901282 433.618603 311.694872 434.117560 228.664103 434.616018 212.848718 435.114476 249.092308 435.612934 272.815385 436.110893 286.324359 436.609850 198.680769 437.108308 193.408974 437.606766 182.535897 438.105224 243.161538 438.603682 189.784615 439.102140 121.251282 439.600598 281.711538 440.099056 238.219231 440.597016 331.134615 441.095474 231.300000 441.594430 315.648718 442.092390 263.260256 442.591346 229.982051 443.089306 277.098718 443.587764 306.423077 444.086720 165.073077 444.585178 199.998718 445.083636 270.179487 445.581596 285.006410 446.080553 204.282051 446.579011 207.906410 447.077469 226.687179 447.575428 256.670513 448.073886 285.335897 448.572344 247.774359 449.071301 255.352564 449.569759 265.237179 450.068217 252.057692 450.566675 210.212821 451.064635 281.382051 451.563591 227.346154 452.062049 257.658974 452.560009 256.011538 453.058965 285.994872 453.557423 244.808974 454.055881 254.364103 454.554339 167.050000 455.052797 224.380769 455.551255 111.696154 456.049713 236.901282 456.548171 297.197436 457.046629 186.489744 457.545087 289.948718 458.043546 223.392308 458.541505 299.833333 459.039963 290.607692 459.538421 275.121795 460.037378 128.500000 460.535836 254.034615 461.033795 337.065385 461.532752 288.301282 462.031210 201.316667 462.529668 188.796154 463.028126 285.335897 463.526085 290.937179 464.025042 233.276923 464.523500 214.825641 465.021460 300.492308 465.520416 237.889744 466.018874 248.433333 466.516834 271.826923 467.015292 287.971795 467.513750 290.607692 468.012706 247.115385 468.510666 252.057692 469.009124 201.975641 469.508080 33.607692 470.006538 251.069231 470.504997 219.767949 471.003455 61.614103 471.501913 180.888462 472.000371 262.601282 472.498829 226.028205 472.996788 296.538462 473.495745 246.126923 473.993704 208.565385 474.492661 203.952564 474.991119 226.357692 475.489078 272.156410 475.988035 265.896154 476.486493 245.138462 476.984453 281.052564 477.483409 246.456410 477.981369 285.006410 478.480325 264.248718 478.978783 265.566667 479.476743 333.770513 479.975699 226.028205 480.474157 207.906410 480.972615 138.384615 481.471073 204.611538 481.969531 214.496154 482.467989 245.797436 482.966447 138.384615 483.464906 216.143590 483.963364 244.479487 484.461822 233.276923 484.960280 230.641026 485.458738 266.555128 485.956697 299.174359 486.455155 266.555128 486.954112 208.235897 487.452570 219.438462 487.950529 252.716667 488.449486 209.224359 488.947944 196.703846 489.445904 318.614103 489.944362 272.815385 490.443318 197.692308 490.941776 222.733333 491.440234 253.046154 491.938692 182.865385 492.437150 267.214103 492.935608 274.792308 493.433568 315.319231 493.932026 282.700000 494.430982 197.033333 494.929440 242.502564 495.427400 253.046154 495.926357 157.165385 496.424815 216.143590 496.923273 261.283333 497.421731 186.819231 497.919690 298.185897 498.418148 296.208974 498.917105 249.751282 499.415064 235.583333 499.914021 161.119231 500.412479 166.061538 500.910937 273.803846 501.409395 238.878205 501.907355 266.555128 502.406311 229.652564 502.904271 263.589744 503.402729 234.265385 503.901685 199.998718 504.400143 245.467949 504.898103 320.591026 505.396561 287.312821 505.895019 295.220513 506.393477 342.996154 506.892433 255.023077 507.390891 214.166667 507.888851 287.642308 508.387807 191.102564 508.883773 202.964103 509.382231 322.238462 509.880689 244.479487 510.379147 243.161538 510.877605 288.630769 511.376063 249.751282 511.874521 285.994872 512.372980 199.010256 512.871438 338.053846 513.369896 225.369231 513.868354 128.500000 514.366812 181.217949 514.865270 158.812821 515.363728 314.989744 515.862186 226.357692 516.360644 214.496154 516.859102 283.688462 517.357560 204.611538 517.856018 226.687179 518.354476 123.887179 518.852934 241.184615 519.351392 180.229487 519.849850 237.889744 520.348308 239.537179 520.846766 257.658974 521.345224 273.474359 521.843682 310.706410 522.342140 254.364103 522.840598 253.375641 523.339056 225.039744 523.837514 214.166667 524.335972 108.401282 524.834431 209.883333 525.332889 205.600000 525.831347 321.908974 526.329805 292.255128 526.828263 210.542308 527.326721 186.160256 527.825179 207.247436 528.323637 276.439744 528.822095 279.075641 529.320553 263.589744 529.819011 243.161538 530.317469 265.896154 530.815927 287.971795 531.314385 279.734615 531.812843 214.825641 532.311301 204.282051 532.809759 186.160256 533.308217 300.821795 533.806675 294.891026 534.305133 280.723077 534.803591 232.617949 535.302049 245.467949 535.800507 322.567949 536.298965 184.842308 536.797423 282.041026 537.295881 200.657692 537.794340 217.791026 538.292798 216.802564 538.791256 303.128205 539.289714 278.087179 539.788172 246.126923 540.286630 236.242308 540.785088 275.780769 541.283546 216.802564 541.782004 182.535897 542.280462 290.607692 542.778920 264.907692 543.277378 270.508974 543.775836 248.762821 544.274294 265.896154 544.772752 145.303846 545.271210 196.044872 545.769668 224.051282 546.268126 271.826923 546.766584 255.352564 547.265042 139.043590 547.763500 281.382051 548.261958 297.856410 548.760416 214.166667 549.258874 244.150000 549.757332 248.103846 550.255791 292.584615 550.754249 168.697436 551.252707 162.766667 551.751165 299.174359 552.249623 225.698718 552.748081 320.920513 553.246539 197.033333 553.744997 293.902564 554.243455 276.769231 554.741913 192.750000 555.240371 91.267949 555.738829 252.387179 556.237287 313.012821 556.735745 226.357692 557.234203 131.794872 557.732661 116.308974 558.231119 263.589744 558.729577 216.143590 559.228035 247.774359 559.726493 274.133333 560.224951 338.712821 560.723409 274.133333 561.221867 173.639744 561.720325 304.446154 562.218783 196.044872 562.717241 270.838462 563.215700 270.508974 563.714158 308.400000 564.212616 193.738462 564.711074 246.126923 565.209532 225.039744 565.707990 264.907692 566.206448 247.774359 566.704906 169.026923 567.203364 228.334615 567.701822 212.189744 568.200280 306.752564 568.698738 272.156410 569.197196 194.067949 569.695654 252.057692 570.194112 174.298718 570.692570 255.023077 571.191028 212.189744 571.689486 270.508974 572.187944 124.546154 572.686402 283.688462 573.184860 266.555128 573.683318 213.178205 574.181776 148.928205 574.680234 264.248718 575.178692 261.612821 575.677151 235.253846 576.175609 295.879487 576.674067 262.601282 577.172525 219.108974 577.670983 209.883333 578.169441 257.988462 578.667899 349.585897 579.166357 191.102564 579.664815 280.393590 580.163273 270.508974 580.661731 203.952564 581.160189 200.328205 581.658647 232.617949 582.157105 180.229487 582.655563 225.039744 583.154021 270.838462 583.652479 202.964103 584.150937 291.596154 584.649395 172.651282 585.147853 130.476923 585.646311 114.991026 586.144769 131.135897 586.648212 254.364103 587.141685 113.014103 587.640143 201.646154 588.138602 229.323077 588.637060 148.269231 589.135518 242.502564 589.633976 228.993590 590.132434 259.306410 590.630892 247.774359 591.129350 209.553846 591.627808 344.314103 592.126266 289.619231 592.624724 219.108974 593.123182 298.185897 593.621640 249.421795 594.120098 257.329487 594.618556 196.703846 595.117014 235.253846 595.615472 205.929487 596.113930 249.751282 596.612388 206.258974 597.110846 285.994872 597.609304 267.873077 598.107762 314.660256 598.606220 319.273077 599.104678 195.056410 599.603136 275.121795 600.101594 244.808974 600.600052 188.796154 601.098511 158.153846 601.596969 153.870513 602.095427 220.097436 602.593885 250.739744 603.092343 232.617949 603.590801 241.514103 604.089259 223.062821 604.587717 217.461538 605.086175 225.698718 605.584633 233.935897 606.083091 256.341026 606.581549 212.189744 607.080007 256.670513 607.578465 267.214103 608.076923 249.421795" /></g><g class="series serie-2 color-2"><path class="line reactive nofill" d="M11.923077 174.628205 L12.421216 174.628205 12.919514 174.628205 13.418132 174.628205 13.916590 174.628205 14.414889 174.628205 14.913506 174.628205 15.411810 174.628205 15.910417 174.628205 16.408726 174.628205 16.907483 174.628205 17.405642 174.628205 17.904249 174.628205 18.402558 174.628205 18.901165 174.628205 19.399624 174.628205 19.897932 174.628205 20.396540 174.628205 20.894998 174.628205 21.393456 174.628205 21.891764 174.628205 22.390372 174.628205 22.888830 174.628205 23.387288 174.628205 23.885746 174.628205 24.384204 174.628205 24.882512 174.628205 25.381120 174.628205 25.879428 174.628205 26.378036 174.628205 26.876494 174.628205 27.374952 174.628205 27.873261 174.628205 28.371868 174.628205 28.870326 174.628205 29.368635 174.628205 29.867242 174.628205 30.365700 174.628205 30.864158 174.628205 31.362467 174.628205 31.861074 174.628205 32.359682 174.628205 32.857991 174.628205 33.356449 174.628205 33.854757 174.628205 34.353365 174.628205 34.851673 174.628205 35.350430 174.628205 35.848739 174.628205 36.347197 174.628205 36.845954 174.628205 37.344262 174.628205 37.842721 174.628205 38.341179 174.628205 38.839487 174.628205 39.338244 174.628205 39.836702 174.628205 40.335160 174.628205 40.833469 174.628205 41.332076 174.628205 41.830385 174.628205 42.328992 174.628205 42.827301 174.628205 43.325759 174.628205 43.824217 174.628205 44.322825 174.628205 44.821133 174.628205 45.319591 174.628205 45.818049 174.628205 46.316657 174.628205 46.814816 174.628205 47.313423 174.628205 47.812031 174.628205 48.310489 174.628205 48.809146 174.628205 49.307604 174.628205 49.805863 174.628205 50.304321 174.628205 50.802978 174.628205 51.301237 174.628205 51.799695 174.628205 52.298153 174.628205 52.796811 174.628205 53.294920 174.628205 53.793876 174.628205 54.292185 174.628205 54.790443 174.628205 55.289101 174.628205 55.787359 174.628205 56.285818 174.628205 56.784276 174.628205 57.282584 174.628205 57.781042 174.628205 58.279650 174.628205 58.778108 174.628205 59.276915 174.628205 59.775223 174.628205 60.273532 174.628205 60.771990 174.628205 61.270448 174.628205 61.768906 174.628205 62.267364 174.628205 62.765822 174.628205 63.264280 174.628205 63.762738 174.628205 64.261196 174.628205 64.759654 174.628205 65.258611 174.628205 65.756570 174.628205 66.255028 174.628205 66.753486 174.628205 67.251944 174.628205 67.750901 174.628205 68.249359 174.628205 68.747318 174.628205 69.246275 174.628205 69.744234 174.628205 70.243191 174.628205 70.741150 174.628205 71.239609 174.628205 71.738565 174.628205 72.236525 174.628205 72.734983 174.628205 73.233441 174.628205 73.731899 174.628205 74.230357 174.628205 74.729313 174.628205 75.227771 174.628205 75.725731 174.628205 76.224687 174.628205 76.723145 174.628205 77.221603 174.628205 77.720061 174.628205 78.218520 174.628205 78.716978 174.628205 79.215436 174.628205 79.713894 174.628205 80.212352 174.628205 80.710810 174.628205 81.209268 174.628205 81.707726 174.628205 82.206184 174.628205 82.704642 174.628205 83.203100 174.628205 83.701060 174.628205 84.199518 174.628205 84.697976 174.628205 85.196932 174.628205 85.695390 174.628205 86.193350 174.628205 86.691808 174.628205 87.190764 174.628205 87.689222 174.628205 88.187680 174.628205 88.686138 174.628205 89.184596 174.628205 89.683054 174.628205 90.181512 174.628205 90.679971 174.628205 91.178429 174.628205 91.676887 174.628205 92.175345 174.628205 92.673803 174.628205 93.172261 174.628205 93.670719 174.628205 94.169177 174.628205 94.667635 174.628205 95.166093 174.628205 95.664551 174.628205 96.163009 174.628205 96.661467 174.628205 97.159925 174.628205 97.658383 174.628205 98.156841 174.628205 98.655299 174.628205 99.153757 174.628205 99.652215 174.628205 100.150673 174.628205 100.648633 174.628205 101.147589 174.628205 101.646047 174.628205 102.144505 174.628205 102.642963 174.628205 103.141422 174.628205 103.639880 174.628205 104.138338 174.628205 104.636796 174.628205 105.135254 174.628205 105.633712 174.628205 106.132170 174.628205 106.630628 174.628205 107.129086 174.628205 107.627544 174.628205 108.126002 174.628205 108.624460 174.628205 109.122420 174.628205 109.620878 174.628205 110.119336 174.628205 110.617794 174.628205 111.116252 174.628205 111.615208 174.628205 112.113666 174.628205 112.612124 174.628205 113.110582 174.628205 113.609040 174.628205 114.107498 174.628205 114.605458 174.628205 115.103916 174.628205 115.602872 174.628205 116.101331 174.628205 116.599789 174.628205 117.097748 174.628205 117.596705 174.628205 118.095163 174.628205 118.593621 174.628205 119.092079 174.628205 119.590537 174.628205 120.088995 174.628205 120.587453 174.628205 121.085412 174.628205 121.583871 174.628205 122.082827 174.628205 122.581285 174.628205 123.079743 174.628205 123.578201 174.628205 124.076659 174.628205 124.575117 174.628205 125.073077 174.628205 125.572033 174.628205 126.069993 174.628205 126.568451 174.628205 127.067407 174.628205 127.565865 174.628205 128.064323 174.628205 128.562283 174.628205 129.061240 174.628205 129.559698 174.628205 130.058156 174.628205 130.556614 174.628205 131.054573 174.628205 131.553031 174.628205 132.051988 174.628205 132.550446 174.628205 133.048904 174.628205 133.547362 174.628205 134.045820 174.628205 134.543780 174.628205 135.042736 174.628205 135.541194 174.628205 136.039652 174.628205 136.538110 174.628205 137.036568 174.628205 137.535026 174.628205 138.033484 174.628205 138.531942 174.628205 139.030400 174.628205 139.528858 174.628205 140.027316 174.628205 140.525774 174.628205 141.024232 174.628205 141.522691 174.628205 142.021149 174.628205 142.519607 174.628205 143.018065 174.628205 143.516523 174.628205 144.014981 174.628205 144.512940 174.628205 145.011897 174.628205 145.510355 174.628205 146.008813 174.628205 146.507271 174.628205 147.005729 174.628205 147.504187 174.628205 148.002147 174.628205 148.501103 174.628205 148.999561 174.628205 149.498019 174.628205 149.996477 174.628205 150.494935 174.628205 150.993393 174.628205 151.491851 174.628205 151.990309 174.628205 152.488767 174.628205 152.987225 174.628205 153.485683 174.628205 153.984142 174.628205 154.482600 174.628205 154.980559 174.628205 155.479516 174.628205 155.977475 174.628205 156.476432 174.628205 156.974890 174.628205 157.473348 174.628205 157.971806 174.628205 158.469765 174.628205 158.968223 174.628205 159.467180 174.628205 159.965638 174.628205 160.464096 174.628205 160.962554 174.628205 161.461012 174.628205 161.959470 174.628205 162.457928 174.628205 162.955888 174.628205 163.454346 174.628205 163.953302 174.628205 164.451262 174.628205 164.950218 174.628205 165.448178 174.628205 165.947134 174.628205 166.445593 174.628205 166.943552 174.628205 167.442010 174.628205 167.940967 174.628205 168.439425 174.628205 168.937883 174.628205 169.435842 174.628205 169.934799 174.628205 170.432758 174.628205 170.931715 174.628205 171.430173 174.628205 171.928132 174.628205 172.426591 174.628205 172.925049 174.628205 173.423507 174.628205 173.922463 174.628205 174.420921 174.628205 174.919379 174.628205 175.417837 174.628205 175.915797 174.628205 176.414753 174.628205 176.913211 174.628205 177.411669 174.628205 177.909629 174.628205 178.408585 174.628205 178.907043 174.628205 179.405502 174.628205 179.903960 174.628205 180.402418 174.628205 180.900876 174.628205 181.399334 174.628205 181.897792 174.628205 182.396250 174.628205 182.894708 174.628205 183.393166 174.628205 183.891624 174.628205 184.390082 174.628205 184.888042 174.628205 185.386500 174.628205 185.885456 174.628205 186.383914 174.628205 186.882372 174.628205 187.380830 174.628205 187.878790 174.628205 188.377746 174.628205 188.876204 174.628205 189.374662 174.628205 189.873120 174.628205 190.371578 174.628205 190.870036 174.628205 191.368494 174.628205 191.866953 174.628205 192.365411 174.628205 192.863869 174.628205 193.362327 174.628205 193.860286 174.628205 194.358744 174.628205 194.857202 174.628205 195.356159 174.628205 195.854617 174.628205 196.352576 174.628205 196.851533 174.628205 197.349492 174.628205 197.848449 174.628205 198.346907 174.628205 198.845365 174.628205 199.343823 174.628205 199.842281 174.628205 200.340241 174.628205 200.839197 174.628205 201.337157 174.628205 201.835615 174.628205 202.334571 174.628205 202.833029 174.628205 203.331487 174.628205 203.829945 174.628205 204.328403 174.628205 204.826862 174.628205 205.325320 174.628205 205.823778 174.628205 206.322236 174.628205 206.820694 174.628205 207.319152 174.628205 207.817610 174.628205 208.316068 174.628205 208.814526 174.628205 209.312485 174.628205 209.811442 174.628205 210.309900 174.628205 210.808358 174.628205 211.306816 174.628205 211.805274 174.628205 212.303732 174.628205 212.802190 174.628205 213.300648 174.628205 213.799106 174.628205 214.297066 174.628205 214.796022 174.628205 215.294480 174.628205 215.792440 174.628205 216.291396 174.628205 216.789854 174.628205 217.288313 174.628205 217.786771 174.628205 218.285229 174.628205 218.783188 174.628205 219.281646 174.628205 219.780603 174.628205 220.279061 174.628205 220.777519 174.628205 221.275977 174.628205 221.774435 174.628205 222.272893 174.628205 222.770852 174.628205 223.269311 174.628205 223.768267 174.628205 224.266725 174.628205 224.765183 174.628205 225.263641 174.628205 225.762099 174.628205 226.260059 174.628205 226.758517 174.628205 227.257473 174.628205 227.755931 174.628205 228.253891 174.628205 228.752349 174.628205 229.251305 174.628205 229.749764 174.628205 230.247723 174.628205 230.746181 174.628205 231.245138 174.628205 231.743596 174.628205 232.242054 174.628205 232.740512 174.628205 233.238970 174.628205 233.736929 174.628205 234.235886 174.628205 234.734344 174.628205 235.232802 174.628205 235.731260 174.628205 236.229718 174.628205 236.728176 174.628205 237.226634 174.628205 237.725092 174.628205 238.223550 174.628205 238.722008 174.628205 239.220466 174.628205 239.718924 174.628205 240.217382 174.628205 240.715840 174.628205 241.213800 174.628205 241.712258 174.628205 242.211214 174.628205 242.709174 174.628205 243.208131 174.628205 243.706589 174.628205 244.205047 174.628205 244.703505 174.628205 245.201464 174.628205 245.699922 174.628205 246.198879 174.628205 246.697337 174.628205 247.195795 174.628205 247.694253 174.628205 248.192711 174.628205 248.691169 174.628205 249.189627 174.628205 249.688085 174.628205 250.186543 174.628205 250.685001 174.628205 251.183459 174.628205 251.681419 174.628205 252.180375 174.628205 252.678833 174.628205 253.177291 174.628205 253.675749 174.628205 254.173709 174.628205 254.672167 174.628205 255.171124 174.628205 255.669582 174.628205 256.167541 174.628205 256.666498 174.628205 257.164956 174.628205 257.663414 174.628205 258.161872 174.628205 258.660330 174.628205 259.158289 174.628205 259.657246 174.628205 260.155704 174.628205 260.654162 174.628205 261.152620 174.628205 261.650580 174.628205 262.149536 174.628205 262.647994 174.628205 263.146452 174.628205 263.644910 174.628205 264.142870 174.628205 264.641826 174.628205 265.140284 174.628205 265.638742 174.628205 266.137200 174.628205 266.635658 174.628205 267.134116 174.628205 267.632574 174.628205 268.131033 174.628205 268.629491 174.628205 269.127949 174.628205 269.626407 174.628205 270.124865 174.628205 270.623323 174.628205 271.121781 174.628205 271.619740 174.628205 272.118697 174.628205 272.617155 174.628205 273.115114 174.628205 273.614071 174.628205 274.112529 174.628205 274.610987 174.628205 275.108947 174.628205 275.607405 174.628205 276.105863 174.628205 276.604819 174.628205 277.103277 174.628205 277.601237 174.628205 278.100193 174.628205 278.598153 174.628205 279.096611 174.628205 279.595567 174.628205 280.094025 174.628205 280.592484 174.628205 281.090942 174.628205 281.588901 174.628205 282.087858 174.628205 282.586316 174.628205 283.084774 174.628205 283.583232 174.628205 284.081690 174.628205 284.580148 174.628205 285.078606 174.628205 285.577064 174.628205 286.075522 174.628205 286.573980 174.628205 287.072438 174.628205 287.570896 174.628205 288.069354 174.628205 288.567812 174.628205 289.066270 174.628205 289.564728 174.628205 290.063186 174.628205 290.561644 174.628205 291.060102 174.628205 291.558560 174.628205 292.057018 174.628205 292.555476 174.628205 293.053934 174.628205 293.551894 174.628205 294.050851 174.628205 294.548810 174.628205 295.047268 174.628205 295.546225 174.628205 296.044683 174.628205 296.542642 174.628205 297.041599 174.628205 297.540057 174.628205 298.038016 174.628205 298.536973 174.628205 299.035431 174.628205 299.533889 174.628205 300.032347 174.628205 300.530805 174.628205 301.029263 174.628205 301.527721 174.628205 302.026179 174.628205 302.524637 174.628205 303.023095 174.628205 303.521553 174.628205 304.019513 174.628205 304.517971 174.628205 305.016927 174.628205 305.514887 174.628205 306.013844 174.628205 306.511803 174.628205 307.010261 174.628205 307.509218 174.628205 308.007676 174.628205 308.506134 174.628205 309.004093 174.628205 309.503050 174.628205 310.001508 174.628205 310.499966 174.628205 310.998424 174.628205 311.496882 174.628205 311.995340 174.628205 312.493798 174.628205 312.992256 174.628205 313.490714 174.628205 313.989172 174.628205 314.487630 174.628205 314.986088 174.628205 315.484546 174.628205 315.982506 174.628205 316.481462 174.628205 316.979920 174.628205 317.477880 174.628205 317.976338 174.628205 318.475295 174.628205 318.973254 174.628205 319.471712 174.628205 319.970170 174.628205 320.469127 174.628205 320.967585 174.628205 321.465544 174.628205 321.964501 174.628205 322.462959 174.628205 322.961417 174.628205 323.459376 174.628205 323.958333 174.628205 324.456293 174.628205 324.955249 174.628205 325.453707 174.628205 325.952165 174.628205 326.450125 174.628205 326.948583 174.628205 327.447041 174.628205 327.945499 174.628205 328.444455 174.628205 328.942913 174.628205 329.441371 174.628205 329.939331 174.628205 330.437789 174.628205 330.936745 174.628205 331.435204 174.628205 331.933662 174.628205 332.432120 174.628205 332.930578 174.628205 333.429036 174.628205 333.927494 174.628205 334.425952 174.628205 334.924410 174.628205 335.422868 174.628205 335.921326 174.628205 336.419285 174.628205 336.918242 174.628205 337.416700 174.628205 337.915158 174.628205 338.413616 174.628205 338.911576 174.628205 339.410532 174.628205 339.908990 174.628205 340.407448 174.628205 340.905906 174.628205 341.404364 174.628205 341.902822 174.628205 342.401280 174.628205 342.899738 174.628205 343.398196 174.628205 343.896655 174.628205 344.395113 174.628205 344.893571 174.628205 345.391530 174.628205 345.889988 174.628205 346.388945 174.628205 346.887403 174.628205 347.385861 174.628205 347.884319 174.628205 348.382777 174.628205 348.881235 174.628205 349.379194 174.628205 349.877653 174.628205 350.376111 174.628205 350.875067 174.628205 351.373525 174.628205 351.871983 174.628205 352.370441 174.628205 352.868899 174.628205 353.367357 174.628205 353.865815 174.628205 354.363775 174.628205 354.862731 174.628205 355.361189 174.628205 355.859647 174.628205 356.357607 174.628205 356.856564 174.628205 357.355022 174.628205 357.853480 174.628205 358.351439 174.628205 358.850396 174.628205 359.348854 174.628205 359.847312 174.628205 360.345770 174.628205 360.844228 174.628205 361.342686 174.628205 361.841144 174.628205 362.339104 174.628205 362.838060 174.628205 363.336518 174.628205 363.834478 174.628205 364.333434 174.628205 364.831394 174.628205 365.330350 174.628205 365.828808 174.628205 366.326768 174.628205 366.825724 174.628205 367.324182 174.628205 367.822640 174.628205 368.321098 174.628205 368.819556 174.628205 369.318015 174.628205 369.816473 174.628205 370.314432 174.628205 370.813389 174.628205 371.311348 174.628205 371.810305 174.628205 372.308763 174.628205 372.807221 174.628205 373.305679 174.628205 373.804137 174.628205 374.302595 174.628205 374.800554 174.628205 375.299013 174.628205 375.797969 174.628205 376.296427 174.628205 376.794885 174.628205 377.293343 174.628205 377.791303 174.628205 378.289761 174.628205 378.788717 174.628205 379.286677 174.628205 379.785135 174.628205 380.284091 174.628205 380.782051 174.628205 381.281007 174.628205 381.779466 174.628205 382.277924 174.628205 382.776382 174.628205 383.274840 174.628205 383.773298 174.628205 384.271756 174.628205 384.770214 174.628205 385.268672 174.628205 385.767130 174.628205 386.265588 174.628205 386.764046 174.628205 387.262504 174.628205 387.760962 174.628205 388.259420 174.628205 388.757878 174.628205 389.256336 174.628205 389.754794 174.628205 390.253252 174.628205 390.751710 174.628205 391.250168 174.628205 391.748128 174.628205 392.247084 174.628205 392.745542 174.628205 393.244000 174.628205 393.742458 174.628205 394.240916 174.628205 394.739375 174.628205 395.237833 174.628205 395.735792 174.628205 396.234749 174.628205 396.733207 174.628205 397.231665 174.628205 397.730123 174.628205 398.228581 174.628205 398.727039 174.628205 399.225497 174.628205 399.723456 174.628205 400.222413 174.628205 400.720871 174.628205 401.219329 174.628205 401.717289 174.628205 402.216245 174.628205 402.714703 174.628205 403.213161 174.628205 403.711121 174.628205 404.209579 174.628205 404.708535 174.628205 405.206993 174.628205 405.704953 174.628205 406.203909 174.628205 406.701869 174.628205 407.200826 174.628205 407.698785 174.628205 408.197742 174.628205 408.696200 174.628205 409.194658 174.628205 409.693116 174.628205 410.191574 174.628205 410.689533 174.628205 411.188490 174.628205 411.686948 174.628205 412.185406 174.628205 412.683365 174.628205 413.182322 174.628205 413.680282 174.628205 414.178740 174.628205 414.677696 174.628205 415.176154 174.628205 415.674612 174.628205 416.173070 174.628205 416.671528 174.628205 417.169488 174.628205 417.668444 174.628205 418.166902 174.628205 418.664862 174.628205 419.163320 174.628205 419.662276 174.628205 420.160735 174.628205 420.659193 174.628205 421.157651 174.628205 421.656109 174.628205 422.154567 174.628205 422.652526 174.628205 423.150984 174.628205 423.649442 174.628205 424.147900 174.628205 424.646358 174.628205 425.145315 174.628205 425.643275 174.628205 426.142231 174.628205 426.640191 174.628205 427.138649 174.628205 427.637605 174.628205 428.136063 174.628205 428.634521 174.628205 429.132481 174.628205 429.631437 174.628205 430.129397 174.628205 430.627855 174.628205 431.126313 174.628205 431.624771 174.628205 432.123229 174.628205 432.622186 174.628205 433.120644 174.628205 433.618603 174.628205 434.117560 174.628205 434.616018 174.628205 435.114476 174.628205 435.612934 174.628205 436.110893 174.628205 436.609850 174.628205 437.108308 174.628205 437.606766 174.628205 438.105224 174.628205 438.603682 174.628205 439.102140 174.628205 439.600598 174.628205 440.099056 174.628205 440.597016 174.628205 441.095474 174.628205 441.594430 174.628205 442.092390 174.628205 442.591346 174.628205 443.089306 174.628205 443.587764 174.628205 444.086720 174.628205 444.585178 174.628205 445.083636 174.628205 445.581596 174.628205 446.080553 174.628205 446.579011 174.628205 447.077469 174.628205 447.575428 174.628205 448.073886 174.628205 448.572344 174.628205 449.071301 174.628205 449.569759 174.628205 450.068217 174.628205 450.566675 174.628205 451.064635 174.628205 451.563591 174.628205 452.062049 174.628205 452.560009 174.628205 453.058965 174.628205 453.557423 174.628205 454.055881 174.628205 454.554339 174.628205 455.052797 174.628205 455.551255 174.628205 456.049713 174.628205 456.548171 174.628205 457.046629 174.628205 457.545087 174.628205 458.043546 174.628205 458.541505 174.628205 459.039963 174.628205 459.538421 174.628205 460.037378 174.628205 460.535836 174.628205 461.033795 174.628205 461.532752 174.628205 462.031210 174.628205 462.529668 174.628205 463.028126 174.628205 463.526085 174.628205 464.025042 174.628205 464.523500 174.628205 465.021460 174.628205 465.520416 174.628205 466.018874 174.628205 466.516834 174.628205 467.015292 174.628205 467.513750 174.628205 468.012706 174.628205 468.510666 174.628205 469.009124 174.628205 469.508080 174.628205 470.006538 174.628205 470.504997 174.628205 471.003455 174.628205 471.501913 174.628205 472.000371 174.628205 472.498829 174.628205 472.996788 174.628205 473.495745 174.628205 473.993704 174.628205 474.492661 174.628205 474.991119 174.628205 475.489078 174.628205 475.988035 174.628205 476.486493 174.628205 476.984453 174.628205 477.483409 174.628205 477.981369 174.628205 478.480325 174.628205 478.978783 174.628205 479.476743 174.628205 479.975699 174.628205 480.474157 174.628205 480.972615 174.628205 481.471073 174.628205 481.969531 174.628205 482.467989 174.628205 482.966447 174.628205 483.464906 174.628205 483.963364 174.628205 484.461822 174.628205 484.960280 174.628205 485.458738 174.628205 485.956697 174.628205 486.455155 174.628205 486.954112 174.628205 487.452570 174.628205 487.950529 174.628205 488.449486 174.628205 488.947944 174.628205 489.445904 174.628205 489.944362 174.628205 490.443318 174.628205 490.941776 174.628205 491.440234 174.628205 491.938692 174.628205 492.437150 174.628205 492.935608 174.628205 493.433568 174.628205 493.932026 174.628205 494.430982 174.628205 494.929440 174.628205 495.427400 174.628205 495.926357 174.628205 496.424815 174.628205 496.923273 174.628205 497.421731 174.628205 497.919690 174.628205 498.418148 174.628205 498.917105 174.628205 499.415064 174.628205 499.914021 174.628205 500.412479 174.628205 500.910937 174.628205 501.409395 174.628205 501.907355 174.628205 502.406311 174.628205 502.904271 174.628205 503.402729 174.628205 503.901685 174.628205 504.400143 174.628205 504.898103 174.628205 505.396561 174.628205 505.895019 174.628205 506.393477 174.628205 506.892433 174.628205 507.390891 174.628205 507.888851 174.628205 508.387807 174.628205 508.883773 174.628205 509.382231 174.628205 509.880689 174.628205 510.379147 174.628205 510.877605 174.628205 511.376063 174.628205 511.874521 174.628205 512.372980 174.628205 512.871438 174.628205 513.369896 174.628205 513.868354 174.628205 514.366812 174.628205 514.865270 174.628205 515.363728 174.628205 515.862186 174.628205 516.360644 174.628205 516.859102 174.628205 517.357560 174.628205 517.856018 174.628205 518.354476 174.628205 518.852934 174.628205 519.351392 174.628205 519.849850 174.628205 520.348308 174.628205 520.846766 174.628205 521.345224 174.628205 521.843682 174.628205 522.342140 174.628205 522.840598 174.628205 523.339056 174.628205 523.837514 174.628205 524.335972 174.628205 524.834431 174.628205 525.332889 174.628205 525.831347 174.628205 526.329805 174.628205 526.828263 174.628205 527.326721 174.628205 527.825179 174.628205 528.323637 174.628205 528.822095 174.628205 529.320553 174.628205 529.819011 174.628205 530.317469 174.628205 530.815927 174.628205 531.314385 174.628205 531.812843 174.628205 532.311301 174.628205 532.809759 174.628205 533.308217 174.628205 533.806675 174.628205 534.305133 174.628205 534.803591 174.628205 535.302049 174.628205 535.800507 174.628205 536.298965 174.628205 536.797423 174.628205 537.295881 174.628205 537.794340 174.628205 538.292798 174.628205 538.791256 174.628205 539.289714 174.628205 539.788172 174.628205 540.286630 174.628205 540.785088 174.628205 541.283546 174.628205 541.782004 174.628205 542.280462 174.628205 542.778920 174.628205 543.277378 174.628205 543.775836 174.628205 544.274294 174.628205 544.772752 174.628205 545.271210 174.628205 545.769668 174.628205 546.268126 174.628205 546.766584 174.628205 547.265042 174.628205 547.763500 174.628205 548.261958 174.628205 548.760416 174.628205 549.258874 174.628205 549.757332 174.628205 550.255791 174.628205 550.754249 174.628205 551.252707 174.628205 551.751165 174.628205 552.249623 174.628205 552.748081 174.628205 553.246539 174.628205 553.744997 174.628205 554.243455 174.628205 554.741913 174.628205 555.240371 174.628205 555.738829 174.628205 556.237287 174.628205 556.735745 174.628205 557.234203 174.628205 557.732661 174.628205 558.231119 174.628205 558.729577 174.628205 559.228035 174.628205 559.726493 174.628205 560.224951 174.628205 560.723409 174.628205 561.221867 174.628205 561.720325 174.628205 562.218783 174.628205 562.717241 174.628205 563.215700 174.628205 563.714158 174.628205 564.212616 174.628205 564.711074 174.628205 565.209532 174.628205 565.707990 174.628205 566.206448 174.628205 566.704906 174.628205 567.203364 174.628205 567.701822 174.628205 568.200280 174.628205 568.698738 174.628205 569.197196 174.628205 569.695654 174.628205 570.194112 174.628205 570.692570 174.628205 571.191028 174.628205 571.689486 174.628205 572.187944 174.628205 572.686402 174.628205 573.184860 174.628205 573.683318 174.628205 574.181776 174.628205 574.680234 174.628205 575.178692 174.628205 575.677151 174.628205 576.175609 174.628205 576.674067 174.628205 577.172525 174.628205 577.670983 174.628205 578.169441 174.628205 578.667899 174.628205 579.166357 174.628205 579.664815 174.628205 580.163273 174.628205 580.661731 174.628205 581.160189 174.628205 581.658647 174.628205 582.157105 174.628205 582.655563 174.628205 583.154021 174.628205 583.652479 174.628205 584.150937 174.628205 584.649395 174.628205 585.147853 174.628205 585.646311 174.628205 586.144769 174.628205 586.648212 174.628205 587.141685 174.628205 587.640143 174.628205 588.138602 174.628205 588.637060 174.628205 589.135518 174.628205 589.633976 174.628205 590.132434 174.628205 590.630892 174.628205 591.129350 174.628205 591.627808 174.628205 592.126266 174.628205 592.624724 174.628205 593.123182 174.628205 593.621640 174.628205 594.120098 174.628205 594.618556 174.628205 595.117014 174.628205 595.615472 174.628205 596.113930 174.628205 596.612388 174.628205 597.110846 174.628205 597.609304 174.628205 598.107762 174.628205 598.606220 174.628205 599.104678 174.628205 599.603136 174.628205 600.101594 174.628205 600.600052 174.628205 601.098511 174.628205 601.596969 174.628205 602.095427 174.628205 602.593885 174.628205 603.092343 174.628205 603.590801 174.628205 604.089259 174.628205 604.587717 174.628205 605.086175 174.628205 605.584633 174.628205 606.083091 174.628205 606.581549 174.628205 607.080007 174.628205 607.578465 174.628205 608.076923 174.628205" /></g></g><g class="titles"><text class="title" x="470.0" y="580">pure_1000kbps</text></g><g class="plot overlay" transform="translate(160, 20)"><g class="series serie-0 color-0" /><g class="series serie-1 color-1" /><g class="series serie-2 color-2" /></g><g class="plot text-overlay" transform="translate(160, 20)"><g class="series serie-0 color-0" /><g class="series serie-1 color-1" /><g class="series serie-2 color-2" /></g><g class="plot tooltip-overlay" transform="translate(160, 20)"><g class="tooltip" style="opacity: 0" transform="translate(0 0)"><rect class="tooltip-box" height="0" rx="0" ry="0" width="0" /><g class="text" /></g></g><g class="legends" transform="translate(10, 30)"><g class="legend reactive activate-serie" id="activate-serie-0"><rect class="color-0 reactive" height="12" width="12" x="0.0" y="1.0" /><text x="17.0" y="11.2">qdelay</text></g><g class="legend reactive activate-serie" id="activate-serie-1"><rect class="color-1 reactive" height="12" width="12" x="0.0" y="22.0" /><text x="17.0" y="32.2">txed(kbps)</text></g><g class="legend reactive activate-serie" id="activate-serie-2"><rect class="color-2 reactive" height="12" width="12" x="0.0" y="43.0" /><text x="17.0" y="53.2">topo(kbps)</text></g></g><g class="legends" transform="translate(790, 30)" /></g></svg>