<?xml version='1.0' encoding='utf-8'?>
<svg xmlns:xlink="http://www.w3.org/1999/xlink" class="pygal-chart" id="chart-7b110336-54c6-44a7-b4eb-b2a35c1c4702" viewBox="0 0 800 600" xmlns="http://www.w3.org/2000/svg"><!--Generated with pygal 2.4.0 (etree) ©Kozea 2012-2016 on 2019-01-14--><!--http://pygal.org--><!--http://github.com/Kozea/pygal--><defs><style type="text/css">#chart-7b110336-54c6-44a7-b4eb-b2a35c1c4702{-webkit-user-select:none;-webkit-font-smoothing:antialiased;font-family:Consolas,"Liberation Mono",Menlo,Courier,monospace}#chart-7b110336-54c6-44a7-b4eb-b2a35c1c4702 .title{font-family:Consolas,"Liberation Mono",Menlo,Courier,monospace;font-size:16px}#chart-7b110336-54c6-44a7-b4eb-b2a35c1c4702 .legends .legend text{font-family:Consolas,"Liberation Mono",Menlo,Courier,monospace;font-size:14px}#chart-7b110336-54c6-44a7-b4eb-b2a35c1c4702 .axis text{font-family:Consolas,"Liberation Mono",Menlo,Courier,monospace;font-size:10px}#chart-7b110336-54c6-44a7-b4eb-b2a35c1c4702 .axis text.major{font-family:Consolas,"Liberation Mono",Menlo,Courier,monospace;font-size:10px}#chart-7b110336-54c6-44a7-b4eb-b2a35c1c4702 .text-overlay text.value{font-family:Consolas,"Liberation Mono",Menlo,Courier,monospace;font-size:16px}#chart-7b110336-54c6-44a7-b4eb-b2a35c1c4702 .text-overlay text.label{font-family:Consolas,"Liberation Mono",Menlo,Courier,monospace;font-size:10px}#chart-7b110336-54c6-44a7-b4eb-b2a35c1c4702 .tooltip{font-family:Consolas,"Liberation Mono",Menlo,Courier,monospace;font-size:14px}#chart-7b110336-54c6-44a7-b4eb-b2a35c1c4702 text.no_data{font-family:Consolas,"Liberation Mono",Menlo,Courier,monospace;font-size:64px}
#chart-7b110336-54c6-44a7-b4eb-b2a35c1c4702{background-color:transparent}#chart-7b110336-54c6-44a7-b4eb-b2a35c1c4702 path,#chart-7b110336-54c6-44a7-b4eb-b2a35c1c4702 line,#chart-7b110336-54c6-44a7-b4eb-b2a35c1c4702 rect,#chart-7b110336-54c6-44a7-b4eb-b2a35c1c4702 circle{-webkit-transition:100ms ease-in;-moz-transition:100ms ease-in;transition:100ms ease-in}#chart-7b110336-54c6-44a7-b4eb-b2a35c1c4702 .graph &gt; .background{fill:transparent}#chart-7b110336-54c6-44a7-b4eb-b2a35c1c4702 .plot &gt; .background{fill:transparent}#chart-7b110336-54c6-44a7-b4eb-b2a35c1c4702 .graph{fill:#000000}#chart-7b110336-54c6-44a7-b4eb-b2a35c1c4702 text.no_data{fill:#000000}#chart-7b110336-54c6-44a7-b4eb-b2a35c1c4702 .title{fill:#000000}#chart-7b110336-54c6-44a7-b4eb-b2a35c1c4702 .legends .legend text{fill:#000000}#chart-7b110336-54c6-44a7-b4eb-b2a35c1c4702 .legends .legend:hover text{fill:#000000}#chart-7b110336-54c6-44a7-b4eb-b2a35c1c4702 .axis .line{stroke:#000000}#chart-7b110336-54c6-44a7-b4eb-b2a35c1c4702 .axis .guide.line{stroke:#006400d}#chart-7b110336-54c6-44a7-b4eb-b2a35c1c4702 .axis .major.line{stroke:#000000}#chart-7b110336-54c6-44a7-b4eb-b2a35c1c4702 .axis text.major{fill:#000000}#chart-7b110336-54c6-44a7-b4eb-b2a35c1c4702 .axis.y .guides:hover .guide.line,#chart-7b110336-54c6-44a7-b4eb-b2a35c1c4702 .line-graph .axis.x .guides:hover .guide.line,#chart-7b110336-54c6-44a7-b4eb-b2a35c1c4702 .stackedline-graph .axis.x .guides:hover .guide.line,#chart-7b110336-54c6-44a7-b4eb-b2a35c1c4702 .xy-graph .axis.x .guides:hover .guide.line{stroke:#000000}#chart-7b110336-54c6-44a7-b4eb-b2a35c1c4702 .axis .guides:hover text{fill:#000000}#chart-7b110336-54c6-44a7-b4eb-b2a35c1c4702 .reactive{fill-opacity:.6;stroke-opacity:.8}#chart-7b110336-54c6-44a7-b4eb-b2a35c1c4702 .ci{stroke:#000000}#chart-7b110336-54c6-44a7-b4eb-b2a35c1c4702 .reactive.active,#chart-7b110336-54c6-44a7-b4eb-b2a35c1c4702 .active .reactive{fill-opacity:.9;stroke-opacity:.9;stroke-width:4}#chart-7b110336-54c6-44a7-b4eb-b2a35c1c4702 .ci .reactive.active{stroke-width:1.5}#chart-7b110336-54c6-44a7-b4eb-b2a35c1c4702 .series text{fill:#000000}#chart-7b110336-54c6-44a7-b4eb-b2a35c1c4702 .tooltip rect{fill:transparent;stroke:#000000;-webkit-transition:opacity 100ms ease-in;-moz-transition:opacity 100ms ease-in;transition:opacity 100ms ease-in}#chart-7b110336-54c6-44a7-b4eb-b2a35c1c4702 .tooltip .label{fill:#000000}#chart-7b110336-54c6-44a7-b4eb-b2a35c1c4702 .tooltip .label{fill:#000000}#chart-7b110336-54c6-44a7-b4eb-b2a35c1c4702 .tooltip .legend{font-size:.8em;fill:#006400d}#chart-7b110336-54c6-44a7-b4eb-b2a35c1c4702 .tooltip .x_label{font-size:.6em;fill:#000000}#chart-7b110336-54c6-44a7-b4eb-b2a35c1c4702 .tooltip .xlink{font-size:.5em;text-decoration:underline}#chart-7b110336-54c6-44a7-b4eb-b2a35c1c4702 .tooltip .value{font-size:1.5em}#chart-7b110336-54c6-44a7-b4eb-b2a35c1c4702 .bound{font-size:.5em}#chart-7b110336-54c6-44a7-b4eb-b2a35c1c4702 .max-value{font-size:.75em;fill:#006400d}#chart-7b110336-54c6-44a7-b4eb-b2a35c1c4702 .map-element{fill:transparent;stroke:#006400d !important}#chart-7b110336-54c6-44a7-b4eb-b2a35c1c4702 .map-element .reactive{fill-opacity:inherit;stroke-opacity:inherit}#chart-7b110336-54c6-44a7-b4eb-b2a35c1c4702 .color-0,#chart-7b110336-54c6-44a7-b4eb-b2a35c1c4702 .color-0 a:visited{stroke:#006400;fill:#006400}#chart-7b110336-54c6-44a7-b4eb-b2a35c1c4702 .color-1,#chart-7b110336-54c6-44a7-b4eb-b2a35c1c4702 .color-1 a:visited{stroke:#0022AA;fill:#0022AA}#chart-7b110336-54c6-44a7-b4eb-b2a35c1c4702 .color-2,#chart-7b110336-54c6-44a7-b4eb-b2a35c1c4702 .color-2 a:visited{stroke:#FF1111;fill:#FF1111}#chart-7b110336-54c6-44a7-b4eb-b2a35c1c4702 .text-overlay .color-0 text{fill:black}#chart-7b110336-54c6-44a7-b4eb-b2a35c1c4702 .text-overlay .color-1 text{fill:black}#chart-7b110336-54c6-44a7-b4eb-b2a35c1c4702 .text-overlay .color-2 text{fill:black}
#chart-7b110336-54c6-44a7-b4eb-b2a35c1c4702 text.no_data{text-anchor:middle}#chart-7b110336-54c6-44a7-b4eb-b2a35c1c4702 .guide.line{fill:none}#chart-7b110336-54c6-44a7-b4eb-b2a35c1c4702 .centered{text-anchor:middle}#chart-7b110336-54c6-44a7-b4eb-b2a35c1c4702 .title{text-anchor:middle}#chart-7b110336-54c6-44a7-b4eb-b2a35c1c4702 .legends .legend text{fill-opacity:1}#chart-7b110336-54c6-44a7-b4eb-b2a35c1c4702 .axis.x text{text-anchor:middle}#chart-7b110336-54c6-44a7-b4eb-b2a35c1c4702 .axis.x:not(.web) text[transform]{text-anchor:start}#chart-7b110336-54c6-44a7-b4eb-b2a35c1c4702 .axis.x:not(.web) text[transform].backwards{text-anchor:end}#chart-7b110336-54c6-44a7-b4eb-b2a35c1c4702 .axis.y text{text-anchor:end}#chart-7b110336-54c6-44a7-b4eb-b2a35c1c4702 .axis.y text[transform].backwards{text-anchor:start}#chart-7b110336-54c6-44a7-b4eb-b2a35c1c4702 .axis.y2 text{text-anchor:start}#chart-7b110336-54c6-44a7-b4eb-b2a35c1c4702 .axis.y2 text[transform].backwards{text-anchor:end}#chart-7b110336-54c6-44a7-b4eb-b2a35c1c4702 .axis .guide.line{stroke-dasharray:4,4}#chart-7b110336-54c6-44a7-b4eb-b2a35c1c4702 .axis .major.guide.line{stroke-dasharray:6,6}#chart-7b110336-54c6-44a7-b4eb-b2a35c1c4702 .horizontal .axis.y .guide.line,#chart-7b110336-54c6-44a7-b4eb-b2a35c1c4702 .horizontal .axis.y2 .guide.line,#chart-7b110336-54c6-44a7-b4eb-b2a35c1c4702 .vertical .axis.x .guide.line{opacity:0}#chart-7b110336-54c6-44a7-b4eb-b2a35c1c4702 .horizontal .axis.always_show .guide.line,#chart-7b110336-54c6-44a7-b4eb-b2a35c1c4702 .vertical .axis.always_show .guide.line{opacity:1 !important}#chart-7b110336-54c6-44a7-b4eb-b2a35c1c4702 .axis.y .guides:hover .guide.line,#chart-7b110336-54c6-44a7-b4eb-b2a35c1c4702 .axis.y2 .guides:hover .guide.line,#chart-7b110336-54c6-44a7-b4eb-b2a35c1c4702 .axis.x .guides:hover .guide.line{opacity:1}#chart-7b110336-54c6-44a7-b4eb-b2a35c1c4702 .axis .guides:hover text{opacity:1}#chart-7b110336-54c6-44a7-b4eb-b2a35c1c4702 .nofill{fill:none}#chart-7b110336-54c6-44a7-b4eb-b2a35c1c4702 .subtle-fill{fill-opacity:.2}#chart-7b110336-54c6-44a7-b4eb-b2a35c1c4702 .dot{stroke-width:1px;fill-opacity:1}#chart-7b110336-54c6-44a7-b4eb-b2a35c1c4702 .dot.active{stroke-width:5px}#chart-7b110336-54c6-44a7-b4eb-b2a35c1c4702 .dot.negative{fill:transparent}#chart-7b110336-54c6-44a7-b4eb-b2a35c1c4702 text,#chart-7b110336-54c6-44a7-b4eb-b2a35c1c4702 tspan{stroke:none !important}#chart-7b110336-54c6-44a7-b4eb-b2a35c1c4702 .series text.active{opacity:1}#chart-7b110336-54c6-44a7-b4eb-b2a35c1c4702 .tooltip rect{fill-opacity:.95;stroke-width:.5}#chart-7b110336-54c6-44a7-b4eb-b2a35c1c4702 .tooltip text{fill-opacity:1}#chart-7b110336-54c6-44a7-b4eb-b2a35c1c4702 .showable{visibility:hidden}#chart-7b110336-54c6-44a7-b4eb-b2a35c1c4702 .showable.shown{visibility:visible}#chart-7b110336-54c6-44a7-b4eb-b2a35c1c4702 .gauge-background{fill:rgba(229,229,229,1);stroke:none}#chart-7b110336-54c6-44a7-b4eb-b2a35c1c4702 .bg-lines{stroke:transparent;stroke-width:2px}</style><script type="text/javascript">window.pygal = window.pygal || {};window.pygal.config = window.pygal.config || {};window.pygal.config['7b110336-54c6-44a7-b4eb-b2a35c1c4702'] = {"dynamic_print_values": false, "truncate_label": null, "inner_radius": 0, "print_values": false, "xrange": null, "box_mode": "extremes", "title": null, "legend_at_bottom_columns": null, "height": 600, "legend_at_bottom": false, "show_legend": true, "show_dots": false, "explicit_size": false, "y_labels_major": null, "show_minor_x_labels": true, "width": 800, "force_uri_protocol": "https", "half_pie": false, "style": {"major_label_font_family": "Consolas, \"Liberation Mono\", Menlo, Courier, monospace", "title_font_family": "Consolas, \"Liberation Mono\", Menlo, Courier, monospace", "stroke_opacity": ".8", "legend_font_family": "Consolas, \"Liberation Mono\", Menlo, Courier, monospace", "colors": ["#006400", "#0022AA", "#FF1111", "#FFEBCD", "#DC143C", "#FFFFFF", "#6495ED", "#B0C4DE", "#D2691E", "#8B0000"], "legend_font_size": 14, "no_data_font_family": "Consolas, \"Liberation Mono\", Menlo, Courier, monospace", "major_label_font_size": 10, "value_background": "rgba(229, 229, 229, 1)", "ci_colors": [], "label_font_family": "Consolas, \"Liberation Mono\", Menlo, Courier, monospace", "label_font_size": 10, "tooltip_font_size": 14, "value_font_size": 16, "font_family": "Consolas, \"Liberation Mono\", Menlo, Courier, monospace", "opacity": ".6", "foreground": "#000000", "plot_background": "transparent", "value_label_font_size": 10, "value_label_font_family": "Consolas, \"Liberation Mono\", Menlo, Courier, monospace", "background": "transparent", "no_data_font_size": 64, "value_colors": [], "guide_stroke_dasharray": "4,4", "transition": "100ms ease-in", "foreground_subtle": "#006400d", "value_font_family": "Consolas, \"Liberation Mono\", Menlo, Courier, monospace", "tooltip_font_family": "Consolas, \"Liberation Mono\", Menlo, Courier, monospace", "title_font_size": 16, "stroke_opacity_hover": ".9", "major_guide_stroke_dasharray": "6,6", "opacity_hover": ".9", "foreground_strong": "#000000"}, "x_label_rotation": 0, "fill": false, "missing_value_fill_truncation": "x", "zero": 0, "margin_right": null, "interpolation_parameters": {}, "x_labels_major": null, "rounded_bars": null, "show_y_labels": true, "dots_size": 2.5, "show_y_guides": true, "show_minor_y_labels": true, "x_labels": null, "y_title": null, "order_min": null, "formatter": null, "disable_xml_declaration": false, "strict": false, "css": ["file://style.css", "file://graph.css"], "tooltip_fancy_mode": true, "defs": [], "show_only_major_dots": false, "y_label_rotation": 0, "show_x_labels": true, "min_scale": 4, "show_x_guides": false, "spacing": 10, "x_labels_major_count": null, "pretty_print": false, "tooltip_border_radius": 0, "interpolate": null, "js": ["//kozea.github.io/pygal.js/2.0.x/pygal-tooltips.min.js"], "y_labels": null, "stroke_style": null, "print_labels": false, "interpolation_precision": 250, "x_title": "tcp_1000kbps", "y_labels_major_every": null, "logarithmic": false, "legends": ["qdelay", "txed(kbps)", "topo(kbps)"], "max_scale": 16, "print_zeroes": true, "no_data_text": "No data", "truncate_legend": null, "x_labels_major_every": null, "secondary_range": null, "legend_box_size": 12, "no_prefix": false, "stroke": true, "stack_from_top": false, "include_x_axis": false, "range": [0, 1500.0], "classes": ["pygal-chart"], "margin_top": null, "margin_left": null, "y_labels_major_count": null, "margin_bottom": null, "inverse_y_axis": false, "margin": 20, "allow_interruptions": false, "print_values_position": "center"}</script><script type="text/javascript" xlink:href="https://kozea.github.io/pygal.js/2.0.x/pygal-tooltips.min.js" /></defs><title>Pygal</title><g class="graph xy-graph vertical"><rect class="background" height="600" width="800" x="0" y="0" /><g class="plot" transform="translate(160, 20)"><rect class="background" height="514" width="620.0" x="0" y="0" /><g class="axis y always_show"><g class="guides"><path class="axis major line" d="M0.000000 504.115385 h620.000000" /><text class="major" x="-5" y="507.615384615">0</text><title>0</title></g><g class="guides"><path class="guide line" d="M0.000000 471.166667 h620.000000" /><text class="" x="-5" y="474.666666667">100</text><title>100</title></g><g class="guides"><path class="guide line" d="M0.000000 438.217949 h620.000000" /><text class="" x="-5" y="441.717948718">200</text><title>200</title></g><g class="guides"><path class="guide line" d="M0.000000 405.269231 h620.000000" /><text class="" x="-5" y="408.769230769">300</text><title>300</title></g><g class="guides"><path class="guide line" d="M0.000000 372.320513 h620.000000" /><text class="" x="-5" y="375.820512821">400</text><title>400</title></g><g class="guides"><path class="major guide line" d="M0.000000 339.371795 h620.000000" /><text class="major" x="-5" y="342.871794872">500</text><title>500</title></g><g class="guides"><path class="guide line" d="M0.000000 306.423077 h620.000000" /><text class="" x="-5" y="309.923076923">600</text><title>600</title></g><g class="guides"><path class="guide line" d="M0.000000 273.474359 h620.000000" /><text class="" x="-5" y="276.974358974">700</text><title>700</title></g><g class="guides"><path class="guide line" d="M0.000000 240.525641 h620.000000" /><text class="" x="-5" y="244.025641026">800</text><title>800</title></g><g class="guides"><path class="guide line" d="M0.000000 207.576923 h620.000000" /><text class="" x="-5" y="211.076923077">900</text><title>900</title></g><g class="guides"><path class="major guide line" d="M0.000000 174.628205 h620.000000" /><text class="major" x="-5" y="178.128205128">1000</text><title>1000</title></g><g class="guides"><path class="guide line" d="M0.000000 141.679487 h620.000000" /><text class="" x="-5" y="145.179487179">1100</text><title>1100</title></g><g class="guides"><path class="guide line" d="M0.000000 108.730769 h620.000000" /><text class="" x="-5" y="112.230769231">1200</text><title>1200</title></g><g class="guides"><path class="guide line" d="M0.000000 75.782051 h620.000000" /><text class="" x="-5" y="79.2820512821">1300</text><title>1300</title></g><g class="guides"><path class="guide line" d="M0.000000 42.833333 h620.000000" /><text class="" x="-5" y="46.3333333333">1400</text><title>1400</title></g><g class="guides"><path class="major guide line" d="M0.000000 9.884615 h620.000000" /><text class="major" x="-5" y="13.3846153846">1500</text><title>1500</title></g></g><g class="axis x"><path class="line" d="M0.000000 0.000000 v514.000000" /><g class="guides"><path class="guide line" d="M60.266553 0.000000 v514.000000" /><text class="" x="60.2665532504" y="529.0">10</text><title>10</title></g><g class="guides"><path class="guide line" d="M110.112357 0.000000 v514.000000" /><text class="" x="110.112357185" y="529.0">20</text><title>20</title></g><g class="guides"><path class="guide line" d="M159.958161 0.000000 v514.000000" /><text class="" x="159.958161121" y="529.0">30</text><title>30</title></g><g class="guides"><path class="guide line" d="M209.803965 0.000000 v514.000000" /><text class="" x="209.803965056" y="529.0">40</text><title>40</title></g><g class="guides"><path class="guide line" d="M259.649769 0.000000 v514.000000" /><text class="" x="259.649768991" y="529.0">50</text><title>50</title></g><g class="guides"><path class="guide line" d="M309.495573 0.000000 v514.000000" /><text class="" x="309.495572926" y="529.0">60</text><title>60</title></g><g class="guides"><path class="guide line" d="M359.341377 0.000000 v514.000000" /><text class="" x="359.341376861" y="529.0">70</text><title>70</title></g><g class="guides"><path class="guide line" d="M409.187181 0.000000 v514.000000" /><text class="" x="409.187180796" y="529.0">80</text><title>80</title></g><g class="guides"><path class="guide line" d="M459.032985 0.000000 v514.000000" /><text class="" x="459.032984731" y="529.0">90</text><title>90</title></g><g class="guides"><path class="guide line" d="M508.878789 0.000000 v514.000000" /><text class="" x="508.878788666" y="529.0">100</text><title>100</title></g><g class="guides"><path class="guide line" d="M558.724593 0.000000 v514.000000" /><text class="" x="558.724592601" y="529.0">110</text><title>110</title></g></g><g class="series serie-0 color-0"><path class="line reactive nofill" d="M11.923077 504.115385 L12.421216 504.115385 12.919514 503.785897 13.417973 503.456410 13.916590 502.797436 14.415048 488.958974 14.913347 483.028205 15.411810 461.941026 15.910268 438.876923 16.408726 427.015385 16.907184 421.743590 17.405642 408.564103 17.904100 406.916667 18.402558 406.916667 18.901016 409.552564 19.400272 502.797436 19.897932 503.126923 20.396540 503.126923 20.895297 504.115385 21.393456 503.785897 21.891764 502.138462 22.390372 503.785897 22.888979 504.115385 23.387437 504.115385 23.885895 503.456410 24.384204 503.456410 24.882811 504.115385 25.381120 501.479487 25.880625 497.525641 26.378036 495.878205 26.876494 485.334615 27.374952 474.132051 27.873410 460.623077 28.371719 458.316667 28.870476 456.010256 29.369133 454.033333 29.867392 454.692308 30.365700 451.726923 30.864158 452.385897 31.362766 452.056410 31.861074 451.397436 32.359383 449.091026 32.857991 453.703846 33.356449 449.750000 33.854757 449.091026 34.353215 449.750000 34.851823 452.385897 35.350131 451.726923 35.848739 448.432051 36.347047 444.478205 36.845655 444.807692 37.343963 443.819231 37.842571 443.489744 38.341179 441.512821 38.839637 431.628205 39.337945 423.061538 39.838497 420.755128 40.335011 432.946154 40.833469 428.333333 41.331777 422.073077 41.830235 418.448718 42.328843 420.755128 42.827301 420.096154 43.325759 417.460256 43.824067 415.483333 44.322675 417.130769 44.820984 417.130769 45.319591 413.176923 45.818049 410.541026 46.316358 414.165385 46.814965 412.847436 47.314968 411.529487 47.811881 409.552564 48.310190 410.870513 48.808797 413.506410 49.307754 441.512821 49.805863 454.692308 50.304171 454.692308 50.803078 469.848718 51.301088 470.507692 51.799546 473.473077 52.298004 479.074359 52.796462 498.184615 53.294770 485.005128 53.793378 479.074359 54.291686 475.120513 54.790294 472.155128 55.288602 472.155128 55.787060 469.189744 56.285668 468.201282 56.784126 468.530769 57.282435 467.542308 57.780893 467.871795 58.279351 466.553846 58.777809 468.201282 59.276267 462.929487 59.774874 462.270513 60.273532 457.657692 60.771990 454.362821 61.269949 453.703846 61.768407 454.692308 62.267364 450.408974 62.765323 449.420513 63.264280 448.761538 63.762738 447.773077 64.261196 447.773077 64.759156 443.160256 65.258112 441.842308 65.756570 441.842308 66.254530 442.501282 66.752988 440.853846 67.251446 439.206410 67.750402 442.830769 68.248860 438.547436 68.747318 437.229487 69.245278 434.264103 69.743736 432.287179 70.242692 432.946154 70.740652 432.946154 71.239609 432.287179 71.738067 428.333333 72.236525 429.651282 72.734983 428.003846 73.233441 423.061538 73.731400 422.732051 74.231354 421.743590 74.728815 421.414103 75.227273 419.766667 75.725232 419.437179 76.224189 420.755128 76.722149 420.755128 77.220607 419.766667 77.719563 416.471795 78.218021 416.142308 78.715981 415.153846 79.214439 411.200000 79.713395 410.541026 80.211853 411.529487 80.709813 411.858974 81.208769 410.870513 81.707227 412.847436 82.206682 412.517949 82.703645 410.870513 83.202601 411.858974 83.701060 411.529487 84.199518 411.529487 84.697477 411.529487 85.196434 467.212821 85.694892 466.883333 86.193350 470.507692 86.691808 472.484615 87.189767 475.779487 87.688724 473.802564 88.186683 471.496154 88.685640 470.507692 89.183599 467.871795 89.682556 462.600000 90.180516 460.952564 90.679472 460.623077 91.177930 462.929487 91.675890 457.657692 92.174846 456.010256 92.672806 455.680769 93.171264 453.374359 93.669722 455.021795 94.168180 454.033333 94.667136 451.397436 95.165096 450.738462 95.664052 448.102564 96.162012 446.125641 96.660969 443.160256 97.158928 445.137179 97.657386 441.842308 98.156343 442.171795 98.654302 442.830769 99.153259 440.194872 99.651218 440.853846 100.149676 441.842308 100.648633 436.241026 101.147091 435.252564 101.645050 436.900000 102.143509 435.252564 102.642465 435.911538 103.140425 435.252564 103.638883 435.252564 104.137341 429.980769 104.636297 428.662821 105.134755 427.344872 105.632715 423.061538 106.131671 422.073077 106.629631 421.084615 107.128587 423.720513 107.626547 416.801282 108.125005 412.517949 108.623961 413.835897 109.122420 414.824359 109.620379 411.529487 110.119336 409.882051 110.617794 411.858974 111.116252 413.506410 111.614710 413.506410 112.112669 410.870513 112.611626 411.858974 113.110084 413.506410 113.608043 410.211538 114.106501 407.905128 114.605458 410.211538 115.105411 409.552564 115.601876 408.234615 116.100334 410.541026 116.599290 413.176923 117.097748 413.506410 117.596206 434.923077 118.096160 458.646154 118.593122 459.305128 119.091580 470.507692 119.589540 468.860256 120.088496 469.848718 120.586954 466.553846 121.085412 463.258974 121.583372 470.178205 122.082329 467.212821 122.580288 465.894872 123.078746 464.906410 123.577703 460.623077 124.076161 458.316667 124.574120 458.316667 125.073077 458.316667 125.571036 456.339744 126.069993 454.692308 126.568451 454.692308 127.066410 455.021795 127.565367 452.385897 128.063825 449.750000 128.561785 448.432051 129.060243 443.160256 129.559199 446.125641 130.057159 443.489744 130.556115 441.183333 131.054573 437.229487 131.552533 435.582051 132.051489 433.934615 132.550944 439.206410 133.047907 440.194872 133.546863 437.558974 134.045321 433.605128 134.543780 429.321795 135.041739 427.674359 135.540197 431.298718 136.038655 431.298718 136.537612 429.980769 137.035571 425.038462 137.534528 425.697436 138.032986 423.061538 138.531444 422.402564 139.029902 416.801282 139.528360 417.130769 140.026818 412.847436 140.524778 414.165385 141.023236 410.211538 141.522192 411.858974 142.020650 412.517949 142.519108 412.188462 143.017566 414.494872 143.516523 464.906410 144.013984 466.553846 144.512940 471.496154 145.013392 472.814103 145.509856 494.560256 146.007816 487.311538 146.506772 474.461538 147.005231 472.814103 147.503689 471.166667 148.002147 472.814103 148.500605 474.132051 148.999063 468.860256 149.497521 464.247436 149.995480 464.906410 150.494437 461.611538 150.992895 461.611538 151.491353 458.316667 151.989811 457.328205 152.487770 456.998718 152.986727 453.374359 153.485185 452.056410 153.983145 448.432051 154.482101 447.114103 154.980559 448.761538 155.479017 449.091026 155.976977 450.079487 156.475933 450.738462 156.974391 448.761538 157.472351 443.489744 157.971307 445.137179 158.469267 442.171795 158.968223 441.183333 159.466183 440.853846 159.965140 441.183333 160.463598 437.229487 160.962056 435.582051 161.460514 428.662821 161.958972 424.708974 162.457430 426.356410 162.955888 429.651282 163.453847 428.662821 163.952305 427.344872 164.451262 431.298718 164.949720 429.980769 165.447680 426.356410 165.946138 423.391026 166.444596 426.026923 166.943552 427.015385 167.442010 417.789744 167.940468 415.153846 168.438428 417.789744 168.937384 423.061538 169.435344 420.425641 169.934300 419.107692 170.432260 417.460256 170.931216 414.824359 171.429674 411.529487 171.927634 414.824359 172.426591 413.835897 172.924550 411.529487 173.423507 410.211538 173.921466 409.223077 174.419924 410.870513 174.918382 416.471795 175.417339 410.541026 175.915797 409.882051 176.414255 408.893590 176.912713 412.847436 177.411171 414.494872 177.909629 413.506410 178.408087 413.835897 178.906545 411.200000 179.405502 457.987179 179.903461 458.316667 180.401919 456.339744 180.900377 464.576923 181.398337 467.212821 181.897293 464.247436 182.397247 462.600000 182.894209 486.652564 183.392169 472.484615 183.891125 471.166667 184.389583 469.848718 184.888042 462.270513 185.386001 460.623077 185.884958 462.929487 186.383416 462.270513 186.881874 456.998718 187.380332 454.362821 187.878790 450.738462 188.377248 454.362821 188.875207 456.010256 189.374164 452.385897 189.872622 446.455128 190.371080 439.865385 190.869538 438.876923 191.367996 440.524359 191.866454 440.524359 192.364912 434.593590 192.863370 435.911538 193.361828 435.582051 193.860286 433.934615 194.358744 429.980769 194.857202 431.957692 195.355660 433.934615 195.854118 437.558974 196.352576 439.535897 196.851034 433.275641 197.349492 432.946154 197.847951 429.980769 198.346409 428.333333 198.844368 428.992308 199.343325 423.391026 199.841783 417.789744 200.340241 417.789744 200.838699 415.812821 201.337157 413.506410 201.835116 415.483333 202.334073 420.755128 202.832032 421.084615 203.330989 419.107692 203.829447 419.766667 204.327905 415.812821 204.826363 413.176923 205.324821 409.552564 205.823279 411.200000 206.321737 411.529487 206.820195 411.529487 207.318653 409.552564 207.817610 435.582051 208.315569 455.351282 208.814027 456.998718 209.312485 468.530769 209.810943 469.519231 210.309402 471.825641 210.807860 470.507692 211.306318 481.051282 211.804277 478.415385 212.303234 472.814103 212.801692 474.461538 213.300150 469.189744 213.798608 465.235897 214.297066 461.611538 214.795524 462.600000 215.293982 460.952564 215.792440 459.964103 216.290898 455.351282 216.789356 459.305128 217.287814 458.646154 217.786272 456.010256 218.284730 451.397436 218.783188 446.125641 219.281646 444.807692 219.781101 445.137179 220.278562 443.819231 220.777020 441.512821 221.275478 435.252564 221.773438 430.310256 222.272394 429.980769 222.770852 436.241026 223.269311 434.593590 223.767769 434.593590 224.266227 438.217949 224.764685 440.853846 225.263143 434.264103 225.761601 425.038462 226.260059 421.414103 226.758517 423.061538 227.256975 423.061538 227.755433 428.992308 228.253891 431.957692 228.752349 431.298718 229.250309 423.391026 229.749265 424.708974 230.247723 428.003846 230.746181 427.674359 231.244639 424.708974 231.743097 421.084615 232.241555 421.084615 232.740013 417.460256 233.238471 411.529487 233.736929 410.211538 234.235387 408.234615 234.733845 408.893590 235.232303 414.824359 235.730762 415.483333 236.229220 416.142308 236.727678 424.050000 237.226136 448.761538 237.724594 448.432051 238.223052 457.657692 238.721510 459.964103 239.219968 460.293590 239.718426 465.235897 240.216884 465.565385 240.715342 466.224359 241.214797 469.848718 241.712258 467.871795 242.210716 467.871795 242.709174 468.860256 243.207632 463.917949 243.706090 459.634615 244.204548 455.021795 244.703006 447.114103 245.201464 450.408974 245.699922 448.102564 246.198380 449.750000 246.696838 454.362821 247.195296 453.374359 247.693754 447.773077 248.192212 446.784615 248.690671 443.489744 249.189129 438.547436 249.687587 438.547436 250.186045 435.911538 250.684503 431.628205 251.182961 429.321795 251.681419 430.310256 252.179877 430.639744 252.678833 431.628205 253.176793 431.298718 253.675251 426.026923 254.175703 424.379487 254.672167 423.061538 255.170625 425.038462 255.669083 424.708974 256.167541 424.050000 256.665999 425.367949 257.164457 426.685897 257.662915 425.697436 258.161373 424.050000 258.659831 422.732051 259.158289 415.483333 259.656249 412.517949 260.155205 416.801282 260.653663 419.107692 261.152122 412.847436 261.650580 408.564103 262.149038 410.541026 262.647496 411.200000 263.145954 412.847436 263.644412 410.211538 264.142870 411.529487 264.641328 413.176923 265.139786 412.517949 265.637745 410.541026 266.136702 410.541026 266.635658 428.003846 267.133618 443.489744 267.632076 444.807692 268.130534 462.600000 268.628992 460.623077 269.127949 478.085897 269.625908 474.791026 270.123868 463.258974 270.622824 468.860256 271.121282 465.235897 271.619740 461.282051 272.118198 463.258974 272.616656 461.282051 273.115114 458.975641 273.613573 456.339744 274.112031 459.964103 274.610489 453.044872 275.108947 451.397436 275.607405 447.443590 276.105863 453.374359 276.603822 456.998718 277.102779 458.646154 277.601237 450.738462 278.099695 446.125641 278.598153 445.796154 279.096611 442.830769 279.595069 439.865385 280.093527 441.183333 280.591985 432.616667 281.090443 428.662821 281.588901 429.651282 282.087359 423.061538 282.585817 420.425641 283.084275 422.402564 283.582733 421.743590 284.081191 418.778205 284.579649 416.471795 285.078107 416.801282 285.576565 414.165385 286.075023 412.188462 286.573482 412.188462 287.071940 411.529487 287.570398 411.858974 288.068856 412.517949 288.567314 410.870513 289.065772 411.858974 289.564230 412.517949 290.062688 413.176923 290.561644 442.171795 291.059604 444.807692 291.558062 446.125641 292.056520 458.975641 292.554978 459.964103 293.053436 465.894872 293.551894 468.201282 294.050352 474.461538 294.548810 472.484615 295.047268 475.120513 295.545726 475.779487 296.044184 471.496154 296.542642 462.600000 297.041100 461.941026 297.539558 462.270513 298.037518 458.975641 298.536474 453.374359 299.034933 455.351282 299.533391 453.703846 300.031849 450.408974 300.530307 451.726923 301.028765 450.079487 301.527223 441.512821 302.025681 441.183333 302.524139 441.842308 303.022597 433.605128 303.521055 433.934615 304.019513 432.616667 304.517971 433.605128 305.016429 432.946154 305.514887 431.957692 306.013345 432.946154 306.511803 430.639744 307.010261 430.639744 307.508719 430.310256 308.007177 427.674359 308.505635 429.321795 309.004093 427.344872 309.502551 424.379487 310.001009 419.437179 310.499467 417.460256 310.997925 419.766667 311.496383 420.096154 311.994842 413.506410 312.493300 412.188462 312.991758 408.234615 313.490216 410.541026 313.988674 409.882051 314.487132 413.835897 314.985590 414.494872 315.484048 418.119231 315.983004 429.321795 316.480964 446.455128 316.979422 453.044872 317.478378 467.871795 317.975840 466.553846 318.474796 477.097436 318.973254 474.132051 319.471712 476.438462 319.970170 478.085897 320.468628 479.733333 320.967086 473.473077 321.465544 474.461538 321.964002 467.542308 322.462460 469.848718 322.960918 466.224359 323.459376 461.282051 323.957834 460.952564 324.456293 454.362821 324.954751 458.316667 325.453209 455.351282 325.951667 448.761538 326.450125 446.125641 326.948583 444.148718 327.447041 443.489744 327.945499 448.432051 328.443957 452.715385 328.942415 451.397436 329.440873 447.114103 329.939331 445.796154 330.437789 439.206410 330.936247 436.570513 331.434705 438.217949 331.933163 433.934615 332.431621 432.946154 332.930079 428.662821 333.428537 425.697436 333.926995 422.402564 334.425453 420.755128 334.923911 416.142308 335.422369 413.506410 335.920827 410.541026 336.419285 415.153846 336.917744 414.494872 337.417198 414.824359 337.914660 413.506410 338.413118 409.223077 338.911576 413.176923 339.410034 415.812821 339.908492 414.165385 340.407448 431.628205 340.905906 448.432051 341.403866 448.102564 341.902324 456.669231 342.400782 459.305128 342.899240 466.553846 343.397698 473.473077 343.896156 475.120513 344.394614 475.120513 344.893072 470.837179 345.391530 472.155128 345.889988 465.894872 346.388446 467.212821 346.886904 465.894872 347.385362 461.282051 347.883820 457.657692 348.382278 453.044872 348.880736 450.079487 349.379194 449.420513 349.877653 445.137179 350.376111 449.091026 350.874569 450.079487 351.373027 451.067949 351.871485 450.079487 352.369943 445.137179 352.868401 440.524359 353.366859 435.582051 353.865317 433.605128 354.363775 433.275641 354.862233 424.708974 355.360691 424.708974 355.859149 428.333333 356.357607 427.015385 356.856065 425.697436 357.354523 426.026923 357.852981 425.697436 358.351439 418.448718 358.849897 413.176923 359.348355 414.165385 359.846813 418.119231 360.345271 416.142308 360.843729 411.529487 361.342187 411.858974 361.840645 409.223077 362.339104 411.529487 362.837562 413.506410 363.336020 414.165385 363.834478 426.356410 364.333434 452.056410 364.831394 453.044872 365.330350 472.484615 365.828310 470.178205 366.326768 471.166667 366.825226 475.120513 367.323684 472.484615 367.822142 468.201282 368.320600 479.733333 368.819058 481.051282 369.317516 473.143590 369.815974 473.143590 370.314432 466.224359 370.812890 467.542308 371.311348 464.576923 371.809806 461.611538 372.309261 458.975641 372.806722 459.305128 373.305180 453.703846 373.803638 444.148718 374.302096 443.489744 374.800554 449.091026 375.299013 453.044872 375.797471 451.397436 376.295929 450.738462 376.794387 444.807692 377.292845 442.830769 377.791303 432.616667 378.289761 432.287179 378.788219 433.934615 379.286677 434.923077 379.785135 436.570513 380.283593 442.171795 380.782051 443.819231 381.280509 437.229487 381.778967 436.241026 382.277425 436.241026 382.775883 429.980769 383.274341 428.333333 383.772799 424.379487 384.271257 418.119231 384.769715 414.494872 385.268173 411.858974 385.766631 413.176923 386.265089 410.211538 386.763547 410.541026 387.262005 409.882051 387.760464 408.893590 388.258922 409.882051 388.757878 414.824359 389.256336 439.865385 389.754296 438.547436 390.252754 436.241026 390.751710 453.374359 391.249670 453.044872 391.748128 451.397436 392.246586 457.987179 392.745044 460.623077 393.243502 459.305128 393.741960 459.964103 394.240418 460.952564 394.738876 456.010256 395.237334 449.091026 395.735792 457.987179 396.234250 455.351282 396.732708 452.715385 397.231166 454.362821 397.729624 451.726923 398.228082 451.067949 398.726540 448.432051 399.224998 443.489744 399.723456 440.194872 400.221914 441.183333 400.720373 442.171795 401.218831 435.911538 401.717289 433.275641 402.215747 432.616667 402.714205 435.582051 403.212663 432.616667 403.711121 434.264103 404.209579 429.651282 404.708037 425.697436 405.206495 428.333333 405.704953 433.275641 406.203411 428.333333 406.701869 428.333333 407.200327 429.980769 407.698785 429.321795 408.197243 427.015385 408.695701 422.732051 409.194159 422.732051 409.692617 419.437179 410.192072 414.494872 410.689533 410.870513 411.187991 409.223077 411.686449 410.211538 412.184907 417.130769 412.683365 415.812821 413.181824 410.870513 413.680282 411.200000 414.179238 440.524359 414.677198 450.408974 415.175656 450.738462 415.674612 457.987179 416.172572 454.362821 416.671030 460.293590 417.169488 462.929487 417.667946 468.201282 418.166404 470.507692 418.664862 467.871795 419.163320 466.224359 419.661778 468.530769 420.160236 466.553846 420.658694 463.917949 421.157152 455.680769 421.655610 454.362821 422.154068 449.091026 422.652526 447.114103 423.150984 446.125641 423.649442 448.761538 424.147900 444.478205 424.646358 449.091026 425.144816 449.750000 425.643275 445.796154 426.141733 445.137179 426.640191 440.194872 427.138649 434.923077 427.637107 435.582051 428.135565 438.547436 428.634023 436.570513 429.132481 431.628205 429.630939 427.015385 430.129397 428.003846 430.627855 424.379487 431.126313 427.674359 431.624771 429.980769 432.123229 427.674359 432.621687 428.003846 433.120145 426.356410 433.618603 425.697436 434.117061 423.720513 434.615519 419.107692 435.113977 421.084615 435.612435 418.119231 436.110893 414.824359 436.609351 411.200000 437.107809 410.870513 437.606267 413.176923 438.104725 412.517949 438.603184 409.223077 439.102140 434.264103 439.600100 436.241026 440.098558 430.969231 440.597016 447.773077 441.095474 453.703846 441.593932 465.565385 442.092390 463.258974 442.590848 461.282051 443.089306 464.247436 443.587764 458.975641 444.086222 461.282051 444.584680 460.293590 445.083138 453.703846 445.581596 448.432051 446.080054 443.160256 446.578512 443.819231 447.076970 445.466667 447.575428 439.535897 448.073886 435.582051 448.572344 434.264103 449.070802 434.923077 449.569260 438.876923 450.067718 435.582051 450.566176 435.582051 451.064635 431.298718 451.563093 429.321795 452.061551 427.674359 452.560009 426.356410 453.058467 421.084615 453.556925 421.084615 454.055383 419.766667 454.553841 418.448718 455.052299 416.801282 455.550757 417.460256 456.049215 413.835897 456.547673 410.541026 457.046629 410.541026 457.544589 411.200000 458.043047 413.506410 458.541505 413.176923 459.040462 423.391026 459.538920 449.750000 460.036879 462.270513 460.535836 462.270513 461.033795 461.941026 461.532253 477.097436 462.030711 480.721795 462.529169 476.767949 463.027627 473.473077 463.526085 483.357692 464.024544 480.062821 464.523002 478.744872 465.021460 473.473077 465.519918 472.155128 466.018376 470.837179 466.516834 467.542308 467.015292 462.600000 467.513750 463.588462 468.012208 461.941026 468.510666 463.258974 469.009124 460.952564 469.507582 454.692308 470.006040 453.374359 470.504498 440.524359 471.002956 432.616667 471.501414 434.264103 471.999872 434.923077 472.498330 422.402564 472.996788 414.494872 473.495246 418.778205 473.993704 426.685897 474.492162 428.333333 474.990620 426.026923 475.489078 424.708974 475.987536 423.720513 476.485995 416.142308 476.984453 413.506410 477.482911 417.460256 477.981369 417.460256 478.479827 413.506410 478.978285 412.517949 479.476743 418.778205 479.977195 416.801282 480.473659 414.494872 480.972117 417.460256 481.470575 417.460256 481.969033 413.835897 482.467989 407.905128 482.965949 409.882051 483.464407 409.882051 483.962865 409.882051 484.461822 408.893590 484.960280 429.980769 485.458239 437.229487 485.956697 435.582051 486.455155 450.079487 486.953613 457.328205 487.452071 455.021795 487.950529 459.305128 488.448987 458.646154 488.947446 458.646154 489.445904 456.998718 489.944362 449.091026 490.442820 455.351282 490.941278 460.293590 491.439736 451.726923 491.938194 451.397436 492.436652 449.750000 492.935110 444.478205 493.433568 443.489744 493.932026 443.160256 494.430484 444.807692 494.928942 448.102564 495.427400 445.796154 495.926357 440.524359 496.424316 438.547436 496.922774 438.217949 497.421232 431.628205 497.919690 426.685897 498.418148 424.379487 498.916606 423.720513 499.415064 423.061538 499.913522 421.414103 500.411980 426.356410 500.910438 424.708974 501.408896 416.801282 501.907355 408.893590 502.405813 413.835897 502.904271 414.165385 503.402729 414.494872 503.901187 411.200000 504.400143 439.206410 504.898103 440.194872 505.396561 438.547436 505.895517 459.964103 506.393477 466.553846 506.891935 480.392308 507.390393 475.120513 507.888851 470.507692 508.387309 468.201282 508.883773 470.837179 509.382231 462.270513 509.880689 457.657692 510.379147 458.975641 510.877605 460.623077 511.376063 459.634615 511.874521 459.305128 512.372980 458.646154 512.871438 456.998718 513.369896 450.738462 513.868354 453.703846 514.366812 450.408974 514.865270 443.819231 515.363728 438.876923 515.862186 429.651282 516.360644 420.096154 516.859102 425.697436 517.357560 423.061538 517.856018 419.107692 518.354476 417.460256 518.852934 416.142308 519.351392 419.107692 519.849850 413.506410 520.348308 408.564103 520.846766 409.223077 521.345224 412.847436 521.843682 414.824359 522.342140 426.356410 522.840598 451.067949 523.339056 449.750000 523.837514 459.964103 524.335972 458.316667 524.834431 456.339744 525.332889 466.224359 525.831347 454.692308 526.329805 464.576923 526.828263 467.542308 527.326721 470.837179 527.825179 466.553846 528.323637 460.952564 528.822095 458.316667 529.320553 460.623077 529.819011 461.282051 530.317469 460.623077 530.815927 458.975641 531.314385 457.987179 531.812843 457.987179 532.311301 457.328205 532.809759 455.021795 533.308217 450.738462 533.806675 440.853846 534.305133 435.252564 534.803591 444.148718 535.302049 439.535897 535.800507 439.865385 536.298965 436.570513 536.797423 438.547436 537.295881 435.911538 537.794340 429.651282 538.292798 428.333333 538.791256 424.708974 539.289714 417.789744 539.788172 416.801282 540.286630 417.789744 540.785088 416.471795 541.283546 414.824359 541.782004 414.824359 542.280462 412.517949 542.778920 410.870513 543.277378 409.223077 543.775836 410.211538 544.274294 410.870513 544.772752 413.176923 545.271210 419.766667 545.769668 429.651282 546.268126 431.957692 546.766584 426.026923 547.265042 445.796154 547.763500 449.420513 548.261958 439.206410 548.760416 449.420513 549.258874 451.397436 549.757332 452.056410 550.255791 455.351282 550.754249 454.362821 551.252707 456.339744 551.751165 452.385897 552.249623 448.432051 552.748081 444.148718 553.246539 448.432051 553.744997 450.079487 554.243455 443.819231 554.741913 449.750000 555.240371 450.408974 555.738829 443.819231 556.237287 433.275641 556.735745 431.957692 557.234203 428.003846 557.737646 434.923077 558.231119 429.321795 558.729577 419.766667 559.228035 412.847436 559.726493 414.165385 560.224951 413.835897 560.723409 416.801282 561.221867 426.685897 561.720325 449.420513 562.218783 449.420513 562.717241 455.351282 563.215700 463.588462 563.714158 466.553846 564.212616 473.802564 564.711074 471.825641 565.209532 468.860256 565.707990 461.941026 566.206448 467.542308 566.704906 466.883333 567.203364 464.576923 567.701822 459.634615 568.200280 453.044872 568.698738 451.726923 569.197196 454.033333 569.695654 450.079487 570.194112 450.079487 570.692570 447.114103 571.191028 441.842308 571.689486 440.524359 572.187944 437.229487 572.686402 431.628205 573.184860 432.616667 573.683318 424.379487 574.181776 425.367949 574.680234 423.720513 575.178692 424.050000 575.677151 419.107692 576.175609 416.801282 576.674067 416.471795 577.172525 419.766667 577.670983 423.391026 578.169441 419.107692 578.667899 416.142308 579.166357 416.801282 579.664815 414.494872 580.163273 418.778205 580.661731 417.460256 581.160189 419.766667 581.658647 419.107692 582.157105 412.517949 582.655563 411.200000 583.154021 410.541026 583.652479 408.234615 584.150937 412.188462 584.649395 425.697436 585.147853 443.819231 585.646311 443.160256 586.144769 444.148718 586.643227 450.738462 587.141685 447.773077 587.640143 451.397436 588.138602 452.385897 588.637060 461.611538 589.135518 463.258974 589.633976 456.998718 590.132434 461.941026 590.630892 458.646154 591.129350 455.680769 591.627808 459.305128 592.131250 452.715385 592.624724 459.305128 593.123182 461.611538 593.621640 458.646154 594.120098 455.021795 594.618556 454.033333 595.117014 452.385897 595.615472 442.830769 596.113930 437.229487 596.612388 435.252564 597.110846 431.628205 597.609304 426.685897 598.107762 426.026923 598.606220 429.321795 599.104678 428.003846 599.603136 437.558974 600.101594 435.252564 600.605037 431.957692 601.098511 427.344872 601.596969 425.038462 602.095427 422.732051 602.593885 416.142308 603.092343 408.564103 603.590801 410.541026 604.089259 409.882051 604.587717 411.858974 605.086175 418.778205 605.589617 428.992308 606.083091 438.547436 606.581549 436.900000 607.080007 451.067949 607.578465 452.385897 608.076923 451.397436" /></g><g class="series serie-1 color-1"><path class="line reactive nofill" d="M11.923077 374.297436 L12.421216 474.132051 12.919514 487.970513 13.417973 452.385897 13.916590 451.397436 14.415048 433.275641 14.913347 460.952564 15.411810 439.865385 15.910268 443.160256 16.408726 463.258974 16.907184 447.114103 17.405642 459.634615 17.904100 433.275641 18.402558 435.911538 18.901016 466.224359 19.400272 447.773077 19.897932 467.212821 20.396540 439.865385 20.895297 360.129487 21.393456 448.432051 21.891764 457.987179 22.390372 461.941026 22.888979 405.928205 23.387437 430.310256 23.885895 409.882051 24.384204 408.893590 24.882811 421.743590 25.381120 443.489744 25.880625 419.107692 26.378036 438.217949 26.876494 448.102564 27.374952 425.367949 27.873410 431.628205 28.371719 424.708974 28.870476 405.269231 29.369133 405.928205 29.867392 435.252564 30.365700 433.934615 30.864158 410.541026 31.362766 409.882051 31.861074 432.287179 32.359383 459.634615 32.857991 433.275641 33.356449 417.460256 33.854757 466.224359 34.353215 460.623077 34.851823 468.530769 35.350131 442.171795 35.848739 446.784615 36.347047 449.420513 36.845655 465.894872 37.343963 468.201282 37.842571 450.738462 38.341179 337.724359 38.839637 374.626923 39.337945 422.073077 39.838497 431.628205 40.335011 410.870513 40.833469 373.308974 41.331777 433.275641 41.830235 428.662821 42.328843 406.916667 42.827301 419.107692 43.325759 412.188462 43.824067 396.373077 44.322675 407.575641 44.820984 410.211538 45.319591 400.326923 45.818049 429.321795 46.316358 434.593590 46.814965 425.038462 47.314968 374.626923 47.811881 392.089744 48.310190 434.593590 48.808797 391.101282 49.307754 401.644872 49.805863 423.391026 50.304171 405.928205 50.803078 430.969231 51.301088 418.448718 51.799546 423.720513 52.298004 445.466667 52.796462 438.217949 53.294770 416.471795 53.793378 405.928205 54.291686 435.582051 54.790294 411.200000 55.288602 440.194872 55.787060 403.292308 56.285668 414.165385 56.784126 441.183333 57.282435 445.137179 57.780893 438.876923 58.279351 449.750000 58.777809 428.992308 59.276267 407.575641 59.774874 431.957692 60.273532 410.541026 60.771990 411.529487 61.269949 425.038462 61.768407 433.934615 62.267364 410.541026 62.765323 434.593590 63.264280 416.471795 63.762738 430.310256 64.261196 419.437179 64.759156 432.287179 65.258112 406.587179 65.756570 431.957692 66.254530 436.900000 66.752988 426.685897 67.251446 435.911538 67.750402 425.697436 68.248860 419.437179 68.747318 402.303846 69.245278 442.830769 69.743736 427.674359 70.242692 425.038462 70.740652 437.229487 71.239609 410.541026 71.738067 432.287179 72.236525 420.425641 72.734983 405.269231 73.233441 402.633333 73.731400 424.379487 74.231354 438.547436 74.728815 417.460256 75.227273 413.506410 75.725232 448.761538 76.224189 417.130769 76.722149 438.876923 77.220607 432.946154 77.719563 408.564103 78.218021 410.870513 78.715981 405.598718 79.214439 433.605128 79.713395 420.425641 80.211853 445.466667 80.709813 440.853846 81.208769 412.517949 81.707227 427.015385 82.206682 415.812821 82.703645 425.697436 83.202601 416.801282 83.701060 433.275641 84.199518 406.587179 84.697477 435.911538 85.196434 447.443590 85.694892 438.547436 86.193350 410.211538 86.691808 423.061538 87.189767 440.194872 87.688724 424.708974 88.186683 432.616667 88.685640 416.471795 89.183599 425.697436 89.682556 398.020513 90.180516 400.326923 90.679472 440.194872 91.177930 411.529487 91.675890 401.315385 92.174846 411.200000 92.672806 419.437179 93.171264 429.651282 93.669722 433.275641 94.168180 419.766667 94.667136 428.662821 95.165096 415.153846 95.664052 399.667949 96.162012 435.582051 96.660969 400.656410 97.158928 410.211538 97.657386 440.853846 98.156343 407.905128 98.654302 436.900000 99.153259 418.778205 99.651218 429.651282 100.149676 411.529487 100.648633 432.946154 101.147091 427.344872 101.645050 441.512821 102.143509 447.773077 102.642465 435.911538 103.140425 429.980769 103.638883 412.517949 104.137341 411.200000 104.636297 410.870513 105.134755 406.916667 105.632715 438.217949 106.131671 403.292308 106.629631 432.616667 107.128587 378.580769 107.626547 411.529487 108.125005 405.269231 108.623961 428.333333 109.122420 396.043590 109.620379 381.546154 110.119336 432.946154 110.617794 399.338462 111.116252 409.882051 111.614710 404.939744 112.112669 463.588462 112.611626 404.610256 113.110084 402.633333 113.608043 437.229487 114.106501 404.610256 114.605458 421.414103 115.105411 400.985897 115.601876 420.425641 116.100334 470.837179 116.599290 404.610256 117.097748 397.691026 117.596206 433.275641 118.096160 438.876923 118.593122 407.575641 119.091580 438.217949 119.589540 432.616667 120.088496 399.997436 120.586954 405.928205 121.085412 448.432051 121.583372 418.448718 122.082329 440.194872 122.580288 429.321795 123.078746 427.674359 123.577703 389.124359 124.076161 426.026923 124.574120 429.321795 125.073077 405.269231 125.571036 420.096154 126.069993 431.298718 126.568451 430.639744 127.066410 439.865385 127.565367 406.257692 128.063825 404.610256 128.561785 423.720513 129.060243 428.333333 129.559199 414.494872 130.057159 403.292308 130.556115 382.205128 131.054573 444.148718 131.552533 423.061538 132.051489 458.316667 132.550944 452.715385 133.047907 432.287179 133.546863 404.610256 134.045321 388.465385 134.543780 402.303846 135.041739 418.778205 135.540197 424.050000 136.038655 424.708974 136.537612 402.303846 137.035571 403.951282 137.534528 414.494872 138.032986 412.517949 138.531444 395.384615 139.029902 401.974359 139.528360 367.707692 140.026818 394.725641 140.524778 396.702564 141.023236 420.096154 141.522192 389.453846 142.020650 411.529487 142.519108 403.292308 143.017566 412.188462 143.516523 430.969231 144.013984 399.338462 144.512940 414.165385 145.013392 408.564103 145.509856 420.755128 146.007816 371.332051 146.506772 368.696154 147.005231 404.280769 147.503689 399.667949 148.002147 425.038462 148.500605 406.916667 148.999063 369.025641 149.497521 401.644872 149.995480 406.257692 150.494437 389.453846 150.992895 392.419231 151.491353 421.414103 151.989811 404.280769 152.487770 424.379487 152.986727 377.262821 153.485185 383.523077 153.983145 408.234615 154.482101 425.697436 154.980559 398.350000 155.479017 408.234615 155.976977 427.015385 156.475933 388.465385 156.974391 414.165385 157.472351 416.801282 157.971307 418.778205 158.469267 393.737179 158.968223 416.471795 159.466183 421.743590 159.965140 407.246154 160.463598 386.158974 160.962056 366.060256 161.460514 384.511538 161.958972 381.546154 162.457430 403.292308 162.955888 393.737179 163.453847 418.448718 163.952305 448.761538 164.451262 405.928205 164.949720 389.124359 165.447680 418.448718 165.946138 400.985897 166.444596 411.529487 166.943552 359.800000 167.442010 399.997436 167.940468 399.997436 168.438428 433.934615 168.937384 426.026923 169.435344 386.158974 169.934300 393.407692 170.432260 428.662821 170.931216 413.506410 171.429674 396.373077 171.927634 445.466667 172.426591 392.089744 172.924550 403.621795 173.423507 420.755128 173.921466 417.789744 174.419924 456.998718 174.918382 454.362821 175.417339 373.638462 175.915797 400.985897 176.414255 383.852564 176.912713 395.714103 177.411171 403.951282 177.909629 395.384615 178.408087 407.575641 178.906545 409.223077 179.405502 388.794872 179.903461 372.979487 180.401919 386.817949 180.900377 397.361538 181.398337 395.055128 181.897293 372.979487 182.397247 418.778205 182.894209 400.985897 183.392169 377.921795 183.891125 381.216667 184.389583 372.979487 184.888042 363.424359 185.386001 408.234615 185.884958 398.679487 186.383416 360.788462 186.881874 373.967949 187.380332 399.997436 187.878790 381.546154 188.377248 429.651282 188.875207 392.419231 189.374164 302.139744 189.872622 302.798718 190.371080 417.130769 190.869538 386.817949 191.367996 390.771795 191.866454 380.887179 192.364912 363.094872 192.863370 398.679487 193.361828 399.667949 193.860286 385.829487 194.358744 358.811538 194.857202 404.610256 195.355660 406.257692 195.854118 412.517949 196.352576 375.944872 196.851034 365.730769 197.349492 397.032051 197.847951 391.430769 198.346409 381.216667 198.844368 353.869231 199.343325 318.614103 199.841783 397.361538 200.340241 349.915385 200.838699 405.269231 201.337157 387.476923 201.835116 405.928205 202.334073 423.061538 202.832032 421.414103 203.330989 380.557692 203.829447 388.465385 204.327905 359.141026 204.826363 390.112821 205.324821 370.343590 205.823279 404.610256 206.321737 365.730769 206.820195 412.188462 207.318653 350.574359 207.817610 385.500000 208.315569 392.089744 208.814027 399.667949 209.312485 363.753846 209.810943 409.223077 210.309402 385.170513 210.807860 344.643590 211.306318 363.753846 211.804277 366.060256 212.303234 379.898718 212.801692 362.106410 213.300150 338.712821 213.798608 343.984615 214.297066 402.303846 214.795524 379.898718 215.293982 355.516667 215.792440 370.343590 216.290898 378.580769 216.789356 408.564103 217.287814 374.626923 217.786272 336.735897 218.284730 358.152564 218.783188 336.735897 219.281646 394.396154 219.781101 374.956410 220.278562 362.435897 220.777020 319.602564 221.275478 288.960256 221.773438 369.684615 222.272394 396.702564 222.770852 368.037179 223.269311 380.557692 223.767769 381.216667 224.266227 394.725641 224.764685 370.673077 225.263143 325.533333 225.761601 339.701282 226.260059 379.569231 226.758517 363.753846 227.256975 430.310256 227.755433 424.379487 228.253891 355.516667 228.752349 323.556410 229.250309 411.200000 229.749265 417.130769 230.247723 381.875641 230.746181 380.557692 231.244639 395.055128 231.743097 374.956410 232.241555 346.950000 232.740013 347.938462 233.238471 395.055128 233.736929 354.528205 234.235387 372.979487 234.733845 387.147436 235.232303 372.979487 235.730762 412.517949 236.229220 359.800000 236.727678 345.302564 237.226136 363.424359 237.724594 377.921795 238.223052 361.117949 238.721510 352.551282 239.219968 381.546154 239.718426 365.071795 240.216884 372.979487 240.715342 371.661538 241.214797 400.656410 241.712258 395.384615 242.210716 395.714103 242.709174 343.325641 243.207632 361.776923 243.706090 340.360256 244.204548 344.643590 244.703006 368.696154 245.201464 341.678205 245.699922 367.707692 246.198380 378.251282 246.696838 383.193590 247.195296 366.389744 247.693754 356.505128 248.192212 381.216667 248.690671 338.712821 249.189129 367.707692 249.687587 373.308974 250.186045 354.198718 250.684503 332.452564 251.182961 379.239744 251.681419 385.500000 252.179877 366.389744 252.678833 414.165385 253.176793 335.088462 253.675251 385.500000 254.175703 380.557692 254.672167 325.533333 255.170625 402.303846 255.669083 410.211538 256.167541 378.910256 256.665999 371.332051 257.164457 428.662821 257.662915 372.320513 258.161373 356.834615 258.659831 329.157692 259.158289 371.332051 259.656249 403.621795 260.155205 396.043590 260.653663 358.811538 261.152122 363.753846 261.650580 372.320513 262.149038 388.135897 262.647496 376.933333 263.145954 378.580769 263.644412 336.406410 264.142870 348.267949 264.641328 424.379487 265.139786 359.141026 265.637745 412.517949 266.136702 353.869231 266.635658 292.584615 267.133618 399.667949 267.632076 371.002564 268.130534 374.626923 268.628992 315.319231 269.127949 323.885897 269.625908 297.856410 270.123868 385.170513 270.622824 388.794872 271.121282 369.355128 271.619740 314.660256 272.118198 421.743590 272.616656 333.111538 273.115114 356.834615 273.613573 383.852564 274.112031 359.141026 274.610489 351.892308 275.108947 309.717949 275.607405 366.719231 276.105863 428.333333 276.603822 427.674359 277.102779 348.926923 277.601237 369.355128 278.099695 370.673077 278.598153 382.205128 279.096611 335.747436 279.595069 383.193590 280.093527 341.019231 280.591985 313.012821 281.090443 362.765385 281.588901 334.429487 282.087359 338.383333 282.585817 362.435897 283.084275 361.117949 283.582733 350.903846 284.081191 316.307692 284.579649 371.332051 285.078107 364.742308 285.576565 321.250000 286.075023 342.337179 286.573482 353.869231 287.071940 378.251282 287.570398 319.602564 288.068856 309.717949 288.567314 354.528205 289.065772 377.592308 289.564230 326.851282 290.062688 350.903846 290.561644 291.266667 291.059604 337.724359 291.558062 358.811538 292.056520 361.776923 292.554978 326.192308 293.053436 388.794872 293.551894 380.887179 294.050352 362.435897 294.548810 330.475641 295.047268 409.882051 295.545726 367.707692 296.044184 299.503846 296.542642 365.730769 297.041100 377.921795 297.539558 324.215385 298.037518 351.233333 298.536474 358.152564 299.034933 336.735897 299.533391 374.956410 300.031849 327.510256 300.530307 398.679487 301.028765 316.307692 301.527223 364.412821 302.025681 365.401282 302.524139 331.134615 303.022597 335.417949 303.521055 359.800000 304.019513 388.135897 304.517971 340.360256 305.016429 364.742308 305.514887 373.308974 306.013345 345.302564 306.511803 394.725641 307.010261 341.348718 307.508719 371.661538 308.007177 399.008974 308.505635 316.966667 309.004093 345.961538 309.502551 292.914103 310.001009 374.626923 310.499467 388.465385 310.997925 382.205128 311.496383 343.325641 311.994842 344.314103 312.493300 302.139744 312.991758 330.475641 313.490216 285.335897 313.988674 305.434615 314.487132 416.801282 314.985590 352.551282 315.484048 373.638462 315.983004 329.487179 316.480964 366.719231 316.979422 353.539744 317.478378 359.470513 317.975840 382.534615 318.474796 376.274359 318.973254 325.862821 319.471712 381.546154 319.970170 380.887179 320.468628 351.233333 320.967086 385.829487 321.465544 339.371795 321.964002 370.673077 322.462460 347.938462 322.960918 341.678205 323.459376 326.521795 323.957834 370.343590 324.456293 294.232051 324.954751 388.465385 325.453209 306.423077 325.951667 337.394872 326.450125 372.979487 326.948583 314.660256 327.447041 406.257692 327.945499 373.638462 328.443957 383.852564 328.942415 354.857692 329.440873 387.147436 329.939331 338.712821 330.437789 322.238462 330.936247 383.523077 331.434705 368.696154 331.933163 312.024359 332.431621 335.747436 332.930079 371.002564 333.428537 314.330769 333.926995 381.546154 334.425453 323.226923 334.923911 305.764103 335.422369 322.238462 335.920827 303.128205 336.419285 389.453846 336.917744 306.423077 337.417198 381.546154 337.914660 340.030769 338.413118 326.521795 338.911576 373.967949 339.410034 373.638462 339.908492 365.730769 340.407448 351.562821 340.905906 323.885897 341.403866 307.082051 341.902324 342.666667 342.400782 364.742308 342.899240 354.857692 343.397698 395.714103 343.896156 397.032051 344.394614 360.788462 344.893072 375.285897 345.391530 334.100000 345.889988 351.892308 346.388446 336.735897 346.886904 344.643590 347.385362 313.671795 347.883820 323.226923 348.382278 342.007692 348.880736 336.735897 349.379194 337.724359 349.877653 339.371795 350.376111 404.939744 350.874569 372.320513 351.373027 410.870513 351.871485 306.093590 352.369943 323.556410 352.868401 333.441026 353.366859 321.908974 353.865317 369.684615 354.363775 343.655128 354.862233 337.724359 355.360691 358.482051 355.859149 354.528205 356.357607 340.030769 356.856065 374.297436 357.354523 367.048718 357.852981 290.607692 358.351439 300.162821 358.849897 329.816667 359.348355 367.048718 359.846813 355.187179 360.345271 327.839744 360.843729 352.880769 361.342187 331.793590 361.840645 311.035897 362.339104 364.742308 362.837562 331.793590 363.336020 354.198718 363.834478 364.412821 364.333434 363.424359 364.831394 380.228205 365.330350 371.002564 365.828310 342.666667 366.326768 366.389744 366.825226 327.839744 367.323684 311.365385 367.822142 350.244872 368.320600 325.862821 368.819058 354.198718 369.317516 294.561538 369.815974 301.810256 370.314432 285.994872 370.812890 376.933333 371.311348 289.948718 371.809806 349.256410 372.309261 308.400000 372.806722 345.632051 373.305180 237.889744 373.803638 284.676923 374.302096 413.176923 374.800554 350.574359 375.299013 391.760256 375.797471 343.655128 376.295929 297.856410 376.794387 335.088462 377.292845 306.423077 377.791303 306.752564 378.289761 362.435897 378.788219 358.482051 379.286677 363.424359 379.785135 353.210256 380.283593 397.032051 380.782051 357.493590 381.280509 322.897436 381.778967 379.239744 382.277425 329.157692 382.775883 338.383333 383.274341 331.464103 383.772799 274.133333 384.271257 318.943590 384.769715 326.192308 385.268173 359.141026 385.766631 300.821795 386.265089 335.747436 386.763547 363.753846 387.262005 310.047436 387.760464 316.307692 388.258922 320.591026 388.757878 297.526923 389.256336 325.533333 389.754296 289.948718 390.252754 320.920513 390.751710 369.355128 391.249670 274.792308 391.748128 348.597436 392.246586 363.094872 392.745044 300.492308 393.243502 363.424359 393.741960 346.950000 394.240418 289.289744 394.738876 258.647436 395.237334 300.492308 395.735792 374.956410 396.234250 328.828205 396.732708 342.007692 397.231166 372.650000 397.729624 323.885897 398.228082 332.452564 398.726540 277.757692 399.224998 323.885897 399.723456 366.389744 400.221914 326.521795 400.720373 325.533333 401.218831 286.653846 401.717289 331.793590 402.215747 339.042308 402.714205 360.129487 403.212663 304.775641 403.711121 333.441026 404.209579 324.874359 404.708037 345.961538 405.206495 379.569231 405.704953 357.164103 406.203411 307.411538 406.701869 378.251282 407.200327 352.221795 407.698785 330.146154 408.197243 320.920513 408.695701 348.926923 409.194159 359.800000 409.692617 311.035897 410.192072 318.943590 410.689533 317.296154 411.187991 322.567949 411.686449 362.106410 412.184907 321.579487 412.683365 260.953846 413.181824 348.267949 413.680282 375.285897 414.179238 342.337179 414.677198 367.048718 415.175656 332.123077 415.674612 323.885897 416.172572 300.162821 416.671030 349.585897 417.169488 347.608974 417.667946 414.165385 418.166404 295.879487 418.664862 320.591026 419.163320 398.679487 419.661778 369.355128 420.160236 336.406410 420.658694 323.885897 421.157152 358.152564 421.655610 279.405128 422.154068 328.828205 422.652526 329.157692 423.150984 337.394872 423.649442 348.926923 424.147900 318.614103 424.646358 411.858974 425.144816 342.996154 425.643275 346.620513 426.141733 316.307692 426.640191 327.180769 427.138649 333.770513 427.637107 356.834615 428.135565 369.355128 428.634023 337.065385 429.132481 266.884615 429.630939 360.129487 430.129397 347.608974 430.627855 339.371795 431.126313 367.048718 431.624771 352.880769 432.123229 335.747436 432.621687 353.539744 433.120145 375.944872 433.618603 323.885897 434.117061 381.875641 434.615519 320.591026 435.113977 372.320513 435.612435 310.376923 436.110893 310.047436 436.609351 355.516667 437.107809 365.401282 437.606267 364.742308 438.104725 312.683333 438.603184 304.446154 439.102140 339.042308 439.600100 304.116667 440.098558 288.301282 440.597016 355.516667 441.095474 396.373077 441.593932 359.800000 442.092390 326.521795 442.590848 346.950000 443.089306 327.180769 443.587764 314.660256 444.086222 347.608974 444.584680 299.833333 445.083138 296.208974 445.581596 300.492308 446.080054 327.510256 446.578512 360.129487 447.076970 260.953846 447.575428 304.446154 448.073886 307.082051 448.572344 319.602564 449.070802 391.101282 449.569260 339.371795 450.067718 327.180769 450.566176 333.111538 451.064635 306.423077 451.563093 336.076923 452.061551 363.753846 452.560009 320.591026 453.058467 301.810256 453.556925 320.591026 454.055383 339.371795 454.553841 342.007692 455.052299 338.712821 455.550757 314.660256 456.049215 257.658974 456.547673 301.810256 457.046629 278.416667 457.544589 329.816667 458.043047 368.366667 458.541505 281.052564 459.040462 305.105128 459.538920 352.551282 460.036879 371.661538 460.535836 266.884615 461.033795 312.353846 461.532253 389.124359 462.030711 315.648718 462.529169 282.370513 463.027627 293.243590 463.526085 348.926923 464.024544 323.226923 464.523002 310.376923 465.021460 313.671795 465.519918 359.470513 466.018376 314.001282 466.516834 317.625641 467.015292 327.839744 467.513750 356.505128 468.012208 357.164103 468.510666 321.579487 469.009124 318.284615 469.507582 346.620513 470.006040 186.160256 470.504498 225.698718 471.002956 331.793590 471.501414 309.388462 471.999872 174.298718 472.498330 151.564103 472.996788 313.342308 473.495246 328.498718 473.993704 366.389744 474.492162 370.014103 474.990620 333.441026 475.489078 253.046154 475.987536 286.983333 476.485995 338.383333 476.984453 329.816667 477.482911 340.689744 477.981369 316.637179 478.479827 328.169231 478.978285 363.094872 479.476743 327.510256 479.977195 347.608974 480.473659 357.164103 480.972117 346.291026 481.470575 307.411538 481.969033 298.185897 482.467989 230.970513 482.965949 303.457692 483.464407 329.157692 483.962865 306.093590 484.461822 230.311538 484.960280 339.042308 485.458239 309.388462 485.956697 314.001282 486.455155 331.464103 486.953613 347.938462 487.452071 328.498718 487.950529 295.220513 488.448987 322.567949 488.947446 318.284615 489.445904 267.873077 489.944362 322.567949 490.442820 346.950000 490.941278 284.017949 491.439736 352.880769 491.938194 272.815385 492.436652 317.296154 492.935110 288.630769 493.433568 315.978205 493.932026 376.933333 494.430484 344.314103 494.928942 322.897436 495.427400 277.428205 495.926357 337.724359 496.424316 345.632051 496.922774 258.647436 497.421232 301.151282 497.919690 301.480769 498.418148 287.642308 498.916606 354.198718 499.415064 360.458974 499.913522 324.215385 500.411980 324.874359 500.910438 291.266667 501.408896 258.317949 501.907355 284.017949 502.405813 335.747436 502.904271 291.596154 503.402729 320.591026 503.901187 316.637179 504.400143 320.591026 504.898103 304.446154 505.396561 314.660256 505.895517 332.123077 506.393477 348.597436 506.891935 325.862821 507.390393 307.082051 507.888851 280.393590 508.387309 343.655128 508.883773 285.665385 509.382231 285.994872 509.880689 325.203846 510.379147 335.747436 510.877605 304.446154 511.376063 339.042308 511.874521 327.839744 512.372980 315.978205 512.871438 336.406410 513.369896 325.203846 513.868354 342.996154 514.366812 299.503846 514.865270 257.658974 515.363728 270.838462 515.862186 249.092308 516.360644 315.319231 516.859102 326.521795 517.357560 236.901282 517.856018 337.065385 518.354476 346.291026 518.852934 305.764103 519.351392 282.041026 519.849850 247.774359 520.348308 325.862821 520.846766 294.891026 521.345224 314.330769 521.843682 313.342308 522.342140 313.012821 522.840598 326.521795 523.339056 330.146154 523.837514 310.376923 524.335972 277.428205 524.834431 231.300000 525.332889 306.752564 525.831347 206.917949 526.329805 373.967949 526.828263 344.973077 527.326721 257.329487 527.825179 285.665385 528.323637 265.237179 528.822095 311.365385 529.320553 345.302564 529.819011 313.342308 530.317469 325.533333 530.815927 323.556410 531.314385 315.978205 531.812843 347.938462 532.311301 315.978205 532.809759 290.937179 533.308217 273.474359 533.806675 285.006410 534.305133 325.203846 534.803591 322.238462 535.302049 324.215385 535.800507 280.723077 536.298965 322.897436 536.797423 368.037179 537.295881 264.248718 537.794340 304.116667 538.292798 325.862821 538.791256 282.370513 539.289714 298.844872 539.788172 324.874359 540.286630 334.100000 540.785088 313.012821 541.283546 305.434615 541.782004 335.747436 542.280462 299.833333 542.778920 278.416667 543.277378 301.480769 543.775836 341.348718 544.274294 317.955128 544.772752 315.319231 545.271210 279.405128 545.769668 221.744872 546.268126 272.815385 546.766584 284.017949 547.265042 345.302564 547.763500 278.416667 548.261958 283.029487 548.760416 301.810256 549.258874 314.660256 549.757332 324.215385 550.255791 271.826923 550.754249 359.141026 551.252707 292.584615 551.751165 258.317949 552.249623 265.237179 552.748081 346.620513 553.246539 341.019231 553.744997 332.782051 554.243455 295.879487 554.741913 338.053846 555.240371 327.839744 555.738829 215.155128 556.237287 201.316667 556.735745 314.989744 557.234203 322.567949 557.737646 295.879487 558.231119 224.380769 558.729577 188.796154 559.228035 312.353846 559.726493 240.855128 560.224951 330.146154 560.723409 313.012821 561.221867 349.256410 561.720325 301.480769 562.218783 336.406410 562.717241 285.994872 563.215700 343.325641 563.714158 323.885897 564.212616 343.984615 564.711074 261.612821 565.209532 294.891026 565.707990 280.723077 566.206448 342.666667 566.704906 318.284615 567.203364 264.578205 567.701822 257.329487 568.200280 291.266667 568.698738 284.676923 569.197196 328.169231 569.695654 271.497436 570.194112 318.943590 570.692570 306.423077 571.191028 263.919231 571.689486 311.694872 572.187944 296.538462 572.686402 313.671795 573.184860 219.767949 573.683318 305.105128 574.181776 342.337179 574.680234 305.764103 575.178692 247.774359 575.677151 270.508974 576.175609 348.597436 576.674067 287.642308 577.172525 355.846154 577.670983 309.717949 578.169441 337.065385 578.667899 273.803846 579.166357 273.803846 579.664815 341.348718 580.163273 356.505128 580.661731 359.141026 581.160189 308.729487 581.658647 304.446154 582.157105 291.925641 582.655563 253.705128 583.154021 313.671795 583.652479 249.421795 584.150937 326.192308 584.649395 278.746154 585.147853 337.724359 585.646311 283.029487 586.144769 274.462821 586.643227 260.953846 587.141685 314.330769 587.640143 253.705128 588.138602 303.128205 588.637060 304.775641 589.135518 230.641026 589.633976 355.846154 590.132434 294.232051 590.630892 343.655128 591.129350 267.214103 591.627808 277.098718 592.131250 320.920513 592.624724 343.655128 593.123182 314.001282 593.621640 255.352564 594.120098 314.660256 594.618556 311.694872 595.117014 277.428205 595.615472 256.341026 596.113930 302.469231 596.612388 253.375641 597.110846 296.538462 597.609304 278.746154 598.107762 310.376923 598.606220 356.834615 599.104678 297.197436 599.603136 356.175641 600.101594 245.467949 600.605037 354.528205 601.098511 297.197436 601.596969 258.647436 602.095427 292.584615 602.593885 215.155128 603.092343 259.306410 603.590801 294.891026 604.089259 297.526923 604.587717 284.017949 605.086175 329.157692 605.589617 267.214103 606.083091 306.423077 606.581549 285.994872 607.080007 301.480769 607.578465 264.248718 608.076923 334.429487" /></g><g class="series serie-2 color-2"><path class="line reactive nofill" d="M11.923077 174.628205 L12.421216 174.628205 12.919514 174.628205 13.417973 174.628205 13.916590 174.628205 14.415048 174.628205 14.913347 174.628205 15.411810 174.628205 15.910268 174.628205 16.408726 174.628205 16.907184 174.628205 17.405642 174.628205 17.904100 174.628205 18.402558 174.628205 18.901016 174.628205 19.400272 174.628205 19.897932 174.628205 20.396540 174.628205 20.895297 174.628205 21.393456 174.628205 21.891764 174.628205 22.390372 174.628205 22.888979 174.628205 23.387437 174.628205 23.885895 174.628205 24.384204 174.628205 24.882811 174.628205 25.381120 174.628205 25.880625 174.628205 26.378036 174.628205 26.876494 174.628205 27.374952 174.628205 27.873410 174.628205 28.371719 174.628205 28.870476 174.628205 29.369133 174.628205 29.867392 174.628205 30.365700 174.628205 30.864158 174.628205 31.362766 174.628205 31.861074 174.628205 32.359383 174.628205 32.857991 174.628205 33.356449 174.628205 33.854757 174.628205 34.353215 174.628205 34.851823 174.628205 35.350131 174.628205 35.848739 174.628205 36.347047 174.628205 36.845655 174.628205 37.343963 174.628205 37.842571 174.628205 38.341179 174.628205 38.839637 174.628205 39.337945 174.628205 39.838497 174.628205 40.335011 174.628205 40.833469 174.628205 41.331777 174.628205 41.830235 174.628205 42.328843 174.628205 42.827301 174.628205 43.325759 174.628205 43.824067 174.628205 44.322675 174.628205 44.820984 174.628205 45.319591 174.628205 45.818049 174.628205 46.316358 174.628205 46.814965 174.628205 47.314968 174.628205 47.811881 174.628205 48.310190 174.628205 48.808797 174.628205 49.307754 174.628205 49.805863 174.628205 50.304171 174.628205 50.803078 174.628205 51.301088 174.628205 51.799546 174.628205 52.298004 174.628205 52.796462 174.628205 53.294770 174.628205 53.793378 174.628205 54.291686 174.628205 54.790294 174.628205 55.288602 174.628205 55.787060 174.628205 56.285668 174.628205 56.784126 174.628205 57.282435 174.628205 57.780893 174.628205 58.279351 174.628205 58.777809 174.628205 59.276267 174.628205 59.774874 174.628205 60.273532 174.628205 60.771990 174.628205 61.269949 174.628205 61.768407 174.628205 62.267364 174.628205 62.765323 174.628205 63.264280 174.628205 63.762738 174.628205 64.261196 174.628205 64.759156 174.628205 65.258112 174.628205 65.756570 174.628205 66.254530 174.628205 66.752988 174.628205 67.251446 174.628205 67.750402 174.628205 68.248860 174.628205 68.747318 174.628205 69.245278 174.628205 69.743736 174.628205 70.242692 174.628205 70.740652 174.628205 71.239609 174.628205 71.738067 174.628205 72.236525 174.628205 72.734983 174.628205 73.233441 174.628205 73.731400 174.628205 74.231354 174.628205 74.728815 174.628205 75.227273 174.628205 75.725232 174.628205 76.224189 174.628205 76.722149 174.628205 77.220607 174.628205 77.719563 174.628205 78.218021 174.628205 78.715981 174.628205 79.214439 174.628205 79.713395 174.628205 80.211853 174.628205 80.709813 174.628205 81.208769 174.628205 81.707227 174.628205 82.206682 174.628205 82.703645 174.628205 83.202601 174.628205 83.701060 174.628205 84.199518 174.628205 84.697477 174.628205 85.196434 174.628205 85.694892 174.628205 86.193350 174.628205 86.691808 174.628205 87.189767 174.628205 87.688724 174.628205 88.186683 174.628205 88.685640 174.628205 89.183599 174.628205 89.682556 174.628205 90.180516 174.628205 90.679472 174.628205 91.177930 174.628205 91.675890 174.628205 92.174846 174.628205 92.672806 174.628205 93.171264 174.628205 93.669722 174.628205 94.168180 174.628205 94.667136 174.628205 95.165096 174.628205 95.664052 174.628205 96.162012 174.628205 96.660969 174.628205 97.158928 174.628205 97.657386 174.628205 98.156343 174.628205 98.654302 174.628205 99.153259 174.628205 99.651218 174.628205 100.149676 174.628205 100.648633 174.628205 101.147091 174.628205 101.645050 174.628205 102.143509 174.628205 102.642465 174.628205 103.140425 174.628205 103.638883 174.628205 104.137341 174.628205 104.636297 174.628205 105.134755 174.628205 105.632715 174.628205 106.131671 174.628205 106.629631 174.628205 107.128587 174.628205 107.626547 174.628205 108.125005 174.628205 108.623961 174.628205 109.122420 174.628205 109.620379 174.628205 110.119336 174.628205 110.617794 174.628205 111.116252 174.628205 111.614710 174.628205 112.112669 174.628205 112.611626 174.628205 113.110084 174.628205 113.608043 174.628205 114.106501 174.628205 114.605458 174.628205 115.105411 174.628205 115.601876 174.628205 116.100334 174.628205 116.599290 174.628205 117.097748 174.628205 117.596206 174.628205 118.096160 174.628205 118.593122 174.628205 119.091580 174.628205 119.589540 174.628205 120.088496 174.628205 120.586954 174.628205 121.085412 174.628205 121.583372 174.628205 122.082329 174.628205 122.580288 174.628205 123.078746 174.628205 123.577703 174.628205 124.076161 174.628205 124.574120 174.628205 125.073077 174.628205 125.571036 174.628205 126.069993 174.628205 126.568451 174.628205 127.066410 174.628205 127.565367 174.628205 128.063825 174.628205 128.561785 174.628205 129.060243 174.628205 129.559199 174.628205 130.057159 174.628205 130.556115 174.628205 131.054573 174.628205 131.552533 174.628205 132.051489 174.628205 132.550944 174.628205 133.047907 174.628205 133.546863 174.628205 134.045321 174.628205 134.543780 174.628205 135.041739 174.628205 135.540197 174.628205 136.038655 174.628205 136.537612 174.628205 137.035571 174.628205 137.534528 174.628205 138.032986 174.628205 138.531444 174.628205 139.029902 174.628205 139.528360 174.628205 140.026818 174.628205 140.524778 174.628205 141.023236 174.628205 141.522192 174.628205 142.020650 174.628205 142.519108 174.628205 143.017566 174.628205 143.516523 174.628205 144.013984 174.628205 144.512940 174.628205 145.013392 174.628205 145.509856 174.628205 146.007816 174.628205 146.506772 174.628205 147.005231 174.628205 147.503689 174.628205 148.002147 174.628205 148.500605 174.628205 148.999063 174.628205 149.497521 174.628205 149.995480 174.628205 150.494437 174.628205 150.992895 174.628205 151.491353 174.628205 151.989811 174.628205 152.487770 174.628205 152.986727 174.628205 153.485185 174.628205 153.983145 174.628205 154.482101 174.628205 154.980559 174.628205 155.479017 174.628205 155.976977 174.628205 156.475933 174.628205 156.974391 174.628205 157.472351 174.628205 157.971307 174.628205 158.469267 174.628205 158.968223 174.628205 159.466183 174.628205 159.965140 174.628205 160.463598 174.628205 160.962056 174.628205 161.460514 174.628205 161.958972 174.628205 162.457430 174.628205 162.955888 174.628205 163.453847 174.628205 163.952305 174.628205 164.451262 174.628205 164.949720 174.628205 165.447680 174.628205 165.946138 174.628205 166.444596 174.628205 166.943552 174.628205 167.442010 174.628205 167.940468 174.628205 168.438428 174.628205 168.937384 174.628205 169.435344 174.628205 169.934300 174.628205 170.432260 174.628205 170.931216 174.628205 171.429674 174.628205 171.927634 174.628205 172.426591 174.628205 172.924550 174.628205 173.423507 174.628205 173.921466 174.628205 174.419924 174.628205 174.918382 174.628205 175.417339 174.628205 175.915797 174.628205 176.414255 174.628205 176.912713 174.628205 177.411171 174.628205 177.909629 174.628205 178.408087 174.628205 178.906545 174.628205 179.405502 174.628205 179.903461 174.628205 180.401919 174.628205 180.900377 174.628205 181.398337 174.628205 181.897293 174.628205 182.397247 174.628205 182.894209 174.628205 183.392169 174.628205 183.891125 174.628205 184.389583 174.628205 184.888042 174.628205 185.386001 174.628205 185.884958 174.628205 186.383416 174.628205 186.881874 174.628205 187.380332 174.628205 187.878790 174.628205 188.377248 174.628205 188.875207 174.628205 189.374164 174.628205 189.872622 174.628205 190.371080 174.628205 190.869538 174.628205 191.367996 174.628205 191.866454 174.628205 192.364912 174.628205 192.863370 174.628205 193.361828 174.628205 193.860286 174.628205 194.358744 174.628205 194.857202 174.628205 195.355660 174.628205 195.854118 174.628205 196.352576 174.628205 196.851034 174.628205 197.349492 174.628205 197.847951 174.628205 198.346409 174.628205 198.844368 174.628205 199.343325 174.628205 199.841783 174.628205 200.340241 174.628205 200.838699 174.628205 201.337157 174.628205 201.835116 174.628205 202.334073 174.628205 202.832032 174.628205 203.330989 174.628205 203.829447 174.628205 204.327905 174.628205 204.826363 174.628205 205.324821 174.628205 205.823279 174.628205 206.321737 174.628205 206.820195 174.628205 207.318653 174.628205 207.817610 174.628205 208.315569 174.628205 208.814027 174.628205 209.312485 174.628205 209.810943 174.628205 210.309402 174.628205 210.807860 174.628205 211.306318 174.628205 211.804277 174.628205 212.303234 174.628205 212.801692 174.628205 213.300150 174.628205 213.798608 174.628205 214.297066 174.628205 214.795524 174.628205 215.293982 174.628205 215.792440 174.628205 216.290898 174.628205 216.789356 174.628205 217.287814 174.628205 217.786272 174.628205 218.284730 174.628205 218.783188 174.628205 219.281646 174.628205 219.781101 174.628205 220.278562 174.628205 220.777020 174.628205 221.275478 174.628205 221.773438 174.628205 222.272394 174.628205 222.770852 174.628205 223.269311 174.628205 223.767769 174.628205 224.266227 174.628205 224.764685 174.628205 225.263143 174.628205 225.761601 174.628205 226.260059 174.628205 226.758517 174.628205 227.256975 174.628205 227.755433 174.628205 228.253891 174.628205 228.752349 174.628205 229.250309 174.628205 229.749265 174.628205 230.247723 174.628205 230.746181 174.628205 231.244639 174.628205 231.743097 174.628205 232.241555 174.628205 232.740013 174.628205 233.238471 174.628205 233.736929 174.628205 234.235387 174.628205 234.733845 174.628205 235.232303 174.628205 235.730762 174.628205 236.229220 174.628205 236.727678 174.628205 237.226136 174.628205 237.724594 174.628205 238.223052 174.628205 238.721510 174.628205 239.219968 174.628205 239.718426 174.628205 240.216884 174.628205 240.715342 174.628205 241.214797 174.628205 241.712258 174.628205 242.210716 174.628205 242.709174 174.628205 243.207632 174.628205 243.706090 174.628205 244.204548 174.628205 244.703006 174.628205 245.201464 174.628205 245.699922 174.628205 246.198380 174.628205 246.696838 174.628205 247.195296 174.628205 247.693754 174.628205 248.192212 174.628205 248.690671 174.628205 249.189129 174.628205 249.687587 174.628205 250.186045 174.628205 250.684503 174.628205 251.182961 174.628205 251.681419 174.628205 252.179877 174.628205 252.678833 174.628205 253.176793 174.628205 253.675251 174.628205 254.175703 174.628205 254.672167 174.628205 255.170625 174.628205 255.669083 174.628205 256.167541 174.628205 256.665999 174.628205 257.164457 174.628205 257.662915 174.628205 258.161373 174.628205 258.659831 174.628205 259.158289 174.628205 259.656249 174.628205 260.155205 174.628205 260.653663 174.628205 261.152122 174.628205 261.650580 174.628205 262.149038 174.628205 262.647496 174.628205 263.145954 174.628205 263.644412 174.628205 264.142870 174.628205 264.641328 174.628205 265.139786 174.628205 265.637745 174.628205 266.136702 174.628205 266.635658 174.628205 267.133618 174.628205 267.632076 174.628205 268.130534 174.628205 268.628992 174.628205 269.127949 174.628205 269.625908 174.628205 270.123868 174.628205 270.622824 174.628205 271.121282 174.628205 271.619740 174.628205 272.118198 174.628205 272.616656 174.628205 273.115114 174.628205 273.613573 174.628205 274.112031 174.628205 274.610489 174.628205 275.108947 174.628205 275.607405 174.628205 276.105863 174.628205 276.603822 174.628205 277.102779 174.628205 277.601237 174.628205 278.099695 174.628205 278.598153 174.628205 279.096611 174.628205 279.595069 174.628205 280.093527 174.628205 280.591985 174.628205 281.090443 174.628205 281.588901 174.628205 282.087359 174.628205 282.585817 174.628205 283.084275 174.628205 283.582733 174.628205 284.081191 174.628205 284.579649 174.628205 285.078107 174.628205 285.576565 174.628205 286.075023 174.628205 286.573482 174.628205 287.071940 174.628205 287.570398 174.628205 288.068856 174.628205 288.567314 174.628205 289.065772 174.628205 289.564230 174.628205 290.062688 174.628205 290.561644 174.628205 291.059604 174.628205 291.558062 174.628205 292.056520 174.628205 292.554978 174.628205 293.053436 174.628205 293.551894 174.628205 294.050352 174.628205 294.548810 174.628205 295.047268 174.628205 295.545726 174.628205 296.044184 174.628205 296.542642 174.628205 297.041100 174.628205 297.539558 174.628205 298.037518 174.628205 298.536474 174.628205 299.034933 174.628205 299.533391 174.628205 300.031849 174.628205 300.530307 174.628205 301.028765 174.628205 301.527223 174.628205 302.025681 174.628205 302.524139 174.628205 303.022597 174.628205 303.521055 174.628205 304.019513 174.628205 304.517971 174.628205 305.016429 174.628205 305.514887 174.628205 306.013345 174.628205 306.511803 174.628205 307.010261 174.628205 307.508719 174.628205 308.007177 174.628205 308.505635 174.628205 309.004093 174.628205 309.502551 174.628205 310.001009 174.628205 310.499467 174.628205 310.997925 174.628205 311.496383 174.628205 311.994842 174.628205 312.493300 174.628205 312.991758 174.628205 313.490216 174.628205 313.988674 174.628205 314.487132 174.628205 314.985590 174.628205 315.484048 174.628205 315.983004 174.628205 316.480964 174.628205 316.979422 174.628205 317.478378 174.628205 317.975840 174.628205 318.474796 174.628205 318.973254 174.628205 319.471712 174.628205 319.970170 174.628205 320.468628 174.628205 320.967086 174.628205 321.465544 174.628205 321.964002 174.628205 322.462460 174.628205 322.960918 174.628205 323.459376 174.628205 323.957834 174.628205 324.456293 174.628205 324.954751 174.628205 325.453209 174.628205 325.951667 174.628205 326.450125 174.628205 326.948583 174.628205 327.447041 174.628205 327.945499 174.628205 328.443957 174.628205 328.942415 174.628205 329.440873 174.628205 329.939331 174.628205 330.437789 174.628205 330.936247 174.628205 331.434705 174.628205 331.933163 174.628205 332.431621 174.628205 332.930079 174.628205 333.428537 174.628205 333.926995 174.628205 334.425453 174.628205 334.923911 174.628205 335.422369 174.628205 335.920827 174.628205 336.419285 174.628205 336.917744 174.628205 337.417198 174.628205 337.914660 174.628205 338.413118 174.628205 338.911576 174.628205 339.410034 174.628205 339.908492 174.628205 340.407448 174.628205 340.905906 174.628205 341.403866 174.628205 341.902324 174.628205 342.400782 174.628205 342.899240 174.628205 343.397698 174.628205 343.896156 174.628205 344.394614 174.628205 344.893072 174.628205 345.391530 174.628205 345.889988 174.628205 346.388446 174.628205 346.886904 174.628205 347.385362 174.628205 347.883820 174.628205 348.382278 174.628205 348.880736 174.628205 349.379194 174.628205 349.877653 174.628205 350.376111 174.628205 350.874569 174.628205 351.373027 174.628205 351.871485 174.628205 352.369943 174.628205 352.868401 174.628205 353.366859 174.628205 353.865317 174.628205 354.363775 174.628205 354.862233 174.628205 355.360691 174.628205 355.859149 174.628205 356.357607 174.628205 356.856065 174.628205 357.354523 174.628205 357.852981 174.628205 358.351439 174.628205 358.849897 174.628205 359.348355 174.628205 359.846813 174.628205 360.345271 174.628205 360.843729 174.628205 361.342187 174.628205 361.840645 174.628205 362.339104 174.628205 362.837562 174.628205 363.336020 174.628205 363.834478 174.628205 364.333434 174.628205 364.831394 174.628205 365.330350 174.628205 365.828310 174.628205 366.326768 174.628205 366.825226 174.628205 367.323684 174.628205 367.822142 174.628205 368.320600 174.628205 368.819058 174.628205 369.317516 174.628205 369.815974 174.628205 370.314432 174.628205 370.812890 174.628205 371.311348 174.628205 371.809806 174.628205 372.309261 174.628205 372.806722 174.628205 373.305180 174.628205 373.803638 174.628205 374.302096 174.628205 374.800554 174.628205 375.299013 174.628205 375.797471 174.628205 376.295929 174.628205 376.794387 174.628205 377.292845 174.628205 377.791303 174.628205 378.289761 174.628205 378.788219 174.628205 379.286677 174.628205 379.785135 174.628205 380.283593 174.628205 380.782051 174.628205 381.280509 174.628205 381.778967 174.628205 382.277425 174.628205 382.775883 174.628205 383.274341 174.628205 383.772799 174.628205 384.271257 174.628205 384.769715 174.628205 385.268173 174.628205 385.766631 174.628205 386.265089 174.628205 386.763547 174.628205 387.262005 174.628205 387.760464 174.628205 388.258922 174.628205 388.757878 174.628205 389.256336 174.628205 389.754296 174.628205 390.252754 174.628205 390.751710 174.628205 391.249670 174.628205 391.748128 174.628205 392.246586 174.628205 392.745044 174.628205 393.243502 174.628205 393.741960 174.628205 394.240418 174.628205 394.738876 174.628205 395.237334 174.628205 395.735792 174.628205 396.234250 174.628205 396.732708 174.628205 397.231166 174.628205 397.729624 174.628205 398.228082 174.628205 398.726540 174.628205 399.224998 174.628205 399.723456 174.628205 400.221914 174.628205 400.720373 174.628205 401.218831 174.628205 401.717289 174.628205 402.215747 174.628205 402.714205 174.628205 403.212663 174.628205 403.711121 174.628205 404.209579 174.628205 404.708037 174.628205 405.206495 174.628205 405.704953 174.628205 406.203411 174.628205 406.701869 174.628205 407.200327 174.628205 407.698785 174.628205 408.197243 174.628205 408.695701 174.628205 409.194159 174.628205 409.692617 174.628205 410.192072 174.628205 410.689533 174.628205 411.187991 174.628205 411.686449 174.628205 412.184907 174.628205 412.683365 174.628205 413.181824 174.628205 413.680282 174.628205 414.179238 174.628205 414.677198 174.628205 415.175656 174.628205 415.674612 174.628205 416.172572 174.628205 416.671030 174.628205 417.169488 174.628205 417.667946 174.628205 418.166404 174.628205 418.664862 174.628205 419.163320 174.628205 419.661778 174.628205 420.160236 174.628205 420.658694 174.628205 421.157152 174.628205 421.655610 174.628205 422.154068 174.628205 422.652526 174.628205 423.150984 174.628205 423.649442 174.628205 424.147900 174.628205 424.646358 174.628205 425.144816 174.628205 425.643275 174.628205 426.141733 174.628205 426.640191 174.628205 427.138649 174.628205 427.637107 174.628205 428.135565 174.628205 428.634023 174.628205 429.132481 174.628205 429.630939 174.628205 430.129397 174.628205 430.627855 174.628205 431.126313 174.628205 431.624771 174.628205 432.123229 174.628205 432.621687 174.628205 433.120145 174.628205 433.618603 174.628205 434.117061 174.628205 434.615519 174.628205 435.113977 174.628205 435.612435 174.628205 436.110893 174.628205 436.609351 174.628205 437.107809 174.628205 437.606267 174.628205 438.104725 174.628205 438.603184 174.628205 439.102140 174.628205 439.600100 174.628205 440.098558 174.628205 440.597016 174.628205 441.095474 174.628205 441.593932 174.628205 442.092390 174.628205 442.590848 174.628205 443.089306 174.628205 443.587764 174.628205 444.086222 174.628205 444.584680 174.628205 445.083138 174.628205 445.581596 174.628205 446.080054 174.628205 446.578512 174.628205 447.076970 174.628205 447.575428 174.628205 448.073886 174.628205 448.572344 174.628205 449.070802 174.628205 449.569260 174.628205 450.067718 174.628205 450.566176 174.628205 451.064635 174.628205 451.563093 174.628205 452.061551 174.628205 452.560009 174.628205 453.058467 174.628205 453.556925 174.628205 454.055383 174.628205 454.553841 174.628205 455.052299 174.628205 455.550757 174.628205 456.049215 174.628205 456.547673 174.628205 457.046629 174.628205 457.544589 174.628205 458.043047 174.628205 458.541505 174.628205 459.040462 174.628205 459.538920 174.628205 460.036879 174.628205 460.535836 174.628205 461.033795 174.628205 461.532253 174.628205 462.030711 174.628205 462.529169 174.628205 463.027627 174.628205 463.526085 174.628205 464.024544 174.628205 464.523002 174.628205 465.021460 174.628205 465.519918 174.628205 466.018376 174.628205 466.516834 174.628205 467.015292 174.628205 467.513750 174.628205 468.012208 174.628205 468.510666 174.628205 469.009124 174.628205 469.507582 174.628205 470.006040 174.628205 470.504498 174.628205 471.002956 174.628205 471.501414 174.628205 471.999872 174.628205 472.498330 174.628205 472.996788 174.628205 473.495246 174.628205 473.993704 174.628205 474.492162 174.628205 474.990620 174.628205 475.489078 174.628205 475.987536 174.628205 476.485995 174.628205 476.984453 174.628205 477.482911 174.628205 477.981369 174.628205 478.479827 174.628205 478.978285 174.628205 479.476743 174.628205 479.977195 174.628205 480.473659 174.628205 480.972117 174.628205 481.470575 174.628205 481.969033 174.628205 482.467989 174.628205 482.965949 174.628205 483.464407 174.628205 483.962865 174.628205 484.461822 174.628205 484.960280 174.628205 485.458239 174.628205 485.956697 174.628205 486.455155 174.628205 486.953613 174.628205 487.452071 174.628205 487.950529 174.628205 488.448987 174.628205 488.947446 174.628205 489.445904 174.628205 489.944362 174.628205 490.442820 174.628205 490.941278 174.628205 491.439736 174.628205 491.938194 174.628205 492.436652 174.628205 492.935110 174.628205 493.433568 174.628205 493.932026 174.628205 494.430484 174.628205 494.928942 174.628205 495.427400 174.628205 495.926357 174.628205 496.424316 174.628205 496.922774 174.628205 497.421232 174.628205 497.919690 174.628205 498.418148 174.628205 498.916606 174.628205 499.415064 174.628205 499.913522 174.628205 500.411980 174.628205 500.910438 174.628205 501.408896 174.628205 501.907355 174.628205 502.405813 174.628205 502.904271 174.628205 503.402729 174.628205 503.901187 174.628205 504.400143 174.628205 504.898103 174.628205 505.396561 174.628205 505.895517 174.628205 506.393477 174.628205 506.891935 174.628205 507.390393 174.628205 507.888851 174.628205 508.387309 174.628205 508.883773 174.628205 509.382231 174.628205 509.880689 174.628205 510.379147 174.628205 510.877605 174.628205 511.376063 174.628205 511.874521 174.628205 512.372980 174.628205 512.871438 174.628205 513.369896 174.628205 513.868354 174.628205 514.366812 174.628205 514.865270 174.628205 515.363728 174.628205 515.862186 174.628205 516.360644 174.628205 516.859102 174.628205 517.357560 174.628205 517.856018 174.628205 518.354476 174.628205 518.852934 174.628205 519.351392 174.628205 519.849850 174.628205 520.348308 174.628205 520.846766 174.628205 521.345224 174.628205 521.843682 174.628205 522.342140 174.628205 522.840598 174.628205 523.339056 174.628205 523.837514 174.628205 524.335972 174.628205 524.834431 174.628205 525.332889 174.628205 525.831347 174.628205 526.329805 174.628205 526.828263 174.628205 527.326721 174.628205 527.825179 174.628205 528.323637 174.628205 528.822095 174.628205 529.320553 174.628205 529.819011 174.628205 530.317469 174.628205 530.815927 174.628205 531.314385 174.628205 531.812843 174.628205 532.311301 174.628205 532.809759 174.628205 533.308217 174.628205 533.806675 174.628205 534.305133 174.628205 534.803591 174.628205 535.302049 174.628205 535.800507 174.628205 536.298965 174.628205 536.797423 174.628205 537.295881 174.628205 537.794340 174.628205 538.292798 174.628205 538.791256 174.628205 539.289714 174.628205 539.788172 174.628205 540.286630 174.628205 540.785088 174.628205 541.283546 174.628205 541.782004 174.628205 542.280462 174.628205 542.778920 174.628205 543.277378 174.628205 543.775836 174.628205 544.274294 174.628205 544.772752 174.628205 545.271210 174.628205 545.769668 174.628205 546.268126 174.628205 546.766584 174.628205 547.265042 174.628205 547.763500 174.628205 548.261958 174.628205 548.760416 174.628205 549.258874 174.628205 549.757332 174.628205 550.255791 174.628205 550.754249 174.628205 551.252707 174.628205 551.751165 174.628205 552.249623 174.628205 552.748081 174.628205 553.246539 174.628205 553.744997 174.628205 554.243455 174.628205 554.741913 174.628205 555.240371 174.628205 555.738829 174.628205 556.237287 174.628205 556.735745 174.628205 557.234203 174.628205 557.737646 174.628205 558.231119 174.628205 558.729577 174.628205 559.228035 174.628205 559.726493 174.628205 560.224951 174.628205 560.723409 174.628205 561.221867 174.628205 561.720325 174.628205 562.218783 174.628205 562.717241 174.628205 563.215700 174.628205 563.714158 174.628205 564.212616 174.628205 564.711074 174.628205 565.209532 174.628205 565.707990 174.628205 566.206448 174.628205 566.704906 174.628205 567.203364 174.628205 567.701822 174.628205 568.200280 174.628205 568.698738 174.628205 569.197196 174.628205 569.695654 174.628205 570.194112 174.628205 570.692570 174.628205 571.191028 174.628205 571.689486 174.628205 572.187944 174.628205 572.686402 174.628205 573.184860 174.628205 573.683318 174.628205 574.181776 174.628205 574.680234 174.628205 575.178692 174.628205 575.677151 174.628205 576.175609 174.628205 576.674067 174.628205 577.172525 174.628205 577.670983 174.628205 578.169441 174.628205 578.667899 174.628205 579.166357 174.628205 579.664815 174.628205 580.163273 174.628205 580.661731 174.628205 581.160189 174.628205 581.658647 174.628205 582.157105 174.628205 582.655563 174.628205 583.154021 174.628205 583.652479 174.628205 584.150937 174.628205 584.649395 174.628205 585.147853 174.628205 585.646311 174.628205 586.144769 174.628205 586.643227 174.628205 587.141685 174.628205 587.640143 174.628205 588.138602 174.628205 588.637060 174.628205 589.135518 174.628205 589.633976 174.628205 590.132434 174.628205 590.630892 174.628205 591.129350 174.628205 591.627808 174.628205 592.131250 174.628205 592.624724 174.628205 593.123182 174.628205 593.621640 174.628205 594.120098 174.628205 594.618556 174.628205 595.117014 174.628205 595.615472 174.628205 596.113930 174.628205 596.612388 174.628205 597.110846 174.628205 597.609304 174.628205 598.107762 174.628205 598.606220 174.628205 599.104678 174.628205 599.603136 174.628205 600.101594 174.628205 600.605037 174.628205 601.098511 174.628205 601.596969 174.628205 602.095427 174.628205 602.593885 174.628205 603.092343 174.628205 603.590801 174.628205 604.089259 174.628205 604.587717 174.628205 605.086175 174.628205 605.589617 174.628205 606.083091 174.628205 606.581549 174.628205 607.080007 174.628205 607.578465 174.628205 608.076923 174.628205" /></g></g><g class="titles"><text class="title" x="470.0" y="580">tcp_1000kbps</text></g><g class="plot overlay" transform="translate(160, 20)"><g class="series serie-0 color-0" /><g class="series serie-1 color-1" /><g class="series serie-2 color-2" /></g><g class="plot text-overlay" transform="translate(160, 20)"><g class="series serie-0 color-0" /><g class="series serie-1 color-1" /><g class="series serie-2 color-2" /></g><g class="plot tooltip-overlay" transform="translate(160, 20)"><g class="tooltip" style="opacity: 0" transform="translate(0 0)"><rect class="tooltip-box" height="0" rx="0" ry="0" width="0" /><g class="text" /></g></g><g class="legends" transform="translate(10, 30)"><g class="legend reactive activate-serie" id="activate-serie-0"><rect class="color-0 reactive" height="12" width="12" x="0.0" y="1.0" /><text x="17.0" y="11.2">qdelay</text></g><g class="legend reactive activate-serie" id="activate-serie-1"><rect class="color-1 reactive" height="12" width="12" x="0.0" y="22.0" /><text x="17.0" y="32.2">txed(kbps)</text></g><g class="legend reactive activate-serie" id="activate-serie-2"><rect class="color-2 reactive" height="12" width="12" x="0.0" y="43.0" /><text x="17.0" y="53.2">topo(kbps)</text></g></g><g class="legends" transform="translate(790, 30)" /></g></svg>