<?xml version='1.0' encoding='utf-8'?>
<svg xmlns:xlink="http://www.w3.org/1999/xlink" class="pygal-chart" id="chart-bdf17f52-40d3-4510-9bf7-bd2a1840b826" viewBox="0 0 800 600" xmlns="http://www.w3.org/2000/svg"><!--Generated with pygal 2.4.0 (etree) ©Kozea 2012-2016 on 2019-01-14--><!--http://pygal.org--><!--http://github.com/Kozea/pygal--><defs><style type="text/css">#chart-bdf17f52-40d3-4510-9bf7-bd2a1840b826{-webkit-user-select:none;-webkit-font-smoothing:antialiased;font-family:Consolas,"Liberation Mono",Menlo,Courier,monospace}#chart-bdf17f52-40d3-4510-9bf7-bd2a1840b826 .title{font-family:Consolas,"Liberation Mono",Menlo,Courier,monospace;font-size:16px}#chart-bdf17f52-40d3-4510-9bf7-bd2a1840b826 .legends .legend text{font-family:Consolas,"Liberation Mono",Menlo,Courier,monospace;font-size:14px}#chart-bdf17f52-40d3-4510-9bf7-bd2a1840b826 .axis text{font-family:Consolas,"Liberation Mono",Menlo,Courier,monospace;font-size:10px}#chart-bdf17f52-40d3-4510-9bf7-bd2a1840b826 .axis text.major{font-family:Consolas,"Liberation Mono",Menlo,Courier,monospace;font-size:10px}#chart-bdf17f52-40d3-4510-9bf7-bd2a1840b826 .text-overlay text.value{font-family:Consolas,"Liberation Mono",Menlo,Courier,monospace;font-size:16px}#chart-bdf17f52-40d3-4510-9bf7-bd2a1840b826 .text-overlay text.label{font-family:Consolas,"Liberation Mono",Menlo,Courier,monospace;font-size:10px}#chart-bdf17f52-40d3-4510-9bf7-bd2a1840b826 .tooltip{font-family:Consolas,"Liberation Mono",Menlo,Courier,monospace;font-size:14px}#chart-bdf17f52-40d3-4510-9bf7-bd2a1840b826 text.no_data{font-family:Consolas,"Liberation Mono",Menlo,Courier,monospace;font-size:64px}
#chart-bdf17f52-40d3-4510-9bf7-bd2a1840b826{background-color:transparent}#chart-bdf17f52-40d3-4510-9bf7-bd2a1840b826 path,#chart-bdf17f52-40d3-4510-9bf7-bd2a1840b826 line,#chart-bdf17f52-40d3-4510-9bf7-bd2a1840b826 rect,#chart-bdf17f52-40d3-4510-9bf7-bd2a1840b826 circle{-webkit-transition:100ms ease-in;-moz-transition:100ms ease-in;transition:100ms ease-in}#chart-bdf17f52-40d3-4510-9bf7-bd2a1840b826 .graph &gt; .background{fill:transparent}#chart-bdf17f52-40d3-4510-9bf7-bd2a1840b826 .plot &gt; .background{fill:transparent}#chart-bdf17f52-40d3-4510-9bf7-bd2a1840b826 .graph{fill:#000000}#chart-bdf17f52-40d3-4510-9bf7-bd2a1840b826 text.no_data{fill:#000000}#chart-bdf17f52-40d3-4510-9bf7-bd2a1840b826 .title{fill:#000000}#chart-bdf17f52-40d3-4510-9bf7-bd2a1840b826 .legends .legend text{fill:#000000}#chart-bdf17f52-40d3-4510-9bf7-bd2a1840b826 .legends .legend:hover text{fill:#000000}#chart-bdf17f52-40d3-4510-9bf7-bd2a1840b826 .axis .line{stroke:#000000}#chart-bdf17f52-40d3-4510-9bf7-bd2a1840b826 .axis .guide.line{stroke:#006400d}#chart-bdf17f52-40d3-4510-9bf7-bd2a1840b826 .axis .major.line{stroke:#000000}#chart-bdf17f52-40d3-4510-9bf7-bd2a1840b826 .axis text.major{fill:#000000}#chart-bdf17f52-40d3-4510-9bf7-bd2a1840b826 .axis.y .guides:hover .guide.line,#chart-bdf17f52-40d3-4510-9bf7-bd2a1840b826 .line-graph .axis.x .guides:hover .guide.line,#chart-bdf17f52-40d3-4510-9bf7-bd2a1840b826 .stackedline-graph .axis.x .guides:hover .guide.line,#chart-bdf17f52-40d3-4510-9bf7-bd2a1840b826 .xy-graph .axis.x .guides:hover .guide.line{stroke:#000000}#chart-bdf17f52-40d3-4510-9bf7-bd2a1840b826 .axis .guides:hover text{fill:#000000}#chart-bdf17f52-40d3-4510-9bf7-bd2a1840b826 .reactive{fill-opacity:.6;stroke-opacity:.8}#chart-bdf17f52-40d3-4510-9bf7-bd2a1840b826 .ci{stroke:#000000}#chart-bdf17f52-40d3-4510-9bf7-bd2a1840b826 .reactive.active,#chart-bdf17f52-40d3-4510-9bf7-bd2a1840b826 .active .reactive{fill-opacity:.9;stroke-opacity:.9;stroke-width:4}#chart-bdf17f52-40d3-4510-9bf7-bd2a1840b826 .ci .reactive.active{stroke-width:1.5}#chart-bdf17f52-40d3-4510-9bf7-bd2a1840b826 .series text{fill:#000000}#chart-bdf17f52-40d3-4510-9bf7-bd2a1840b826 .tooltip rect{fill:transparent;stroke:#000000;-webkit-transition:opacity 100ms ease-in;-moz-transition:opacity 100ms ease-in;transition:opacity 100ms ease-in}#chart-bdf17f52-40d3-4510-9bf7-bd2a1840b826 .tooltip .label{fill:#000000}#chart-bdf17f52-40d3-4510-9bf7-bd2a1840b826 .tooltip .label{fill:#000000}#chart-bdf17f52-40d3-4510-9bf7-bd2a1840b826 .tooltip .legend{font-size:.8em;fill:#006400d}#chart-bdf17f52-40d3-4510-9bf7-bd2a1840b826 .tooltip .x_label{font-size:.6em;fill:#000000}#chart-bdf17f52-40d3-4510-9bf7-bd2a1840b826 .tooltip .xlink{font-size:.5em;text-decoration:underline}#chart-bdf17f52-40d3-4510-9bf7-bd2a1840b826 .tooltip .value{font-size:1.5em}#chart-bdf17f52-40d3-4510-9bf7-bd2a1840b826 .bound{font-size:.5em}#chart-bdf17f52-40d3-4510-9bf7-bd2a1840b826 .max-value{font-size:.75em;fill:#006400d}#chart-bdf17f52-40d3-4510-9bf7-bd2a1840b826 .map-element{fill:transparent;stroke:#006400d !important}#chart-bdf17f52-40d3-4510-9bf7-bd2a1840b826 .map-element .reactive{fill-opacity:inherit;stroke-opacity:inherit}#chart-bdf17f52-40d3-4510-9bf7-bd2a1840b826 .color-0,#chart-bdf17f52-40d3-4510-9bf7-bd2a1840b826 .color-0 a:visited{stroke:#006400;fill:#006400}#chart-bdf17f52-40d3-4510-9bf7-bd2a1840b826 .color-1,#chart-bdf17f52-40d3-4510-9bf7-bd2a1840b826 .color-1 a:visited{stroke:#0022AA;fill:#0022AA}#chart-bdf17f52-40d3-4510-9bf7-bd2a1840b826 .color-2,#chart-bdf17f52-40d3-4510-9bf7-bd2a1840b826 .color-2 a:visited{stroke:#FF1111;fill:#FF1111}#chart-bdf17f52-40d3-4510-9bf7-bd2a1840b826 .text-overlay .color-0 text{fill:black}#chart-bdf17f52-40d3-4510-9bf7-bd2a1840b826 .text-overlay .color-1 text{fill:black}#chart-bdf17f52-40d3-4510-9bf7-bd2a1840b826 .text-overlay .color-2 text{fill:black}
#chart-bdf17f52-40d3-4510-9bf7-bd2a1840b826 text.no_data{text-anchor:middle}#chart-bdf17f52-40d3-4510-9bf7-bd2a1840b826 .guide.line{fill:none}#chart-bdf17f52-40d3-4510-9bf7-bd2a1840b826 .centered{text-anchor:middle}#chart-bdf17f52-40d3-4510-9bf7-bd2a1840b826 .title{text-anchor:middle}#chart-bdf17f52-40d3-4510-9bf7-bd2a1840b826 .legends .legend text{fill-opacity:1}#chart-bdf17f52-40d3-4510-9bf7-bd2a1840b826 .axis.x text{text-anchor:middle}#chart-bdf17f52-40d3-4510-9bf7-bd2a1840b826 .axis.x:not(.web) text[transform]{text-anchor:start}#chart-bdf17f52-40d3-4510-9bf7-bd2a1840b826 .axis.x:not(.web) text[transform].backwards{text-anchor:end}#chart-bdf17f52-40d3-4510-9bf7-bd2a1840b826 .axis.y text{text-anchor:end}#chart-bdf17f52-40d3-4510-9bf7-bd2a1840b826 .axis.y text[transform].backwards{text-anchor:start}#chart-bdf17f52-40d3-4510-9bf7-bd2a1840b826 .axis.y2 text{text-anchor:start}#chart-bdf17f52-40d3-4510-9bf7-bd2a1840b826 .axis.y2 text[transform].backwards{text-anchor:end}#chart-bdf17f52-40d3-4510-9bf7-bd2a1840b826 .axis .guide.line{stroke-dasharray:4,4}#chart-bdf17f52-40d3-4510-9bf7-bd2a1840b826 .axis .major.guide.line{stroke-dasharray:6,6}#chart-bdf17f52-40d3-4510-9bf7-bd2a1840b826 .horizontal .axis.y .guide.line,#chart-bdf17f52-40d3-4510-9bf7-bd2a1840b826 .horizontal .axis.y2 .guide.line,#chart-bdf17f52-40d3-4510-9bf7-bd2a1840b826 .vertical .axis.x .guide.line{opacity:0}#chart-bdf17f52-40d3-4510-9bf7-bd2a1840b826 .horizontal .axis.always_show .guide.line,#chart-bdf17f52-40d3-4510-9bf7-bd2a1840b826 .vertical .axis.always_show .guide.line{opacity:1 !important}#chart-bdf17f52-40d3-4510-9bf7-bd2a1840b826 .axis.y .guides:hover .guide.line,#chart-bdf17f52-40d3-4510-9bf7-bd2a1840b826 .axis.y2 .guides:hover .guide.line,#chart-bdf17f52-40d3-4510-9bf7-bd2a1840b826 .axis.x .guides:hover .guide.line{opacity:1}#chart-bdf17f52-40d3-4510-9bf7-bd2a1840b826 .axis .guides:hover text{opacity:1}#chart-bdf17f52-40d3-4510-9bf7-bd2a1840b826 .nofill{fill:none}#chart-bdf17f52-40d3-4510-9bf7-bd2a1840b826 .subtle-fill{fill-opacity:.2}#chart-bdf17f52-40d3-4510-9bf7-bd2a1840b826 .dot{stroke-width:1px;fill-opacity:1}#chart-bdf17f52-40d3-4510-9bf7-bd2a1840b826 .dot.active{stroke-width:5px}#chart-bdf17f52-40d3-4510-9bf7-bd2a1840b826 .dot.negative{fill:transparent}#chart-bdf17f52-40d3-4510-9bf7-bd2a1840b826 text,#chart-bdf17f52-40d3-4510-9bf7-bd2a1840b826 tspan{stroke:none !important}#chart-bdf17f52-40d3-4510-9bf7-bd2a1840b826 .series text.active{opacity:1}#chart-bdf17f52-40d3-4510-9bf7-bd2a1840b826 .tooltip rect{fill-opacity:.95;stroke-width:.5}#chart-bdf17f52-40d3-4510-9bf7-bd2a1840b826 .tooltip text{fill-opacity:1}#chart-bdf17f52-40d3-4510-9bf7-bd2a1840b826 .showable{visibility:hidden}#chart-bdf17f52-40d3-4510-9bf7-bd2a1840b826 .showable.shown{visibility:visible}#chart-bdf17f52-40d3-4510-9bf7-bd2a1840b826 .gauge-background{fill:rgba(229,229,229,1);stroke:none}#chart-bdf17f52-40d3-4510-9bf7-bd2a1840b826 .bg-lines{stroke:transparent;stroke-width:2px}</style><script type="text/javascript">window.pygal = window.pygal || {};window.pygal.config = window.pygal.config || {};window.pygal.config['bdf17f52-40d3-4510-9bf7-bd2a1840b826'] = {"dynamic_print_values": false, "truncate_label": null, "inner_radius": 0, "print_values": false, "xrange": null, "box_mode": "extremes", "title": null, "legend_at_bottom_columns": null, "height": 600, "legend_at_bottom": false, "show_legend": true, "show_dots": false, "explicit_size": false, "y_labels_major": null, "show_minor_x_labels": true, "width": 800, "force_uri_protocol": "https", "half_pie": false, "style": {"major_label_font_family": "Consolas, \"Liberation Mono\", Menlo, Courier, monospace", "title_font_family": "Consolas, \"Liberation Mono\", Menlo, Courier, monospace", "stroke_opacity": ".8", "legend_font_family": "Consolas, \"Liberation Mono\", Menlo, Courier, monospace", "colors": ["#006400", "#0022AA", "#FF1111", "#FFEBCD", "#DC143C", "#FFFFFF", "#6495ED", "#B0C4DE", "#D2691E", "#8B0000"], "legend_font_size": 14, "no_data_font_family": "Consolas, \"Liberation Mono\", Menlo, Courier, monospace", "major_label_font_size": 10, "value_background": "rgba(229, 229, 229, 1)", "ci_colors": [], "label_font_family": "Consolas, \"Liberation Mono\", Menlo, Courier, monospace", "label_font_size": 10, "tooltip_font_size": 14, "value_font_size": 16, "font_family": "Consolas, \"Liberation Mono\", Menlo, Courier, monospace", "opacity": ".6", "foreground": "#000000", "plot_background": "transparent", "value_label_font_size": 10, "value_label_font_family": "Consolas, \"Liberation Mono\", Menlo, Courier, monospace", "background": "transparent", "no_data_font_size": 64, "value_colors": [], "guide_stroke_dasharray": "4,4", "transition": "100ms ease-in", "foreground_subtle": "#006400d", "value_font_family": "Consolas, \"Liberation Mono\", Menlo, Courier, monospace", "tooltip_font_family": "Consolas, \"Liberation Mono\", Menlo, Courier, monospace", "title_font_size": 16, "stroke_opacity_hover": ".9", "major_guide_stroke_dasharray": "6,6", "opacity_hover": ".9", "foreground_strong": "#000000"}, "x_label_rotation": 0, "fill": false, "missing_value_fill_truncation": "x", "zero": 0, "margin_right": null, "interpolation_parameters": {}, "x_labels_major": null, "rounded_bars": null, "show_y_labels": true, "dots_size": 2.5, "show_y_guides": true, "show_minor_y_labels": true, "x_labels": null, "y_title": null, "order_min": null, "formatter": null, "disable_xml_declaration": false, "strict": false, "css": ["file://style.css", "file://graph.css"], "tooltip_fancy_mode": true, "defs": [], "show_only_major_dots": false, "y_label_rotation": 0, "show_x_labels": true, "min_scale": 4, "show_x_guides": false, "spacing": 10, "x_labels_major_count": null, "pretty_print": false, "tooltip_border_radius": 0, "interpolate": null, "js": ["//kozea.github.io/pygal.js/2.0.x/pygal-tooltips.min.js"], "y_labels": null, "stroke_style": null, "print_labels": false, "interpolation_precision": 250, "x_title": "tcp_500kbps", "y_labels_major_every": null, "logarithmic": false, "legends": ["qdelay", "txed(kbps)", "topo(kbps)"], "max_scale": 16, "print_zeroes": true, "no_data_text": "No data", "truncate_legend": null, "x_labels_major_every": null, "secondary_range": null, "legend_box_size": 12, "no_prefix": false, "stroke": true, "stack_from_top": false, "include_x_axis": false, "range": [0, 1000], "classes": ["pygal-chart"], "margin_top": null, "margin_left": null, "y_labels_major_count": null, "margin_bottom": null, "inverse_y_axis": false, "margin": 20, "allow_interruptions": false, "print_values_position": "center"}</script><script type="text/javascript" xlink:href="https://kozea.github.io/pygal.js/2.0.x/pygal-tooltips.min.js" /></defs><title>Pygal</title><g class="graph xy-graph vertical"><rect class="background" height="600" width="800" x="0" y="0" /><g class="plot" transform="translate(160, 20)"><rect class="background" height="514" width="620.0" x="0" y="0" /><g class="axis y always_show"><g class="guides"><path class="axis major line" d="M0.000000 504.115385 h620.000000" /><text class="major" x="-5" y="507.615384615">0</text><title>0</title></g><g class="guides"><path class="guide line" d="M0.000000 454.692308 h620.000000" /><text class="" x="-5" y="458.192307692">100</text><title>100</title></g><g class="guides"><path class="guide line" d="M0.000000 405.269231 h620.000000" /><text class="" x="-5" y="408.769230769">200</text><title>200</title></g><g class="guides"><path class="guide line" d="M0.000000 355.846154 h620.000000" /><text class="" x="-5" y="359.346153846">300</text><title>300</title></g><g class="guides"><path class="guide line" d="M0.000000 306.423077 h620.000000" /><text class="" x="-5" y="309.923076923">400</text><title>400</title></g><g class="guides"><path class="major guide line" d="M0.000000 257.000000 h620.000000" /><text class="major" x="-5" y="260.5">500</text><title>500</title></g><g class="guides"><path class="guide line" d="M0.000000 207.576923 h620.000000" /><text class="" x="-5" y="211.076923077">600</text><title>600</title></g><g class="guides"><path class="guide line" d="M0.000000 158.153846 h620.000000" /><text class="" x="-5" y="161.653846154">700</text><title>700</title></g><g class="guides"><path class="guide line" d="M0.000000 108.730769 h620.000000" /><text class="" x="-5" y="112.230769231">800</text><title>800</title></g><g class="guides"><path class="guide line" d="M0.000000 59.307692 h620.000000" /><text class="" x="-5" y="62.8076923077">900</text><title>900</title></g><g class="guides"><path class="major guide line" d="M0.000000 9.884615 h620.000000" /><text class="major" x="-5" y="13.3846153846">1000</text><title>1000</title></g></g><g class="axis x"><path class="line" d="M0.000000 0.000000 v514.000000" /><g class="guides"><path class="guide line" d="M60.221949 0.000000 v514.000000" /><text class="" x="60.2219485484" y="529.0">10</text><title>10</title></g><g class="guides"><path class="guide line" d="M110.067729 0.000000 v514.000000" /><text class="" x="110.067729144" y="529.0">20</text><title>20</title></g><g class="guides"><path class="guide line" d="M159.913510 0.000000 v514.000000" /><text class="" x="159.91350974" y="529.0">30</text><title>30</title></g><g class="guides"><path class="guide line" d="M209.759290 0.000000 v514.000000" /><text class="" x="209.759290336" y="529.0">40</text><title>40</title></g><g class="guides"><path class="guide line" d="M259.605071 0.000000 v514.000000" /><text class="" x="259.605070932" y="529.0">50</text><title>50</title></g><g class="guides"><path class="guide line" d="M309.450852 0.000000 v514.000000" /><text class="" x="309.450851527" y="529.0">60</text><title>60</title></g><g class="guides"><path class="guide line" d="M359.296632 0.000000 v514.000000" /><text class="" x="359.296632123" y="529.0">70</text><title>70</title></g><g class="guides"><path class="guide line" d="M409.142413 0.000000 v514.000000" /><text class="" x="409.142412719" y="529.0">80</text><title>80</title></g><g class="guides"><path class="guide line" d="M458.988193 0.000000 v514.000000" /><text class="" x="458.988193315" y="529.0">90</text><title>90</title></g><g class="guides"><path class="guide line" d="M508.833974 0.000000 v514.000000" /><text class="" x="508.833973911" y="529.0">100</text><title>100</title></g><g class="guides"><path class="guide line" d="M558.679755 0.000000 v514.000000" /><text class="" x="558.679754506" y="529.0">110</text><title>110</title></g></g><g class="series serie-0 color-0"><path class="line reactive nofill" d="M11.923077 504.115385 L12.420897 504.115385 12.919035 504.115385 13.417493 501.150000 13.915951 485.828846 14.414728 469.025000 14.912867 456.175000 15.411339 428.992308 15.909797 400.821154 16.408255 385.994231 16.906713 365.236538 17.405171 363.259615 17.903629 365.730769 18.402086 356.834615 18.900544 365.236538 19.399949 443.819231 19.898058 501.150000 20.396217 501.150000 20.894375 500.161538 21.393132 504.115385 21.891590 501.150000 22.389749 501.644231 22.888506 503.621154 23.386963 491.759615 23.885720 490.771154 24.383580 481.380769 24.882636 476.438462 25.381094 498.678846 25.878953 504.115385 26.377710 487.311538 26.876467 492.253846 27.374476 472.484615 27.873084 452.715385 28.371242 446.290385 28.869999 429.980769 29.368457 416.142308 29.866915 397.855769 30.365074 403.786538 30.864479 406.751923 31.362936 448.267308 31.860746 459.140385 32.359204 478.909615 32.857662 498.184615 33.355820 499.173077 33.854278 498.678846 34.353035 504.115385 34.851194 497.196154 35.349951 498.678846 35.848409 496.701923 36.346567 486.817308 36.845025 492.253846 37.343782 489.782692 37.841941 479.898077 38.340399 474.955769 38.839155 470.013462 39.337314 463.588462 39.836071 459.140385 40.334230 443.819231 40.834233 445.796154 41.331145 445.796154 41.829902 438.876923 42.328061 442.336538 42.826519 435.417308 43.326023 433.934615 43.823434 431.463462 44.321892 416.142308 44.820649 417.625000 45.318808 418.613462 45.817266 411.694231 46.318714 403.786538 46.814480 412.188462 47.312639 396.867308 47.811097 384.511538 48.309555 389.453846 48.808312 391.925000 49.306470 387.971154 49.805227 374.132692 50.303685 363.753846 50.802442 368.201923 51.300302 359.305769 51.799357 370.673077 52.297516 376.603846 52.796622 425.532692 53.294731 444.313462 53.792890 444.807692 54.291347 455.186538 54.789805 456.175000 55.288263 453.209615 55.789562 472.484615 56.284880 473.967308 56.783636 467.048077 57.281795 462.600000 57.780552 458.646154 58.278711 459.634615 58.777468 457.163462 59.275626 439.371154 59.774084 439.865385 60.272293 430.969231 60.773243 419.107692 61.269707 420.590385 61.767666 421.578846 62.267121 413.176923 62.764582 401.315385 63.263040 399.832692 63.761497 391.925000 64.260454 399.832692 64.758911 396.373077 65.257369 383.523077 65.755827 373.144231 66.253786 378.086538 66.752743 378.086538 67.250702 378.580769 67.749160 366.719231 68.248116 370.178846 68.746574 374.132692 69.245032 367.213462 69.742991 362.271154 70.241947 360.294231 70.740405 366.719231 71.238863 370.178846 71.737321 367.707692 72.236277 430.475000 72.734236 429.980769 73.233193 452.221154 73.731152 449.255769 74.229610 479.403846 74.727569 471.496154 75.226525 461.611538 75.724485 451.232692 76.223441 453.209615 76.721899 446.784615 77.220357 441.842308 77.718814 432.451923 78.217272 423.061538 78.715730 420.096154 79.214188 413.671154 79.712646 404.775000 80.211602 405.763462 80.709561 408.234615 81.208019 402.303846 81.706477 387.971154 82.205433 388.959615 82.703393 384.511538 83.201850 384.017308 83.700807 377.592308 84.198766 373.144231 84.697722 374.132692 85.195183 371.167308 85.693641 374.132692 86.192597 383.523077 86.691055 378.086538 87.189014 369.190385 87.687971 366.225000 88.186428 371.661538 88.684886 375.121154 89.183344 368.696154 89.682300 397.855769 90.180758 418.119231 90.678717 414.659615 91.177674 447.773077 91.676131 450.244231 92.174091 463.094231 92.672549 467.542308 93.171505 478.415385 93.669464 503.126923 94.168421 503.126923 94.666380 482.863462 95.165336 490.276923 95.663794 493.736538 96.161753 483.357692 96.660211 480.886538 97.158669 472.484615 97.657127 466.553846 98.155584 466.059615 98.654042 459.140385 99.152500 453.703846 99.651456 452.715385 100.149416 445.301923 100.647874 431.463462 101.146331 435.417308 101.644789 435.417308 102.143247 427.509615 102.641705 426.521154 103.140163 423.061538 103.638620 411.200000 104.137078 404.775000 104.635536 405.269231 105.133994 383.523077 105.632452 385.500000 106.131408 383.028846 106.629367 382.040385 107.127825 369.684615 107.625784 365.730769 108.125239 368.696154 108.623198 369.190385 109.122155 368.696154 109.620114 365.236538 110.119070 371.661538 110.617030 364.248077 111.115986 373.638462 111.614942 441.348077 112.112902 446.784615 112.611359 461.611538 113.109319 461.117308 113.608275 457.163462 114.106234 457.657692 114.604692 450.244231 115.103150 456.175000 115.601608 460.128846 116.100066 443.325000 116.599022 440.359615 117.096981 434.428846 117.595937 423.555769 118.093897 428.498077 118.592853 423.555769 119.090812 414.659615 119.589769 406.257692 120.087728 408.728846 120.586186 400.821154 121.085142 387.971154 121.583600 381.546154 122.081559 385.005769 122.583506 387.476923 123.078475 380.557692 123.577431 380.063462 124.075889 369.190385 124.574347 373.144231 125.072306 371.167308 125.570764 374.132692 126.069720 383.028846 126.568178 398.844231 127.066636 432.946154 127.565094 433.440385 128.063551 440.359615 128.564501 443.819231 129.060467 450.244231 129.558426 453.703846 130.056884 445.796154 130.555840 428.992308 131.053800 434.923077 131.552257 433.440385 132.051214 429.980769 132.549173 441.842308 133.047631 428.992308 133.546587 424.544231 134.045045 410.211538 134.543004 405.269231 135.041462 390.936538 135.539920 399.832692 136.038876 402.798077 136.536836 395.384615 137.035792 380.557692 137.533751 379.569231 138.032707 373.638462 138.531165 368.696154 139.029623 372.650000 139.528081 373.144231 140.026040 372.650000 140.524996 370.673077 141.022956 367.213462 141.522411 398.844231 142.020370 420.096154 142.518828 416.142308 143.017285 461.611538 143.515245 455.680769 144.014201 461.611538 144.512160 457.657692 145.011117 454.198077 145.509575 452.221154 146.008032 435.417308 146.506490 434.428846 147.004948 424.050000 147.502907 397.361538 148.001864 409.717308 148.499823 413.671154 148.998281 413.671154 149.497237 397.361538 149.995695 397.361538 150.494153 389.948077 150.992112 386.488462 151.491068 380.063462 151.989526 380.557692 152.487984 380.557692 152.985943 370.673077 153.484899 370.673077 153.983357 369.684615 154.481815 367.213462 154.979774 372.155769 155.478731 380.063462 155.977188 428.992308 156.475646 433.934615 156.974104 438.876923 157.472562 450.738462 157.971020 469.519231 158.468481 456.175000 158.967935 474.461538 159.465895 468.036538 159.964851 454.198077 160.462810 447.278846 160.961268 430.969231 161.460224 426.026923 161.958184 423.061538 162.457140 429.486538 162.955099 420.590385 163.453557 410.211538 163.952015 419.601923 164.450971 419.601923 164.949429 407.246154 165.447388 403.292308 165.945846 402.798077 166.444304 390.936538 166.943260 388.465385 167.441718 376.109615 167.939677 370.178846 168.437637 369.190385 168.936593 385.500000 169.435051 383.028846 169.933509 374.626923 170.432465 373.144231 170.930923 370.178846 171.429380 370.178846 171.927340 371.167308 172.425798 366.719231 172.924754 388.465385 173.423212 418.119231 173.921171 431.463462 174.420127 451.726923 174.918585 444.807692 175.417043 437.394231 175.915002 444.807692 176.413958 434.428846 176.912416 439.371154 177.410376 428.003846 177.909332 421.084615 178.407790 423.555769 178.905749 422.073077 179.404705 408.728846 179.903163 407.246154 180.401122 399.832692 180.902571 386.488462 181.398537 377.098077 181.896496 382.534615 182.395452 376.109615 182.893910 367.213462 183.392368 374.132692 183.890826 371.661538 184.389283 373.144231 184.887741 373.638462 185.386199 369.190385 185.884657 401.315385 186.383115 421.578846 186.881074 416.142308 187.380030 434.428846 187.878488 431.957692 188.376946 459.140385 188.875404 451.232692 189.373861 443.819231 189.871821 431.463462 190.370777 420.096154 190.869235 423.555769 191.367194 422.073077 191.865652 406.751923 192.368596 413.176923 192.862568 411.694231 193.361025 396.867308 193.859982 395.878846 194.358440 388.465385 194.856399 387.476923 195.354857 386.488462 195.853813 404.775000 196.351772 399.832692 196.850729 390.936538 197.348688 381.051923 197.847644 374.626923 198.346102 371.167308 198.844061 374.132692 199.343018 372.650000 199.841475 366.719231 200.339933 368.696154 200.838391 372.155769 201.336849 368.696154 201.834808 375.121154 202.333764 409.717308 202.832222 423.555769 203.330182 414.659615 203.829138 423.555769 204.327097 422.567308 204.826053 418.119231 205.324511 427.509615 205.822969 424.050000 206.321427 425.532692 206.819386 427.509615 207.318342 410.211538 207.816800 415.648077 208.314760 410.705769 208.813716 409.717308 209.312174 411.694231 209.810133 402.798077 210.309089 403.292308 210.807049 396.867308 211.306005 398.844231 211.804463 387.476923 212.302422 370.178846 212.801378 367.213462 213.299836 369.190385 213.798294 373.638462 214.296752 361.776923 214.795210 367.213462 215.293667 373.144231 215.792125 373.638462 216.290583 372.650000 216.789041 385.005769 217.287499 422.073077 217.785956 422.073077 218.284414 415.153846 218.782872 426.521154 219.281330 424.050000 219.782280 445.796154 220.278245 434.428846 220.776703 425.038462 221.275161 415.153846 221.773619 408.234615 222.272077 417.130769 222.770036 426.026923 223.268992 413.176923 223.767450 422.567308 224.265908 423.555769 224.763867 417.130769 225.262823 403.292308 225.761281 388.959615 226.259241 383.523077 226.757698 376.603846 227.256156 382.040385 227.755113 392.419231 228.253570 393.901923 228.751530 388.465385 229.249987 372.155769 229.748445 376.109615 230.247402 381.546154 230.745361 381.051923 231.244317 373.144231 231.742276 372.155769 232.241233 369.684615 232.739192 364.742308 233.238148 367.213462 233.736606 364.742308 234.235064 369.684615 234.733023 379.569231 235.231980 388.959615 235.730437 412.682692 236.228895 420.590385 236.727353 415.648077 237.225811 430.969231 237.724269 431.463462 238.222726 417.625000 238.721184 429.486538 239.219144 426.026923 239.718100 415.153846 240.216558 417.625000 240.715015 419.107692 241.212975 427.509615 241.711931 419.107692 242.209890 420.590385 242.708348 422.567308 243.206806 410.211538 243.705762 408.234615 244.204220 393.901923 244.702179 384.017308 245.200637 377.592308 245.699594 368.696154 246.198051 371.661538 246.696509 370.673077 247.194967 372.650000 247.692926 372.155769 248.191883 373.144231 248.690340 366.719231 249.188798 363.753846 249.687256 370.178846 250.185714 371.661538 250.684172 366.719231 251.182629 367.707692 251.681087 371.167308 252.179545 397.361538 252.678003 421.084615 253.176461 426.026923 253.674918 439.865385 254.176865 445.301923 254.671834 445.301923 255.170292 467.048077 255.668251 450.244231 256.167207 457.163462 256.665167 456.175000 257.164123 461.611538 257.662082 442.336538 258.161039 436.405769 258.658998 434.428846 259.157456 419.601923 259.656412 429.980769 260.154371 427.509615 260.652829 413.176923 261.151786 399.832692 261.650243 398.350000 262.148203 394.890385 262.647159 387.971154 263.145118 387.971154 263.644075 382.534615 264.142034 372.155769 264.640990 374.132692 265.139448 370.673077 265.637407 373.638462 266.136364 371.167308 266.634323 366.719231 267.133279 387.971154 267.631737 410.211538 268.130195 421.084615 268.628653 417.625000 269.127110 431.463462 269.625568 428.992308 270.124026 427.015385 270.621985 435.911538 271.120942 440.359615 271.619399 450.738462 272.117857 466.553846 272.616315 475.944231 273.114773 474.461538 273.612732 483.851923 274.111688 470.507692 274.609648 463.588462 275.108604 449.255769 275.606563 456.175000 276.105021 466.553846 276.603479 460.128846 277.102435 452.221154 277.599896 445.301923 278.099351 432.946154 278.597809 431.463462 279.095270 416.142308 279.594724 404.775000 280.093182 408.234615 280.591640 394.890385 281.089599 379.075000 281.588556 375.121154 282.087013 364.248077 282.585471 370.178846 283.083929 365.730769 283.581888 366.225000 284.080845 367.707692 284.578804 370.673077 285.077760 381.546154 285.576218 390.936538 286.074676 400.821154 286.573134 391.430769 287.071591 395.384615 287.570049 403.786538 288.068507 396.373077 288.566965 386.982692 289.065423 398.844231 289.563880 396.373077 290.062338 388.465385 290.560796 392.913462 291.058755 383.523077 291.557712 382.534615 292.056169 379.075000 292.554129 386.488462 293.053085 371.661538 293.551044 365.236538 294.050001 380.557692 294.547960 382.040385 295.046916 377.592308 295.544876 382.534615 296.043832 392.419231 296.541791 385.500000 297.040748 369.684615 297.538707 374.132692 298.037165 373.638462 298.536121 366.225000 299.034579 368.696154 299.533037 367.213462 300.031494 392.913462 300.529952 394.890385 301.027912 393.407692 301.526868 398.844231 302.025326 405.763462 302.523783 404.280769 303.022241 403.292308 303.520201 410.211538 304.019157 398.844231 304.517615 405.269231 305.015574 413.176923 305.514530 399.832692 306.012988 413.176923 306.510947 414.659615 307.009904 403.786538 307.508361 394.890385 308.006819 404.775000 308.504779 407.740385 309.003735 384.511538 309.502193 383.523077 310.000152 370.178846 310.498610 376.109615 310.997566 374.132692 311.500012 371.167308 311.994482 377.098077 312.492441 370.673077 312.991397 364.248077 313.489855 370.673077 313.988313 365.236538 314.486771 394.890385 314.985229 411.200000 315.483686 414.659615 315.982144 403.786538 316.480602 426.521154 316.978561 434.923077 317.477518 427.509615 317.975975 439.371154 318.474433 445.796154 318.972891 447.278846 319.470850 441.348077 319.969807 460.623077 320.467766 455.680769 320.966224 452.221154 321.465180 441.348077 321.963638 443.325000 322.461597 437.394231 322.960055 423.061538 323.459011 420.096154 323.957469 416.636538 324.455428 401.809615 324.954385 399.832692 325.452842 404.775000 325.950802 390.442308 326.449758 373.144231 326.947717 373.638462 327.446674 372.155769 327.944633 386.488462 328.443091 379.075000 328.941549 377.592308 329.440505 379.075000 329.938464 377.098077 330.436922 367.213462 330.935878 366.225000 331.434336 374.626923 331.932295 370.673077 332.430753 362.271154 332.929710 373.144231 333.428167 373.144231 333.927124 399.338462 334.424585 392.419231 334.923042 382.534615 335.421999 382.534615 335.920456 390.442308 336.418914 388.959615 336.917372 382.040385 337.415830 399.338462 337.914288 399.338462 338.412247 387.971154 338.912699 396.867308 339.409661 399.338462 339.907620 404.775000 340.406577 398.350000 340.904536 393.407692 341.403492 393.901923 341.901452 386.488462 342.400408 372.155769 342.898866 373.144231 343.397323 376.109615 343.895781 376.109615 344.393741 372.155769 344.892198 378.580769 345.391155 374.626923 345.889114 374.132692 346.387572 366.719231 346.886030 373.638462 347.384986 373.144231 347.883444 370.673077 348.381902 369.190385 348.880858 370.178846 349.378817 367.213462 349.876777 369.190385 350.375733 371.167308 350.874191 393.901923 351.372648 427.509615 351.871106 421.084615 352.369564 404.775000 352.868022 411.694231 353.366480 415.648077 353.864937 409.717308 354.363395 409.717308 354.861853 409.717308 355.359812 408.728846 355.858769 409.223077 356.357226 414.659615 356.855186 413.176923 357.354142 407.246154 357.852600 404.280769 358.351058 392.419231 358.849017 379.075000 359.347973 381.051923 359.846431 384.511538 360.344390 377.098077 360.842848 368.201923 361.341805 370.178846 361.840262 367.707692 362.338222 365.236538 362.837178 370.673077 363.335636 380.557692 363.834094 396.867308 364.332551 397.855769 364.831009 413.176923 365.329467 411.694231 365.827925 425.532692 366.326383 428.498077 366.824840 441.348077 367.323298 434.428846 367.821756 432.946154 368.319715 436.405769 368.818672 428.003846 369.317129 433.934615 369.815587 427.015385 370.313547 419.107692 370.812503 404.775000 371.310961 410.211538 371.808920 410.211538 372.307876 404.280769 372.805836 389.453846 373.304792 397.855769 373.803250 386.488462 374.301707 370.673077 374.799667 383.523077 375.298623 394.396154 375.797081 412.188462 376.295040 411.694231 376.793996 414.165385 377.292454 420.590385 377.790912 423.555769 378.289370 438.382692 378.787828 457.657692 379.286286 462.105769 379.784245 472.978846 380.283201 470.507692 380.781160 466.059615 381.280117 463.094231 381.778076 457.163462 382.276534 447.773077 382.775490 436.900000 383.273948 428.992308 383.771907 411.200000 384.270864 400.821154 384.768823 395.384615 385.267779 395.878846 385.766237 383.523077 386.264196 377.592308 386.763153 367.213462 387.261112 367.707692 387.760068 370.178846 388.258526 366.225000 388.756984 372.650000 389.254943 363.259615 389.753899 368.201923 390.252357 366.719231 390.750815 367.707692 391.249273 372.650000 391.747731 377.098077 392.246188 385.500000 392.744646 389.453846 393.243104 380.063462 393.741562 397.361538 394.240020 401.809615 394.737979 399.338462 395.236935 386.982692 395.734895 390.936538 396.233851 402.303846 396.732309 399.832692 397.230767 408.728846 397.728726 404.775000 398.227682 408.728846 398.726140 410.211538 399.224598 386.488462 399.722557 381.051923 400.221513 393.901923 400.719473 387.476923 401.217931 376.109615 401.716887 368.201923 402.215345 372.650000 402.713304 370.673077 403.212260 369.190385 403.710718 368.201923 404.209176 369.684615 404.707634 368.201923 405.206091 377.098077 405.704549 391.430769 406.203007 396.867308 406.701465 439.371154 407.199424 437.888462 407.698380 447.773077 408.196340 452.221154 408.695296 459.140385 409.193255 457.657692 409.692212 434.428846 410.190669 441.348077 410.689127 438.876923 411.187585 435.911538 411.685544 435.417308 412.184501 424.544231 412.682959 402.798077 413.180918 400.326923 413.680373 408.728846 414.178332 401.315385 414.676790 400.326923 415.174749 394.396154 415.673705 395.384615 416.172163 376.109615 416.670621 369.190385 417.168580 367.213462 417.667537 363.753846 418.165994 365.730769 418.663954 378.580769 419.162910 366.225000 419.661368 376.603846 420.159826 406.257692 420.658283 405.269231 421.156741 401.315385 421.655199 410.211538 422.153158 399.338462 422.652115 392.913462 423.150572 404.280769 423.648532 411.694231 424.147488 406.751923 424.645946 415.648077 425.144404 418.613462 425.642363 419.601923 426.141319 406.257692 426.639777 401.809615 427.138235 401.809615 427.636693 398.350000 428.134652 396.867308 428.633608 393.901923 429.132066 386.488462 429.630524 372.650000 430.128483 363.259615 430.627440 370.673077 431.125897 375.615385 431.623857 379.569231 432.122813 371.661538 432.621271 385.005769 433.119729 384.511538 433.617688 385.005769 434.116146 367.707692 434.615102 372.650000 435.113560 387.971154 435.612018 393.407692 436.110475 386.488462 436.608933 393.407692 437.107391 410.705769 437.605849 406.751923 438.104307 400.821154 438.602764 401.315385 439.101222 389.453846 439.599182 391.430769 440.098138 387.476923 440.596097 386.982692 441.095053 382.534615 441.593511 405.269231 442.091471 411.694231 442.589928 398.350000 443.088386 386.982692 443.587342 387.971154 444.085800 385.500000 444.583760 372.155769 445.082716 377.098077 445.581174 373.638462 446.079133 365.730769 446.578089 366.719231 447.076547 373.144231 447.575005 371.661538 448.073463 373.638462 448.571921 376.109615 449.070378 381.051923 449.568836 396.867308 450.067294 402.798077 450.565752 402.303846 451.064210 395.384615 451.562667 399.338462 452.061125 402.303846 452.559583 395.878846 453.058041 388.959615 453.556499 392.419231 454.054956 384.017308 454.552916 385.005769 455.051872 383.523077 455.549831 382.040385 456.048788 370.673077 456.546747 365.730769 457.045703 367.707692 457.544161 369.190385 458.042120 378.086538 458.541575 377.098077 459.039036 376.109615 459.537992 367.213462 460.036450 374.626923 460.534908 383.523077 461.033366 370.178846 461.531823 372.155769 462.030281 398.350000 462.528241 400.821154 463.027197 401.809615 463.525655 404.775000 464.023614 399.832692 464.522570 405.763462 465.021028 413.671154 465.518987 409.223077 466.017944 402.303846 466.516402 408.728846 467.014859 410.705769 467.513317 397.855769 468.011775 405.269231 468.510233 406.751923 469.008192 406.257692 469.507148 396.373077 470.008098 389.453846 470.504064 377.098077 471.002522 366.225000 471.500980 366.719231 471.999437 364.248077 472.498892 369.190385 472.996353 371.167308 473.494811 378.086538 473.993269 387.971154 474.491726 412.188462 474.990184 417.625000 475.488642 411.200000 475.987100 426.026923 476.485059 434.428846 476.984015 435.911538 477.482473 451.726923 477.980931 436.405769 478.479389 457.657692 478.977348 448.761538 479.476305 447.278846 479.974762 452.221154 480.473220 446.290385 480.971179 436.900000 481.470136 423.555769 481.968095 408.728846 482.467051 390.936538 482.965509 388.959615 483.463469 376.109615 483.961926 372.650000 484.461381 358.811538 484.958842 367.707692 485.457798 366.225000 485.956256 362.271154 486.457206 378.580769 486.953172 375.615385 487.451629 386.982692 487.950087 394.890385 488.448545 403.292308 488.947003 401.809615 489.445461 395.878846 489.943918 398.844231 490.442376 403.292308 490.940834 410.211538 491.439292 411.694231 491.937251 413.176923 492.436207 397.855769 492.934665 405.269231 493.435117 407.246154 493.931581 380.063462 494.430039 414.165385 494.927998 409.717308 495.426954 398.350000 495.924914 385.005769 496.423870 391.430769 496.922328 388.959615 497.420786 376.603846 497.919243 364.248077 498.417701 368.201923 498.916159 375.615385 499.414118 379.075000 499.913075 383.028846 500.411532 383.028846 500.909990 384.017308 501.408448 373.638462 501.906906 382.040385 502.405364 385.994231 502.903821 380.557692 503.402279 385.500000 503.900737 396.373077 504.399195 395.384615 504.897653 393.901923 505.396110 398.844231 505.894070 402.798077 506.393026 423.061538 506.891484 434.428846 507.389443 422.567308 507.888399 425.532692 508.386359 419.601923 508.883820 407.246154 509.382277 400.326923 509.880735 396.867308 510.379193 386.488462 510.877651 387.476923 511.376109 380.557692 511.874567 381.051923 512.373024 379.075000 512.871482 375.121154 513.369940 376.603846 513.868398 362.765385 514.366856 370.673077 514.865313 364.248077 515.363771 371.167308 515.862229 367.213462 516.360687 364.742308 516.859145 378.086538 517.357602 379.075000 517.856060 366.225000 518.354518 376.603846 518.852976 388.959615 519.351434 388.959615 519.849891 377.098077 520.348349 373.638462 520.846807 385.005769 521.345265 384.511538 521.843723 370.178846 522.342180 381.546154 522.840638 403.292308 523.339096 404.280769 523.837554 396.373077 524.336012 403.292308 524.834469 396.867308 525.332927 375.615385 525.831385 378.580769 526.329843 375.121154 526.828301 372.155769 527.326759 376.109615 527.825216 390.936538 528.323674 385.005769 528.822132 378.580769 529.320590 370.178846 529.819048 384.017308 530.317505 401.315385 530.815963 407.246154 531.314421 411.694231 531.812879 434.923077 532.316321 437.888462 532.809794 429.486538 533.308252 426.521154 533.806710 417.130769 534.305168 423.061538 534.803626 427.509615 535.302083 429.980769 535.800541 421.084615 536.298999 419.601923 536.797457 425.038462 537.295915 412.188462 537.794372 410.211538 538.292830 394.396154 538.791288 385.005769 539.289746 387.476923 539.788204 378.086538 540.286661 374.132692 540.785119 379.075000 541.283577 381.546154 541.782035 364.248077 542.280493 365.730769 542.778950 363.259615 543.277408 364.742308 543.775866 364.248077 544.274324 368.696154 544.772782 376.603846 545.271240 382.534615 545.769697 386.982692 546.268155 384.511538 546.766613 382.534615 547.265071 381.546154 547.763529 400.821154 548.261986 391.925000 548.760444 373.144231 549.258902 393.407692 549.757360 389.453846 550.255818 397.361538 550.754275 373.144231 551.252733 389.453846 551.751191 396.373077 552.249649 373.144231 552.748107 363.259615 553.246564 374.626923 553.745022 377.098077 554.243480 379.075000 554.741938 373.144231 555.240396 381.546154 555.738853 379.569231 556.237311 370.673077 556.735769 365.730769 557.234227 367.213462 557.732685 374.626923 558.231142 368.696154 558.729600 359.800000 559.228058 368.696154 559.726516 371.167308 560.224974 390.442308 560.723432 408.234615 561.221889 430.475000 561.720347 436.900000 562.218805 446.290385 562.717263 443.325000 563.215721 451.726923 563.714178 449.255769 564.212636 457.657692 564.711094 443.325000 565.209552 440.853846 565.708010 433.440385 566.206467 416.636538 566.704925 424.050000 567.203383 418.119231 567.701841 403.292308 568.200299 390.936538 568.698756 386.982692 569.197214 380.063462 569.695672 369.684615 570.194130 377.098077 570.692588 360.294231 571.196030 362.271154 571.689503 365.730769 572.187961 372.155769 572.686419 366.225000 573.184877 365.236538 573.683334 365.730769 574.181792 379.569231 574.680250 387.476923 575.178708 388.465385 575.677166 383.028846 576.175623 388.465385 576.674081 396.867308 577.172539 407.246154 577.670997 401.315385 578.169455 400.821154 578.667913 405.269231 579.171355 399.832692 579.664828 415.153846 580.163286 412.188462 580.661744 408.728846 581.160202 406.257692 581.658659 405.763462 582.157117 387.971154 582.655575 382.040385 583.154033 371.167308 583.652491 367.707692 584.150948 371.661538 584.649406 373.144231 585.147864 369.190385 585.646322 369.684615 586.144780 364.248077 586.643237 366.719231 587.141695 365.236538 587.640153 381.051923 588.138611 384.511538 588.637069 371.167308 589.135526 385.500000 589.633984 384.017308 590.132442 391.430769 590.630900 382.040385 591.129358 385.994231 591.627815 395.878846 592.126273 400.326923 592.624731 407.246154 593.123189 430.475000 593.621647 434.923077 594.120105 427.509615 594.618562 438.382692 595.117020 435.911538 595.615478 405.763462 596.113936 409.223077 596.612394 407.246154 597.110851 395.384615 597.609309 388.959615 598.107767 395.384615 598.606225 391.430769 599.104683 388.959615 599.608125 410.211538 600.101598 385.005769 600.600056 383.028846 601.098514 385.500000 601.596972 380.557692 602.095429 368.696154 602.593887 361.776923 603.092345 368.696154 603.590803 370.673077 604.089261 369.684615 604.587718 376.109615 605.086176 381.546154 605.584634 379.075000 606.083092 377.098077 606.581550 387.971154 607.080007 390.936538 607.578465 396.373077 608.076923 409.717308" /></g><g class="series serie-1 color-1"><path class="line reactive nofill" d="M11.923077 283.688462 L12.420897 472.978846 12.919035 463.094231 13.417493 426.521154 13.915951 440.359615 14.414728 428.992308 14.912867 444.807692 15.411339 439.865385 15.909797 413.176923 16.408255 443.819231 16.906713 416.636538 17.405171 409.717308 17.903629 428.992308 18.402086 401.809615 18.900544 447.278846 19.399949 411.694231 19.898058 448.761538 20.396217 423.061538 20.894375 401.315385 21.393132 432.451923 21.891590 409.223077 22.389749 472.978846 22.888506 393.407692 23.386963 376.109615 23.885720 414.165385 24.383580 415.153846 24.882636 359.305769 25.381094 387.476923 25.878953 389.948077 26.377710 420.590385 26.876467 398.844231 27.374476 411.200000 27.873084 408.728846 28.371242 387.971154 28.869999 378.086538 29.368457 412.682692 29.866915 379.075000 30.365074 421.578846 30.864479 369.684615 31.362936 364.248077 31.860746 438.382692 32.359204 400.326923 32.857662 440.853846 33.355820 443.325000 33.854278 445.301923 34.353035 434.428846 34.851194 401.315385 35.349951 369.190385 35.848409 438.382692 36.346567 440.359615 36.845025 414.165385 37.343782 435.911538 37.841941 432.451923 38.340399 407.246154 38.839155 418.613462 39.337314 414.659615 39.836071 387.971154 40.334230 402.798077 40.834233 436.900000 41.331145 424.544231 41.829902 409.223077 42.328061 452.715385 42.826519 440.853846 43.326023 420.590385 43.823434 447.773077 44.321892 419.601923 44.820649 417.625000 45.318808 442.336538 45.817266 447.278846 46.318714 418.119231 46.814480 397.361538 47.312639 413.176923 47.811097 447.278846 48.309555 440.359615 48.808312 398.350000 49.306470 404.775000 49.805227 406.257692 50.303685 360.788462 50.802442 394.890385 51.300302 402.303846 51.799357 418.613462 52.297516 447.278846 52.796622 402.303846 53.294731 421.084615 53.792890 392.419231 54.291347 425.038462 54.789805 395.878846 55.288263 400.821154 55.789562 387.971154 56.284880 438.876923 56.783636 448.267308 57.281795 431.957692 57.780552 446.784615 58.278711 457.657692 58.777468 406.751923 59.275626 433.440385 59.774084 400.326923 60.272293 404.280769 60.773243 403.292308 61.269707 418.119231 61.767666 392.419231 62.267121 358.811538 62.764582 399.832692 63.263040 437.394231 63.761497 442.336538 64.260454 398.350000 64.758911 430.475000 65.257369 394.890385 65.755827 390.936538 66.253786 434.923077 66.752743 412.682692 67.250702 439.865385 67.749160 437.888462 68.248116 418.613462 68.746574 406.257692 69.245032 385.500000 69.742991 452.221154 70.241947 396.373077 70.740405 416.142308 71.238863 407.740385 71.737321 433.934615 72.236277 435.911538 72.734236 397.361538 73.233193 411.200000 73.731152 410.705769 74.229610 439.371154 74.727569 440.359615 75.226525 379.075000 75.724485 390.442308 76.223441 403.292308 76.721899 387.476923 77.220357 390.936538 77.718814 417.130769 78.217272 411.200000 78.715730 410.211538 79.214188 402.798077 79.712646 395.384615 80.211602 423.061538 80.709561 390.936538 81.208019 397.361538 81.706477 390.936538 82.205433 410.705769 82.703393 423.555769 83.201850 385.005769 83.700807 380.557692 84.198766 408.234615 84.697722 389.453846 85.195183 424.050000 85.693641 431.957692 86.192597 386.488462 86.691055 382.040385 87.189014 429.980769 87.687971 406.751923 88.186428 418.613462 88.684886 404.775000 89.183344 377.592308 89.682300 409.223077 90.180758 371.661538 90.678717 426.026923 91.177674 418.613462 91.676131 375.121154 92.174091 433.934615 92.672549 414.165385 93.171505 399.832692 93.669464 419.601923 94.168421 368.696154 94.666380 399.338462 95.165336 379.075000 95.663794 384.017308 96.161753 404.280769 96.660211 379.075000 97.158669 418.613462 97.657127 418.119231 98.155584 412.188462 98.654042 397.855769 99.152500 401.809615 99.651456 378.086538 100.149416 375.121154 100.647874 378.580769 101.146331 409.223077 101.644789 389.948077 102.143247 434.923077 102.641705 398.350000 103.140163 379.075000 103.638620 370.673077 104.137078 435.911538 104.635536 367.213462 105.133994 361.282692 105.632452 416.142308 106.131408 372.650000 106.629367 384.511538 107.127825 349.915385 107.625784 388.465385 108.125239 370.178846 108.623198 410.211538 109.122155 339.536538 109.620114 384.017308 110.119070 405.269231 110.617030 407.246154 111.115986 410.705769 111.614942 415.153846 112.112902 417.625000 112.611359 390.442308 113.109319 367.213462 113.608275 396.373077 114.106234 358.811538 114.604692 366.225000 115.103150 457.163462 115.601608 376.603846 116.100066 359.305769 116.599022 392.913462 117.096981 412.188462 117.595937 408.234615 118.093897 398.844231 118.592853 394.890385 119.090812 413.176923 119.589769 369.684615 120.087728 402.303846 120.586186 349.421154 121.085142 324.709615 121.583600 387.971154 122.081559 420.590385 122.583506 378.580769 123.078475 370.673077 123.577431 358.811538 124.075889 361.282692 124.574347 374.626923 125.072306 411.200000 125.570764 389.453846 126.069720 410.705769 126.568178 401.315385 127.066636 415.153846 127.565094 355.846154 128.063551 386.488462 128.564501 397.361538 129.060467 408.728846 129.558426 359.305769 130.056884 360.788462 130.555840 289.619231 131.053800 405.269231 131.552257 353.375000 132.051214 423.061538 132.549173 400.821154 133.047631 388.959615 133.546587 330.640385 134.045045 328.169231 134.543004 355.351923 135.041462 421.084615 135.539920 428.498077 136.038876 349.915385 136.536836 377.098077 137.035792 358.317308 137.533751 376.603846 138.032707 373.638462 138.531165 358.811538 139.029623 355.351923 139.528081 296.538462 140.026040 346.455769 140.524996 349.421154 141.022956 340.030769 141.522411 391.925000 142.020370 331.628846 142.518828 371.661538 143.017285 364.742308 143.515245 400.326923 144.014201 344.478846 144.512160 381.051923 145.011117 364.742308 145.509575 363.259615 146.008032 347.444231 146.506490 276.769231 147.004948 313.836538 147.502907 346.950000 148.001864 372.155769 148.499823 405.763462 148.998281 337.559615 149.497237 327.675000 149.995695 375.615385 150.494153 342.007692 150.992112 379.075000 151.491068 358.317308 151.989526 373.638462 152.487984 353.375000 152.985943 360.788462 153.484899 338.548077 153.983357 340.525000 154.481815 376.109615 154.979774 362.271154 155.478731 391.430769 155.977188 392.913462 156.475646 397.855769 156.974104 352.386538 157.472562 367.213462 157.971020 381.546154 158.468481 368.201923 158.967935 366.719231 159.465895 350.903846 159.964851 347.444231 160.462810 309.882692 160.961268 309.388462 161.460224 334.594231 161.958184 401.315385 162.457140 359.305769 162.955099 379.569231 163.453557 379.075000 163.952015 406.257692 164.450971 325.698077 164.949429 389.948077 165.447388 382.040385 165.945846 391.925000 166.444304 372.650000 166.943260 304.446154 167.441718 323.226923 167.939677 356.834615 168.437637 407.740385 168.936593 396.373077 169.435051 323.226923 169.933509 347.444231 170.432465 399.338462 170.930923 381.546154 171.429380 374.132692 171.927340 383.523077 172.425798 325.203846 172.924754 394.396154 173.423212 394.890385 173.921171 422.567308 174.420127 323.226923 174.918585 357.328846 175.417043 325.698077 175.915002 348.926923 176.413958 368.201923 176.912416 351.892308 177.410376 359.305769 177.909332 347.938462 178.407790 385.500000 178.905749 354.363462 179.404705 327.180769 179.903163 358.811538 180.401122 315.319231 180.902571 342.501923 181.398537 357.823077 181.896496 356.834615 182.395452 303.457692 182.893910 351.892308 183.392368 345.961538 183.890826 368.201923 184.389283 323.721154 184.887741 344.478846 185.386199 323.721154 185.884657 356.340385 186.383115 363.259615 186.881074 349.915385 187.380030 360.294231 187.878488 356.834615 188.376946 401.315385 188.875404 333.605769 189.373861 269.850000 189.871821 280.723077 190.370777 360.788462 190.869235 326.686538 191.367194 354.857692 191.865652 389.453846 192.368596 348.926923 192.862568 353.869231 193.361025 355.351923 193.859982 351.892308 194.358440 350.903846 194.856399 384.511538 195.354857 346.950000 195.853813 398.350000 196.351772 337.065385 196.850729 337.065385 197.348688 357.328846 197.847644 362.765385 198.346102 348.926923 198.844061 380.557692 199.343018 304.446154 199.841475 337.065385 200.339933 323.721154 200.838391 385.994231 201.336849 358.317308 201.834808 381.051923 202.333764 367.213462 202.832222 348.926923 203.330182 392.419231 203.829138 322.238462 204.327097 351.398077 204.826053 335.582692 205.324511 370.178846 205.822969 315.319231 206.321427 357.823077 206.819386 298.515385 207.318342 320.261538 207.816800 379.075000 208.314760 365.236538 208.813716 400.821154 209.312174 326.686538 209.810133 354.363462 210.309089 386.488462 210.807049 325.203846 211.306005 332.123077 211.804463 325.698077 212.302422 327.180769 212.801378 326.686538 213.299836 356.340385 213.798294 309.388462 214.296752 346.950000 214.795210 348.432692 215.293667 361.776923 215.792125 348.926923 216.290583 340.525000 216.789041 353.375000 217.287499 343.490385 217.785956 319.273077 218.284414 304.446154 218.782872 327.675000 219.281330 342.996154 219.782280 358.317308 220.278245 320.755769 220.776703 251.069231 221.275161 337.559615 221.773619 356.834615 222.272077 381.051923 222.770036 336.571154 223.268992 403.292308 223.767450 400.326923 224.265908 382.040385 224.763867 300.986538 225.262823 294.561538 225.761281 303.457692 226.259241 332.123077 226.757698 339.042308 227.256156 420.590385 227.755113 411.694231 228.253570 328.169231 228.751530 307.905769 229.249987 366.225000 229.748445 387.971154 230.247402 392.913462 230.745361 379.075000 231.244317 346.950000 231.742276 354.363462 232.241233 361.776923 232.739192 324.215385 233.238148 377.592308 233.736606 331.134615 234.235064 351.398077 234.733023 412.682692 235.231980 330.146154 235.730437 327.675000 236.228895 355.846154 236.727353 323.721154 237.225811 313.342308 237.724269 366.719231 238.222726 341.019231 238.721184 319.767308 239.219144 369.684615 239.718100 350.903846 240.216558 363.259615 240.715015 357.328846 241.212975 382.534615 241.711931 336.571154 242.209890 384.511538 242.708348 366.225000 243.206806 329.651923 243.705762 350.409615 244.204220 264.907692 244.702179 326.686538 245.200637 316.307692 245.699594 323.226923 246.198051 403.292308 246.696509 353.869231 247.194967 377.592308 247.692926 351.398077 248.191883 339.042308 248.690340 374.626923 249.188798 312.848077 249.687256 369.190385 250.185714 349.421154 250.684172 302.963462 251.182629 312.353846 251.681087 410.705769 252.179545 360.788462 252.678003 342.501923 253.176461 359.800000 253.674918 371.167308 254.176865 321.744231 254.671834 392.419231 255.170292 353.869231 255.668251 325.698077 256.167207 392.419231 256.665167 383.028846 257.164123 343.490385 257.662082 335.088462 258.161039 330.640385 258.658998 324.215385 259.157456 353.869231 259.656412 403.292308 260.154371 327.180769 260.652829 293.078846 261.151786 370.673077 261.650243 360.788462 262.148203 335.582692 262.647159 366.225000 263.145118 355.846154 263.644075 361.776923 264.142034 332.123077 264.640990 372.155769 265.139448 399.832692 265.637407 343.490385 266.136364 333.605769 266.634323 308.400000 267.133279 388.465385 267.631737 380.557692 268.130195 347.444231 268.628653 322.732692 269.127110 327.675000 269.625568 281.711538 270.124026 396.867308 270.621985 364.742308 271.120942 342.501923 271.619399 341.513462 272.117857 341.513462 272.616315 315.813462 273.114773 367.707692 273.612732 323.226923 274.111688 341.019231 274.609648 322.732692 275.108604 352.386538 275.606563 415.153846 276.105021 405.763462 276.603479 355.846154 277.102435 315.319231 277.599896 329.157692 278.099351 407.740385 278.597809 357.328846 279.095270 325.698077 279.594724 370.673077 280.093182 329.157692 280.591640 257.000000 281.089599 317.296154 281.588556 321.250000 282.087013 306.423077 282.585471 313.342308 283.083929 350.903846 283.581888 328.169231 284.080845 330.146154 284.578804 357.328846 285.077760 352.880769 285.576218 279.734615 286.074676 314.330769 286.573134 346.455769 287.071591 278.746154 287.570049 313.836538 288.068507 344.973077 288.566965 355.846154 289.065423 332.123077 289.563880 339.536538 290.062338 286.159615 290.560796 292.090385 291.058755 315.319231 291.557712 324.709615 292.056169 309.388462 292.554129 352.386538 293.053085 284.676923 293.551044 343.490385 294.050001 361.282692 294.547960 348.926923 295.046916 345.961538 295.544876 378.580769 296.043832 363.259615 296.541791 305.434615 297.040748 330.640385 297.538707 370.673077 298.037165 333.111538 298.536121 326.686538 299.034579 351.892308 299.533037 337.065385 300.031494 365.236538 300.529952 317.296154 301.027912 335.582692 301.526868 338.053846 302.025326 359.800000 302.523783 301.480769 303.022241 322.238462 303.520201 353.375000 304.019157 342.996154 304.517615 345.467308 305.015574 345.961538 305.514530 354.363462 306.012988 361.776923 306.510947 350.409615 307.009904 355.351923 307.508361 363.753846 308.006819 384.017308 308.504779 312.353846 309.003735 330.640385 309.502193 280.228846 310.000152 373.638462 310.498610 359.305769 310.997566 372.650000 311.500012 305.928846 311.994482 306.917308 312.492441 286.159615 312.991397 298.021154 313.489855 260.459615 313.988313 339.042308 314.486771 303.951923 314.985229 361.282692 315.483686 289.125000 315.982144 334.100000 316.480602 392.419231 316.978561 380.063462 317.477518 310.376923 317.975975 378.580769 318.474433 363.753846 318.972891 336.571154 319.470850 359.305769 319.969807 400.821154 320.467766 368.696154 320.966224 388.959615 321.465180 340.030769 321.963638 349.915385 322.461597 376.603846 322.960055 342.501923 323.459011 302.469231 323.957469 359.305769 324.455428 310.376923 324.954385 414.659615 325.452842 338.548077 325.950802 280.228846 326.449758 316.307692 326.947717 373.144231 327.446674 295.055769 327.944633 380.557692 328.443091 392.913462 328.941549 382.040385 329.440505 352.386538 329.938464 366.719231 330.436922 356.340385 330.935878 311.365385 331.434336 361.282692 331.932295 321.744231 332.430753 318.778846 332.929710 337.559615 333.428167 312.353846 333.927124 321.250000 334.424585 331.628846 334.923042 302.469231 335.421999 335.582692 335.920456 376.109615 336.418914 339.536538 336.917372 302.963462 337.415830 385.005769 337.914288 295.550000 338.412247 318.778846 338.912699 349.915385 339.409661 344.478846 339.907620 380.063462 340.406577 351.398077 340.904536 348.926923 341.403492 329.157692 341.901452 327.180769 342.400408 331.628846 342.898866 315.319231 343.397323 364.742308 343.895781 388.465385 344.393741 363.259615 344.892198 372.155769 345.391155 351.892308 345.889114 326.686538 346.387572 304.940385 346.886030 376.603846 347.384986 340.030769 347.883444 292.090385 348.381902 355.846154 348.880858 360.788462 349.378817 319.273077 349.876777 372.650000 350.375733 311.859615 350.874191 380.063462 351.372648 395.878846 351.871106 288.630769 352.369564 324.709615 352.868022 359.305769 353.366480 361.282692 353.864937 332.617308 354.363395 296.044231 354.861853 314.825000 355.359812 388.959615 355.858769 337.559615 356.357226 375.121154 356.855186 330.640385 357.354142 332.123077 357.852600 285.171154 358.351058 329.157692 358.849017 312.353846 359.347973 338.548077 359.846431 333.111538 360.344390 325.203846 360.842848 381.051923 361.341805 312.353846 361.840262 340.030769 362.338222 326.686538 362.837178 347.444231 363.335636 385.500000 363.834094 326.686538 364.332551 318.284615 364.831009 381.546154 365.329467 343.984615 365.827925 326.192308 366.326383 354.857692 366.824840 354.363462 367.323298 334.594231 367.821756 302.963462 368.319715 341.019231 368.818672 325.203846 369.317129 320.261538 369.815587 308.400000 370.313547 312.848077 370.812503 351.398077 371.310961 359.305769 371.808920 305.434615 372.307876 339.042308 372.805836 347.444231 373.304792 238.713462 373.803250 198.186538 374.301707 314.330769 374.799667 388.959615 375.298623 350.903846 375.797081 358.811538 376.295040 299.503846 376.793996 324.709615 377.292454 329.651923 377.790912 303.457692 378.289370 347.444231 378.787828 351.892308 379.286286 346.455769 379.784245 398.350000 380.283201 309.388462 380.781160 334.100000 381.280117 338.548077 381.778076 329.651923 382.276534 362.271154 382.775490 339.042308 383.273948 267.378846 383.771907 323.721154 384.270864 289.125000 384.768823 325.698077 385.267779 342.501923 385.766237 303.457692 386.264196 351.892308 386.763153 329.651923 387.261112 286.653846 387.760068 287.642308 388.258526 347.938462 388.756984 304.446154 389.254943 308.894231 389.753899 281.217308 390.252357 324.215385 390.750815 314.330769 391.249273 350.903846 391.747731 260.459615 392.246188 360.788462 392.744646 323.721154 393.243104 302.469231 393.741562 356.340385 394.240020 316.801923 394.737979 270.838462 395.236935 295.055769 395.734895 371.167308 396.233851 310.871154 396.732309 356.834615 397.230767 334.100000 397.728726 366.719231 398.227682 345.961538 398.726140 286.159615 399.224598 298.515385 399.722557 337.065385 400.221513 308.894231 400.719473 347.938462 401.217931 287.642308 401.716887 323.721154 402.215345 325.203846 402.713304 386.488462 403.212260 323.721154 403.710718 376.603846 404.209176 293.078846 404.707634 341.019231 405.206091 348.926923 405.704549 340.525000 406.203007 340.525000 406.701465 347.938462 407.199424 370.178846 407.698380 283.194231 408.196340 335.088462 408.695296 301.480769 409.193255 262.436538 409.692212 307.411538 410.190669 331.134615 410.689127 350.903846 411.187585 358.811538 411.685544 331.628846 412.184501 278.251923 412.682959 319.767308 413.180918 315.813462 413.680373 369.684615 414.178332 333.111538 414.676790 316.801923 415.174749 326.686538 415.673705 238.219231 416.172163 296.044231 416.670621 273.309615 417.168580 351.892308 417.667537 320.755769 418.165994 334.594231 418.663954 330.146154 419.162910 313.836538 419.661368 365.730769 420.159826 361.776923 420.658283 312.353846 421.156741 332.123077 421.655199 280.228846 422.153158 240.690385 422.652115 341.513462 423.150572 320.261538 423.648532 329.157692 424.147488 317.296154 424.645946 407.246154 425.144404 343.490385 425.642363 322.732692 426.141319 318.778846 426.639777 319.767308 427.138235 348.926923 427.636693 361.776923 428.134652 363.259615 428.633608 277.263462 429.132066 262.930769 429.630524 294.067308 430.128483 389.948077 430.627440 303.457692 431.125897 348.432692 431.623857 373.144231 432.122813 287.642308 432.621271 363.259615 433.119729 365.730769 433.617688 326.686538 434.116146 375.615385 434.615102 306.423077 435.113560 341.019231 435.612018 299.998077 436.110475 317.790385 436.608933 331.134615 437.107391 357.823077 437.605849 315.319231 438.104307 314.825000 438.602764 321.250000 439.101222 342.996154 439.599182 309.882692 440.098138 277.757692 440.596097 351.398077 441.095053 332.123077 441.593511 381.051923 442.091471 344.973077 442.589928 290.113462 443.088386 331.628846 443.587342 326.192308 444.085800 305.434615 444.583760 364.248077 445.082716 296.538462 445.581174 325.203846 446.079133 278.251923 446.578089 330.640385 447.076547 358.317308 447.575005 302.469231 448.073463 301.975000 448.571921 299.503846 449.070378 351.892308 449.568836 342.996154 450.067294 306.423077 450.565752 336.571154 451.064210 306.423077 451.562667 301.975000 452.061125 347.938462 452.559583 308.400000 453.058041 310.376923 453.556499 330.146154 454.054956 315.319231 454.552916 343.984615 455.051872 319.767308 455.549831 276.275000 456.048788 236.736538 456.546747 301.480769 457.045703 306.423077 457.544161 340.030769 458.042120 288.630769 458.541575 312.848077 459.039036 319.767308 459.537992 360.788462 460.036450 333.111538 460.534908 349.421154 461.033366 230.311538 461.531823 320.261538 462.030281 355.846154 462.528241 335.088462 463.027197 252.551923 463.525655 304.940385 464.023614 349.421154 464.522570 321.744231 465.021028 313.342308 465.518987 302.963462 466.017944 360.788462 466.516402 302.963462 467.014859 342.996154 467.513317 303.457692 468.011775 367.707692 468.510233 337.065385 469.008192 320.755769 469.507148 318.284615 470.008098 302.963462 470.504064 167.050000 471.002522 352.386538 471.500980 368.696154 471.999437 319.767308 472.498892 254.528846 472.996353 325.698077 473.494811 317.296154 473.993269 376.603846 474.491726 347.444231 474.990184 255.517308 475.488642 295.055769 475.987100 361.776923 476.485059 316.307692 476.984015 343.984615 477.482473 348.432692 477.980931 305.434615 478.479389 372.155769 478.977348 311.859615 479.476305 335.582692 479.974762 382.534615 480.473220 323.721154 480.971179 280.228846 481.470136 302.469231 481.968095 243.161538 482.467051 271.332692 482.965509 292.090385 483.463469 335.088462 483.961926 278.251923 484.461381 280.723077 484.958842 351.892308 485.457798 301.975000 485.956256 291.101923 486.457206 354.363462 486.953172 313.836538 487.451629 332.617308 487.950087 295.055769 488.448545 299.009615 488.947003 326.686538 489.445461 271.332692 489.943918 286.653846 490.442376 332.123077 490.940834 317.790385 491.439292 316.307692 491.937251 301.480769 492.436207 325.698077 492.934665 259.965385 493.435117 327.180769 493.931581 289.619231 494.430039 361.776923 494.927998 334.100000 495.426954 264.413462 495.924914 336.076923 496.423870 304.446154 496.922328 268.367308 497.420786 261.942308 497.919243 315.813462 498.417701 293.573077 498.916159 316.307692 499.414118 331.628846 499.913075 310.376923 500.411532 310.376923 500.909990 285.171154 501.408448 274.298077 501.906906 344.478846 502.405364 315.813462 502.903821 334.100000 503.402279 271.826923 503.900737 330.640385 504.399195 309.882692 504.897653 328.663462 505.396110 326.192308 505.894070 354.363462 506.393026 394.890385 506.891484 408.234615 507.389443 350.903846 507.888399 299.998077 508.386359 317.296154 508.883820 332.617308 509.382277 284.676923 509.880735 309.882692 510.379193 340.525000 510.877651 369.684615 511.376109 319.273077 511.874567 330.146154 512.373024 369.190385 512.871482 323.721154 513.369940 338.053846 513.868398 301.480769 514.366856 333.605769 514.865313 270.838462 515.363771 294.561538 515.862229 229.323077 516.360687 303.951923 516.859145 339.042308 517.357602 223.392308 517.856060 321.744231 518.354518 342.007692 518.852976 323.226923 519.351434 227.840385 519.849891 290.113462 520.348349 294.561538 520.846807 308.400000 521.345265 283.194231 521.843723 301.975000 522.342180 301.975000 522.840638 374.132692 523.339096 306.917308 523.837554 327.180769 524.336012 306.917308 524.834469 293.573077 525.332927 238.713462 525.831385 361.282692 526.329843 228.828846 526.828301 325.203846 527.326759 355.351923 527.825216 294.561538 528.323674 280.723077 528.822132 266.390385 529.320590 331.628846 529.819048 340.525000 530.317505 313.836538 530.815963 332.123077 531.314421 285.171154 531.812879 380.557692 532.316321 275.286538 532.809794 271.332692 533.308252 241.184615 533.806710 292.584615 534.305168 364.742308 534.803626 292.584615 535.302083 320.755769 535.800541 313.836538 536.298999 388.959615 536.797457 358.811538 537.295915 280.723077 537.794372 326.192308 538.292830 285.665385 538.791288 310.871154 539.289746 299.009615 539.788204 346.455769 540.286661 318.284615 540.785119 308.400000 541.283577 306.423077 541.782035 333.605769 542.280493 323.226923 542.778950 301.480769 543.277408 314.825000 543.775866 348.926923 544.274324 302.469231 544.772782 333.605769 545.271240 343.490385 545.769697 249.092308 546.268155 284.182692 546.766613 309.388462 547.265071 338.053846 547.763529 326.686538 548.261986 243.655769 548.760444 323.226923 549.258902 340.030769 549.757360 311.859615 550.255818 347.938462 550.754275 283.194231 551.252733 374.132692 551.751191 266.884615 552.249649 270.344231 552.748107 271.826923 553.246564 316.801923 553.745022 338.548077 554.243480 321.744231 554.741938 372.650000 555.240396 342.007692 555.738853 339.042308 556.237311 230.805769 556.735769 322.238462 557.234227 325.203846 557.732685 331.628846 558.231142 246.621154 558.729600 208.565385 559.228058 351.398077 559.726516 255.023077 560.224974 340.030769 560.723432 336.571154 561.221889 365.730769 561.720347 260.953846 562.218805 400.326923 562.717263 288.630769 563.215721 321.744231 563.714178 356.340385 564.212636 375.615385 564.711094 302.469231 565.209552 319.767308 565.708010 288.136538 566.206467 325.203846 566.704925 318.284615 567.203383 309.882692 567.701841 242.173077 568.200299 306.917308 568.698756 296.044231 569.197214 310.376923 569.695672 350.903846 570.194130 278.746154 570.692588 278.251923 571.196030 330.146154 571.689503 283.688462 572.187961 327.180769 572.686419 352.880769 573.184877 286.159615 573.683334 279.734615 574.181792 336.076923 574.680250 265.401923 575.178708 248.103846 575.677166 313.836538 576.175623 347.938462 576.674081 316.801923 577.172539 353.869231 577.670997 342.007692 578.169455 297.526923 578.667913 273.309615 579.171355 332.123077 579.664828 339.042308 580.163286 278.746154 580.661744 361.776923 581.160202 296.044231 581.658659 267.378846 582.157117 271.332692 582.655575 280.228846 583.154033 314.825000 583.652491 287.148077 584.150948 351.892308 584.649406 340.030769 585.147864 264.413462 585.646322 393.407692 586.144780 308.400000 586.643237 260.953846 587.141695 287.148077 587.640153 345.961538 588.138611 251.563462 588.637069 338.053846 589.135526 285.665385 589.633984 244.150000 590.132442 325.698077 590.630900 279.734615 591.129358 297.032692 591.627815 299.009615 592.126273 282.205769 592.624731 388.465385 593.123189 351.398077 593.621647 299.009615 594.120105 351.892308 594.618562 325.203846 595.117020 294.067308 595.615478 283.194231 596.113936 287.642308 596.612394 272.321154 597.110851 317.296154 597.609309 286.653846 598.107767 342.996154 598.606225 368.201923 599.104683 328.663462 599.608125 341.513462 600.101598 272.815385 600.600056 346.950000 601.098514 278.746154 601.596972 256.011538 602.095429 292.584615 602.593887 237.230769 603.092345 288.630769 603.590803 294.561538 604.089261 299.009615 604.587718 329.651923 605.086176 341.019231 605.584634 271.826923 606.083092 313.342308 606.581550 271.826923 607.080007 305.434615 607.578465 303.457692 608.076923 359.800000" /></g><g class="series serie-2 color-2"><path class="line reactive nofill" d="M11.923077 257.000000 L12.420897 257.000000 12.919035 257.000000 13.417493 257.000000 13.915951 257.000000 14.414728 257.000000 14.912867 257.000000 15.411339 257.000000 15.909797 257.000000 16.408255 257.000000 16.906713 257.000000 17.405171 257.000000 17.903629 257.000000 18.402086 257.000000 18.900544 257.000000 19.399949 257.000000 19.898058 257.000000 20.396217 257.000000 20.894375 257.000000 21.393132 257.000000 21.891590 257.000000 22.389749 257.000000 22.888506 257.000000 23.386963 257.000000 23.885720 257.000000 24.383580 257.000000 24.882636 257.000000 25.381094 257.000000 25.878953 257.000000 26.377710 257.000000 26.876467 257.000000 27.374476 257.000000 27.873084 257.000000 28.371242 257.000000 28.869999 257.000000 29.368457 257.000000 29.866915 257.000000 30.365074 257.000000 30.864479 257.000000 31.362936 257.000000 31.860746 257.000000 32.359204 257.000000 32.857662 257.000000 33.355820 257.000000 33.854278 257.000000 34.353035 257.000000 34.851194 257.000000 35.349951 257.000000 35.848409 257.000000 36.346567 257.000000 36.845025 257.000000 37.343782 257.000000 37.841941 257.000000 38.340399 257.000000 38.839155 257.000000 39.337314 257.000000 39.836071 257.000000 40.334230 257.000000 40.834233 257.000000 41.331145 257.000000 41.829902 257.000000 42.328061 257.000000 42.826519 257.000000 43.326023 257.000000 43.823434 257.000000 44.321892 257.000000 44.820649 257.000000 45.318808 257.000000 45.817266 257.000000 46.318714 257.000000 46.814480 257.000000 47.312639 257.000000 47.811097 257.000000 48.309555 257.000000 48.808312 257.000000 49.306470 257.000000 49.805227 257.000000 50.303685 257.000000 50.802442 257.000000 51.300302 257.000000 51.799357 257.000000 52.297516 257.000000 52.796622 257.000000 53.294731 257.000000 53.792890 257.000000 54.291347 257.000000 54.789805 257.000000 55.288263 257.000000 55.789562 257.000000 56.284880 257.000000 56.783636 257.000000 57.281795 257.000000 57.780552 257.000000 58.278711 257.000000 58.777468 257.000000 59.275626 257.000000 59.774084 257.000000 60.272293 257.000000 60.773243 257.000000 61.269707 257.000000 61.767666 257.000000 62.267121 257.000000 62.764582 257.000000 63.263040 257.000000 63.761497 257.000000 64.260454 257.000000 64.758911 257.000000 65.257369 257.000000 65.755827 257.000000 66.253786 257.000000 66.752743 257.000000 67.250702 257.000000 67.749160 257.000000 68.248116 257.000000 68.746574 257.000000 69.245032 257.000000 69.742991 257.000000 70.241947 257.000000 70.740405 257.000000 71.238863 257.000000 71.737321 257.000000 72.236277 257.000000 72.734236 257.000000 73.233193 257.000000 73.731152 257.000000 74.229610 257.000000 74.727569 257.000000 75.226525 257.000000 75.724485 257.000000 76.223441 257.000000 76.721899 257.000000 77.220357 257.000000 77.718814 257.000000 78.217272 257.000000 78.715730 257.000000 79.214188 257.000000 79.712646 257.000000 80.211602 257.000000 80.709561 257.000000 81.208019 257.000000 81.706477 257.000000 82.205433 257.000000 82.703393 257.000000 83.201850 257.000000 83.700807 257.000000 84.198766 257.000000 84.697722 257.000000 85.195183 257.000000 85.693641 257.000000 86.192597 257.000000 86.691055 257.000000 87.189014 257.000000 87.687971 257.000000 88.186428 257.000000 88.684886 257.000000 89.183344 257.000000 89.682300 257.000000 90.180758 257.000000 90.678717 257.000000 91.177674 257.000000 91.676131 257.000000 92.174091 257.000000 92.672549 257.000000 93.171505 257.000000 93.669464 257.000000 94.168421 257.000000 94.666380 257.000000 95.165336 257.000000 95.663794 257.000000 96.161753 257.000000 96.660211 257.000000 97.158669 257.000000 97.657127 257.000000 98.155584 257.000000 98.654042 257.000000 99.152500 257.000000 99.651456 257.000000 100.149416 257.000000 100.647874 257.000000 101.146331 257.000000 101.644789 257.000000 102.143247 257.000000 102.641705 257.000000 103.140163 257.000000 103.638620 257.000000 104.137078 257.000000 104.635536 257.000000 105.133994 257.000000 105.632452 257.000000 106.131408 257.000000 106.629367 257.000000 107.127825 257.000000 107.625784 257.000000 108.125239 257.000000 108.623198 257.000000 109.122155 257.000000 109.620114 257.000000 110.119070 257.000000 110.617030 257.000000 111.115986 257.000000 111.614942 257.000000 112.112902 257.000000 112.611359 257.000000 113.109319 257.000000 113.608275 257.000000 114.106234 257.000000 114.604692 257.000000 115.103150 257.000000 115.601608 257.000000 116.100066 257.000000 116.599022 257.000000 117.096981 257.000000 117.595937 257.000000 118.093897 257.000000 118.592853 257.000000 119.090812 257.000000 119.589769 257.000000 120.087728 257.000000 120.586186 257.000000 121.085142 257.000000 121.583600 257.000000 122.081559 257.000000 122.583506 257.000000 123.078475 257.000000 123.577431 257.000000 124.075889 257.000000 124.574347 257.000000 125.072306 257.000000 125.570764 257.000000 126.069720 257.000000 126.568178 257.000000 127.066636 257.000000 127.565094 257.000000 128.063551 257.000000 128.564501 257.000000 129.060467 257.000000 129.558426 257.000000 130.056884 257.000000 130.555840 257.000000 131.053800 257.000000 131.552257 257.000000 132.051214 257.000000 132.549173 257.000000 133.047631 257.000000 133.546587 257.000000 134.045045 257.000000 134.543004 257.000000 135.041462 257.000000 135.539920 257.000000 136.038876 257.000000 136.536836 257.000000 137.035792 257.000000 137.533751 257.000000 138.032707 257.000000 138.531165 257.000000 139.029623 257.000000 139.528081 257.000000 140.026040 257.000000 140.524996 257.000000 141.022956 257.000000 141.522411 257.000000 142.020370 257.000000 142.518828 257.000000 143.017285 257.000000 143.515245 257.000000 144.014201 257.000000 144.512160 257.000000 145.011117 257.000000 145.509575 257.000000 146.008032 257.000000 146.506490 257.000000 147.004948 257.000000 147.502907 257.000000 148.001864 257.000000 148.499823 257.000000 148.998281 257.000000 149.497237 257.000000 149.995695 257.000000 150.494153 257.000000 150.992112 257.000000 151.491068 257.000000 151.989526 257.000000 152.487984 257.000000 152.985943 257.000000 153.484899 257.000000 153.983357 257.000000 154.481815 257.000000 154.979774 257.000000 155.478731 257.000000 155.977188 257.000000 156.475646 257.000000 156.974104 257.000000 157.472562 257.000000 157.971020 257.000000 158.468481 257.000000 158.967935 257.000000 159.465895 257.000000 159.964851 257.000000 160.462810 257.000000 160.961268 257.000000 161.460224 257.000000 161.958184 257.000000 162.457140 257.000000 162.955099 257.000000 163.453557 257.000000 163.952015 257.000000 164.450971 257.000000 164.949429 257.000000 165.447388 257.000000 165.945846 257.000000 166.444304 257.000000 166.943260 257.000000 167.441718 257.000000 167.939677 257.000000 168.437637 257.000000 168.936593 257.000000 169.435051 257.000000 169.933509 257.000000 170.432465 257.000000 170.930923 257.000000 171.429380 257.000000 171.927340 257.000000 172.425798 257.000000 172.924754 257.000000 173.423212 257.000000 173.921171 257.000000 174.420127 257.000000 174.918585 257.000000 175.417043 257.000000 175.915002 257.000000 176.413958 257.000000 176.912416 257.000000 177.410376 257.000000 177.909332 257.000000 178.407790 257.000000 178.905749 257.000000 179.404705 257.000000 179.903163 257.000000 180.401122 257.000000 180.902571 257.000000 181.398537 257.000000 181.896496 257.000000 182.395452 257.000000 182.893910 257.000000 183.392368 257.000000 183.890826 257.000000 184.389283 257.000000 184.887741 257.000000 185.386199 257.000000 185.884657 257.000000 186.383115 257.000000 186.881074 257.000000 187.380030 257.000000 187.878488 257.000000 188.376946 257.000000 188.875404 257.000000 189.373861 257.000000 189.871821 257.000000 190.370777 257.000000 190.869235 257.000000 191.367194 257.000000 191.865652 257.000000 192.368596 257.000000 192.862568 257.000000 193.361025 257.000000 193.859982 257.000000 194.358440 257.000000 194.856399 257.000000 195.354857 257.000000 195.853813 257.000000 196.351772 257.000000 196.850729 257.000000 197.348688 257.000000 197.847644 257.000000 198.346102 257.000000 198.844061 257.000000 199.343018 257.000000 199.841475 257.000000 200.339933 257.000000 200.838391 257.000000 201.336849 257.000000 201.834808 257.000000 202.333764 257.000000 202.832222 257.000000 203.330182 257.000000 203.829138 257.000000 204.327097 257.000000 204.826053 257.000000 205.324511 257.000000 205.822969 257.000000 206.321427 257.000000 206.819386 257.000000 207.318342 257.000000 207.816800 257.000000 208.314760 257.000000 208.813716 257.000000 209.312174 257.000000 209.810133 257.000000 210.309089 257.000000 210.807049 257.000000 211.306005 257.000000 211.804463 257.000000 212.302422 257.000000 212.801378 257.000000 213.299836 257.000000 213.798294 257.000000 214.296752 257.000000 214.795210 257.000000 215.293667 257.000000 215.792125 257.000000 216.290583 257.000000 216.789041 257.000000 217.287499 257.000000 217.785956 257.000000 218.284414 257.000000 218.782872 257.000000 219.281330 257.000000 219.782280 257.000000 220.278245 257.000000 220.776703 257.000000 221.275161 257.000000 221.773619 257.000000 222.272077 257.000000 222.770036 257.000000 223.268992 257.000000 223.767450 257.000000 224.265908 257.000000 224.763867 257.000000 225.262823 257.000000 225.761281 257.000000 226.259241 257.000000 226.757698 257.000000 227.256156 257.000000 227.755113 257.000000 228.253570 257.000000 228.751530 257.000000 229.249987 257.000000 229.748445 257.000000 230.247402 257.000000 230.745361 257.000000 231.244317 257.000000 231.742276 257.000000 232.241233 257.000000 232.739192 257.000000 233.238148 257.000000 233.736606 257.000000 234.235064 257.000000 234.733023 257.000000 235.231980 257.000000 235.730437 257.000000 236.228895 257.000000 236.727353 257.000000 237.225811 257.000000 237.724269 257.000000 238.222726 257.000000 238.721184 257.000000 239.219144 257.000000 239.718100 257.000000 240.216558 257.000000 240.715015 257.000000 241.212975 257.000000 241.711931 257.000000 242.209890 257.000000 242.708348 257.000000 243.206806 257.000000 243.705762 257.000000 244.204220 257.000000 244.702179 257.000000 245.200637 257.000000 245.699594 257.000000 246.198051 257.000000 246.696509 257.000000 247.194967 257.000000 247.692926 257.000000 248.191883 257.000000 248.690340 257.000000 249.188798 257.000000 249.687256 257.000000 250.185714 257.000000 250.684172 257.000000 251.182629 257.000000 251.681087 257.000000 252.179545 257.000000 252.678003 257.000000 253.176461 257.000000 253.674918 257.000000 254.176865 257.000000 254.671834 257.000000 255.170292 257.000000 255.668251 257.000000 256.167207 257.000000 256.665167 257.000000 257.164123 257.000000 257.662082 257.000000 258.161039 257.000000 258.658998 257.000000 259.157456 257.000000 259.656412 257.000000 260.154371 257.000000 260.652829 257.000000 261.151786 257.000000 261.650243 257.000000 262.148203 257.000000 262.647159 257.000000 263.145118 257.000000 263.644075 257.000000 264.142034 257.000000 264.640990 257.000000 265.139448 257.000000 265.637407 257.000000 266.136364 257.000000 266.634323 257.000000 267.133279 257.000000 267.631737 257.000000 268.130195 257.000000 268.628653 257.000000 269.127110 257.000000 269.625568 257.000000 270.124026 257.000000 270.621985 257.000000 271.120942 257.000000 271.619399 257.000000 272.117857 257.000000 272.616315 257.000000 273.114773 257.000000 273.612732 257.000000 274.111688 257.000000 274.609648 257.000000 275.108604 257.000000 275.606563 257.000000 276.105021 257.000000 276.603479 257.000000 277.102435 257.000000 277.599896 257.000000 278.099351 257.000000 278.597809 257.000000 279.095270 257.000000 279.594724 257.000000 280.093182 257.000000 280.591640 257.000000 281.089599 257.000000 281.588556 257.000000 282.087013 257.000000 282.585471 257.000000 283.083929 257.000000 283.581888 257.000000 284.080845 257.000000 284.578804 257.000000 285.077760 257.000000 285.576218 257.000000 286.074676 257.000000 286.573134 257.000000 287.071591 257.000000 287.570049 257.000000 288.068507 257.000000 288.566965 257.000000 289.065423 257.000000 289.563880 257.000000 290.062338 257.000000 290.560796 257.000000 291.058755 257.000000 291.557712 257.000000 292.056169 257.000000 292.554129 257.000000 293.053085 257.000000 293.551044 257.000000 294.050001 257.000000 294.547960 257.000000 295.046916 257.000000 295.544876 257.000000 296.043832 257.000000 296.541791 257.000000 297.040748 257.000000 297.538707 257.000000 298.037165 257.000000 298.536121 257.000000 299.034579 257.000000 299.533037 257.000000 300.031494 257.000000 300.529952 257.000000 301.027912 257.000000 301.526868 257.000000 302.025326 257.000000 302.523783 257.000000 303.022241 257.000000 303.520201 257.000000 304.019157 257.000000 304.517615 257.000000 305.015574 257.000000 305.514530 257.000000 306.012988 257.000000 306.510947 257.000000 307.009904 257.000000 307.508361 257.000000 308.006819 257.000000 308.504779 257.000000 309.003735 257.000000 309.502193 257.000000 310.000152 257.000000 310.498610 257.000000 310.997566 257.000000 311.500012 257.000000 311.994482 257.000000 312.492441 257.000000 312.991397 257.000000 313.489855 257.000000 313.988313 257.000000 314.486771 257.000000 314.985229 257.000000 315.483686 257.000000 315.982144 257.000000 316.480602 257.000000 316.978561 257.000000 317.477518 257.000000 317.975975 257.000000 318.474433 257.000000 318.972891 257.000000 319.470850 257.000000 319.969807 257.000000 320.467766 257.000000 320.966224 257.000000 321.465180 257.000000 321.963638 257.000000 322.461597 257.000000 322.960055 257.000000 323.459011 257.000000 323.957469 257.000000 324.455428 257.000000 324.954385 257.000000 325.452842 257.000000 325.950802 257.000000 326.449758 257.000000 326.947717 257.000000 327.446674 257.000000 327.944633 257.000000 328.443091 257.000000 328.941549 257.000000 329.440505 257.000000 329.938464 257.000000 330.436922 257.000000 330.935878 257.000000 331.434336 257.000000 331.932295 257.000000 332.430753 257.000000 332.929710 257.000000 333.428167 257.000000 333.927124 257.000000 334.424585 257.000000 334.923042 257.000000 335.421999 257.000000 335.920456 257.000000 336.418914 257.000000 336.917372 257.000000 337.415830 257.000000 337.914288 257.000000 338.412247 257.000000 338.912699 257.000000 339.409661 257.000000 339.907620 257.000000 340.406577 257.000000 340.904536 257.000000 341.403492 257.000000 341.901452 257.000000 342.400408 257.000000 342.898866 257.000000 343.397323 257.000000 343.895781 257.000000 344.393741 257.000000 344.892198 257.000000 345.391155 257.000000 345.889114 257.000000 346.387572 257.000000 346.886030 257.000000 347.384986 257.000000 347.883444 257.000000 348.381902 257.000000 348.880858 257.000000 349.378817 257.000000 349.876777 257.000000 350.375733 257.000000 350.874191 257.000000 351.372648 257.000000 351.871106 257.000000 352.369564 257.000000 352.868022 257.000000 353.366480 257.000000 353.864937 257.000000 354.363395 257.000000 354.861853 257.000000 355.359812 257.000000 355.858769 257.000000 356.357226 257.000000 356.855186 257.000000 357.354142 257.000000 357.852600 257.000000 358.351058 257.000000 358.849017 257.000000 359.347973 257.000000 359.846431 257.000000 360.344390 257.000000 360.842848 257.000000 361.341805 257.000000 361.840262 257.000000 362.338222 257.000000 362.837178 257.000000 363.335636 257.000000 363.834094 257.000000 364.332551 257.000000 364.831009 257.000000 365.329467 257.000000 365.827925 257.000000 366.326383 257.000000 366.824840 257.000000 367.323298 257.000000 367.821756 257.000000 368.319715 257.000000 368.818672 257.000000 369.317129 257.000000 369.815587 257.000000 370.313547 257.000000 370.812503 257.000000 371.310961 257.000000 371.808920 257.000000 372.307876 257.000000 372.805836 257.000000 373.304792 257.000000 373.803250 257.000000 374.301707 257.000000 374.799667 257.000000 375.298623 257.000000 375.797081 257.000000 376.295040 257.000000 376.793996 257.000000 377.292454 257.000000 377.790912 257.000000 378.289370 257.000000 378.787828 257.000000 379.286286 257.000000 379.784245 257.000000 380.283201 257.000000 380.781160 257.000000 381.280117 257.000000 381.778076 257.000000 382.276534 257.000000 382.775490 257.000000 383.273948 257.000000 383.771907 257.000000 384.270864 257.000000 384.768823 257.000000 385.267779 257.000000 385.766237 257.000000 386.264196 257.000000 386.763153 257.000000 387.261112 257.000000 387.760068 257.000000 388.258526 257.000000 388.756984 257.000000 389.254943 257.000000 389.753899 257.000000 390.252357 257.000000 390.750815 257.000000 391.249273 257.000000 391.747731 257.000000 392.246188 257.000000 392.744646 257.000000 393.243104 257.000000 393.741562 257.000000 394.240020 257.000000 394.737979 257.000000 395.236935 257.000000 395.734895 257.000000 396.233851 257.000000 396.732309 257.000000 397.230767 257.000000 397.728726 257.000000 398.227682 257.000000 398.726140 257.000000 399.224598 257.000000 399.722557 257.000000 400.221513 257.000000 400.719473 257.000000 401.217931 257.000000 401.716887 257.000000 402.215345 257.000000 402.713304 257.000000 403.212260 257.000000 403.710718 257.000000 404.209176 257.000000 404.707634 257.000000 405.206091 257.000000 405.704549 257.000000 406.203007 257.000000 406.701465 257.000000 407.199424 257.000000 407.698380 257.000000 408.196340 257.000000 408.695296 257.000000 409.193255 257.000000 409.692212 257.000000 410.190669 257.000000 410.689127 257.000000 411.187585 257.000000 411.685544 257.000000 412.184501 257.000000 412.682959 257.000000 413.180918 257.000000 413.680373 257.000000 414.178332 257.000000 414.676790 257.000000 415.174749 257.000000 415.673705 257.000000 416.172163 257.000000 416.670621 257.000000 417.168580 257.000000 417.667537 257.000000 418.165994 257.000000 418.663954 257.000000 419.162910 257.000000 419.661368 257.000000 420.159826 257.000000 420.658283 257.000000 421.156741 257.000000 421.655199 257.000000 422.153158 257.000000 422.652115 257.000000 423.150572 257.000000 423.648532 257.000000 424.147488 257.000000 424.645946 257.000000 425.144404 257.000000 425.642363 257.000000 426.141319 257.000000 426.639777 257.000000 427.138235 257.000000 427.636693 257.000000 428.134652 257.000000 428.633608 257.000000 429.132066 257.000000 429.630524 257.000000 430.128483 257.000000 430.627440 257.000000 431.125897 257.000000 431.623857 257.000000 432.122813 257.000000 432.621271 257.000000 433.119729 257.000000 433.617688 257.000000 434.116146 257.000000 434.615102 257.000000 435.113560 257.000000 435.612018 257.000000 436.110475 257.000000 436.608933 257.000000 437.107391 257.000000 437.605849 257.000000 438.104307 257.000000 438.602764 257.000000 439.101222 257.000000 439.599182 257.000000 440.098138 257.000000 440.596097 257.000000 441.095053 257.000000 441.593511 257.000000 442.091471 257.000000 442.589928 257.000000 443.088386 257.000000 443.587342 257.000000 444.085800 257.000000 444.583760 257.000000 445.082716 257.000000 445.581174 257.000000 446.079133 257.000000 446.578089 257.000000 447.076547 257.000000 447.575005 257.000000 448.073463 257.000000 448.571921 257.000000 449.070378 257.000000 449.568836 257.000000 450.067294 257.000000 450.565752 257.000000 451.064210 257.000000 451.562667 257.000000 452.061125 257.000000 452.559583 257.000000 453.058041 257.000000 453.556499 257.000000 454.054956 257.000000 454.552916 257.000000 455.051872 257.000000 455.549831 257.000000 456.048788 257.000000 456.546747 257.000000 457.045703 257.000000 457.544161 257.000000 458.042120 257.000000 458.541575 257.000000 459.039036 257.000000 459.537992 257.000000 460.036450 257.000000 460.534908 257.000000 461.033366 257.000000 461.531823 257.000000 462.030281 257.000000 462.528241 257.000000 463.027197 257.000000 463.525655 257.000000 464.023614 257.000000 464.522570 257.000000 465.021028 257.000000 465.518987 257.000000 466.017944 257.000000 466.516402 257.000000 467.014859 257.000000 467.513317 257.000000 468.011775 257.000000 468.510233 257.000000 469.008192 257.000000 469.507148 257.000000 470.008098 257.000000 470.504064 257.000000 471.002522 257.000000 471.500980 257.000000 471.999437 257.000000 472.498892 257.000000 472.996353 257.000000 473.494811 257.000000 473.993269 257.000000 474.491726 257.000000 474.990184 257.000000 475.488642 257.000000 475.987100 257.000000 476.485059 257.000000 476.984015 257.000000 477.482473 257.000000 477.980931 257.000000 478.479389 257.000000 478.977348 257.000000 479.476305 257.000000 479.974762 257.000000 480.473220 257.000000 480.971179 257.000000 481.470136 257.000000 481.968095 257.000000 482.467051 257.000000 482.965509 257.000000 483.463469 257.000000 483.961926 257.000000 484.461381 257.000000 484.958842 257.000000 485.457798 257.000000 485.956256 257.000000 486.457206 257.000000 486.953172 257.000000 487.451629 257.000000 487.950087 257.000000 488.448545 257.000000 488.947003 257.000000 489.445461 257.000000 489.943918 257.000000 490.442376 257.000000 490.940834 257.000000 491.439292 257.000000 491.937251 257.000000 492.436207 257.000000 492.934665 257.000000 493.435117 257.000000 493.931581 257.000000 494.430039 257.000000 494.927998 257.000000 495.426954 257.000000 495.924914 257.000000 496.423870 257.000000 496.922328 257.000000 497.420786 257.000000 497.919243 257.000000 498.417701 257.000000 498.916159 257.000000 499.414118 257.000000 499.913075 257.000000 500.411532 257.000000 500.909990 257.000000 501.408448 257.000000 501.906906 257.000000 502.405364 257.000000 502.903821 257.000000 503.402279 257.000000 503.900737 257.000000 504.399195 257.000000 504.897653 257.000000 505.396110 257.000000 505.894070 257.000000 506.393026 257.000000 506.891484 257.000000 507.389443 257.000000 507.888399 257.000000 508.386359 257.000000 508.883820 257.000000 509.382277 257.000000 509.880735 257.000000 510.379193 257.000000 510.877651 257.000000 511.376109 257.000000 511.874567 257.000000 512.373024 257.000000 512.871482 257.000000 513.369940 257.000000 513.868398 257.000000 514.366856 257.000000 514.865313 257.000000 515.363771 257.000000 515.862229 257.000000 516.360687 257.000000 516.859145 257.000000 517.357602 257.000000 517.856060 257.000000 518.354518 257.000000 518.852976 257.000000 519.351434 257.000000 519.849891 257.000000 520.348349 257.000000 520.846807 257.000000 521.345265 257.000000 521.843723 257.000000 522.342180 257.000000 522.840638 257.000000 523.339096 257.000000 523.837554 257.000000 524.336012 257.000000 524.834469 257.000000 525.332927 257.000000 525.831385 257.000000 526.329843 257.000000 526.828301 257.000000 527.326759 257.000000 527.825216 257.000000 528.323674 257.000000 528.822132 257.000000 529.320590 257.000000 529.819048 257.000000 530.317505 257.000000 530.815963 257.000000 531.314421 257.000000 531.812879 257.000000 532.316321 257.000000 532.809794 257.000000 533.308252 257.000000 533.806710 257.000000 534.305168 257.000000 534.803626 257.000000 535.302083 257.000000 535.800541 257.000000 536.298999 257.000000 536.797457 257.000000 537.295915 257.000000 537.794372 257.000000 538.292830 257.000000 538.791288 257.000000 539.289746 257.000000 539.788204 257.000000 540.286661 257.000000 540.785119 257.000000 541.283577 257.000000 541.782035 257.000000 542.280493 257.000000 542.778950 257.000000 543.277408 257.000000 543.775866 257.000000 544.274324 257.000000 544.772782 257.000000 545.271240 257.000000 545.769697 257.000000 546.268155 257.000000 546.766613 257.000000 547.265071 257.000000 547.763529 257.000000 548.261986 257.000000 548.760444 257.000000 549.258902 257.000000 549.757360 257.000000 550.255818 257.000000 550.754275 257.000000 551.252733 257.000000 551.751191 257.000000 552.249649 257.000000 552.748107 257.000000 553.246564 257.000000 553.745022 257.000000 554.243480 257.000000 554.741938 257.000000 555.240396 257.000000 555.738853 257.000000 556.237311 257.000000 556.735769 257.000000 557.234227 257.000000 557.732685 257.000000 558.231142 257.000000 558.729600 257.000000 559.228058 257.000000 559.726516 257.000000 560.224974 257.000000 560.723432 257.000000 561.221889 257.000000 561.720347 257.000000 562.218805 257.000000 562.717263 257.000000 563.215721 257.000000 563.714178 257.000000 564.212636 257.000000 564.711094 257.000000 565.209552 257.000000 565.708010 257.000000 566.206467 257.000000 566.704925 257.000000 567.203383 257.000000 567.701841 257.000000 568.200299 257.000000 568.698756 257.000000 569.197214 257.000000 569.695672 257.000000 570.194130 257.000000 570.692588 257.000000 571.196030 257.000000 571.689503 257.000000 572.187961 257.000000 572.686419 257.000000 573.184877 257.000000 573.683334 257.000000 574.181792 257.000000 574.680250 257.000000 575.178708 257.000000 575.677166 257.000000 576.175623 257.000000 576.674081 257.000000 577.172539 257.000000 577.670997 257.000000 578.169455 257.000000 578.667913 257.000000 579.171355 257.000000 579.664828 257.000000 580.163286 257.000000 580.661744 257.000000 581.160202 257.000000 581.658659 257.000000 582.157117 257.000000 582.655575 257.000000 583.154033 257.000000 583.652491 257.000000 584.150948 257.000000 584.649406 257.000000 585.147864 257.000000 585.646322 257.000000 586.144780 257.000000 586.643237 257.000000 587.141695 257.000000 587.640153 257.000000 588.138611 257.000000 588.637069 257.000000 589.135526 257.000000 589.633984 257.000000 590.132442 257.000000 590.630900 257.000000 591.129358 257.000000 591.627815 257.000000 592.126273 257.000000 592.624731 257.000000 593.123189 257.000000 593.621647 257.000000 594.120105 257.000000 594.618562 257.000000 595.117020 257.000000 595.615478 257.000000 596.113936 257.000000 596.612394 257.000000 597.110851 257.000000 597.609309 257.000000 598.107767 257.000000 598.606225 257.000000 599.104683 257.000000 599.608125 257.000000 600.101598 257.000000 600.600056 257.000000 601.098514 257.000000 601.596972 257.000000 602.095429 257.000000 602.593887 257.000000 603.092345 257.000000 603.590803 257.000000 604.089261 257.000000 604.587718 257.000000 605.086176 257.000000 605.584634 257.000000 606.083092 257.000000 606.581550 257.000000 607.080007 257.000000 607.578465 257.000000 608.076923 257.000000" /></g></g><g class="titles"><text class="title" x="470.0" y="580">tcp_500kbps</text></g><g class="plot overlay" transform="translate(160, 20)"><g class="series serie-0 color-0" /><g class="series serie-1 color-1" /><g class="series serie-2 color-2" /></g><g class="plot text-overlay" transform="translate(160, 20)"><g class="series serie-0 color-0" /><g class="series serie-1 color-1" /><g class="series serie-2 color-2" /></g><g class="plot tooltip-overlay" transform="translate(160, 20)"><g class="tooltip" style="opacity: 0" transform="translate(0 0)"><rect class="tooltip-box" height="0" rx="0" ry="0" width="0" /><g class="text" /></g></g><g class="legends" transform="translate(10, 30)"><g class="legend reactive activate-serie" id="activate-serie-0"><rect class="color-0 reactive" height="12" width="12" x="0.0" y="1.0" /><text x="17.0" y="11.2">qdelay</text></g><g class="legend reactive activate-serie" id="activate-serie-1"><rect class="color-1 reactive" height="12" width="12" x="0.0" y="22.0" /><text x="17.0" y="32.2">txed(kbps)</text></g><g class="legend reactive activate-serie" id="activate-serie-2"><rect class="color-2 reactive" height="12" width="12" x="0.0" y="43.0" /><text x="17.0" y="53.2">topo(kbps)</text></g></g><g class="legends" transform="translate(790, 30)" /></g></svg>