<?xml version='1.0' encoding='utf-8'?>
<svg xmlns:xlink="http://www.w3.org/1999/xlink" class="pygal-chart" id="chart-6c875863-a5ab-4fd5-98b7-ecb81e757d25" viewBox="0 0 800 600" xmlns="http://www.w3.org/2000/svg"><!--Generated with pygal 2.4.0 (etree) ©Kozea 2012-2016 on 2019-01-14--><!--http://pygal.org--><!--http://github.com/Kozea/pygal--><defs><style type="text/css">#chart-6c875863-a5ab-4fd5-98b7-ecb81e757d25{-webkit-user-select:none;-webkit-font-smoothing:antialiased;font-family:Consolas,"Liberation Mono",Menlo,Courier,monospace}#chart-6c875863-a5ab-4fd5-98b7-ecb81e757d25 .title{font-family:Consolas,"Liberation Mono",Menlo,Courier,monospace;font-size:16px}#chart-6c875863-a5ab-4fd5-98b7-ecb81e757d25 .legends .legend text{font-family:Consolas,"Liberation Mono",Menlo,Courier,monospace;font-size:14px}#chart-6c875863-a5ab-4fd5-98b7-ecb81e757d25 .axis text{font-family:Consolas,"Liberation Mono",Menlo,Courier,monospace;font-size:10px}#chart-6c875863-a5ab-4fd5-98b7-ecb81e757d25 .axis text.major{font-family:Consolas,"Liberation Mono",Menlo,Courier,monospace;font-size:10px}#chart-6c875863-a5ab-4fd5-98b7-ecb81e757d25 .text-overlay text.value{font-family:Consolas,"Liberation Mono",Menlo,Courier,monospace;font-size:16px}#chart-6c875863-a5ab-4fd5-98b7-ecb81e757d25 .text-overlay text.label{font-family:Consolas,"Liberation Mono",Menlo,Courier,monospace;font-size:10px}#chart-6c875863-a5ab-4fd5-98b7-ecb81e757d25 .tooltip{font-family:Consolas,"Liberation Mono",Menlo,Courier,monospace;font-size:14px}#chart-6c875863-a5ab-4fd5-98b7-ecb81e757d25 text.no_data{font-family:Consolas,"Liberation Mono",Menlo,Courier,monospace;font-size:64px}
#chart-6c875863-a5ab-4fd5-98b7-ecb81e757d25{background-color:transparent}#chart-6c875863-a5ab-4fd5-98b7-ecb81e757d25 path,#chart-6c875863-a5ab-4fd5-98b7-ecb81e757d25 line,#chart-6c875863-a5ab-4fd5-98b7-ecb81e757d25 rect,#chart-6c875863-a5ab-4fd5-98b7-ecb81e757d25 circle{-webkit-transition:100ms ease-in;-moz-transition:100ms ease-in;transition:100ms ease-in}#chart-6c875863-a5ab-4fd5-98b7-ecb81e757d25 .graph &gt; .background{fill:transparent}#chart-6c875863-a5ab-4fd5-98b7-ecb81e757d25 .plot &gt; .background{fill:transparent}#chart-6c875863-a5ab-4fd5-98b7-ecb81e757d25 .graph{fill:#000000}#chart-6c875863-a5ab-4fd5-98b7-ecb81e757d25 text.no_data{fill:#000000}#chart-6c875863-a5ab-4fd5-98b7-ecb81e757d25 .title{fill:#000000}#chart-6c875863-a5ab-4fd5-98b7-ecb81e757d25 .legends .legend text{fill:#000000}#chart-6c875863-a5ab-4fd5-98b7-ecb81e757d25 .legends .legend:hover text{fill:#000000}#chart-6c875863-a5ab-4fd5-98b7-ecb81e757d25 .axis .line{stroke:#000000}#chart-6c875863-a5ab-4fd5-98b7-ecb81e757d25 .axis .guide.line{stroke:#006400d}#chart-6c875863-a5ab-4fd5-98b7-ecb81e757d25 .axis .major.line{stroke:#000000}#chart-6c875863-a5ab-4fd5-98b7-ecb81e757d25 .axis text.major{fill:#000000}#chart-6c875863-a5ab-4fd5-98b7-ecb81e757d25 .axis.y .guides:hover .guide.line,#chart-6c875863-a5ab-4fd5-98b7-ecb81e757d25 .line-graph .axis.x .guides:hover .guide.line,#chart-6c875863-a5ab-4fd5-98b7-ecb81e757d25 .stackedline-graph .axis.x .guides:hover .guide.line,#chart-6c875863-a5ab-4fd5-98b7-ecb81e757d25 .xy-graph .axis.x .guides:hover .guide.line{stroke:#000000}#chart-6c875863-a5ab-4fd5-98b7-ecb81e757d25 .axis .guides:hover text{fill:#000000}#chart-6c875863-a5ab-4fd5-98b7-ecb81e757d25 .reactive{fill-opacity:.6;stroke-opacity:.8}#chart-6c875863-a5ab-4fd5-98b7-ecb81e757d25 .ci{stroke:#000000}#chart-6c875863-a5ab-4fd5-98b7-ecb81e757d25 .reactive.active,#chart-6c875863-a5ab-4fd5-98b7-ecb81e757d25 .active .reactive{fill-opacity:.9;stroke-opacity:.9;stroke-width:4}#chart-6c875863-a5ab-4fd5-98b7-ecb81e757d25 .ci .reactive.active{stroke-width:1.5}#chart-6c875863-a5ab-4fd5-98b7-ecb81e757d25 .series text{fill:#000000}#chart-6c875863-a5ab-4fd5-98b7-ecb81e757d25 .tooltip rect{fill:transparent;stroke:#000000;-webkit-transition:opacity 100ms ease-in;-moz-transition:opacity 100ms ease-in;transition:opacity 100ms ease-in}#chart-6c875863-a5ab-4fd5-98b7-ecb81e757d25 .tooltip .label{fill:#000000}#chart-6c875863-a5ab-4fd5-98b7-ecb81e757d25 .tooltip .label{fill:#000000}#chart-6c875863-a5ab-4fd5-98b7-ecb81e757d25 .tooltip .legend{font-size:.8em;fill:#006400d}#chart-6c875863-a5ab-4fd5-98b7-ecb81e757d25 .tooltip .x_label{font-size:.6em;fill:#000000}#chart-6c875863-a5ab-4fd5-98b7-ecb81e757d25 .tooltip .xlink{font-size:.5em;text-decoration:underline}#chart-6c875863-a5ab-4fd5-98b7-ecb81e757d25 .tooltip .value{font-size:1.5em}#chart-6c875863-a5ab-4fd5-98b7-ecb81e757d25 .bound{font-size:.5em}#chart-6c875863-a5ab-4fd5-98b7-ecb81e757d25 .max-value{font-size:.75em;fill:#006400d}#chart-6c875863-a5ab-4fd5-98b7-ecb81e757d25 .map-element{fill:transparent;stroke:#006400d !important}#chart-6c875863-a5ab-4fd5-98b7-ecb81e757d25 .map-element .reactive{fill-opacity:inherit;stroke-opacity:inherit}#chart-6c875863-a5ab-4fd5-98b7-ecb81e757d25 .color-0,#chart-6c875863-a5ab-4fd5-98b7-ecb81e757d25 .color-0 a:visited{stroke:#006400;fill:#006400}#chart-6c875863-a5ab-4fd5-98b7-ecb81e757d25 .color-1,#chart-6c875863-a5ab-4fd5-98b7-ecb81e757d25 .color-1 a:visited{stroke:#0022AA;fill:#0022AA}#chart-6c875863-a5ab-4fd5-98b7-ecb81e757d25 .color-2,#chart-6c875863-a5ab-4fd5-98b7-ecb81e757d25 .color-2 a:visited{stroke:#FF1111;fill:#FF1111}#chart-6c875863-a5ab-4fd5-98b7-ecb81e757d25 .text-overlay .color-0 text{fill:black}#chart-6c875863-a5ab-4fd5-98b7-ecb81e757d25 .text-overlay .color-1 text{fill:black}#chart-6c875863-a5ab-4fd5-98b7-ecb81e757d25 .text-overlay .color-2 text{fill:black}
#chart-6c875863-a5ab-4fd5-98b7-ecb81e757d25 text.no_data{text-anchor:middle}#chart-6c875863-a5ab-4fd5-98b7-ecb81e757d25 .guide.line{fill:none}#chart-6c875863-a5ab-4fd5-98b7-ecb81e757d25 .centered{text-anchor:middle}#chart-6c875863-a5ab-4fd5-98b7-ecb81e757d25 .title{text-anchor:middle}#chart-6c875863-a5ab-4fd5-98b7-ecb81e757d25 .legends .legend text{fill-opacity:1}#chart-6c875863-a5ab-4fd5-98b7-ecb81e757d25 .axis.x text{text-anchor:middle}#chart-6c875863-a5ab-4fd5-98b7-ecb81e757d25 .axis.x:not(.web) text[transform]{text-anchor:start}#chart-6c875863-a5ab-4fd5-98b7-ecb81e757d25 .axis.x:not(.web) text[transform].backwards{text-anchor:end}#chart-6c875863-a5ab-4fd5-98b7-ecb81e757d25 .axis.y text{text-anchor:end}#chart-6c875863-a5ab-4fd5-98b7-ecb81e757d25 .axis.y text[transform].backwards{text-anchor:start}#chart-6c875863-a5ab-4fd5-98b7-ecb81e757d25 .axis.y2 text{text-anchor:start}#chart-6c875863-a5ab-4fd5-98b7-ecb81e757d25 .axis.y2 text[transform].backwards{text-anchor:end}#chart-6c875863-a5ab-4fd5-98b7-ecb81e757d25 .axis .guide.line{stroke-dasharray:4,4}#chart-6c875863-a5ab-4fd5-98b7-ecb81e757d25 .axis .major.guide.line{stroke-dasharray:6,6}#chart-6c875863-a5ab-4fd5-98b7-ecb81e757d25 .horizontal .axis.y .guide.line,#chart-6c875863-a5ab-4fd5-98b7-ecb81e757d25 .horizontal .axis.y2 .guide.line,#chart-6c875863-a5ab-4fd5-98b7-ecb81e757d25 .vertical .axis.x .guide.line{opacity:0}#chart-6c875863-a5ab-4fd5-98b7-ecb81e757d25 .horizontal .axis.always_show .guide.line,#chart-6c875863-a5ab-4fd5-98b7-ecb81e757d25 .vertical .axis.always_show .guide.line{opacity:1 !important}#chart-6c875863-a5ab-4fd5-98b7-ecb81e757d25 .axis.y .guides:hover .guide.line,#chart-6c875863-a5ab-4fd5-98b7-ecb81e757d25 .axis.y2 .guides:hover .guide.line,#chart-6c875863-a5ab-4fd5-98b7-ecb81e757d25 .axis.x .guides:hover .guide.line{opacity:1}#chart-6c875863-a5ab-4fd5-98b7-ecb81e757d25 .axis .guides:hover text{opacity:1}#chart-6c875863-a5ab-4fd5-98b7-ecb81e757d25 .nofill{fill:none}#chart-6c875863-a5ab-4fd5-98b7-ecb81e757d25 .subtle-fill{fill-opacity:.2}#chart-6c875863-a5ab-4fd5-98b7-ecb81e757d25 .dot{stroke-width:1px;fill-opacity:1}#chart-6c875863-a5ab-4fd5-98b7-ecb81e757d25 .dot.active{stroke-width:5px}#chart-6c875863-a5ab-4fd5-98b7-ecb81e757d25 .dot.negative{fill:transparent}#chart-6c875863-a5ab-4fd5-98b7-ecb81e757d25 text,#chart-6c875863-a5ab-4fd5-98b7-ecb81e757d25 tspan{stroke:none !important}#chart-6c875863-a5ab-4fd5-98b7-ecb81e757d25 .series text.active{opacity:1}#chart-6c875863-a5ab-4fd5-98b7-ecb81e757d25 .tooltip rect{fill-opacity:.95;stroke-width:.5}#chart-6c875863-a5ab-4fd5-98b7-ecb81e757d25 .tooltip text{fill-opacity:1}#chart-6c875863-a5ab-4fd5-98b7-ecb81e757d25 .showable{visibility:hidden}#chart-6c875863-a5ab-4fd5-98b7-ecb81e757d25 .showable.shown{visibility:visible}#chart-6c875863-a5ab-4fd5-98b7-ecb81e757d25 .gauge-background{fill:rgba(229,229,229,1);stroke:none}#chart-6c875863-a5ab-4fd5-98b7-ecb81e757d25 .bg-lines{stroke:transparent;stroke-width:2px}</style><script type="text/javascript">window.pygal = window.pygal || {};window.pygal.config = window.pygal.config || {};window.pygal.config['6c875863-a5ab-4fd5-98b7-ecb81e757d25'] = {"dynamic_print_values": false, "truncate_label": null, "inner_radius": 0, "print_values": false, "xrange": null, "box_mode": "extremes", "title": null, "legend_at_bottom_columns": null, "height": 600, "legend_at_bottom": false, "show_legend": true, "show_dots": false, "explicit_size": false, "y_labels_major": null, "show_minor_x_labels": true, "width": 800, "force_uri_protocol": "https", "half_pie": false, "style": {"major_label_font_family": "Consolas, \"Liberation Mono\", Menlo, Courier, monospace", "title_font_family": "Consolas, \"Liberation Mono\", Menlo, Courier, monospace", "stroke_opacity": ".8", "legend_font_family": "Consolas, \"Liberation Mono\", Menlo, Courier, monospace", "colors": ["#006400", "#0022AA", "#FF1111", "#FFEBCD", "#DC143C", "#FFFFFF", "#6495ED", "#B0C4DE", "#D2691E", "#8B0000"], "legend_font_size": 14, "no_data_font_family": "Consolas, \"Liberation Mono\", Menlo, Courier, monospace", "major_label_font_size": 10, "value_background": "rgba(229, 229, 229, 1)", "ci_colors": [], "label_font_family": "Consolas, \"Liberation Mono\", Menlo, Courier, monospace", "label_font_size": 10, "tooltip_font_size": 14, "value_font_size": 16, "font_family": "Consolas, \"Liberation Mono\", Menlo, Courier, monospace", "opacity": ".6", "foreground": "#000000", "plot_background": "transparent", "value_label_font_size": 10, "value_label_font_family": "Consolas, \"Liberation Mono\", Menlo, Courier, monospace", "background": "transparent", "no_data_font_size": 64, "value_colors": [], "guide_stroke_dasharray": "4,4", "transition": "100ms ease-in", "foreground_subtle": "#006400d", "value_font_family": "Consolas, \"Liberation Mono\", Menlo, Courier, monospace", "tooltip_font_family": "Consolas, \"Liberation Mono\", Menlo, Courier, monospace", "title_font_size": 16, "stroke_opacity_hover": ".9", "major_guide_stroke_dasharray": "6,6", "opacity_hover": ".9", "foreground_strong": "#000000"}, "x_label_rotation": 0, "fill": false, "missing_value_fill_truncation": "x", "zero": 0, "margin_right": null, "interpolation_parameters": {}, "x_labels_major": null, "rounded_bars": null, "show_y_labels": true, "dots_size": 2.5, "show_y_guides": true, "show_minor_y_labels": true, "x_labels": null, "y_title": null, "order_min": null, "formatter": null, "disable_xml_declaration": false, "strict": false, "css": ["file://style.css", "file://graph.css"], "tooltip_fancy_mode": true, "defs": [], "show_only_major_dots": false, "y_label_rotation": 0, "show_x_labels": true, "min_scale": 4, "show_x_guides": false, "spacing": 10, "x_labels_major_count": null, "pretty_print": false, "tooltip_border_radius": 0, "interpolate": null, "js": ["//kozea.github.io/pygal.js/2.0.x/pygal-tooltips.min.js"], "y_labels": null, "stroke_style": null, "print_labels": false, "interpolation_precision": 250, "x_title": "tcp_300kbps", "y_labels_major_every": null, "logarithmic": false, "legends": ["qdelay", "txed(kbps)", "topo(kbps)"], "max_scale": 16, "print_zeroes": true, "no_data_text": "No data", "truncate_legend": null, "x_labels_major_every": null, "secondary_range": null, "legend_box_size": 12, "no_prefix": false, "stroke": true, "stack_from_top": false, "include_x_axis": false, "range": [0, 600], "classes": ["pygal-chart"], "margin_top": null, "margin_left": null, "y_labels_major_count": null, "margin_bottom": null, "inverse_y_axis": false, "margin": 20, "allow_interruptions": false, "print_values_position": "center"}</script><script type="text/javascript" xlink:href="https://kozea.github.io/pygal.js/2.0.x/pygal-tooltips.min.js" /></defs><title>Pygal</title><g class="graph xy-graph vertical"><rect class="background" height="600" width="800" x="0" y="0" /><g class="plot" transform="translate(154, 20)"><rect class="background" height="514" width="626.0" x="0" y="0" /><g class="axis y always_show"><g class="guides"><path class="axis major line" d="M0.000000 504.115385 h626.000000" /><text class="major" x="-5" y="507.615384615">0</text><title>0</title></g><g class="guides"><path class="guide line" d="M0.000000 421.743590 h626.000000" /><text class="" x="-5" y="425.243589744">100</text><title>100</title></g><g class="guides"><path class="guide line" d="M0.000000 339.371795 h626.000000" /><text class="" x="-5" y="342.871794872">200</text><title>200</title></g><g class="guides"><path class="guide line" d="M0.000000 257.000000 h626.000000" /><text class="" x="-5" y="260.5">300</text><title>300</title></g><g class="guides"><path class="guide line" d="M0.000000 174.628205 h626.000000" /><text class="" x="-5" y="178.128205128">400</text><title>400</title></g><g class="guides"><path class="major guide line" d="M0.000000 92.256410 h626.000000" /><text class="major" x="-5" y="95.7564102564">500</text><title>500</title></g><g class="guides"><path class="guide line" d="M0.000000 9.884615 h626.000000" /><text class="" x="-5" y="13.3846153846">600</text><title>600</title></g></g><g class="axis x"><path class="line" d="M0.000000 0.000000 v514.000000" /><g class="guides"><path class="guide line" d="M60.745680 0.000000 v514.000000" /><text class="" x="60.7456799703" y="529.0">10</text><title>10</title></g><g class="guides"><path class="guide line" d="M111.073718 0.000000 v514.000000" /><text class="" x="111.073717896" y="529.0">20</text><title>20</title></g><g class="guides"><path class="guide line" d="M161.401756 0.000000 v514.000000" /><text class="" x="161.401755823" y="529.0">30</text><title>30</title></g><g class="guides"><path class="guide line" d="M211.729794 0.000000 v514.000000" /><text class="" x="211.729793749" y="529.0">40</text><title>40</title></g><g class="guides"><path class="guide line" d="M262.057832 0.000000 v514.000000" /><text class="" x="262.057831675" y="529.0">50</text><title>50</title></g><g class="guides"><path class="guide line" d="M312.385870 0.000000 v514.000000" /><text class="" x="312.385869601" y="529.0">60</text><title>60</title></g><g class="guides"><path class="guide line" d="M362.713908 0.000000 v514.000000" /><text class="" x="362.713907527" y="529.0">70</text><title>70</title></g><g class="guides"><path class="guide line" d="M413.041945 0.000000 v514.000000" /><text class="" x="413.041945453" y="529.0">80</text><title>80</title></g><g class="guides"><path class="guide line" d="M463.369983 0.000000 v514.000000" /><text class="" x="463.369983379" y="529.0">90</text><title>90</title></g><g class="guides"><path class="guide line" d="M513.698021 0.000000 v514.000000" /><text class="" x="513.698021305" y="529.0">100</text><title>100</title></g><g class="guides"><path class="guide line" d="M564.026059 0.000000 v514.000000" /><text class="" x="564.026059231" y="529.0">110</text><title>110</title></g></g><g class="series serie-0 color-0"><path class="line reactive nofill" d="M12.038462 504.115385 L12.542814 471.166667 13.045022 504.115385 13.547764 504.115385 14.051045 462.929487 14.554863 445.631410 15.057605 362.435897 15.560866 346.785256 16.064146 322.897436 16.567426 300.657051 17.071260 285.006410 17.573987 304.775641 18.077821 293.243590 18.581101 298.185897 19.084382 293.243590 19.587109 286.653846 20.091496 336.900641 20.594223 410.211538 21.097503 445.631410 21.600784 474.461538 22.104064 498.349359 22.607344 504.115385 23.110625 487.641026 23.613352 495.054487 24.117186 488.464744 25.123746 460.458333 25.626473 431.628205 26.129754 442.336538 26.633588 467.048077 27.136314 485.993590 27.640148 411.035256 28.142875 440.689103 28.646155 401.150641 29.149989 367.378205 30.155997 286.653846 30.659831 368.201923 31.163111 369.849359 31.665838 320.426282 32.170225 362.435897 32.672398 353.375000 33.176232 377.262821 33.679513 408.564103 34.182240 404.445513 34.686074 448.926282 35.188800 441.512821 35.692634 449.750000 36.195361 424.214744 36.699195 425.038462 37.201922 423.391026 37.705202 381.381410 38.209036 399.503205 38.711763 392.913462 39.215043 378.086538 39.718877 356.669872 40.221604 357.493590 40.725438 346.785256 41.228165 322.897436 41.731445 303.128205 42.234726 293.243590 42.738560 299.833333 43.241840 308.070513 43.744567 271.826923 44.248401 294.891026 44.751128 298.185897 45.254408 289.948718 45.758242 306.423077 46.260969 299.833333 46.764803 307.246795 47.268083 294.067308 47.770810 285.830128 48.275197 335.253205 48.777924 387.971154 49.280651 378.910256 49.784485 378.910256 50.287765 368.201923 50.791046 361.612179 51.293772 331.958333 51.798160 347.608974 52.300887 347.608974 52.803614 344.314103 53.307448 301.480769 53.811282 318.778846 54.314008 297.362179 54.817842 299.833333 55.321123 300.657051 55.823850 308.070513 56.327683 301.480769 56.829857 287.477564 57.334244 296.538462 57.836971 296.538462 58.340251 288.301282 58.843532 305.599359 59.347366 377.262821 59.850093 383.028846 60.353373 353.375000 60.857408 352.551282 61.360689 361.612179 61.863466 336.900641 62.367249 352.551282 62.870530 343.490385 63.373307 341.019231 63.877090 310.541667 64.380371 331.958333 64.883148 331.134615 65.386428 313.836538 65.890212 286.653846 66.393492 303.951923 66.896269 302.304487 67.399550 286.653846 67.903334 304.775641 68.406614 331.958333 68.909391 313.836538 69.413175 303.128205 69.916455 308.894231 70.419232 307.246795 70.923016 313.836538 71.425793 338.548077 71.929073 342.666667 72.432857 301.480769 72.936137 317.131410 73.439418 323.721154 73.942195 287.477564 74.445978 299.009615 74.949259 313.012821 75.452036 304.775641 75.955820 299.009615 76.459100 326.192308 76.962380 338.548077 77.465157 336.076923 77.968941 342.666667 78.472221 342.666667 78.974999 346.785256 79.478279 332.782051 79.982063 338.548077 80.484840 336.076923 80.988623 342.666667 81.491904 351.727564 81.994681 353.375000 82.498465 317.955128 83.001745 324.544872 83.504522 335.253205 84.007802 317.955128 84.511586 302.304487 85.014866 317.955128 85.517644 322.897436 86.021427 346.785256 86.524708 373.144231 87.027485 376.439103 87.531268 336.900641 88.034549 355.846154 88.537326 364.907051 89.040606 361.612179 89.544390 364.907051 90.047167 344.314103 90.550447 350.080128 91.054231 324.544872 91.557008 315.483974 92.060288 323.721154 92.563569 291.596154 93.067352 292.419872 93.570633 299.833333 94.073410 311.365385 94.577194 294.067308 95.079971 311.365385 95.583251 308.894231 96.086531 294.067308 96.589812 286.653846 97.094099 299.833333 97.596373 299.833333 98.100156 299.833333 98.603437 314.660256 99.106717 332.782051 99.609494 335.253205 100.113278 346.785256 100.616055 373.967949 101.119839 361.612179 101.623119 365.730769 102.125896 383.028846 102.629680 381.381410 103.132457 414.330128 103.634731 391.266026 104.139521 382.205128 104.642298 381.381410 105.144572 358.317308 105.649362 305.599359 106.152642 310.541667 106.655419 299.009615 107.158700 275.121795 107.662987 315.483974 108.165261 309.717949 108.669044 280.887821 109.171821 292.419872 109.675605 294.891026 110.178885 293.243590 110.681662 284.182692 111.185446 284.182692 111.688223 279.240385 112.198550 300.657051 112.695287 302.304487 113.198568 336.900641 113.701345 345.961538 114.204625 317.955128 114.707906 308.070513 115.211689 327.016026 115.714970 327.839744 116.217747 289.125000 116.721530 349.256410 117.224307 364.907051 117.728091 368.201923 118.231371 356.669872 118.735155 379.733974 119.237429 382.205128 119.741213 385.500000 120.244493 402.798077 120.747773 395.384615 121.251054 399.503205 121.753831 385.500000 122.257614 375.615385 122.760392 393.737179 123.263672 401.150641 123.767456 379.733974 124.270233 383.028846 124.773513 340.195513 125.277297 332.782051 125.780577 366.554487 126.282348 348.432692 126.787138 318.778846 127.290418 346.785256 127.793195 328.663462 128.296476 310.541667 128.800259 331.958333 129.303037 331.958333 129.806820 307.246795 130.309597 282.535256 130.812878 315.483974 131.316158 285.830128 131.819942 289.125000 132.323222 282.535256 132.825999 303.128205 133.330286 306.423077 133.832560 310.541667 134.336344 331.958333 134.839121 314.660256 135.342401 300.657051 135.846185 292.419872 136.348962 311.365385 136.852745 351.727564 137.356026 358.317308 137.859306 368.201923 138.362083 382.205128 138.865867 361.612179 139.369147 356.669872 139.871924 351.727564 140.375205 314.660256 140.878989 299.833333 141.382269 293.243590 141.885046 286.653846 142.389333 285.006410 142.892110 281.711538 143.395390 289.948718 143.898671 292.419872 144.401951 313.012821 144.904728 331.958333 145.408512 356.669872 145.911792 357.493590 146.415073 373.967949 146.917850 358.317308 147.421633 370.673077 147.924914 369.849359 148.931475 291.596154 149.434755 305.599359 149.937532 303.128205 150.440812 294.067308 150.944093 293.243590 151.447876 295.714744 151.951157 300.657051 152.453934 285.830128 152.957718 295.714744 153.460998 303.951923 153.963775 297.362179 154.467055 296.538462 154.970839 300.657051 155.474120 299.009615 155.976897 297.362179 156.480680 312.189103 156.983961 326.192308 157.487241 355.022436 157.990521 353.375000 158.493802 369.849359 158.997082 381.381410 159.500363 383.852564 160.003643 385.500000 160.506420 383.852564 161.010204 417.625000 161.513484 415.977564 162.016764 397.855769 162.519542 370.673077 163.023325 361.612179 163.525096 317.131410 164.029886 336.900641 164.532663 344.314103 165.035943 337.724359 165.539727 329.487179 166.042504 336.076923 166.545785 334.429487 167.049065 321.250000 167.552849 297.362179 168.056129 317.131410 168.558906 289.125000 169.062186 303.128205 169.565970 310.541667 170.068747 352.551282 170.572028 356.669872 171.075811 327.016026 171.579092 336.076923 172.082372 341.019231 172.585652 341.019231 173.087423 347.608974 173.592213 328.663462 174.095494 341.842949 174.598774 355.846154 175.101551 330.310897 175.605335 397.855769 176.108112 385.500000 176.611392 334.429487 177.115176 340.195513 177.617953 332.782051 178.121233 308.070513 178.625017 305.599359 179.128297 309.717949 179.631074 295.714744 180.134355 306.423077 180.638138 310.541667 181.140916 313.012821 181.644699 291.596154 182.147980 295.714744 182.650757 288.301282 183.154540 294.067308 183.657317 315.483974 184.161101 303.951923 184.664382 312.189103 185.167159 303.951923 185.670439 311.365385 186.174223 309.717949 186.677503 315.483974 187.180280 295.714744 187.684064 313.012821 188.186841 330.310897 188.690121 334.429487 189.193905 317.131410 189.697185 326.192308 190.199962 328.663462 190.703746 359.964744 191.207026 364.083333 191.709804 327.016026 192.213587 315.483974 192.716364 317.955128 193.220148 331.958333 193.721918 325.368590 194.226205 292.419872 194.729989 300.657051 195.233269 311.365385 195.736047 288.301282 196.239327 291.596154 196.743111 316.307692 197.245888 325.368590 197.749671 373.967949 198.252952 369.849359 198.755729 364.083333 199.259009 377.262821 199.762793 383.852564 200.266073 379.733974 200.768850 363.259615 201.272634 373.144231 201.775411 349.256410 202.278692 339.371795 202.782475 349.256410 203.285252 323.721154 203.789036 330.310897 204.291813 366.554487 204.795093 335.253205 205.298877 360.788462 205.802157 357.493590 206.303928 320.426282 206.808718 294.891026 207.311999 303.128205 207.814776 303.951923 208.318056 283.358974 208.821840 300.657051 209.325120 294.891026 209.828400 289.125000 210.331681 317.131410 210.834961 336.076923 211.338242 347.608974 211.841522 358.317308 212.344802 374.791667 212.848083 379.733974 213.351363 378.910256 213.854140 373.967949 214.357421 371.496795 214.861204 380.557692 215.364485 376.439103 215.867262 375.615385 216.371045 322.073718 216.874326 342.666667 217.377103 354.198718 217.880383 331.134615 218.384167 317.131410 218.887447 323.721154 219.389218 302.304487 219.894008 300.657051 220.396785 295.714744 220.900066 292.419872 221.403849 280.064103 221.907130 305.599359 222.410410 326.192308 222.913187 294.067308 223.416971 290.772436 223.920251 306.423077 224.423028 308.070513 224.926812 308.894231 225.430092 314.660256 225.933373 353.375000 226.436653 358.317308 226.939430 355.022436 227.442710 335.253205 227.945991 331.134615 228.449775 320.426282 228.953055 324.544872 229.454825 365.730769 229.960119 365.730769 230.462896 363.259615 230.964667 350.080128 231.469457 350.080128 231.972737 380.557692 232.475514 374.791667 232.979298 368.201923 233.482578 378.086538 233.984349 336.900641 234.488636 309.717949 234.992419 313.012821 235.495197 323.721154 235.998477 280.887821 236.502261 298.185897 237.005541 332.782051 237.508318 313.012821 238.011598 306.423077 238.515382 321.250000 239.018159 320.426282 239.521440 291.596154 240.025223 294.891026 240.528504 306.423077 241.031281 283.358974 241.535064 288.301282 242.038345 294.067308 242.541122 298.185897 243.044906 309.717949 243.548186 336.900641 244.051466 352.551282 244.554747 370.673077 245.058027 392.089744 245.561307 401.974359 246.064588 392.913462 246.567868 384.676282 247.070645 387.971154 247.574429 365.730769 248.077709 393.737179 248.579480 403.621795 249.084270 378.910256 249.587550 387.971154 250.089321 357.493590 250.593608 329.487179 251.097392 331.958333 251.600169 310.541667 252.103449 309.717949 252.607233 294.891026 253.110513 289.948718 253.613290 279.240385 254.117074 284.182692 254.620354 303.128205 255.123635 303.951923 255.626412 316.307692 256.130195 303.128205 256.633476 316.307692 257.136253 315.483974 257.640037 303.128205 258.143317 338.548077 258.646094 337.724359 259.149878 331.958333 259.653158 367.378205 260.154929 372.320513 260.659719 322.073718 261.162999 315.483974 261.665776 325.368590 262.169057 295.714744 262.672840 322.073718 263.176121 316.307692 263.678898 309.717949 264.182681 286.653846 264.685962 303.951923 265.189242 322.897436 265.691013 286.653846 266.195300 288.301282 266.699083 295.714744 267.201860 311.365385 267.705141 281.711538 268.208924 299.009615 268.712205 296.538462 269.215485 294.891026 269.718262 304.775641 270.222046 331.134615 270.725326 359.141026 271.231123 347.608974 271.731384 297.362179 272.235168 294.891026 272.738448 298.185897 273.240218 329.487179 273.745512 315.483974 274.248289 317.955128 274.751569 313.012821 275.254346 286.653846 275.758130 301.480769 276.260907 301.480769 276.764188 316.307692 277.267468 311.365385 277.771252 286.653846 278.274532 297.362179 278.777812 303.951923 279.279583 290.772436 279.784373 329.487179 280.287150 329.487179 280.790431 310.541667 281.292704 267.708333 281.797495 304.775641 282.300272 298.185897 282.804055 298.185897 283.306833 276.769231 283.811120 305.599359 284.313897 310.541667 284.819693 301.480769 285.320457 289.948718 285.823738 303.128205 286.326515 306.423077 286.830299 294.891026 287.333579 316.307692 287.836859 318.778846 288.340140 307.246795 288.843420 317.131410 289.346700 329.487179 289.849477 327.016026 290.353261 322.073718 290.857045 317.131410 291.359822 321.250000 291.862599 324.544872 292.366383 304.775641 292.869663 299.833333 293.372943 311.365385 293.875721 277.592949 294.379504 285.830128 294.882785 295.714744 295.386065 295.714744 295.889345 294.067308 296.392626 315.483974 296.895403 328.663462 297.399186 346.785256 297.902467 355.846154 298.412290 385.500000 298.909028 372.320513 299.412308 353.375000 299.915085 366.554487 300.418365 348.432692 300.922149 339.371795 301.425430 337.724359 301.928207 331.958333 302.431990 311.365385 302.934767 329.487179 303.438048 325.368590 303.941328 295.714744 304.445112 285.830128 304.948392 290.772436 305.451673 299.009615 305.954450 272.650641 306.458233 299.009615 306.961514 309.717949 307.464291 306.423077 307.967571 298.185897 308.471355 314.660256 308.974132 320.426282 309.477412 308.894231 309.981196 294.891026 310.483973 303.128205 310.986247 303.951923 311.490534 294.067308 311.994317 289.948718 312.497598 291.596154 313.000878 291.596154 313.504159 286.653846 314.007439 312.189103 314.510719 311.365385 315.013496 311.365385 315.517280 282.535256 316.021064 295.714744 316.523841 294.891026 317.027121 289.125000 317.530402 311.365385 318.033682 322.073718 318.536459 332.782051 319.040243 293.243590 319.543020 292.419872 320.046300 299.833333 320.549581 311.365385 321.053364 287.477564 321.556645 308.070513 322.059925 329.487179 322.561696 289.125000 323.066486 292.419872 323.569766 341.019231 324.071537 306.423077 324.575824 294.067308 325.079607 311.365385 325.582384 321.250000 326.085665 302.304487 326.589448 293.243590 327.092729 287.477564 327.595506 309.717949 328.099793 321.250000 328.602570 342.666667 329.105347 333.605769 329.608627 303.951923 330.112411 301.480769 330.615691 303.951923 331.118469 328.663462 331.622252 359.141026 332.125029 375.615385 332.628310 350.080128 333.132093 358.317308 333.640407 354.198718 334.138151 332.782051 334.641935 345.961538 335.145215 348.432692 335.646985 326.192308 336.151776 291.596154 336.654553 286.653846 337.157833 297.362179 337.661617 282.535256 338.164897 276.769231 338.668178 285.830128 339.170955 284.182692 339.674738 295.714744 340.177515 291.596154 340.681802 315.483974 341.184076 309.717949 341.687357 275.945513 342.191140 308.894231 342.693917 324.544872 343.197701 329.487179 343.700981 342.666667 344.204262 341.842949 344.706032 312.189103 345.210319 298.185897 345.714606 306.423077 346.216880 299.833333 346.720160 282.535256 347.223944 309.717949 347.727224 341.019231 348.230001 339.371795 348.733282 296.538462 349.237066 307.246795 349.739843 312.189103 350.243123 314.660256 350.746403 286.653846 351.250187 299.009615 351.752964 305.599359 352.256245 299.833333 352.760028 303.128205 353.262805 311.365385 353.766086 307.246795 354.269366 286.653846 354.773653 337.724359 355.275927 332.782051 355.779207 329.487179 356.282488 285.006410 356.785768 295.714744 357.290055 300.657051 357.791322 286.653846 358.296112 301.480769 358.798889 311.365385 359.305190 327.839744 359.805450 292.419872 360.309234 302.304487 360.812514 319.602564 361.314285 313.012821 361.819075 307.246795 362.322355 297.362179 362.825636 308.894231 363.327406 289.948718 363.832197 288.301282 364.335477 309.717949 364.838254 302.304487 365.342038 305.599359 365.845318 317.955128 366.348598 318.778846 366.851879 350.903846 367.354656 359.964744 367.858440 353.375000 368.361720 358.317308 368.865000 361.612179 369.366771 380.557692 369.871561 337.724359 370.374841 342.666667 370.877619 355.846154 371.380899 310.541667 371.884683 308.070513 372.387963 311.365385 372.890740 308.894231 373.394524 306.423077 373.897301 301.480769 374.401084 300.657051 374.903862 294.891026 375.407645 300.657051 375.910926 316.307692 376.413703 310.541667 376.917486 306.423077 377.420767 299.009615 377.924047 292.419872 378.426824 331.134615 378.930608 338.548077 379.433385 349.256410 379.937169 355.022436 380.440449 349.256410 380.943226 343.490385 381.446507 290.772436 381.950290 288.301282 382.453571 312.189103 382.955341 308.894231 383.460131 299.009615 383.962908 346.785256 384.466189 367.378205 384.968463 289.948718 385.473253 300.657051 385.976030 322.897436 386.479310 306.423077 386.983094 289.948718 387.486374 300.657051 387.989151 304.775641 388.492432 295.714744 388.996215 294.067308 389.499496 293.243590 390.002776 307.246795 390.505553 310.541667 391.009337 292.419872 391.512617 291.596154 392.015898 301.480769 392.519178 292.419872 393.022459 297.362179 393.525236 299.009615 394.029523 297.362179 394.532300 303.951923 395.035580 319.602564 395.538357 308.070513 396.042141 284.182692 396.545421 304.775641 397.048702 313.012821 397.551479 302.304487 398.055766 308.894231 398.558543 305.599359 399.061823 291.596154 399.564600 291.596154 400.068384 309.717949 400.571664 316.307692 401.074945 322.073718 401.578225 327.016026 402.081505 338.548077 402.584282 331.958333 403.088066 307.246795 403.591346 320.426282 404.094124 322.897436 404.597404 291.596154 405.101188 308.894231 405.604468 313.012821 406.107245 317.131410 406.610525 294.891026 407.114309 315.483974 407.617086 320.426282 408.120367 302.304487 408.623647 277.592949 409.127431 316.307692 409.630208 331.958333 410.133488 301.480769 410.637272 300.657051 411.140552 333.605769 411.643329 328.663462 412.146610 309.717949 412.650393 317.131410 413.153170 334.429487 413.656451 316.307692 414.160234 288.301282 414.664018 297.362179 415.166795 296.538462 415.669572 298.185897 416.173356 298.185897 416.676636 301.480769 417.179917 299.009615 417.682694 301.480769 418.186477 320.426282 418.689255 324.544872 419.192535 315.483974 419.696319 313.012821 420.199599 291.596154 420.702879 294.891026 421.205656 302.304487 421.709440 299.009615 422.212217 317.955128 422.716001 322.073718 423.219281 327.839744 423.722058 341.842949 424.225842 329.487179 424.729122 341.019231 425.232403 342.666667 425.735180 322.897436 426.238460 294.067308 426.742244 303.951923 427.245021 309.717949 427.748805 287.477564 428.252085 303.951923 428.754862 312.189103 429.258143 324.544872 429.761423 303.951923 430.264703 306.423077 430.767984 311.365385 431.271264 296.538462 431.775048 288.301282 432.278328 333.605769 432.781608 340.195513 433.284386 309.717949 433.788169 331.958333 434.291450 346.785256 434.794730 346.785256 435.297507 381.381410 435.800787 385.500000 436.304068 373.967949 436.807852 403.621795 437.309622 385.500000 437.814412 354.198718 438.317693 374.791667 438.820470 363.259615 439.323750 343.490385 439.827031 300.657051 440.330311 304.775641 440.833591 289.948718 441.336872 308.070513 441.840152 317.131410 442.343432 317.955128 442.847216 286.653846 443.349993 271.826923 443.853777 304.775641 444.356554 284.182692 444.860338 288.301282 445.363618 313.012821 445.866395 336.900641 446.370179 327.016026 446.873459 336.900641 447.376739 351.727564 447.879517 345.961538 448.383300 351.727564 448.886581 369.025641 449.388351 362.435897 449.893141 314.660256 450.396422 320.426282 450.899702 320.426282 451.401473 290.772436 451.906263 285.006410 452.409543 285.006410 452.912320 291.596154 453.416607 303.128205 453.919384 322.073718 454.422665 331.134615 454.924435 314.660256 455.428722 294.067308 455.932506 302.304487 456.435283 303.951923 456.938563 291.596154 457.442347 296.538462 457.945627 313.012821 458.448405 320.426282 458.951685 303.951923 459.455469 300.657051 459.958749 305.599359 460.461526 285.006410 460.965310 291.596154 461.468590 294.891026 461.971870 313.836538 462.474648 305.599359 462.978935 291.596154 463.481208 300.657051 463.984992 314.660256 464.487769 300.657051 464.991049 303.951923 465.494330 290.772436 465.998114 280.064103 466.501394 322.073718 467.004674 326.192308 467.507955 325.368590 468.010732 317.955128 468.514012 294.067308 469.017796 308.894231 469.521076 316.307692 470.024357 318.778846 470.527134 290.772436 471.030414 303.951923 471.534198 318.778846 472.036975 318.778846 472.540255 286.653846 473.044039 330.310897 473.550339 341.019231 474.050096 317.955128 474.553377 309.717949 475.057664 301.480769 475.559937 303.951923 476.063721 303.951923 476.567001 301.480769 477.070785 315.483974 477.573059 303.951923 478.076339 285.830128 478.580123 324.544872 479.083403 336.900641 479.586180 322.897436 480.089964 303.128205 480.593245 293.243590 481.096525 311.365385 481.599805 323.721154 482.103086 332.782051 482.605863 345.961538 483.109646 336.076923 483.612927 357.493590 484.115704 361.612179 484.619488 336.076923 485.122768 370.673077 485.624538 371.496795 486.129329 326.192308 486.632106 321.250000 487.135889 308.070513 487.638667 296.538462 488.141947 290.772436 488.645731 296.538462 489.149514 292.419872 489.650782 280.064103 490.155572 289.948718 490.658852 292.419872 491.161629 307.246795 491.664910 289.948718 492.168190 293.243590 492.671974 312.189103 493.174751 309.717949 493.678031 296.538462 494.181815 307.246795 494.684592 303.128205 495.188376 316.307692 495.691153 317.955128 496.194936 320.426282 496.698217 325.368590 497.201497 325.368590 497.704777 334.429487 498.208058 345.961538 498.710835 359.964744 499.214619 398.679487 499.717899 400.326923 500.220676 388.794872 500.724460 406.916667 501.227237 404.445513 501.730517 327.839744 502.234301 331.958333 502.737581 341.842949 503.239352 313.836538 503.743639 301.480769 504.247422 327.839744 504.750703 335.253205 505.253480 311.365385 505.756760 299.009615 506.260544 289.125000 506.763824 293.243590 507.266601 281.711538 507.770385 284.182692 508.273162 294.891026 508.776946 314.660256 509.280226 327.016026 509.783003 323.721154 510.286787 328.663462 510.790067 344.314103 511.293348 383.028846 511.796125 400.326923 512.299405 376.439103 512.803189 384.676282 513.304959 377.262821 513.808743 356.669872 514.312023 348.432692 514.815304 348.432692 515.318584 297.362179 515.821865 325.368590 516.325145 330.310897 516.828425 301.480769 517.331706 290.772436 517.834986 286.653846 518.338266 299.833333 518.841547 299.009615 519.344827 298.185897 519.848108 303.128205 520.351388 287.477564 520.854668 289.125000 521.357949 289.125000 521.861229 307.246795 522.364509 294.891026 522.867790 296.538462 523.371070 293.243590 523.874351 299.833333 524.377631 296.538462 524.880911 298.185897 525.384192 289.125000 525.887472 290.772436 526.390752 299.833333 526.894033 303.128205 527.397313 294.067308 527.900594 322.897436 528.403874 336.076923 528.907154 296.538462 529.410435 303.128205 529.913715 301.480769 530.416996 301.480769 530.920276 315.483974 531.423556 299.833333 531.926837 323.721154 532.430117 357.493590 532.933397 354.198718 533.436678 342.666667 533.939958 318.778846 534.443239 343.490385 534.946519 350.080128 535.449799 294.067308 535.953080 298.185897 536.456360 317.131410 536.959640 314.660256 537.462921 293.243590 537.966201 314.660256 538.469482 313.836538 538.972762 296.538462 539.476042 291.596154 539.979323 326.192308 540.482603 326.192308 540.985883 313.836538 541.489164 277.592949 541.992444 322.073718 542.495725 325.368590 542.999005 291.596154 543.502285 303.128205 544.005566 303.951923 544.508846 306.423077 545.012127 294.891026 545.515407 302.304487 546.018687 312.189103 546.521968 313.836538 547.025248 293.243590 547.528528 296.538462 548.031809 292.419872 548.535089 290.772436 549.038370 285.830128 549.541650 285.830128 550.044930 299.009615 550.548211 296.538462 551.051491 301.480769 551.554771 307.246795 552.058052 303.951923 552.561332 285.006410 553.064613 315.483974 553.567893 304.775641 554.076206 303.951923 554.574454 291.596154 555.077734 310.541667 555.581014 299.009615 556.084295 296.538462 556.587575 320.426282 557.090856 329.487179 557.594136 312.189103 558.097416 319.602564 558.600697 327.839744 559.103977 353.375000 559.607258 354.198718 560.110538 391.266026 560.613818 392.089744 561.117099 378.086538 561.620379 345.961538 562.123659 357.493590 562.626940 330.310897 563.130220 333.605769 563.633501 326.192308 564.136781 299.009615 564.640061 295.714744 565.143342 316.307692 565.646622 322.897436 566.149902 345.137821 566.653183 387.971154 567.156463 390.442308 567.659744 406.092949 568.163024 407.740385 568.666304 394.560897 569.169585 408.564103 569.672865 415.977564 570.176145 371.496795 570.679426 360.788462 571.182706 365.730769 571.685987 312.189103 572.189267 313.836538 572.692547 324.544872 573.195828 303.128205 573.699108 299.009615 574.202388 298.185897 574.705669 296.538462 575.208949 294.067308 575.712230 290.772436 576.215510 293.243590 576.718790 301.480769 577.222071 296.538462 577.725351 283.358974 578.228632 295.714744 578.731912 302.304487 579.235192 284.182692 579.738473 307.246795 580.241753 307.246795 580.745033 305.599359 581.248314 305.599359 581.751594 323.721154 582.254875 332.782051 582.758155 348.432692 583.261435 344.314103 583.764716 346.785256 584.267996 350.903846 584.771276 337.724359 585.274557 381.381410 585.777837 388.794872 586.281118 382.205128 586.784398 385.500000 587.287678 385.500000 587.790959 340.195513 588.294239 339.371795 588.797519 331.134615 589.300800 284.182692 589.804080 310.541667 590.307361 309.717949 590.810641 299.009615 591.313921 257.823718 591.817202 283.358974 592.320482 284.182692 592.823763 289.948718 593.327043 303.951923 593.830323 304.775641 594.333604 299.009615 594.836884 308.070513 595.340164 302.304487 595.843445 321.250000 596.346725 313.012821 596.850006 316.307692 597.353286 299.833333 597.856566 303.128205 598.359847 271.003205 598.863127 288.301282 599.366407 309.717949 599.869688 316.307692 600.372968 324.544872 600.876249 289.948718 601.379529 288.301282 601.882809 306.423077 602.386090 309.717949 602.889370 292.419872 603.392650 292.419872 603.895931 303.951923 604.399211 303.951923 604.902492 305.599359 605.405772 353.375000 605.909052 337.724359 606.412333 313.012821 606.915613 322.897436 607.418894 320.426282 607.922174 313.012821 608.425454 285.006410 608.928735 286.653846 609.432015 285.006410 609.935295 294.891026 610.438576 296.538462 610.941856 311.365385 611.445137 310.541667 611.948417 280.064103 612.451697 286.653846 612.954978 314.660256 613.458258 316.307692 613.961538 296.538462" /></g><g class="series serie-1 color-1"><path class="line reactive nofill" d="M12.038462 161.448718 L12.542814 409.387821 13.045022 463.753205 13.547764 375.615385 14.051045 375.615385 14.554863 372.320513 15.057605 379.733974 15.560866 397.032051 16.064146 399.503205 16.567426 403.621795 17.071260 364.907051 17.573987 331.134615 18.077821 333.605769 18.581101 344.314103 19.084382 334.429487 19.587109 368.201923 20.091496 306.423077 20.594223 411.858974 21.097503 362.435897 21.600784 336.900641 22.104064 373.144231 22.607344 462.929487 23.110625 327.839744 23.613352 411.858974 24.117186 344.314103 25.123746 336.076923 25.626473 363.259615 26.129754 371.496795 26.633588 355.022436 27.136314 360.788462 27.640148 387.147436 28.142875 387.971154 28.646155 369.025641 29.149989 344.314103 30.155997 399.503205 30.659831 398.679487 31.163111 389.618590 31.665838 336.900641 32.170225 416.801282 32.672398 405.269231 33.176232 333.605769 33.679513 398.679487 34.182240 350.080128 34.686074 415.153846 35.188800 349.256410 35.692634 360.788462 36.195361 301.480769 36.699195 363.259615 37.201922 414.330128 37.705202 412.682692 38.209036 401.974359 38.711763 348.432692 39.215043 358.317308 39.718877 375.615385 40.221604 369.849359 40.725438 326.192308 41.228165 340.195513 41.731445 398.679487 42.234726 418.448718 42.738560 352.551282 43.241840 418.448718 43.744567 415.153846 44.248401 364.907051 44.751128 410.211538 45.254408 407.740385 45.758242 355.022436 46.260969 401.974359 46.764803 408.564103 47.268083 380.557692 47.770810 392.089744 48.275197 415.977564 48.777924 353.375000 49.280651 334.429487 49.784485 322.073718 50.287765 387.147436 50.791046 271.003205 51.293772 340.195513 51.798160 307.246795 52.300887 334.429487 52.803614 333.605769 53.307448 325.368590 53.811282 368.201923 54.314008 299.009615 54.817842 377.262821 55.321123 282.535256 55.823850 321.250000 56.327683 261.942308 56.829857 357.493590 57.334244 319.602564 57.836971 360.788462 58.340251 321.250000 58.843532 348.432692 59.347366 385.500000 59.850093 267.708333 60.353373 341.842949 60.857408 266.884615 61.360689 287.477564 61.863466 265.237179 62.367249 297.362179 62.870530 178.746795 63.373307 266.884615 63.877090 283.358974 64.380371 360.788462 64.883148 258.647436 65.386428 258.647436 65.890212 315.483974 66.393492 307.246795 66.896269 332.782051 67.399550 290.772436 67.903334 275.945513 68.406614 305.599359 68.909391 311.365385 69.413175 211.695513 69.916455 348.432692 70.419232 311.365385 70.923016 303.128205 71.425793 319.602564 71.929073 285.006410 72.432857 321.250000 72.936137 331.134615 73.439418 253.705128 73.942195 246.291667 74.445978 304.775641 74.949259 271.826923 75.452036 350.080128 75.955820 340.195513 76.459100 303.128205 76.962380 278.416667 77.465157 357.493590 77.968941 272.650641 78.472221 268.532051 78.974999 301.480769 79.478279 258.647436 79.982063 290.772436 80.484840 299.009615 80.988623 343.490385 81.491904 285.830128 81.994681 292.419872 82.498465 276.769231 83.001745 256.176282 83.504522 331.958333 84.007802 280.064103 84.511586 233.935897 85.014866 331.134615 85.517644 342.666667 86.021427 408.564103 86.524708 348.432692 87.027485 262.766026 87.531268 266.060897 88.034549 311.365385 88.537326 334.429487 89.040606 310.541667 89.544390 266.060897 90.047167 263.589744 90.550447 249.586538 91.054231 239.701923 91.557008 305.599359 92.060288 348.432692 92.563569 331.958333 93.067352 247.939103 93.570633 304.775641 94.073410 358.317308 94.577194 296.538462 95.079971 304.775641 95.583251 289.125000 96.086531 345.961538 96.589812 245.467949 97.094099 271.003205 97.596373 350.080128 98.100156 255.352564 98.603437 275.121795 99.106717 285.830128 99.609494 343.490385 100.113278 289.948718 100.616055 272.650641 101.119839 268.532051 101.623119 274.298077 102.125896 402.798077 102.629680 294.891026 103.132457 311.365385 103.634731 307.246795 104.139521 333.605769 104.642298 320.426282 105.144572 372.320513 105.649362 317.955128 106.152642 268.532051 106.655419 280.887821 107.158700 285.006410 107.662987 339.371795 108.165261 204.282051 108.669044 255.352564 109.171821 265.237179 109.675605 280.064103 110.178885 268.532051 110.681662 252.057692 111.185446 316.307692 111.688223 253.705128 112.198550 291.596154 112.695287 317.955128 113.198568 266.060897 113.701345 261.118590 114.204625 259.471154 114.707906 270.179487 115.211689 262.766026 115.714970 301.480769 116.217747 216.637821 116.721530 387.147436 117.224307 283.358974 117.728091 250.410256 118.231371 356.669872 118.735155 308.070513 119.237429 348.432692 119.741213 339.371795 120.244493 343.490385 120.747773 320.426282 121.251054 260.294872 121.753831 212.519231 122.257614 312.189103 122.760392 365.730769 123.263672 289.125000 123.767456 282.535256 124.270233 263.589744 124.773513 259.471154 125.277297 245.467949 125.780577 349.256410 126.282348 257.000000 126.787138 325.368590 127.290418 337.724359 127.793195 333.605769 128.296476 291.596154 128.800259 302.304487 129.303037 258.647436 129.806820 289.948718 130.309597 270.179487 130.812878 316.307692 131.316158 297.362179 131.819942 313.012821 132.323222 223.227564 132.825999 317.955128 133.330286 338.548077 133.832560 374.791667 134.336344 331.134615 134.839121 341.842949 135.342401 228.169872 135.846185 270.179487 136.348962 374.791667 136.852745 322.073718 137.356026 263.589744 137.859306 309.717949 138.362083 303.951923 138.865867 299.009615 139.369147 247.939103 139.871924 305.599359 140.375205 178.746795 140.878989 172.980769 141.382269 254.528846 141.885046 267.708333 142.389333 228.993590 142.892110 257.000000 143.395390 286.653846 143.898671 278.416667 144.401951 359.964744 144.904728 344.314103 145.408512 327.016026 145.911792 249.586538 146.415073 341.842949 146.917850 272.650641 147.421633 293.243590 147.924914 216.637821 148.931475 213.342949 149.434755 283.358974 149.937532 365.730769 150.440812 343.490385 150.944093 261.118590 151.447876 258.647436 151.951157 322.073718 152.453934 317.955128 152.957718 214.990385 153.460998 351.727564 153.963775 291.596154 154.467055 335.253205 154.970839 250.410256 155.474120 276.769231 155.976897 308.070513 156.480680 266.884615 156.983961 272.650641 157.487241 402.798077 157.990521 259.471154 158.493802 271.826923 158.997082 355.846154 159.500363 347.608974 160.003643 276.769231 160.506420 359.964744 161.010204 297.362179 161.513484 258.647436 162.016764 214.990385 162.519542 167.214744 163.023325 301.480769 163.525096 266.884615 164.029886 290.772436 164.532663 255.352564 165.035943 319.602564 165.539727 360.788462 166.042504 293.243590 166.545785 215.814103 167.049065 341.842949 167.552849 320.426282 168.056129 317.955128 168.558906 210.048077 169.062186 285.830128 169.565970 302.304487 170.068747 365.730769 170.572028 275.945513 171.075811 203.458333 171.579092 336.076923 172.082372 291.596154 172.585652 246.291667 173.087423 367.378205 173.592213 247.115385 174.095494 287.477564 174.598774 345.961538 175.101551 317.955128 175.605335 349.256410 176.108112 285.006410 176.611392 238.054487 177.115176 305.599359 177.617953 241.349359 178.121233 326.192308 178.625017 355.022436 179.128297 265.237179 179.631074 299.009615 180.134355 294.067308 180.638138 338.548077 181.140916 253.705128 181.644699 268.532051 182.147980 270.179487 182.650757 285.006410 183.154540 307.246795 183.657317 261.942308 184.161101 196.868590 184.664382 320.426282 185.167159 327.839744 185.670439 303.951923 186.174223 314.660256 186.677503 336.076923 187.180280 321.250000 187.684064 327.839744 188.186841 304.775641 188.690121 319.602564 189.193905 306.423077 189.697185 270.179487 190.199962 315.483974 190.703746 292.419872 191.207026 204.282051 191.709804 185.336538 192.213587 331.958333 192.716364 303.951923 193.220148 331.958333 193.721918 321.250000 194.226205 225.698718 194.729989 317.131410 195.233269 341.019231 195.736047 257.000000 196.239327 295.714744 196.743111 334.429487 197.245888 322.073718 197.749671 330.310897 198.252952 270.179487 198.755729 303.951923 199.259009 312.189103 199.762793 266.884615 200.266073 313.836538 200.768850 166.391026 201.272634 286.653846 201.775411 258.647436 202.278692 250.410256 202.782475 348.432692 203.285252 369.849359 203.789036 287.477564 204.291813 383.852564 204.795093 298.185897 205.298877 351.727564 205.802157 257.000000 206.303928 275.945513 206.808718 271.003205 207.311999 299.833333 207.814776 334.429487 208.318056 247.939103 208.821840 277.592949 209.325120 213.342949 209.828400 233.112179 210.331681 288.301282 210.834961 317.131410 211.338242 262.766026 211.841522 350.903846 212.344802 329.487179 212.848083 260.294872 213.351363 196.044872 213.854140 317.131410 214.357421 303.951923 214.861204 341.842949 215.364485 239.701923 215.867262 237.230769 216.371045 186.160256 216.874326 275.945513 217.377103 275.121795 217.880383 270.179487 218.384167 269.355769 218.887447 365.730769 219.389218 357.493590 219.894008 342.666667 220.396785 214.166667 220.900066 319.602564 221.403849 231.464744 221.907130 284.182692 222.410410 346.785256 222.913187 255.352564 223.416971 191.926282 223.920251 309.717949 224.423028 293.243590 224.926812 314.660256 225.430092 309.717949 225.933373 303.128205 226.436653 344.314103 226.939430 281.711538 227.442710 177.099359 227.945991 297.362179 228.449775 276.769231 228.953055 303.128205 229.454825 373.144231 229.960119 353.375000 230.462896 249.586538 230.964667 326.192308 231.469457 383.028846 231.972737 353.375000 232.475514 299.009615 232.979298 356.669872 233.482578 294.891026 233.984349 287.477564 234.488636 294.067308 234.992419 324.544872 235.495197 265.237179 235.998477 268.532051 236.502261 350.903846 237.005541 339.371795 237.508318 280.887821 238.011598 275.945513 238.515382 308.894231 239.018159 253.705128 239.521440 350.903846 240.025223 310.541667 240.528504 303.128205 241.031281 272.650641 241.535064 271.826923 242.038345 269.355769 242.541122 257.823718 243.044906 301.480769 243.548186 317.131410 244.051466 276.769231 244.554747 353.375000 245.058027 274.298077 245.561307 285.006410 246.064588 166.391026 246.567868 256.176282 247.070645 261.118590 247.574429 264.413462 248.077709 331.958333 248.579480 285.006410 249.084270 353.375000 249.587550 304.775641 250.089321 265.237179 250.593608 330.310897 251.097392 248.762821 251.600169 226.522436 252.103449 260.294872 252.607233 285.006410 253.110513 230.641026 253.613290 256.176282 254.117074 316.307692 254.620354 262.766026 255.123635 345.137821 255.626412 262.766026 256.130195 267.708333 256.633476 315.483974 257.136253 222.403846 257.640037 344.314103 258.143317 349.256410 258.646094 257.000000 259.149878 364.083333 259.653158 321.250000 260.154929 247.939103 260.659719 234.759615 261.162999 216.637821 261.665776 387.147436 262.169057 317.131410 262.672840 327.839744 263.176121 217.461538 263.678898 289.948718 264.182681 331.958333 264.685962 262.766026 265.189242 262.766026 265.691013 276.769231 266.195300 322.897436 266.699083 213.342949 267.201860 259.471154 267.705141 254.528846 268.208924 340.195513 268.712205 265.237179 269.215485 238.054487 269.718262 359.141026 270.222046 336.076923 270.725326 279.240385 271.231123 227.346154 271.731384 204.282051 272.235168 314.660256 272.738448 134.266026 273.240218 332.782051 273.745512 336.076923 274.248289 275.121795 274.751569 276.769231 275.254346 294.067308 275.758130 255.352564 276.260907 261.942308 276.764188 357.493590 277.267468 303.951923 277.771252 244.644231 278.274532 231.464744 278.777812 369.849359 279.279583 393.737179 279.784373 299.009615 280.287150 262.766026 280.790431 265.237179 281.292704 299.009615 281.797495 265.237179 282.300272 291.596154 282.804055 333.605769 283.306833 229.817308 283.811120 285.830128 284.313897 322.897436 284.819693 220.756410 285.320457 277.592949 285.823738 270.179487 286.326515 252.881410 286.830299 265.237179 287.333579 341.019231 287.836859 273.474359 288.340140 262.766026 288.843420 265.237179 289.346700 321.250000 289.849477 214.990385 290.353261 275.945513 290.857045 363.259615 291.359822 266.884615 291.862599 271.003205 292.366383 330.310897 292.869663 261.118590 293.372943 262.766026 293.875721 244.644231 294.379504 255.352564 294.882785 273.474359 295.386065 258.647436 295.889345 245.467949 296.392626 336.900641 296.895403 289.125000 297.399186 302.304487 297.902467 360.788462 298.412290 338.548077 298.909028 242.996795 299.412308 169.685897 299.915085 333.605769 300.418365 365.730769 300.922149 231.464744 301.425430 264.413462 301.928207 271.826923 302.431990 274.298077 302.934767 268.532051 303.438048 315.483974 303.941328 288.301282 304.445112 255.352564 304.948392 268.532051 305.451673 282.535256 305.954450 225.698718 306.458233 341.019231 306.961514 329.487179 307.464291 306.423077 307.967571 300.657051 308.471355 289.125000 308.974132 295.714744 309.477412 338.548077 309.981196 281.711538 310.483973 306.423077 310.986247 381.381410 311.490534 312.189103 311.994317 250.410256 312.497598 240.525641 313.000878 351.727564 313.504159 287.477564 314.007439 336.900641 314.510719 262.766026 315.013496 302.304487 315.517280 240.525641 316.021064 236.407051 316.523841 214.990385 317.027121 299.009615 317.530402 266.884615 318.033682 273.474359 318.536459 163.096154 319.040243 255.352564 319.543020 264.413462 320.046300 427.509615 320.549581 322.073718 321.053364 322.073718 321.556645 359.141026 322.059925 340.195513 322.561696 266.060897 323.066486 327.839744 323.569766 305.599359 324.071537 315.483974 324.575824 275.121795 325.079607 308.894231 325.582384 306.423077 326.085665 349.256410 326.589448 338.548077 327.092729 252.057692 327.595506 356.669872 328.099793 339.371795 328.602570 226.522436 329.105347 261.118590 329.608627 266.060897 330.112411 271.826923 330.615691 340.195513 331.118469 361.612179 331.622252 363.259615 332.125029 309.717949 332.628310 327.839744 333.132093 272.650641 333.640407 272.650641 334.138151 272.650641 334.641935 321.250000 335.145215 251.233974 335.646985 259.471154 336.151776 315.483974 336.654553 273.474359 337.157833 335.253205 337.661617 285.830128 338.164897 232.288462 338.668178 326.192308 339.170955 280.064103 339.674738 308.894231 340.177515 246.291667 340.681802 313.012821 341.184076 240.525641 341.687357 269.355769 342.191140 321.250000 342.693917 284.182692 343.197701 345.137821 343.700981 277.592949 344.204262 262.766026 344.706032 265.237179 345.210319 226.522436 345.714606 285.830128 346.216880 317.955128 346.720160 370.673077 347.223944 355.846154 347.727224 294.067308 348.230001 338.548077 348.733282 334.429487 349.237066 272.650641 349.739843 335.253205 350.243123 358.317308 350.746403 322.897436 351.250187 318.778846 351.752964 331.134615 352.256245 294.067308 352.760028 317.131410 353.262805 272.650641 353.766086 332.782051 354.269366 355.846154 354.773653 398.679487 355.275927 301.480769 355.779207 305.599359 356.282488 295.714744 356.785768 313.836538 357.290055 277.592949 357.791322 247.115385 358.296112 274.298077 358.798889 356.669872 359.305190 252.881410 359.805450 335.253205 360.309234 287.477564 360.812514 334.429487 361.314285 198.516026 361.819075 235.583333 362.322355 335.253205 362.825636 342.666667 363.327406 276.769231 363.832197 289.948718 364.335477 326.192308 364.838254 189.455128 365.342038 316.307692 365.845318 317.955128 366.348598 266.060897 366.851879 290.772436 367.354656 255.352564 367.858440 302.304487 368.361720 337.724359 368.865000 270.179487 369.366771 264.413462 369.871561 257.823718 370.374841 266.060897 370.877619 246.291667 371.380899 257.823718 371.884683 312.189103 372.387963 248.762821 372.890740 260.294872 373.394524 285.006410 373.897301 239.701923 374.401084 200.987179 374.903862 335.253205 375.407645 238.054487 375.910926 297.362179 376.413703 274.298077 376.917486 317.131410 377.420767 112.025641 377.924047 331.958333 378.426824 296.538462 378.930608 327.839744 379.433385 334.429487 379.937169 280.064103 380.440449 294.891026 380.943226 228.993590 381.446507 259.471154 381.950290 257.000000 382.453571 323.721154 382.955341 362.435897 383.460131 316.307692 383.962908 371.496795 384.466189 302.304487 384.968463 281.711538 385.473253 340.195513 385.976030 250.410256 386.479310 265.237179 386.983094 280.064103 387.486374 226.522436 387.989151 250.410256 388.492432 339.371795 388.996215 325.368590 389.499496 261.942308 390.002776 336.076923 390.505553 319.602564 391.009337 263.589744 391.512617 308.894231 392.015898 280.064103 392.519178 281.711538 393.022459 303.128205 393.525236 238.054487 394.029523 261.942308 394.532300 324.544872 395.035580 315.483974 395.538357 210.048077 396.042141 278.416667 396.545421 267.708333 397.048702 194.397436 397.551479 329.487179 398.055766 303.951923 398.558543 204.282051 399.061823 227.346154 399.564600 268.532051 400.068384 289.125000 400.571664 326.192308 401.074945 263.589744 401.578225 338.548077 402.081505 331.958333 402.584282 256.176282 403.088066 274.298077 403.591346 333.605769 404.094124 250.410256 404.597404 322.897436 405.101188 266.884615 405.604468 257.000000 406.107245 266.060897 406.610525 358.317308 407.114309 248.762821 407.617086 292.419872 408.120367 281.711538 408.623647 325.368590 409.127431 322.073718 409.630208 317.131410 410.133488 232.288462 410.637272 380.557692 411.140552 315.483974 411.643329 350.080128 412.146610 243.820513 412.650393 333.605769 413.153170 294.067308 413.656451 284.182692 414.160234 253.705128 414.664018 283.358974 415.166795 322.897436 415.669572 339.371795 416.173356 262.766026 416.676636 285.830128 417.179917 335.253205 417.682694 345.137821 418.186477 331.134615 418.689255 290.772436 419.192535 347.608974 419.696319 246.291667 420.199599 247.115385 420.702879 251.233974 421.205656 265.237179 421.709440 276.769231 422.212217 392.913462 422.716001 289.948718 423.219281 328.663462 423.722058 398.679487 424.225842 342.666667 424.729122 265.237179 425.232403 263.589744 425.735180 317.955128 426.238460 270.179487 426.742244 319.602564 427.245021 325.368590 427.748805 334.429487 428.252085 312.189103 428.754862 313.012821 429.258143 343.490385 429.761423 357.493590 430.264703 253.705128 430.767984 313.012821 431.271264 322.073718 431.775048 275.121795 432.278328 317.955128 432.781608 246.291667 433.284386 220.756410 433.788169 419.272436 434.291450 273.474359 434.794730 369.849359 435.297507 355.022436 435.800787 360.788462 436.304068 355.846154 436.807852 358.317308 437.309622 268.532051 437.814412 336.076923 438.317693 347.608974 438.820470 350.080128 439.323750 273.474359 439.827031 317.131410 440.330311 319.602564 440.833591 291.596154 441.336872 335.253205 441.840152 263.589744 442.343432 259.471154 442.847216 250.410256 443.349993 274.298077 443.853777 328.663462 444.356554 230.641026 444.860338 351.727564 445.363618 325.368590 445.866395 364.083333 446.370179 298.185897 446.873459 287.477564 447.376739 279.240385 447.879517 266.884615 448.383300 300.657051 448.886581 257.000000 449.388351 230.641026 449.893141 303.128205 450.396422 272.650641 450.899702 285.006410 451.401473 329.487179 451.906263 228.169872 452.409543 294.891026 452.912320 337.724359 453.416607 372.320513 453.919384 341.842949 454.422665 317.955128 454.924435 356.669872 455.428722 239.701923 455.932506 306.423077 456.435283 347.608974 456.938563 302.304487 457.442347 284.182692 457.945627 327.016026 458.448405 317.131410 458.951685 279.240385 459.455469 261.942308 459.958749 232.288462 460.461526 258.647436 460.965310 228.169872 461.468590 296.538462 461.971870 360.788462 462.474648 278.416667 462.978935 308.070513 463.481208 251.233974 463.984992 360.788462 464.487769 289.125000 464.991049 317.131410 465.494330 214.166667 465.998114 266.884615 466.501394 345.961538 467.004674 343.490385 467.507955 266.060897 468.010732 274.298077 468.514012 324.544872 469.017796 309.717949 469.521076 266.884615 470.024357 296.538462 470.527134 307.246795 471.030414 290.772436 471.534198 278.416667 472.036975 275.945513 472.540255 309.717949 473.044039 289.125000 473.550339 283.358974 474.050096 260.294872 474.553377 261.118590 475.057664 163.096154 475.559937 280.887821 476.063721 280.887821 476.567001 200.163462 477.070785 334.429487 477.573059 324.544872 478.076339 271.003205 478.580123 359.141026 479.083403 275.121795 479.586180 266.060897 480.089964 221.580128 480.593245 233.112179 481.096525 322.897436 481.599805 322.073718 482.103086 290.772436 482.605863 327.016026 483.109646 285.006410 483.612927 270.179487 484.115704 327.839744 484.619488 309.717949 485.122768 249.586538 485.624538 228.169872 486.129329 279.240385 486.632106 213.342949 487.135889 244.644231 487.638667 289.125000 488.141947 270.179487 488.645731 218.285256 489.149514 254.528846 489.650782 334.429487 490.155572 329.487179 490.658852 312.189103 491.161629 336.900641 491.664910 278.416667 492.168190 357.493590 492.671974 292.419872 493.174751 239.701923 493.678031 293.243590 494.181815 235.583333 494.684592 208.400641 495.188376 290.772436 495.691153 320.426282 496.194936 194.397436 496.698217 322.073718 497.201497 283.358974 497.704777 298.185897 498.208058 325.368590 498.710835 364.083333 499.214619 327.839744 499.717899 214.990385 500.220676 317.131410 500.724460 303.128205 501.227237 228.169872 501.730517 233.112179 502.234301 253.705128 502.737581 269.355769 503.239352 254.528846 503.743639 361.612179 504.247422 353.375000 504.750703 288.301282 505.253480 266.884615 505.756760 301.480769 506.260544 204.282051 506.763824 303.951923 507.266601 317.131410 507.770385 270.179487 508.273162 289.125000 508.776946 355.022436 509.280226 303.951923 509.783003 247.939103 510.286787 327.016026 510.790067 394.560897 511.293348 359.141026 511.796125 366.554487 512.299405 252.881410 512.803189 305.599359 513.304959 296.538462 513.808743 324.544872 514.312023 241.349359 514.815304 321.250000 515.318584 299.833333 515.821865 316.307692 516.325145 263.589744 516.828425 327.016026 517.331706 308.070513 517.834986 256.176282 518.338266 262.766026 518.841547 297.362179 519.344827 297.362179 519.848108 220.756410 520.351388 261.118590 520.854668 210.871795 521.357949 300.657051 521.861229 343.490385 522.364509 247.939103 522.867790 337.724359 523.371070 274.298077 523.874351 322.897436 524.377631 234.759615 524.880911 242.173077 525.384192 244.644231 525.887472 326.192308 526.390752 317.131410 526.894033 299.833333 527.397313 252.881410 527.900594 377.262821 528.403874 271.003205 528.907154 311.365385 529.410435 280.064103 529.913715 285.830128 530.416996 159.801282 530.920276 288.301282 531.423556 209.224359 531.926837 335.253205 532.430117 271.826923 532.933397 260.294872 533.436678 223.227564 533.939958 242.173077 534.443239 347.608974 534.946519 348.432692 535.449799 266.884615 535.953080 313.836538 536.456360 313.012821 536.959640 263.589744 537.462921 339.371795 537.966201 333.605769 538.469482 239.701923 538.972762 231.464744 539.476042 234.759615 539.979323 336.076923 540.482603 303.128205 540.985883 342.666667 541.489164 265.237179 541.992444 290.772436 542.495725 222.403846 542.999005 209.224359 543.502285 300.657051 544.005566 250.410256 544.508846 271.003205 545.012127 317.955128 545.515407 322.897436 546.018687 273.474359 546.521968 265.237179 547.025248 341.842949 547.528528 317.131410 548.031809 241.349359 548.535089 315.483974 549.038370 349.256410 549.541650 303.128205 550.044930 289.125000 550.548211 252.057692 551.051491 190.278846 551.554771 254.528846 552.058052 260.294872 552.561332 310.541667 553.064613 302.304487 553.567893 207.576923 554.076206 324.544872 554.574454 301.480769 555.077734 266.884615 555.581014 326.192308 556.084295 253.705128 556.587575 311.365385 557.090856 214.166667 557.594136 270.179487 558.097416 380.557692 558.600697 322.073718 559.103977 275.945513 559.607258 331.134615 560.110538 319.602564 560.613818 250.410256 561.117099 214.166667 561.620379 297.362179 562.123659 255.352564 562.626940 393.737179 563.130220 238.878205 563.633501 213.342949 564.136781 168.038462 564.640061 285.830128 565.143342 314.660256 565.646622 252.057692 566.149902 311.365385 566.653183 322.073718 567.156463 228.169872 567.659744 320.426282 568.163024 280.064103 568.666304 337.724359 569.169585 337.724359 569.672865 304.775641 570.176145 318.778846 570.679426 260.294872 571.182706 263.589744 571.685987 258.647436 572.189267 332.782051 572.692547 323.721154 573.195828 256.176282 573.699108 252.057692 574.202388 294.067308 574.705669 309.717949 575.208949 266.884615 575.712230 318.778846 576.215510 355.022436 576.718790 238.878205 577.222071 258.647436 577.725351 241.349359 578.228632 330.310897 578.731912 243.820513 579.235192 341.019231 579.738473 355.846154 580.241753 260.294872 580.745033 154.858974 581.248314 311.365385 581.751594 264.413462 582.254875 335.253205 582.758155 320.426282 583.261435 311.365385 583.764716 250.410256 584.267996 298.185897 584.771276 285.006410 585.274557 266.884615 585.777837 331.958333 586.281118 290.772436 586.784398 284.182692 587.287678 266.884615 587.790959 238.878205 588.294239 289.948718 588.797519 191.102564 589.300800 226.522436 589.804080 337.724359 590.307361 219.932692 590.810641 296.538462 591.313921 354.198718 591.817202 265.237179 592.320482 226.522436 592.823763 212.519231 593.327043 303.951923 593.830323 196.044872 594.333604 331.958333 594.836884 296.538462 595.340164 208.400641 595.843445 260.294872 596.346725 248.762821 596.850006 273.474359 597.353286 313.836538 597.856566 235.583333 598.359847 310.541667 598.863127 334.429487 599.366407 313.012821 599.869688 336.076923 600.372968 272.650641 600.876249 272.650641 601.379529 247.939103 601.882809 233.112179 602.386090 238.878205 602.889370 274.298077 603.392650 265.237179 603.895931 326.192308 604.399211 355.022436 604.902492 264.413462 605.405772 298.185897 605.909052 281.711538 606.412333 317.955128 606.915613 264.413462 607.418894 291.596154 607.922174 257.823718 608.425454 227.346154 608.928735 254.528846 609.432015 281.711538 609.935295 322.073718 610.438576 273.474359 610.941856 259.471154 611.445137 252.881410 611.948417 247.115385 612.451697 270.179487 612.954978 326.192308 613.458258 293.243590 613.961538 260.294872" /></g><g class="series serie-2 color-2"><path class="line reactive nofill" d="M12.038462 257.000000 L12.542814 257.000000 13.045022 257.000000 13.547764 257.000000 14.051045 257.000000 14.554863 257.000000 15.057605 257.000000 15.560866 257.000000 16.064146 257.000000 16.567426 257.000000 17.071260 257.000000 17.573987 257.000000 18.077821 257.000000 18.581101 257.000000 19.084382 257.000000 19.587109 257.000000 20.091496 257.000000 20.594223 257.000000 21.097503 257.000000 21.600784 257.000000 22.104064 257.000000 22.607344 257.000000 23.110625 257.000000 23.613352 257.000000 24.117186 257.000000 25.123746 257.000000 25.626473 257.000000 26.129754 257.000000 26.633588 257.000000 27.136314 257.000000 27.640148 257.000000 28.142875 257.000000 28.646155 257.000000 29.149989 257.000000 30.155997 257.000000 30.659831 257.000000 31.163111 257.000000 31.665838 257.000000 32.170225 257.000000 32.672398 257.000000 33.176232 257.000000 33.679513 257.000000 34.182240 257.000000 34.686074 257.000000 35.188800 257.000000 35.692634 257.000000 36.195361 257.000000 36.699195 257.000000 37.201922 257.000000 37.705202 257.000000 38.209036 257.000000 38.711763 257.000000 39.215043 257.000000 39.718877 257.000000 40.221604 257.000000 40.725438 257.000000 41.228165 257.000000 41.731445 257.000000 42.234726 257.000000 42.738560 257.000000 43.241840 257.000000 43.744567 257.000000 44.248401 257.000000 44.751128 257.000000 45.254408 257.000000 45.758242 257.000000 46.260969 257.000000 46.764803 257.000000 47.268083 257.000000 47.770810 257.000000 48.275197 257.000000 48.777924 257.000000 49.280651 257.000000 49.784485 257.000000 50.287765 257.000000 50.791046 257.000000 51.293772 257.000000 51.798160 257.000000 52.300887 257.000000 52.803614 257.000000 53.307448 257.000000 53.811282 257.000000 54.314008 257.000000 54.817842 257.000000 55.321123 257.000000 55.823850 257.000000 56.327683 257.000000 56.829857 257.000000 57.334244 257.000000 57.836971 257.000000 58.340251 257.000000 58.843532 257.000000 59.347366 257.000000 59.850093 257.000000 60.353373 257.000000 60.857408 257.000000 61.360689 257.000000 61.863466 257.000000 62.367249 257.000000 62.870530 257.000000 63.373307 257.000000 63.877090 257.000000 64.380371 257.000000 64.883148 257.000000 65.386428 257.000000 65.890212 257.000000 66.393492 257.000000 66.896269 257.000000 67.399550 257.000000 67.903334 257.000000 68.406614 257.000000 68.909391 257.000000 69.413175 257.000000 69.916455 257.000000 70.419232 257.000000 70.923016 257.000000 71.425793 257.000000 71.929073 257.000000 72.432857 257.000000 72.936137 257.000000 73.439418 257.000000 73.942195 257.000000 74.445978 257.000000 74.949259 257.000000 75.452036 257.000000 75.955820 257.000000 76.459100 257.000000 76.962380 257.000000 77.465157 257.000000 77.968941 257.000000 78.472221 257.000000 78.974999 257.000000 79.478279 257.000000 79.982063 257.000000 80.484840 257.000000 80.988623 257.000000 81.491904 257.000000 81.994681 257.000000 82.498465 257.000000 83.001745 257.000000 83.504522 257.000000 84.007802 257.000000 84.511586 257.000000 85.014866 257.000000 85.517644 257.000000 86.021427 257.000000 86.524708 257.000000 87.027485 257.000000 87.531268 257.000000 88.034549 257.000000 88.537326 257.000000 89.040606 257.000000 89.544390 257.000000 90.047167 257.000000 90.550447 257.000000 91.054231 257.000000 91.557008 257.000000 92.060288 257.000000 92.563569 257.000000 93.067352 257.000000 93.570633 257.000000 94.073410 257.000000 94.577194 257.000000 95.079971 257.000000 95.583251 257.000000 96.086531 257.000000 96.589812 257.000000 97.094099 257.000000 97.596373 257.000000 98.100156 257.000000 98.603437 257.000000 99.106717 257.000000 99.609494 257.000000 100.113278 257.000000 100.616055 257.000000 101.119839 257.000000 101.623119 257.000000 102.125896 257.000000 102.629680 257.000000 103.132457 257.000000 103.634731 257.000000 104.139521 257.000000 104.642298 257.000000 105.144572 257.000000 105.649362 257.000000 106.152642 257.000000 106.655419 257.000000 107.158700 257.000000 107.662987 257.000000 108.165261 257.000000 108.669044 257.000000 109.171821 257.000000 109.675605 257.000000 110.178885 257.000000 110.681662 257.000000 111.185446 257.000000 111.688223 257.000000 112.198550 257.000000 112.695287 257.000000 113.198568 257.000000 113.701345 257.000000 114.204625 257.000000 114.707906 257.000000 115.211689 257.000000 115.714970 257.000000 116.217747 257.000000 116.721530 257.000000 117.224307 257.000000 117.728091 257.000000 118.231371 257.000000 118.735155 257.000000 119.237429 257.000000 119.741213 257.000000 120.244493 257.000000 120.747773 257.000000 121.251054 257.000000 121.753831 257.000000 122.257614 257.000000 122.760392 257.000000 123.263672 257.000000 123.767456 257.000000 124.270233 257.000000 124.773513 257.000000 125.277297 257.000000 125.780577 257.000000 126.282348 257.000000 126.787138 257.000000 127.290418 257.000000 127.793195 257.000000 128.296476 257.000000 128.800259 257.000000 129.303037 257.000000 129.806820 257.000000 130.309597 257.000000 130.812878 257.000000 131.316158 257.000000 131.819942 257.000000 132.323222 257.000000 132.825999 257.000000 133.330286 257.000000 133.832560 257.000000 134.336344 257.000000 134.839121 257.000000 135.342401 257.000000 135.846185 257.000000 136.348962 257.000000 136.852745 257.000000 137.356026 257.000000 137.859306 257.000000 138.362083 257.000000 138.865867 257.000000 139.369147 257.000000 139.871924 257.000000 140.375205 257.000000 140.878989 257.000000 141.382269 257.000000 141.885046 257.000000 142.389333 257.000000 142.892110 257.000000 143.395390 257.000000 143.898671 257.000000 144.401951 257.000000 144.904728 257.000000 145.408512 257.000000 145.911792 257.000000 146.415073 257.000000 146.917850 257.000000 147.421633 257.000000 147.924914 257.000000 148.931475 257.000000 149.434755 257.000000 149.937532 257.000000 150.440812 257.000000 150.944093 257.000000 151.447876 257.000000 151.951157 257.000000 152.453934 257.000000 152.957718 257.000000 153.460998 257.000000 153.963775 257.000000 154.467055 257.000000 154.970839 257.000000 155.474120 257.000000 155.976897 257.000000 156.480680 257.000000 156.983961 257.000000 157.487241 257.000000 157.990521 257.000000 158.493802 257.000000 158.997082 257.000000 159.500363 257.000000 160.003643 257.000000 160.506420 257.000000 161.010204 257.000000 161.513484 257.000000 162.016764 257.000000 162.519542 257.000000 163.023325 257.000000 163.525096 257.000000 164.029886 257.000000 164.532663 257.000000 165.035943 257.000000 165.539727 257.000000 166.042504 257.000000 166.545785 257.000000 167.049065 257.000000 167.552849 257.000000 168.056129 257.000000 168.558906 257.000000 169.062186 257.000000 169.565970 257.000000 170.068747 257.000000 170.572028 257.000000 171.075811 257.000000 171.579092 257.000000 172.082372 257.000000 172.585652 257.000000 173.087423 257.000000 173.592213 257.000000 174.095494 257.000000 174.598774 257.000000 175.101551 257.000000 175.605335 257.000000 176.108112 257.000000 176.611392 257.000000 177.115176 257.000000 177.617953 257.000000 178.121233 257.000000 178.625017 257.000000 179.128297 257.000000 179.631074 257.000000 180.134355 257.000000 180.638138 257.000000 181.140916 257.000000 181.644699 257.000000 182.147980 257.000000 182.650757 257.000000 183.154540 257.000000 183.657317 257.000000 184.161101 257.000000 184.664382 257.000000 185.167159 257.000000 185.670439 257.000000 186.174223 257.000000 186.677503 257.000000 187.180280 257.000000 187.684064 257.000000 188.186841 257.000000 188.690121 257.000000 189.193905 257.000000 189.697185 257.000000 190.199962 257.000000 190.703746 257.000000 191.207026 257.000000 191.709804 257.000000 192.213587 257.000000 192.716364 257.000000 193.220148 257.000000 193.721918 257.000000 194.226205 257.000000 194.729989 257.000000 195.233269 257.000000 195.736047 257.000000 196.239327 257.000000 196.743111 257.000000 197.245888 257.000000 197.749671 257.000000 198.252952 257.000000 198.755729 257.000000 199.259009 257.000000 199.762793 257.000000 200.266073 257.000000 200.768850 257.000000 201.272634 257.000000 201.775411 257.000000 202.278692 257.000000 202.782475 257.000000 203.285252 257.000000 203.789036 257.000000 204.291813 257.000000 204.795093 257.000000 205.298877 257.000000 205.802157 257.000000 206.303928 257.000000 206.808718 257.000000 207.311999 257.000000 207.814776 257.000000 208.318056 257.000000 208.821840 257.000000 209.325120 257.000000 209.828400 257.000000 210.331681 257.000000 210.834961 257.000000 211.338242 257.000000 211.841522 257.000000 212.344802 257.000000 212.848083 257.000000 213.351363 257.000000 213.854140 257.000000 214.357421 257.000000 214.861204 257.000000 215.364485 257.000000 215.867262 257.000000 216.371045 257.000000 216.874326 257.000000 217.377103 257.000000 217.880383 257.000000 218.384167 257.000000 218.887447 257.000000 219.389218 257.000000 219.894008 257.000000 220.396785 257.000000 220.900066 257.000000 221.403849 257.000000 221.907130 257.000000 222.410410 257.000000 222.913187 257.000000 223.416971 257.000000 223.920251 257.000000 224.423028 257.000000 224.926812 257.000000 225.430092 257.000000 225.933373 257.000000 226.436653 257.000000 226.939430 257.000000 227.442710 257.000000 227.945991 257.000000 228.449775 257.000000 228.953055 257.000000 229.454825 257.000000 229.960119 257.000000 230.462896 257.000000 230.964667 257.000000 231.469457 257.000000 231.972737 257.000000 232.475514 257.000000 232.979298 257.000000 233.482578 257.000000 233.984349 257.000000 234.488636 257.000000 234.992419 257.000000 235.495197 257.000000 235.998477 257.000000 236.502261 257.000000 237.005541 257.000000 237.508318 257.000000 238.011598 257.000000 238.515382 257.000000 239.018159 257.000000 239.521440 257.000000 240.025223 257.000000 240.528504 257.000000 241.031281 257.000000 241.535064 257.000000 242.038345 257.000000 242.541122 257.000000 243.044906 257.000000 243.548186 257.000000 244.051466 257.000000 244.554747 257.000000 245.058027 257.000000 245.561307 257.000000 246.064588 257.000000 246.567868 257.000000 247.070645 257.000000 247.574429 257.000000 248.077709 257.000000 248.579480 257.000000 249.084270 257.000000 249.587550 257.000000 250.089321 257.000000 250.593608 257.000000 251.097392 257.000000 251.600169 257.000000 252.103449 257.000000 252.607233 257.000000 253.110513 257.000000 253.613290 257.000000 254.117074 257.000000 254.620354 257.000000 255.123635 257.000000 255.626412 257.000000 256.130195 257.000000 256.633476 257.000000 257.136253 257.000000 257.640037 257.000000 258.143317 257.000000 258.646094 257.000000 259.149878 257.000000 259.653158 257.000000 260.154929 257.000000 260.659719 257.000000 261.162999 257.000000 261.665776 257.000000 262.169057 257.000000 262.672840 257.000000 263.176121 257.000000 263.678898 257.000000 264.182681 257.000000 264.685962 257.000000 265.189242 257.000000 265.691013 257.000000 266.195300 257.000000 266.699083 257.000000 267.201860 257.000000 267.705141 257.000000 268.208924 257.000000 268.712205 257.000000 269.215485 257.000000 269.718262 257.000000 270.222046 257.000000 270.725326 257.000000 271.231123 257.000000 271.731384 257.000000 272.235168 257.000000 272.738448 257.000000 273.240218 257.000000 273.745512 257.000000 274.248289 257.000000 274.751569 257.000000 275.254346 257.000000 275.758130 257.000000 276.260907 257.000000 276.764188 257.000000 277.267468 257.000000 277.771252 257.000000 278.274532 257.000000 278.777812 257.000000 279.279583 257.000000 279.784373 257.000000 280.287150 257.000000 280.790431 257.000000 281.292704 257.000000 281.797495 257.000000 282.300272 257.000000 282.804055 257.000000 283.306833 257.000000 283.811120 257.000000 284.313897 257.000000 284.819693 257.000000 285.320457 257.000000 285.823738 257.000000 286.326515 257.000000 286.830299 257.000000 287.333579 257.000000 287.836859 257.000000 288.340140 257.000000 288.843420 257.000000 289.346700 257.000000 289.849477 257.000000 290.353261 257.000000 290.857045 257.000000 291.359822 257.000000 291.862599 257.000000 292.366383 257.000000 292.869663 257.000000 293.372943 257.000000 293.875721 257.000000 294.379504 257.000000 294.882785 257.000000 295.386065 257.000000 295.889345 257.000000 296.392626 257.000000 296.895403 257.000000 297.399186 257.000000 297.902467 257.000000 298.412290 257.000000 298.909028 257.000000 299.412308 257.000000 299.915085 257.000000 300.418365 257.000000 300.922149 257.000000 301.425430 257.000000 301.928207 257.000000 302.431990 257.000000 302.934767 257.000000 303.438048 257.000000 303.941328 257.000000 304.445112 257.000000 304.948392 257.000000 305.451673 257.000000 305.954450 257.000000 306.458233 257.000000 306.961514 257.000000 307.464291 257.000000 307.967571 257.000000 308.471355 257.000000 308.974132 257.000000 309.477412 257.000000 309.981196 257.000000 310.483973 257.000000 310.986247 257.000000 311.490534 257.000000 311.994317 257.000000 312.497598 257.000000 313.000878 257.000000 313.504159 257.000000 314.007439 257.000000 314.510719 257.000000 315.013496 257.000000 315.517280 257.000000 316.021064 257.000000 316.523841 257.000000 317.027121 257.000000 317.530402 257.000000 318.033682 257.000000 318.536459 257.000000 319.040243 257.000000 319.543020 257.000000 320.046300 257.000000 320.549581 257.000000 321.053364 257.000000 321.556645 257.000000 322.059925 257.000000 322.561696 257.000000 323.066486 257.000000 323.569766 257.000000 324.071537 257.000000 324.575824 257.000000 325.079607 257.000000 325.582384 257.000000 326.085665 257.000000 326.589448 257.000000 327.092729 257.000000 327.595506 257.000000 328.099793 257.000000 328.602570 257.000000 329.105347 257.000000 329.608627 257.000000 330.112411 257.000000 330.615691 257.000000 331.118469 257.000000 331.622252 257.000000 332.125029 257.000000 332.628310 257.000000 333.132093 257.000000 333.640407 257.000000 334.138151 257.000000 334.641935 257.000000 335.145215 257.000000 335.646985 257.000000 336.151776 257.000000 336.654553 257.000000 337.157833 257.000000 337.661617 257.000000 338.164897 257.000000 338.668178 257.000000 339.170955 257.000000 339.674738 257.000000 340.177515 257.000000 340.681802 257.000000 341.184076 257.000000 341.687357 257.000000 342.191140 257.000000 342.693917 257.000000 343.197701 257.000000 343.700981 257.000000 344.204262 257.000000 344.706032 257.000000 345.210319 257.000000 345.714606 257.000000 346.216880 257.000000 346.720160 257.000000 347.223944 257.000000 347.727224 257.000000 348.230001 257.000000 348.733282 257.000000 349.237066 257.000000 349.739843 257.000000 350.243123 257.000000 350.746403 257.000000 351.250187 257.000000 351.752964 257.000000 352.256245 257.000000 352.760028 257.000000 353.262805 257.000000 353.766086 257.000000 354.269366 257.000000 354.773653 257.000000 355.275927 257.000000 355.779207 257.000000 356.282488 257.000000 356.785768 257.000000 357.290055 257.000000 357.791322 257.000000 358.296112 257.000000 358.798889 257.000000 359.305190 257.000000 359.805450 257.000000 360.309234 257.000000 360.812514 257.000000 361.314285 257.000000 361.819075 257.000000 362.322355 257.000000 362.825636 257.000000 363.327406 257.000000 363.832197 257.000000 364.335477 257.000000 364.838254 257.000000 365.342038 257.000000 365.845318 257.000000 366.348598 257.000000 366.851879 257.000000 367.354656 257.000000 367.858440 257.000000 368.361720 257.000000 368.865000 257.000000 369.366771 257.000000 369.871561 257.000000 370.374841 257.000000 370.877619 257.000000 371.380899 257.000000 371.884683 257.000000 372.387963 257.000000 372.890740 257.000000 373.394524 257.000000 373.897301 257.000000 374.401084 257.000000 374.903862 257.000000 375.407645 257.000000 375.910926 257.000000 376.413703 257.000000 376.917486 257.000000 377.420767 257.000000 377.924047 257.000000 378.426824 257.000000 378.930608 257.000000 379.433385 257.000000 379.937169 257.000000 380.440449 257.000000 380.943226 257.000000 381.446507 257.000000 381.950290 257.000000 382.453571 257.000000 382.955341 257.000000 383.460131 257.000000 383.962908 257.000000 384.466189 257.000000 384.968463 257.000000 385.473253 257.000000 385.976030 257.000000 386.479310 257.000000 386.983094 257.000000 387.486374 257.000000 387.989151 257.000000 388.492432 257.000000 388.996215 257.000000 389.499496 257.000000 390.002776 257.000000 390.505553 257.000000 391.009337 257.000000 391.512617 257.000000 392.015898 257.000000 392.519178 257.000000 393.022459 257.000000 393.525236 257.000000 394.029523 257.000000 394.532300 257.000000 395.035580 257.000000 395.538357 257.000000 396.042141 257.000000 396.545421 257.000000 397.048702 257.000000 397.551479 257.000000 398.055766 257.000000 398.558543 257.000000 399.061823 257.000000 399.564600 257.000000 400.068384 257.000000 400.571664 257.000000 401.074945 257.000000 401.578225 257.000000 402.081505 257.000000 402.584282 257.000000 403.088066 257.000000 403.591346 257.000000 404.094124 257.000000 404.597404 257.000000 405.101188 257.000000 405.604468 257.000000 406.107245 257.000000 406.610525 257.000000 407.114309 257.000000 407.617086 257.000000 408.120367 257.000000 408.623647 257.000000 409.127431 257.000000 409.630208 257.000000 410.133488 257.000000 410.637272 257.000000 411.140552 257.000000 411.643329 257.000000 412.146610 257.000000 412.650393 257.000000 413.153170 257.000000 413.656451 257.000000 414.160234 257.000000 414.664018 257.000000 415.166795 257.000000 415.669572 257.000000 416.173356 257.000000 416.676636 257.000000 417.179917 257.000000 417.682694 257.000000 418.186477 257.000000 418.689255 257.000000 419.192535 257.000000 419.696319 257.000000 420.199599 257.000000 420.702879 257.000000 421.205656 257.000000 421.709440 257.000000 422.212217 257.000000 422.716001 257.000000 423.219281 257.000000 423.722058 257.000000 424.225842 257.000000 424.729122 257.000000 425.232403 257.000000 425.735180 257.000000 426.238460 257.000000 426.742244 257.000000 427.245021 257.000000 427.748805 257.000000 428.252085 257.000000 428.754862 257.000000 429.258143 257.000000 429.761423 257.000000 430.264703 257.000000 430.767984 257.000000 431.271264 257.000000 431.775048 257.000000 432.278328 257.000000 432.781608 257.000000 433.284386 257.000000 433.788169 257.000000 434.291450 257.000000 434.794730 257.000000 435.297507 257.000000 435.800787 257.000000 436.304068 257.000000 436.807852 257.000000 437.309622 257.000000 437.814412 257.000000 438.317693 257.000000 438.820470 257.000000 439.323750 257.000000 439.827031 257.000000 440.330311 257.000000 440.833591 257.000000 441.336872 257.000000 441.840152 257.000000 442.343432 257.000000 442.847216 257.000000 443.349993 257.000000 443.853777 257.000000 444.356554 257.000000 444.860338 257.000000 445.363618 257.000000 445.866395 257.000000 446.370179 257.000000 446.873459 257.000000 447.376739 257.000000 447.879517 257.000000 448.383300 257.000000 448.886581 257.000000 449.388351 257.000000 449.893141 257.000000 450.396422 257.000000 450.899702 257.000000 451.401473 257.000000 451.906263 257.000000 452.409543 257.000000 452.912320 257.000000 453.416607 257.000000 453.919384 257.000000 454.422665 257.000000 454.924435 257.000000 455.428722 257.000000 455.932506 257.000000 456.435283 257.000000 456.938563 257.000000 457.442347 257.000000 457.945627 257.000000 458.448405 257.000000 458.951685 257.000000 459.455469 257.000000 459.958749 257.000000 460.461526 257.000000 460.965310 257.000000 461.468590 257.000000 461.971870 257.000000 462.474648 257.000000 462.978935 257.000000 463.481208 257.000000 463.984992 257.000000 464.487769 257.000000 464.991049 257.000000 465.494330 257.000000 465.998114 257.000000 466.501394 257.000000 467.004674 257.000000 467.507955 257.000000 468.010732 257.000000 468.514012 257.000000 469.017796 257.000000 469.521076 257.000000 470.024357 257.000000 470.527134 257.000000 471.030414 257.000000 471.534198 257.000000 472.036975 257.000000 472.540255 257.000000 473.044039 257.000000 473.550339 257.000000 474.050096 257.000000 474.553377 257.000000 475.057664 257.000000 475.559937 257.000000 476.063721 257.000000 476.567001 257.000000 477.070785 257.000000 477.573059 257.000000 478.076339 257.000000 478.580123 257.000000 479.083403 257.000000 479.586180 257.000000 480.089964 257.000000 480.593245 257.000000 481.096525 257.000000 481.599805 257.000000 482.103086 257.000000 482.605863 257.000000 483.109646 257.000000 483.612927 257.000000 484.115704 257.000000 484.619488 257.000000 485.122768 257.000000 485.624538 257.000000 486.129329 257.000000 486.632106 257.000000 487.135889 257.000000 487.638667 257.000000 488.141947 257.000000 488.645731 257.000000 489.149514 257.000000 489.650782 257.000000 490.155572 257.000000 490.658852 257.000000 491.161629 257.000000 491.664910 257.000000 492.168190 257.000000 492.671974 257.000000 493.174751 257.000000 493.678031 257.000000 494.181815 257.000000 494.684592 257.000000 495.188376 257.000000 495.691153 257.000000 496.194936 257.000000 496.698217 257.000000 497.201497 257.000000 497.704777 257.000000 498.208058 257.000000 498.710835 257.000000 499.214619 257.000000 499.717899 257.000000 500.220676 257.000000 500.724460 257.000000 501.227237 257.000000 501.730517 257.000000 502.234301 257.000000 502.737581 257.000000 503.239352 257.000000 503.743639 257.000000 504.247422 257.000000 504.750703 257.000000 505.253480 257.000000 505.756760 257.000000 506.260544 257.000000 506.763824 257.000000 507.266601 257.000000 507.770385 257.000000 508.273162 257.000000 508.776946 257.000000 509.280226 257.000000 509.783003 257.000000 510.286787 257.000000 510.790067 257.000000 511.293348 257.000000 511.796125 257.000000 512.299405 257.000000 512.803189 257.000000 513.304959 257.000000 513.808743 257.000000 514.312023 257.000000 514.815304 257.000000 515.318584 257.000000 515.821865 257.000000 516.325145 257.000000 516.828425 257.000000 517.331706 257.000000 517.834986 257.000000 518.338266 257.000000 518.841547 257.000000 519.344827 257.000000 519.848108 257.000000 520.351388 257.000000 520.854668 257.000000 521.357949 257.000000 521.861229 257.000000 522.364509 257.000000 522.867790 257.000000 523.371070 257.000000 523.874351 257.000000 524.377631 257.000000 524.880911 257.000000 525.384192 257.000000 525.887472 257.000000 526.390752 257.000000 526.894033 257.000000 527.397313 257.000000 527.900594 257.000000 528.403874 257.000000 528.907154 257.000000 529.410435 257.000000 529.913715 257.000000 530.416996 257.000000 530.920276 257.000000 531.423556 257.000000 531.926837 257.000000 532.430117 257.000000 532.933397 257.000000 533.436678 257.000000 533.939958 257.000000 534.443239 257.000000 534.946519 257.000000 535.449799 257.000000 535.953080 257.000000 536.456360 257.000000 536.959640 257.000000 537.462921 257.000000 537.966201 257.000000 538.469482 257.000000 538.972762 257.000000 539.476042 257.000000 539.979323 257.000000 540.482603 257.000000 540.985883 257.000000 541.489164 257.000000 541.992444 257.000000 542.495725 257.000000 542.999005 257.000000 543.502285 257.000000 544.005566 257.000000 544.508846 257.000000 545.012127 257.000000 545.515407 257.000000 546.018687 257.000000 546.521968 257.000000 547.025248 257.000000 547.528528 257.000000 548.031809 257.000000 548.535089 257.000000 549.038370 257.000000 549.541650 257.000000 550.044930 257.000000 550.548211 257.000000 551.051491 257.000000 551.554771 257.000000 552.058052 257.000000 552.561332 257.000000 553.064613 257.000000 553.567893 257.000000 554.076206 257.000000 554.574454 257.000000 555.077734 257.000000 555.581014 257.000000 556.084295 257.000000 556.587575 257.000000 557.090856 257.000000 557.594136 257.000000 558.097416 257.000000 558.600697 257.000000 559.103977 257.000000 559.607258 257.000000 560.110538 257.000000 560.613818 257.000000 561.117099 257.000000 561.620379 257.000000 562.123659 257.000000 562.626940 257.000000 563.130220 257.000000 563.633501 257.000000 564.136781 257.000000 564.640061 257.000000 565.143342 257.000000 565.646622 257.000000 566.149902 257.000000 566.653183 257.000000 567.156463 257.000000 567.659744 257.000000 568.163024 257.000000 568.666304 257.000000 569.169585 257.000000 569.672865 257.000000 570.176145 257.000000 570.679426 257.000000 571.182706 257.000000 571.685987 257.000000 572.189267 257.000000 572.692547 257.000000 573.195828 257.000000 573.699108 257.000000 574.202388 257.000000 574.705669 257.000000 575.208949 257.000000 575.712230 257.000000 576.215510 257.000000 576.718790 257.000000 577.222071 257.000000 577.725351 257.000000 578.228632 257.000000 578.731912 257.000000 579.235192 257.000000 579.738473 257.000000 580.241753 257.000000 580.745033 257.000000 581.248314 257.000000 581.751594 257.000000 582.254875 257.000000 582.758155 257.000000 583.261435 257.000000 583.764716 257.000000 584.267996 257.000000 584.771276 257.000000 585.274557 257.000000 585.777837 257.000000 586.281118 257.000000 586.784398 257.000000 587.287678 257.000000 587.790959 257.000000 588.294239 257.000000 588.797519 257.000000 589.300800 257.000000 589.804080 257.000000 590.307361 257.000000 590.810641 257.000000 591.313921 257.000000 591.817202 257.000000 592.320482 257.000000 592.823763 257.000000 593.327043 257.000000 593.830323 257.000000 594.333604 257.000000 594.836884 257.000000 595.340164 257.000000 595.843445 257.000000 596.346725 257.000000 596.850006 257.000000 597.353286 257.000000 597.856566 257.000000 598.359847 257.000000 598.863127 257.000000 599.366407 257.000000 599.869688 257.000000 600.372968 257.000000 600.876249 257.000000 601.379529 257.000000 601.882809 257.000000 602.386090 257.000000 602.889370 257.000000 603.392650 257.000000 603.895931 257.000000 604.399211 257.000000 604.902492 257.000000 605.405772 257.000000 605.909052 257.000000 606.412333 257.000000 606.915613 257.000000 607.418894 257.000000 607.922174 257.000000 608.425454 257.000000 608.928735 257.000000 609.432015 257.000000 609.935295 257.000000 610.438576 257.000000 610.941856 257.000000 611.445137 257.000000 611.948417 257.000000 612.451697 257.000000 612.954978 257.000000 613.458258 257.000000 613.961538 257.000000" /></g></g><g class="titles"><text class="title" x="467.0" y="580">tcp_300kbps</text></g><g class="plot overlay" transform="translate(154, 20)"><g class="series serie-0 color-0" /><g class="series serie-1 color-1" /><g class="series serie-2 color-2" /></g><g class="plot text-overlay" transform="translate(154, 20)"><g class="series serie-0 color-0" /><g class="series serie-1 color-1" /><g class="series serie-2 color-2" /></g><g class="plot tooltip-overlay" transform="translate(154, 20)"><g class="tooltip" style="opacity: 0" transform="translate(0 0)"><rect class="tooltip-box" height="0" rx="0" ry="0" width="0" /><g class="text" /></g></g><g class="legends" transform="translate(10, 30)"><g class="legend reactive activate-serie" id="activate-serie-0"><rect class="color-0 reactive" height="12" width="12" x="0.0" y="1.0" /><text x="17.0" y="11.2">qdelay</text></g><g class="legend reactive activate-serie" id="activate-serie-1"><rect class="color-1 reactive" height="12" width="12" x="0.0" y="22.0" /><text x="17.0" y="32.2">txed(kbps)</text></g><g class="legend reactive activate-serie" id="activate-serie-2"><rect class="color-2 reactive" height="12" width="12" x="0.0" y="43.0" /><text x="17.0" y="53.2">topo(kbps)</text></g></g><g class="legends" transform="translate(790, 30)" /></g></svg>