<?xml version='1.0' encoding='utf-8'?>
<svg xmlns:xlink="http://www.w3.org/1999/xlink" class="pygal-chart" id="chart-a344ee5b-1301-4336-9a96-afe0032f3d60" viewBox="0 0 800 600" xmlns="http://www.w3.org/2000/svg"><!--Generated with pygal 2.4.0 (etree) ©Kozea 2012-2016 on 2019-09-27--><!--http://pygal.org--><!--http://github.com/Kozea/pygal--><defs><style type="text/css">#chart-a344ee5b-1301-4336-9a96-afe0032f3d60{-webkit-user-select:none;-webkit-font-smoothing:antialiased;font-family:Consolas,"Liberation Mono",Menlo,Courier,monospace}#chart-a344ee5b-1301-4336-9a96-afe0032f3d60 .title{font-family:Consolas,"Liberation Mono",Menlo,Courier,monospace;font-size:16px}#chart-a344ee5b-1301-4336-9a96-afe0032f3d60 .legends .legend text{font-family:Consolas,"Liberation Mono",Menlo,Courier,monospace;font-size:14px}#chart-a344ee5b-1301-4336-9a96-afe0032f3d60 .axis text{font-family:Consolas,"Liberation Mono",Menlo,Courier,monospace;font-size:10px}#chart-a344ee5b-1301-4336-9a96-afe0032f3d60 .axis text.major{font-family:Consolas,"Liberation Mono",Menlo,Courier,monospace;font-size:10px}#chart-a344ee5b-1301-4336-9a96-afe0032f3d60 .text-overlay text.value{font-family:Consolas,"Liberation Mono",Menlo,Courier,monospace;font-size:16px}#chart-a344ee5b-1301-4336-9a96-afe0032f3d60 .text-overlay text.label{font-family:Consolas,"Liberation Mono",Menlo,Courier,monospace;font-size:10px}#chart-a344ee5b-1301-4336-9a96-afe0032f3d60 .tooltip{font-family:Consolas,"Liberation Mono",Menlo,Courier,monospace;font-size:14px}#chart-a344ee5b-1301-4336-9a96-afe0032f3d60 text.no_data{font-family:Consolas,"Liberation Mono",Menlo,Courier,monospace;font-size:64px}
#chart-a344ee5b-1301-4336-9a96-afe0032f3d60{background-color:transparent}#chart-a344ee5b-1301-4336-9a96-afe0032f3d60 path,#chart-a344ee5b-1301-4336-9a96-afe0032f3d60 line,#chart-a344ee5b-1301-4336-9a96-afe0032f3d60 rect,#chart-a344ee5b-1301-4336-9a96-afe0032f3d60 circle{-webkit-transition:100ms ease-in;-moz-transition:100ms ease-in;transition:100ms ease-in}#chart-a344ee5b-1301-4336-9a96-afe0032f3d60 .graph &gt; .background{fill:transparent}#chart-a344ee5b-1301-4336-9a96-afe0032f3d60 .plot &gt; .background{fill:transparent}#chart-a344ee5b-1301-4336-9a96-afe0032f3d60 .graph{fill:#000000}#chart-a344ee5b-1301-4336-9a96-afe0032f3d60 text.no_data{fill:#000000}#chart-a344ee5b-1301-4336-9a96-afe0032f3d60 .title{fill:#000000}#chart-a344ee5b-1301-4336-9a96-afe0032f3d60 .legends .legend text{fill:#000000}#chart-a344ee5b-1301-4336-9a96-afe0032f3d60 .legends .legend:hover text{fill:#000000}#chart-a344ee5b-1301-4336-9a96-afe0032f3d60 .axis .line{stroke:#000000}#chart-a344ee5b-1301-4336-9a96-afe0032f3d60 .axis .guide.line{stroke:#006400d}#chart-a344ee5b-1301-4336-9a96-afe0032f3d60 .axis .major.line{stroke:#000000}#chart-a344ee5b-1301-4336-9a96-afe0032f3d60 .axis text.major{fill:#000000}#chart-a344ee5b-1301-4336-9a96-afe0032f3d60 .axis.y .guides:hover .guide.line,#chart-a344ee5b-1301-4336-9a96-afe0032f3d60 .line-graph .axis.x .guides:hover .guide.line,#chart-a344ee5b-1301-4336-9a96-afe0032f3d60 .stackedline-graph .axis.x .guides:hover .guide.line,#chart-a344ee5b-1301-4336-9a96-afe0032f3d60 .xy-graph .axis.x .guides:hover .guide.line{stroke:#000000}#chart-a344ee5b-1301-4336-9a96-afe0032f3d60 .axis .guides:hover text{fill:#000000}#chart-a344ee5b-1301-4336-9a96-afe0032f3d60 .reactive{fill-opacity:.6;stroke-opacity:.8}#chart-a344ee5b-1301-4336-9a96-afe0032f3d60 .ci{stroke:#000000}#chart-a344ee5b-1301-4336-9a96-afe0032f3d60 .reactive.active,#chart-a344ee5b-1301-4336-9a96-afe0032f3d60 .active .reactive{fill-opacity:.9;stroke-opacity:.9;stroke-width:4}#chart-a344ee5b-1301-4336-9a96-afe0032f3d60 .ci .reactive.active{stroke-width:1.5}#chart-a344ee5b-1301-4336-9a96-afe0032f3d60 .series text{fill:#000000}#chart-a344ee5b-1301-4336-9a96-afe0032f3d60 .tooltip rect{fill:transparent;stroke:#000000;-webkit-transition:opacity 100ms ease-in;-moz-transition:opacity 100ms ease-in;transition:opacity 100ms ease-in}#chart-a344ee5b-1301-4336-9a96-afe0032f3d60 .tooltip .label{fill:#000000}#chart-a344ee5b-1301-4336-9a96-afe0032f3d60 .tooltip .label{fill:#000000}#chart-a344ee5b-1301-4336-9a96-afe0032f3d60 .tooltip .legend{font-size:.8em;fill:#006400d}#chart-a344ee5b-1301-4336-9a96-afe0032f3d60 .tooltip .x_label{font-size:.6em;fill:#000000}#chart-a344ee5b-1301-4336-9a96-afe0032f3d60 .tooltip .xlink{font-size:.5em;text-decoration:underline}#chart-a344ee5b-1301-4336-9a96-afe0032f3d60 .tooltip .value{font-size:1.5em}#chart-a344ee5b-1301-4336-9a96-afe0032f3d60 .bound{font-size:.5em}#chart-a344ee5b-1301-4336-9a96-afe0032f3d60 .max-value{font-size:.75em;fill:#006400d}#chart-a344ee5b-1301-4336-9a96-afe0032f3d60 .map-element{fill:transparent;stroke:#006400d !important}#chart-a344ee5b-1301-4336-9a96-afe0032f3d60 .map-element .reactive{fill-opacity:inherit;stroke-opacity:inherit}#chart-a344ee5b-1301-4336-9a96-afe0032f3d60 .color-0,#chart-a344ee5b-1301-4336-9a96-afe0032f3d60 .color-0 a:visited{stroke:#006400;fill:#006400}#chart-a344ee5b-1301-4336-9a96-afe0032f3d60 .color-1,#chart-a344ee5b-1301-4336-9a96-afe0032f3d60 .color-1 a:visited{stroke:#0022AA;fill:#0022AA}#chart-a344ee5b-1301-4336-9a96-afe0032f3d60 .color-2,#chart-a344ee5b-1301-4336-9a96-afe0032f3d60 .color-2 a:visited{stroke:#FF1111;fill:#FF1111}#chart-a344ee5b-1301-4336-9a96-afe0032f3d60 .text-overlay .color-0 text{fill:black}#chart-a344ee5b-1301-4336-9a96-afe0032f3d60 .text-overlay .color-1 text{fill:black}#chart-a344ee5b-1301-4336-9a96-afe0032f3d60 .text-overlay .color-2 text{fill:black}
#chart-a344ee5b-1301-4336-9a96-afe0032f3d60 text.no_data{text-anchor:middle}#chart-a344ee5b-1301-4336-9a96-afe0032f3d60 .guide.line{fill:none}#chart-a344ee5b-1301-4336-9a96-afe0032f3d60 .centered{text-anchor:middle}#chart-a344ee5b-1301-4336-9a96-afe0032f3d60 .title{text-anchor:middle}#chart-a344ee5b-1301-4336-9a96-afe0032f3d60 .legends .legend text{fill-opacity:1}#chart-a344ee5b-1301-4336-9a96-afe0032f3d60 .axis.x text{text-anchor:middle}#chart-a344ee5b-1301-4336-9a96-afe0032f3d60 .axis.x:not(.web) text[transform]{text-anchor:start}#chart-a344ee5b-1301-4336-9a96-afe0032f3d60 .axis.x:not(.web) text[transform].backwards{text-anchor:end}#chart-a344ee5b-1301-4336-9a96-afe0032f3d60 .axis.y text{text-anchor:end}#chart-a344ee5b-1301-4336-9a96-afe0032f3d60 .axis.y text[transform].backwards{text-anchor:start}#chart-a344ee5b-1301-4336-9a96-afe0032f3d60 .axis.y2 text{text-anchor:start}#chart-a344ee5b-1301-4336-9a96-afe0032f3d60 .axis.y2 text[transform].backwards{text-anchor:end}#chart-a344ee5b-1301-4336-9a96-afe0032f3d60 .axis .guide.line{stroke-dasharray:4,4}#chart-a344ee5b-1301-4336-9a96-afe0032f3d60 .axis .major.guide.line{stroke-dasharray:6,6}#chart-a344ee5b-1301-4336-9a96-afe0032f3d60 .horizontal .axis.y .guide.line,#chart-a344ee5b-1301-4336-9a96-afe0032f3d60 .horizontal .axis.y2 .guide.line,#chart-a344ee5b-1301-4336-9a96-afe0032f3d60 .vertical .axis.x .guide.line{opacity:0}#chart-a344ee5b-1301-4336-9a96-afe0032f3d60 .horizontal .axis.always_show .guide.line,#chart-a344ee5b-1301-4336-9a96-afe0032f3d60 .vertical .axis.always_show .guide.line{opacity:1 !important}#chart-a344ee5b-1301-4336-9a96-afe0032f3d60 .axis.y .guides:hover .guide.line,#chart-a344ee5b-1301-4336-9a96-afe0032f3d60 .axis.y2 .guides:hover .guide.line,#chart-a344ee5b-1301-4336-9a96-afe0032f3d60 .axis.x .guides:hover .guide.line{opacity:1}#chart-a344ee5b-1301-4336-9a96-afe0032f3d60 .axis .guides:hover text{opacity:1}#chart-a344ee5b-1301-4336-9a96-afe0032f3d60 .nofill{fill:none}#chart-a344ee5b-1301-4336-9a96-afe0032f3d60 .subtle-fill{fill-opacity:.2}#chart-a344ee5b-1301-4336-9a96-afe0032f3d60 .dot{stroke-width:1px;fill-opacity:1}#chart-a344ee5b-1301-4336-9a96-afe0032f3d60 .dot.active{stroke-width:5px}#chart-a344ee5b-1301-4336-9a96-afe0032f3d60 .dot.negative{fill:transparent}#chart-a344ee5b-1301-4336-9a96-afe0032f3d60 text,#chart-a344ee5b-1301-4336-9a96-afe0032f3d60 tspan{stroke:none !important}#chart-a344ee5b-1301-4336-9a96-afe0032f3d60 .series text.active{opacity:1}#chart-a344ee5b-1301-4336-9a96-afe0032f3d60 .tooltip rect{fill-opacity:.95;stroke-width:.5}#chart-a344ee5b-1301-4336-9a96-afe0032f3d60 .tooltip text{fill-opacity:1}#chart-a344ee5b-1301-4336-9a96-afe0032f3d60 .showable{visibility:hidden}#chart-a344ee5b-1301-4336-9a96-afe0032f3d60 .showable.shown{visibility:visible}#chart-a344ee5b-1301-4336-9a96-afe0032f3d60 .gauge-background{fill:rgba(229,229,229,1);stroke:none}#chart-a344ee5b-1301-4336-9a96-afe0032f3d60 .bg-lines{stroke:transparent;stroke-width:2px}</style><script type="text/javascript">window.pygal = window.pygal || {};window.pygal.config = window.pygal.config || {};window.pygal.config['a344ee5b-1301-4336-9a96-afe0032f3d60'] = {"dynamic_print_values": false, "truncate_label": null, "inner_radius": 0, "print_values": false, "xrange": null, "box_mode": "extremes", "title": null, "legend_at_bottom_columns": null, "height": 600, "legend_at_bottom": false, "show_legend": true, "show_dots": false, "explicit_size": false, "y_labels_major": null, "show_minor_x_labels": true, "width": 800, "force_uri_protocol": "https", "half_pie": false, "style": {"major_label_font_family": "Consolas, \"Liberation Mono\", Menlo, Courier, monospace", "title_font_family": "Consolas, \"Liberation Mono\", Menlo, Courier, monospace", "stroke_opacity": ".8", "legend_font_family": "Consolas, \"Liberation Mono\", Menlo, Courier, monospace", "colors": ["#006400", "#0022AA", "#FF1111", "#FFEBCD", "#DC143C", "#FFFFFF", "#6495ED", "#B0C4DE", "#D2691E", "#8B0000"], "legend_font_size": 14, "no_data_font_family": "Consolas, \"Liberation Mono\", Menlo, Courier, monospace", "major_label_font_size": 10, "value_background": "rgba(229, 229, 229, 1)", "ci_colors": [], "label_font_family": "Consolas, \"Liberation Mono\", Menlo, Courier, monospace", "label_font_size": 10, "tooltip_font_size": 14, "value_font_size": 16, "font_family": "Consolas, \"Liberation Mono\", Menlo, Courier, monospace", "opacity": ".6", "foreground": "#000000", "plot_background": "transparent", "value_label_font_size": 10, "value_label_font_family": "Consolas, \"Liberation Mono\", Menlo, Courier, monospace", "background": "transparent", "no_data_font_size": 64, "value_colors": [], "guide_stroke_dasharray": "4,4", "transition": "100ms ease-in", "foreground_subtle": "#006400d", "value_font_family": "Consolas, \"Liberation Mono\", Menlo, Courier, monospace", "tooltip_font_family": "Consolas, \"Liberation Mono\", Menlo, Courier, monospace", "title_font_size": 16, "stroke_opacity_hover": ".9", "major_guide_stroke_dasharray": "6,6", "opacity_hover": ".9", "foreground_strong": "#000000"}, "x_label_rotation": 0, "fill": false, "missing_value_fill_truncation": "x", "zero": 0, "margin_right": null, "interpolation_parameters": {}, "x_labels_major": null, "rounded_bars": null, "show_y_labels": true, "dots_size": 2.5, "show_y_guides": true, "show_minor_y_labels": true, "x_labels": null, "y_title": null, "order_min": null, "formatter": null, "disable_xml_declaration": false, "strict": false, "css": ["file://style.css", "file://graph.css"], "tooltip_fancy_mode": true, "defs": [], "show_only_major_dots": false, "y_label_rotation": 0, "show_x_labels": true, "min_scale": 4, "show_x_guides": false, "spacing": 10, "x_labels_major_count": null, "pretty_print": false, "tooltip_border_radius": 0, "interpolate": null, "js": ["//kozea.github.io/pygal.js/2.0.x/pygal-tooltips.min.js"], "y_labels": null, "stroke_style": null, "print_labels": false, "interpolation_precision": 250, "x_title": "tcp_2000kbps", "y_labels_major_every": null, "logarithmic": false, "legends": ["qdelay", "txed(kbps)", "topo(kbps)"], "max_scale": 16, "print_zeroes": true, "no_data_text": "No data", "truncate_legend": null, "x_labels_major_every": null, "secondary_range": null, "legend_box_size": 12, "no_prefix": false, "stroke": true, "stack_from_top": false, "include_x_axis": false, "range": [0, 2400], "classes": ["pygal-chart"], "margin_top": null, "margin_left": null, "y_labels_major_count": null, "margin_bottom": null, "inverse_y_axis": false, "margin": 20, "allow_interruptions": false, "print_values_position": "center"}</script><script type="text/javascript" xlink:href="https://kozea.github.io/pygal.js/2.0.x/pygal-tooltips.min.js" /></defs><title>Pygal</title><g class="graph xy-graph vertical"><rect class="background" height="600" width="800" x="0" y="0" /><g class="plot" transform="translate(160, 20)"><rect class="background" height="514" width="620.0" x="0" y="0" /><g class="axis y always_show"><g class="guides"><path class="axis major line" d="M0.000000 504.115385 h620.000000" /><text class="major" x="-5" y="507.615384615">0</text><title>0</title></g><g class="guides"><path class="guide line" d="M0.000000 462.929487 h620.000000" /><text class="" x="-5" y="466.429487179">200</text><title>200</title></g><g class="guides"><path class="guide line" d="M0.000000 421.743590 h620.000000" /><text class="" x="-5" y="425.243589744">400</text><title>400</title></g><g class="guides"><path class="guide line" d="M0.000000 380.557692 h620.000000" /><text class="" x="-5" y="384.057692308">600</text><title>600</title></g><g class="guides"><path class="guide line" d="M0.000000 339.371795 h620.000000" /><text class="" x="-5" y="342.871794872">800</text><title>800</title></g><g class="guides"><path class="major guide line" d="M0.000000 298.185897 h620.000000" /><text class="major" x="-5" y="301.685897436">1000</text><title>1000</title></g><g class="guides"><path class="guide line" d="M0.000000 257.000000 h620.000000" /><text class="" x="-5" y="260.5">1200</text><title>1200</title></g><g class="guides"><path class="guide line" d="M0.000000 215.814103 h620.000000" /><text class="" x="-5" y="219.314102564">1400</text><title>1400</title></g><g class="guides"><path class="guide line" d="M0.000000 174.628205 h620.000000" /><text class="" x="-5" y="178.128205128">1600</text><title>1600</title></g><g class="guides"><path class="guide line" d="M0.000000 133.442308 h620.000000" /><text class="" x="-5" y="136.942307692">1800</text><title>1800</title></g><g class="guides"><path class="major guide line" d="M0.000000 92.256410 h620.000000" /><text class="major" x="-5" y="95.7564102564">2000</text><title>2000</title></g><g class="guides"><path class="guide line" d="M0.000000 51.070513 h620.000000" /><text class="" x="-5" y="54.5705128205">2200</text><title>2200</title></g><g class="guides"><path class="guide line" d="M0.000000 9.884615 h620.000000" /><text class="" x="-5" y="13.3846153846">2400</text><title>2400</title></g></g><g class="axis x"><path class="line" d="M0.000000 0.000000 v514.000000" /><g class="guides"><path class="guide line" d="M60.248248 0.000000 v514.000000" /><text class="" x="60.2482477839" y="529.0">10</text><title>10</title></g><g class="guides"><path class="guide line" d="M110.052213 0.000000 v514.000000" /><text class="" x="110.052212919" y="529.0">20</text><title>20</title></g><g class="guides"><path class="guide line" d="M159.856178 0.000000 v514.000000" /><text class="" x="159.856178053" y="529.0">30</text><title>30</title></g><g class="guides"><path class="guide line" d="M209.660143 0.000000 v514.000000" /><text class="" x="209.660143188" y="529.0">40</text><title>40</title></g><g class="guides"><path class="guide line" d="M259.464108 0.000000 v514.000000" /><text class="" x="259.464108323" y="529.0">50</text><title>50</title></g><g class="guides"><path class="guide line" d="M309.268073 0.000000 v514.000000" /><text class="" x="309.268073458" y="529.0">60</text><title>60</title></g><g class="guides"><path class="guide line" d="M359.072039 0.000000 v514.000000" /><text class="" x="359.072038593" y="529.0">70</text><title>70</title></g><g class="guides"><path class="guide line" d="M408.876004 0.000000 v514.000000" /><text class="" x="408.876003727" y="529.0">80</text><title>80</title></g><g class="guides"><path class="guide line" d="M458.679969 0.000000 v514.000000" /><text class="" x="458.679968862" y="529.0">90</text><title>90</title></g><g class="guides"><path class="guide line" d="M508.483934 0.000000 v514.000000" /><text class="" x="508.483933997" y="529.0">100</text><title>100</title></g><g class="guides"><path class="guide line" d="M558.287899 0.000000 v514.000000" /><text class="" x="558.287899132" y="529.0">110</text><title>110</title></g></g><g class="series serie-0 color-0"><path class="line reactive nofill" d="M11.923077 504.115385 L12.420957 504.115385 12.918917 504.115385 13.417037 503.909455 13.915076 503.703526 14.413036 503.909455 14.911076 494.230769 15.409115 491.965545 15.907130 480.639423 16.405170 466.018429 16.903209 460.870192 17.899388 443.572115 18.895368 443.366186 19.393507 449.132212 19.891796 503.909455 20.389587 503.909455 20.887626 503.909455 21.385815 504.115385 21.883706 503.909455 22.381745 503.703526 22.879785 503.703526 23.377924 503.909455 23.875964 503.703526 24.374003 503.703526 24.872043 503.909455 25.370083 504.115385 25.868122 503.909455 26.366162 503.703526 26.864003 503.085737 27.362241 503.909455 27.860281 503.703526 28.358221 503.497596 28.856360 501.850160 29.354300 494.436699 29.852340 502.056090 30.350479 503.085737 30.848519 503.085737 31.346559 503.291667 31.844499 502.262019 32.342638 502.056090 32.840678 500.202724 33.338618 500.820513 33.836757 500.202724 34.334697 499.996795 34.832737 498.967147 35.330926 498.143429 35.828816 495.672276 36.326955 496.495994 36.824995 496.290064 37.323034 494.848558 37.820974 494.848558 38.319114 493.612981 38.817153 493.201122 39.315193 493.201122 39.813282 491.965545 40.311173 490.318109 40.809461 490.935897 41.307352 490.524038 41.805292 490.112179 42.303431 489.906250 42.801471 489.288462 43.299510 488.464744 43.797550 489.082532 44.295639 487.435096 44.793530 487.229167 45.291569 487.023237 45.789858 487.435096 46.287748 486.199519 46.785688 484.758013 47.283728 485.375801 47.781767 485.993590 48.279807 484.552083 48.777847 484.346154 49.275886 483.110577 49.773926 483.110577 50.271866 482.286859 50.770005 482.286859 51.268045 482.904647 51.766085 482.904647 52.264025 483.110577 52.763110 482.080929 53.260104 481.463141 53.758243 481.463141 54.256283 480.021635 54.754323 479.403846 55.252362 479.197917 55.750402 478.580128 56.248342 478.580128 56.746481 478.786058 57.244421 478.374199 57.743606 478.786058 58.240501 477.962340 58.738540 477.756410 59.236679 477.550481 59.734619 476.108974 60.232759 476.314904 60.730848 474.873397 61.228888 474.873397 61.726928 475.285256 62.224967 473.843750 62.723007 473.431891 63.221046 472.608173 63.719086 473.843750 64.217126 472.814103 64.715165 471.784455 65.213205 471.372596 65.711245 468.901442 66.209284 466.636218 66.707324 468.695513 67.205364 468.489583 67.703403 468.077724 68.201443 467.871795 68.699483 466.224359 69.197522 464.165064 69.695562 464.782853 70.193602 464.782853 70.691641 463.959135 71.189681 463.341346 71.687721 463.753205 72.185760 462.311699 72.683800 462.105769 73.181839 461.899840 73.679879 461.693910 74.177919 460.664263 74.675958 460.870192 75.173998 460.664263 75.672038 460.664263 76.170077 461.076122 76.668117 460.664263 77.166157 459.428686 77.664196 460.046474 78.162236 459.016827 78.660276 457.987179 79.158315 457.781250 79.656355 457.575321 80.154395 457.575321 80.652434 456.545673 81.150474 457.781250 81.648514 457.369391 82.146553 455.927885 82.644593 455.516026 83.142633 455.927885 83.640672 455.927885 84.138712 454.898237 84.636751 455.104167 85.134791 455.927885 85.632831 457.163462 86.130870 456.957532 86.628910 456.545673 87.126950 455.516026 87.624989 453.662660 88.123029 454.898237 88.621069 455.516026 89.119108 455.104167 89.617148 453.868590 90.115188 453.662660 90.613227 453.044872 91.111267 452.633013 91.609307 453.250801 92.107346 453.250801 92.605386 453.868590 93.103426 452.838942 93.601465 452.633013 94.099505 453.456731 94.597544 452.633013 95.095584 452.633013 95.593624 451.603365 96.091663 451.809295 96.589703 450.779647 97.087743 450.573718 97.585782 450.161859 98.083822 450.573718 98.581862 449.955929 99.080399 450.161859 99.577941 450.161859 100.075981 450.779647 100.574020 449.955929 101.072060 448.926282 101.570100 449.544071 102.068139 449.955929 102.566179 449.750000 103.064219 449.750000 103.562258 449.544071 104.060298 448.720353 104.558338 447.072917 105.056377 446.866987 105.554417 446.249199 106.052456 446.661058 106.550496 445.837340 107.048536 446.249199 107.546575 444.395833 108.044615 444.189904 108.542655 443.572115 109.040694 443.572115 109.538734 443.572115 110.036774 443.572115 110.534813 443.572115 111.032853 443.778045 111.530893 444.601763 112.028932 445.219551 112.527470 481.669071 113.025012 480.845353 113.523051 484.963942 114.021091 502.879808 114.520127 497.113782 115.017170 487.846955 115.515210 487.023237 116.013250 485.375801 116.511289 482.698718 117.009329 482.492788 117.507368 482.080929 118.005408 482.492788 118.503448 481.463141 119.001487 480.845353 119.499527 480.227564 119.997567 480.021635 120.495606 478.786058 120.993646 477.550481 121.491686 478.991987 121.990223 478.374199 122.487765 478.991987 122.985805 477.550481 123.483844 476.520833 123.981884 475.285256 124.479924 475.491186 124.977963 475.903045 125.476003 475.697115 125.974043 475.285256 126.472082 474.873397 126.970122 474.667468 127.468161 473.843750 127.966201 473.843750 128.464241 472.196314 128.962280 472.814103 129.460320 473.020032 129.959356 471.578526 130.456399 470.960737 130.954439 469.107372 131.452479 469.107372 131.950518 471.578526 132.448558 470.137019 132.946598 471.166667 133.444637 470.754808 133.942677 467.459936 134.440717 467.254006 134.938756 468.077724 135.436796 467.665865 135.934836 467.871795 136.432875 467.459936 136.930915 466.224359 137.428955 465.606571 137.926994 465.194712 138.425034 463.753205 138.923073 463.753205 139.421113 462.517628 139.919153 462.311699 140.417192 462.517628 140.915232 462.311699 141.413272 461.487981 141.911311 460.870192 142.409351 461.076122 142.907391 462.311699 143.405430 461.487981 143.903470 462.723558 144.401510 462.929487 144.899549 460.870192 145.397589 460.664263 145.895629 460.458333 146.393668 460.458333 146.891708 458.604968 147.389748 457.369391 147.887787 457.163462 148.385827 457.781250 148.883866 459.222756 149.381906 459.016827 149.879946 457.369391 150.377985 456.957532 150.876025 456.957532 151.375061 456.751603 151.872104 455.721955 152.370144 456.545673 152.868184 455.721955 153.366223 455.516026 153.864263 454.280449 154.362303 454.486378 154.860342 454.898237 155.358382 454.280449 155.856422 455.721955 156.354461 455.927885 156.852501 455.721955 157.350541 455.310096 157.849078 454.486378 158.346620 454.074519 158.844660 452.838942 159.342699 453.250801 159.840739 453.662660 160.338778 453.456731 160.836818 452.015224 161.334858 451.809295 161.832897 449.750000 162.330937 449.955929 162.828977 449.338141 163.327016 450.779647 163.825056 450.779647 164.323096 451.397436 164.821135 450.985577 165.319175 450.573718 165.817215 450.779647 166.315254 449.338141 166.813294 449.132212 167.311334 448.720353 167.809373 448.102564 168.307413 446.249199 168.805453 448.926282 169.303492 449.750000 169.801532 449.132212 170.299572 447.896635 170.797611 446.866987 171.295651 446.249199 171.793690 447.072917 172.291730 446.455128 172.789770 446.043269 173.287809 446.043269 173.785849 445.837340 174.283889 446.249199 174.781928 447.072917 175.279968 446.866987 175.778008 446.661058 176.276047 445.219551 176.774087 443.983974 177.272127 444.601763 177.770166 444.601763 178.268206 449.338141 178.766744 478.168269 179.264285 477.962340 179.762325 482.286859 180.260365 481.669071 180.758404 482.698718 181.256444 482.904647 181.754483 481.875000 182.252523 480.639423 182.750563 481.669071 183.248602 480.433494 183.746642 479.815705 184.244682 479.609776 184.742721 478.374199 185.240761 478.374199 185.738801 478.991987 186.236840 478.168269 186.734880 477.344551 187.232920 476.108974 187.730959 476.314904 188.228999 477.550481 188.727039 477.756410 189.225078 476.108974 189.723118 473.020032 190.221158 472.196314 190.719197 472.814103 191.217237 472.814103 191.715277 472.608173 192.213316 472.196314 192.711356 471.784455 193.209395 470.960737 193.707435 471.166667 194.205475 470.137019 194.703514 470.342949 195.201554 472.196314 195.699594 472.608173 196.197633 471.990385 196.695673 470.137019 197.193713 469.107372 197.691752 468.901442 198.190290 468.695513 198.687832 468.695513 199.185871 466.224359 199.684409 466.224359 200.181951 464.782853 200.679990 465.606571 201.178030 466.430288 201.676070 466.842147 202.174109 466.018429 202.672149 466.018429 203.170687 466.018429 203.668228 465.606571 204.166268 463.959135 204.664307 463.341346 205.162347 462.311699 205.660387 462.311699 206.158426 461.693910 206.656466 461.693910 207.154506 460.664263 207.652545 460.046474 208.150585 459.428686 208.648625 461.076122 209.146664 461.899840 209.644704 460.252404 210.142744 459.634615 210.640783 459.840545 211.138823 460.664263 211.636863 458.810897 212.134902 457.163462 212.632942 457.163462 213.130982 456.957532 213.629021 457.163462 214.127061 456.339744 214.625100 456.545673 215.123140 456.133814 215.621180 456.133814 216.119219 456.751603 216.617259 455.310096 217.115299 455.927885 217.613338 456.339744 218.111378 456.339744 218.609418 454.280449 219.107457 453.044872 219.605497 452.838942 220.103537 453.250801 220.601576 453.250801 221.099616 452.427083 221.597656 450.779647 222.095695 450.985577 222.593735 450.779647 223.091775 452.427083 223.589814 452.633013 224.087854 452.427083 224.585893 452.633013 225.083933 453.044872 225.581973 450.985577 226.080012 448.720353 226.578052 447.896635 227.076092 448.308494 227.574131 450.573718 228.072171 451.397436 228.570211 451.397436 229.068250 450.779647 229.566290 449.955929 230.064330 449.338141 230.562369 450.779647 231.060409 449.955929 231.558449 450.161859 232.056488 447.690705 232.554528 448.308494 233.052568 446.866987 233.550607 446.455128 234.048647 445.425481 234.546687 445.425481 235.044726 446.249199 235.542766 446.249199 236.040805 446.043269 236.538845 445.837340 237.036885 444.601763 237.534924 444.601763 238.032964 443.778045 238.531004 443.983974 239.029043 443.572115 239.527083 443.366186 240.025621 477.550481 240.523162 478.374199 241.021202 484.758013 241.519242 484.346154 242.017281 499.173077 242.515321 494.436699 243.013361 485.787660 243.511400 483.934295 244.009440 481.257212 244.507480 481.257212 245.005519 480.639423 245.503559 480.845353 246.001599 481.257212 246.499638 480.639423 246.997678 480.433494 247.495717 478.786058 247.993757 477.756410 248.491797 476.932692 248.989836 475.697115 249.487876 476.726763 249.985916 475.903045 250.483955 473.843750 250.981995 474.873397 251.480035 474.461538 251.978074 474.667468 252.476114 475.285256 252.974154 473.225962 253.472193 472.814103 253.970233 472.196314 254.468273 471.578526 254.966312 472.608173 255.465348 473.431891 255.962392 473.020032 256.460431 471.578526 256.958471 471.784455 257.456510 472.402244 257.954550 471.166667 258.452590 468.077724 258.950629 469.519231 259.448669 468.901442 259.946709 469.519231 260.444748 468.489583 260.942788 466.842147 261.440828 466.842147 261.938867 467.459936 262.436907 467.459936 262.935445 466.636218 263.432986 466.430288 263.931026 464.576923 264.429564 464.576923 264.927105 465.812500 265.425145 465.812500 265.923185 464.165064 266.421224 462.929487 266.919762 461.282051 267.417304 462.105769 267.915343 464.165064 268.413383 463.753205 268.911422 460.458333 269.409462 460.458333 269.908498 459.428686 270.405541 457.575321 270.903581 458.399038 271.401621 459.016827 271.899660 459.428686 272.397700 458.604968 272.895740 459.222756 273.393779 459.222756 273.891819 458.193109 274.389859 458.810897 274.887898 458.193109 275.385938 457.369391 275.883978 456.339744 276.382017 459.222756 276.880057 460.870192 277.378097 460.664263 277.876136 458.399038 278.374176 457.369391 278.872215 456.957532 279.370255 456.133814 279.868295 456.751603 280.366334 455.104167 280.864374 453.044872 281.362414 453.250801 281.860453 451.809295 282.358493 451.397436 282.857031 451.809295 283.354572 452.015224 283.852612 451.603365 284.350652 450.985577 284.848691 450.779647 285.346731 450.573718 285.844771 450.779647 286.342810 449.955929 286.840850 448.720353 287.338890 448.926282 287.836929 449.132212 288.334969 447.484776 288.833009 447.484776 289.331048 447.896635 289.829088 448.720353 290.327127 446.866987 290.825167 445.837340 291.323207 446.249199 291.821246 446.249199 292.319286 445.631410 292.817326 445.425481 293.315365 445.219551 293.813405 446.043269 294.311445 445.631410 294.809484 447.896635 295.307524 447.690705 295.805564 448.926282 296.303603 448.514423 296.801643 446.661058 297.300181 445.425481 297.797722 445.013622 298.295762 443.983974 298.793802 445.837340 299.291841 445.219551 299.789881 444.807692 300.288419 476.520833 300.785960 476.108974 301.284000 480.227564 301.782039 483.110577 302.280079 481.875000 302.778119 482.698718 303.276158 482.492788 303.774198 482.492788 304.272238 482.492788 304.770277 481.669071 305.268317 481.051282 305.766357 480.639423 306.264396 479.815705 306.762436 479.197917 307.260476 480.021635 307.758515 479.609776 308.256555 477.756410 308.754595 476.726763 309.252634 475.697115 309.750674 476.932692 310.248714 476.726763 310.747749 476.108974 311.244793 475.285256 311.742832 472.402244 312.240872 472.196314 312.738912 470.548878 313.236951 468.283654 313.734991 470.754808 314.233031 471.166667 314.731070 471.578526 315.229110 470.960737 315.727150 469.725160 316.225189 468.077724 316.723229 471.372596 317.221269 469.931090 317.719308 469.725160 318.217348 469.313301 318.715388 470.342949 319.213427 469.725160 319.711467 468.695513 320.209507 469.519231 320.707546 470.548878 321.205586 468.901442 321.703626 467.459936 322.201665 467.871795 322.699705 468.077724 323.197744 466.842147 323.695784 465.194712 324.193824 465.194712 324.691863 463.753205 325.189903 465.194712 325.687943 463.341346 326.185982 462.517628 326.684022 461.693910 327.182062 462.311699 327.680101 463.341346 328.178141 464.576923 328.676181 465.606571 329.174220 463.547276 329.672260 462.929487 330.170300 462.311699 330.668339 461.282051 331.166379 460.870192 331.664419 460.046474 332.162458 460.458333 332.660498 458.399038 333.158537 456.957532 333.656577 457.163462 334.154617 457.163462 334.652656 455.104167 335.150696 454.692308 335.648736 453.662660 336.146775 454.280449 336.644815 454.692308 337.142855 454.486378 337.640894 454.898237 338.138934 452.838942 338.636974 454.280449 339.135013 453.868590 339.633053 454.898237 340.131093 455.721955 340.629132 454.486378 341.127172 453.662660 341.625212 452.633013 342.123251 450.573718 342.621291 451.191506 343.119331 451.809295 343.617370 451.603365 344.115410 452.838942 344.613449 455.104167 345.111489 453.044872 345.609529 452.427083 346.107568 452.015224 346.605608 451.809295 347.103648 451.397436 347.601687 450.161859 348.099727 450.573718 348.597767 448.926282 349.095806 447.278846 349.593846 447.484776 350.091886 447.484776 350.589925 447.896635 351.087965 448.102564 351.586005 450.161859 352.084044 450.161859 352.582084 448.720353 353.080124 446.249199 353.578163 444.807692 354.076203 444.807692 354.574243 445.013622 355.072780 443.160256 355.570322 445.013622 356.068361 444.807692 356.566401 445.837340 357.064441 445.013622 357.562480 444.601763 358.060520 443.983974 358.558560 443.983974 359.056599 443.983974 359.554639 443.983974 360.053177 473.020032 360.550718 476.314904 361.048758 474.255609 361.546798 482.080929 362.044837 485.581731 362.543873 483.934295 363.041415 498.555288 363.538956 495.672276 364.036996 491.759615 364.535036 487.023237 365.033075 485.375801 365.531115 484.346154 366.029154 483.110577 366.527194 481.875000 367.025234 481.463141 367.523273 479.403846 368.021313 478.991987 368.519353 479.197917 369.017392 477.962340 369.515432 477.962340 370.013472 476.726763 370.511511 476.726763 371.009551 476.520833 371.507591 475.903045 372.005630 475.903045 372.503670 475.079327 373.002208 475.079327 373.499749 470.548878 373.997789 471.372596 374.495829 474.873397 374.993868 475.079327 375.491908 473.637821 375.989948 474.667468 376.487987 471.372596 376.986027 469.931090 377.484066 468.489583 377.982106 467.871795 378.480146 469.519231 378.978185 470.548878 379.476225 470.137019 379.974265 471.578526 380.472304 472.608173 380.970344 469.519231 381.468384 468.901442 381.966423 468.695513 382.464463 467.459936 382.962503 467.048077 383.460542 464.165064 383.958582 462.517628 384.456622 462.105769 384.954661 463.959135 385.452701 462.311699 385.950741 462.105769 386.448780 462.311699 386.946820 461.282051 387.444859 460.046474 387.942899 460.252404 388.440939 459.222756 388.938978 459.016827 389.437018 458.193109 389.935058 457.987179 390.433097 456.751603 390.931137 458.193109 391.429177 458.193109 391.927216 456.545673 392.425256 456.751603 392.923296 456.751603 393.421335 457.987179 393.919375 456.339744 394.417415 456.339744 394.915454 455.310096 395.413494 453.868590 395.911534 453.662660 396.409573 455.310096 396.908609 455.927885 397.405653 455.104167 397.903692 454.692308 398.401732 455.721955 398.899771 454.280449 399.397811 451.603365 399.895851 452.633013 400.393890 452.838942 400.891930 453.662660 401.389970 451.191506 401.888009 450.779647 402.386049 451.191506 402.884089 451.809295 403.382128 452.015224 403.880168 451.603365 404.378208 450.367788 404.876247 450.573718 405.374287 451.603365 405.872327 452.427083 406.370366 450.985577 406.868406 451.603365 407.366446 451.397436 407.864485 452.221154 408.362525 451.397436 408.860564 448.926282 409.359102 449.338141 409.856644 448.102564 410.354683 447.484776 410.852723 445.219551 411.350763 445.219551 411.848802 447.484776 412.346842 447.484776 412.844882 444.189904 413.342921 444.601763 413.840961 445.837340 414.339001 446.661058 414.837040 446.249199 415.335080 446.043269 415.833120 445.425481 416.331159 443.778045 416.829199 443.366186 417.327239 443.778045 417.825278 446.043269 418.323816 472.608173 418.821358 479.403846 419.319397 487.229167 419.817437 487.846955 420.315476 485.787660 420.814014 500.820513 421.311556 502.056090 421.809595 503.291667 422.307635 503.703526 422.805675 503.291667 423.303714 494.024840 423.801754 488.052885 424.299794 488.258814 424.797833 487.229167 425.295873 484.963942 425.794411 482.286859 426.291952 482.698718 426.789992 481.257212 427.288032 482.492788 427.786071 482.492788 428.284111 480.639423 428.782151 477.344551 429.280688 480.021635 429.778230 480.021635 430.276270 478.374199 430.774309 480.433494 431.272349 478.991987 431.770388 478.786058 432.268428 478.168269 432.766468 477.756410 433.264507 476.726763 433.762547 476.108974 434.260587 475.903045 434.758626 475.285256 435.256666 473.225962 435.754706 472.402244 436.252745 473.225962 436.750785 473.020032 437.248825 472.608173 437.746864 471.578526 438.244904 468.901442 438.742944 468.901442 439.240983 468.489583 439.739023 467.254006 440.237063 467.871795 440.735102 469.313301 441.233142 471.372596 441.731181 471.166667 442.229221 468.901442 442.727261 468.283654 443.225300 467.459936 443.723340 466.018429 444.221380 466.430288 444.719419 465.606571 445.217459 463.753205 445.715499 462.105769 446.213538 461.693910 446.711578 462.311699 447.209618 461.282051 447.707657 460.664263 448.205697 460.046474 448.703737 460.458333 449.201776 462.311699 449.699816 461.899840 450.197856 460.458333 450.695895 460.046474 451.193935 459.634615 451.691975 458.193109 452.190014 458.604968 452.688054 457.987179 453.186093 458.193109 453.684133 456.751603 454.182173 457.163462 454.680212 457.575321 455.178252 456.545673 455.676292 455.104167 456.174829 453.868590 456.672371 450.573718 457.170411 451.809295 457.668450 452.221154 458.166490 451.603365 458.664530 451.809295 459.162569 452.221154 459.660609 454.280449 460.158649 455.104167 460.657186 454.280449 461.154728 451.809295 461.652768 451.397436 462.150807 451.397436 462.648847 454.074519 463.146886 453.250801 463.644926 452.015224 464.142966 450.367788 464.641005 450.367788 465.139045 451.397436 465.637085 450.573718 466.135124 450.779647 466.633164 450.367788 467.131204 450.161859 467.629243 449.955929 468.127283 449.338141 468.625323 450.779647 469.123362 450.985577 469.621402 449.955929 470.119442 448.926282 470.617481 444.395833 471.115521 444.395833 471.613561 444.601763 472.112098 443.572115 472.610138 472.608173 473.107680 475.491186 473.606217 485.581731 474.103759 486.817308 474.601798 483.522436 475.100336 483.934295 475.598376 498.143429 476.095917 495.260417 476.593957 489.082532 477.091997 487.641026 477.590036 485.787660 478.088076 485.581731 478.586614 484.346154 479.084155 483.522436 479.582195 484.346154 480.080235 483.316506 480.578274 481.875000 481.076314 479.403846 481.574354 476.726763 482.072393 475.285256 482.570433 476.108974 483.068473 476.932692 483.566512 473.020032 484.064552 473.843750 484.562592 474.667468 485.060631 474.255609 485.558671 474.461538 486.056710 474.049679 486.554750 475.285256 487.052790 475.285256 487.550829 473.637821 488.048869 472.608173 488.546909 472.196314 489.044948 471.166667 489.542988 469.519231 490.041028 470.548878 490.539067 471.784455 491.037107 470.137019 491.535147 469.313301 492.033186 468.901442 492.531226 467.871795 493.029266 467.254006 493.527305 467.254006 494.025345 469.725160 494.523385 469.931090 495.021424 468.489583 495.519464 467.459936 496.017503 466.224359 496.515543 466.018429 497.013583 463.753205 497.511622 462.929487 498.009662 462.311699 498.507702 462.517628 499.005741 463.753205 499.503781 464.370994 500.001821 463.959135 500.499860 462.723558 500.997900 459.222756 501.495940 458.193109 501.993979 458.604968 502.492019 459.222756 502.990059 459.428686 503.488098 458.810897 503.986138 459.222756 504.484178 458.604968 504.982217 458.399038 505.480257 458.193109 505.978297 459.428686 506.476336 461.899840 506.974376 463.135417 507.472415 461.487981 507.970455 460.664263 508.468495 458.604968 508.967032 456.751603 509.465072 455.927885 509.963112 454.486378 510.461151 455.310096 510.959191 454.692308 511.457231 456.339744 511.955270 456.957532 512.453310 455.310096 512.951350 455.310096 513.449389 453.868590 513.947429 454.692308 514.445469 454.074519 514.943508 452.015224 515.441548 450.367788 515.939588 446.455128 516.437627 447.072917 516.935667 447.278846 517.433707 446.455128 517.931746 447.690705 518.429786 446.455128 518.927825 447.896635 519.425865 446.661058 519.923905 445.219551 520.421944 443.983974 520.919984 444.601763 521.418024 446.866987 521.916063 446.866987 522.414103 446.249199 522.912143 447.690705 523.410182 448.308494 523.908222 447.896635 524.406262 447.690705 524.904301 444.601763 525.402341 444.189904 525.900381 445.219551 526.398420 444.189904 526.896460 447.278846 527.394500 476.520833 527.892539 475.903045 528.390579 482.904647 528.888619 484.963942 529.386658 486.199519 529.884698 485.993590 530.382737 486.199519 530.880777 503.497596 531.378817 502.879808 531.876856 502.467949 532.374896 492.583333 532.872936 485.993590 533.370975 483.522436 533.869015 484.963942 534.367055 484.140224 534.865094 482.492788 535.363134 482.080929 535.861174 480.845353 536.359213 481.875000 536.857253 479.197917 537.355293 476.726763 537.853332 477.550481 538.351372 476.726763 538.849412 475.697115 539.347451 476.726763 539.845491 476.108974 540.343530 475.285256 540.841570 474.255609 541.339610 474.049679 541.837649 473.843750 542.335689 470.754808 542.833729 471.578526 543.331768 472.608173 543.829808 471.372596 544.327848 471.372596 544.825887 471.372596 545.323927 467.665865 545.821967 466.636218 546.320006 465.606571 546.818046 466.018429 547.316086 468.489583 547.814125 466.018429 548.312165 465.194712 548.810205 466.842147 549.308244 465.812500 549.806284 465.194712 550.304324 464.370994 550.802363 465.812500 551.300403 464.782853 551.798442 463.547276 552.296482 461.076122 552.794522 460.870192 553.292561 464.370994 553.790601 463.959135 554.288641 463.135417 554.786680 463.959135 555.284720 463.341346 555.782760 460.046474 556.280799 456.957532 556.778839 457.781250 557.276879 460.664263 557.774918 457.987179 558.272958 454.692308 558.770998 451.809295 559.269037 451.603365 559.767077 452.221154 560.265117 454.486378 560.763156 457.163462 561.261196 457.575321 561.759236 458.193109 562.257275 457.987179 562.755315 457.987179 563.253354 454.486378 563.751394 455.721955 564.249434 455.721955 564.747473 456.339744 565.245513 454.486378 565.743553 453.868590 566.241592 451.809295 566.739632 452.633013 567.237672 452.427083 567.735711 452.427083 568.233751 450.161859 568.731791 448.102564 569.229830 449.750000 569.727870 450.573718 570.225910 448.926282 570.723949 449.750000 571.221989 447.896635 571.720029 447.072917 572.218068 446.866987 572.716108 445.425481 573.214147 444.601763 573.712187 445.219551 574.210227 446.043269 574.708266 444.189904 575.206306 444.807692 575.704346 444.601763 576.202385 445.013622 576.700425 444.601763 577.198465 446.661058 577.696504 446.249199 578.194544 445.837340 578.692584 444.395833 579.190623 443.572115 579.688663 446.455128 580.186703 445.837340 580.684742 446.661058 581.182782 446.866987 581.680822 445.013622 582.178861 444.395833 582.676901 444.395833 583.174941 443.778045 583.672980 444.807692 584.171020 447.072917 584.669059 473.843750 585.167099 473.225962 585.665139 477.138622 586.163178 479.197917 586.661218 480.227564 587.159258 481.875000 587.657297 494.024840 588.155337 483.110577 588.653377 492.377404 589.151416 483.110577 589.649456 484.552083 590.147496 480.639423 590.645535 480.433494 591.143575 480.433494 591.641615 478.374199 592.139654 480.845353 592.637694 481.257212 593.135734 478.168269 593.633773 478.168269 594.131813 477.344551 594.629852 476.108974 595.127892 473.843750 595.625932 471.372596 596.123971 469.313301 596.622011 470.548878 597.120051 469.725160 597.618090 471.166667 598.116130 471.990385 598.614170 475.079327 599.112209 474.667468 599.610249 472.608173 600.108289 471.784455 600.606328 471.372596 601.104368 469.313301 601.602408 466.018429 602.100447 462.929487 602.598487 463.135417 603.096527 460.870192 603.594566 463.135417 604.092606 462.723558 604.590646 463.341346 605.088685 462.723558 605.586725 461.693910 606.084764 459.840545 606.582804 461.693910 607.080844 461.487981 607.578883 460.252404 608.076923 460.458333" /></g><g class="series serie-1 color-1"><path class="line reactive nofill" d="M11.923077 422.979167 L12.420957 485.375801 12.918917 494.024840 13.417037 471.784455 13.915076 471.166667 14.413036 479.403846 14.911076 463.959135 15.409115 465.194712 15.907130 478.580128 16.405170 466.636218 16.903209 468.077724 17.899388 459.222756 18.895368 480.433494 19.393507 470.137019 19.891796 481.051282 20.389587 470.342949 20.887626 461.282051 21.385815 391.471955 21.883706 471.578526 22.381745 478.580128 22.879785 451.397436 23.377924 453.868590 23.875964 442.542468 24.374003 441.924679 24.872043 464.576923 25.370083 447.278846 25.868122 457.575321 26.366162 441.306891 26.864003 452.221154 27.362241 454.074519 27.860281 440.895032 28.358221 455.721955 28.856360 438.423878 29.354300 452.015224 29.852340 439.659455 30.350479 440.071314 30.848519 440.895032 31.346559 455.721955 31.844499 453.456731 32.342638 423.802885 32.840678 439.659455 33.338618 459.634615 33.836757 446.455128 34.334697 462.311699 34.832737 436.570513 35.330926 412.476763 35.828816 456.545673 36.326955 442.748397 36.824995 452.427083 37.323034 450.573718 37.820974 450.573718 38.319114 447.072917 38.817153 447.896635 39.315193 457.369391 39.813282 420.508013 40.311173 459.428686 40.809461 457.369391 41.307352 445.013622 41.805292 442.130609 42.303431 462.723558 42.801471 441.100962 43.299510 464.782853 43.797550 450.161859 44.295639 448.926282 44.793530 464.988782 45.291569 465.194712 45.789858 467.048077 46.287748 439.247596 46.785688 449.132212 47.283728 472.814103 47.781767 451.809295 48.279807 453.456731 48.777847 446.661058 49.275886 461.487981 49.773926 455.104167 50.271866 464.988782 50.770005 475.285256 51.268045 471.372596 51.766085 472.196314 52.264025 474.049679 52.763110 468.489583 53.260104 477.756410 53.758243 468.695513 54.256283 466.636218 54.754323 478.991987 55.252362 467.254006 55.750402 474.667468 56.248342 478.991987 56.746481 468.695513 57.244421 484.963942 57.743606 478.374199 58.240501 482.698718 58.738540 484.758013 59.236679 463.959135 59.734619 477.344551 60.232759 467.871795 60.730848 466.636218 61.228888 486.405449 61.726928 463.547276 62.224967 479.815705 62.723007 466.018429 63.221046 481.463141 63.719086 466.430288 64.217126 456.133814 64.715165 478.786058 65.213205 423.391026 65.711245 430.804487 66.209284 452.838942 66.707324 454.486378 67.205364 462.517628 67.703403 460.046474 68.201443 436.982372 68.699483 430.804487 69.197522 456.545673 69.695562 454.280449 70.193602 435.129006 70.691641 451.397436 71.189681 442.748397 71.687721 437.600160 72.185760 447.690705 72.683800 429.774840 73.181839 438.629808 73.679879 443.366186 74.177919 426.479968 74.675958 454.486378 75.173998 459.840545 75.672038 442.748397 76.170077 431.216346 76.668117 440.689103 77.166157 431.216346 77.664196 435.129006 78.162236 436.776442 78.660276 432.451923 79.158315 439.865385 79.656355 430.804487 80.154395 451.603365 80.652434 438.835737 81.150474 442.336538 81.648514 437.188301 82.146553 431.422276 82.644593 447.896635 83.142633 439.453526 83.640672 438.217949 84.138712 437.188301 84.636751 454.280449 85.134791 475.285256 85.632831 460.252404 86.130870 440.277244 86.628910 430.186699 87.126950 459.634615 87.624989 462.517628 88.123029 438.629808 88.621069 449.955929 89.119108 442.542468 89.617148 454.074519 90.115188 439.865385 90.613227 434.923077 91.111267 465.606571 91.609307 461.487981 92.107346 442.336538 92.605386 464.576923 93.103426 453.044872 93.601465 459.840545 94.099505 462.929487 94.597544 451.603365 95.095584 464.782853 95.593624 456.339744 96.091663 446.043269 96.589703 464.576923 97.087743 444.395833 97.585782 449.338141 98.083822 463.753205 98.581862 447.072917 99.080399 462.311699 99.577941 467.459936 100.075981 463.135417 100.574020 450.161859 101.072060 458.399038 101.570100 481.257212 102.068139 465.400641 102.566179 459.428686 103.064219 471.578526 103.562258 448.720353 104.060298 458.604968 104.558338 455.104167 105.056377 458.399038 105.554417 443.366186 106.052456 461.899840 106.550496 450.367788 107.048536 450.367788 107.546575 434.923077 108.044615 459.634615 108.542655 447.690705 109.040694 451.397436 109.538734 442.130609 110.036774 451.191506 110.534813 441.924679 111.032853 463.959135 111.530893 444.601763 112.028932 481.051282 112.527470 445.219551 113.025012 460.664263 113.523051 439.453526 114.021091 444.807692 114.520127 472.608173 115.017170 483.522436 115.515210 448.308494 116.013250 434.923077 116.511289 435.334936 117.009329 455.104167 117.507368 456.133814 118.005408 450.985577 118.503448 436.982372 119.001487 461.693910 119.499527 447.896635 119.997567 439.865385 120.495606 435.746795 120.993646 448.102564 121.491686 463.753205 121.990223 446.043269 122.487765 458.604968 122.985805 450.367788 123.483844 425.862179 123.981884 450.985577 124.479924 453.250801 124.977963 438.217949 125.476003 448.514423 125.974043 446.455128 126.472082 460.664263 126.970122 443.983974 127.468161 431.216346 127.966201 436.364583 128.464241 451.191506 128.962280 467.048077 129.460320 459.634615 129.959356 427.715545 130.456399 420.713942 130.954439 446.866987 131.452479 423.391026 131.950518 474.255609 132.448558 469.313301 132.946598 439.247596 133.444637 405.681090 133.942677 434.099359 134.440717 456.751603 134.938756 458.399038 135.436796 460.458333 135.934836 441.718750 136.432875 440.689103 136.930915 447.278846 137.428955 428.745192 137.926994 435.334936 138.425034 435.334936 138.923073 419.066506 139.421113 440.895032 139.919153 426.068109 140.417192 443.160256 140.915232 415.153846 141.413272 436.982372 141.911311 449.750000 142.409351 441.718750 142.907391 444.807692 143.405430 459.428686 143.903470 438.835737 144.401510 434.305288 144.899549 446.043269 145.397589 449.955929 145.895629 439.659455 146.393668 449.338141 146.891708 414.124199 147.389748 427.509615 147.887787 441.718750 148.385827 449.132212 148.883866 453.868590 149.381906 423.802885 149.879946 450.985577 150.377985 446.866987 150.876025 435.334936 151.375061 437.806090 151.872104 455.721955 152.370144 432.245994 152.868184 454.074519 153.366223 423.802885 153.864263 436.570513 154.362303 429.568910 154.860342 457.575321 155.358382 451.397436 155.856422 462.929487 156.354461 453.662660 156.852501 455.721955 157.350541 435.129006 157.849078 456.957532 158.346620 438.012019 158.844660 433.275641 159.342699 463.753205 159.840739 460.458333 160.338778 435.540865 160.836818 442.542468 161.334858 420.302083 161.832897 426.068109 162.330937 461.282051 162.828977 441.924679 163.327016 450.779647 163.825056 450.573718 164.323096 462.311699 164.821135 438.217949 165.319175 444.601763 165.817215 451.809295 166.315254 456.751603 166.813294 425.656250 167.311334 443.160256 167.809373 441.512821 168.307413 446.043269 168.805453 466.430288 169.303492 434.923077 169.801532 453.868590 170.299572 459.428686 170.797611 434.717147 171.295651 439.453526 171.793690 461.487981 172.291730 438.423878 172.789770 443.778045 173.287809 455.516026 173.785849 452.838942 174.283889 476.314904 174.781928 457.987179 175.279968 426.685897 175.778008 443.778045 176.276047 427.715545 176.774087 436.158654 177.272127 454.486378 177.770166 439.659455 178.268206 440.071314 178.766744 440.483173 179.264285 435.540865 179.762325 414.536058 180.260365 455.927885 180.758404 438.217949 181.256444 423.185096 181.754483 423.391026 182.252523 439.865385 182.750563 436.570513 183.248602 436.982372 183.746642 435.129006 184.244682 439.865385 184.742721 420.919872 185.240761 448.308494 185.738801 432.245994 186.236840 438.835737 186.734880 414.947917 187.232920 428.127404 187.730959 432.245994 188.228999 476.314904 188.727039 442.336538 189.225078 397.237981 189.723118 414.536058 190.221158 445.631410 190.719197 424.832532 191.217237 435.746795 191.715277 428.951122 192.213316 431.216346 192.711356 432.657853 193.209395 410.829327 193.707435 426.068109 194.205475 447.484776 194.703514 447.278846 195.201554 465.606571 195.699594 454.074519 196.197633 416.389423 196.695673 437.188301 197.193713 442.542468 197.691752 428.539263 198.190290 445.631410 198.687832 398.061699 199.185871 432.245994 199.684409 418.654647 200.181951 429.157051 200.679990 434.717147 201.178030 442.130609 201.676070 445.219551 202.174109 453.250801 202.672149 432.657853 203.170687 445.631410 203.668228 398.473558 204.166268 437.394231 204.664307 430.186699 205.162347 425.862179 205.660387 425.450321 206.158426 426.068109 206.656466 433.687500 207.154506 401.356571 207.652545 447.690705 208.150585 435.540865 208.648625 429.980769 209.146664 431.628205 209.644704 420.919872 210.142744 448.514423 210.640783 433.069712 211.138823 427.921474 211.636863 417.625000 212.134902 428.539263 212.632942 438.629808 213.130982 441.100962 213.629021 412.064904 214.127061 416.389423 214.625100 448.308494 215.123140 432.451923 215.621180 422.567308 216.119219 433.687500 216.617259 421.331731 217.115299 453.044872 217.613338 448.102564 218.111378 409.593750 218.609418 433.481571 219.107457 422.773237 219.605497 444.189904 220.103537 436.158654 220.601576 417.419071 221.099616 411.858974 221.597656 428.539263 222.095695 430.804487 222.593735 446.043269 223.091775 412.476763 223.589814 452.221154 224.087854 454.898237 224.585893 444.189904 225.083933 397.649840 225.581973 404.239583 226.080012 421.537660 226.578052 440.277244 227.076092 463.753205 227.574131 438.423878 228.072171 448.926282 228.570211 409.181891 229.068250 438.835737 229.566290 455.516026 230.064330 433.687500 230.562369 442.748397 231.060409 437.188301 231.558449 449.750000 232.056488 418.448718 232.554528 436.982372 233.052568 427.921474 233.550607 422.155449 234.048647 430.392628 234.546687 441.924679 235.044726 430.186699 235.542766 434.511218 236.040805 433.069712 236.538845 427.921474 237.036885 415.977564 237.534924 433.481571 238.032964 431.216346 238.531004 438.217949 239.029043 428.539263 239.527083 435.746795 240.025621 433.687500 240.523162 430.598558 241.021202 437.600160 241.519242 446.249199 242.017281 428.333333 242.515321 437.600160 243.013361 405.063301 243.511400 403.621795 244.009440 408.152244 244.507480 425.450321 245.005519 419.478365 245.503559 435.334936 246.001599 425.038462 246.499638 426.068109 246.997678 412.270833 247.495717 422.979167 247.993757 414.330128 248.491797 417.625000 248.989836 416.801282 249.487876 410.417468 249.985916 387.971154 250.483955 412.270833 250.981995 428.951122 251.480035 421.949519 251.978074 419.066506 252.476114 412.682692 252.974154 426.274038 253.472193 426.479968 253.970233 405.475160 254.468273 426.068109 254.966312 445.013622 255.465348 409.181891 255.962392 436.570513 256.460431 440.483173 256.958471 405.475160 257.456510 427.097756 257.954550 401.768429 258.452590 404.033654 258.950629 440.895032 259.448669 434.099359 259.946709 412.476763 260.444748 415.771635 260.942788 421.331731 261.440828 431.216346 261.938867 424.214744 262.436907 421.949519 262.935445 406.916667 263.432986 413.918269 263.931026 446.661058 264.429564 412.888622 264.927105 446.455128 265.425145 393.531250 265.923185 402.180288 266.421224 400.738782 266.919762 439.041667 267.417304 419.684295 267.915343 427.097756 268.413383 407.740385 268.911422 393.119391 269.409462 428.333333 269.908498 383.234776 270.405541 429.157051 270.903581 433.275641 271.401621 422.567308 271.899660 390.030449 272.397700 456.133814 272.895740 404.651442 273.393779 417.213141 273.891819 434.099359 274.389859 394.972756 274.887898 410.417468 275.385938 411.447115 275.883978 440.689103 276.382017 458.193109 276.880057 434.717147 277.378097 397.855769 277.876136 418.448718 278.374176 434.511218 278.872215 425.038462 279.370255 427.921474 279.868295 426.068109 280.366334 384.676282 280.864374 422.979167 281.362414 405.681090 281.860453 417.007212 282.358493 422.773237 282.857031 421.949519 283.354572 412.682692 283.852612 399.297276 284.350652 425.862179 284.848691 424.214744 285.346731 396.620192 285.844771 421.125801 286.342810 405.681090 286.840850 414.536058 287.338890 396.620192 287.836929 407.534455 288.334969 414.741987 288.833009 416.183494 289.331048 398.885417 289.829088 416.183494 290.327127 422.361378 290.825167 397.649840 291.323207 405.063301 291.821246 437.188301 292.319286 416.183494 292.817326 412.064904 293.315365 434.923077 293.813405 444.395833 294.311445 427.509615 294.809484 423.185096 295.307524 436.776442 295.805564 444.601763 296.303603 420.302083 296.801643 380.351763 297.300181 431.834135 297.797722 438.835737 298.295762 405.063301 298.793802 408.358173 299.291841 424.420673 299.789881 428.745192 300.288419 417.830929 300.785960 415.359776 301.284000 409.799679 301.782039 386.529647 302.280079 405.475160 302.778119 418.654647 303.276158 421.331731 303.774198 410.829327 304.272238 407.328526 304.770277 419.890224 305.268317 400.738782 305.766357 414.330128 306.264396 399.091346 306.762436 415.771635 307.260476 431.216346 307.758515 399.503205 308.256555 411.858974 308.754595 383.028846 309.252634 421.125801 309.750674 421.125801 310.248714 410.829327 310.747749 385.705929 311.244793 411.241186 311.742832 383.028846 312.240872 363.465545 312.738912 381.175481 313.236951 386.941506 313.734991 432.040064 314.233031 399.297276 314.731070 435.746795 315.229110 369.849359 315.727150 403.827724 316.225189 414.124199 316.723229 414.741987 317.221269 402.798077 317.719308 413.506410 318.217348 419.272436 318.715388 421.331731 319.213427 389.000801 319.711467 440.483173 320.209507 410.211538 320.707546 391.266026 321.205586 419.890224 321.703626 406.092949 322.201665 440.483173 322.699705 411.035256 323.197744 388.794872 323.695784 436.776442 324.193824 393.119391 324.691863 444.807692 325.189903 396.826122 325.687943 395.178686 326.185982 409.799679 326.684022 379.939904 327.182062 428.745192 327.680101 438.217949 328.178141 428.539263 328.676181 405.063301 329.174220 435.952724 329.672260 407.740385 330.170300 389.618590 330.668339 413.094551 331.166379 418.860577 331.664419 399.915064 332.162458 410.417468 332.660498 403.621795 333.158537 377.262821 333.656577 429.362981 334.154617 387.971154 334.652656 385.294071 335.150696 408.564103 335.648736 408.564103 336.146775 387.765224 336.644815 385.705929 337.142855 428.951122 337.640894 383.028846 338.138934 413.506410 338.636974 435.129006 339.135013 411.035256 339.633053 427.097756 340.131093 409.387821 340.629132 408.152244 341.127172 412.476763 341.625212 393.119391 342.123251 408.564103 342.621291 399.915064 343.119331 445.013622 343.617370 420.713942 344.115410 428.951122 344.613449 410.005609 345.111489 421.537660 345.609529 406.504808 346.107568 408.975962 346.605608 435.746795 347.103648 397.855769 347.601687 412.476763 348.099727 407.122596 348.597767 398.679487 349.095806 410.623397 349.593846 419.890224 350.091886 414.330128 350.589925 444.189904 351.087965 414.536058 351.586005 447.278846 352.084044 393.737179 352.582084 391.677885 353.080124 402.386218 353.578163 396.620192 354.076203 410.211538 354.574243 398.061699 355.072780 399.503205 355.570322 420.096154 356.068361 421.743590 356.566401 421.331731 357.064441 418.448718 357.562480 409.799679 358.060520 375.203526 358.558560 398.473558 359.056599 420.508013 359.554639 401.356571 360.053177 415.153846 360.550718 376.233173 361.048758 392.501603 361.546798 421.125801 362.044837 407.946314 362.543873 416.389423 363.041415 389.000801 363.538956 411.653045 364.036996 414.124199 364.535036 402.386218 365.033075 425.656250 365.531115 399.915064 366.029154 404.033654 366.527194 416.595353 367.025234 381.175481 367.523273 392.295673 368.021313 393.325321 368.519353 415.359776 369.017392 395.796474 369.515432 388.177083 370.013472 366.966346 370.511511 420.302083 371.009551 388.383013 371.507591 408.358173 372.005630 365.730769 372.503670 404.445513 373.002208 310.129808 373.499749 385.911859 373.997789 438.423878 374.495829 387.559295 374.993868 431.834135 375.491908 383.440705 375.989948 360.994391 376.487987 394.766827 376.986027 364.907051 377.484066 373.762019 377.982106 401.768429 378.480146 424.420673 378.978185 406.916667 379.476225 410.829327 379.974265 435.334936 380.472304 366.760417 380.970344 404.445513 381.468384 407.534455 381.966423 400.944712 382.464463 375.203526 382.962503 368.407853 383.460542 357.493590 383.958582 383.646635 384.456622 415.771635 384.954661 408.975962 385.452701 376.439103 385.950741 394.354968 386.448780 376.233173 386.946820 367.584135 387.444859 398.885417 387.942899 364.907051 388.440939 376.439103 388.938978 379.939904 389.437018 363.877404 389.935058 394.766827 390.433097 397.855769 390.931137 391.883814 391.429177 349.050481 391.927216 392.089744 392.425256 410.005609 392.923296 375.615385 393.421335 411.858974 393.919375 401.150641 394.417415 364.083333 394.915454 358.111378 395.413494 381.793269 395.911534 417.830929 396.409573 374.379808 396.908609 403.004006 397.405653 419.890224 397.903692 378.910256 398.401732 384.058494 398.899771 377.056891 399.397811 384.676282 399.895851 412.476763 400.393890 425.038462 400.891930 366.142628 401.389970 398.061699 401.888009 394.149038 402.386049 429.157051 402.884089 381.381410 403.382128 406.298878 403.880168 361.818109 404.378208 407.946314 404.876247 410.417468 405.374287 425.038462 405.872327 378.910256 406.370366 403.004006 406.868406 439.247596 407.366446 390.854167 407.864485 383.440705 408.362525 370.467147 408.860564 413.918269 409.359102 386.735577 409.856644 382.205128 410.354683 398.061699 410.852723 403.209936 411.350763 392.913462 411.848802 402.592147 412.346842 355.022436 412.844882 393.531250 413.342921 414.741987 413.840961 415.565705 414.339001 398.885417 414.837040 405.063301 415.335080 408.564103 415.833120 350.286058 416.331159 365.524840 416.829199 400.738782 417.327239 389.206731 417.825278 386.323718 418.323816 382.822917 418.821358 421.125801 419.319397 402.180288 419.817437 379.733974 420.315476 393.737179 420.814014 358.523237 421.311556 406.504808 421.809595 392.501603 422.307635 410.417468 422.805675 382.822917 423.303714 398.267628 423.801754 443.778045 424.299794 399.297276 424.797833 390.854167 425.295873 380.145833 425.794411 382.822917 426.291952 407.328526 426.789992 391.883814 427.288032 432.657853 427.786071 378.910256 428.284111 348.638622 428.782151 410.623397 429.280688 398.679487 429.778230 421.125801 430.276270 410.623397 430.774309 404.445513 431.272349 410.211538 431.770388 406.298878 432.268428 424.214744 432.766468 385.088141 433.264507 407.534455 433.762547 414.947917 434.260587 403.209936 434.758626 378.704327 435.256666 392.913462 435.754706 389.206731 436.252745 427.715545 436.750785 388.794872 437.248825 372.938301 437.746864 371.084936 438.244904 385.500000 438.742944 410.623397 439.240983 370.879006 439.739023 366.348558 440.237063 408.358173 440.735102 422.567308 441.233142 427.097756 441.731181 396.414263 442.229221 404.651442 442.727261 384.882212 443.225300 378.498397 443.723340 405.681090 444.221380 397.855769 444.719419 337.106571 445.217459 367.790064 445.715499 393.325321 446.213538 400.120994 446.711578 379.322115 447.209618 359.141026 447.707657 390.648237 448.205697 392.913462 448.703737 411.858974 449.201776 378.910256 449.699816 389.000801 450.197856 406.504808 450.695895 390.236378 451.193935 380.557692 451.691975 398.473558 452.190014 388.383013 452.688054 366.760417 453.186093 383.234776 453.684133 381.587340 454.182173 402.180288 454.680212 390.854167 455.178252 361.818109 455.676292 365.936699 456.174829 349.462340 456.672371 372.526442 457.170411 409.799679 457.668450 383.440705 458.166490 358.111378 458.664530 380.557692 459.162569 422.155449 459.660609 389.206731 460.158649 415.771635 460.657186 341.637019 461.154728 393.325321 461.652768 420.302083 462.150807 419.066506 462.648847 382.411058 463.146886 363.671474 463.644926 388.383013 464.142966 406.504808 464.641005 391.677885 465.139045 376.027244 465.637085 413.506410 466.135124 379.116186 466.633164 371.496795 467.131204 395.384615 467.629243 407.328526 468.127283 427.097756 468.625323 401.562500 469.123362 389.618590 469.621402 406.916667 470.119442 340.607372 470.617481 346.167468 471.115521 402.798077 471.613561 376.233173 472.112098 307.246795 472.610138 379.116186 473.107680 418.654647 473.606217 381.381410 474.103759 364.495192 474.601798 383.440705 475.100336 398.885417 475.598376 378.292468 476.095917 376.439103 476.593957 377.880609 477.091997 390.854167 477.590036 399.503205 478.088076 400.120994 478.586614 388.588942 479.084155 401.974359 479.582195 425.244391 480.080235 370.879006 480.578274 365.730769 481.076314 344.931891 481.574354 346.785256 482.072393 373.556090 482.570433 406.298878 483.068473 343.078526 483.566512 327.221955 484.064552 388.588942 484.562592 374.791667 485.060631 361.612179 485.558671 394.149038 486.056710 387.971154 486.554750 398.679487 487.052790 386.735577 487.550829 366.554487 488.048869 398.267628 488.546909 376.027244 489.044948 342.666667 489.542988 380.557692 490.041028 399.091346 490.539067 373.556090 491.037107 402.798077 491.535147 364.701122 492.033186 389.412660 492.531226 358.935096 493.029266 377.056891 493.527305 403.827724 494.025345 417.007212 494.523385 381.793269 495.021424 356.875801 495.519464 385.911859 496.017503 385.088141 496.515543 339.989583 497.013583 388.383013 497.511622 364.701122 498.009662 362.024038 498.507702 402.798077 499.005741 401.356571 499.503781 376.439103 500.001821 386.323718 500.499860 333.399840 500.997900 344.725962 501.495940 395.178686 501.993979 372.526442 502.492019 414.536058 502.990059 359.964744 503.488098 408.770032 503.986138 385.088141 504.484178 359.346955 504.982217 382.822917 505.480257 421.331731 505.978297 405.475160 506.476336 401.356571 506.974376 423.802885 507.472415 381.999199 507.970455 363.259615 508.468495 389.206731 508.967032 377.056891 509.465072 376.850962 509.963112 385.911859 510.461151 407.122596 510.959191 377.880609 511.457231 396.826122 511.955270 405.063301 512.453310 381.587340 512.951350 365.936699 513.449389 397.855769 513.947429 407.534455 514.445469 342.872596 514.943508 355.640224 515.441548 322.279647 515.939588 373.762019 516.437627 399.297276 516.935667 334.635417 517.433707 376.439103 517.931746 401.562500 518.429786 373.144231 518.927825 361.200321 519.425865 336.282853 519.923905 388.177083 520.421944 348.844551 520.919984 392.913462 521.418024 396.414263 521.916063 384.470353 522.414103 394.766827 522.912143 391.883814 523.410182 388.588942 523.908222 377.056891 524.406262 370.055288 524.904301 354.610577 525.402341 372.526442 525.900381 341.842949 526.398420 378.910256 526.896460 402.798077 527.394500 358.935096 527.892539 353.375000 528.390579 392.501603 528.888619 385.088141 529.386658 384.264423 529.884698 380.557692 530.382737 376.645032 530.880777 381.587340 531.378817 355.022436 531.876856 354.198718 532.374896 322.691506 532.872936 342.254808 533.370975 396.002404 533.869015 387.559295 534.367055 378.704327 534.865094 368.613782 535.363134 371.290865 535.861174 407.534455 536.359213 329.281250 536.857253 357.905449 537.355293 356.463942 537.853332 351.521635 538.351372 350.903846 538.849412 384.058494 539.347451 359.758814 539.845491 371.702724 540.343530 350.697917 540.841570 367.584135 541.339610 357.287660 541.837649 344.520032 542.335689 355.022436 542.833729 389.000801 543.331768 347.608974 543.829808 381.999199 544.327848 363.259615 544.825887 322.073718 545.323927 352.345353 545.821967 338.754006 546.320006 344.520032 546.818046 372.732372 547.316086 324.544872 547.814125 338.959936 548.312165 380.969551 548.810205 351.315705 549.308244 340.195513 549.806284 369.231571 550.304324 368.819712 550.802363 391.471955 551.300403 309.717949 551.798442 322.279647 552.296482 405.063301 552.794522 350.697917 553.292561 391.677885 553.790601 330.928686 554.288641 387.353365 554.786680 376.027244 555.284720 304.157853 555.782760 281.917468 556.280799 367.378205 556.778839 391.883814 557.276879 356.052083 557.774918 301.892628 558.272958 303.951923 558.770998 360.788462 559.269037 310.953526 559.767077 375.615385 560.265117 351.933494 560.763156 413.712340 561.261196 382.411058 561.759236 335.665064 562.257275 404.239583 562.755315 343.696314 563.253354 355.022436 563.751394 380.145833 564.249434 380.351763 564.747473 363.671474 565.245513 346.579327 565.743553 342.872596 566.241592 390.648237 566.739632 362.024038 567.237672 348.844551 567.735711 335.047276 568.233751 361.612179 568.731791 354.610577 569.229830 381.381410 569.727870 337.724359 570.225910 351.933494 570.723949 354.198718 571.221989 333.811699 571.720029 353.375000 572.218068 390.442308 572.716108 337.312500 573.214147 304.569712 573.712187 392.707532 574.210227 371.702724 574.708266 352.345353 575.206306 335.870994 575.704346 375.203526 576.202385 371.290865 576.700425 367.584135 577.198465 375.615385 577.696504 355.434295 578.194544 353.580929 578.692584 348.226763 579.190623 373.967949 579.688663 402.180288 580.186703 352.345353 580.684742 381.587340 581.182782 362.024038 581.680822 340.401442 582.178861 342.872596 582.676901 364.495192 583.174941 325.780449 583.672980 375.615385 584.171020 370.055288 584.669059 405.269231 585.167099 347.197115 585.665139 338.548077 586.163178 327.633814 586.661218 380.969551 587.159258 296.538462 587.657297 376.645032 588.155337 323.103365 588.653377 368.613782 589.151416 340.195513 589.649456 331.752404 590.147496 363.671474 590.645535 331.340545 591.143575 307.658654 591.641615 395.590545 592.139654 376.027244 592.637694 326.604167 593.135734 358.317308 593.633773 348.638622 594.131813 345.961538 594.629852 311.365385 595.127892 290.566506 595.625932 314.866186 596.123971 336.694712 596.622011 326.810096 597.120051 360.170673 597.618090 365.112981 598.116130 340.195513 598.614170 429.157051 599.112209 282.741186 599.610249 388.588942 600.108289 330.104968 600.606328 315.483974 601.104368 327.427885 601.602408 270.591346 602.100447 332.576122 602.598487 331.340545 603.096527 321.455929 603.594566 337.106571 604.092606 345.549679 604.590646 352.963141 605.088685 314.866186 605.586725 320.014423 606.084764 325.368590 606.582804 353.786859 607.080844 328.663462 607.578883 338.548077 608.076923 360.376603" /></g><g class="series serie-2 color-2"><path class="line reactive nofill" d="M11.923077 92.256410 L12.420957 92.256410 12.918917 92.256410 13.417037 92.256410 13.915076 92.256410 14.413036 92.256410 14.911076 92.256410 15.409115 92.256410 15.907130 92.256410 16.405170 92.256410 16.903209 92.256410 17.899388 92.256410 18.895368 92.256410 19.393507 92.256410 19.891796 92.256410 20.389587 92.256410 20.887626 92.256410 21.385815 92.256410 21.883706 92.256410 22.381745 92.256410 22.879785 92.256410 23.377924 92.256410 23.875964 92.256410 24.374003 92.256410 24.872043 92.256410 25.370083 92.256410 25.868122 92.256410 26.366162 92.256410 26.864003 92.256410 27.362241 92.256410 27.860281 92.256410 28.358221 92.256410 28.856360 92.256410 29.354300 92.256410 29.852340 92.256410 30.350479 92.256410 30.848519 92.256410 31.346559 92.256410 31.844499 92.256410 32.342638 92.256410 32.840678 92.256410 33.338618 92.256410 33.836757 92.256410 34.334697 92.256410 34.832737 92.256410 35.330926 92.256410 35.828816 92.256410 36.326955 92.256410 36.824995 92.256410 37.323034 92.256410 37.820974 92.256410 38.319114 92.256410 38.817153 92.256410 39.315193 92.256410 39.813282 92.256410 40.311173 92.256410 40.809461 92.256410 41.307352 92.256410 41.805292 92.256410 42.303431 92.256410 42.801471 92.256410 43.299510 92.256410 43.797550 92.256410 44.295639 92.256410 44.793530 92.256410 45.291569 92.256410 45.789858 92.256410 46.287748 92.256410 46.785688 92.256410 47.283728 92.256410 47.781767 92.256410 48.279807 92.256410 48.777847 92.256410 49.275886 92.256410 49.773926 92.256410 50.271866 92.256410 50.770005 92.256410 51.268045 92.256410 51.766085 92.256410 52.264025 92.256410 52.763110 92.256410 53.260104 92.256410 53.758243 92.256410 54.256283 92.256410 54.754323 92.256410 55.252362 92.256410 55.750402 92.256410 56.248342 92.256410 56.746481 92.256410 57.244421 92.256410 57.743606 92.256410 58.240501 92.256410 58.738540 92.256410 59.236679 92.256410 59.734619 92.256410 60.232759 92.256410 60.730848 92.256410 61.228888 92.256410 61.726928 92.256410 62.224967 92.256410 62.723007 92.256410 63.221046 92.256410 63.719086 92.256410 64.217126 92.256410 64.715165 92.256410 65.213205 92.256410 65.711245 92.256410 66.209284 92.256410 66.707324 92.256410 67.205364 92.256410 67.703403 92.256410 68.201443 92.256410 68.699483 92.256410 69.197522 92.256410 69.695562 92.256410 70.193602 92.256410 70.691641 92.256410 71.189681 92.256410 71.687721 92.256410 72.185760 92.256410 72.683800 92.256410 73.181839 92.256410 73.679879 92.256410 74.177919 92.256410 74.675958 92.256410 75.173998 92.256410 75.672038 92.256410 76.170077 92.256410 76.668117 92.256410 77.166157 92.256410 77.664196 92.256410 78.162236 92.256410 78.660276 92.256410 79.158315 92.256410 79.656355 92.256410 80.154395 92.256410 80.652434 92.256410 81.150474 92.256410 81.648514 92.256410 82.146553 92.256410 82.644593 92.256410 83.142633 92.256410 83.640672 92.256410 84.138712 92.256410 84.636751 92.256410 85.134791 92.256410 85.632831 92.256410 86.130870 92.256410 86.628910 92.256410 87.126950 92.256410 87.624989 92.256410 88.123029 92.256410 88.621069 92.256410 89.119108 92.256410 89.617148 92.256410 90.115188 92.256410 90.613227 92.256410 91.111267 92.256410 91.609307 92.256410 92.107346 92.256410 92.605386 92.256410 93.103426 92.256410 93.601465 92.256410 94.099505 92.256410 94.597544 92.256410 95.095584 92.256410 95.593624 92.256410 96.091663 92.256410 96.589703 92.256410 97.087743 92.256410 97.585782 92.256410 98.083822 92.256410 98.581862 92.256410 99.080399 92.256410 99.577941 92.256410 100.075981 92.256410 100.574020 92.256410 101.072060 92.256410 101.570100 92.256410 102.068139 92.256410 102.566179 92.256410 103.064219 92.256410 103.562258 92.256410 104.060298 92.256410 104.558338 92.256410 105.056377 92.256410 105.554417 92.256410 106.052456 92.256410 106.550496 92.256410 107.048536 92.256410 107.546575 92.256410 108.044615 92.256410 108.542655 92.256410 109.040694 92.256410 109.538734 92.256410 110.036774 92.256410 110.534813 92.256410 111.032853 92.256410 111.530893 92.256410 112.028932 92.256410 112.527470 92.256410 113.025012 92.256410 113.523051 92.256410 114.021091 92.256410 114.520127 92.256410 115.017170 92.256410 115.515210 92.256410 116.013250 92.256410 116.511289 92.256410 117.009329 92.256410 117.507368 92.256410 118.005408 92.256410 118.503448 92.256410 119.001487 92.256410 119.499527 92.256410 119.997567 92.256410 120.495606 92.256410 120.993646 92.256410 121.491686 92.256410 121.990223 92.256410 122.487765 92.256410 122.985805 92.256410 123.483844 92.256410 123.981884 92.256410 124.479924 92.256410 124.977963 92.256410 125.476003 92.256410 125.974043 92.256410 126.472082 92.256410 126.970122 92.256410 127.468161 92.256410 127.966201 92.256410 128.464241 92.256410 128.962280 92.256410 129.460320 92.256410 129.959356 92.256410 130.456399 92.256410 130.954439 92.256410 131.452479 92.256410 131.950518 92.256410 132.448558 92.256410 132.946598 92.256410 133.444637 92.256410 133.942677 92.256410 134.440717 92.256410 134.938756 92.256410 135.436796 92.256410 135.934836 92.256410 136.432875 92.256410 136.930915 92.256410 137.428955 92.256410 137.926994 92.256410 138.425034 92.256410 138.923073 92.256410 139.421113 92.256410 139.919153 92.256410 140.417192 92.256410 140.915232 92.256410 141.413272 92.256410 141.911311 92.256410 142.409351 92.256410 142.907391 92.256410 143.405430 92.256410 143.903470 92.256410 144.401510 92.256410 144.899549 92.256410 145.397589 92.256410 145.895629 92.256410 146.393668 92.256410 146.891708 92.256410 147.389748 92.256410 147.887787 92.256410 148.385827 92.256410 148.883866 92.256410 149.381906 92.256410 149.879946 92.256410 150.377985 92.256410 150.876025 92.256410 151.375061 92.256410 151.872104 92.256410 152.370144 92.256410 152.868184 92.256410 153.366223 92.256410 153.864263 92.256410 154.362303 92.256410 154.860342 92.256410 155.358382 92.256410 155.856422 92.256410 156.354461 92.256410 156.852501 92.256410 157.350541 92.256410 157.849078 92.256410 158.346620 92.256410 158.844660 92.256410 159.342699 92.256410 159.840739 92.256410 160.338778 92.256410 160.836818 92.256410 161.334858 92.256410 161.832897 92.256410 162.330937 92.256410 162.828977 92.256410 163.327016 92.256410 163.825056 92.256410 164.323096 92.256410 164.821135 92.256410 165.319175 92.256410 165.817215 92.256410 166.315254 92.256410 166.813294 92.256410 167.311334 92.256410 167.809373 92.256410 168.307413 92.256410 168.805453 92.256410 169.303492 92.256410 169.801532 92.256410 170.299572 92.256410 170.797611 92.256410 171.295651 92.256410 171.793690 92.256410 172.291730 92.256410 172.789770 92.256410 173.287809 92.256410 173.785849 92.256410 174.283889 92.256410 174.781928 92.256410 175.279968 92.256410 175.778008 92.256410 176.276047 92.256410 176.774087 92.256410 177.272127 92.256410 177.770166 92.256410 178.268206 92.256410 178.766744 92.256410 179.264285 92.256410 179.762325 92.256410 180.260365 92.256410 180.758404 92.256410 181.256444 92.256410 181.754483 92.256410 182.252523 92.256410 182.750563 92.256410 183.248602 92.256410 183.746642 92.256410 184.244682 92.256410 184.742721 92.256410 185.240761 92.256410 185.738801 92.256410 186.236840 92.256410 186.734880 92.256410 187.232920 92.256410 187.730959 92.256410 188.228999 92.256410 188.727039 92.256410 189.225078 92.256410 189.723118 92.256410 190.221158 92.256410 190.719197 92.256410 191.217237 92.256410 191.715277 92.256410 192.213316 92.256410 192.711356 92.256410 193.209395 92.256410 193.707435 92.256410 194.205475 92.256410 194.703514 92.256410 195.201554 92.256410 195.699594 92.256410 196.197633 92.256410 196.695673 92.256410 197.193713 92.256410 197.691752 92.256410 198.190290 92.256410 198.687832 92.256410 199.185871 92.256410 199.684409 92.256410 200.181951 92.256410 200.679990 92.256410 201.178030 92.256410 201.676070 92.256410 202.174109 92.256410 202.672149 92.256410 203.170687 92.256410 203.668228 92.256410 204.166268 92.256410 204.664307 92.256410 205.162347 92.256410 205.660387 92.256410 206.158426 92.256410 206.656466 92.256410 207.154506 92.256410 207.652545 92.256410 208.150585 92.256410 208.648625 92.256410 209.146664 92.256410 209.644704 92.256410 210.142744 92.256410 210.640783 92.256410 211.138823 92.256410 211.636863 92.256410 212.134902 92.256410 212.632942 92.256410 213.130982 92.256410 213.629021 92.256410 214.127061 92.256410 214.625100 92.256410 215.123140 92.256410 215.621180 92.256410 216.119219 92.256410 216.617259 92.256410 217.115299 92.256410 217.613338 92.256410 218.111378 92.256410 218.609418 92.256410 219.107457 92.256410 219.605497 92.256410 220.103537 92.256410 220.601576 92.256410 221.099616 92.256410 221.597656 92.256410 222.095695 92.256410 222.593735 92.256410 223.091775 92.256410 223.589814 92.256410 224.087854 92.256410 224.585893 92.256410 225.083933 92.256410 225.581973 92.256410 226.080012 92.256410 226.578052 92.256410 227.076092 92.256410 227.574131 92.256410 228.072171 92.256410 228.570211 92.256410 229.068250 92.256410 229.566290 92.256410 230.064330 92.256410 230.562369 92.256410 231.060409 92.256410 231.558449 92.256410 232.056488 92.256410 232.554528 92.256410 233.052568 92.256410 233.550607 92.256410 234.048647 92.256410 234.546687 92.256410 235.044726 92.256410 235.542766 92.256410 236.040805 92.256410 236.538845 92.256410 237.036885 92.256410 237.534924 92.256410 238.032964 92.256410 238.531004 92.256410 239.029043 92.256410 239.527083 92.256410 240.025621 92.256410 240.523162 92.256410 241.021202 92.256410 241.519242 92.256410 242.017281 92.256410 242.515321 92.256410 243.013361 92.256410 243.511400 92.256410 244.009440 92.256410 244.507480 92.256410 245.005519 92.256410 245.503559 92.256410 246.001599 92.256410 246.499638 92.256410 246.997678 92.256410 247.495717 92.256410 247.993757 92.256410 248.491797 92.256410 248.989836 92.256410 249.487876 92.256410 249.985916 92.256410 250.483955 92.256410 250.981995 92.256410 251.480035 92.256410 251.978074 92.256410 252.476114 92.256410 252.974154 92.256410 253.472193 92.256410 253.970233 92.256410 254.468273 92.256410 254.966312 92.256410 255.465348 92.256410 255.962392 92.256410 256.460431 92.256410 256.958471 92.256410 257.456510 92.256410 257.954550 92.256410 258.452590 92.256410 258.950629 92.256410 259.448669 92.256410 259.946709 92.256410 260.444748 92.256410 260.942788 92.256410 261.440828 92.256410 261.938867 92.256410 262.436907 92.256410 262.935445 92.256410 263.432986 92.256410 263.931026 92.256410 264.429564 92.256410 264.927105 92.256410 265.425145 92.256410 265.923185 92.256410 266.421224 92.256410 266.919762 92.256410 267.417304 92.256410 267.915343 92.256410 268.413383 92.256410 268.911422 92.256410 269.409462 92.256410 269.908498 92.256410 270.405541 92.256410 270.903581 92.256410 271.401621 92.256410 271.899660 92.256410 272.397700 92.256410 272.895740 92.256410 273.393779 92.256410 273.891819 92.256410 274.389859 92.256410 274.887898 92.256410 275.385938 92.256410 275.883978 92.256410 276.382017 92.256410 276.880057 92.256410 277.378097 92.256410 277.876136 92.256410 278.374176 92.256410 278.872215 92.256410 279.370255 92.256410 279.868295 92.256410 280.366334 92.256410 280.864374 92.256410 281.362414 92.256410 281.860453 92.256410 282.358493 92.256410 282.857031 92.256410 283.354572 92.256410 283.852612 92.256410 284.350652 92.256410 284.848691 92.256410 285.346731 92.256410 285.844771 92.256410 286.342810 92.256410 286.840850 92.256410 287.338890 92.256410 287.836929 92.256410 288.334969 92.256410 288.833009 92.256410 289.331048 92.256410 289.829088 92.256410 290.327127 92.256410 290.825167 92.256410 291.323207 92.256410 291.821246 92.256410 292.319286 92.256410 292.817326 92.256410 293.315365 92.256410 293.813405 92.256410 294.311445 92.256410 294.809484 92.256410 295.307524 92.256410 295.805564 92.256410 296.303603 92.256410 296.801643 92.256410 297.300181 92.256410 297.797722 92.256410 298.295762 92.256410 298.793802 92.256410 299.291841 92.256410 299.789881 92.256410 300.288419 92.256410 300.785960 92.256410 301.284000 92.256410 301.782039 92.256410 302.280079 92.256410 302.778119 92.256410 303.276158 92.256410 303.774198 92.256410 304.272238 92.256410 304.770277 92.256410 305.268317 92.256410 305.766357 92.256410 306.264396 92.256410 306.762436 92.256410 307.260476 92.256410 307.758515 92.256410 308.256555 92.256410 308.754595 92.256410 309.252634 92.256410 309.750674 92.256410 310.248714 92.256410 310.747749 92.256410 311.244793 92.256410 311.742832 92.256410 312.240872 92.256410 312.738912 92.256410 313.236951 92.256410 313.734991 92.256410 314.233031 92.256410 314.731070 92.256410 315.229110 92.256410 315.727150 92.256410 316.225189 92.256410 316.723229 92.256410 317.221269 92.256410 317.719308 92.256410 318.217348 92.256410 318.715388 92.256410 319.213427 92.256410 319.711467 92.256410 320.209507 92.256410 320.707546 92.256410 321.205586 92.256410 321.703626 92.256410 322.201665 92.256410 322.699705 92.256410 323.197744 92.256410 323.695784 92.256410 324.193824 92.256410 324.691863 92.256410 325.189903 92.256410 325.687943 92.256410 326.185982 92.256410 326.684022 92.256410 327.182062 92.256410 327.680101 92.256410 328.178141 92.256410 328.676181 92.256410 329.174220 92.256410 329.672260 92.256410 330.170300 92.256410 330.668339 92.256410 331.166379 92.256410 331.664419 92.256410 332.162458 92.256410 332.660498 92.256410 333.158537 92.256410 333.656577 92.256410 334.154617 92.256410 334.652656 92.256410 335.150696 92.256410 335.648736 92.256410 336.146775 92.256410 336.644815 92.256410 337.142855 92.256410 337.640894 92.256410 338.138934 92.256410 338.636974 92.256410 339.135013 92.256410 339.633053 92.256410 340.131093 92.256410 340.629132 92.256410 341.127172 92.256410 341.625212 92.256410 342.123251 92.256410 342.621291 92.256410 343.119331 92.256410 343.617370 92.256410 344.115410 92.256410 344.613449 92.256410 345.111489 92.256410 345.609529 92.256410 346.107568 92.256410 346.605608 92.256410 347.103648 92.256410 347.601687 92.256410 348.099727 92.256410 348.597767 92.256410 349.095806 92.256410 349.593846 92.256410 350.091886 92.256410 350.589925 92.256410 351.087965 92.256410 351.586005 92.256410 352.084044 92.256410 352.582084 92.256410 353.080124 92.256410 353.578163 92.256410 354.076203 92.256410 354.574243 92.256410 355.072780 92.256410 355.570322 92.256410 356.068361 92.256410 356.566401 92.256410 357.064441 92.256410 357.562480 92.256410 358.060520 92.256410 358.558560 92.256410 359.056599 92.256410 359.554639 92.256410 360.053177 92.256410 360.550718 92.256410 361.048758 92.256410 361.546798 92.256410 362.044837 92.256410 362.543873 92.256410 363.041415 92.256410 363.538956 92.256410 364.036996 92.256410 364.535036 92.256410 365.033075 92.256410 365.531115 92.256410 366.029154 92.256410 366.527194 92.256410 367.025234 92.256410 367.523273 92.256410 368.021313 92.256410 368.519353 92.256410 369.017392 92.256410 369.515432 92.256410 370.013472 92.256410 370.511511 92.256410 371.009551 92.256410 371.507591 92.256410 372.005630 92.256410 372.503670 92.256410 373.002208 92.256410 373.499749 92.256410 373.997789 92.256410 374.495829 92.256410 374.993868 92.256410 375.491908 92.256410 375.989948 92.256410 376.487987 92.256410 376.986027 92.256410 377.484066 92.256410 377.982106 92.256410 378.480146 92.256410 378.978185 92.256410 379.476225 92.256410 379.974265 92.256410 380.472304 92.256410 380.970344 92.256410 381.468384 92.256410 381.966423 92.256410 382.464463 92.256410 382.962503 92.256410 383.460542 92.256410 383.958582 92.256410 384.456622 92.256410 384.954661 92.256410 385.452701 92.256410 385.950741 92.256410 386.448780 92.256410 386.946820 92.256410 387.444859 92.256410 387.942899 92.256410 388.440939 92.256410 388.938978 92.256410 389.437018 92.256410 389.935058 92.256410 390.433097 92.256410 390.931137 92.256410 391.429177 92.256410 391.927216 92.256410 392.425256 92.256410 392.923296 92.256410 393.421335 92.256410 393.919375 92.256410 394.417415 92.256410 394.915454 92.256410 395.413494 92.256410 395.911534 92.256410 396.409573 92.256410 396.908609 92.256410 397.405653 92.256410 397.903692 92.256410 398.401732 92.256410 398.899771 92.256410 399.397811 92.256410 399.895851 92.256410 400.393890 92.256410 400.891930 92.256410 401.389970 92.256410 401.888009 92.256410 402.386049 92.256410 402.884089 92.256410 403.382128 92.256410 403.880168 92.256410 404.378208 92.256410 404.876247 92.256410 405.374287 92.256410 405.872327 92.256410 406.370366 92.256410 406.868406 92.256410 407.366446 92.256410 407.864485 92.256410 408.362525 92.256410 408.860564 92.256410 409.359102 92.256410 409.856644 92.256410 410.354683 92.256410 410.852723 92.256410 411.350763 92.256410 411.848802 92.256410 412.346842 92.256410 412.844882 92.256410 413.342921 92.256410 413.840961 92.256410 414.339001 92.256410 414.837040 92.256410 415.335080 92.256410 415.833120 92.256410 416.331159 92.256410 416.829199 92.256410 417.327239 92.256410 417.825278 92.256410 418.323816 92.256410 418.821358 92.256410 419.319397 92.256410 419.817437 92.256410 420.315476 92.256410 420.814014 92.256410 421.311556 92.256410 421.809595 92.256410 422.307635 92.256410 422.805675 92.256410 423.303714 92.256410 423.801754 92.256410 424.299794 92.256410 424.797833 92.256410 425.295873 92.256410 425.794411 92.256410 426.291952 92.256410 426.789992 92.256410 427.288032 92.256410 427.786071 92.256410 428.284111 92.256410 428.782151 92.256410 429.280688 92.256410 429.778230 92.256410 430.276270 92.256410 430.774309 92.256410 431.272349 92.256410 431.770388 92.256410 432.268428 92.256410 432.766468 92.256410 433.264507 92.256410 433.762547 92.256410 434.260587 92.256410 434.758626 92.256410 435.256666 92.256410 435.754706 92.256410 436.252745 92.256410 436.750785 92.256410 437.248825 92.256410 437.746864 92.256410 438.244904 92.256410 438.742944 92.256410 439.240983 92.256410 439.739023 92.256410 440.237063 92.256410 440.735102 92.256410 441.233142 92.256410 441.731181 92.256410 442.229221 92.256410 442.727261 92.256410 443.225300 92.256410 443.723340 92.256410 444.221380 92.256410 444.719419 92.256410 445.217459 92.256410 445.715499 92.256410 446.213538 92.256410 446.711578 92.256410 447.209618 92.256410 447.707657 92.256410 448.205697 92.256410 448.703737 92.256410 449.201776 92.256410 449.699816 92.256410 450.197856 92.256410 450.695895 92.256410 451.193935 92.256410 451.691975 92.256410 452.190014 92.256410 452.688054 92.256410 453.186093 92.256410 453.684133 92.256410 454.182173 92.256410 454.680212 92.256410 455.178252 92.256410 455.676292 92.256410 456.174829 92.256410 456.672371 92.256410 457.170411 92.256410 457.668450 92.256410 458.166490 92.256410 458.664530 92.256410 459.162569 92.256410 459.660609 92.256410 460.158649 92.256410 460.657186 92.256410 461.154728 92.256410 461.652768 92.256410 462.150807 92.256410 462.648847 92.256410 463.146886 92.256410 463.644926 92.256410 464.142966 92.256410 464.641005 92.256410 465.139045 92.256410 465.637085 92.256410 466.135124 92.256410 466.633164 92.256410 467.131204 92.256410 467.629243 92.256410 468.127283 92.256410 468.625323 92.256410 469.123362 92.256410 469.621402 92.256410 470.119442 92.256410 470.617481 92.256410 471.115521 92.256410 471.613561 92.256410 472.112098 92.256410 472.610138 92.256410 473.107680 92.256410 473.606217 92.256410 474.103759 92.256410 474.601798 92.256410 475.100336 92.256410 475.598376 92.256410 476.095917 92.256410 476.593957 92.256410 477.091997 92.256410 477.590036 92.256410 478.088076 92.256410 478.586614 92.256410 479.084155 92.256410 479.582195 92.256410 480.080235 92.256410 480.578274 92.256410 481.076314 92.256410 481.574354 92.256410 482.072393 92.256410 482.570433 92.256410 483.068473 92.256410 483.566512 92.256410 484.064552 92.256410 484.562592 92.256410 485.060631 92.256410 485.558671 92.256410 486.056710 92.256410 486.554750 92.256410 487.052790 92.256410 487.550829 92.256410 488.048869 92.256410 488.546909 92.256410 489.044948 92.256410 489.542988 92.256410 490.041028 92.256410 490.539067 92.256410 491.037107 92.256410 491.535147 92.256410 492.033186 92.256410 492.531226 92.256410 493.029266 92.256410 493.527305 92.256410 494.025345 92.256410 494.523385 92.256410 495.021424 92.256410 495.519464 92.256410 496.017503 92.256410 496.515543 92.256410 497.013583 92.256410 497.511622 92.256410 498.009662 92.256410 498.507702 92.256410 499.005741 92.256410 499.503781 92.256410 500.001821 92.256410 500.499860 92.256410 500.997900 92.256410 501.495940 92.256410 501.993979 92.256410 502.492019 92.256410 502.990059 92.256410 503.488098 92.256410 503.986138 92.256410 504.484178 92.256410 504.982217 92.256410 505.480257 92.256410 505.978297 92.256410 506.476336 92.256410 506.974376 92.256410 507.472415 92.256410 507.970455 92.256410 508.468495 92.256410 508.967032 92.256410 509.465072 92.256410 509.963112 92.256410 510.461151 92.256410 510.959191 92.256410 511.457231 92.256410 511.955270 92.256410 512.453310 92.256410 512.951350 92.256410 513.449389 92.256410 513.947429 92.256410 514.445469 92.256410 514.943508 92.256410 515.441548 92.256410 515.939588 92.256410 516.437627 92.256410 516.935667 92.256410 517.433707 92.256410 517.931746 92.256410 518.429786 92.256410 518.927825 92.256410 519.425865 92.256410 519.923905 92.256410 520.421944 92.256410 520.919984 92.256410 521.418024 92.256410 521.916063 92.256410 522.414103 92.256410 522.912143 92.256410 523.410182 92.256410 523.908222 92.256410 524.406262 92.256410 524.904301 92.256410 525.402341 92.256410 525.900381 92.256410 526.398420 92.256410 526.896460 92.256410 527.394500 92.256410 527.892539 92.256410 528.390579 92.256410 528.888619 92.256410 529.386658 92.256410 529.884698 92.256410 530.382737 92.256410 530.880777 92.256410 531.378817 92.256410 531.876856 92.256410 532.374896 92.256410 532.872936 92.256410 533.370975 92.256410 533.869015 92.256410 534.367055 92.256410 534.865094 92.256410 535.363134 92.256410 535.861174 92.256410 536.359213 92.256410 536.857253 92.256410 537.355293 92.256410 537.853332 92.256410 538.351372 92.256410 538.849412 92.256410 539.347451 92.256410 539.845491 92.256410 540.343530 92.256410 540.841570 92.256410 541.339610 92.256410 541.837649 92.256410 542.335689 92.256410 542.833729 92.256410 543.331768 92.256410 543.829808 92.256410 544.327848 92.256410 544.825887 92.256410 545.323927 92.256410 545.821967 92.256410 546.320006 92.256410 546.818046 92.256410 547.316086 92.256410 547.814125 92.256410 548.312165 92.256410 548.810205 92.256410 549.308244 92.256410 549.806284 92.256410 550.304324 92.256410 550.802363 92.256410 551.300403 92.256410 551.798442 92.256410 552.296482 92.256410 552.794522 92.256410 553.292561 92.256410 553.790601 92.256410 554.288641 92.256410 554.786680 92.256410 555.284720 92.256410 555.782760 92.256410 556.280799 92.256410 556.778839 92.256410 557.276879 92.256410 557.774918 92.256410 558.272958 92.256410 558.770998 92.256410 559.269037 92.256410 559.767077 92.256410 560.265117 92.256410 560.763156 92.256410 561.261196 92.256410 561.759236 92.256410 562.257275 92.256410 562.755315 92.256410 563.253354 92.256410 563.751394 92.256410 564.249434 92.256410 564.747473 92.256410 565.245513 92.256410 565.743553 92.256410 566.241592 92.256410 566.739632 92.256410 567.237672 92.256410 567.735711 92.256410 568.233751 92.256410 568.731791 92.256410 569.229830 92.256410 569.727870 92.256410 570.225910 92.256410 570.723949 92.256410 571.221989 92.256410 571.720029 92.256410 572.218068 92.256410 572.716108 92.256410 573.214147 92.256410 573.712187 92.256410 574.210227 92.256410 574.708266 92.256410 575.206306 92.256410 575.704346 92.256410 576.202385 92.256410 576.700425 92.256410 577.198465 92.256410 577.696504 92.256410 578.194544 92.256410 578.692584 92.256410 579.190623 92.256410 579.688663 92.256410 580.186703 92.256410 580.684742 92.256410 581.182782 92.256410 581.680822 92.256410 582.178861 92.256410 582.676901 92.256410 583.174941 92.256410 583.672980 92.256410 584.171020 92.256410 584.669059 92.256410 585.167099 92.256410 585.665139 92.256410 586.163178 92.256410 586.661218 92.256410 587.159258 92.256410 587.657297 92.256410 588.155337 92.256410 588.653377 92.256410 589.151416 92.256410 589.649456 92.256410 590.147496 92.256410 590.645535 92.256410 591.143575 92.256410 591.641615 92.256410 592.139654 92.256410 592.637694 92.256410 593.135734 92.256410 593.633773 92.256410 594.131813 92.256410 594.629852 92.256410 595.127892 92.256410 595.625932 92.256410 596.123971 92.256410 596.622011 92.256410 597.120051 92.256410 597.618090 92.256410 598.116130 92.256410 598.614170 92.256410 599.112209 92.256410 599.610249 92.256410 600.108289 92.256410 600.606328 92.256410 601.104368 92.256410 601.602408 92.256410 602.100447 92.256410 602.598487 92.256410 603.096527 92.256410 603.594566 92.256410 604.092606 92.256410 604.590646 92.256410 605.088685 92.256410 605.586725 92.256410 606.084764 92.256410 606.582804 92.256410 607.080844 92.256410 607.578883 92.256410 608.076923 92.256410" /></g></g><g class="titles"><text class="title" x="470.0" y="580">tcp_2000kbps</text></g><g class="plot overlay" transform="translate(160, 20)"><g class="series serie-0 color-0" /><g class="series serie-1 color-1" /><g class="series serie-2 color-2" /></g><g class="plot text-overlay" transform="translate(160, 20)"><g class="series serie-0 color-0" /><g class="series serie-1 color-1" /><g class="series serie-2 color-2" /></g><g class="plot tooltip-overlay" transform="translate(160, 20)"><g class="tooltip" style="opacity: 0" transform="translate(0 0)"><rect class="tooltip-box" height="0" rx="0" ry="0" width="0" /><g class="text" /></g></g><g class="legends" transform="translate(10, 30)"><g class="legend reactive activate-serie" id="activate-serie-0"><rect class="color-0 reactive" height="12" width="12" x="0.0" y="1.0" /><text x="17.0" y="11.2">qdelay</text></g><g class="legend reactive activate-serie" id="activate-serie-1"><rect class="color-1 reactive" height="12" width="12" x="0.0" y="22.0" /><text x="17.0" y="32.2">txed(kbps)</text></g><g class="legend reactive activate-serie" id="activate-serie-2"><rect class="color-2 reactive" height="12" width="12" x="0.0" y="43.0" /><text x="17.0" y="53.2">topo(kbps)</text></g></g><g class="legends" transform="translate(790, 30)" /></g></svg>