<?xml version='1.0' encoding='utf-8'?>
<svg xmlns:xlink="http://www.w3.org/1999/xlink" class="pygal-chart" id="chart-5d8de71f-c52e-4fcb-b5e3-f5252052ffbd" viewBox="0 0 800 600" xmlns="http://www.w3.org/2000/svg"><!--Generated with pygal 2.4.0 (etree) ©Kozea 2012-2016 on 2019-01-14--><!--http://pygal.org--><!--http://github.com/Kozea/pygal--><defs><style type="text/css">#chart-5d8de71f-c52e-4fcb-b5e3-f5252052ffbd{-webkit-user-select:none;-webkit-font-smoothing:antialiased;font-family:Consolas,"Liberation Mono",Menlo,Courier,monospace}#chart-5d8de71f-c52e-4fcb-b5e3-f5252052ffbd .title{font-family:Consolas,"Liberation Mono",Menlo,Courier,monospace;font-size:16px}#chart-5d8de71f-c52e-4fcb-b5e3-f5252052ffbd .legends .legend text{font-family:Consolas,"Liberation Mono",Menlo,Courier,monospace;font-size:14px}#chart-5d8de71f-c52e-4fcb-b5e3-f5252052ffbd .axis text{font-family:Consolas,"Liberation Mono",Menlo,Courier,monospace;font-size:10px}#chart-5d8de71f-c52e-4fcb-b5e3-f5252052ffbd .axis text.major{font-family:Consolas,"Liberation Mono",Menlo,Courier,monospace;font-size:10px}#chart-5d8de71f-c52e-4fcb-b5e3-f5252052ffbd .text-overlay text.value{font-family:Consolas,"Liberation Mono",Menlo,Courier,monospace;font-size:16px}#chart-5d8de71f-c52e-4fcb-b5e3-f5252052ffbd .text-overlay text.label{font-family:Consolas,"Liberation Mono",Menlo,Courier,monospace;font-size:10px}#chart-5d8de71f-c52e-4fcb-b5e3-f5252052ffbd .tooltip{font-family:Consolas,"Liberation Mono",Menlo,Courier,monospace;font-size:14px}#chart-5d8de71f-c52e-4fcb-b5e3-f5252052ffbd text.no_data{font-family:Consolas,"Liberation Mono",Menlo,Courier,monospace;font-size:64px}
#chart-5d8de71f-c52e-4fcb-b5e3-f5252052ffbd{background-color:transparent}#chart-5d8de71f-c52e-4fcb-b5e3-f5252052ffbd path,#chart-5d8de71f-c52e-4fcb-b5e3-f5252052ffbd line,#chart-5d8de71f-c52e-4fcb-b5e3-f5252052ffbd rect,#chart-5d8de71f-c52e-4fcb-b5e3-f5252052ffbd circle{-webkit-transition:100ms ease-in;-moz-transition:100ms ease-in;transition:100ms ease-in}#chart-5d8de71f-c52e-4fcb-b5e3-f5252052ffbd .graph &gt; .background{fill:transparent}#chart-5d8de71f-c52e-4fcb-b5e3-f5252052ffbd .plot &gt; .background{fill:transparent}#chart-5d8de71f-c52e-4fcb-b5e3-f5252052ffbd .graph{fill:#000000}#chart-5d8de71f-c52e-4fcb-b5e3-f5252052ffbd text.no_data{fill:#000000}#chart-5d8de71f-c52e-4fcb-b5e3-f5252052ffbd .title{fill:#000000}#chart-5d8de71f-c52e-4fcb-b5e3-f5252052ffbd .legends .legend text{fill:#000000}#chart-5d8de71f-c52e-4fcb-b5e3-f5252052ffbd .legends .legend:hover text{fill:#000000}#chart-5d8de71f-c52e-4fcb-b5e3-f5252052ffbd .axis .line{stroke:#000000}#chart-5d8de71f-c52e-4fcb-b5e3-f5252052ffbd .axis .guide.line{stroke:#006400d}#chart-5d8de71f-c52e-4fcb-b5e3-f5252052ffbd .axis .major.line{stroke:#000000}#chart-5d8de71f-c52e-4fcb-b5e3-f5252052ffbd .axis text.major{fill:#000000}#chart-5d8de71f-c52e-4fcb-b5e3-f5252052ffbd .axis.y .guides:hover .guide.line,#chart-5d8de71f-c52e-4fcb-b5e3-f5252052ffbd .line-graph .axis.x .guides:hover .guide.line,#chart-5d8de71f-c52e-4fcb-b5e3-f5252052ffbd .stackedline-graph .axis.x .guides:hover .guide.line,#chart-5d8de71f-c52e-4fcb-b5e3-f5252052ffbd .xy-graph .axis.x .guides:hover .guide.line{stroke:#000000}#chart-5d8de71f-c52e-4fcb-b5e3-f5252052ffbd .axis .guides:hover text{fill:#000000}#chart-5d8de71f-c52e-4fcb-b5e3-f5252052ffbd .reactive{fill-opacity:.6;stroke-opacity:.8}#chart-5d8de71f-c52e-4fcb-b5e3-f5252052ffbd .ci{stroke:#000000}#chart-5d8de71f-c52e-4fcb-b5e3-f5252052ffbd .reactive.active,#chart-5d8de71f-c52e-4fcb-b5e3-f5252052ffbd .active .reactive{fill-opacity:.9;stroke-opacity:.9;stroke-width:4}#chart-5d8de71f-c52e-4fcb-b5e3-f5252052ffbd .ci .reactive.active{stroke-width:1.5}#chart-5d8de71f-c52e-4fcb-b5e3-f5252052ffbd .series text{fill:#000000}#chart-5d8de71f-c52e-4fcb-b5e3-f5252052ffbd .tooltip rect{fill:transparent;stroke:#000000;-webkit-transition:opacity 100ms ease-in;-moz-transition:opacity 100ms ease-in;transition:opacity 100ms ease-in}#chart-5d8de71f-c52e-4fcb-b5e3-f5252052ffbd .tooltip .label{fill:#000000}#chart-5d8de71f-c52e-4fcb-b5e3-f5252052ffbd .tooltip .label{fill:#000000}#chart-5d8de71f-c52e-4fcb-b5e3-f5252052ffbd .tooltip .legend{font-size:.8em;fill:#006400d}#chart-5d8de71f-c52e-4fcb-b5e3-f5252052ffbd .tooltip .x_label{font-size:.6em;fill:#000000}#chart-5d8de71f-c52e-4fcb-b5e3-f5252052ffbd .tooltip .xlink{font-size:.5em;text-decoration:underline}#chart-5d8de71f-c52e-4fcb-b5e3-f5252052ffbd .tooltip .value{font-size:1.5em}#chart-5d8de71f-c52e-4fcb-b5e3-f5252052ffbd .bound{font-size:.5em}#chart-5d8de71f-c52e-4fcb-b5e3-f5252052ffbd .max-value{font-size:.75em;fill:#006400d}#chart-5d8de71f-c52e-4fcb-b5e3-f5252052ffbd .map-element{fill:transparent;stroke:#006400d !important}#chart-5d8de71f-c52e-4fcb-b5e3-f5252052ffbd .map-element .reactive{fill-opacity:inherit;stroke-opacity:inherit}#chart-5d8de71f-c52e-4fcb-b5e3-f5252052ffbd .color-0,#chart-5d8de71f-c52e-4fcb-b5e3-f5252052ffbd .color-0 a:visited{stroke:#006400;fill:#006400}#chart-5d8de71f-c52e-4fcb-b5e3-f5252052ffbd .color-1,#chart-5d8de71f-c52e-4fcb-b5e3-f5252052ffbd .color-1 a:visited{stroke:#0022AA;fill:#0022AA}#chart-5d8de71f-c52e-4fcb-b5e3-f5252052ffbd .color-2,#chart-5d8de71f-c52e-4fcb-b5e3-f5252052ffbd .color-2 a:visited{stroke:#FF1111;fill:#FF1111}#chart-5d8de71f-c52e-4fcb-b5e3-f5252052ffbd .text-overlay .color-0 text{fill:black}#chart-5d8de71f-c52e-4fcb-b5e3-f5252052ffbd .text-overlay .color-1 text{fill:black}#chart-5d8de71f-c52e-4fcb-b5e3-f5252052ffbd .text-overlay .color-2 text{fill:black}
#chart-5d8de71f-c52e-4fcb-b5e3-f5252052ffbd text.no_data{text-anchor:middle}#chart-5d8de71f-c52e-4fcb-b5e3-f5252052ffbd .guide.line{fill:none}#chart-5d8de71f-c52e-4fcb-b5e3-f5252052ffbd .centered{text-anchor:middle}#chart-5d8de71f-c52e-4fcb-b5e3-f5252052ffbd .title{text-anchor:middle}#chart-5d8de71f-c52e-4fcb-b5e3-f5252052ffbd .legends .legend text{fill-opacity:1}#chart-5d8de71f-c52e-4fcb-b5e3-f5252052ffbd .axis.x text{text-anchor:middle}#chart-5d8de71f-c52e-4fcb-b5e3-f5252052ffbd .axis.x:not(.web) text[transform]{text-anchor:start}#chart-5d8de71f-c52e-4fcb-b5e3-f5252052ffbd .axis.x:not(.web) text[transform].backwards{text-anchor:end}#chart-5d8de71f-c52e-4fcb-b5e3-f5252052ffbd .axis.y text{text-anchor:end}#chart-5d8de71f-c52e-4fcb-b5e3-f5252052ffbd .axis.y text[transform].backwards{text-anchor:start}#chart-5d8de71f-c52e-4fcb-b5e3-f5252052ffbd .axis.y2 text{text-anchor:start}#chart-5d8de71f-c52e-4fcb-b5e3-f5252052ffbd .axis.y2 text[transform].backwards{text-anchor:end}#chart-5d8de71f-c52e-4fcb-b5e3-f5252052ffbd .axis .guide.line{stroke-dasharray:4,4}#chart-5d8de71f-c52e-4fcb-b5e3-f5252052ffbd .axis .major.guide.line{stroke-dasharray:6,6}#chart-5d8de71f-c52e-4fcb-b5e3-f5252052ffbd .horizontal .axis.y .guide.line,#chart-5d8de71f-c52e-4fcb-b5e3-f5252052ffbd .horizontal .axis.y2 .guide.line,#chart-5d8de71f-c52e-4fcb-b5e3-f5252052ffbd .vertical .axis.x .guide.line{opacity:0}#chart-5d8de71f-c52e-4fcb-b5e3-f5252052ffbd .horizontal .axis.always_show .guide.line,#chart-5d8de71f-c52e-4fcb-b5e3-f5252052ffbd .vertical .axis.always_show .guide.line{opacity:1 !important}#chart-5d8de71f-c52e-4fcb-b5e3-f5252052ffbd .axis.y .guides:hover .guide.line,#chart-5d8de71f-c52e-4fcb-b5e3-f5252052ffbd .axis.y2 .guides:hover .guide.line,#chart-5d8de71f-c52e-4fcb-b5e3-f5252052ffbd .axis.x .guides:hover .guide.line{opacity:1}#chart-5d8de71f-c52e-4fcb-b5e3-f5252052ffbd .axis .guides:hover text{opacity:1}#chart-5d8de71f-c52e-4fcb-b5e3-f5252052ffbd .nofill{fill:none}#chart-5d8de71f-c52e-4fcb-b5e3-f5252052ffbd .subtle-fill{fill-opacity:.2}#chart-5d8de71f-c52e-4fcb-b5e3-f5252052ffbd .dot{stroke-width:1px;fill-opacity:1}#chart-5d8de71f-c52e-4fcb-b5e3-f5252052ffbd .dot.active{stroke-width:5px}#chart-5d8de71f-c52e-4fcb-b5e3-f5252052ffbd .dot.negative{fill:transparent}#chart-5d8de71f-c52e-4fcb-b5e3-f5252052ffbd text,#chart-5d8de71f-c52e-4fcb-b5e3-f5252052ffbd tspan{stroke:none !important}#chart-5d8de71f-c52e-4fcb-b5e3-f5252052ffbd .series text.active{opacity:1}#chart-5d8de71f-c52e-4fcb-b5e3-f5252052ffbd .tooltip rect{fill-opacity:.95;stroke-width:.5}#chart-5d8de71f-c52e-4fcb-b5e3-f5252052ffbd .tooltip text{fill-opacity:1}#chart-5d8de71f-c52e-4fcb-b5e3-f5252052ffbd .showable{visibility:hidden}#chart-5d8de71f-c52e-4fcb-b5e3-f5252052ffbd .showable.shown{visibility:visible}#chart-5d8de71f-c52e-4fcb-b5e3-f5252052ffbd .gauge-background{fill:rgba(229,229,229,1);stroke:none}#chart-5d8de71f-c52e-4fcb-b5e3-f5252052ffbd .bg-lines{stroke:transparent;stroke-width:2px}</style><script type="text/javascript">window.pygal = window.pygal || {};window.pygal.config = window.pygal.config || {};window.pygal.config['5d8de71f-c52e-4fcb-b5e3-f5252052ffbd'] = {"dynamic_print_values": false, "truncate_label": null, "inner_radius": 0, "print_values": false, "xrange": null, "box_mode": "extremes", "title": null, "legend_at_bottom_columns": null, "height": 600, "legend_at_bottom": false, "show_legend": true, "show_dots": false, "explicit_size": false, "y_labels_major": null, "show_minor_x_labels": true, "width": 800, "force_uri_protocol": "https", "half_pie": false, "style": {"major_label_font_family": "Consolas, \"Liberation Mono\", Menlo, Courier, monospace", "title_font_family": "Consolas, \"Liberation Mono\", Menlo, Courier, monospace", "stroke_opacity": ".8", "legend_font_family": "Consolas, \"Liberation Mono\", Menlo, Courier, monospace", "colors": ["#006400", "#0022AA", "#FF1111", "#FFEBCD", "#DC143C", "#FFFFFF", "#6495ED", "#B0C4DE", "#D2691E", "#8B0000"], "legend_font_size": 14, "no_data_font_family": "Consolas, \"Liberation Mono\", Menlo, Courier, monospace", "major_label_font_size": 10, "value_background": "rgba(229, 229, 229, 1)", "ci_colors": [], "label_font_family": "Consolas, \"Liberation Mono\", Menlo, Courier, monospace", "label_font_size": 10, "tooltip_font_size": 14, "value_font_size": 16, "font_family": "Consolas, \"Liberation Mono\", Menlo, Courier, monospace", "opacity": ".6", "foreground": "#000000", "plot_background": "transparent", "value_label_font_size": 10, "value_label_font_family": "Consolas, \"Liberation Mono\", Menlo, Courier, monospace", "background": "transparent", "no_data_font_size": 64, "value_colors": [], "guide_stroke_dasharray": "4,4", "transition": "100ms ease-in", "foreground_subtle": "#006400d", "value_font_family": "Consolas, \"Liberation Mono\", Menlo, Courier, monospace", "tooltip_font_family": "Consolas, \"Liberation Mono\", Menlo, Courier, monospace", "title_font_size": 16, "stroke_opacity_hover": ".9", "major_guide_stroke_dasharray": "6,6", "opacity_hover": ".9", "foreground_strong": "#000000"}, "x_label_rotation": 0, "fill": false, "missing_value_fill_truncation": "x", "zero": 0, "margin_right": null, "interpolation_parameters": {}, "x_labels_major": null, "rounded_bars": null, "show_y_labels": true, "dots_size": 2.5, "show_y_guides": true, "show_minor_y_labels": true, "x_labels": null, "y_title": null, "order_min": null, "formatter": null, "disable_xml_declaration": false, "strict": false, "css": ["file://style.css", "file://graph.css"], "tooltip_fancy_mode": true, "defs": [], "show_only_major_dots": false, "y_label_rotation": 0, "show_x_labels": true, "min_scale": 4, "show_x_guides": false, "spacing": 10, "x_labels_major_count": null, "pretty_print": false, "tooltip_border_radius": 0, "interpolate": null, "js": ["//kozea.github.io/pygal.js/2.0.x/pygal-tooltips.min.js"], "y_labels": null, "stroke_style": null, "print_labels": false, "interpolation_precision": 250, "x_title": "udp_2000kbps", "y_labels_major_every": null, "logarithmic": false, "legends": ["qdelay", "txed(kbps)", "topo(kbps)"], "max_scale": 16, "print_zeroes": true, "no_data_text": "No data", "truncate_legend": null, "x_labels_major_every": null, "secondary_range": null, "legend_box_size": 12, "no_prefix": false, "stroke": true, "stack_from_top": false, "include_x_axis": false, "range": [0, 2400], "classes": ["pygal-chart"], "margin_top": null, "margin_left": null, "y_labels_major_count": null, "margin_bottom": null, "inverse_y_axis": false, "margin": 20, "allow_interruptions": false, "print_values_position": "center"}</script><script type="text/javascript" xlink:href="https://kozea.github.io/pygal.js/2.0.x/pygal-tooltips.min.js" /></defs><title>Pygal</title><g class="graph xy-graph vertical"><rect class="background" height="600" width="800" x="0" y="0" /><g class="plot" transform="translate(160, 20)"><rect class="background" height="514" width="620.0" x="0" y="0" /><g class="axis y always_show"><g class="guides"><path class="axis major line" d="M0.000000 504.115385 h620.000000" /><text class="major" x="-5" y="507.615384615">0</text><title>0</title></g><g class="guides"><path class="guide line" d="M0.000000 462.929487 h620.000000" /><text class="" x="-5" y="466.429487179">200</text><title>200</title></g><g class="guides"><path class="guide line" d="M0.000000 421.743590 h620.000000" /><text class="" x="-5" y="425.243589744">400</text><title>400</title></g><g class="guides"><path class="guide line" d="M0.000000 380.557692 h620.000000" /><text class="" x="-5" y="384.057692308">600</text><title>600</title></g><g class="guides"><path class="guide line" d="M0.000000 339.371795 h620.000000" /><text class="" x="-5" y="342.871794872">800</text><title>800</title></g><g class="guides"><path class="major guide line" d="M0.000000 298.185897 h620.000000" /><text class="major" x="-5" y="301.685897436">1000</text><title>1000</title></g><g class="guides"><path class="guide line" d="M0.000000 257.000000 h620.000000" /><text class="" x="-5" y="260.5">1200</text><title>1200</title></g><g class="guides"><path class="guide line" d="M0.000000 215.814103 h620.000000" /><text class="" x="-5" y="219.314102564">1400</text><title>1400</title></g><g class="guides"><path class="guide line" d="M0.000000 174.628205 h620.000000" /><text class="" x="-5" y="178.128205128">1600</text><title>1600</title></g><g class="guides"><path class="guide line" d="M0.000000 133.442308 h620.000000" /><text class="" x="-5" y="136.942307692">1800</text><title>1800</title></g><g class="guides"><path class="major guide line" d="M0.000000 92.256410 h620.000000" /><text class="major" x="-5" y="95.7564102564">2000</text><title>2000</title></g><g class="guides"><path class="guide line" d="M0.000000 51.070513 h620.000000" /><text class="" x="-5" y="54.5705128205">2200</text><title>2200</title></g><g class="guides"><path class="guide line" d="M0.000000 9.884615 h620.000000" /><text class="" x="-5" y="13.3846153846">2400</text><title>2400</title></g></g><g class="axis x"><path class="line" d="M0.000000 0.000000 v514.000000" /><g class="guides"><path class="guide line" d="M60.248248 0.000000 v514.000000" /><text class="" x="60.2482477839" y="529.0">10</text><title>10</title></g><g class="guides"><path class="guide line" d="M110.052213 0.000000 v514.000000" /><text class="" x="110.052212919" y="529.0">20</text><title>20</title></g><g class="guides"><path class="guide line" d="M159.856178 0.000000 v514.000000" /><text class="" x="159.856178053" y="529.0">30</text><title>30</title></g><g class="guides"><path class="guide line" d="M209.660143 0.000000 v514.000000" /><text class="" x="209.660143188" y="529.0">40</text><title>40</title></g><g class="guides"><path class="guide line" d="M259.464108 0.000000 v514.000000" /><text class="" x="259.464108323" y="529.0">50</text><title>50</title></g><g class="guides"><path class="guide line" d="M309.268073 0.000000 v514.000000" /><text class="" x="309.268073458" y="529.0">60</text><title>60</title></g><g class="guides"><path class="guide line" d="M359.072039 0.000000 v514.000000" /><text class="" x="359.072038593" y="529.0">70</text><title>70</title></g><g class="guides"><path class="guide line" d="M408.876004 0.000000 v514.000000" /><text class="" x="408.876003727" y="529.0">80</text><title>80</title></g><g class="guides"><path class="guide line" d="M458.679969 0.000000 v514.000000" /><text class="" x="458.679968862" y="529.0">90</text><title>90</title></g><g class="guides"><path class="guide line" d="M508.483934 0.000000 v514.000000" /><text class="" x="508.483933997" y="529.0">100</text><title>100</title></g><g class="guides"><path class="guide line" d="M558.287899 0.000000 v514.000000" /><text class="" x="558.287899132" y="529.0">110</text><title>110</title></g></g><g class="series serie-0 color-0"><path class="line reactive nofill" d="M11.923077 504.115385 L12.420957 504.115385 12.918917 504.115385 13.417037 503.909455 13.915076 504.115385 14.413036 503.703526 14.911155 503.497596 15.409115 503.703526 15.907230 503.703526 16.405170 503.497596 16.903409 504.115385 17.401249 503.497596 17.899388 504.115385 18.397328 503.909455 18.895468 503.703526 19.393507 503.703526 19.891447 503.703526 20.389587 503.703526 20.887626 503.497596 21.385666 504.115385 21.883606 503.497596 22.381745 503.909455 22.879785 504.115385 23.377825 504.115385 23.875864 503.703526 24.373804 503.497596 24.871944 503.909455 25.369983 503.497596 25.867923 503.703526 26.366062 503.909455 26.864102 504.115385 27.362042 503.703526 27.860181 503.703526 28.358221 504.115385 28.856261 503.291667 29.354201 503.291667 29.852340 503.497596 30.350380 503.085737 30.848419 503.909455 31.346359 503.291667 31.844648 503.909455 32.342688 503.909455 32.840678 503.497596 33.338618 503.497596 33.836657 503.497596 34.334846 503.703526 34.832886 503.909455 35.330926 503.703526 35.828915 503.703526 36.326955 503.909455 36.825045 503.703526 37.323084 503.703526 37.821124 503.703526 38.319164 503.909455 38.817153 503.497596 39.315243 503.909455 39.813282 503.291667 40.311322 503.909455 40.809312 503.909455 41.307501 503.497596 41.805391 503.703526 42.303481 503.909455 42.801520 503.909455 43.299560 503.909455 43.797699 503.909455 44.295590 503.909455 44.793629 503.909455 45.291669 503.291667 45.790007 504.115385 46.287898 503.497596 46.785788 503.497596 47.283877 503.497596 47.782016 503.703526 48.280056 503.909455 48.778096 503.497596 49.276135 503.703526 49.774175 503.909455 50.272115 503.497596 50.770155 503.497596 51.268194 504.115385 51.766184 503.291667 52.264274 503.291667 52.762313 503.703526 53.260502 504.115385 53.758542 503.909455 54.256582 503.909455 54.754572 503.497596 55.252661 503.497596 55.750651 503.909455 56.248691 503.909455 56.746631 503.497596 57.244670 503.703526 57.742710 503.909455 58.240750 503.497596 58.738789 503.497596 59.236978 503.909455 59.734968 503.909455 60.233008 503.909455 60.730848 503.497596 61.229386 503.909455 61.726928 503.909455 62.224967 503.291667 62.723007 503.497596 63.221046 503.909455 63.719086 503.703526 64.217126 503.909455 64.715165 503.703526 65.213205 503.291667 65.711245 503.909455 66.209284 503.703526 66.707324 503.291667 67.205364 503.909455 67.703403 503.497596 68.201443 503.497596 68.699483 503.909455 69.197522 503.909455 69.695562 503.703526 70.194100 504.115385 70.691641 503.703526 71.189681 503.703526 71.688219 503.909455 72.186258 503.703526 72.683800 503.497596 73.182338 503.497596 73.679879 503.909455 74.177919 503.291667 74.675958 503.909455 75.174496 503.909455 75.672038 503.497596 76.170575 503.909455 76.668615 503.291667 77.166157 503.703526 77.664694 503.703526 78.162734 503.909455 78.660276 503.497596 79.158315 503.703526 79.656355 503.703526 80.154893 503.909455 80.652434 503.703526 81.150474 503.703526 81.648514 503.703526 82.147051 503.909455 82.645091 503.703526 83.142633 503.497596 83.640672 503.703526 84.138712 503.497596 84.636751 503.909455 85.135289 503.909455 85.633329 503.909455 86.130870 503.909455 86.628910 503.703526 87.126950 503.497596 87.625487 503.703526 88.123527 503.703526 88.621069 503.909455 89.119606 503.497596 89.617148 503.909455 90.115188 503.909455 90.613227 503.703526 91.111765 504.115385 91.609307 503.497596 92.107346 503.909455 92.605386 503.703526 93.103426 503.703526 93.601963 503.703526 94.100003 503.909455 94.598043 503.703526 95.096082 503.703526 95.594122 503.703526 96.091663 503.909455 96.589703 503.909455 97.087743 503.703526 97.585782 503.703526 98.084320 503.909455 98.581862 503.497596 99.079901 503.703526 99.577941 503.703526 100.075981 503.909455 100.574020 503.703526 101.072060 503.909455 101.570598 503.909455 102.068139 503.703526 102.566677 503.703526 103.064219 503.703526 103.562258 503.291667 104.060796 503.909455 104.558836 503.909455 105.056377 503.291667 105.554417 503.909455 106.052955 503.497596 106.550496 503.909455 107.049034 503.909455 107.547073 503.703526 108.045113 503.703526 108.543153 503.291667 109.041192 504.115385 109.538734 503.291667 110.037272 503.497596 110.534813 503.497596 111.033351 503.497596 111.531391 503.703526 112.029430 503.909455 112.527470 503.497596 113.025510 503.909455 113.523549 503.703526 114.021589 503.703526 114.519131 503.497596 115.017170 504.115385 115.515708 503.703526 116.013748 503.909455 116.511787 503.909455 117.009827 503.909455 117.507866 503.703526 118.005906 503.909455 118.503946 503.703526 119.001985 503.909455 119.500025 503.703526 119.998065 503.291667 120.495606 503.703526 120.993646 503.909455 121.491686 503.497596 121.990223 503.703526 122.488263 503.909455 122.986303 503.909455 123.483844 503.909455 123.982382 503.909455 124.480422 503.703526 124.977963 504.115385 125.476501 503.703526 125.974541 503.703526 126.472580 503.497596 126.970620 503.909455 127.468660 503.291667 127.966699 503.703526 128.464739 503.291667 128.962778 503.291667 129.460818 503.909455 129.958858 503.291667 130.456897 503.497596 130.954439 503.703526 131.452479 503.497596 131.951016 504.115385 132.449056 504.115385 132.947096 503.703526 133.445135 503.497596 133.943175 503.703526 134.441215 503.909455 134.939254 503.909455 135.437294 503.497596 135.935334 503.703526 136.433373 503.497596 136.931413 503.703526 137.429453 503.497596 137.927492 503.703526 138.425532 503.291667 138.923572 503.909455 139.421611 503.703526 139.919651 502.056090 140.417690 503.291667 140.915730 503.703526 141.413770 504.115385 141.911809 503.909455 142.409849 503.291667 142.907889 503.909455 143.405928 503.291667 143.903968 503.703526 144.402008 503.703526 144.900047 503.703526 145.398087 503.291667 145.896127 502.467949 146.394166 503.909455 146.892206 503.497596 147.390246 503.497596 147.888285 503.497596 148.386325 503.085737 148.884365 503.497596 149.382404 503.703526 149.880444 503.291667 150.378483 503.909455 150.876523 503.909455 151.374563 503.703526 151.872602 503.497596 152.370642 502.673878 152.868682 502.467949 153.366721 502.879808 153.864761 503.497596 154.362801 503.497596 154.860840 503.909455 155.358880 503.085737 155.856920 503.909455 156.354959 503.703526 156.852999 503.703526 157.351039 503.703526 157.849078 503.085737 158.347118 503.703526 158.845158 503.909455 159.343197 502.467949 159.841237 501.232372 160.339277 496.907853 160.837316 495.672276 161.335356 496.495994 161.833395 497.731571 162.331435 499.584936 162.829475 503.703526 163.327514 503.497596 163.825554 502.879808 164.323594 503.497596 164.821633 503.291667 165.319673 503.291667 165.817713 502.056090 166.315752 499.584936 166.813792 503.291667 167.311334 503.703526 167.809871 503.703526 168.307911 502.673878 168.805951 503.497596 169.303990 503.497596 169.802030 503.291667 170.300070 503.497596 170.798109 503.497596 171.296149 503.291667 171.794188 503.703526 172.292228 503.703526 172.790268 503.497596 173.288307 503.703526 173.786347 503.291667 174.284387 502.467949 174.782426 502.262019 175.280466 501.026442 175.778506 503.909455 176.276545 503.703526 176.774585 504.115385 177.272625 503.085737 177.770664 503.909455 178.268704 503.291667 178.766744 503.291667 179.264783 503.291667 179.762823 502.673878 180.260863 503.497596 180.758902 503.703526 181.256942 500.408654 181.754982 501.644231 182.253021 503.291667 182.751061 503.291667 183.249100 502.879808 183.747140 503.497596 184.245180 503.085737 184.743219 503.703526 185.241259 503.497596 185.739299 503.497596 186.237338 503.291667 186.735378 503.909455 187.233418 503.291667 187.730959 503.291667 188.229497 503.909455 188.727537 501.438301 189.225576 496.084135 189.723616 499.173077 190.221656 499.790865 190.719695 502.673878 191.217735 503.497596 191.715775 503.703526 192.213814 503.703526 192.711854 503.703526 193.209894 502.673878 193.707933 503.703526 194.205973 503.909455 194.704012 503.909455 195.202052 503.291667 195.700092 502.673878 196.198131 503.291667 196.696171 503.703526 197.194211 503.291667 197.692250 503.497596 198.190290 498.967147 198.688330 500.820513 199.186369 501.026442 199.684409 503.497596 200.182449 503.703526 200.680488 503.703526 201.178528 503.703526 201.676568 503.703526 202.174607 503.703526 202.672647 503.497596 203.170687 501.026442 203.668726 502.879808 204.166766 503.703526 204.664805 503.703526 205.162845 503.085737 205.660885 503.497596 206.158924 501.644231 206.656964 499.173077 207.155004 503.497596 207.653043 503.291667 208.151083 503.291667 208.649123 503.085737 209.147162 503.291667 209.645202 503.291667 210.143242 503.497596 210.641281 502.056090 211.139321 502.056090 211.637361 503.291667 212.135400 503.497596 212.633440 502.262019 213.131480 501.850160 213.629519 503.291667 214.127559 503.909455 214.625599 503.497596 215.123638 503.703526 215.621678 503.497596 216.119717 503.909455 216.617757 503.497596 217.115797 502.467949 217.613836 502.056090 218.111876 502.056090 218.609916 503.703526 219.107955 503.703526 219.605995 502.262019 220.104035 501.438301 220.602074 499.996795 221.100114 502.262019 221.598154 503.291667 222.096193 503.497596 222.594233 503.291667 223.092273 503.291667 223.590312 503.703526 224.088352 500.614583 224.586392 497.319712 225.084431 499.379006 225.582471 499.996795 226.080510 503.703526 226.578550 503.291667 227.076590 503.497596 227.574629 502.879808 228.072669 503.497596 228.570709 503.703526 229.068748 503.291667 229.566788 503.909455 230.064828 503.703526 230.562867 503.291667 231.060907 503.703526 231.558947 503.291667 232.056986 503.497596 232.555026 503.291667 233.053066 503.497596 233.551105 503.703526 234.049145 503.291667 234.547185 503.291667 235.045224 503.909455 235.543264 503.703526 236.041304 503.497596 236.539343 503.085737 237.037383 503.909455 237.535422 503.291667 238.033462 503.497596 238.531502 503.497596 239.029541 503.497596 239.527581 503.291667 240.025621 503.291667 240.523660 503.291667 241.021700 503.703526 241.519740 503.909455 242.017779 503.291667 242.515819 503.497596 243.013859 501.644231 243.511898 499.379006 244.009938 500.202724 244.507978 502.262019 245.006017 503.703526 245.504057 503.497596 246.002097 503.497596 246.500136 503.291667 246.998176 503.497596 247.496216 503.291667 247.994255 503.085737 248.492295 503.703526 248.990334 503.909455 249.488374 502.262019 249.986414 503.291667 250.484453 503.703526 250.982493 503.909455 251.480533 503.703526 251.978572 502.673878 252.476612 503.085737 252.974652 503.291667 253.472691 503.085737 253.970731 503.703526 254.468771 503.497596 254.966810 503.291667 255.464850 503.497596 255.962392 503.291667 256.460929 503.703526 256.958969 503.085737 257.457009 501.850160 257.955048 503.497596 258.453088 503.085737 258.951127 503.497596 259.449167 502.673878 259.947207 503.085737 260.445246 503.497596 260.943286 503.291667 261.441326 503.703526 261.939365 503.909455 262.437405 503.291667 262.935445 503.291667 263.433484 503.291667 263.931524 504.115385 264.429564 503.497596 264.927603 503.291667 265.425643 501.438301 265.923683 503.291667 266.421722 503.291667 266.919762 503.703526 267.417802 503.291667 267.915841 500.820513 268.413881 501.026442 268.912419 502.879808 269.409960 500.202724 269.908000 503.497596 270.406039 503.291667 270.904079 503.085737 271.402119 503.703526 271.900158 503.291667 272.398198 503.909455 272.896238 503.909455 273.394277 503.909455 273.892317 503.497596 274.390357 503.291667 274.888396 503.909455 275.386436 503.291667 275.884476 503.909455 276.382515 503.291667 276.880555 503.291667 277.378595 503.909455 277.876634 503.497596 278.374674 503.497596 278.872714 503.497596 279.370753 501.026442 279.868793 503.291667 280.366832 503.291667 280.864872 502.673878 281.362912 503.909455 281.860951 503.703526 282.358991 502.879808 282.857031 503.085737 283.355070 503.703526 283.853110 503.291667 284.351150 502.467949 284.849189 503.909455 285.347229 503.291667 285.845269 503.085737 286.343308 502.467949 286.841348 503.497596 287.339388 503.291667 287.837427 503.497596 288.335467 503.291667 288.833507 503.497596 289.331546 503.085737 289.829586 502.467949 290.327626 503.291667 290.825665 503.291667 291.323705 503.497596 291.821744 502.673878 292.319784 503.703526 292.817824 503.291667 293.315863 503.497596 293.813903 503.291667 294.311943 503.291667 294.809982 503.497596 295.308022 503.085737 295.806062 499.379006 296.304101 502.262019 296.802141 503.703526 297.300181 500.820513 297.798220 503.703526 298.296260 503.703526 298.794300 503.291667 299.292339 503.291667 299.790379 503.497596 300.288419 503.291667 300.786458 503.909455 301.284498 503.497596 301.782537 501.850160 302.280577 503.497596 302.778617 503.703526 303.276656 503.497596 303.774696 503.291667 304.272736 503.291667 304.770775 503.497596 305.268815 503.909455 305.766855 503.909455 306.264894 503.909455 306.762934 503.703526 307.260974 503.497596 307.759013 503.291667 308.257053 503.291667 308.755093 503.291667 309.253132 503.909455 309.751172 503.497596 310.249212 503.291667 310.747251 503.291667 311.245291 502.467949 311.743331 502.673878 312.241370 499.379006 312.739410 500.820513 313.237449 503.085737 313.735489 503.703526 314.233529 503.703526 314.731568 499.584936 315.229608 500.614583 315.727648 503.497596 316.225687 503.703526 316.723727 503.291667 317.221767 503.703526 317.719806 503.291667 318.217846 503.909455 318.715886 504.115385 319.213925 503.291667 319.711965 503.909455 320.210005 503.291667 320.708044 503.497596 321.206084 503.497596 321.704124 503.497596 322.202163 503.497596 322.700203 503.291667 323.198243 503.497596 323.696282 502.673878 324.194322 503.291667 324.692361 503.085737 325.190401 503.291667 325.688441 503.497596 326.186480 503.497596 326.684520 503.497596 327.182560 503.703526 327.680599 503.291667 328.178639 503.497596 328.676679 503.909455 329.174718 503.909455 329.672758 503.909455 330.170798 503.703526 330.668837 503.291667 331.166877 503.291667 331.664917 503.291667 332.162956 503.703526 332.660996 503.703526 333.159036 503.703526 333.657075 502.262019 334.155115 503.291667 334.653154 503.291667 335.151194 503.497596 335.649234 503.291667 336.147273 504.115385 336.645313 503.085737 337.143353 501.644231 337.641392 503.703526 338.139432 503.291667 338.637472 503.703526 339.135511 503.497596 339.633551 503.085737 340.131591 503.291667 340.629630 501.026442 341.127670 502.879808 341.625710 503.497596 342.123749 503.703526 342.621789 503.909455 343.119829 503.703526 343.617868 503.291667 344.115908 503.291667 344.613948 503.291667 345.111987 503.497596 345.610027 503.703526 346.108066 503.291667 346.606106 503.703526 347.104146 503.497596 347.602185 503.291667 348.100225 503.703526 348.598265 503.291667 349.096304 503.909455 349.594344 503.703526 350.091886 503.703526 350.590423 503.085737 351.088463 503.291667 351.586503 503.909455 352.084542 503.291667 352.582582 503.909455 353.080622 503.291667 353.578661 503.909455 354.076701 503.497596 354.574741 503.291667 355.072780 503.909455 355.570820 504.115385 356.068859 503.291667 356.566899 503.291667 357.064939 501.850160 357.562978 503.291667 358.061018 503.909455 358.559058 503.909455 359.057097 503.703526 359.555137 503.497596 360.053177 502.467949 360.551216 503.291667 361.049256 503.703526 361.547296 503.291667 362.045335 503.703526 362.543375 503.291667 363.041415 502.056090 363.539454 503.291667 364.037494 503.703526 364.535534 503.497596 365.033573 503.291667 365.531613 502.879808 366.029653 503.703526 366.527692 503.085737 367.025732 502.262019 367.523771 502.262019 368.021811 503.909455 368.519851 503.291667 369.017890 501.850160 369.515930 499.996795 370.013970 503.291667 370.512009 502.467949 371.010049 503.291667 371.508089 501.850160 372.006128 502.673878 372.504168 499.379006 373.002208 491.553686 373.500247 501.438301 373.998287 503.085737 374.496327 503.497596 374.994366 503.909455 375.492406 502.673878 375.990446 500.820513 376.488485 498.143429 376.986525 497.937500 377.484565 500.202724 377.982604 503.703526 378.480644 503.909455 378.978683 503.497596 379.476723 503.703526 379.974763 502.262019 380.472802 503.497596 380.970842 503.291667 381.468882 502.879808 381.966921 503.497596 382.464961 502.056090 382.963001 498.761218 383.461040 500.820513 383.959080 502.879808 384.457120 502.467949 384.955159 503.291667 385.453199 503.497596 385.951239 503.291667 386.449278 502.673878 386.947318 503.291667 387.445358 501.644231 387.943397 501.438301 388.441437 501.232372 388.939476 498.967147 389.437516 499.790865 389.935556 501.850160 390.433595 501.026442 390.931635 500.408654 391.429675 502.673878 391.927714 503.497596 392.425754 502.262019 392.923794 503.291667 393.421833 502.467949 393.919873 498.761218 394.417913 500.408654 394.915952 503.085737 395.413992 503.291667 395.912032 503.291667 396.410071 503.291667 396.908111 503.497596 397.406151 503.909455 397.904190 500.202724 398.402230 501.026442 398.900270 502.879808 399.398309 503.909455 399.896349 502.673878 400.394388 499.996795 400.892428 503.085737 401.390468 503.703526 401.888507 503.085737 402.386547 503.085737 402.884587 502.673878 403.382626 503.703526 403.880666 503.291667 404.378706 503.703526 404.876745 502.262019 405.374785 503.909455 405.872825 503.291667 406.370864 503.703526 406.868904 502.467949 407.366944 503.703526 407.864983 503.497596 408.363023 502.262019 408.861063 500.202724 409.359102 500.614583 409.857142 503.085737 410.355181 503.291667 410.853221 503.085737 411.351261 498.967147 411.849300 503.085737 412.347340 503.497596 412.845380 503.703526 413.343419 503.703526 413.841459 503.291667 414.339499 503.291667 414.837538 497.731571 415.335578 495.672276 415.833618 498.761218 416.331657 499.584936 416.829697 503.085737 417.327737 502.673878 417.825776 501.850160 418.323816 503.291667 418.821856 503.909455 419.319895 503.703526 419.817935 503.085737 420.315975 503.291667 420.814014 502.467949 421.312054 502.673878 421.810093 503.291667 422.308133 503.291667 422.806173 503.291667 423.304212 503.291667 423.802252 503.291667 424.300292 503.291667 424.798331 503.085737 425.296371 503.291667 425.794411 503.497596 426.292450 503.497596 426.790490 503.703526 427.288530 503.291667 427.786569 501.850160 428.284609 503.085737 428.782649 503.497596 429.280688 503.497596 429.778728 503.909455 430.276768 503.703526 430.774807 503.291667 431.272847 503.703526 431.770886 503.291667 432.268926 502.879808 432.766966 503.291667 433.265005 503.497596 433.763045 503.703526 434.261085 503.085737 434.759124 503.703526 435.257164 503.497596 435.755204 503.291667 436.253243 503.703526 436.751283 503.085737 437.249323 502.262019 437.747362 503.909455 438.245402 503.291667 438.743442 502.879808 439.241481 503.291667 439.739521 503.703526 440.237561 503.497596 440.735600 503.497596 441.233640 502.879808 441.731680 503.703526 442.229719 503.497596 442.727759 504.115385 443.225798 503.909455 443.723838 503.291667 444.221878 501.644231 444.719917 501.644231 445.217957 501.438301 445.715997 503.497596 446.214036 500.614583 446.712076 499.379006 447.210116 499.790865 447.708155 503.909455 448.206195 503.497596 448.704235 502.673878 449.202274 503.497596 449.700314 503.291667 450.198354 503.085737 450.696393 503.085737 451.194433 503.703526 451.692473 503.085737 452.190512 503.497596 452.688552 503.291667 453.186592 503.703526 453.684631 503.909455 454.182671 503.497596 454.680710 501.026442 455.178750 501.232372 455.676790 499.173077 456.174829 503.291667 456.672869 503.497596 457.170909 503.497596 457.668948 503.497596 458.166988 503.703526 458.665028 503.497596 459.163067 503.291667 459.661107 501.644231 460.159147 500.408654 460.657186 503.703526 461.155226 503.909455 461.653266 503.497596 462.151305 502.879808 462.649345 503.909455 463.147385 503.291667 463.645424 503.497596 464.143464 503.497596 464.641503 503.291667 465.139543 503.291667 465.637583 503.909455 466.135622 503.497596 466.633662 503.497596 467.131702 503.909455 467.629741 503.909455 468.127781 503.497596 468.625821 503.497596 469.123860 499.584936 469.621900 497.731571 470.119940 501.438301 470.617979 500.820513 471.116019 493.612981 471.614059 497.113782 472.112098 499.379006 472.610138 503.703526 473.108178 503.497596 473.606217 503.291667 474.104257 501.026442 474.602297 501.232372 475.100336 503.291667 475.598376 503.497596 476.096415 503.703526 476.594455 503.497596 477.092495 503.291667 477.590534 503.291667 478.088574 503.703526 478.586614 503.703526 479.084653 503.909455 479.582693 503.497596 480.080733 503.291667 480.578772 503.291667 481.076812 499.584936 481.574852 499.996795 482.072891 503.291667 482.570931 503.085737 483.068971 498.555288 483.567010 502.673878 484.065050 503.703526 484.563090 503.291667 485.061129 503.497596 485.559169 503.497596 486.057208 503.497596 486.555248 503.291667 487.053288 503.909455 487.551327 503.703526 488.049367 503.497596 488.547407 503.085737 489.045446 503.703526 489.543486 503.703526 490.041526 503.291667 490.539565 503.291667 491.037605 503.909455 491.535645 503.703526 492.033684 503.703526 492.531724 503.909455 493.029764 503.291667 493.527803 503.703526 494.025843 503.497596 494.523883 503.291667 495.021922 503.291667 495.519962 502.879808 496.018002 502.879808 496.516041 503.291667 497.014081 503.291667 497.512120 503.291667 498.010160 503.909455 498.508200 503.703526 499.006239 503.497596 499.504279 502.056090 500.002319 499.996795 500.500358 502.056090 500.998398 503.291667 501.496438 503.703526 501.994477 503.497596 502.492517 503.703526 502.990557 503.291667 503.488596 503.291667 503.986636 503.497596 504.484676 503.909455 504.982715 504.115385 505.480755 503.497596 505.978795 503.497596 506.476834 503.909455 506.974874 503.085737 507.472914 503.497596 507.970953 503.497596 508.468993 502.467949 508.967032 503.497596 509.465072 503.497596 509.963112 503.497596 510.461151 503.497596 510.959191 503.497596 511.457231 503.909455 511.955270 503.085737 512.453310 503.909455 512.951350 503.291667 513.449389 502.467949 513.947429 502.056090 514.445469 498.555288 514.943508 500.820513 515.441548 503.291667 515.939588 501.232372 516.437627 503.291667 516.935667 503.291667 517.433707 503.909455 517.931746 502.673878 518.429786 502.879808 518.927825 502.879808 519.425865 503.703526 519.923905 503.703526 520.421944 503.703526 520.919984 503.909455 521.418024 503.497596 521.916063 503.291667 522.414103 503.291667 522.912143 503.909455 523.410182 503.291667 523.908222 503.085737 524.406262 503.085737 524.904301 499.790865 525.402341 504.115385 525.900381 503.291667 526.398420 503.291667 526.896460 503.291667 527.394500 502.673878 527.892539 503.291667 528.390579 503.703526 528.888619 503.497596 529.386658 503.703526 529.884698 503.291667 530.382737 503.703526 530.880777 503.291667 531.378817 503.497596 531.876856 503.085737 532.374896 500.614583 532.872936 503.085737 533.370975 503.703526 533.869015 503.497596 534.367055 503.909455 534.865094 503.703526 535.363134 503.497596 535.861174 503.703526 536.359213 503.085737 536.857253 503.497596 537.355293 503.909455 537.853332 503.291667 538.351372 503.497596 538.849412 503.703526 539.347451 503.909455 539.845491 503.291667 540.343530 503.909455 540.841570 503.291667 541.339610 502.262019 541.837649 503.497596 542.335689 503.497596 542.833729 503.497596 543.331768 503.909455 543.829808 503.497596 544.327848 502.262019 544.825887 500.820513 545.323927 501.850160 545.821967 503.291667 546.320006 503.497596 546.818046 501.644231 547.316086 503.291667 547.814125 503.703526 548.312165 503.085737 548.810205 503.909455 549.308244 503.291667 549.806284 503.703526 550.304324 503.909455 550.802363 501.644231 551.300403 503.909455 551.798442 503.291667 552.296482 503.909455 552.794522 503.291667 553.292561 503.909455 553.790601 503.497596 554.288641 503.291667 554.786680 500.614583 555.284720 500.820513 555.782760 503.291667 556.280799 503.909455 556.778839 501.850160 557.276879 498.555288 557.774918 497.937500 558.272958 498.761218 558.770998 501.850160 559.269037 503.497596 559.767077 503.909455 560.265117 503.909455 560.763156 503.291667 561.261196 503.497596 561.759236 503.085737 562.257275 503.909455 562.755315 503.497596 563.253354 503.291667 563.751394 503.085737 564.249434 502.879808 564.747473 503.497596 565.245513 503.703526 565.743553 503.497596 566.241592 503.497596 566.739632 502.467949 567.237672 503.291667 567.735711 503.291667 568.233751 503.703526 568.731791 503.497596 569.229830 503.909455 569.727870 503.291667 570.225910 503.703526 570.723949 503.085737 571.221989 503.909455 571.720029 503.085737 572.218068 501.644231 572.716108 503.291667 573.214147 503.703526 573.712187 503.085737 574.210227 503.291667 574.708266 503.291667 575.206306 503.497596 575.704346 503.291667 576.202385 503.909455 576.700425 503.291667 577.198465 503.291667 577.696504 503.703526 578.194544 503.909455 578.692584 503.291667 579.190623 503.703526 579.688663 503.291667 580.186703 503.085737 580.684742 503.291667 581.182782 502.467949 581.680822 502.879808 582.178861 502.467949 582.676901 503.703526 583.174941 503.291667 583.672980 503.497596 584.171020 503.291667 584.669059 502.879808 585.167099 500.614583 585.665139 500.408654 586.163178 501.850160 586.661218 501.232372 587.159258 499.790865 587.657297 502.673878 588.155337 501.438301 588.653377 503.497596 589.151416 501.644231 589.649456 503.291667 590.147496 503.291667 590.645535 503.085737 591.143575 503.909455 591.641615 503.497596 592.139654 503.703526 592.637694 503.497596 593.135734 503.291667 593.633773 503.703526 594.131813 503.291667 594.629852 502.879808 595.127892 503.291667 595.625932 503.291667 596.123971 503.291667 596.622011 503.497596 597.120051 503.291667 597.618090 503.703526 598.116130 503.291667 598.614170 503.085737 599.112209 503.909455 599.610249 503.497596 600.108289 503.291667 600.606328 503.085737 601.104368 499.584936 601.602408 500.614583 602.100447 501.644231 602.598487 503.291667 603.096527 503.497596 603.594566 503.909455 604.092606 503.291667 604.590646 503.291667 605.088685 503.703526 605.586725 503.703526 606.084764 503.703526 606.582804 503.497596 607.080844 503.909455 607.578883 503.291667 608.076923 503.291667" /></g><g class="series serie-1 color-1"><path class="line reactive nofill" d="M11.923077 422.979167 L12.420957 485.375801 12.918917 494.024840 13.417037 471.784455 13.915076 471.166667 14.413036 479.403846 14.911155 466.018429 15.409115 478.786058 15.907230 463.341346 16.405170 475.285256 16.903409 442.542468 17.401249 479.403846 17.899388 457.575321 18.397328 467.048077 18.895468 463.135417 19.393507 466.430288 19.891447 479.197917 20.389587 467.459936 20.887626 459.016827 21.385666 474.667468 21.883606 478.168269 22.381745 483.316506 22.879785 458.193109 23.377825 479.403846 23.875864 461.899840 24.373804 473.637821 24.871944 475.903045 25.369983 466.018429 25.867923 478.374199 26.366062 469.931090 26.864102 471.372596 27.362042 482.080929 27.860181 464.988782 28.358221 458.810897 28.856261 460.458333 29.354201 474.667468 29.852340 468.077724 30.350380 457.575321 30.848419 465.400641 31.346359 477.756410 31.844648 382.411058 32.342688 424.626603 32.840678 424.832532 33.338618 456.751603 33.836657 454.280449 34.334846 400.326923 34.832886 416.801282 35.330926 381.381410 35.828915 431.834135 36.326955 424.008814 36.825045 399.915064 37.323084 405.681090 37.821124 404.857372 38.319164 412.476763 38.817153 433.275641 39.315243 394.972756 39.813282 400.120994 40.311322 417.625000 40.809312 456.751603 41.307501 351.315705 41.805391 407.740385 42.303481 407.946314 42.801520 402.592147 43.299560 414.536058 43.797699 396.620192 44.295590 435.334936 44.793629 437.394231 45.291669 425.862179 45.790007 330.516827 46.287898 376.439103 46.785788 415.153846 47.283877 395.384615 47.782016 370.055288 48.280056 357.905449 48.778096 352.345353 49.276135 359.552885 49.774175 388.383013 50.272115 398.267628 50.770155 382.616987 51.268194 400.120994 51.766184 415.359776 52.264274 385.088141 52.762313 392.295673 53.260502 349.050481 53.758542 361.406250 54.256582 323.515224 54.754572 362.847756 55.252661 338.959936 55.750651 369.025641 56.248691 370.261218 56.746631 393.943109 57.244670 398.473558 57.742710 412.888622 58.240750 380.763622 58.738789 400.944712 59.236978 361.200321 59.734968 369.849359 60.233008 369.849359 60.730848 420.919872 61.229386 336.282853 61.726928 361.406250 62.224967 395.384615 62.723007 403.827724 63.221046 371.290865 63.719086 352.757212 64.217126 381.999199 64.715165 386.529647 65.213205 376.233173 65.711245 388.383013 66.209284 389.412660 66.707324 385.911859 67.205364 379.939904 67.703403 350.491987 68.201443 408.152244 68.699483 388.588942 69.197522 379.528045 69.695562 420.713942 70.194100 370.261218 70.691641 364.083333 71.189681 371.908654 71.688219 316.925481 72.186258 341.431090 72.683800 344.931891 73.182338 290.772436 73.679879 357.905449 74.177919 377.056891 74.675958 362.229968 75.174496 359.552885 75.672038 384.470353 76.170575 359.141026 76.668615 351.727564 77.166157 342.460737 77.664694 344.725962 78.162734 336.282853 78.660276 372.526442 79.158315 376.645032 79.656355 386.323718 80.154893 344.725962 80.652434 366.554487 81.150474 351.933494 81.648514 357.287660 82.147051 368.407853 82.645091 344.108173 83.142633 387.559295 83.640672 388.794872 84.138712 420.919872 84.636751 395.178686 85.135289 343.696314 85.633329 356.875801 86.130870 383.646635 86.628910 370.673077 87.126950 363.259615 87.625487 356.669872 88.123527 340.813301 88.621069 362.435897 89.119606 324.544872 89.617148 371.908654 90.115188 392.913462 90.613227 350.903846 91.111765 335.870994 91.609307 385.500000 92.107346 366.348558 92.605386 358.111378 93.103426 364.907051 93.601963 346.579327 94.100003 320.220353 94.598043 292.419872 95.096082 345.755609 95.594122 300.039263 96.091663 358.729167 96.589703 354.816506 97.087743 370.467147 97.585782 387.353365 98.084320 357.905449 98.581862 387.765224 99.079901 355.022436 99.577941 344.314103 100.075981 377.056891 100.574020 392.913462 101.072060 392.913462 101.570598 358.729167 102.068139 403.209936 102.566677 356.258013 103.064219 365.524840 103.562258 345.343750 104.060796 349.874199 104.558836 337.724359 105.056377 358.317308 105.554417 357.081731 106.052955 229.199519 106.550496 356.463942 107.049034 365.318910 107.547073 322.279647 108.045113 320.838141 108.543153 316.719551 109.041192 348.844551 109.538734 352.345353 110.037272 345.137821 110.534813 365.936699 111.033351 336.282853 111.531391 311.777244 112.029430 303.745994 112.527470 314.248397 113.025510 312.806891 113.523549 281.505609 114.021589 344.314103 114.519131 384.058494 115.017170 358.935096 115.515708 307.452724 116.013748 309.512019 116.511787 312.189103 117.009827 354.404647 117.507866 296.538462 118.005906 286.447917 118.503946 339.783654 119.001985 309.100160 119.500025 257.617788 119.998065 258.441506 120.495606 379.528045 120.993646 373.556090 121.491686 353.375000 121.990223 341.225160 122.488263 293.861378 122.986303 301.068910 123.483844 392.913462 123.982382 293.861378 124.480422 324.750801 124.977963 361.406250 125.476501 317.131410 125.974541 324.338942 126.472580 339.989583 126.970620 237.642628 127.468660 323.103365 127.966699 289.125000 128.464739 324.956731 128.962778 288.713141 129.460818 257.823718 129.958858 281.299679 130.456897 262.766026 130.954439 360.994391 131.452479 364.083333 131.951016 288.713141 132.449056 276.769231 132.947096 257.617788 133.445135 305.805288 133.943175 353.375000 134.441215 348.020833 134.939254 316.101763 135.437294 308.482372 135.935334 300.245192 136.433373 238.466346 136.931413 253.705128 137.429453 273.886218 137.927492 192.338141 138.425532 294.273237 138.923572 211.695513 139.421611 295.920673 139.919651 109.554487 140.417690 249.792468 140.915730 248.145032 141.413770 263.589744 141.911809 326.604167 142.409849 302.922276 142.907889 272.238782 143.405928 232.494391 143.903968 249.792468 144.402008 261.736378 144.900047 235.377404 145.398087 221.374199 145.896127 119.439103 146.394166 252.675481 146.892206 217.461538 147.390246 331.958333 147.888285 288.507212 148.386325 193.779647 148.884365 280.475962 149.382404 215.608173 149.880444 212.931090 150.378483 216.431891 150.876523 264.001603 151.374563 202.428686 151.872602 211.489583 152.370642 160.830929 152.868682 175.657853 153.366721 208.606571 153.864761 223.845353 154.362801 219.932692 154.860840 321.455929 155.358880 202.634615 155.856920 224.463141 156.354959 202.428686 156.852999 228.993590 157.351039 199.957532 157.849078 210.254006 158.347118 269.561699 158.845158 229.405449 159.343197 121.498397 159.841237 156.918269 160.339277 92.050481 160.837316 147.033654 161.335356 220.756410 161.833395 215.608173 162.331435 212.313301 162.829475 306.834936 163.327514 212.519231 163.825554 191.926282 164.323594 267.502404 164.821633 269.149840 165.319673 236.612981 165.817713 117.585737 166.315752 168.244391 166.813792 283.770833 167.311334 369.849359 167.809871 220.344551 168.307911 141.679487 168.805951 259.471154 169.303990 276.769231 169.802030 179.570513 170.300070 303.128205 170.798109 209.224359 171.296149 238.054487 171.794188 252.469551 172.292228 265.854968 172.790268 338.754006 173.288307 339.165865 173.786347 187.395833 174.284387 225.080929 174.782426 121.910256 175.280466 204.899840 175.778506 250.616186 176.276545 193.367788 176.774585 257.617788 177.272625 191.720353 177.770664 276.975160 178.268704 161.448718 178.766744 218.903045 179.264783 171.127404 179.762823 195.838942 180.260863 230.641026 180.758902 196.456731 181.256942 149.504808 181.754982 230.229167 182.253021 241.143429 182.751061 212.725160 183.249100 186.778045 183.747140 233.318109 184.245180 180.188301 184.743219 254.734776 185.241259 248.762821 185.739299 217.049679 186.237338 202.222756 186.735378 231.052885 187.233418 188.425481 187.730959 372.114583 188.229497 183.071314 188.727537 62.190705 189.225576 172.568910 189.723616 214.784455 190.221656 220.344551 190.719695 222.609776 191.217735 195.633013 191.715775 224.669071 192.213814 215.196314 192.711854 182.453526 193.209894 234.965545 193.707933 254.940705 194.205973 303.745994 194.704012 335.459135 195.202052 200.369391 195.700092 218.079327 196.198131 265.854968 196.696171 207.782853 197.194211 237.436699 197.692250 185.748397 198.190290 199.339744 198.688330 227.140224 199.186369 166.596955 199.684409 260.500801 200.182449 269.973558 200.680488 239.701923 201.178528 267.296474 201.676568 269.355769 202.174607 272.444712 202.672647 172.568910 203.170687 192.132212 203.668726 209.018429 204.166766 216.637821 204.664805 205.517628 205.162845 230.641026 205.660885 201.399038 206.158924 132.618590 206.656964 187.395833 207.155004 249.586538 207.653043 245.056090 208.151083 201.810897 208.649123 209.430288 209.147162 285.006410 209.645202 206.959135 210.143242 172.157051 210.641281 165.979167 211.139321 187.189904 211.637361 248.350962 212.135400 220.756410 212.633440 191.514423 213.131480 142.503205 213.629519 251.233974 214.127559 245.262019 214.625599 179.982372 215.123638 206.959135 215.621678 289.536859 216.119717 269.973558 216.617757 217.255609 217.115797 147.857372 217.613836 210.665865 218.111876 189.866987 218.609916 236.201122 219.107955 256.176282 219.605995 142.503205 220.104035 76.193910 220.602074 261.324519 221.100114 263.383814 221.598154 236.818910 222.096193 237.642628 222.594233 279.240385 223.092273 291.596154 223.590312 208.812500 224.088352 95.345353 224.586392 160.213141 225.084431 242.379006 225.582471 203.252404 226.080510 331.546474 226.578550 315.483974 227.076590 208.194712 227.574629 175.863782 228.072669 262.354167 228.570709 290.978365 229.068748 250.616186 229.566788 244.438301 230.064828 256.382212 230.562867 231.052885 231.060907 157.330128 231.558947 240.319712 232.056986 202.222756 232.555026 193.161859 233.053066 206.959135 233.551105 303.540064 234.049145 244.438301 234.547185 214.784455 235.045224 232.082532 235.543264 159.595353 236.041304 231.670673 236.539343 175.657853 237.037383 218.697115 237.535422 197.898237 238.033462 199.751603 238.531502 197.280449 239.029541 199.751603 239.527581 258.441506 240.025621 245.673878 240.523660 243.820513 241.021700 275.945513 241.519740 266.884615 242.017779 212.931090 242.515819 201.810897 243.013859 113.879006 243.511898 181.423878 244.009938 187.601763 244.507978 230.023237 245.006017 288.507212 245.504057 247.321314 246.002097 250.822115 246.500136 211.489583 246.998176 227.758013 247.496216 152.593750 247.994255 234.759615 248.492295 214.372596 248.990334 175.245994 249.488374 168.450321 249.986414 221.786058 250.484453 256.588141 250.982493 222.609776 251.480533 256.176282 251.978572 130.971154 252.476612 262.354167 252.974652 207.576923 253.472691 171.127404 253.970731 292.008013 254.468771 312.600962 254.966810 184.100962 255.464850 224.669071 255.962392 343.902244 256.460929 245.262019 256.958969 178.540865 257.457009 147.445513 257.955048 290.566506 258.453088 228.993590 258.951127 270.179487 259.449167 121.498397 259.947207 241.555288 260.445246 268.737981 260.943286 222.815705 261.441326 234.141827 261.939365 220.962340 262.437405 213.137019 262.935445 267.914263 263.433484 201.399038 263.931524 309.923878 264.429564 204.076122 264.927603 178.334936 265.425643 116.144231 265.923683 302.716346 266.421722 210.459936 266.919762 286.859776 267.417802 180.600160 267.915841 108.318910 268.413881 234.759615 268.912419 53.953526 269.409960 235.583333 269.908000 245.056090 270.406039 209.842147 270.904079 195.427083 271.402119 316.719551 271.900158 200.575321 272.398198 211.489583 272.896238 328.457532 273.394277 204.282051 273.892317 197.280449 274.390357 248.762821 274.888396 344.520032 275.386436 326.604167 275.884476 308.688301 276.382515 191.720353 276.880555 237.436699 277.378595 295.508814 277.876634 188.837340 278.374674 258.647436 278.872714 215.402244 279.370753 130.971154 279.868793 257.411859 280.366832 184.924679 280.864872 169.274038 281.362912 265.237179 281.860951 250.822115 282.358991 167.420673 282.857031 221.374199 283.355070 251.233974 283.853110 175.451923 284.351150 191.926282 284.849189 228.581731 285.347229 276.357372 285.845269 147.239583 286.343308 161.654647 286.841348 270.797276 287.339388 224.669071 287.837427 185.336538 288.335467 227.758013 288.833507 268.737981 289.331546 145.592147 289.829586 213.960737 290.327626 225.698718 290.825665 180.394231 291.323705 207.165064 291.821744 170.921474 292.319784 232.906250 292.817824 249.174679 293.315863 314.866186 293.813903 194.397436 294.311943 302.304487 294.809982 239.084135 295.308022 89.373397 295.806062 212.519231 296.304101 248.762821 296.802141 141.679487 297.300181 237.436699 297.798220 262.354167 298.296260 248.556891 298.794300 254.940705 299.292339 224.875000 299.790379 189.455128 300.288419 216.225962 300.786458 245.673878 301.284498 195.838942 301.782537 189.866987 302.280577 230.229167 302.778617 267.296474 303.276656 222.197917 303.774696 238.054487 304.272736 259.677083 304.770775 228.375801 305.268815 251.439904 305.766855 255.352564 306.264894 285.418269 306.762934 277.592949 307.260974 192.338141 307.759013 192.955929 308.257053 190.484776 308.755093 288.095353 309.253132 248.145032 309.751172 219.726763 310.249212 234.347756 310.747251 141.885417 311.245291 218.697115 311.743331 137.560897 312.241370 122.322115 312.739410 285.624199 313.237449 213.754808 313.735489 243.820513 314.233529 172.362981 314.731568 178.746795 315.229608 218.491186 315.727648 334.017628 316.225687 204.282051 316.723727 209.018429 317.221767 294.067308 317.719806 254.734776 318.217846 205.105769 318.715886 295.096955 319.213925 301.686699 319.711965 306.834936 320.210005 208.812500 320.708044 228.993590 321.206084 279.652244 321.704124 240.937500 322.202163 208.606571 322.700203 284.594551 323.198243 196.456731 323.696282 282.741186 324.194322 276.563301 324.692361 145.592147 325.190401 259.265224 325.688441 167.626603 326.186480 289.536859 326.684520 330.310897 327.182560 302.510417 327.680599 228.993590 328.178639 312.806891 328.676679 227.140224 329.174718 195.015224 329.672758 287.889423 330.170798 275.533654 330.668837 205.105769 331.166877 226.522436 331.664917 194.603365 332.162956 245.879808 332.660996 230.435096 333.159036 182.453526 333.657075 149.092949 334.155115 213.548878 334.653154 257.205929 335.151194 195.633013 335.649234 212.313301 336.147273 271.209135 336.645313 138.384615 337.143353 202.428686 337.641392 263.177885 338.139432 211.283654 338.637472 272.444712 339.135511 202.840545 339.633551 174.010417 340.131591 185.954327 340.629630 144.768429 341.127670 226.934295 341.625710 251.233974 342.123749 258.029647 342.621789 315.278045 343.119829 295.302885 343.617868 256.382212 344.115908 253.293269 344.613948 209.018429 345.111987 317.543269 345.610027 260.706731 346.108066 211.489583 346.606106 232.494391 347.104146 228.169872 347.602185 215.814103 348.100225 247.115385 348.598265 223.639423 349.096304 300.657051 349.594344 284.182692 350.091886 350.491987 350.590423 183.895032 351.088463 221.991987 351.586503 226.728365 352.084542 217.049679 352.582582 251.439904 353.080622 193.161859 353.578661 205.723558 354.076701 331.340545 354.574741 219.932692 355.072780 266.472756 355.570820 244.232372 356.068859 260.500801 356.566899 128.294071 357.064939 215.608173 357.562978 287.271635 358.061018 255.764423 358.559058 231.670673 359.057097 250.616186 359.555137 257.205929 360.053177 133.648237 360.551216 244.644231 361.049256 244.438301 361.547296 240.113782 362.045335 273.062500 362.543375 207.782853 363.041415 167.214744 363.539454 235.583333 364.037494 209.224359 364.535534 252.263622 365.033573 182.453526 365.531613 197.486378 366.029653 239.290064 366.527692 153.829327 367.025732 217.255609 367.523771 166.802885 368.021811 229.405449 368.519851 194.397436 369.017890 141.679487 369.515930 121.704327 370.013970 247.527244 370.512009 156.506410 371.010049 226.316506 371.508089 245.056090 372.006128 146.621795 372.504168 -19.151442 373.002208 159.801282 373.500247 263.589744 373.998287 218.903045 374.496327 274.298077 374.994366 222.815705 375.492406 107.701122 375.990446 156.506410 376.488485 128.294071 376.986525 227.758013 377.484565 216.431891 377.982604 268.120192 378.480644 219.108974 378.978683 331.134615 379.476723 257.411859 379.974763 161.860577 380.472802 282.123397 380.970842 195.633013 381.468882 190.484776 381.966921 216.020032 382.464961 95.345353 382.963001 174.216346 383.461040 254.322917 383.959080 217.049679 384.457120 157.330128 384.955159 235.377404 385.453199 178.129006 385.951239 166.802885 386.449278 200.987179 386.947318 130.765224 387.445358 173.804487 387.943397 188.425481 388.441437 123.557692 388.939476 202.428686 389.437516 241.761218 389.935556 190.072917 390.433595 99.669872 390.931635 254.322917 391.429675 210.871795 391.927714 138.796474 392.425754 220.962340 392.923794 232.082532 393.421833 119.645032 393.919873 124.587340 394.417913 249.998397 394.915952 208.400641 395.413992 216.225962 395.912032 220.756410 396.410071 242.379006 396.908111 210.459936 397.406151 160.625000 397.904190 171.333333 398.402230 205.311699 398.900270 195.221154 399.398309 255.558494 399.896349 96.786859 400.394388 191.102564 400.892428 229.405449 401.390468 261.942308 401.888507 194.191506 402.386547 156.300481 402.884587 222.197917 403.382626 244.850160 403.880666 252.057692 404.378706 208.400641 404.876745 188.631410 405.374785 315.483974 405.872825 233.935897 406.370864 250.204327 406.868904 138.796474 407.366944 275.945513 407.864983 214.578526 408.363023 127.676282 408.861063 158.359776 409.359102 223.433494 409.857142 218.285256 410.355181 267.708333 410.853221 120.468750 411.351261 154.241186 411.849300 245.262019 412.347340 259.677083 412.845380 216.020032 413.343419 231.670673 413.841459 262.971955 414.339499 88.343750 414.837538 147.857372 415.335578 174.422276 415.833618 206.547276 416.331657 206.547276 416.829697 347.197115 417.327737 149.504808 417.825776 194.603365 418.323816 295.302885 418.821856 240.731571 419.319895 213.342949 419.817935 167.420673 420.315975 192.338141 420.814014 140.855769 421.312054 219.314904 421.810093 198.927885 422.308133 265.854968 422.806173 201.399038 423.304212 284.388622 423.802252 279.652244 424.300292 234.553686 424.798331 190.072917 425.296371 230.846955 425.794411 205.105769 426.292450 247.733173 426.790490 274.709936 427.288530 181.423878 427.786569 98.846154 428.284609 336.076923 428.782649 192.955929 429.280688 277.592949 429.778728 260.500801 430.276768 241.349359 430.774807 293.449519 431.272847 245.262019 431.770886 312.189103 432.268926 166.185096 432.766966 232.082532 433.265005 276.975160 433.763045 223.227564 434.261085 170.509615 434.759124 227.552083 435.257164 253.705128 435.755204 250.204327 436.253243 194.397436 436.751283 195.633013 437.249323 168.038462 437.747362 225.080929 438.245402 183.483173 438.743442 168.450321 439.241481 290.772436 439.739521 245.467949 440.237561 326.604167 440.735600 222.609776 441.233640 223.227564 441.731680 217.667468 442.229719 219.932692 442.727759 245.879808 443.225798 288.713141 443.723838 163.919872 444.221878 154.447115 444.719917 200.987179 445.217957 203.046474 445.715997 180.600160 446.214036 143.326923 446.712076 177.099359 447.210116 199.339744 447.708155 249.792468 448.206195 211.077724 448.704235 205.105769 449.202274 223.639423 449.700314 181.835737 450.198354 155.476763 450.696393 247.321314 451.194433 192.132212 451.692473 217.873397 452.190512 234.759615 452.688552 232.494391 453.186592 234.759615 453.684631 222.197917 454.182671 161.654647 454.680710 212.519231 455.178750 92.874199 455.676790 225.698718 456.174829 260.500801 456.672869 164.331731 457.170909 276.151442 457.668948 214.784455 458.166988 288.507212 458.665028 276.769231 459.163067 261.942308 459.661107 98.022436 460.159147 219.520833 460.657186 316.513622 461.155226 268.737981 461.653266 183.483173 462.151305 163.508013 462.649345 272.238782 463.147385 268.943910 463.645424 240.319712 464.143464 204.899840 464.641503 277.592949 465.139543 228.375801 465.637583 239.907853 466.135622 269.355769 466.633662 281.299679 467.131702 290.566506 467.629741 206.341346 468.127781 265.031250 468.625821 188.219551 469.123860 -2.265224 469.621900 242.379006 470.119940 214.578526 470.617979 67.544872 471.116019 109.142628 471.614059 251.851763 472.112098 178.129006 472.610138 296.538462 473.108178 255.558494 473.606217 211.077724 474.104257 172.362981 474.602297 185.542468 475.100336 260.294872 475.598376 232.288462 476.096415 254.322917 476.594455 253.705128 477.092495 248.968750 477.590534 273.680288 478.088574 247.115385 478.586614 247.733173 479.084653 325.368590 479.582693 205.311699 480.080733 199.339744 480.578772 120.262821 481.076812 168.450321 481.574852 189.866987 482.072891 271.003205 482.570931 98.228365 483.068971 207.370994 483.567010 225.698718 484.065050 201.193109 484.563090 233.318109 485.061129 249.998397 485.559169 270.385417 486.057208 259.677083 486.555248 185.954327 487.053288 210.048077 487.551327 249.380609 488.049367 194.397436 488.547407 173.804487 489.045446 292.213942 489.543486 276.769231 490.041526 181.217949 490.539565 213.548878 491.037605 238.260417 491.535645 194.191506 492.033684 264.619391 492.531724 256.176282 493.029764 304.981571 493.527803 254.116987 494.025843 175.245994 494.523883 239.495994 495.021922 250.616186 495.519962 154.858974 496.018002 205.517628 496.516041 221.168269 497.014081 163.508013 497.512120 281.711538 498.010160 267.502404 498.508200 234.347756 499.006239 243.408654 499.504279 136.119391 500.002319 139.208333 500.500358 256.176282 500.998398 218.491186 501.496438 243.202724 501.994477 197.280449 502.492517 267.296474 502.990557 225.698718 503.488596 177.511218 503.986636 237.642628 504.484676 299.421474 504.982715 280.475962 505.480755 295.302885 505.978795 312.395032 506.476834 240.525641 506.974874 204.693910 507.472914 268.120192 507.970953 179.364583 508.468993 208.194712 508.967032 290.566506 509.465072 241.555288 509.963112 239.495994 510.461151 288.095353 510.959191 252.469551 511.457231 257.617788 511.955270 198.927885 512.453310 312.395032 512.951350 210.048077 513.449389 119.439103 513.947429 147.033654 514.445469 142.503205 514.943508 261.118590 515.441548 211.077724 515.939588 176.893429 516.437627 259.471154 516.935667 204.693910 517.433707 212.725160 517.931746 114.496795 518.429786 253.499199 518.927825 180.188301 519.425865 233.935897 519.923905 231.464744 520.421944 239.084135 520.919984 260.088942 521.418024 294.891026 521.916063 229.199519 522.414103 222.609776 522.912143 203.664263 523.410182 212.519231 523.908222 109.554487 524.406262 204.282051 524.904301 183.277244 525.402341 317.337340 525.900381 297.362179 526.398420 194.603365 526.896460 191.514423 527.394500 196.250801 527.892539 275.327724 528.390579 255.352564 528.888619 245.262019 529.386658 223.639423 529.884698 235.583333 530.382737 292.831731 530.880777 273.680288 531.378817 200.163462 531.876856 160.007212 532.374896 136.531250 532.872936 257.000000 533.370975 289.742788 533.869015 256.382212 534.367055 235.377404 534.865094 241.555288 535.363134 312.806891 535.861174 163.508013 536.359213 235.789263 536.857253 206.959135 537.355293 207.370994 537.853332 200.987179 538.351372 281.299679 538.849412 248.556891 539.347451 237.230769 539.845491 227.140224 540.343530 257.000000 540.841570 185.542468 541.339610 181.629808 541.837649 261.942308 542.335689 246.085737 542.833729 236.612981 543.331768 245.262019 543.829808 247.733173 544.327848 132.000801 544.825887 195.838942 545.323927 197.280449 545.821967 259.059295 546.320006 258.235577 546.818046 135.501603 547.316086 247.527244 547.814125 269.149840 548.312165 199.545673 548.810205 240.319712 549.308244 244.438301 549.806284 286.447917 550.304324 160.830929 550.802363 166.802885 551.300403 277.798878 551.798442 221.786058 552.296482 293.243590 552.794522 197.898237 553.292561 293.861378 553.790601 231.464744 554.288641 181.012019 554.786680 73.928686 555.284720 238.672276 555.782760 292.831731 556.280799 193.573718 556.778839 111.613782 557.276879 112.849359 557.774918 223.639423 558.272958 201.810897 558.770998 245.262019 559.269037 239.907853 559.767077 327.839744 560.265117 263.795673 560.763156 178.129006 561.261196 312.189103 561.759236 156.918269 562.257275 258.647436 562.755315 271.415064 563.253354 277.592949 563.751394 179.982372 564.249434 212.931090 564.747473 234.759615 565.245513 265.443109 565.743553 242.173077 566.241592 165.361378 566.739632 210.665865 567.237672 204.899840 567.735711 271.620994 568.233751 245.467949 568.731791 197.074519 569.229830 241.143429 569.727870 159.801282 570.225910 211.077724 570.723949 204.899840 571.221989 228.787660 571.720029 96.786859 572.218068 249.792468 572.716108 261.736378 573.214147 207.165064 573.712187 133.236378 574.210227 253.911058 574.708266 245.467949 575.206306 228.993590 575.704346 275.327724 576.202385 253.499199 576.700425 212.313301 577.198465 202.428686 577.696504 252.675481 578.194544 353.786859 578.692584 177.511218 579.190623 281.711538 579.688663 260.088942 580.186703 185.336538 580.684742 176.893429 581.182782 194.397436 581.680822 139.826122 582.178861 242.584936 582.676901 270.179487 583.174941 178.540865 583.672980 284.800481 584.171020 171.745192 584.669059 158.359776 585.167099 158.359776 585.665139 120.674679 586.163178 247.115385 586.661218 95.139423 587.159258 256.176282 587.657297 205.517628 588.155337 178.746795 588.653377 226.110577 589.151416 210.048077 589.649456 235.171474 590.147496 225.698718 590.645535 176.481571 591.143575 331.134615 591.641615 269.767628 592.139654 207.576923 592.637694 286.447917 593.135734 233.524038 593.633773 206.547276 594.131813 165.979167 594.629852 222.815705 595.127892 180.394231 595.625932 215.814103 596.123971 210.048077 596.622011 260.088942 597.120051 246.703526 597.618090 279.034455 598.116130 322.485577 598.614170 187.395833 599.112209 248.968750 599.610249 228.169872 600.108289 185.336538 600.606328 132.412660 601.104368 156.094551 601.602408 204.282051 602.100447 200.369391 602.598487 235.995192 603.096527 244.644231 603.594566 226.522436 604.092606 182.659455 604.590646 213.548878 605.088685 205.311699 605.586725 243.614583 606.084764 216.020032 606.582804 239.290064 607.080844 287.889423 607.578883 236.612981 608.076923 229.817308" /></g><g class="series serie-2 color-2"><path class="line reactive nofill" d="M11.923077 92.256410 L12.420957 92.256410 12.918917 92.256410 13.417037 92.256410 13.915076 92.256410 14.413036 92.256410 14.911155 92.256410 15.409115 92.256410 15.907230 92.256410 16.405170 92.256410 16.903409 92.256410 17.401249 92.256410 17.899388 92.256410 18.397328 92.256410 18.895468 92.256410 19.393507 92.256410 19.891447 92.256410 20.389587 92.256410 20.887626 92.256410 21.385666 92.256410 21.883606 92.256410 22.381745 92.256410 22.879785 92.256410 23.377825 92.256410 23.875864 92.256410 24.373804 92.256410 24.871944 92.256410 25.369983 92.256410 25.867923 92.256410 26.366062 92.256410 26.864102 92.256410 27.362042 92.256410 27.860181 92.256410 28.358221 92.256410 28.856261 92.256410 29.354201 92.256410 29.852340 92.256410 30.350380 92.256410 30.848419 92.256410 31.346359 92.256410 31.844648 92.256410 32.342688 92.256410 32.840678 92.256410 33.338618 92.256410 33.836657 92.256410 34.334846 92.256410 34.832886 92.256410 35.330926 92.256410 35.828915 92.256410 36.326955 92.256410 36.825045 92.256410 37.323084 92.256410 37.821124 92.256410 38.319164 92.256410 38.817153 92.256410 39.315243 92.256410 39.813282 92.256410 40.311322 92.256410 40.809312 92.256410 41.307501 92.256410 41.805391 92.256410 42.303481 92.256410 42.801520 92.256410 43.299560 92.256410 43.797699 92.256410 44.295590 92.256410 44.793629 92.256410 45.291669 92.256410 45.790007 92.256410 46.287898 92.256410 46.785788 92.256410 47.283877 92.256410 47.782016 92.256410 48.280056 92.256410 48.778096 92.256410 49.276135 92.256410 49.774175 92.256410 50.272115 92.256410 50.770155 92.256410 51.268194 92.256410 51.766184 92.256410 52.264274 92.256410 52.762313 92.256410 53.260502 92.256410 53.758542 92.256410 54.256582 92.256410 54.754572 92.256410 55.252661 92.256410 55.750651 92.256410 56.248691 92.256410 56.746631 92.256410 57.244670 92.256410 57.742710 92.256410 58.240750 92.256410 58.738789 92.256410 59.236978 92.256410 59.734968 92.256410 60.233008 92.256410 60.730848 92.256410 61.229386 92.256410 61.726928 92.256410 62.224967 92.256410 62.723007 92.256410 63.221046 92.256410 63.719086 92.256410 64.217126 92.256410 64.715165 92.256410 65.213205 92.256410 65.711245 92.256410 66.209284 92.256410 66.707324 92.256410 67.205364 92.256410 67.703403 92.256410 68.201443 92.256410 68.699483 92.256410 69.197522 92.256410 69.695562 92.256410 70.194100 92.256410 70.691641 92.256410 71.189681 92.256410 71.688219 92.256410 72.186258 92.256410 72.683800 92.256410 73.182338 92.256410 73.679879 92.256410 74.177919 92.256410 74.675958 92.256410 75.174496 92.256410 75.672038 92.256410 76.170575 92.256410 76.668615 92.256410 77.166157 92.256410 77.664694 92.256410 78.162734 92.256410 78.660276 92.256410 79.158315 92.256410 79.656355 92.256410 80.154893 92.256410 80.652434 92.256410 81.150474 92.256410 81.648514 92.256410 82.147051 92.256410 82.645091 92.256410 83.142633 92.256410 83.640672 92.256410 84.138712 92.256410 84.636751 92.256410 85.135289 92.256410 85.633329 92.256410 86.130870 92.256410 86.628910 92.256410 87.126950 92.256410 87.625487 92.256410 88.123527 92.256410 88.621069 92.256410 89.119606 92.256410 89.617148 92.256410 90.115188 92.256410 90.613227 92.256410 91.111765 92.256410 91.609307 92.256410 92.107346 92.256410 92.605386 92.256410 93.103426 92.256410 93.601963 92.256410 94.100003 92.256410 94.598043 92.256410 95.096082 92.256410 95.594122 92.256410 96.091663 92.256410 96.589703 92.256410 97.087743 92.256410 97.585782 92.256410 98.084320 92.256410 98.581862 92.256410 99.079901 92.256410 99.577941 92.256410 100.075981 92.256410 100.574020 92.256410 101.072060 92.256410 101.570598 92.256410 102.068139 92.256410 102.566677 92.256410 103.064219 92.256410 103.562258 92.256410 104.060796 92.256410 104.558836 92.256410 105.056377 92.256410 105.554417 92.256410 106.052955 92.256410 106.550496 92.256410 107.049034 92.256410 107.547073 92.256410 108.045113 92.256410 108.543153 92.256410 109.041192 92.256410 109.538734 92.256410 110.037272 92.256410 110.534813 92.256410 111.033351 92.256410 111.531391 92.256410 112.029430 92.256410 112.527470 92.256410 113.025510 92.256410 113.523549 92.256410 114.021589 92.256410 114.519131 92.256410 115.017170 92.256410 115.515708 92.256410 116.013748 92.256410 116.511787 92.256410 117.009827 92.256410 117.507866 92.256410 118.005906 92.256410 118.503946 92.256410 119.001985 92.256410 119.500025 92.256410 119.998065 92.256410 120.495606 92.256410 120.993646 92.256410 121.491686 92.256410 121.990223 92.256410 122.488263 92.256410 122.986303 92.256410 123.483844 92.256410 123.982382 92.256410 124.480422 92.256410 124.977963 92.256410 125.476501 92.256410 125.974541 92.256410 126.472580 92.256410 126.970620 92.256410 127.468660 92.256410 127.966699 92.256410 128.464739 92.256410 128.962778 92.256410 129.460818 92.256410 129.958858 92.256410 130.456897 92.256410 130.954439 92.256410 131.452479 92.256410 131.951016 92.256410 132.449056 92.256410 132.947096 92.256410 133.445135 92.256410 133.943175 92.256410 134.441215 92.256410 134.939254 92.256410 135.437294 92.256410 135.935334 92.256410 136.433373 92.256410 136.931413 92.256410 137.429453 92.256410 137.927492 92.256410 138.425532 92.256410 138.923572 92.256410 139.421611 92.256410 139.919651 92.256410 140.417690 92.256410 140.915730 92.256410 141.413770 92.256410 141.911809 92.256410 142.409849 92.256410 142.907889 92.256410 143.405928 92.256410 143.903968 92.256410 144.402008 92.256410 144.900047 92.256410 145.398087 92.256410 145.896127 92.256410 146.394166 92.256410 146.892206 92.256410 147.390246 92.256410 147.888285 92.256410 148.386325 92.256410 148.884365 92.256410 149.382404 92.256410 149.880444 92.256410 150.378483 92.256410 150.876523 92.256410 151.374563 92.256410 151.872602 92.256410 152.370642 92.256410 152.868682 92.256410 153.366721 92.256410 153.864761 92.256410 154.362801 92.256410 154.860840 92.256410 155.358880 92.256410 155.856920 92.256410 156.354959 92.256410 156.852999 92.256410 157.351039 92.256410 157.849078 92.256410 158.347118 92.256410 158.845158 92.256410 159.343197 92.256410 159.841237 92.256410 160.339277 92.256410 160.837316 92.256410 161.335356 92.256410 161.833395 92.256410 162.331435 92.256410 162.829475 92.256410 163.327514 92.256410 163.825554 92.256410 164.323594 92.256410 164.821633 92.256410 165.319673 92.256410 165.817713 92.256410 166.315752 92.256410 166.813792 92.256410 167.311334 92.256410 167.809871 92.256410 168.307911 92.256410 168.805951 92.256410 169.303990 92.256410 169.802030 92.256410 170.300070 92.256410 170.798109 92.256410 171.296149 92.256410 171.794188 92.256410 172.292228 92.256410 172.790268 92.256410 173.288307 92.256410 173.786347 92.256410 174.284387 92.256410 174.782426 92.256410 175.280466 92.256410 175.778506 92.256410 176.276545 92.256410 176.774585 92.256410 177.272625 92.256410 177.770664 92.256410 178.268704 92.256410 178.766744 92.256410 179.264783 92.256410 179.762823 92.256410 180.260863 92.256410 180.758902 92.256410 181.256942 92.256410 181.754982 92.256410 182.253021 92.256410 182.751061 92.256410 183.249100 92.256410 183.747140 92.256410 184.245180 92.256410 184.743219 92.256410 185.241259 92.256410 185.739299 92.256410 186.237338 92.256410 186.735378 92.256410 187.233418 92.256410 187.730959 92.256410 188.229497 92.256410 188.727537 92.256410 189.225576 92.256410 189.723616 92.256410 190.221656 92.256410 190.719695 92.256410 191.217735 92.256410 191.715775 92.256410 192.213814 92.256410 192.711854 92.256410 193.209894 92.256410 193.707933 92.256410 194.205973 92.256410 194.704012 92.256410 195.202052 92.256410 195.700092 92.256410 196.198131 92.256410 196.696171 92.256410 197.194211 92.256410 197.692250 92.256410 198.190290 92.256410 198.688330 92.256410 199.186369 92.256410 199.684409 92.256410 200.182449 92.256410 200.680488 92.256410 201.178528 92.256410 201.676568 92.256410 202.174607 92.256410 202.672647 92.256410 203.170687 92.256410 203.668726 92.256410 204.166766 92.256410 204.664805 92.256410 205.162845 92.256410 205.660885 92.256410 206.158924 92.256410 206.656964 92.256410 207.155004 92.256410 207.653043 92.256410 208.151083 92.256410 208.649123 92.256410 209.147162 92.256410 209.645202 92.256410 210.143242 92.256410 210.641281 92.256410 211.139321 92.256410 211.637361 92.256410 212.135400 92.256410 212.633440 92.256410 213.131480 92.256410 213.629519 92.256410 214.127559 92.256410 214.625599 92.256410 215.123638 92.256410 215.621678 92.256410 216.119717 92.256410 216.617757 92.256410 217.115797 92.256410 217.613836 92.256410 218.111876 92.256410 218.609916 92.256410 219.107955 92.256410 219.605995 92.256410 220.104035 92.256410 220.602074 92.256410 221.100114 92.256410 221.598154 92.256410 222.096193 92.256410 222.594233 92.256410 223.092273 92.256410 223.590312 92.256410 224.088352 92.256410 224.586392 92.256410 225.084431 92.256410 225.582471 92.256410 226.080510 92.256410 226.578550 92.256410 227.076590 92.256410 227.574629 92.256410 228.072669 92.256410 228.570709 92.256410 229.068748 92.256410 229.566788 92.256410 230.064828 92.256410 230.562867 92.256410 231.060907 92.256410 231.558947 92.256410 232.056986 92.256410 232.555026 92.256410 233.053066 92.256410 233.551105 92.256410 234.049145 92.256410 234.547185 92.256410 235.045224 92.256410 235.543264 92.256410 236.041304 92.256410 236.539343 92.256410 237.037383 92.256410 237.535422 92.256410 238.033462 92.256410 238.531502 92.256410 239.029541 92.256410 239.527581 92.256410 240.025621 92.256410 240.523660 92.256410 241.021700 92.256410 241.519740 92.256410 242.017779 92.256410 242.515819 92.256410 243.013859 92.256410 243.511898 92.256410 244.009938 92.256410 244.507978 92.256410 245.006017 92.256410 245.504057 92.256410 246.002097 92.256410 246.500136 92.256410 246.998176 92.256410 247.496216 92.256410 247.994255 92.256410 248.492295 92.256410 248.990334 92.256410 249.488374 92.256410 249.986414 92.256410 250.484453 92.256410 250.982493 92.256410 251.480533 92.256410 251.978572 92.256410 252.476612 92.256410 252.974652 92.256410 253.472691 92.256410 253.970731 92.256410 254.468771 92.256410 254.966810 92.256410 255.464850 92.256410 255.962392 92.256410 256.460929 92.256410 256.958969 92.256410 257.457009 92.256410 257.955048 92.256410 258.453088 92.256410 258.951127 92.256410 259.449167 92.256410 259.947207 92.256410 260.445246 92.256410 260.943286 92.256410 261.441326 92.256410 261.939365 92.256410 262.437405 92.256410 262.935445 92.256410 263.433484 92.256410 263.931524 92.256410 264.429564 92.256410 264.927603 92.256410 265.425643 92.256410 265.923683 92.256410 266.421722 92.256410 266.919762 92.256410 267.417802 92.256410 267.915841 92.256410 268.413881 92.256410 268.912419 92.256410 269.409960 92.256410 269.908000 92.256410 270.406039 92.256410 270.904079 92.256410 271.402119 92.256410 271.900158 92.256410 272.398198 92.256410 272.896238 92.256410 273.394277 92.256410 273.892317 92.256410 274.390357 92.256410 274.888396 92.256410 275.386436 92.256410 275.884476 92.256410 276.382515 92.256410 276.880555 92.256410 277.378595 92.256410 277.876634 92.256410 278.374674 92.256410 278.872714 92.256410 279.370753 92.256410 279.868793 92.256410 280.366832 92.256410 280.864872 92.256410 281.362912 92.256410 281.860951 92.256410 282.358991 92.256410 282.857031 92.256410 283.355070 92.256410 283.853110 92.256410 284.351150 92.256410 284.849189 92.256410 285.347229 92.256410 285.845269 92.256410 286.343308 92.256410 286.841348 92.256410 287.339388 92.256410 287.837427 92.256410 288.335467 92.256410 288.833507 92.256410 289.331546 92.256410 289.829586 92.256410 290.327626 92.256410 290.825665 92.256410 291.323705 92.256410 291.821744 92.256410 292.319784 92.256410 292.817824 92.256410 293.315863 92.256410 293.813903 92.256410 294.311943 92.256410 294.809982 92.256410 295.308022 92.256410 295.806062 92.256410 296.304101 92.256410 296.802141 92.256410 297.300181 92.256410 297.798220 92.256410 298.296260 92.256410 298.794300 92.256410 299.292339 92.256410 299.790379 92.256410 300.288419 92.256410 300.786458 92.256410 301.284498 92.256410 301.782537 92.256410 302.280577 92.256410 302.778617 92.256410 303.276656 92.256410 303.774696 92.256410 304.272736 92.256410 304.770775 92.256410 305.268815 92.256410 305.766855 92.256410 306.264894 92.256410 306.762934 92.256410 307.260974 92.256410 307.759013 92.256410 308.257053 92.256410 308.755093 92.256410 309.253132 92.256410 309.751172 92.256410 310.249212 92.256410 310.747251 92.256410 311.245291 92.256410 311.743331 92.256410 312.241370 92.256410 312.739410 92.256410 313.237449 92.256410 313.735489 92.256410 314.233529 92.256410 314.731568 92.256410 315.229608 92.256410 315.727648 92.256410 316.225687 92.256410 316.723727 92.256410 317.221767 92.256410 317.719806 92.256410 318.217846 92.256410 318.715886 92.256410 319.213925 92.256410 319.711965 92.256410 320.210005 92.256410 320.708044 92.256410 321.206084 92.256410 321.704124 92.256410 322.202163 92.256410 322.700203 92.256410 323.198243 92.256410 323.696282 92.256410 324.194322 92.256410 324.692361 92.256410 325.190401 92.256410 325.688441 92.256410 326.186480 92.256410 326.684520 92.256410 327.182560 92.256410 327.680599 92.256410 328.178639 92.256410 328.676679 92.256410 329.174718 92.256410 329.672758 92.256410 330.170798 92.256410 330.668837 92.256410 331.166877 92.256410 331.664917 92.256410 332.162956 92.256410 332.660996 92.256410 333.159036 92.256410 333.657075 92.256410 334.155115 92.256410 334.653154 92.256410 335.151194 92.256410 335.649234 92.256410 336.147273 92.256410 336.645313 92.256410 337.143353 92.256410 337.641392 92.256410 338.139432 92.256410 338.637472 92.256410 339.135511 92.256410 339.633551 92.256410 340.131591 92.256410 340.629630 92.256410 341.127670 92.256410 341.625710 92.256410 342.123749 92.256410 342.621789 92.256410 343.119829 92.256410 343.617868 92.256410 344.115908 92.256410 344.613948 92.256410 345.111987 92.256410 345.610027 92.256410 346.108066 92.256410 346.606106 92.256410 347.104146 92.256410 347.602185 92.256410 348.100225 92.256410 348.598265 92.256410 349.096304 92.256410 349.594344 92.256410 350.091886 92.256410 350.590423 92.256410 351.088463 92.256410 351.586503 92.256410 352.084542 92.256410 352.582582 92.256410 353.080622 92.256410 353.578661 92.256410 354.076701 92.256410 354.574741 92.256410 355.072780 92.256410 355.570820 92.256410 356.068859 92.256410 356.566899 92.256410 357.064939 92.256410 357.562978 92.256410 358.061018 92.256410 358.559058 92.256410 359.057097 92.256410 359.555137 92.256410 360.053177 92.256410 360.551216 92.256410 361.049256 92.256410 361.547296 92.256410 362.045335 92.256410 362.543375 92.256410 363.041415 92.256410 363.539454 92.256410 364.037494 92.256410 364.535534 92.256410 365.033573 92.256410 365.531613 92.256410 366.029653 92.256410 366.527692 92.256410 367.025732 92.256410 367.523771 92.256410 368.021811 92.256410 368.519851 92.256410 369.017890 92.256410 369.515930 92.256410 370.013970 92.256410 370.512009 92.256410 371.010049 92.256410 371.508089 92.256410 372.006128 92.256410 372.504168 92.256410 373.002208 92.256410 373.500247 92.256410 373.998287 92.256410 374.496327 92.256410 374.994366 92.256410 375.492406 92.256410 375.990446 92.256410 376.488485 92.256410 376.986525 92.256410 377.484565 92.256410 377.982604 92.256410 378.480644 92.256410 378.978683 92.256410 379.476723 92.256410 379.974763 92.256410 380.472802 92.256410 380.970842 92.256410 381.468882 92.256410 381.966921 92.256410 382.464961 92.256410 382.963001 92.256410 383.461040 92.256410 383.959080 92.256410 384.457120 92.256410 384.955159 92.256410 385.453199 92.256410 385.951239 92.256410 386.449278 92.256410 386.947318 92.256410 387.445358 92.256410 387.943397 92.256410 388.441437 92.256410 388.939476 92.256410 389.437516 92.256410 389.935556 92.256410 390.433595 92.256410 390.931635 92.256410 391.429675 92.256410 391.927714 92.256410 392.425754 92.256410 392.923794 92.256410 393.421833 92.256410 393.919873 92.256410 394.417913 92.256410 394.915952 92.256410 395.413992 92.256410 395.912032 92.256410 396.410071 92.256410 396.908111 92.256410 397.406151 92.256410 397.904190 92.256410 398.402230 92.256410 398.900270 92.256410 399.398309 92.256410 399.896349 92.256410 400.394388 92.256410 400.892428 92.256410 401.390468 92.256410 401.888507 92.256410 402.386547 92.256410 402.884587 92.256410 403.382626 92.256410 403.880666 92.256410 404.378706 92.256410 404.876745 92.256410 405.374785 92.256410 405.872825 92.256410 406.370864 92.256410 406.868904 92.256410 407.366944 92.256410 407.864983 92.256410 408.363023 92.256410 408.861063 92.256410 409.359102 92.256410 409.857142 92.256410 410.355181 92.256410 410.853221 92.256410 411.351261 92.256410 411.849300 92.256410 412.347340 92.256410 412.845380 92.256410 413.343419 92.256410 413.841459 92.256410 414.339499 92.256410 414.837538 92.256410 415.335578 92.256410 415.833618 92.256410 416.331657 92.256410 416.829697 92.256410 417.327737 92.256410 417.825776 92.256410 418.323816 92.256410 418.821856 92.256410 419.319895 92.256410 419.817935 92.256410 420.315975 92.256410 420.814014 92.256410 421.312054 92.256410 421.810093 92.256410 422.308133 92.256410 422.806173 92.256410 423.304212 92.256410 423.802252 92.256410 424.300292 92.256410 424.798331 92.256410 425.296371 92.256410 425.794411 92.256410 426.292450 92.256410 426.790490 92.256410 427.288530 92.256410 427.786569 92.256410 428.284609 92.256410 428.782649 92.256410 429.280688 92.256410 429.778728 92.256410 430.276768 92.256410 430.774807 92.256410 431.272847 92.256410 431.770886 92.256410 432.268926 92.256410 432.766966 92.256410 433.265005 92.256410 433.763045 92.256410 434.261085 92.256410 434.759124 92.256410 435.257164 92.256410 435.755204 92.256410 436.253243 92.256410 436.751283 92.256410 437.249323 92.256410 437.747362 92.256410 438.245402 92.256410 438.743442 92.256410 439.241481 92.256410 439.739521 92.256410 440.237561 92.256410 440.735600 92.256410 441.233640 92.256410 441.731680 92.256410 442.229719 92.256410 442.727759 92.256410 443.225798 92.256410 443.723838 92.256410 444.221878 92.256410 444.719917 92.256410 445.217957 92.256410 445.715997 92.256410 446.214036 92.256410 446.712076 92.256410 447.210116 92.256410 447.708155 92.256410 448.206195 92.256410 448.704235 92.256410 449.202274 92.256410 449.700314 92.256410 450.198354 92.256410 450.696393 92.256410 451.194433 92.256410 451.692473 92.256410 452.190512 92.256410 452.688552 92.256410 453.186592 92.256410 453.684631 92.256410 454.182671 92.256410 454.680710 92.256410 455.178750 92.256410 455.676790 92.256410 456.174829 92.256410 456.672869 92.256410 457.170909 92.256410 457.668948 92.256410 458.166988 92.256410 458.665028 92.256410 459.163067 92.256410 459.661107 92.256410 460.159147 92.256410 460.657186 92.256410 461.155226 92.256410 461.653266 92.256410 462.151305 92.256410 462.649345 92.256410 463.147385 92.256410 463.645424 92.256410 464.143464 92.256410 464.641503 92.256410 465.139543 92.256410 465.637583 92.256410 466.135622 92.256410 466.633662 92.256410 467.131702 92.256410 467.629741 92.256410 468.127781 92.256410 468.625821 92.256410 469.123860 92.256410 469.621900 92.256410 470.119940 92.256410 470.617979 92.256410 471.116019 92.256410 471.614059 92.256410 472.112098 92.256410 472.610138 92.256410 473.108178 92.256410 473.606217 92.256410 474.104257 92.256410 474.602297 92.256410 475.100336 92.256410 475.598376 92.256410 476.096415 92.256410 476.594455 92.256410 477.092495 92.256410 477.590534 92.256410 478.088574 92.256410 478.586614 92.256410 479.084653 92.256410 479.582693 92.256410 480.080733 92.256410 480.578772 92.256410 481.076812 92.256410 481.574852 92.256410 482.072891 92.256410 482.570931 92.256410 483.068971 92.256410 483.567010 92.256410 484.065050 92.256410 484.563090 92.256410 485.061129 92.256410 485.559169 92.256410 486.057208 92.256410 486.555248 92.256410 487.053288 92.256410 487.551327 92.256410 488.049367 92.256410 488.547407 92.256410 489.045446 92.256410 489.543486 92.256410 490.041526 92.256410 490.539565 92.256410 491.037605 92.256410 491.535645 92.256410 492.033684 92.256410 492.531724 92.256410 493.029764 92.256410 493.527803 92.256410 494.025843 92.256410 494.523883 92.256410 495.021922 92.256410 495.519962 92.256410 496.018002 92.256410 496.516041 92.256410 497.014081 92.256410 497.512120 92.256410 498.010160 92.256410 498.508200 92.256410 499.006239 92.256410 499.504279 92.256410 500.002319 92.256410 500.500358 92.256410 500.998398 92.256410 501.496438 92.256410 501.994477 92.256410 502.492517 92.256410 502.990557 92.256410 503.488596 92.256410 503.986636 92.256410 504.484676 92.256410 504.982715 92.256410 505.480755 92.256410 505.978795 92.256410 506.476834 92.256410 506.974874 92.256410 507.472914 92.256410 507.970953 92.256410 508.468993 92.256410 508.967032 92.256410 509.465072 92.256410 509.963112 92.256410 510.461151 92.256410 510.959191 92.256410 511.457231 92.256410 511.955270 92.256410 512.453310 92.256410 512.951350 92.256410 513.449389 92.256410 513.947429 92.256410 514.445469 92.256410 514.943508 92.256410 515.441548 92.256410 515.939588 92.256410 516.437627 92.256410 516.935667 92.256410 517.433707 92.256410 517.931746 92.256410 518.429786 92.256410 518.927825 92.256410 519.425865 92.256410 519.923905 92.256410 520.421944 92.256410 520.919984 92.256410 521.418024 92.256410 521.916063 92.256410 522.414103 92.256410 522.912143 92.256410 523.410182 92.256410 523.908222 92.256410 524.406262 92.256410 524.904301 92.256410 525.402341 92.256410 525.900381 92.256410 526.398420 92.256410 526.896460 92.256410 527.394500 92.256410 527.892539 92.256410 528.390579 92.256410 528.888619 92.256410 529.386658 92.256410 529.884698 92.256410 530.382737 92.256410 530.880777 92.256410 531.378817 92.256410 531.876856 92.256410 532.374896 92.256410 532.872936 92.256410 533.370975 92.256410 533.869015 92.256410 534.367055 92.256410 534.865094 92.256410 535.363134 92.256410 535.861174 92.256410 536.359213 92.256410 536.857253 92.256410 537.355293 92.256410 537.853332 92.256410 538.351372 92.256410 538.849412 92.256410 539.347451 92.256410 539.845491 92.256410 540.343530 92.256410 540.841570 92.256410 541.339610 92.256410 541.837649 92.256410 542.335689 92.256410 542.833729 92.256410 543.331768 92.256410 543.829808 92.256410 544.327848 92.256410 544.825887 92.256410 545.323927 92.256410 545.821967 92.256410 546.320006 92.256410 546.818046 92.256410 547.316086 92.256410 547.814125 92.256410 548.312165 92.256410 548.810205 92.256410 549.308244 92.256410 549.806284 92.256410 550.304324 92.256410 550.802363 92.256410 551.300403 92.256410 551.798442 92.256410 552.296482 92.256410 552.794522 92.256410 553.292561 92.256410 553.790601 92.256410 554.288641 92.256410 554.786680 92.256410 555.284720 92.256410 555.782760 92.256410 556.280799 92.256410 556.778839 92.256410 557.276879 92.256410 557.774918 92.256410 558.272958 92.256410 558.770998 92.256410 559.269037 92.256410 559.767077 92.256410 560.265117 92.256410 560.763156 92.256410 561.261196 92.256410 561.759236 92.256410 562.257275 92.256410 562.755315 92.256410 563.253354 92.256410 563.751394 92.256410 564.249434 92.256410 564.747473 92.256410 565.245513 92.256410 565.743553 92.256410 566.241592 92.256410 566.739632 92.256410 567.237672 92.256410 567.735711 92.256410 568.233751 92.256410 568.731791 92.256410 569.229830 92.256410 569.727870 92.256410 570.225910 92.256410 570.723949 92.256410 571.221989 92.256410 571.720029 92.256410 572.218068 92.256410 572.716108 92.256410 573.214147 92.256410 573.712187 92.256410 574.210227 92.256410 574.708266 92.256410 575.206306 92.256410 575.704346 92.256410 576.202385 92.256410 576.700425 92.256410 577.198465 92.256410 577.696504 92.256410 578.194544 92.256410 578.692584 92.256410 579.190623 92.256410 579.688663 92.256410 580.186703 92.256410 580.684742 92.256410 581.182782 92.256410 581.680822 92.256410 582.178861 92.256410 582.676901 92.256410 583.174941 92.256410 583.672980 92.256410 584.171020 92.256410 584.669059 92.256410 585.167099 92.256410 585.665139 92.256410 586.163178 92.256410 586.661218 92.256410 587.159258 92.256410 587.657297 92.256410 588.155337 92.256410 588.653377 92.256410 589.151416 92.256410 589.649456 92.256410 590.147496 92.256410 590.645535 92.256410 591.143575 92.256410 591.641615 92.256410 592.139654 92.256410 592.637694 92.256410 593.135734 92.256410 593.633773 92.256410 594.131813 92.256410 594.629852 92.256410 595.127892 92.256410 595.625932 92.256410 596.123971 92.256410 596.622011 92.256410 597.120051 92.256410 597.618090 92.256410 598.116130 92.256410 598.614170 92.256410 599.112209 92.256410 599.610249 92.256410 600.108289 92.256410 600.606328 92.256410 601.104368 92.256410 601.602408 92.256410 602.100447 92.256410 602.598487 92.256410 603.096527 92.256410 603.594566 92.256410 604.092606 92.256410 604.590646 92.256410 605.088685 92.256410 605.586725 92.256410 606.084764 92.256410 606.582804 92.256410 607.080844 92.256410 607.578883 92.256410 608.076923 92.256410" /></g></g><g class="titles"><text class="title" x="470.0" y="580">udp_2000kbps</text></g><g class="plot overlay" transform="translate(160, 20)"><g class="series serie-0 color-0" /><g class="series serie-1 color-1" /><g class="series serie-2 color-2" /></g><g class="plot text-overlay" transform="translate(160, 20)"><g class="series serie-0 color-0" /><g class="series serie-1 color-1" /><g class="series serie-2 color-2" /></g><g class="plot tooltip-overlay" transform="translate(160, 20)"><g class="tooltip" style="opacity: 0" transform="translate(0 0)"><rect class="tooltip-box" height="0" rx="0" ry="0" width="0" /><g class="text" /></g></g><g class="legends" transform="translate(10, 30)"><g class="legend reactive activate-serie" id="activate-serie-0"><rect class="color-0 reactive" height="12" width="12" x="0.0" y="1.0" /><text x="17.0" y="11.2">qdelay</text></g><g class="legend reactive activate-serie" id="activate-serie-1"><rect class="color-1 reactive" height="12" width="12" x="0.0" y="22.0" /><text x="17.0" y="32.2">txed(kbps)</text></g><g class="legend reactive activate-serie" id="activate-serie-2"><rect class="color-2 reactive" height="12" width="12" x="0.0" y="43.0" /><text x="17.0" y="53.2">topo(kbps)</text></g></g><g class="legends" transform="translate(790, 30)" /></g></svg>