<?xml version='1.0' encoding='utf-8'?>
<svg xmlns:xlink="http://www.w3.org/1999/xlink" class="pygal-chart" id="chart-467260be-89db-49de-9275-247660c99dab" viewBox="0 0 800 600" xmlns="http://www.w3.org/2000/svg"><!--Generated with pygal 2.4.0 (etree) ©Kozea 2012-2016 on 2019-09-27--><!--http://pygal.org--><!--http://github.com/Kozea/pygal--><defs><style type="text/css">#chart-467260be-89db-49de-9275-247660c99dab{-webkit-user-select:none;-webkit-font-smoothing:antialiased;font-family:Consolas,"Liberation Mono",Menlo,Courier,monospace}#chart-467260be-89db-49de-9275-247660c99dab .title{font-family:Consolas,"Liberation Mono",Menlo,Courier,monospace;font-size:16px}#chart-467260be-89db-49de-9275-247660c99dab .legends .legend text{font-family:Consolas,"Liberation Mono",Menlo,Courier,monospace;font-size:14px}#chart-467260be-89db-49de-9275-247660c99dab .axis text{font-family:Consolas,"Liberation Mono",Menlo,Courier,monospace;font-size:10px}#chart-467260be-89db-49de-9275-247660c99dab .axis text.major{font-family:Consolas,"Liberation Mono",Menlo,Courier,monospace;font-size:10px}#chart-467260be-89db-49de-9275-247660c99dab .text-overlay text.value{font-family:Consolas,"Liberation Mono",Menlo,Courier,monospace;font-size:16px}#chart-467260be-89db-49de-9275-247660c99dab .text-overlay text.label{font-family:Consolas,"Liberation Mono",Menlo,Courier,monospace;font-size:10px}#chart-467260be-89db-49de-9275-247660c99dab .tooltip{font-family:Consolas,"Liberation Mono",Menlo,Courier,monospace;font-size:14px}#chart-467260be-89db-49de-9275-247660c99dab text.no_data{font-family:Consolas,"Liberation Mono",Menlo,Courier,monospace;font-size:64px}
#chart-467260be-89db-49de-9275-247660c99dab{background-color:transparent}#chart-467260be-89db-49de-9275-247660c99dab path,#chart-467260be-89db-49de-9275-247660c99dab line,#chart-467260be-89db-49de-9275-247660c99dab rect,#chart-467260be-89db-49de-9275-247660c99dab circle{-webkit-transition:100ms ease-in;-moz-transition:100ms ease-in;transition:100ms ease-in}#chart-467260be-89db-49de-9275-247660c99dab .graph &gt; .background{fill:transparent}#chart-467260be-89db-49de-9275-247660c99dab .plot &gt; .background{fill:transparent}#chart-467260be-89db-49de-9275-247660c99dab .graph{fill:#000000}#chart-467260be-89db-49de-9275-247660c99dab text.no_data{fill:#000000}#chart-467260be-89db-49de-9275-247660c99dab .title{fill:#000000}#chart-467260be-89db-49de-9275-247660c99dab .legends .legend text{fill:#000000}#chart-467260be-89db-49de-9275-247660c99dab .legends .legend:hover text{fill:#000000}#chart-467260be-89db-49de-9275-247660c99dab .axis .line{stroke:#000000}#chart-467260be-89db-49de-9275-247660c99dab .axis .guide.line{stroke:#006400d}#chart-467260be-89db-49de-9275-247660c99dab .axis .major.line{stroke:#000000}#chart-467260be-89db-49de-9275-247660c99dab .axis text.major{fill:#000000}#chart-467260be-89db-49de-9275-247660c99dab .axis.y .guides:hover .guide.line,#chart-467260be-89db-49de-9275-247660c99dab .line-graph .axis.x .guides:hover .guide.line,#chart-467260be-89db-49de-9275-247660c99dab .stackedline-graph .axis.x .guides:hover .guide.line,#chart-467260be-89db-49de-9275-247660c99dab .xy-graph .axis.x .guides:hover .guide.line{stroke:#000000}#chart-467260be-89db-49de-9275-247660c99dab .axis .guides:hover text{fill:#000000}#chart-467260be-89db-49de-9275-247660c99dab .reactive{fill-opacity:.6;stroke-opacity:.8}#chart-467260be-89db-49de-9275-247660c99dab .ci{stroke:#000000}#chart-467260be-89db-49de-9275-247660c99dab .reactive.active,#chart-467260be-89db-49de-9275-247660c99dab .active .reactive{fill-opacity:.9;stroke-opacity:.9;stroke-width:4}#chart-467260be-89db-49de-9275-247660c99dab .ci .reactive.active{stroke-width:1.5}#chart-467260be-89db-49de-9275-247660c99dab .series text{fill:#000000}#chart-467260be-89db-49de-9275-247660c99dab .tooltip rect{fill:transparent;stroke:#000000;-webkit-transition:opacity 100ms ease-in;-moz-transition:opacity 100ms ease-in;transition:opacity 100ms ease-in}#chart-467260be-89db-49de-9275-247660c99dab .tooltip .label{fill:#000000}#chart-467260be-89db-49de-9275-247660c99dab .tooltip .label{fill:#000000}#chart-467260be-89db-49de-9275-247660c99dab .tooltip .legend{font-size:.8em;fill:#006400d}#chart-467260be-89db-49de-9275-247660c99dab .tooltip .x_label{font-size:.6em;fill:#000000}#chart-467260be-89db-49de-9275-247660c99dab .tooltip .xlink{font-size:.5em;text-decoration:underline}#chart-467260be-89db-49de-9275-247660c99dab .tooltip .value{font-size:1.5em}#chart-467260be-89db-49de-9275-247660c99dab .bound{font-size:.5em}#chart-467260be-89db-49de-9275-247660c99dab .max-value{font-size:.75em;fill:#006400d}#chart-467260be-89db-49de-9275-247660c99dab .map-element{fill:transparent;stroke:#006400d !important}#chart-467260be-89db-49de-9275-247660c99dab .map-element .reactive{fill-opacity:inherit;stroke-opacity:inherit}#chart-467260be-89db-49de-9275-247660c99dab .color-0,#chart-467260be-89db-49de-9275-247660c99dab .color-0 a:visited{stroke:#006400;fill:#006400}#chart-467260be-89db-49de-9275-247660c99dab .color-1,#chart-467260be-89db-49de-9275-247660c99dab .color-1 a:visited{stroke:#0022AA;fill:#0022AA}#chart-467260be-89db-49de-9275-247660c99dab .color-2,#chart-467260be-89db-49de-9275-247660c99dab .color-2 a:visited{stroke:#FF1111;fill:#FF1111}#chart-467260be-89db-49de-9275-247660c99dab .text-overlay .color-0 text{fill:black}#chart-467260be-89db-49de-9275-247660c99dab .text-overlay .color-1 text{fill:black}#chart-467260be-89db-49de-9275-247660c99dab .text-overlay .color-2 text{fill:black}
#chart-467260be-89db-49de-9275-247660c99dab text.no_data{text-anchor:middle}#chart-467260be-89db-49de-9275-247660c99dab .guide.line{fill:none}#chart-467260be-89db-49de-9275-247660c99dab .centered{text-anchor:middle}#chart-467260be-89db-49de-9275-247660c99dab .title{text-anchor:middle}#chart-467260be-89db-49de-9275-247660c99dab .legends .legend text{fill-opacity:1}#chart-467260be-89db-49de-9275-247660c99dab .axis.x text{text-anchor:middle}#chart-467260be-89db-49de-9275-247660c99dab .axis.x:not(.web) text[transform]{text-anchor:start}#chart-467260be-89db-49de-9275-247660c99dab .axis.x:not(.web) text[transform].backwards{text-anchor:end}#chart-467260be-89db-49de-9275-247660c99dab .axis.y text{text-anchor:end}#chart-467260be-89db-49de-9275-247660c99dab .axis.y text[transform].backwards{text-anchor:start}#chart-467260be-89db-49de-9275-247660c99dab .axis.y2 text{text-anchor:start}#chart-467260be-89db-49de-9275-247660c99dab .axis.y2 text[transform].backwards{text-anchor:end}#chart-467260be-89db-49de-9275-247660c99dab .axis .guide.line{stroke-dasharray:4,4}#chart-467260be-89db-49de-9275-247660c99dab .axis .major.guide.line{stroke-dasharray:6,6}#chart-467260be-89db-49de-9275-247660c99dab .horizontal .axis.y .guide.line,#chart-467260be-89db-49de-9275-247660c99dab .horizontal .axis.y2 .guide.line,#chart-467260be-89db-49de-9275-247660c99dab .vertical .axis.x .guide.line{opacity:0}#chart-467260be-89db-49de-9275-247660c99dab .horizontal .axis.always_show .guide.line,#chart-467260be-89db-49de-9275-247660c99dab .vertical .axis.always_show .guide.line{opacity:1 !important}#chart-467260be-89db-49de-9275-247660c99dab .axis.y .guides:hover .guide.line,#chart-467260be-89db-49de-9275-247660c99dab .axis.y2 .guides:hover .guide.line,#chart-467260be-89db-49de-9275-247660c99dab .axis.x .guides:hover .guide.line{opacity:1}#chart-467260be-89db-49de-9275-247660c99dab .axis .guides:hover text{opacity:1}#chart-467260be-89db-49de-9275-247660c99dab .nofill{fill:none}#chart-467260be-89db-49de-9275-247660c99dab .subtle-fill{fill-opacity:.2}#chart-467260be-89db-49de-9275-247660c99dab .dot{stroke-width:1px;fill-opacity:1}#chart-467260be-89db-49de-9275-247660c99dab .dot.active{stroke-width:5px}#chart-467260be-89db-49de-9275-247660c99dab .dot.negative{fill:transparent}#chart-467260be-89db-49de-9275-247660c99dab text,#chart-467260be-89db-49de-9275-247660c99dab tspan{stroke:none !important}#chart-467260be-89db-49de-9275-247660c99dab .series text.active{opacity:1}#chart-467260be-89db-49de-9275-247660c99dab .tooltip rect{fill-opacity:.95;stroke-width:.5}#chart-467260be-89db-49de-9275-247660c99dab .tooltip text{fill-opacity:1}#chart-467260be-89db-49de-9275-247660c99dab .showable{visibility:hidden}#chart-467260be-89db-49de-9275-247660c99dab .showable.shown{visibility:visible}#chart-467260be-89db-49de-9275-247660c99dab .gauge-background{fill:rgba(229,229,229,1);stroke:none}#chart-467260be-89db-49de-9275-247660c99dab .bg-lines{stroke:transparent;stroke-width:2px}</style><script type="text/javascript">window.pygal = window.pygal || {};window.pygal.config = window.pygal.config || {};window.pygal.config['467260be-89db-49de-9275-247660c99dab'] = {"dynamic_print_values": false, "truncate_label": null, "inner_radius": 0, "print_values": false, "xrange": null, "box_mode": "extremes", "title": null, "legend_at_bottom_columns": null, "height": 600, "legend_at_bottom": false, "show_legend": true, "show_dots": false, "explicit_size": false, "y_labels_major": null, "show_minor_x_labels": true, "width": 800, "force_uri_protocol": "https", "half_pie": false, "style": {"major_label_font_family": "Consolas, \"Liberation Mono\", Menlo, Courier, monospace", "title_font_family": "Consolas, \"Liberation Mono\", Menlo, Courier, monospace", "stroke_opacity": ".8", "legend_font_family": "Consolas, \"Liberation Mono\", Menlo, Courier, monospace", "colors": ["#006400", "#0022AA", "#FF1111", "#FFEBCD", "#DC143C", "#FFFFFF", "#6495ED", "#B0C4DE", "#D2691E", "#8B0000"], "legend_font_size": 14, "no_data_font_family": "Consolas, \"Liberation Mono\", Menlo, Courier, monospace", "major_label_font_size": 10, "value_background": "rgba(229, 229, 229, 1)", "ci_colors": [], "label_font_family": "Consolas, \"Liberation Mono\", Menlo, Courier, monospace", "label_font_size": 10, "tooltip_font_size": 14, "value_font_size": 16, "font_family": "Consolas, \"Liberation Mono\", Menlo, Courier, monospace", "opacity": ".6", "foreground": "#000000", "plot_background": "transparent", "value_label_font_size": 10, "value_label_font_family": "Consolas, \"Liberation Mono\", Menlo, Courier, monospace", "background": "transparent", "no_data_font_size": 64, "value_colors": [], "guide_stroke_dasharray": "4,4", "transition": "100ms ease-in", "foreground_subtle": "#006400d", "value_font_family": "Consolas, \"Liberation Mono\", Menlo, Courier, monospace", "tooltip_font_family": "Consolas, \"Liberation Mono\", Menlo, Courier, monospace", "title_font_size": 16, "stroke_opacity_hover": ".9", "major_guide_stroke_dasharray": "6,6", "opacity_hover": ".9", "foreground_strong": "#000000"}, "x_label_rotation": 0, "fill": false, "missing_value_fill_truncation": "x", "zero": 0, "margin_right": null, "interpolation_parameters": {}, "x_labels_major": null, "rounded_bars": null, "show_y_labels": true, "dots_size": 2.5, "show_y_guides": true, "show_minor_y_labels": true, "x_labels": null, "y_title": null, "order_min": null, "formatter": null, "disable_xml_declaration": false, "strict": false, "css": ["file://style.css", "file://graph.css"], "tooltip_fancy_mode": true, "defs": [], "show_only_major_dots": false, "y_label_rotation": 0, "show_x_labels": true, "min_scale": 4, "show_x_guides": false, "spacing": 10, "x_labels_major_count": null, "pretty_print": false, "tooltip_border_radius": 0, "interpolate": null, "js": ["//kozea.github.io/pygal.js/2.0.x/pygal-tooltips.min.js"], "y_labels": null, "stroke_style": null, "print_labels": false, "interpolation_precision": 250, "x_title": "udp_300kbps", "y_labels_major_every": null, "logarithmic": false, "legends": ["qdelay", "txed(kbps)", "topo(kbps)"], "max_scale": 16, "print_zeroes": true, "no_data_text": "No data", "truncate_legend": null, "x_labels_major_every": null, "secondary_range": null, "legend_box_size": 12, "no_prefix": false, "stroke": true, "stack_from_top": false, "include_x_axis": false, "range": [0, 600], "classes": ["pygal-chart"], "margin_top": null, "margin_left": null, "y_labels_major_count": null, "margin_bottom": null, "inverse_y_axis": false, "margin": 20, "allow_interruptions": false, "print_values_position": "center"}</script><script type="text/javascript" xlink:href="https://kozea.github.io/pygal.js/2.0.x/pygal-tooltips.min.js" /></defs><title>Pygal</title><g class="graph xy-graph vertical"><rect class="background" height="600" width="800" x="0" y="0" /><g class="plot" transform="translate(154, 20)"><rect class="background" height="514" width="626.0" x="0" y="0" /><g class="axis y always_show"><g class="guides"><path class="axis major line" d="M0.000000 504.115385 h626.000000" /><text class="major" x="-5" y="507.615384615">0</text><title>0</title></g><g class="guides"><path class="guide line" d="M0.000000 421.743590 h626.000000" /><text class="" x="-5" y="425.243589744">100</text><title>100</title></g><g class="guides"><path class="guide line" d="M0.000000 339.371795 h626.000000" /><text class="" x="-5" y="342.871794872">200</text><title>200</title></g><g class="guides"><path class="guide line" d="M0.000000 257.000000 h626.000000" /><text class="" x="-5" y="260.5">300</text><title>300</title></g><g class="guides"><path class="guide line" d="M0.000000 174.628205 h626.000000" /><text class="" x="-5" y="178.128205128">400</text><title>400</title></g><g class="guides"><path class="major guide line" d="M0.000000 92.256410 h626.000000" /><text class="major" x="-5" y="95.7564102564">500</text><title>500</title></g><g class="guides"><path class="guide line" d="M0.000000 9.884615 h626.000000" /><text class="" x="-5" y="13.3846153846">600</text><title>600</title></g></g><g class="axis x"><path class="line" d="M0.000000 0.000000 v514.000000" /><g class="guides"><path class="guide line" d="M60.519750 0.000000 v514.000000" /><text class="" x="60.5197498378" y="529.0">10</text><title>10</title></g><g class="guides"><path class="guide line" d="M110.847738 0.000000 v514.000000" /><text class="" x="110.847738109" y="529.0">20</text><title>20</title></g><g class="guides"><path class="guide line" d="M161.175726 0.000000 v514.000000" /><text class="" x="161.175726381" y="529.0">30</text><title>30</title></g><g class="guides"><path class="guide line" d="M211.503715 0.000000 v514.000000" /><text class="" x="211.503714652" y="529.0">40</text><title>40</title></g><g class="guides"><path class="guide line" d="M261.831703 0.000000 v514.000000" /><text class="" x="261.831702923" y="529.0">50</text><title>50</title></g><g class="guides"><path class="guide line" d="M312.159691 0.000000 v514.000000" /><text class="" x="312.159691195" y="529.0">60</text><title>60</title></g><g class="guides"><path class="guide line" d="M362.487679 0.000000 v514.000000" /><text class="" x="362.487679466" y="529.0">70</text><title>70</title></g><g class="guides"><path class="guide line" d="M412.815668 0.000000 v514.000000" /><text class="" x="412.815667737" y="529.0">80</text><title>80</title></g><g class="guides"><path class="guide line" d="M463.143656 0.000000 v514.000000" /><text class="" x="463.143656009" y="529.0">90</text><title>90</title></g><g class="guides"><path class="guide line" d="M513.471644 0.000000 v514.000000" /><text class="" x="513.47164428" y="529.0">100</text><title>100</title></g><g class="guides"><path class="guide line" d="M563.799633 0.000000 v514.000000" /><text class="" x="563.799632551" y="529.0">110</text><title>110</title></g></g><g class="series serie-0 color-0"><path class="line reactive nofill" d="M12.038462 504.115385 L12.541208 406.916667 13.045021 387.147436 13.547768 337.724359 14.554327 323.721154 15.057607 355.022436 15.560902 331.958333 16.064182 331.958333 16.567462 340.195513 18.078359 350.080128 19.083862 325.368590 19.587141 334.429487 20.090925 340.195513 20.593701 329.487179 21.096981 332.782051 21.600261 325.368590 22.103541 331.958333 22.606821 347.608974 23.110101 319.602564 23.613380 335.253205 24.620444 336.900641 25.123220 328.663462 26.129780 329.487179 27.136340 325.368590 27.640123 345.961538 28.646179 345.961538 29.149459 321.250000 30.156019 330.310897 33.678978 317.131410 34.182258 332.782051 34.685538 341.019231 35.188818 325.368590 35.692098 325.368590 36.195378 314.660256 36.699161 331.134615 37.201937 326.192308 38.208497 334.429487 38.711777 330.310897 39.215057 325.368590 39.718337 322.073718 40.221617 333.605769 40.725400 345.137821 41.228176 331.958333 42.234736 349.256410 42.738016 327.839744 43.241296 333.605769 44.751639 329.487179 45.254415 333.605769 46.764255 332.782051 47.268038 348.432692 47.770815 338.548077 48.777375 332.782051 49.280654 315.483974 51.293774 336.076923 51.797054 336.076923 52.300334 326.192308 53.306894 326.192308 53.810173 336.900641 54.816733 341.842949 55.320013 341.842949 55.823796 351.727564 56.326573 326.192308 56.829853 323.721154 57.333133 313.836538 58.339692 338.548077 59.346252 336.900641 59.849532 338.548077 60.352812 335.253205 60.855941 342.666667 62.365780 343.490385 62.869060 310.541667 63.372340 327.839744 63.875620 332.782051 64.882180 326.192308 65.385460 324.544872 65.888740 335.253205 66.392020 329.487179 66.895299 331.134615 67.398579 334.429487 68.908419 343.490385 69.412202 327.016026 69.914979 336.900641 70.418259 329.487179 70.921538 341.842949 71.928098 330.310897 72.431378 326.192308 72.934658 331.958333 73.941721 334.429487 74.947778 351.727564 75.451057 329.487179 76.960897 321.250000 77.967457 327.839744 78.974017 331.958333 79.477296 344.314103 79.980576 318.778846 80.483856 344.314103 80.987136 315.483974 81.490416 320.426282 81.993696 325.368590 82.496976 325.368590 83.000256 325.368590 84.006815 335.253205 85.013375 329.487179 85.516655 336.076923 86.019935 341.842949 86.523215 338.548077 87.529775 330.310897 88.033054 340.195513 89.039614 316.307692 90.549454 329.487179 91.052734 322.073718 91.556517 340.195513 92.059294 330.310897 92.562573 334.429487 93.569133 341.019231 94.072413 313.012821 94.575693 316.307692 95.078973 334.429487 96.085533 336.900641 96.588812 336.076923 97.092596 320.426282 97.595876 343.490385 98.098652 324.544872 99.105212 341.019231 100.111772 336.076923 100.615052 337.724359 101.118331 318.778846 101.621611 331.958333 102.124891 327.839744 102.628171 327.839744 103.131451 339.371795 104.641291 333.605769 105.648354 336.076923 107.157690 332.782051 107.660970 339.371795 108.165256 335.253205 109.171313 329.487179 109.674089 321.250000 110.178376 356.669872 110.680649 331.958333 111.183929 323.721154 111.687209 334.429487 112.190489 332.782051 112.693769 317.131410 113.197049 331.958333 113.700328 327.016026 114.203608 331.958333 114.706888 344.314103 115.210168 334.429487 115.713448 320.426282 116.216728 349.256410 116.720008 345.961538 117.223288 319.602564 117.726568 326.192308 118.229847 340.195513 118.733127 322.897436 119.236407 322.897436 119.739687 332.782051 120.242967 338.548077 120.746247 333.605769 121.752807 337.724359 122.256086 343.490385 123.262646 333.605769 123.765926 328.663462 124.269206 335.253205 124.772486 337.724359 125.275766 327.016026 125.779046 327.016026 126.282326 331.958333 126.785605 318.778846 127.288885 336.076923 127.792165 322.897436 128.295445 317.955128 128.798725 336.076923 129.805285 336.900641 130.308565 338.548077 131.315124 335.253205 131.818404 321.250000 132.321684 331.134615 133.328244 327.016026 133.831524 344.314103 135.341363 341.842949 135.844643 335.253205 136.347923 332.782051 136.851203 328.663462 137.354483 321.250000 137.857763 323.721154 138.361043 336.900641 138.864323 351.727564 139.367603 322.897436 139.870882 327.839744 140.374666 330.310897 140.877945 326.192308 141.381225 336.900641 142.387785 328.663462 142.890562 316.307692 143.393842 344.314103 144.400401 334.429487 144.903681 330.310897 145.406961 334.429487 145.910241 338.548077 146.413521 331.958333 146.916801 347.608974 147.420081 345.137821 147.923361 320.426282 148.427144 342.666667 148.929920 322.897436 149.433703 337.724359 149.936480 326.192308 150.439760 332.782051 150.943543 336.900641 151.949600 327.016026 152.956159 336.076923 153.459439 330.310897 153.962719 337.724359 154.969279 330.310897 155.473062 331.134615 155.975839 335.253205 156.479119 336.900641 157.485678 322.073718 157.988958 328.663462 158.995518 330.310897 160.002078 331.134615 161.008637 334.429487 162.518980 350.080128 163.021757 345.961538 163.525037 319.602564 164.028820 323.721154 164.531597 316.307692 165.538156 337.724359 166.545723 345.137821 167.551276 329.487179 168.054556 343.490385 168.557836 321.250000 169.061116 335.253205 169.564395 328.663462 170.067675 346.785256 170.571459 320.426282 171.074738 329.487179 172.584075 327.839744 173.087355 337.724359 173.590635 334.429487 174.093914 326.192308 175.100474 335.253205 175.603754 343.490385 176.610314 313.836538 177.617377 335.253205 178.120153 348.432692 179.629993 346.785256 181.139833 328.663462 181.643113 338.548077 182.146393 328.663462 182.649672 334.429487 183.153456 324.544872 183.656232 339.371795 184.159512 336.900641 184.662792 336.076923 185.166575 327.016026 185.669855 349.256410 186.675911 336.900641 187.179191 322.073718 187.682471 322.897436 188.185751 331.134615 188.689031 335.253205 190.198871 329.487179 191.205934 343.490385 193.218550 322.897436 193.721830 347.608974 194.225110 327.016026 194.728390 325.368590 195.231669 331.134615 195.734949 341.019231 196.238229 328.663462 196.741509 332.782051 197.244789 349.256410 197.748069 331.958333 198.754629 317.131410 199.257909 333.605769 199.761188 340.195513 200.264468 336.900641 200.767748 331.958333 201.271531 333.605769 201.774308 327.839744 203.284148 335.253205 203.787427 329.487179 204.290707 338.548077 204.793987 317.955128 205.297267 325.368590 205.800547 336.076923 208.317953 336.076923 208.820226 312.189103 209.323506 332.782051 210.833346 338.548077 211.336626 319.602564 212.343185 338.548077 212.846465 340.195513 213.853025 334.429487 214.356305 339.371795 214.859585 327.839744 215.362865 335.253205 215.866145 333.605769 216.369928 336.076923 218.382544 329.487179 219.389104 331.134615 219.892887 338.548077 220.395664 309.717949 220.899447 341.842949 221.402223 332.782051 222.408783 333.605769 223.416349 355.846154 223.918623 339.371795 224.422406 331.958333 225.428462 320.426282 226.435022 323.721154 226.938302 331.134615 227.442085 353.375000 227.944862 341.019231 228.448142 335.253205 228.951422 322.073718 229.454702 328.663462 229.957981 330.310897 230.461765 328.663462 230.964541 317.131410 231.971101 342.666667 232.474381 342.666667 232.977661 336.900641 233.480941 329.487179 233.984724 335.253205 234.990780 329.487179 235.494060 334.429487 235.997340 341.842949 237.003900 327.839744 237.507180 333.605769 238.010460 339.371795 239.017019 340.195513 239.520299 337.724359 240.023579 317.131410 240.526859 315.483974 241.030642 330.310897 241.533419 335.253205 242.036699 327.016026 242.539978 324.544872 243.043762 341.019231 243.546538 329.487179 244.049818 336.076923 245.056378 340.195513 245.560161 332.782051 246.062938 323.721154 246.566721 322.897436 247.069497 328.663462 247.572777 313.836538 248.076057 322.073718 249.082617 331.134615 249.585897 322.897436 250.592457 340.195513 251.095736 337.724359 251.599016 329.487179 252.102296 331.134615 252.605576 340.195513 253.109359 345.137821 254.115416 328.663462 254.618696 315.483974 255.121976 348.432692 255.625255 323.721154 256.128535 327.016026 257.135598 349.256410 257.638375 331.134615 258.141655 340.195513 258.644935 327.839744 259.148215 319.602564 259.651494 323.721154 260.658054 321.250000 261.664614 328.663462 262.167894 332.782051 263.174454 352.551282 263.678237 335.253205 264.684293 336.076923 265.187573 345.961538 265.690853 331.134615 266.697916 336.076923 268.207252 322.897436 268.710532 324.544872 270.220372 329.487179 270.723652 327.839744 271.226932 333.605769 271.730212 324.544872 272.233492 334.429487 273.240051 321.250000 273.743331 326.192308 274.246611 328.663462 274.749891 336.076923 275.253171 336.900641 275.756451 331.134615 276.259731 328.663462 276.763010 332.782051 277.770074 350.080128 278.272850 325.368590 278.776130 348.432692 279.279410 330.310897 279.782690 336.900641 280.285970 332.782051 280.789250 331.134615 281.292529 331.958333 282.802369 350.080128 283.305649 320.426282 283.808929 333.605769 284.312209 345.137821 284.815489 332.782051 285.318768 332.782051 286.325328 334.429487 286.828608 329.487179 287.331888 342.666667 287.835168 331.958333 288.338448 330.310897 288.841728 346.785256 289.345008 326.192308 289.848791 354.198718 290.351567 340.195513 290.855350 325.368590 291.358127 336.900641 291.861407 334.429487 292.364687 322.897436 292.867967 338.548077 293.874526 322.073718 294.377806 331.958333 294.881086 317.131410 295.384366 332.782051 295.887646 349.256410 296.390926 322.073718 296.894206 336.076923 297.397486 332.782051 297.901269 332.782051 298.907325 334.429487 299.411108 335.253205 300.417165 341.019231 300.920445 312.189103 302.430285 343.490385 302.933564 313.012821 303.436844 327.016026 303.940124 317.955128 304.946684 343.490385 305.450467 341.019231 305.953747 345.961538 306.456524 335.253205 307.463587 349.256410 307.966363 320.426282 308.469643 325.368590 309.476203 336.900641 309.979986 318.778846 310.482763 329.487179 310.986043 337.724359 311.489322 350.080128 311.993106 336.900641 312.496385 330.310897 312.999162 330.310897 314.005722 315.483974 314.509002 331.134615 315.012282 346.785256 315.516065 329.487179 316.018841 333.605769 316.522624 339.371795 317.025401 339.371795 318.535744 345.137821 319.038521 331.958333 319.541801 327.839744 320.045080 327.839744 320.548360 342.666667 321.554920 333.605769 322.058200 336.076923 323.064760 326.192308 324.575103 327.839744 325.077879 323.721154 325.581159 317.131410 326.587719 332.782051 327.090999 332.782051 328.098062 331.958333 328.600838 322.897436 329.104622 325.368590 329.607398 320.426282 330.110678 339.371795 331.117238 336.900641 331.620518 322.073718 332.627581 348.432692 333.130357 333.605769 333.633637 325.368590 334.136917 343.490385 334.640197 317.955128 335.143477 324.544872 335.646757 323.721154 336.653317 333.605769 337.156596 331.134615 337.659876 330.310897 338.163156 331.958333 338.666436 332.782051 339.169716 346.785256 339.672996 324.544872 340.176779 344.314103 340.679556 329.487179 341.182835 327.839744 342.189395 333.605769 342.692675 332.782051 344.202515 336.900641 344.705795 332.782051 345.209578 348.432692 345.712354 335.253205 346.216138 337.724359 346.718914 331.134615 347.725474 323.721154 348.228754 336.900641 348.732537 339.371795 349.235314 335.253205 350.241873 339.371795 350.745153 333.605769 351.752216 323.721154 352.254993 322.073718 353.262056 331.958333 353.764833 340.195513 354.268112 334.429487 354.771392 355.846154 355.275175 327.839744 355.778455 348.432692 356.281232 326.192308 356.784512 320.426282 357.791072 339.371795 358.294351 328.663462 358.797631 343.490385 359.804191 341.842949 360.307471 340.195513 361.314534 336.076923 361.817311 331.134615 362.824374 341.842949 364.333710 338.548077 364.837493 345.961538 365.340270 338.548077 365.843550 333.605769 366.346830 328.663462 367.856669 329.487179 369.366509 327.016026 370.373069 329.487179 370.876349 335.253205 371.379628 341.019231 371.882908 332.782051 372.386188 329.487179 372.889468 331.134615 373.392748 331.958333 373.896028 331.134615 374.399308 327.016026 375.405867 322.073718 375.909651 349.256410 376.916210 328.663462 377.418987 338.548077 377.922267 331.134615 378.425547 333.605769 378.928827 331.134615 379.432107 336.900641 379.935386 331.134615 380.438666 341.842949 381.445226 338.548077 381.948506 331.134615 382.451786 341.842949 382.955066 330.310897 383.458849 341.019231 383.961626 331.958333 384.968185 322.897436 385.471465 352.551282 385.974745 317.131410 386.478025 317.955128 387.484585 323.721154 387.987865 335.253205 388.491144 320.426282 388.994928 341.019231 390.000984 336.076923 390.504264 322.073718 391.007544 326.192308 392.014104 325.368590 392.517384 340.195513 393.524447 339.371795 394.027223 337.724359 395.537566 330.310897 396.040343 332.782051 397.046902 333.605769 397.550182 334.429487 398.053462 328.663462 398.556742 336.900641 399.563805 340.195513 400.066582 315.483974 400.569862 321.250000 401.576421 345.961538 402.582981 329.487179 403.086261 328.663462 403.589541 332.782051 404.092821 322.073718 405.099884 330.310897 405.602660 338.548077 406.609220 318.778846 407.112500 327.839744 407.615780 305.599359 409.125620 320.426282 409.628900 334.429487 410.132179 344.314103 410.635459 347.608974 411.642019 334.429487 412.145802 332.782051 412.648579 335.253205 413.152362 331.958333 413.655139 333.605769 414.158418 333.605769 415.164978 324.544872 416.171538 331.958333 416.674818 338.548077 417.178098 320.426282 417.681378 324.544872 418.184658 347.608974 418.687937 327.839744 419.694497 327.839744 420.197777 332.782051 420.701057 331.134615 421.204840 332.782051 421.707617 323.721154 422.714176 336.076923 423.720736 334.429487 425.733856 336.900641 426.237136 349.256410 426.740416 316.307692 427.243695 327.839744 427.746975 345.137821 428.250255 316.307692 428.753535 343.490385 429.256815 325.368590 429.760095 324.544872 430.263375 334.429487 430.766655 319.602564 431.269934 315.483974 432.780277 333.605769 433.283557 350.080128 434.290117 331.958333 435.799453 341.019231 437.309293 322.073718 437.812573 331.958333 438.819133 341.842949 439.322413 342.666667 440.328972 337.724359 440.832252 344.314103 441.335532 321.250000 442.342092 336.900641 443.348652 327.839744 443.851932 331.134615 444.355211 347.608974 444.858491 345.137821 446.368331 325.368590 446.871611 335.253205 447.374891 322.073718 447.878171 320.426282 448.381450 325.368590 448.884730 321.250000 449.388010 328.663462 449.891290 313.836538 450.395073 339.371795 451.401633 334.429487 451.904913 332.782051 452.407690 336.076923 452.910969 343.490385 453.414249 323.721154 453.917529 336.076923 454.420809 326.192308 454.924089 315.483974 455.427369 326.192308 455.930649 331.958333 456.937208 335.253205 457.440488 341.019231 457.943768 318.778846 458.447048 332.782051 458.950831 339.371795 459.956888 320.426282 460.460671 331.134615 460.963448 339.371795 461.466727 336.900641 461.970007 336.900641 462.473287 321.250000 462.976567 335.253205 463.479847 325.368590 464.486407 339.371795 464.989687 314.660256 465.492967 327.839744 465.996246 336.900641 466.499526 335.253205 467.002806 319.602564 467.506086 317.131410 468.513149 337.724359 469.015926 322.897436 469.519206 330.310897 470.022485 332.782051 470.526269 340.195513 471.532325 333.605769 474.552004 339.371795 475.055284 317.131410 476.061844 326.192308 476.565124 336.900641 477.571684 339.371795 478.075467 350.080128 478.578243 330.310897 479.081523 336.900641 479.585306 345.961538 480.088083 336.076923 480.591866 322.897436 481.094643 339.371795 481.597923 331.134615 482.101203 323.721154 482.604483 317.955128 483.611042 333.605769 484.617602 327.839744 485.120882 326.192308 486.127442 326.192308 486.631225 352.551282 487.134001 319.602564 487.637281 328.663462 488.644344 347.608974 489.650401 324.544872 490.153681 337.724359 490.657464 331.958333 491.663520 350.080128 492.166800 321.250000 492.670080 314.660256 493.173360 337.724359 494.179920 331.134615 494.683200 336.076923 496.696319 325.368590 497.199599 327.016026 497.702879 322.897436 498.206159 332.782051 498.709439 352.551282 499.212719 329.487179 499.715999 332.782051 500.219278 329.487179 500.722558 338.548077 501.729118 330.310897 502.232398 327.839744 502.735678 330.310897 503.742238 327.839744 504.245517 338.548077 504.748797 340.195513 505.252077 322.073718 505.755357 336.076923 506.761917 328.663462 507.265197 328.663462 507.768477 332.782051 508.272260 330.310897 508.775036 344.314103 509.278316 313.836538 509.781596 320.426282 510.284876 342.666667 511.291939 327.016026 511.794716 329.487179 512.801779 338.548077 513.305059 332.782051 513.808842 316.307692 514.312122 317.955128 514.815402 323.721154 515.318681 316.307692 515.821961 327.016026 516.325241 341.842949 516.828521 335.253205 517.835081 336.076923 518.338361 331.134615 518.841641 339.371795 519.848200 340.195513 520.351480 322.073718 521.358040 340.195513 521.861320 319.602564 522.364600 333.605769 522.867880 320.426282 523.371160 327.016026 524.377719 326.192308 524.880999 326.192308 525.384279 334.429487 525.887559 332.782051 526.390839 314.660256 526.894119 322.897436 527.397399 341.019231 527.900679 337.724359 528.907238 340.195513 529.410518 335.253205 530.417078 341.842949 530.920358 346.785256 531.423638 318.778846 531.926918 341.842949 532.430197 333.605769 532.933477 323.721154 533.436757 338.548077 534.443317 316.307692 534.946597 333.605769 536.959716 328.663462 537.966276 326.192308 538.469556 347.608974 538.972836 344.314103 539.979396 321.250000 540.482676 331.958333 540.985955 328.663462 541.489235 332.782051 541.992515 334.429487 542.495795 350.080128 542.999075 315.483974 543.502355 311.365385 544.005635 336.076923 544.508915 329.487179 545.012195 336.076923 545.515474 337.724359 546.018754 337.724359 546.522034 320.426282 547.025314 341.842949 547.528594 329.487179 548.031874 336.076923 548.535154 328.663462 549.541713 317.955128 550.548273 347.608974 551.051553 321.250000 551.554833 334.429487 552.561393 322.073718 553.064673 336.900641 554.071232 322.073718 555.077792 333.605769 555.581072 333.605769 556.084352 322.073718 557.090912 346.785256 557.594192 331.134615 558.097471 332.782051 559.104031 314.660256 560.110591 335.253205 560.613871 331.958333 561.620431 333.605769 562.123711 340.195513 563.130270 328.663462 563.633550 338.548077 564.136830 321.250000 564.640110 331.134615 565.143390 319.602564 566.149950 338.548077 566.653229 340.195513 567.659789 345.961538 568.666349 322.897436 569.672909 331.958333 570.176189 331.134615 570.679469 326.192308 571.686028 320.426282 572.189308 331.958333 572.692588 327.839744 573.195868 330.310897 573.699148 323.721154 574.202428 325.368590 574.705708 317.955128 575.208987 329.487179 575.712267 336.900641 576.215547 331.134615 576.718827 333.605769 577.725387 341.019231 578.228667 334.429487 578.731947 332.782051 579.235227 340.195513 579.738506 320.426282 580.745066 323.721154 581.248346 319.602564 582.254906 320.426282 582.758186 338.548077 583.261466 321.250000 583.764745 327.839744 584.268025 322.073718 584.771305 327.016026 585.274585 317.131410 585.777865 344.314103 586.281145 316.307692 588.294264 328.663462 588.797544 333.605769 589.300824 317.955128 589.804104 329.487179 590.307384 336.076923 590.810664 320.426282 592.823783 327.839744 593.327063 332.782051 593.830343 311.365385 594.836903 327.839744 595.340183 329.487179 595.843463 339.371795 596.346743 327.839744 597.353302 331.958333 597.856582 345.137821 598.359862 350.080128 599.869702 328.663462 600.372982 328.663462 600.876262 339.371795 601.379541 330.310897 601.882821 346.785256 602.386101 336.076923 602.889381 315.483974 603.392661 333.605769 603.895941 332.782051 604.902501 317.955128 605.405780 330.310897 605.909060 332.782051 606.412340 321.250000 606.915620 328.663462 607.922180 350.903846 608.425460 336.076923 608.928740 334.429487 609.935299 333.605769 610.438579 331.958333 610.941859 345.137821 611.445139 343.490385 612.451699 332.782051 612.954979 339.371795 613.961538 335.253205" /></g><g class="series serie-1 color-1"><path class="line reactive nofill" d="M12.038462 161.448718 L12.541208 136.737179 13.045021 418.448718 13.547768 457.163462 14.554327 406.916667 15.057607 329.487179 15.560902 392.913462 16.064182 401.150641 16.567462 360.788462 18.078359 267.708333 19.083862 334.429487 19.587141 364.083333 20.090925 350.080128 20.593701 363.259615 21.096981 411.858974 21.600261 364.083333 22.103541 357.493590 22.606821 401.150641 23.110101 358.317308 23.613380 428.333333 24.620444 416.801282 25.123220 356.669872 26.129780 345.961538 27.136340 367.378205 27.640123 384.676282 28.646179 392.913462 29.149459 369.849359 30.156019 355.846154 33.678978 333.605769 34.182258 350.080128 34.685538 402.798077 35.188818 406.092949 35.692098 415.153846 36.195378 395.384615 36.699161 301.480769 37.201937 405.269231 38.208497 412.682692 38.711777 401.974359 39.215057 348.432692 39.718337 371.496795 40.221617 420.919872 40.725400 318.778846 41.228176 406.092949 42.234736 374.791667 42.738016 396.208333 43.241296 369.025641 44.751639 362.435897 45.254415 363.259615 46.764255 408.564103 47.268038 326.192308 47.770815 352.551282 48.777375 406.916667 49.280654 353.375000 51.293774 422.567308 51.797054 355.022436 52.300334 345.137821 53.306894 383.852564 53.810173 361.612179 54.816733 315.483974 55.320013 401.150641 55.823796 356.669872 56.326573 356.669872 56.829853 386.323718 57.333133 397.855769 58.339692 411.035256 59.346252 418.448718 59.849532 362.435897 60.352812 408.564103 60.855941 353.375000 62.365780 415.977564 62.869060 341.842949 63.372340 303.128205 63.875620 406.916667 64.882180 350.903846 65.385460 348.432692 65.888740 391.266026 66.392020 399.503205 66.895299 355.846154 67.398579 381.381410 68.908419 366.554487 69.412202 342.666667 69.914979 429.157051 70.418259 367.378205 70.921538 362.435897 71.928098 344.314103 72.431378 401.974359 72.934658 354.198718 73.941721 355.846154 74.947778 320.426282 75.451057 402.798077 76.960897 355.022436 77.967457 354.198718 78.974017 336.076923 79.477296 392.089744 79.980576 401.150641 80.483856 369.025641 80.987136 415.977564 81.490416 364.083333 81.993696 371.496795 82.496976 361.612179 83.000256 390.442308 84.006815 350.080128 85.013375 396.208333 85.516655 370.673077 86.019935 444.807692 86.523215 410.211538 87.529775 355.846154 88.033054 375.615385 89.039614 357.493590 90.549454 386.323718 91.052734 338.548077 91.556517 347.608974 92.059294 352.551282 92.562573 403.621795 93.569133 426.685897 94.072413 394.560897 94.575693 392.913462 95.078973 378.086538 96.085533 391.266026 96.588812 348.432692 97.092596 352.551282 97.595876 350.080128 98.098652 397.855769 99.105212 360.788462 100.111772 336.900641 100.615052 432.451923 101.118331 405.269231 101.621611 406.092949 102.124891 389.618590 102.628171 410.211538 103.131451 387.971154 104.641291 349.256410 105.648354 347.608974 107.157690 410.211538 107.660970 335.253205 108.165256 252.881410 109.171313 403.621795 109.674089 392.913462 110.178376 321.250000 110.680649 329.487179 111.183929 387.147436 111.687209 364.083333 112.190489 395.384615 112.693769 404.445513 113.197049 401.974359 113.700328 359.964744 114.203608 364.907051 114.706888 394.560897 115.210168 341.019231 115.713448 336.900641 116.216728 405.269231 116.720008 454.692308 117.223288 412.682692 117.726568 345.137821 118.229847 350.080128 118.733127 359.141026 119.236407 435.746795 119.739687 354.198718 120.242967 369.025641 120.746247 406.092949 121.752807 351.727564 122.256086 389.618590 123.262646 417.625000 123.765926 372.320513 124.269206 398.679487 124.772486 358.317308 125.275766 342.666667 125.779046 436.570513 126.282326 335.253205 126.785605 350.903846 127.288885 364.083333 127.792165 356.669872 128.295445 360.788462 128.798725 419.272436 129.805285 382.205128 130.308565 357.493590 131.315124 359.141026 131.818404 348.432692 132.321684 408.564103 133.328244 401.150641 133.831524 383.028846 135.341363 331.958333 135.844643 355.846154 136.347923 430.804487 136.851203 389.618590 137.354483 389.618590 137.857763 353.375000 138.361043 349.256410 138.864323 379.733974 139.367603 359.141026 139.870882 394.560897 140.374666 345.961538 140.877945 298.185897 141.381225 291.596154 142.387785 347.608974 142.890562 397.032051 143.393842 333.605769 144.400401 414.330128 144.903681 369.849359 145.406961 401.150641 145.910241 347.608974 146.413521 374.791667 146.916801 359.141026 147.420081 415.153846 147.923361 392.089744 148.427144 316.307692 148.929920 354.198718 149.433703 329.487179 149.936480 370.673077 150.439760 415.977564 150.943543 311.365385 151.949600 341.019231 152.956159 326.192308 153.459439 363.259615 153.962719 358.317308 154.969279 374.791667 155.473062 348.432692 155.975839 343.490385 156.479119 404.445513 157.485678 432.451923 157.988958 343.490385 158.995518 362.435897 160.002078 366.554487 161.008637 418.448718 162.518980 293.243590 163.021757 345.961538 163.525037 397.855769 164.028820 363.259615 164.531597 399.503205 165.538156 415.977564 166.545723 365.730769 167.551276 402.798077 168.054556 399.503205 168.557836 323.721154 169.061116 363.259615 169.564395 416.801282 170.067675 425.038462 170.571459 341.019231 171.074738 336.076923 172.584075 345.961538 173.087355 427.509615 173.590635 331.134615 174.093914 355.846154 175.100474 396.208333 175.603754 445.631410 176.610314 369.849359 177.617377 354.198718 178.120153 369.025641 179.629993 416.801282 181.139833 350.903846 181.643113 412.682692 182.146393 318.778846 182.649672 402.798077 183.153456 370.673077 183.656232 346.785256 184.159512 355.846154 184.662792 401.150641 185.166575 342.666667 185.669855 397.032051 186.675911 403.621795 187.179191 352.551282 187.682471 410.211538 188.185751 383.028846 188.689031 336.076923 190.198871 347.608974 191.205934 376.439103 193.218550 358.317308 193.721830 375.615385 194.225110 395.384615 194.728390 345.961538 195.231669 395.384615 195.734949 385.500000 196.238229 390.442308 196.741509 400.326923 197.244789 436.570513 197.748069 415.977564 198.754629 331.958333 199.257909 358.317308 199.761188 390.442308 200.264468 352.551282 200.767748 345.961538 201.271531 348.432692 201.774308 406.916667 203.284148 381.381410 203.787427 403.621795 204.290707 382.205128 204.793987 392.089744 205.297267 378.086538 205.800547 347.608974 208.317953 360.788462 208.820226 350.903846 209.323506 317.955128 210.833346 389.618590 211.336626 376.439103 212.343185 406.092949 212.846465 355.022436 213.853025 341.019231 214.356305 389.618590 214.859585 406.092949 215.362865 363.259615 215.866145 344.314103 216.369928 354.198718 218.382544 350.903846 219.389104 414.330128 219.892887 383.028846 220.395664 315.483974 220.899447 393.737179 221.402223 373.144231 222.408783 367.378205 223.416349 264.413462 223.918623 381.381410 224.422406 375.615385 225.428462 384.676282 226.435022 373.144231 226.938302 401.150641 227.442085 303.128205 227.944862 365.730769 228.448142 364.907051 228.951422 355.022436 229.454702 434.099359 229.957981 382.205128 230.461765 357.493590 230.964541 345.137821 231.971101 392.089744 232.474381 419.272436 232.977661 363.259615 233.480941 386.323718 233.984724 364.907051 234.990780 398.679487 235.494060 397.032051 235.997340 357.493590 237.003900 402.798077 237.507180 411.035256 238.010460 350.080128 239.017019 349.256410 239.520299 347.608974 240.023579 346.785256 240.526859 387.971154 241.030642 341.842949 241.533419 383.852564 242.036699 351.727564 242.539978 401.974359 243.043762 387.971154 243.546538 353.375000 244.049818 409.387821 245.056378 377.262821 245.560161 341.019231 246.062938 410.211538 246.566721 289.948718 247.069497 350.903846 247.572777 356.669872 248.076057 374.791667 249.082617 372.320513 249.585897 360.788462 250.592457 414.330128 251.095736 350.903846 251.599016 377.262821 252.102296 362.435897 252.605576 364.907051 253.109359 389.618590 254.115416 336.076923 254.618696 351.727564 255.121976 369.849359 255.625255 313.012821 256.128535 401.974359 257.135598 381.381410 257.638375 411.035256 258.141655 427.509615 258.644935 358.317308 259.148215 387.971154 259.651494 449.750000 260.658054 384.676282 261.664614 401.974359 262.167894 352.551282 263.174454 349.256410 263.678237 365.730769 264.684293 355.022436 265.187573 363.259615 265.690853 385.500000 266.697916 398.679487 268.207252 389.618590 268.710532 354.198718 270.220372 355.022436 270.723652 415.153846 271.226932 341.019231 271.730212 382.205128 272.233492 386.323718 273.240051 393.737179 273.743331 376.439103 274.246611 342.666667 274.749891 397.855769 275.253171 429.157051 275.756451 355.846154 276.259731 395.384615 276.763010 415.977564 277.770074 337.724359 278.272850 359.964744 278.776130 437.394231 279.279410 416.801282 279.782690 421.743590 280.285970 361.612179 280.789250 383.028846 281.292529 416.801282 282.802369 345.137821 283.305649 382.205128 283.808929 364.083333 284.312209 338.548077 284.815489 355.022436 285.318768 405.269231 286.325328 345.961538 286.828608 363.259615 287.331888 362.435897 287.835168 341.019231 288.338448 370.673077 288.841728 383.028846 289.345008 394.560897 289.848791 345.961538 290.351567 337.724359 290.855350 383.028846 291.358127 350.903846 291.861407 345.961538 292.364687 401.974359 292.867967 412.682692 293.874526 361.612179 294.377806 356.669872 294.881086 350.903846 295.384366 370.673077 295.887646 353.375000 296.390926 405.269231 296.894206 377.262821 297.397486 428.333333 297.901269 350.903846 298.907325 360.788462 299.411108 345.961538 300.417165 383.852564 300.920445 341.019231 302.430285 417.625000 302.933564 369.849359 303.436844 345.137821 303.940124 377.262821 304.946684 429.980769 305.450467 332.782051 305.953747 366.554487 306.456524 405.269231 307.463587 369.849359 307.966363 398.679487 308.469643 361.612179 309.476203 355.846154 309.979986 362.435897 310.482763 397.855769 310.986043 383.852564 311.489322 327.839744 311.993106 350.080128 312.496385 355.022436 312.999162 420.919872 314.005722 339.371795 314.509002 388.794872 315.012282 400.326923 315.516065 354.198718 316.018841 328.663462 316.522624 285.006410 317.025401 386.323718 318.535744 331.958333 319.038521 345.961538 319.541801 388.794872 320.045080 411.035256 320.548360 353.375000 321.554920 427.509615 322.058200 419.272436 323.064760 425.038462 324.575103 365.730769 325.077879 392.089744 325.581159 417.625000 326.587719 355.846154 327.090999 375.615385 328.098062 406.916667 328.600838 409.387821 329.104622 322.073718 329.607398 425.862179 330.110678 346.785256 331.117238 420.096154 331.620518 456.339744 332.627581 433.275641 333.130357 401.974359 333.633637 357.493590 334.136917 426.685897 334.640197 415.977564 335.143477 334.429487 335.646757 398.679487 336.653317 401.974359 337.156596 365.730769 337.659876 392.089744 338.163156 309.717949 338.666436 400.326923 339.169716 388.794872 339.672996 400.326923 340.176779 383.852564 340.679556 392.089744 341.182835 339.371795 342.189395 387.971154 342.692675 413.506410 344.202515 336.900641 344.705795 408.564103 345.209578 355.846154 345.712354 414.330128 346.216138 421.743590 346.718914 356.669872 347.725474 419.272436 348.228754 412.682692 348.732537 400.326923 349.235314 341.019231 350.241873 363.259615 350.745153 399.503205 351.752216 390.442308 352.254993 397.032051 353.262056 380.557692 353.764833 427.509615 354.268112 410.211538 354.771392 452.221154 355.275175 345.961538 355.778455 388.794872 356.281232 328.663462 356.784512 405.269231 357.791072 346.785256 358.294351 391.266026 358.797631 415.977564 359.804191 377.262821 360.307471 416.801282 361.314534 338.548077 361.817311 347.608974 362.824374 355.022436 364.333710 345.137821 364.837493 313.836538 365.340270 355.022436 365.843550 411.858974 366.346830 402.798077 367.856669 383.852564 369.366509 380.557692 370.373069 355.846154 370.876349 410.211538 371.379628 405.269231 371.882908 351.727564 372.386188 332.782051 372.889468 410.211538 373.392748 384.676282 373.896028 331.958333 374.399308 391.266026 375.405867 357.493590 375.909651 380.557692 376.916210 308.070513 377.418987 328.663462 377.922267 422.567308 378.425547 382.205128 378.928827 361.612179 379.432107 367.378205 379.935386 357.493590 380.438666 332.782051 381.445226 404.445513 381.948506 369.025641 382.451786 375.615385 382.955066 420.919872 383.458849 416.801282 383.961626 425.862179 384.968185 332.782051 385.471465 405.269231 385.974745 393.737179 386.478025 352.551282 387.484585 340.195513 387.987865 400.326923 388.491144 405.269231 388.994928 360.788462 390.000984 363.259615 390.504264 342.666667 391.007544 347.608974 392.014104 380.557692 392.517384 364.907051 393.524447 344.314103 394.027223 343.490385 395.537566 353.375000 396.040343 357.493590 397.046902 354.198718 397.550182 399.503205 398.053462 399.503205 398.556742 294.067308 399.563805 429.980769 400.066582 366.554487 400.569862 399.503205 401.576421 406.916667 402.582981 334.429487 403.086261 391.266026 403.589541 364.907051 404.092821 393.737179 405.099884 364.083333 405.602660 400.326923 406.609220 418.448718 407.112500 353.375000 407.615780 347.608974 409.125620 397.032051 409.628900 341.019231 410.132179 420.919872 410.635459 431.628205 411.642019 413.506410 412.145802 346.785256 412.648579 403.621795 413.152362 362.435897 413.655139 349.256410 414.158418 367.378205 415.164978 413.506410 416.171538 374.791667 416.674818 378.086538 417.178098 404.445513 417.681378 410.211538 418.184658 405.269231 418.687937 374.791667 419.694497 331.958333 420.197777 349.256410 420.701057 406.916667 421.204840 357.493590 421.707617 344.314103 422.714176 402.798077 423.720736 403.621795 425.733856 338.548077 426.237136 363.259615 426.740416 395.384615 427.243695 398.679487 427.746975 413.506410 428.250255 352.551282 428.753535 439.865385 429.256815 409.387821 429.760095 418.448718 430.263375 415.153846 430.766655 379.733974 431.269934 401.150641 432.780277 404.445513 433.283557 363.259615 434.290117 368.201923 435.799453 385.500000 437.309293 418.448718 437.812573 358.317308 438.819133 422.567308 439.322413 357.493590 440.328972 401.150641 440.832252 426.685897 441.335532 406.092949 442.342092 401.150641 443.348652 420.096154 443.851932 345.137821 444.355211 355.846154 444.858491 380.557692 446.368331 421.743590 446.871611 415.153846 447.374891 401.974359 447.878171 360.788462 448.381450 380.557692 448.884730 385.500000 449.388010 342.666667 449.891290 346.785256 450.395073 361.612179 451.401633 370.673077 451.904913 345.137821 452.407690 402.798077 452.910969 415.153846 453.414249 433.275641 453.917529 418.448718 454.420809 398.679487 454.924089 365.730769 455.427369 398.679487 455.930649 342.666667 456.937208 339.371795 457.440488 384.676282 457.943768 408.564103 458.447048 375.615385 458.950831 354.198718 459.956888 396.208333 460.460671 399.503205 460.963448 288.301282 461.466727 406.092949 461.970007 371.496795 462.473287 353.375000 462.976567 406.916667 463.479847 345.137821 464.486407 431.628205 464.989687 376.439103 465.492967 307.246795 465.996246 409.387821 466.499526 404.445513 467.002806 364.083333 467.506086 402.798077 468.513149 416.801282 469.015926 382.205128 469.519206 350.080128 470.022485 403.621795 470.526269 408.564103 471.532325 371.496795 474.552004 366.554487 475.055284 302.304487 476.061844 401.974359 476.565124 305.599359 477.571684 402.798077 478.075467 378.910256 478.578243 419.272436 479.081523 349.256410 479.585306 337.724359 480.088083 392.089744 480.591866 339.371795 481.094643 371.496795 481.597923 358.317308 482.101203 417.625000 482.604483 399.503205 483.611042 415.977564 484.617602 416.801282 485.120882 424.214744 486.127442 332.782051 486.631225 340.195513 487.134001 351.727564 487.637281 387.971154 488.644344 305.599359 489.650401 397.032051 490.153681 386.323718 490.657464 364.907051 491.663520 414.330128 492.166800 359.964744 492.670080 341.019231 493.173360 403.621795 494.179920 343.490385 494.683200 349.256410 496.696319 333.605769 497.199599 412.682692 497.702879 344.314103 498.206159 361.612179 498.709439 421.743590 499.212719 415.977564 499.715999 400.326923 500.219278 308.070513 500.722558 402.798077 501.729118 344.314103 502.232398 356.669872 502.735678 365.730769 503.742238 374.791667 504.245517 415.153846 504.748797 361.612179 505.252077 338.548077 505.755357 323.721154 506.761917 365.730769 507.265197 398.679487 507.768477 351.727564 508.272260 404.445513 508.775036 406.092949 509.278316 402.798077 509.781596 336.900641 510.284876 360.788462 511.291939 390.442308 511.794716 418.448718 512.801779 409.387821 513.305059 343.490385 513.808842 365.730769 514.312122 386.323718 514.815402 350.903846 515.318681 431.628205 515.821961 395.384615 516.325241 403.621795 516.828521 390.442308 517.835081 401.974359 518.338361 360.788462 518.841641 416.801282 519.848200 341.019231 520.351480 356.669872 521.358040 416.801282 521.861320 411.858974 522.364600 384.676282 522.867880 413.506410 523.371160 364.083333 524.377719 337.724359 524.880999 405.269231 525.384279 333.605769 525.887559 410.211538 526.390839 405.269231 526.894119 347.608974 527.397399 365.730769 527.900679 392.913462 528.907238 412.682692 529.410518 337.724359 530.417078 341.019231 530.920358 394.560897 531.423638 364.083333 531.926918 402.798077 532.430197 405.269231 532.933477 366.554487 533.436757 373.967949 534.443317 410.211538 534.946597 425.862179 536.959716 402.798077 537.966276 341.019231 538.469556 331.958333 538.972836 339.371795 539.979396 406.916667 540.482676 408.564103 540.985955 350.903846 541.489235 421.743590 541.992515 419.272436 542.495795 383.852564 542.999075 363.259615 543.502355 387.147436 544.005635 365.730769 544.508915 369.849359 545.012195 428.333333 545.515474 368.201923 546.018754 412.682692 546.522034 403.621795 547.025314 409.387821 547.528594 406.916667 548.031874 361.612179 548.535154 419.272436 549.541713 369.849359 550.548273 361.612179 551.051553 316.307692 551.554833 347.608974 552.561393 395.384615 553.064673 363.259615 554.071232 411.858974 555.077792 345.961538 555.581072 404.445513 556.084352 415.977564 557.090912 350.903846 557.594192 355.022436 558.097471 367.378205 559.104031 381.381410 560.110591 416.801282 560.613871 393.737179 561.620431 367.378205 562.123711 387.147436 563.130270 388.794872 563.633550 324.544872 564.136830 317.955128 564.640110 395.384615 565.143390 356.669872 566.149950 420.096154 566.653229 427.509615 567.659789 366.554487 568.666349 336.900641 569.672909 350.080128 570.176189 388.794872 570.679469 327.016026 571.686028 362.435897 572.189308 405.269231 572.692588 410.211538 573.195868 358.317308 573.699148 401.974359 574.202428 392.913462 574.705708 365.730769 575.208987 409.387821 575.712267 409.387821 576.215547 367.378205 576.718827 357.493590 577.725387 406.916667 578.228667 402.798077 578.731947 317.955128 579.235227 407.740385 579.738506 418.448718 580.745066 359.141026 581.248346 392.913462 582.254906 358.317308 582.758186 361.612179 583.261466 404.445513 583.764745 345.961538 584.268025 355.846154 584.771305 378.086538 585.274585 444.807692 585.777865 359.141026 586.281145 412.682692 588.294264 355.022436 588.797544 364.083333 589.300824 412.682692 589.804104 416.801282 590.307384 341.019231 590.810664 434.923077 592.823783 350.903846 593.327063 400.326923 593.830343 365.730769 594.836903 387.147436 595.340183 353.375000 595.843463 369.849359 596.346743 363.259615 597.353302 372.320513 597.856582 361.612179 598.359862 429.980769 599.869702 423.391026 600.372982 367.378205 600.876262 352.551282 601.379541 339.371795 601.882821 420.096154 602.386101 357.493590 602.889381 362.435897 603.392661 366.554487 603.895941 374.791667 604.902501 368.201923 605.405780 431.628205 605.909060 341.019231 606.412340 398.679487 606.915620 406.092949 607.922180 367.378205 608.425460 325.368590 608.928740 346.785256 609.935299 355.846154 610.438579 420.096154 610.941859 406.092949 611.445139 353.375000 612.451699 350.903846 612.954979 404.445513 613.961538 387.971154" /></g><g class="series serie-2 color-2"><path class="line reactive nofill" d="M12.038462 257.000000 L12.541208 257.000000 13.045021 257.000000 13.547768 257.000000 14.554327 257.000000 15.057607 257.000000 15.560902 257.000000 16.064182 257.000000 16.567462 257.000000 18.078359 257.000000 19.083862 257.000000 19.587141 257.000000 20.090925 257.000000 20.593701 257.000000 21.096981 257.000000 21.600261 257.000000 22.103541 257.000000 22.606821 257.000000 23.110101 257.000000 23.613380 257.000000 24.620444 257.000000 25.123220 257.000000 26.129780 257.000000 27.136340 257.000000 27.640123 257.000000 28.646179 257.000000 29.149459 257.000000 30.156019 257.000000 33.678978 257.000000 34.182258 257.000000 34.685538 257.000000 35.188818 257.000000 35.692098 257.000000 36.195378 257.000000 36.699161 257.000000 37.201937 257.000000 38.208497 257.000000 38.711777 257.000000 39.215057 257.000000 39.718337 257.000000 40.221617 257.000000 40.725400 257.000000 41.228176 257.000000 42.234736 257.000000 42.738016 257.000000 43.241296 257.000000 44.751639 257.000000 45.254415 257.000000 46.764255 257.000000 47.268038 257.000000 47.770815 257.000000 48.777375 257.000000 49.280654 257.000000 51.293774 257.000000 51.797054 257.000000 52.300334 257.000000 53.306894 257.000000 53.810173 257.000000 54.816733 257.000000 55.320013 257.000000 55.823796 257.000000 56.326573 257.000000 56.829853 257.000000 57.333133 257.000000 58.339692 257.000000 59.346252 257.000000 59.849532 257.000000 60.352812 257.000000 60.855941 257.000000 62.365780 257.000000 62.869060 257.000000 63.372340 257.000000 63.875620 257.000000 64.882180 257.000000 65.385460 257.000000 65.888740 257.000000 66.392020 257.000000 66.895299 257.000000 67.398579 257.000000 68.908419 257.000000 69.412202 257.000000 69.914979 257.000000 70.418259 257.000000 70.921538 257.000000 71.928098 257.000000 72.431378 257.000000 72.934658 257.000000 73.941721 257.000000 74.947778 257.000000 75.451057 257.000000 76.960897 257.000000 77.967457 257.000000 78.974017 257.000000 79.477296 257.000000 79.980576 257.000000 80.483856 257.000000 80.987136 257.000000 81.490416 257.000000 81.993696 257.000000 82.496976 257.000000 83.000256 257.000000 84.006815 257.000000 85.013375 257.000000 85.516655 257.000000 86.019935 257.000000 86.523215 257.000000 87.529775 257.000000 88.033054 257.000000 89.039614 257.000000 90.549454 257.000000 91.052734 257.000000 91.556517 257.000000 92.059294 257.000000 92.562573 257.000000 93.569133 257.000000 94.072413 257.000000 94.575693 257.000000 95.078973 257.000000 96.085533 257.000000 96.588812 257.000000 97.092596 257.000000 97.595876 257.000000 98.098652 257.000000 99.105212 257.000000 100.111772 257.000000 100.615052 257.000000 101.118331 257.000000 101.621611 257.000000 102.124891 257.000000 102.628171 257.000000 103.131451 257.000000 104.641291 257.000000 105.648354 257.000000 107.157690 257.000000 107.660970 257.000000 108.165256 257.000000 109.171313 257.000000 109.674089 257.000000 110.178376 257.000000 110.680649 257.000000 111.183929 257.000000 111.687209 257.000000 112.190489 257.000000 112.693769 257.000000 113.197049 257.000000 113.700328 257.000000 114.203608 257.000000 114.706888 257.000000 115.210168 257.000000 115.713448 257.000000 116.216728 257.000000 116.720008 257.000000 117.223288 257.000000 117.726568 257.000000 118.229847 257.000000 118.733127 257.000000 119.236407 257.000000 119.739687 257.000000 120.242967 257.000000 120.746247 257.000000 121.752807 257.000000 122.256086 257.000000 123.262646 257.000000 123.765926 257.000000 124.269206 257.000000 124.772486 257.000000 125.275766 257.000000 125.779046 257.000000 126.282326 257.000000 126.785605 257.000000 127.288885 257.000000 127.792165 257.000000 128.295445 257.000000 128.798725 257.000000 129.805285 257.000000 130.308565 257.000000 131.315124 257.000000 131.818404 257.000000 132.321684 257.000000 133.328244 257.000000 133.831524 257.000000 135.341363 257.000000 135.844643 257.000000 136.347923 257.000000 136.851203 257.000000 137.354483 257.000000 137.857763 257.000000 138.361043 257.000000 138.864323 257.000000 139.367603 257.000000 139.870882 257.000000 140.374666 257.000000 140.877945 257.000000 141.381225 257.000000 142.387785 257.000000 142.890562 257.000000 143.393842 257.000000 144.400401 257.000000 144.903681 257.000000 145.406961 257.000000 145.910241 257.000000 146.413521 257.000000 146.916801 257.000000 147.420081 257.000000 147.923361 257.000000 148.427144 257.000000 148.929920 257.000000 149.433703 257.000000 149.936480 257.000000 150.439760 257.000000 150.943543 257.000000 151.949600 257.000000 152.956159 257.000000 153.459439 257.000000 153.962719 257.000000 154.969279 257.000000 155.473062 257.000000 155.975839 257.000000 156.479119 257.000000 157.485678 257.000000 157.988958 257.000000 158.995518 257.000000 160.002078 257.000000 161.008637 257.000000 162.518980 257.000000 163.021757 257.000000 163.525037 257.000000 164.028820 257.000000 164.531597 257.000000 165.538156 257.000000 166.545723 257.000000 167.551276 257.000000 168.054556 257.000000 168.557836 257.000000 169.061116 257.000000 169.564395 257.000000 170.067675 257.000000 170.571459 257.000000 171.074738 257.000000 172.584075 257.000000 173.087355 257.000000 173.590635 257.000000 174.093914 257.000000 175.100474 257.000000 175.603754 257.000000 176.610314 257.000000 177.617377 257.000000 178.120153 257.000000 179.629993 257.000000 181.139833 257.000000 181.643113 257.000000 182.146393 257.000000 182.649672 257.000000 183.153456 257.000000 183.656232 257.000000 184.159512 257.000000 184.662792 257.000000 185.166575 257.000000 185.669855 257.000000 186.675911 257.000000 187.179191 257.000000 187.682471 257.000000 188.185751 257.000000 188.689031 257.000000 190.198871 257.000000 191.205934 257.000000 193.218550 257.000000 193.721830 257.000000 194.225110 257.000000 194.728390 257.000000 195.231669 257.000000 195.734949 257.000000 196.238229 257.000000 196.741509 257.000000 197.244789 257.000000 197.748069 257.000000 198.754629 257.000000 199.257909 257.000000 199.761188 257.000000 200.264468 257.000000 200.767748 257.000000 201.271531 257.000000 201.774308 257.000000 203.284148 257.000000 203.787427 257.000000 204.290707 257.000000 204.793987 257.000000 205.297267 257.000000 205.800547 257.000000 208.317953 257.000000 208.820226 257.000000 209.323506 257.000000 210.833346 257.000000 211.336626 257.000000 212.343185 257.000000 212.846465 257.000000 213.853025 257.000000 214.356305 257.000000 214.859585 257.000000 215.362865 257.000000 215.866145 257.000000 216.369928 257.000000 218.382544 257.000000 219.389104 257.000000 219.892887 257.000000 220.395664 257.000000 220.899447 257.000000 221.402223 257.000000 222.408783 257.000000 223.416349 257.000000 223.918623 257.000000 224.422406 257.000000 225.428462 257.000000 226.435022 257.000000 226.938302 257.000000 227.442085 257.000000 227.944862 257.000000 228.448142 257.000000 228.951422 257.000000 229.454702 257.000000 229.957981 257.000000 230.461765 257.000000 230.964541 257.000000 231.971101 257.000000 232.474381 257.000000 232.977661 257.000000 233.480941 257.000000 233.984724 257.000000 234.990780 257.000000 235.494060 257.000000 235.997340 257.000000 237.003900 257.000000 237.507180 257.000000 238.010460 257.000000 239.017019 257.000000 239.520299 257.000000 240.023579 257.000000 240.526859 257.000000 241.030642 257.000000 241.533419 257.000000 242.036699 257.000000 242.539978 257.000000 243.043762 257.000000 243.546538 257.000000 244.049818 257.000000 245.056378 257.000000 245.560161 257.000000 246.062938 257.000000 246.566721 257.000000 247.069497 257.000000 247.572777 257.000000 248.076057 257.000000 249.082617 257.000000 249.585897 257.000000 250.592457 257.000000 251.095736 257.000000 251.599016 257.000000 252.102296 257.000000 252.605576 257.000000 253.109359 257.000000 254.115416 257.000000 254.618696 257.000000 255.121976 257.000000 255.625255 257.000000 256.128535 257.000000 257.135598 257.000000 257.638375 257.000000 258.141655 257.000000 258.644935 257.000000 259.148215 257.000000 259.651494 257.000000 260.658054 257.000000 261.664614 257.000000 262.167894 257.000000 263.174454 257.000000 263.678237 257.000000 264.684293 257.000000 265.187573 257.000000 265.690853 257.000000 266.697916 257.000000 268.207252 257.000000 268.710532 257.000000 270.220372 257.000000 270.723652 257.000000 271.226932 257.000000 271.730212 257.000000 272.233492 257.000000 273.240051 257.000000 273.743331 257.000000 274.246611 257.000000 274.749891 257.000000 275.253171 257.000000 275.756451 257.000000 276.259731 257.000000 276.763010 257.000000 277.770074 257.000000 278.272850 257.000000 278.776130 257.000000 279.279410 257.000000 279.782690 257.000000 280.285970 257.000000 280.789250 257.000000 281.292529 257.000000 282.802369 257.000000 283.305649 257.000000 283.808929 257.000000 284.312209 257.000000 284.815489 257.000000 285.318768 257.000000 286.325328 257.000000 286.828608 257.000000 287.331888 257.000000 287.835168 257.000000 288.338448 257.000000 288.841728 257.000000 289.345008 257.000000 289.848791 257.000000 290.351567 257.000000 290.855350 257.000000 291.358127 257.000000 291.861407 257.000000 292.364687 257.000000 292.867967 257.000000 293.874526 257.000000 294.377806 257.000000 294.881086 257.000000 295.384366 257.000000 295.887646 257.000000 296.390926 257.000000 296.894206 257.000000 297.397486 257.000000 297.901269 257.000000 298.907325 257.000000 299.411108 257.000000 300.417165 257.000000 300.920445 257.000000 302.430285 257.000000 302.933564 257.000000 303.436844 257.000000 303.940124 257.000000 304.946684 257.000000 305.450467 257.000000 305.953747 257.000000 306.456524 257.000000 307.463587 257.000000 307.966363 257.000000 308.469643 257.000000 309.476203 257.000000 309.979986 257.000000 310.482763 257.000000 310.986043 257.000000 311.489322 257.000000 311.993106 257.000000 312.496385 257.000000 312.999162 257.000000 314.005722 257.000000 314.509002 257.000000 315.012282 257.000000 315.516065 257.000000 316.018841 257.000000 316.522624 257.000000 317.025401 257.000000 318.535744 257.000000 319.038521 257.000000 319.541801 257.000000 320.045080 257.000000 320.548360 257.000000 321.554920 257.000000 322.058200 257.000000 323.064760 257.000000 324.575103 257.000000 325.077879 257.000000 325.581159 257.000000 326.587719 257.000000 327.090999 257.000000 328.098062 257.000000 328.600838 257.000000 329.104622 257.000000 329.607398 257.000000 330.110678 257.000000 331.117238 257.000000 331.620518 257.000000 332.627581 257.000000 333.130357 257.000000 333.633637 257.000000 334.136917 257.000000 334.640197 257.000000 335.143477 257.000000 335.646757 257.000000 336.653317 257.000000 337.156596 257.000000 337.659876 257.000000 338.163156 257.000000 338.666436 257.000000 339.169716 257.000000 339.672996 257.000000 340.176779 257.000000 340.679556 257.000000 341.182835 257.000000 342.189395 257.000000 342.692675 257.000000 344.202515 257.000000 344.705795 257.000000 345.209578 257.000000 345.712354 257.000000 346.216138 257.000000 346.718914 257.000000 347.725474 257.000000 348.228754 257.000000 348.732537 257.000000 349.235314 257.000000 350.241873 257.000000 350.745153 257.000000 351.752216 257.000000 352.254993 257.000000 353.262056 257.000000 353.764833 257.000000 354.268112 257.000000 354.771392 257.000000 355.275175 257.000000 355.778455 257.000000 356.281232 257.000000 356.784512 257.000000 357.791072 257.000000 358.294351 257.000000 358.797631 257.000000 359.804191 257.000000 360.307471 257.000000 361.314534 257.000000 361.817311 257.000000 362.824374 257.000000 364.333710 257.000000 364.837493 257.000000 365.340270 257.000000 365.843550 257.000000 366.346830 257.000000 367.856669 257.000000 369.366509 257.000000 370.373069 257.000000 370.876349 257.000000 371.379628 257.000000 371.882908 257.000000 372.386188 257.000000 372.889468 257.000000 373.392748 257.000000 373.896028 257.000000 374.399308 257.000000 375.405867 257.000000 375.909651 257.000000 376.916210 257.000000 377.418987 257.000000 377.922267 257.000000 378.425547 257.000000 378.928827 257.000000 379.432107 257.000000 379.935386 257.000000 380.438666 257.000000 381.445226 257.000000 381.948506 257.000000 382.451786 257.000000 382.955066 257.000000 383.458849 257.000000 383.961626 257.000000 384.968185 257.000000 385.471465 257.000000 385.974745 257.000000 386.478025 257.000000 387.484585 257.000000 387.987865 257.000000 388.491144 257.000000 388.994928 257.000000 390.000984 257.000000 390.504264 257.000000 391.007544 257.000000 392.014104 257.000000 392.517384 257.000000 393.524447 257.000000 394.027223 257.000000 395.537566 257.000000 396.040343 257.000000 397.046902 257.000000 397.550182 257.000000 398.053462 257.000000 398.556742 257.000000 399.563805 257.000000 400.066582 257.000000 400.569862 257.000000 401.576421 257.000000 402.582981 257.000000 403.086261 257.000000 403.589541 257.000000 404.092821 257.000000 405.099884 257.000000 405.602660 257.000000 406.609220 257.000000 407.112500 257.000000 407.615780 257.000000 409.125620 257.000000 409.628900 257.000000 410.132179 257.000000 410.635459 257.000000 411.642019 257.000000 412.145802 257.000000 412.648579 257.000000 413.152362 257.000000 413.655139 257.000000 414.158418 257.000000 415.164978 257.000000 416.171538 257.000000 416.674818 257.000000 417.178098 257.000000 417.681378 257.000000 418.184658 257.000000 418.687937 257.000000 419.694497 257.000000 420.197777 257.000000 420.701057 257.000000 421.204840 257.000000 421.707617 257.000000 422.714176 257.000000 423.720736 257.000000 425.733856 257.000000 426.237136 257.000000 426.740416 257.000000 427.243695 257.000000 427.746975 257.000000 428.250255 257.000000 428.753535 257.000000 429.256815 257.000000 429.760095 257.000000 430.263375 257.000000 430.766655 257.000000 431.269934 257.000000 432.780277 257.000000 433.283557 257.000000 434.290117 257.000000 435.799453 257.000000 437.309293 257.000000 437.812573 257.000000 438.819133 257.000000 439.322413 257.000000 440.328972 257.000000 440.832252 257.000000 441.335532 257.000000 442.342092 257.000000 443.348652 257.000000 443.851932 257.000000 444.355211 257.000000 444.858491 257.000000 446.368331 257.000000 446.871611 257.000000 447.374891 257.000000 447.878171 257.000000 448.381450 257.000000 448.884730 257.000000 449.388010 257.000000 449.891290 257.000000 450.395073 257.000000 451.401633 257.000000 451.904913 257.000000 452.407690 257.000000 452.910969 257.000000 453.414249 257.000000 453.917529 257.000000 454.420809 257.000000 454.924089 257.000000 455.427369 257.000000 455.930649 257.000000 456.937208 257.000000 457.440488 257.000000 457.943768 257.000000 458.447048 257.000000 458.950831 257.000000 459.956888 257.000000 460.460671 257.000000 460.963448 257.000000 461.466727 257.000000 461.970007 257.000000 462.473287 257.000000 462.976567 257.000000 463.479847 257.000000 464.486407 257.000000 464.989687 257.000000 465.492967 257.000000 465.996246 257.000000 466.499526 257.000000 467.002806 257.000000 467.506086 257.000000 468.513149 257.000000 469.015926 257.000000 469.519206 257.000000 470.022485 257.000000 470.526269 257.000000 471.532325 257.000000 474.552004 257.000000 475.055284 257.000000 476.061844 257.000000 476.565124 257.000000 477.571684 257.000000 478.075467 257.000000 478.578243 257.000000 479.081523 257.000000 479.585306 257.000000 480.088083 257.000000 480.591866 257.000000 481.094643 257.000000 481.597923 257.000000 482.101203 257.000000 482.604483 257.000000 483.611042 257.000000 484.617602 257.000000 485.120882 257.000000 486.127442 257.000000 486.631225 257.000000 487.134001 257.000000 487.637281 257.000000 488.644344 257.000000 489.650401 257.000000 490.153681 257.000000 490.657464 257.000000 491.663520 257.000000 492.166800 257.000000 492.670080 257.000000 493.173360 257.000000 494.179920 257.000000 494.683200 257.000000 496.696319 257.000000 497.199599 257.000000 497.702879 257.000000 498.206159 257.000000 498.709439 257.000000 499.212719 257.000000 499.715999 257.000000 500.219278 257.000000 500.722558 257.000000 501.729118 257.000000 502.232398 257.000000 502.735678 257.000000 503.742238 257.000000 504.245517 257.000000 504.748797 257.000000 505.252077 257.000000 505.755357 257.000000 506.761917 257.000000 507.265197 257.000000 507.768477 257.000000 508.272260 257.000000 508.775036 257.000000 509.278316 257.000000 509.781596 257.000000 510.284876 257.000000 511.291939 257.000000 511.794716 257.000000 512.801779 257.000000 513.305059 257.000000 513.808842 257.000000 514.312122 257.000000 514.815402 257.000000 515.318681 257.000000 515.821961 257.000000 516.325241 257.000000 516.828521 257.000000 517.835081 257.000000 518.338361 257.000000 518.841641 257.000000 519.848200 257.000000 520.351480 257.000000 521.358040 257.000000 521.861320 257.000000 522.364600 257.000000 522.867880 257.000000 523.371160 257.000000 524.377719 257.000000 524.880999 257.000000 525.384279 257.000000 525.887559 257.000000 526.390839 257.000000 526.894119 257.000000 527.397399 257.000000 527.900679 257.000000 528.907238 257.000000 529.410518 257.000000 530.417078 257.000000 530.920358 257.000000 531.423638 257.000000 531.926918 257.000000 532.430197 257.000000 532.933477 257.000000 533.436757 257.000000 534.443317 257.000000 534.946597 257.000000 536.959716 257.000000 537.966276 257.000000 538.469556 257.000000 538.972836 257.000000 539.979396 257.000000 540.482676 257.000000 540.985955 257.000000 541.489235 257.000000 541.992515 257.000000 542.495795 257.000000 542.999075 257.000000 543.502355 257.000000 544.005635 257.000000 544.508915 257.000000 545.012195 257.000000 545.515474 257.000000 546.018754 257.000000 546.522034 257.000000 547.025314 257.000000 547.528594 257.000000 548.031874 257.000000 548.535154 257.000000 549.541713 257.000000 550.548273 257.000000 551.051553 257.000000 551.554833 257.000000 552.561393 257.000000 553.064673 257.000000 554.071232 257.000000 555.077792 257.000000 555.581072 257.000000 556.084352 257.000000 557.090912 257.000000 557.594192 257.000000 558.097471 257.000000 559.104031 257.000000 560.110591 257.000000 560.613871 257.000000 561.620431 257.000000 562.123711 257.000000 563.130270 257.000000 563.633550 257.000000 564.136830 257.000000 564.640110 257.000000 565.143390 257.000000 566.149950 257.000000 566.653229 257.000000 567.659789 257.000000 568.666349 257.000000 569.672909 257.000000 570.176189 257.000000 570.679469 257.000000 571.686028 257.000000 572.189308 257.000000 572.692588 257.000000 573.195868 257.000000 573.699148 257.000000 574.202428 257.000000 574.705708 257.000000 575.208987 257.000000 575.712267 257.000000 576.215547 257.000000 576.718827 257.000000 577.725387 257.000000 578.228667 257.000000 578.731947 257.000000 579.235227 257.000000 579.738506 257.000000 580.745066 257.000000 581.248346 257.000000 582.254906 257.000000 582.758186 257.000000 583.261466 257.000000 583.764745 257.000000 584.268025 257.000000 584.771305 257.000000 585.274585 257.000000 585.777865 257.000000 586.281145 257.000000 588.294264 257.000000 588.797544 257.000000 589.300824 257.000000 589.804104 257.000000 590.307384 257.000000 590.810664 257.000000 592.823783 257.000000 593.327063 257.000000 593.830343 257.000000 594.836903 257.000000 595.340183 257.000000 595.843463 257.000000 596.346743 257.000000 597.353302 257.000000 597.856582 257.000000 598.359862 257.000000 599.869702 257.000000 600.372982 257.000000 600.876262 257.000000 601.379541 257.000000 601.882821 257.000000 602.386101 257.000000 602.889381 257.000000 603.392661 257.000000 603.895941 257.000000 604.902501 257.000000 605.405780 257.000000 605.909060 257.000000 606.412340 257.000000 606.915620 257.000000 607.922180 257.000000 608.425460 257.000000 608.928740 257.000000 609.935299 257.000000 610.438579 257.000000 610.941859 257.000000 611.445139 257.000000 612.451699 257.000000 612.954979 257.000000 613.961538 257.000000" /></g></g><g class="titles"><text class="title" x="467.0" y="580">udp_300kbps</text></g><g class="plot overlay" transform="translate(154, 20)"><g class="series serie-0 color-0" /><g class="series serie-1 color-1" /><g class="series serie-2 color-2" /></g><g class="plot text-overlay" transform="translate(154, 20)"><g class="series serie-0 color-0" /><g class="series serie-1 color-1" /><g class="series serie-2 color-2" /></g><g class="plot tooltip-overlay" transform="translate(154, 20)"><g class="tooltip" style="opacity: 0" transform="translate(0 0)"><rect class="tooltip-box" height="0" rx="0" ry="0" width="0" /><g class="text" /></g></g><g class="legends" transform="translate(10, 30)"><g class="legend reactive activate-serie" id="activate-serie-0"><rect class="color-0 reactive" height="12" width="12" x="0.0" y="1.0" /><text x="17.0" y="11.2">qdelay</text></g><g class="legend reactive activate-serie" id="activate-serie-1"><rect class="color-1 reactive" height="12" width="12" x="0.0" y="22.0" /><text x="17.0" y="32.2">txed(kbps)</text></g><g class="legend reactive activate-serie" id="activate-serie-2"><rect class="color-2 reactive" height="12" width="12" x="0.0" y="43.0" /><text x="17.0" y="53.2">topo(kbps)</text></g></g><g class="legends" transform="translate(790, 30)" /></g></svg>