<?xml version='1.0' encoding='utf-8'?>
<svg xmlns:xlink="http://www.w3.org/1999/xlink" class="pygal-chart" id="chart-1d85a363-be10-4ced-8fd8-93930ab33154" viewBox="0 0 800 600" xmlns="http://www.w3.org/2000/svg"><!--Generated with pygal 2.4.0 (etree) ©Kozea 2012-2016 on 2019-09-27--><!--http://pygal.org--><!--http://github.com/Kozea/pygal--><defs><style type="text/css">#chart-1d85a363-be10-4ced-8fd8-93930ab33154{-webkit-user-select:none;-webkit-font-smoothing:antialiased;font-family:Consolas,"Liberation Mono",Menlo,Courier,monospace}#chart-1d85a363-be10-4ced-8fd8-93930ab33154 .title{font-family:Consolas,"Liberation Mono",Menlo,Courier,monospace;font-size:16px}#chart-1d85a363-be10-4ced-8fd8-93930ab33154 .legends .legend text{font-family:Consolas,"Liberation Mono",Menlo,Courier,monospace;font-size:14px}#chart-1d85a363-be10-4ced-8fd8-93930ab33154 .axis text{font-family:Consolas,"Liberation Mono",Menlo,Courier,monospace;font-size:10px}#chart-1d85a363-be10-4ced-8fd8-93930ab33154 .axis text.major{font-family:Consolas,"Liberation Mono",Menlo,Courier,monospace;font-size:10px}#chart-1d85a363-be10-4ced-8fd8-93930ab33154 .text-overlay text.value{font-family:Consolas,"Liberation Mono",Menlo,Courier,monospace;font-size:16px}#chart-1d85a363-be10-4ced-8fd8-93930ab33154 .text-overlay text.label{font-family:Consolas,"Liberation Mono",Menlo,Courier,monospace;font-size:10px}#chart-1d85a363-be10-4ced-8fd8-93930ab33154 .tooltip{font-family:Consolas,"Liberation Mono",Menlo,Courier,monospace;font-size:14px}#chart-1d85a363-be10-4ced-8fd8-93930ab33154 text.no_data{font-family:Consolas,"Liberation Mono",Menlo,Courier,monospace;font-size:64px}
#chart-1d85a363-be10-4ced-8fd8-93930ab33154{background-color:transparent}#chart-1d85a363-be10-4ced-8fd8-93930ab33154 path,#chart-1d85a363-be10-4ced-8fd8-93930ab33154 line,#chart-1d85a363-be10-4ced-8fd8-93930ab33154 rect,#chart-1d85a363-be10-4ced-8fd8-93930ab33154 circle{-webkit-transition:100ms ease-in;-moz-transition:100ms ease-in;transition:100ms ease-in}#chart-1d85a363-be10-4ced-8fd8-93930ab33154 .graph &gt; .background{fill:transparent}#chart-1d85a363-be10-4ced-8fd8-93930ab33154 .plot &gt; .background{fill:transparent}#chart-1d85a363-be10-4ced-8fd8-93930ab33154 .graph{fill:#000000}#chart-1d85a363-be10-4ced-8fd8-93930ab33154 text.no_data{fill:#000000}#chart-1d85a363-be10-4ced-8fd8-93930ab33154 .title{fill:#000000}#chart-1d85a363-be10-4ced-8fd8-93930ab33154 .legends .legend text{fill:#000000}#chart-1d85a363-be10-4ced-8fd8-93930ab33154 .legends .legend:hover text{fill:#000000}#chart-1d85a363-be10-4ced-8fd8-93930ab33154 .axis .line{stroke:#000000}#chart-1d85a363-be10-4ced-8fd8-93930ab33154 .axis .guide.line{stroke:#006400d}#chart-1d85a363-be10-4ced-8fd8-93930ab33154 .axis .major.line{stroke:#000000}#chart-1d85a363-be10-4ced-8fd8-93930ab33154 .axis text.major{fill:#000000}#chart-1d85a363-be10-4ced-8fd8-93930ab33154 .axis.y .guides:hover .guide.line,#chart-1d85a363-be10-4ced-8fd8-93930ab33154 .line-graph .axis.x .guides:hover .guide.line,#chart-1d85a363-be10-4ced-8fd8-93930ab33154 .stackedline-graph .axis.x .guides:hover .guide.line,#chart-1d85a363-be10-4ced-8fd8-93930ab33154 .xy-graph .axis.x .guides:hover .guide.line{stroke:#000000}#chart-1d85a363-be10-4ced-8fd8-93930ab33154 .axis .guides:hover text{fill:#000000}#chart-1d85a363-be10-4ced-8fd8-93930ab33154 .reactive{fill-opacity:.6;stroke-opacity:.8}#chart-1d85a363-be10-4ced-8fd8-93930ab33154 .ci{stroke:#000000}#chart-1d85a363-be10-4ced-8fd8-93930ab33154 .reactive.active,#chart-1d85a363-be10-4ced-8fd8-93930ab33154 .active .reactive{fill-opacity:.9;stroke-opacity:.9;stroke-width:4}#chart-1d85a363-be10-4ced-8fd8-93930ab33154 .ci .reactive.active{stroke-width:1.5}#chart-1d85a363-be10-4ced-8fd8-93930ab33154 .series text{fill:#000000}#chart-1d85a363-be10-4ced-8fd8-93930ab33154 .tooltip rect{fill:transparent;stroke:#000000;-webkit-transition:opacity 100ms ease-in;-moz-transition:opacity 100ms ease-in;transition:opacity 100ms ease-in}#chart-1d85a363-be10-4ced-8fd8-93930ab33154 .tooltip .label{fill:#000000}#chart-1d85a363-be10-4ced-8fd8-93930ab33154 .tooltip .label{fill:#000000}#chart-1d85a363-be10-4ced-8fd8-93930ab33154 .tooltip .legend{font-size:.8em;fill:#006400d}#chart-1d85a363-be10-4ced-8fd8-93930ab33154 .tooltip .x_label{font-size:.6em;fill:#000000}#chart-1d85a363-be10-4ced-8fd8-93930ab33154 .tooltip .xlink{font-size:.5em;text-decoration:underline}#chart-1d85a363-be10-4ced-8fd8-93930ab33154 .tooltip .value{font-size:1.5em}#chart-1d85a363-be10-4ced-8fd8-93930ab33154 .bound{font-size:.5em}#chart-1d85a363-be10-4ced-8fd8-93930ab33154 .max-value{font-size:.75em;fill:#006400d}#chart-1d85a363-be10-4ced-8fd8-93930ab33154 .map-element{fill:transparent;stroke:#006400d !important}#chart-1d85a363-be10-4ced-8fd8-93930ab33154 .map-element .reactive{fill-opacity:inherit;stroke-opacity:inherit}#chart-1d85a363-be10-4ced-8fd8-93930ab33154 .color-0,#chart-1d85a363-be10-4ced-8fd8-93930ab33154 .color-0 a:visited{stroke:#006400;fill:#006400}#chart-1d85a363-be10-4ced-8fd8-93930ab33154 .color-1,#chart-1d85a363-be10-4ced-8fd8-93930ab33154 .color-1 a:visited{stroke:#0022AA;fill:#0022AA}#chart-1d85a363-be10-4ced-8fd8-93930ab33154 .color-2,#chart-1d85a363-be10-4ced-8fd8-93930ab33154 .color-2 a:visited{stroke:#FF1111;fill:#FF1111}#chart-1d85a363-be10-4ced-8fd8-93930ab33154 .text-overlay .color-0 text{fill:black}#chart-1d85a363-be10-4ced-8fd8-93930ab33154 .text-overlay .color-1 text{fill:black}#chart-1d85a363-be10-4ced-8fd8-93930ab33154 .text-overlay .color-2 text{fill:black}
#chart-1d85a363-be10-4ced-8fd8-93930ab33154 text.no_data{text-anchor:middle}#chart-1d85a363-be10-4ced-8fd8-93930ab33154 .guide.line{fill:none}#chart-1d85a363-be10-4ced-8fd8-93930ab33154 .centered{text-anchor:middle}#chart-1d85a363-be10-4ced-8fd8-93930ab33154 .title{text-anchor:middle}#chart-1d85a363-be10-4ced-8fd8-93930ab33154 .legends .legend text{fill-opacity:1}#chart-1d85a363-be10-4ced-8fd8-93930ab33154 .axis.x text{text-anchor:middle}#chart-1d85a363-be10-4ced-8fd8-93930ab33154 .axis.x:not(.web) text[transform]{text-anchor:start}#chart-1d85a363-be10-4ced-8fd8-93930ab33154 .axis.x:not(.web) text[transform].backwards{text-anchor:end}#chart-1d85a363-be10-4ced-8fd8-93930ab33154 .axis.y text{text-anchor:end}#chart-1d85a363-be10-4ced-8fd8-93930ab33154 .axis.y text[transform].backwards{text-anchor:start}#chart-1d85a363-be10-4ced-8fd8-93930ab33154 .axis.y2 text{text-anchor:start}#chart-1d85a363-be10-4ced-8fd8-93930ab33154 .axis.y2 text[transform].backwards{text-anchor:end}#chart-1d85a363-be10-4ced-8fd8-93930ab33154 .axis .guide.line{stroke-dasharray:4,4}#chart-1d85a363-be10-4ced-8fd8-93930ab33154 .axis .major.guide.line{stroke-dasharray:6,6}#chart-1d85a363-be10-4ced-8fd8-93930ab33154 .horizontal .axis.y .guide.line,#chart-1d85a363-be10-4ced-8fd8-93930ab33154 .horizontal .axis.y2 .guide.line,#chart-1d85a363-be10-4ced-8fd8-93930ab33154 .vertical .axis.x .guide.line{opacity:0}#chart-1d85a363-be10-4ced-8fd8-93930ab33154 .horizontal .axis.always_show .guide.line,#chart-1d85a363-be10-4ced-8fd8-93930ab33154 .vertical .axis.always_show .guide.line{opacity:1 !important}#chart-1d85a363-be10-4ced-8fd8-93930ab33154 .axis.y .guides:hover .guide.line,#chart-1d85a363-be10-4ced-8fd8-93930ab33154 .axis.y2 .guides:hover .guide.line,#chart-1d85a363-be10-4ced-8fd8-93930ab33154 .axis.x .guides:hover .guide.line{opacity:1}#chart-1d85a363-be10-4ced-8fd8-93930ab33154 .axis .guides:hover text{opacity:1}#chart-1d85a363-be10-4ced-8fd8-93930ab33154 .nofill{fill:none}#chart-1d85a363-be10-4ced-8fd8-93930ab33154 .subtle-fill{fill-opacity:.2}#chart-1d85a363-be10-4ced-8fd8-93930ab33154 .dot{stroke-width:1px;fill-opacity:1}#chart-1d85a363-be10-4ced-8fd8-93930ab33154 .dot.active{stroke-width:5px}#chart-1d85a363-be10-4ced-8fd8-93930ab33154 .dot.negative{fill:transparent}#chart-1d85a363-be10-4ced-8fd8-93930ab33154 text,#chart-1d85a363-be10-4ced-8fd8-93930ab33154 tspan{stroke:none !important}#chart-1d85a363-be10-4ced-8fd8-93930ab33154 .series text.active{opacity:1}#chart-1d85a363-be10-4ced-8fd8-93930ab33154 .tooltip rect{fill-opacity:.95;stroke-width:.5}#chart-1d85a363-be10-4ced-8fd8-93930ab33154 .tooltip text{fill-opacity:1}#chart-1d85a363-be10-4ced-8fd8-93930ab33154 .showable{visibility:hidden}#chart-1d85a363-be10-4ced-8fd8-93930ab33154 .showable.shown{visibility:visible}#chart-1d85a363-be10-4ced-8fd8-93930ab33154 .gauge-background{fill:rgba(229,229,229,1);stroke:none}#chart-1d85a363-be10-4ced-8fd8-93930ab33154 .bg-lines{stroke:transparent;stroke-width:2px}</style><script type="text/javascript">window.pygal = window.pygal || {};window.pygal.config = window.pygal.config || {};window.pygal.config['1d85a363-be10-4ced-8fd8-93930ab33154'] = {"dynamic_print_values": false, "truncate_label": null, "inner_radius": 0, "print_values": false, "xrange": null, "box_mode": "extremes", "title": null, "legend_at_bottom_columns": null, "height": 600, "legend_at_bottom": false, "show_legend": true, "show_dots": false, "explicit_size": false, "y_labels_major": null, "show_minor_x_labels": true, "width": 800, "force_uri_protocol": "https", "half_pie": false, "style": {"major_label_font_family": "Consolas, \"Liberation Mono\", Menlo, Courier, monospace", "title_font_family": "Consolas, \"Liberation Mono\", Menlo, Courier, monospace", "stroke_opacity": ".8", "legend_font_family": "Consolas, \"Liberation Mono\", Menlo, Courier, monospace", "colors": ["#006400", "#0022AA", "#FF1111", "#FFEBCD", "#DC143C", "#FFFFFF", "#6495ED", "#B0C4DE", "#D2691E", "#8B0000"], "legend_font_size": 14, "no_data_font_family": "Consolas, \"Liberation Mono\", Menlo, Courier, monospace", "major_label_font_size": 10, "value_background": "rgba(229, 229, 229, 1)", "ci_colors": [], "label_font_family": "Consolas, \"Liberation Mono\", Menlo, Courier, monospace", "label_font_size": 10, "tooltip_font_size": 14, "value_font_size": 16, "font_family": "Consolas, \"Liberation Mono\", Menlo, Courier, monospace", "opacity": ".6", "foreground": "#000000", "plot_background": "transparent", "value_label_font_size": 10, "value_label_font_family": "Consolas, \"Liberation Mono\", Menlo, Courier, monospace", "background": "transparent", "no_data_font_size": 64, "value_colors": [], "guide_stroke_dasharray": "4,4", "transition": "100ms ease-in", "foreground_subtle": "#006400d", "value_font_family": "Consolas, \"Liberation Mono\", Menlo, Courier, monospace", "tooltip_font_family": "Consolas, \"Liberation Mono\", Menlo, Courier, monospace", "title_font_size": 16, "stroke_opacity_hover": ".9", "major_guide_stroke_dasharray": "6,6", "opacity_hover": ".9", "foreground_strong": "#000000"}, "x_label_rotation": 0, "fill": false, "missing_value_fill_truncation": "x", "zero": 0, "margin_right": null, "interpolation_parameters": {}, "x_labels_major": null, "rounded_bars": null, "show_y_labels": true, "dots_size": 2.5, "show_y_guides": true, "show_minor_y_labels": true, "x_labels": null, "y_title": null, "order_min": null, "formatter": null, "disable_xml_declaration": false, "strict": false, "css": ["file://style.css", "file://graph.css"], "tooltip_fancy_mode": true, "defs": [], "show_only_major_dots": false, "y_label_rotation": 0, "show_x_labels": true, "min_scale": 4, "show_x_guides": false, "spacing": 10, "x_labels_major_count": null, "pretty_print": false, "tooltip_border_radius": 0, "interpolate": null, "js": ["//kozea.github.io/pygal.js/2.0.x/pygal-tooltips.min.js"], "y_labels": null, "stroke_style": null, "print_labels": false, "interpolation_precision": 250, "x_title": "udp_1000kbps", "y_labels_major_every": null, "logarithmic": false, "legends": ["qdelay", "txed(kbps)", "topo(kbps)"], "max_scale": 16, "print_zeroes": true, "no_data_text": "No data", "truncate_legend": null, "x_labels_major_every": null, "secondary_range": null, "legend_box_size": 12, "no_prefix": false, "stroke": true, "stack_from_top": false, "include_x_axis": false, "range": [0, 1500.0], "classes": ["pygal-chart"], "margin_top": null, "margin_left": null, "y_labels_major_count": null, "margin_bottom": null, "inverse_y_axis": false, "margin": 20, "allow_interruptions": false, "print_values_position": "center"}</script><script type="text/javascript" xlink:href="https://kozea.github.io/pygal.js/2.0.x/pygal-tooltips.min.js" /></defs><title>Pygal</title><g class="graph xy-graph vertical"><rect class="background" height="600" width="800" x="0" y="0" /><g class="plot" transform="translate(160, 20)"><rect class="background" height="514" width="620.0" x="0" y="0" /><g class="axis y always_show"><g class="guides"><path class="axis major line" d="M0.000000 504.115385 h620.000000" /><text class="major" x="-5" y="507.615384615">0</text><title>0</title></g><g class="guides"><path class="guide line" d="M0.000000 471.166667 h620.000000" /><text class="" x="-5" y="474.666666667">100</text><title>100</title></g><g class="guides"><path class="guide line" d="M0.000000 438.217949 h620.000000" /><text class="" x="-5" y="441.717948718">200</text><title>200</title></g><g class="guides"><path class="guide line" d="M0.000000 405.269231 h620.000000" /><text class="" x="-5" y="408.769230769">300</text><title>300</title></g><g class="guides"><path class="guide line" d="M0.000000 372.320513 h620.000000" /><text class="" x="-5" y="375.820512821">400</text><title>400</title></g><g class="guides"><path class="major guide line" d="M0.000000 339.371795 h620.000000" /><text class="major" x="-5" y="342.871794872">500</text><title>500</title></g><g class="guides"><path class="guide line" d="M0.000000 306.423077 h620.000000" /><text class="" x="-5" y="309.923076923">600</text><title>600</title></g><g class="guides"><path class="guide line" d="M0.000000 273.474359 h620.000000" /><text class="" x="-5" y="276.974358974">700</text><title>700</title></g><g class="guides"><path class="guide line" d="M0.000000 240.525641 h620.000000" /><text class="" x="-5" y="244.025641026">800</text><title>800</title></g><g class="guides"><path class="guide line" d="M0.000000 207.576923 h620.000000" /><text class="" x="-5" y="211.076923077">900</text><title>900</title></g><g class="guides"><path class="major guide line" d="M0.000000 174.628205 h620.000000" /><text class="major" x="-5" y="178.128205128">1000</text><title>1000</title></g><g class="guides"><path class="guide line" d="M0.000000 141.679487 h620.000000" /><text class="" x="-5" y="145.179487179">1100</text><title>1100</title></g><g class="guides"><path class="guide line" d="M0.000000 108.730769 h620.000000" /><text class="" x="-5" y="112.230769231">1200</text><title>1200</title></g><g class="guides"><path class="guide line" d="M0.000000 75.782051 h620.000000" /><text class="" x="-5" y="79.2820512821">1300</text><title>1300</title></g><g class="guides"><path class="guide line" d="M0.000000 42.833333 h620.000000" /><text class="" x="-5" y="46.3333333333">1400</text><title>1400</title></g><g class="guides"><path class="major guide line" d="M0.000000 9.884615 h620.000000" /><text class="major" x="-5" y="13.3846153846">1500</text><title>1500</title></g></g><g class="axis x"><path class="line" d="M0.000000 0.000000 v514.000000" /><g class="guides"><path class="guide line" d="M60.248850 0.000000 v514.000000" /><text class="" x="60.2488502213" y="529.0">10</text><title>10</title></g><g class="guides"><path class="guide line" d="M110.094451 0.000000 v514.000000" /><text class="" x="110.094450772" y="529.0">20</text><title>20</title></g><g class="guides"><path class="guide line" d="M159.940051 0.000000 v514.000000" /><text class="" x="159.940051323" y="529.0">30</text><title>30</title></g><g class="guides"><path class="guide line" d="M209.785652 0.000000 v514.000000" /><text class="" x="209.785651874" y="529.0">40</text><title>40</title></g><g class="guides"><path class="guide line" d="M259.631252 0.000000 v514.000000" /><text class="" x="259.631252425" y="529.0">50</text><title>50</title></g><g class="guides"><path class="guide line" d="M309.476853 0.000000 v514.000000" /><text class="" x="309.476852976" y="529.0">60</text><title>60</title></g><g class="guides"><path class="guide line" d="M359.322454 0.000000 v514.000000" /><text class="" x="359.322453527" y="529.0">70</text><title>70</title></g><g class="guides"><path class="guide line" d="M409.168054 0.000000 v514.000000" /><text class="" x="409.168054078" y="529.0">80</text><title>80</title></g><g class="guides"><path class="guide line" d="M459.013655 0.000000 v514.000000" /><text class="" x="459.013654629" y="529.0">90</text><title>90</title></g><g class="guides"><path class="guide line" d="M508.859255 0.000000 v514.000000" /><text class="" x="508.85925518" y="529.0">100</text><title>100</title></g><g class="guides"><path class="guide line" d="M558.704856 0.000000 v514.000000" /><text class="" x="558.704855731" y="529.0">110</text><title>110</title></g></g><g class="series serie-0 color-0"><path class="line reactive nofill" d="M11.923077 504.115385 L12.421214 504.115385 12.919510 503.456410 13.418126 502.797436 13.916582 504.115385 14.414878 502.797436 14.913494 502.138462 15.411785 502.467949 15.910391 502.467949 16.408847 501.808974 16.907453 504.115385 17.405609 502.138462 17.904215 504.115385 18.402521 503.126923 18.901127 502.467949 19.399583 502.138462 19.897890 502.138462 20.396495 502.138462 20.894951 502.138462 21.393407 503.785897 21.891714 501.808974 22.390319 503.456410 22.888775 503.785897 23.387231 504.115385 23.885687 502.138462 24.384143 503.456410 24.882450 502.138462 25.381055 502.138462 25.879362 502.467949 26.377967 502.797436 26.876423 503.456410 27.374879 502.467949 27.873186 502.138462 28.371791 502.797436 28.870098 501.808974 29.368554 501.808974 29.867159 501.808974 30.365615 500.161538 30.864071 503.785897 31.362378 501.808974 31.860983 501.808974 32.359788 503.785897 32.857746 501.479487 33.356351 503.456410 33.855156 501.479487 34.353413 502.467949 34.851869 502.467949 35.350524 501.479487 35.848781 502.797436 36.347237 503.126923 36.845892 503.456410 37.344149 503.126923 37.842605 501.479487 38.341260 502.467949 38.839367 502.138462 39.338172 502.467949 39.836778 501.150000 40.335084 501.479487 40.833341 502.797436 41.331996 503.126923 41.830253 503.456410 42.328908 503.456410 42.827364 503.456410 43.325820 502.138462 43.824426 502.138462 44.322732 501.808974 44.820989 502.467949 45.319644 501.479487 45.818250 501.479487 46.316706 496.866667 46.815012 499.502564 47.313468 503.456410 47.811924 502.138462 48.310380 502.797436 48.808836 500.820513 49.307292 502.467949 49.805748 503.456410 50.304204 503.126923 50.802660 502.797436 51.300917 503.785897 51.799373 502.797436 52.298028 502.797436 52.796484 502.138462 53.294940 502.467949 53.793546 500.161538 54.291852 503.126923 54.790308 503.456410 55.288764 504.115385 55.787021 502.797436 56.285477 502.467949 56.783933 502.467949 57.282389 502.797436 57.780695 502.797436 58.279500 502.467949 58.777956 504.115385 59.276412 503.456410 59.774868 502.797436 60.273275 502.138462 60.771731 503.126923 61.270187 502.138462 61.768643 501.479487 62.267099 503.785897 62.765555 504.115385 63.264011 502.138462 63.762467 502.467949 64.260923 502.138462 64.759379 503.456410 65.257835 503.456410 65.756291 502.138462 66.254747 503.126923 66.753203 501.150000 67.251659 502.467949 67.750115 501.479487 68.248571 502.797436 68.747027 503.126923 69.245483 501.808974 69.743939 501.808974 70.242395 502.138462 70.740851 503.456410 71.239307 502.138462 71.737763 501.150000 72.236219 501.150000 72.734675 501.150000 73.233131 501.150000 73.731587 494.889744 74.230043 497.855128 74.728499 498.184615 75.226955 495.878205 75.725411 497.196154 76.223867 497.525641 76.722323 499.502564 77.220779 500.820513 77.719235 502.467949 78.217691 502.138462 78.716147 501.479487 79.214603 501.808974 79.713059 503.126923 80.211515 501.479487 80.709971 502.797436 81.208427 502.797436 81.706883 502.138462 82.205339 502.138462 82.703795 501.479487 83.202251 501.808974 83.700707 501.479487 84.198664 502.138462 84.697619 503.456410 85.196075 502.467949 85.694531 502.138462 86.192987 502.467949 86.691443 501.808974 87.189899 503.126923 87.688355 502.797436 88.186811 501.808974 88.685267 501.808974 89.183723 499.502564 89.682179 501.479487 90.180635 502.797436 90.679091 502.138462 91.177547 501.479487 91.676003 504.115385 92.174459 502.797436 92.672915 501.479487 93.171371 502.797436 93.669827 503.126923 94.168283 501.479487 94.666739 501.479487 95.165195 503.126923 95.663651 502.467949 96.162107 501.479487 96.660563 501.808974 97.159019 503.456410 97.657475 501.479487 98.155931 501.479487 98.654387 502.467949 99.152843 502.797436 99.651299 501.479487 100.149755 501.150000 100.648211 501.808974 101.146667 501.479487 101.645123 503.456410 102.143579 500.491026 102.642035 498.843590 103.140491 495.219231 103.638947 494.560256 104.137403 489.947436 104.635859 485.664103 105.134315 484.675641 105.632771 483.028205 106.131227 480.721795 106.629683 471.166667 107.128139 465.235897 107.626595 464.576923 108.125051 465.565385 108.623507 477.097436 109.121963 499.173077 109.620419 503.785897 110.118875 501.479487 110.617331 502.138462 111.115787 501.479487 111.614243 501.808974 112.112699 499.502564 112.611155 501.479487 113.109611 501.808974 113.608067 500.820513 114.106523 500.491026 114.604979 501.479487 115.103435 501.808974 115.601891 501.479487 116.100347 501.808974 116.598803 502.467949 117.097259 503.126923 117.595715 503.126923 118.094171 501.808974 118.592627 502.467949 119.091083 501.808974 119.589539 501.150000 120.087995 498.514103 120.586451 500.491026 121.084907 502.467949 121.583363 503.456410 122.081819 501.808974 122.580275 501.150000 123.078731 497.525641 123.577187 501.808974 124.075643 501.479487 124.574099 502.797436 125.072555 501.479487 125.571011 502.138462 126.069467 503.126923 126.567923 503.785897 127.066379 501.479487 127.564835 501.808974 128.063291 501.479487 128.561747 502.138462 129.060203 501.808974 129.558659 499.173077 130.057115 496.537179 130.555571 499.173077 131.054027 499.173077 131.552483 502.467949 132.050939 502.797436 132.549395 501.808974 133.047851 496.866667 133.546307 495.219231 134.044763 501.479487 134.543219 502.797436 135.041675 501.479487 135.540131 502.797436 136.038587 501.479487 136.537043 502.797436 137.035499 499.173077 137.533955 496.537179 138.032411 496.537179 138.530867 490.276923 139.029323 490.276923 139.527779 490.606410 140.026235 490.935897 140.524691 483.687179 141.023147 483.687179 141.521603 483.687179 142.020059 485.334615 142.518515 491.924359 143.016971 495.548718 143.515427 498.514103 144.013883 501.150000 144.512339 502.138462 145.010796 501.479487 145.509252 502.467949 146.007708 499.502564 146.506164 493.901282 147.004620 496.537179 147.503076 501.479487 148.001532 502.467949 148.499988 501.479487 148.998444 499.502564 149.496900 501.150000 149.995356 501.479487 150.493812 502.138462 150.992268 501.479487 151.490724 501.479487 151.989180 501.479487 152.487636 500.161538 152.986092 500.820513 153.484548 501.150000 153.983004 501.479487 154.481460 502.467949 154.979916 504.115385 155.478372 502.467949 155.976828 502.138462 156.475284 501.479487 156.973740 502.797436 157.472196 502.797436 157.970652 501.479487 158.469108 501.479487 158.967564 503.126923 159.466020 499.502564 159.964476 500.820513 160.462932 496.866667 160.961388 497.196154 161.459844 499.832051 161.958300 502.467949 162.456756 502.797436 162.954713 503.456410 163.453668 503.126923 163.952124 501.150000 164.450580 502.467949 164.949036 502.138462 165.447492 502.138462 165.945948 499.173077 166.444404 495.878205 166.942860 502.138462 167.440817 501.808974 167.939772 501.479487 168.438228 500.820513 168.936684 503.785897 169.435140 502.467949 169.933596 501.150000 170.432052 503.126923 170.930508 501.479487 171.428964 503.456410 171.927420 503.126923 172.425876 501.808974 172.924332 503.126923 173.422788 503.785897 173.921244 501.479487 174.419700 499.832051 174.918156 499.502564 175.416612 497.525641 175.915068 501.479487 176.413524 501.808974 176.911980 502.467949 177.410436 501.479487 177.908892 501.479487 178.407348 501.150000 178.905804 501.808974 179.404260 500.820513 179.902716 500.161538 180.401172 500.491026 180.899628 500.491026 181.398084 497.196154 181.896540 497.855128 182.394996 502.138462 182.893452 501.479487 183.391908 500.491026 183.890364 501.479487 184.388820 500.491026 184.887276 502.467949 185.385732 501.479487 185.884188 501.479487 186.382644 501.479487 186.881100 501.808974 187.379556 502.138462 187.877514 500.161538 188.376468 501.479487 188.874924 497.196154 189.373380 492.583333 189.871836 495.219231 190.370292 495.219231 190.868748 498.514103 191.367204 499.832051 191.865660 500.491026 192.364116 501.479487 192.862572 501.479487 193.361028 498.514103 193.859484 502.467949 194.357940 502.797436 194.856396 501.479487 195.354852 501.479487 195.853308 500.820513 196.351764 502.797436 196.850220 502.467949 197.348676 502.138462 197.847132 502.138462 198.345588 496.537179 198.844044 499.173077 199.342500 498.184615 199.840956 501.479487 200.339412 502.797436 200.837868 501.479487 201.336324 504.115385 201.834780 503.456410 202.333236 502.138462 202.831692 501.479487 203.330148 498.184615 203.828604 501.150000 204.327060 502.138462 204.825516 502.467949 205.323972 501.479487 205.822428 501.479487 206.320884 499.173077 206.819340 496.207692 207.317796 502.138462 207.816252 502.797436 208.314708 501.479487 208.813164 501.150000 209.311620 502.797436 209.810076 501.479487 210.308532 501.479487 210.806988 499.832051 211.305444 498.843590 211.803900 501.479487 212.302356 503.126923 212.800812 499.173077 213.299268 499.502564 213.797724 501.808974 214.296180 501.808974 214.794636 501.150000 215.293092 502.467949 215.791548 502.797436 216.290004 502.467949 216.788460 501.479487 217.286916 499.832051 217.785372 500.491026 218.283828 500.491026 218.782284 501.808974 219.280740 502.138462 219.779196 500.820513 220.277652 495.548718 220.776108 494.889744 221.274564 497.196154 221.773020 500.820513 222.271476 501.479487 222.769932 502.467949 223.268388 503.126923 223.766844 501.479487 224.265300 497.525641 224.763756 492.912821 225.262212 494.889744 225.760668 496.866667 226.259124 502.467949 226.757580 503.126923 227.256036 503.126923 227.754492 499.832051 228.252948 502.797436 228.751404 502.467949 229.249860 503.126923 229.748316 502.138462 230.246772 503.456410 230.745228 502.467949 231.243684 499.502564 231.742140 501.479487 232.240596 501.479487 232.739052 501.479487 233.237508 501.479487 233.735964 501.479487 234.234420 502.467949 234.732876 503.785897 235.231332 502.138462 235.729789 500.491026 236.228245 502.797436 236.726701 501.808974 237.225157 501.808974 237.723613 502.138462 238.222069 502.138462 238.720525 501.479487 239.218981 501.479487 239.717437 502.467949 240.215893 501.479487 240.714349 501.150000 241.212805 501.479487 241.711261 501.808974 242.209717 501.479487 242.708173 502.138462 243.206629 499.502564 243.705085 496.537179 244.203541 497.196154 244.701997 498.184615 245.200453 501.479487 245.698909 502.797436 246.197365 503.785897 246.695821 502.797436 247.194277 503.456410 247.692733 501.479487 248.191189 500.161538 248.689645 502.138462 249.188101 501.808974 249.686557 499.832051 250.185013 501.479487 250.683469 503.126923 251.181925 503.456410 251.680381 502.467949 252.178837 498.843590 252.677293 501.479487 253.175749 502.797436 253.674205 501.479487 254.172661 502.797436 254.671117 503.456410 255.169573 502.797436 255.668029 502.467949 256.166485 502.467949 256.664941 501.808974 257.163397 501.479487 257.661853 499.173077 258.160309 501.808974 258.658765 500.491026 259.157221 502.467949 259.655677 499.832051 260.154133 501.150000 260.652589 501.808974 261.151045 502.467949 261.649501 501.479487 262.147957 503.456410 262.646413 501.479487 263.144869 501.479487 263.643325 503.785897 264.141781 501.808974 264.640237 501.808974 265.138693 502.138462 265.637149 498.184615 266.135605 502.138462 266.634061 502.467949 267.132517 503.785897 267.630973 501.479487 268.129429 499.502564 268.627885 501.479487 269.126341 500.820513 269.624797 495.548718 270.123253 498.843590 270.621709 500.820513 271.120165 500.491026 271.618621 503.126923 272.117077 501.150000 272.615533 501.479487 273.113989 501.479487 273.612445 503.126923 274.110901 501.150000 274.609357 501.479487 275.107813 503.785897 275.606269 503.126923 276.104725 501.808974 276.603181 501.479487 277.101637 503.785897 277.600093 503.126923 278.098549 501.479487 278.597005 502.138462 279.095461 501.479487 279.593917 497.525641 280.092373 498.514103 280.590829 500.161538 281.089285 498.514103 281.587741 501.808974 282.086197 503.126923 282.584653 500.161538 283.083109 498.514103 283.581565 501.479487 284.080021 502.797436 284.578477 500.161538 285.076933 501.479487 285.575389 501.479487 286.073845 502.797436 286.572301 499.832051 287.071256 498.514103 287.569213 500.491026 288.067669 501.479487 288.566125 500.491026 289.064581 501.479487 289.563037 500.161538 290.061992 499.832051 290.559949 500.820513 291.058405 502.138462 291.556861 501.479487 292.055317 498.514103 292.553773 501.479487 293.052229 504.115385 293.550685 502.467949 294.049141 502.138462 294.547099 502.138462 295.046053 502.797436 295.544509 501.479487 296.042965 500.491026 296.541421 501.808974 297.039877 501.479487 297.538333 500.491026 298.036789 502.138462 298.535245 502.138462 299.033701 502.467949 299.532157 501.479487 300.030613 502.467949 300.529069 501.479487 301.027525 501.479487 301.525981 502.797436 302.024437 499.173077 302.522893 501.479487 303.021349 503.456410 303.519805 502.138462 304.018261 502.797436 304.516717 503.126923 305.015173 502.467949 305.513629 501.479487 306.012085 501.479487 306.510541 504.115385 307.008997 502.797436 307.507453 502.467949 308.005909 500.820513 308.504365 501.150000 309.002821 503.456410 309.501277 501.479487 309.999733 501.808974 310.498189 501.150000 310.996645 501.479487 311.495101 498.514103 311.993557 499.832051 312.492013 494.560256 312.990469 495.219231 313.488925 498.184615 313.987381 501.479487 314.485837 503.126923 314.984293 495.548718 315.482749 496.207692 315.981205 503.126923 316.479661 501.479487 316.978117 501.150000 317.476573 501.479487 317.975029 503.456410 318.473485 501.479487 318.971941 501.150000 319.470397 503.456410 319.968853 502.797436 320.467309 501.150000 320.965765 501.479487 321.464221 502.467949 321.962677 502.138462 322.461133 502.797436 322.959589 501.479487 323.458045 502.467949 323.956501 500.161538 324.454957 502.467949 324.953413 500.161538 325.451869 501.479487 325.950326 501.479487 326.448782 501.479487 326.947238 502.467949 327.445694 502.467949 327.944150 503.126923 328.442606 502.797436 328.941062 501.808974 329.439518 501.479487 329.937974 502.138462 330.436430 501.808974 330.934886 501.808974 331.433342 502.797436 331.931798 502.467949 332.430254 500.820513 332.928710 502.467949 333.427166 501.479487 333.925622 499.173077 334.424078 499.502564 334.922534 500.491026 335.420990 502.138462 335.919446 502.138462 336.417902 503.126923 336.916358 501.479487 337.414814 499.832051 337.913270 502.467949 338.411726 500.491026 338.910182 501.479487 339.408638 500.161538 339.907094 495.548718 340.405550 489.947436 340.904006 488.629487 341.402462 479.403846 341.900918 476.438462 342.399374 480.392308 342.897830 478.744872 343.395787 499.502564 343.894243 503.785897 344.392699 504.115385 344.891654 499.832051 345.390110 500.491026 345.888566 502.797436 346.387022 502.467949 346.885478 502.138462 347.383934 501.479487 347.882390 501.479487 348.380846 501.479487 348.879302 503.126923 349.377758 502.797436 349.876214 501.479487 350.374670 503.126923 350.873126 502.797436 351.371582 499.832051 351.870038 499.502564 352.368494 501.808974 352.866950 502.467949 353.365406 501.479487 353.863862 501.150000 354.362318 502.138462 354.860774 500.820513 355.359230 502.138462 355.857686 501.808974 356.356142 501.479487 356.854598 502.138462 357.353054 497.525641 357.851510 501.150000 358.349966 501.479487 358.848422 501.479487 359.346878 501.808974 359.845334 502.797436 360.343790 499.173077 360.842246 498.843590 361.340702 501.479487 361.839158 501.150000 362.337614 503.785897 362.836070 503.126923 363.334526 500.161538 363.832982 502.467949 364.331438 501.150000 364.829894 502.797436 365.328350 502.467949 365.826806 501.808974 366.325262 502.138462 366.823718 501.150000 367.322174 501.479487 367.820630 502.467949 368.319086 502.467949 368.817542 503.126923 369.315998 500.491026 369.814454 498.184615 370.312910 502.467949 370.811366 501.479487 371.309822 502.797436 371.808278 500.491026 372.306734 501.479487 372.805190 495.878205 373.303646 492.912821 373.802102 501.808974 374.300558 502.797436 374.799014 503.126923 375.297470 503.456410 375.795926 500.161538 376.294382 499.173077 376.792838 497.525641 377.291294 498.514103 377.789750 501.479487 378.288206 502.138462 378.786662 501.808974 379.285118 503.785897 379.783574 502.467949 380.282030 499.173077 380.780486 501.808974 381.278942 501.479487 381.777398 502.138462 382.275854 502.138462 382.774310 500.161538 383.272766 498.184615 383.771222 501.479487 384.269678 501.808974 384.768134 500.491026 385.266590 503.456410 385.765046 502.138462 386.263502 501.479487 386.761958 501.479487 387.260414 501.479487 387.758870 500.161538 388.257326 500.820513 388.755782 501.479487 389.254238 499.173077 389.752694 501.150000 390.251150 502.467949 390.749606 500.491026 391.248062 501.479487 391.746518 502.138462 392.244974 501.479487 392.743430 501.150000 393.241886 503.785897 393.740342 501.808974 394.238798 495.548718 394.737254 499.502564 395.235710 501.150000 395.734166 502.138462 396.232622 501.479487 396.731078 502.797436 397.229534 501.150000 397.727990 501.150000 398.226446 499.173077 398.724902 501.150000 399.223358 499.832051 399.721814 502.467949 400.220270 500.820513 400.718726 499.502564 401.217182 501.808974 401.715638 502.138462 402.214094 502.467949 402.712550 501.808974 403.211006 502.797436 403.709462 502.797436 404.207918 501.808974 404.706374 501.479487 405.204830 500.820513 405.703286 503.785897 406.201742 502.467949 406.700198 503.126923 407.198654 501.479487 407.697110 503.785897 408.195566 502.138462 408.694022 499.832051 409.192478 499.173077 409.690934 500.820513 410.189390 503.126923 410.687846 501.479487 411.186302 501.808974 411.684758 499.832051 412.183214 501.479487 412.681670 502.797436 413.180126 502.138462 413.678582 501.808974 414.177038 503.456410 414.675494 501.479487 415.173950 495.548718 415.672406 491.924359 416.170862 492.583333 416.669319 488.958974 417.167775 487.641026 417.666231 493.242308 418.164687 487.970513 418.663143 482.369231 419.161599 488.958974 419.660055 492.253846 420.158511 494.230769 420.656967 498.514103 421.155423 497.525641 421.653879 501.479487 422.152335 503.456410 422.650791 504.115385 423.149247 503.456410 423.647703 502.138462 424.146159 501.808974 424.644615 503.456410 425.143071 502.797436 425.641527 502.138462 426.139983 501.808974 426.638439 501.808974 427.136396 501.479487 427.635351 503.126923 428.133807 500.491026 428.632263 502.467949 429.130719 503.785897 429.629175 503.785897 430.127631 502.138462 430.626087 501.808974 431.124543 501.150000 431.622999 501.479487 432.121455 503.126923 432.619911 502.797436 433.118367 504.115385 433.616823 504.115385 434.115279 503.456410 434.613735 502.138462 435.112191 501.479487 435.610647 501.808974 436.109103 503.785897 436.607559 502.797436 437.106015 501.479487 437.604471 501.808974 438.102927 503.456410 438.601383 501.808974 439.099839 500.491026 439.598295 501.808974 440.096751 501.808974 440.594708 503.456410 441.093663 503.126923 441.592119 501.808974 442.090575 502.467949 442.589031 503.456410 443.087487 502.138462 443.585943 502.467949 444.084399 499.502564 444.582855 493.901282 445.081311 489.617949 445.579767 487.311538 446.078223 488.300000 446.576679 485.334615 447.075135 478.744872 447.573591 476.108974 448.072047 478.085897 448.570503 484.675641 449.068959 492.253846 449.567415 500.491026 450.065871 502.138462 450.564327 503.456410 451.062783 503.126923 451.561239 501.479487 452.059695 501.479487 452.558151 502.467949 453.056607 502.797436 453.555063 501.808974 454.053519 501.808974 454.551975 501.479487 455.050431 500.161538 455.548887 499.173077 456.047343 496.537179 456.545799 501.150000 457.044255 501.479487 457.542711 501.479487 458.041167 501.479487 458.539623 503.785897 459.038079 503.126923 459.536535 501.479487 460.034991 499.502564 460.533447 497.196154 461.031903 501.479487 461.530359 502.467949 462.028815 502.138462 462.527271 500.491026 463.025727 501.808974 463.524183 502.797436 464.022639 502.467949 464.521095 502.467949 465.019551 502.138462 465.518007 502.797436 466.016463 501.808974 466.514919 501.479487 467.013375 502.467949 467.511831 502.797436 468.010287 501.808974 468.508743 502.138462 469.007199 501.479487 469.505655 496.207692 470.004111 492.253846 470.502567 496.207692 471.001023 495.548718 471.499479 486.323077 471.997935 489.288462 472.496391 492.583333 472.994847 501.808974 473.493303 501.479487 473.991759 502.467949 474.490215 498.514103 474.988671 501.479487 475.487127 501.479487 475.985583 502.797436 476.484039 502.467949 476.982495 503.456410 477.480951 503.126923 477.979407 501.808974 478.477863 501.808974 478.976319 501.808974 479.474775 503.126923 479.973231 502.797436 480.471687 501.479487 480.970143 501.479487 481.468599 496.537179 481.967055 496.537179 482.465511 501.808974 482.963967 500.820513 483.462423 496.207692 483.960879 501.150000 484.459335 501.479487 484.957791 501.808974 485.456247 502.467949 485.954703 502.138462 486.453159 502.138462 486.951615 501.479487 487.450071 501.808974 487.948527 501.479487 488.446983 501.808974 488.945439 501.150000 489.443895 503.456410 489.942351 503.126923 490.440807 501.150000 490.939263 502.467949 491.437719 501.808974 491.936175 501.479487 492.434631 503.126923 492.933087 501.479487 493.431543 501.479487 493.929999 501.479487 494.428455 501.150000 494.926911 503.126923 495.425367 501.479487 495.923823 500.161538 496.422279 500.491026 496.920735 501.479487 497.419191 500.161538 497.917647 502.467949 498.416103 503.126923 498.914559 502.797436 499.413015 501.479487 499.911471 499.832051 500.409927 496.866667 500.908383 498.514103 501.406839 501.479487 501.905295 501.808974 502.403751 501.150000 502.902207 502.138462 503.400663 501.479487 503.899119 501.808974 504.397575 501.479487 504.896031 502.138462 505.394487 501.479487 505.892943 502.467949 506.391399 503.785897 506.889856 502.138462 507.388312 501.479487 507.886768 503.456410 508.385224 501.479487 508.884178 500.161538 509.382634 501.479487 509.881090 502.797436 510.379546 502.467949 510.878002 504.115385 511.376458 502.138462 511.874914 502.467949 512.373370 500.820513 512.871826 502.467949 513.370282 503.456410 513.868738 500.820513 514.367194 500.161538 514.865650 495.548718 515.364106 499.502564 515.862562 502.138462 516.361018 500.491026 516.859474 503.456410 517.357930 503.456410 517.856386 502.797436 518.354842 500.491026 518.853298 499.173077 519.351754 500.491026 519.850210 502.797436 520.348666 501.479487 520.847122 502.138462 521.345578 502.138462 521.844034 502.797436 522.342490 501.479487 522.840946 502.138462 523.339402 501.479487 523.837858 502.467949 524.336314 501.479487 524.834770 501.479487 525.333226 497.855128 525.831682 501.479487 526.330138 502.467949 526.828594 502.797436 527.327050 501.479487 527.825506 500.491026 528.323962 502.138462 528.822418 502.138462 529.320874 502.138462 529.819330 502.138462 530.317786 503.456410 530.816242 501.808974 531.314698 502.467949 531.813154 502.138462 532.311610 501.479487 532.810066 498.184615 533.308522 501.479487 533.806978 503.785897 534.305434 503.456410 534.803890 502.138462 535.302346 502.138462 535.800802 503.126923 536.299258 501.479487 536.797714 501.479487 537.296170 501.150000 537.794626 501.479487 538.293082 501.479487 538.791538 503.456410 539.289994 501.479487 539.788450 502.138462 540.286906 502.797436 540.785362 501.479487 541.283818 502.467949 541.782274 501.150000 542.280730 502.467949 542.779186 501.479487 543.277642 502.138462 543.776098 501.479487 544.274554 502.138462 544.773010 499.173077 545.271466 498.184615 545.769922 498.514103 546.268378 501.479487 546.766834 503.126923 547.265290 498.514103 547.763746 501.479487 548.262202 502.797436 548.760658 501.479487 549.259114 503.456410 549.757570 501.479487 550.256026 502.797436 550.754482 501.479487 551.252938 498.514103 551.751394 501.479487 552.249850 502.138462 552.748306 503.126923 553.246762 501.479487 553.745218 502.467949 554.243674 502.797436 554.742130 502.797436 555.240586 496.207692 555.739042 497.855128 556.237499 502.138462 556.735955 501.479487 557.234411 499.502564 557.732867 495.219231 558.231323 494.560256 558.729779 494.230769 559.228235 497.525641 559.726691 501.808974 560.225147 503.126923 560.723603 503.126923 561.222059 501.479487 561.720515 502.138462 562.218971 500.820513 562.717427 502.467949 563.215883 502.467949 563.714339 503.785897 564.212795 502.467949 564.711251 502.138462 565.209707 502.797436 565.708163 501.479487 566.206619 502.138462 566.705075 501.479487 567.203531 500.161538 567.701987 500.820513 568.200443 502.138462 568.698899 501.479487 569.197355 502.797436 569.695811 502.467949 570.194267 502.138462 570.692723 501.479487 571.191179 500.820513 571.689635 502.467949 572.188091 501.479487 572.686547 498.184615 573.185003 502.138462 573.683459 501.479487 574.181915 501.150000 574.680371 501.479487 575.178827 503.456410 575.677283 502.797436 576.175739 503.456410 576.674195 501.479487 577.172651 501.479487 577.671107 502.797436 578.169563 500.820513 578.668019 502.797436 579.166475 501.479487 579.664931 503.456410 580.163387 502.467949 580.661843 500.491026 581.160299 502.138462 581.658755 502.138462 582.157211 500.491026 582.655667 503.456410 583.154123 503.456410 583.652579 501.479487 584.151035 500.161538 584.649491 501.479487 585.147947 500.161538 585.646403 501.479487 586.144859 500.491026 586.643315 503.126923 587.141771 501.150000 587.640227 503.126923 588.138683 501.479487 588.637139 499.832051 589.135595 502.797436 589.634051 499.173077 590.132507 503.785897 590.630963 503.126923 591.129419 501.479487 591.627875 503.456410 592.126331 502.138462 592.624787 501.479487 593.123243 501.150000 593.621699 501.479487 594.120155 501.808974 594.618611 501.479487 595.117067 501.479487 595.615523 499.832051 596.113979 501.479487 596.612435 500.491026 597.110891 502.467949 597.609347 502.797436 598.107803 502.138462 598.606259 504.115385 599.104715 501.150000 599.603171 502.467949 600.101627 501.479487 600.600083 499.173077 601.098539 495.219231 601.596995 485.664103 602.095451 476.438462 602.593907 470.507692 603.092363 465.235897 603.590819 461.941026 604.089275 463.588462 604.587731 483.357692 605.086187 500.491026 605.584643 503.126923 606.083099 503.456410 606.581555 501.479487 607.080011 501.479487 607.578467 503.126923 608.076923 502.797436" /></g><g class="series serie-1 color-1"><path class="line reactive nofill" d="M11.923077 391.430769 L12.421214 483.357692 12.919510 487.970513 13.418126 452.385897 13.916582 451.397436 14.414878 464.576923 14.913494 443.160256 15.411785 463.588462 15.910391 438.876923 16.408847 431.628205 16.907453 431.957692 17.405609 464.576923 17.904215 429.651282 18.402521 469.189744 18.901127 438.547436 19.399583 443.819231 19.897890 464.247436 20.396495 445.466667 20.894951 431.957692 21.393407 456.998718 21.891714 446.455128 22.390319 486.982051 22.888775 430.639744 23.387231 464.576923 23.885687 436.570513 24.384143 448.102564 24.882450 443.819231 25.381055 465.565385 25.879362 462.929487 26.377967 449.420513 26.876423 451.726923 27.374879 452.715385 27.873186 457.657692 28.371791 431.628205 28.870098 434.264103 29.368554 456.998718 29.867159 423.391026 30.365615 429.651282 30.864071 442.171795 31.362378 461.941026 31.860983 425.697436 32.359788 423.720513 32.857746 452.385897 33.356351 454.362821 33.855156 344.643590 34.353413 367.707692 34.851869 384.182051 35.350524 312.353846 35.848781 391.760256 36.347237 374.626923 36.845892 385.500000 37.344149 374.956410 37.842605 380.887179 38.341260 363.094872 38.839367 406.257692 39.338172 298.185897 39.836778 345.961538 40.335084 341.019231 40.833341 373.638462 41.331996 334.429487 41.830253 372.650000 42.328908 356.175641 42.827364 353.869231 43.325820 346.950000 43.824426 299.833333 44.322732 311.365385 44.820989 380.228205 45.319644 337.394872 45.818250 269.520513 46.316706 269.520513 46.815012 365.071795 47.313468 349.256410 47.811924 316.966667 48.310380 328.498718 48.808836 332.123077 49.307292 314.660256 49.805748 380.228205 50.304204 364.412821 50.802660 352.221795 51.300917 371.661538 51.799373 365.730769 52.298028 366.719231 52.796484 357.164103 53.294940 348.597436 53.793546 339.701282 54.291852 355.187179 54.790308 387.476923 55.288764 342.666667 55.787021 388.794872 56.285477 368.696154 56.783933 397.032051 57.282389 378.251282 57.780695 431.957692 58.279500 362.765385 58.777956 367.707692 59.276412 331.793590 59.774868 361.776923 60.273275 332.782051 60.771731 396.702564 61.270187 318.614103 61.768643 329.487179 62.267099 390.112821 62.765555 374.956410 63.264011 328.498718 63.762467 328.498718 64.260923 372.650000 64.759379 384.182051 65.257835 360.458974 65.756291 363.753846 66.254747 379.898718 66.753203 376.603846 67.251659 330.475641 67.750115 322.238462 68.248571 395.055128 68.747027 377.592308 69.245483 354.528205 69.743939 411.858974 70.242395 351.562821 70.740851 363.094872 71.239307 372.650000 71.737763 284.017949 72.236219 309.388462 72.734675 318.614103 73.233131 254.693590 73.731587 277.098718 74.230043 352.551282 74.728499 293.902564 75.226955 273.474359 75.725411 352.880769 76.223867 319.932051 76.722323 347.279487 77.220779 319.273077 77.719235 358.811538 78.217691 293.243590 78.716147 364.412821 79.214603 336.735897 79.713059 347.608974 80.211515 304.775641 80.709971 371.002564 81.208427 328.828205 81.706883 336.076923 82.205339 334.758974 82.703795 313.671795 83.202251 362.765385 83.700707 360.458974 84.198664 400.656410 84.697619 386.817949 85.196075 313.671795 85.694531 336.076923 86.192987 347.608974 86.691443 365.401282 87.189899 338.383333 87.688355 344.643590 88.186811 329.157692 88.685267 328.828205 89.183723 287.971795 89.682179 338.383333 90.180635 376.603846 90.679091 327.839744 91.177547 303.457692 91.676003 367.378205 92.174459 360.458974 92.672915 334.758974 93.171371 365.071795 93.669827 346.620513 94.168283 346.620513 94.666739 311.694872 95.165195 358.152564 95.663651 315.978205 96.162107 332.123077 96.660563 339.371795 97.159019 342.337179 97.657475 399.008974 98.155931 332.452564 98.654387 363.753846 99.152843 315.978205 99.651299 314.660256 100.149755 348.267949 100.648211 339.371795 101.146667 326.521795 101.645123 291.266667 102.143579 345.961538 102.642035 254.034615 103.140491 260.294872 103.638947 275.780769 104.137403 250.410256 104.635859 323.556410 105.134315 271.167949 105.632771 286.653846 106.131227 220.097436 106.629683 141.679487 107.128139 326.521795 107.626595 310.376923 108.125051 254.693590 108.623507 444.807692 109.121963 448.761538 109.620419 438.217949 110.118875 311.035897 110.617331 371.661538 111.115787 342.337179 111.614243 339.042308 112.112699 317.296154 112.611155 322.567949 113.109611 321.250000 113.608067 291.925641 114.106523 353.539744 114.604979 402.303846 115.103435 347.608974 115.601891 322.567949 116.100347 308.400000 116.598803 323.885897 117.097259 379.898718 117.595715 317.625641 118.094171 320.591026 118.592627 355.187179 119.091083 327.180769 119.589539 286.983333 120.087995 244.808974 120.586451 385.829487 121.084907 354.198718 121.583363 368.696154 122.081819 319.602564 122.580275 286.324359 123.078731 264.907692 123.577187 381.546154 124.075643 295.879487 124.574099 344.973077 125.072555 348.267949 125.571011 320.261538 126.069467 367.048718 126.567923 356.834615 127.066379 281.382051 127.564835 356.834615 128.063291 319.932051 128.561747 342.666667 129.060203 297.526923 129.558659 282.370513 130.057115 254.034615 130.555571 337.065385 131.054027 383.193590 131.552483 372.320513 132.050939 331.134615 132.549395 301.151282 133.047851 258.647436 133.546307 295.879487 134.044763 356.505128 134.543219 367.048718 135.041675 315.319231 135.540131 342.337179 136.038587 319.602564 136.537043 308.400000 137.035499 293.902564 137.533955 309.058974 138.032411 247.115385 138.530867 228.993590 139.029323 282.370513 139.527779 340.689744 140.026235 255.352564 140.524691 266.555128 141.023147 323.226923 141.521603 289.619231 142.020059 343.655128 142.518515 364.742308 143.016971 354.198718 143.515427 330.146154 144.013883 343.325641 144.512339 334.758974 145.010796 350.574359 145.509252 302.469231 146.007708 238.548718 146.506164 287.312821 147.004620 321.250000 147.503076 368.366667 148.001532 340.030769 148.499988 274.462821 148.998444 337.065385 149.496900 306.093590 149.995356 315.978205 150.493812 290.278205 150.992268 346.291026 151.490724 293.243590 151.989180 330.805128 152.487636 303.787179 152.986092 291.925641 153.484548 333.441026 153.983004 328.498718 154.481460 329.157692 154.979916 377.262821 155.478372 329.487179 155.976828 348.267949 156.475284 315.648718 156.973740 364.742308 157.472196 312.024359 157.970652 332.782051 158.469108 352.221795 158.967564 343.984615 159.466020 298.844872 159.964476 266.225641 160.462932 329.157692 160.961388 329.487179 161.459844 307.082051 161.958300 331.464103 162.456756 346.620513 162.954713 390.771795 163.453668 299.833333 163.952124 337.065385 164.450580 377.262821 164.949036 347.279487 165.447492 341.678205 165.945948 252.716667 166.444404 313.671795 166.942860 358.152564 167.440817 402.962821 167.939772 315.648718 168.438228 273.474359 168.936684 357.164103 169.435140 347.608974 169.933596 300.492308 170.432052 370.343590 170.930508 314.330769 171.428964 350.244872 171.927420 342.666667 172.425876 339.371795 172.924332 390.771795 173.422788 417.130769 173.921244 316.966667 174.419700 325.862821 174.918156 279.734615 175.416612 306.093590 175.915068 350.574359 176.413524 300.162821 176.911980 329.816667 177.410436 298.844872 177.908892 362.435897 178.407348 290.607692 178.905804 315.978205 179.404260 285.335897 179.902716 323.556410 180.401172 344.643590 180.899628 294.891026 181.398084 268.202564 181.896540 343.655128 182.394996 318.284615 182.893452 306.423077 183.391908 285.665385 183.890364 357.164103 184.388820 293.243590 184.887276 347.279487 185.385732 360.129487 185.884188 320.261538 186.382644 305.105128 186.881100 334.429487 187.379556 339.042308 187.877514 417.460256 188.376468 302.469231 188.874924 194.397436 189.373380 328.169231 189.871836 328.169231 190.370292 328.498718 190.868748 333.111538 191.367204 339.371795 191.865660 324.215385 192.364116 338.053846 192.862572 293.243590 193.361028 333.111538 193.859484 332.782051 194.357940 399.667949 194.856396 382.864103 195.354852 303.128205 195.853308 343.325641 196.351764 333.770513 196.850220 340.030769 197.348676 339.371795 197.847132 284.347436 198.345588 328.498718 198.844044 326.851282 199.342500 286.983333 199.840956 352.221795 200.339412 359.470513 200.837868 337.724359 201.336324 360.458974 201.834780 373.967949 202.333236 355.187179 202.831692 297.197436 203.330148 315.319231 203.828604 334.758974 204.327060 299.833333 204.825516 316.637179 205.323972 343.984615 205.822428 316.966667 206.320884 252.057692 206.819340 337.394872 207.317796 349.915385 207.816252 348.267949 208.314708 299.503846 208.813164 326.192308 209.311620 367.378205 209.810076 322.897436 210.308532 302.798718 210.806988 283.029487 211.305444 300.821795 211.803900 340.360256 212.302356 308.070513 212.800812 322.897436 213.299268 288.960256 213.797724 356.834615 214.296180 338.383333 214.794636 301.810256 215.293092 307.082051 215.791548 355.516667 216.290004 352.221795 216.788460 313.671795 217.286916 267.214103 217.785372 307.411538 218.283828 321.250000 218.782284 327.180769 219.280740 327.510256 219.779196 268.202564 220.277652 237.230769 220.776108 341.348718 221.274564 342.337179 221.773020 330.146154 222.271476 338.053846 222.769932 347.938462 223.268388 365.730769 223.766844 315.648718 224.265300 228.664103 224.763756 297.856410 225.262212 341.019231 225.760668 295.879487 226.259124 406.916667 226.757580 370.343590 227.256036 299.833333 227.754492 292.914103 228.252948 368.696154 228.751404 363.753846 229.249860 369.025641 229.748316 310.706410 230.246772 366.389744 230.745228 336.076923 231.243684 294.891026 231.742140 350.574359 232.240596 312.353846 232.739052 311.365385 233.237508 311.365385 233.735964 382.205128 234.234420 328.498718 234.732876 312.683333 235.231332 334.100000 235.729789 290.278205 236.228245 344.973077 236.726701 337.394872 237.225157 316.307692 237.723613 304.775641 238.222069 336.076923 238.720525 316.637179 239.218981 284.676923 239.717437 357.493590 240.215893 364.083333 240.714349 353.210256 241.212805 363.753846 241.711261 345.302564 242.209717 329.487179 242.708173 320.920513 243.206629 245.797436 243.705085 291.925641 244.203541 324.544872 244.701997 350.244872 245.200453 360.129487 245.698909 322.897436 246.197365 357.164103 246.695821 308.070513 247.194277 355.846154 247.692733 290.278205 248.191189 340.030769 248.689645 315.978205 249.188101 310.376923 249.686557 289.948718 250.185013 319.602564 250.683469 350.574359 251.181925 344.643590 251.680381 335.088462 252.178837 258.976923 252.677293 341.019231 253.175749 323.226923 253.674205 285.665385 254.172661 374.626923 254.671117 370.343590 255.169573 327.510256 255.668029 335.417949 256.166485 382.864103 256.664941 355.187179 257.163397 284.676923 257.661853 294.561538 258.160309 387.806410 258.658765 335.088462 259.157221 359.141026 259.655677 268.532051 260.154133 337.724359 260.652589 343.655128 261.151045 333.770513 261.649501 332.452564 262.147957 312.024359 262.646413 326.521795 263.144869 371.002564 263.643325 320.261538 264.141781 385.500000 264.640237 318.284615 265.138693 294.891026 265.637149 278.746154 266.135605 351.562821 266.634061 349.585897 267.132517 379.569231 267.630973 294.561538 268.129429 268.861538 268.627885 322.238462 269.126341 224.051282 269.624797 350.244872 270.123253 352.221795 270.621709 291.266667 271.120165 316.307692 271.618621 379.239744 272.117077 299.833333 272.615533 334.758974 273.113989 380.887179 273.612445 302.469231 274.110901 302.139744 274.609357 353.539744 275.107813 409.552564 275.606269 380.887179 276.104725 388.465385 276.603181 303.787179 277.101637 333.111538 277.600093 380.887179 278.098549 300.821795 278.597005 331.793590 279.095461 318.284615 279.593917 268.202564 280.092373 324.874359 280.590829 299.503846 281.089285 294.561538 281.587741 351.892308 282.086197 330.146154 282.584653 281.711538 283.083109 322.897436 283.581565 342.666667 284.080021 287.971795 284.578477 329.157692 285.076933 307.411538 285.575389 363.094872 286.073845 290.937179 286.572301 259.965385 287.071256 359.800000 287.569213 309.388462 288.067669 279.734615 288.566125 333.441026 289.064581 348.267949 289.563037 279.075641 290.061992 303.457692 290.559949 312.353846 291.058405 314.330769 291.556861 315.648718 292.055317 294.561538 292.553773 338.712821 293.052229 378.580769 293.550685 396.373077 294.049141 287.971795 294.547099 377.262821 295.046053 347.608974 295.544509 240.525641 296.042965 349.915385 296.541421 349.915385 297.039877 300.492308 297.538333 326.851282 298.036789 346.620513 298.535245 340.030769 299.033701 337.065385 299.532157 321.579487 300.030613 298.844872 300.529069 342.666667 301.027525 335.088462 301.525981 304.446154 302.024437 304.775641 302.522893 354.857692 303.021349 321.908974 303.519805 346.620513 304.018261 329.816667 304.516717 353.869231 305.015173 329.487179 305.513629 330.146154 306.012085 330.805128 306.510541 375.615385 307.008997 349.585897 307.507453 301.151282 308.005909 321.908974 308.504365 294.561538 309.002821 351.562821 309.501277 357.164103 309.999733 312.683333 310.498189 346.291026 310.996645 282.041026 311.495101 317.955128 311.993557 281.711538 312.492013 264.248718 312.990469 360.458974 313.488925 309.058974 313.987381 341.019231 314.485837 272.485897 314.984293 323.885897 315.482749 322.897436 315.981205 385.829487 316.479661 308.729487 316.978117 328.498718 317.476573 369.684615 317.975029 365.730769 318.473485 298.844872 318.971941 366.060256 319.470397 359.800000 319.968853 373.967949 320.467309 336.076923 320.965765 320.591026 321.464221 366.060256 321.962677 326.521795 322.461133 322.238462 322.959589 359.470513 323.458045 300.162821 323.956501 367.048718 324.454957 343.655128 324.953413 255.682051 325.451869 340.689744 325.950326 280.064103 326.448782 368.037179 326.947238 388.465385 327.445694 365.730769 327.944150 345.302564 328.442606 377.592308 328.941062 333.441026 329.439518 297.526923 329.937974 366.719231 330.436430 353.539744 330.934886 318.284615 331.433342 329.487179 331.931798 307.082051 332.430254 345.961538 332.928710 309.717949 333.427166 305.434615 333.925622 273.144872 334.424078 314.660256 334.922534 339.371795 335.420990 305.434615 335.919446 313.671795 336.417902 345.961538 336.916358 256.011538 337.414814 325.862821 337.913270 334.100000 338.411726 279.405128 338.910182 327.510256 339.408638 284.676923 339.907094 249.421795 340.405550 254.693590 340.904006 217.132051 341.402462 276.110256 341.900918 271.497436 342.399374 387.806410 342.897830 283.688462 343.395787 458.316667 343.894243 432.287179 344.392699 425.038462 344.891654 271.826923 345.390110 372.650000 345.888566 359.141026 346.387022 320.261538 346.885478 333.111538 347.383934 331.134615 347.882390 297.526923 348.380846 318.943590 348.879302 308.070513 349.377758 370.014103 349.876214 353.539744 350.374670 397.361538 350.873126 278.746154 351.371582 308.729487 351.870038 316.307692 352.368494 323.885897 352.866950 357.164103 353.365406 292.255128 353.863862 327.180769 354.362318 379.239744 354.860774 307.082051 355.359230 341.019231 355.857686 342.007692 356.356142 333.770513 356.854598 266.225641 357.353054 330.805128 357.851510 354.528205 358.349966 318.284615 358.848422 304.116667 359.346878 338.383333 359.845334 343.984615 360.343790 231.629487 360.842246 315.648718 361.340702 342.996154 361.839158 331.793590 362.337614 348.926923 362.836070 324.874359 363.334526 315.319231 363.832982 354.857692 364.331438 326.192308 364.829894 341.348718 365.328350 320.591026 365.826806 317.625641 366.325262 342.666667 366.823718 298.185897 367.322174 338.053846 367.820630 310.376923 368.319086 362.106410 368.817542 305.764103 369.315998 283.029487 369.814454 288.960256 370.312910 342.337179 370.811366 292.914103 371.309822 316.307692 371.808278 362.106410 372.306734 248.103846 372.805190 171.992308 373.303646 381.216667 373.802102 354.857692 374.300558 351.892308 374.799014 358.482051 375.297470 340.360256 375.795926 284.347436 376.294382 271.167949 376.792838 296.538462 377.291294 329.816667 377.789750 321.579487 378.288206 383.852564 378.786662 318.943590 379.285118 375.285897 379.783574 351.233333 380.282030 310.706410 380.780486 372.650000 381.278942 291.925641 381.777398 312.683333 382.275854 313.012821 382.774310 242.173077 383.272766 310.706410 383.771222 362.106410 384.269678 324.544872 384.768134 299.174359 385.266590 328.169231 385.765046 324.874359 386.263502 285.006410 386.761958 334.758974 387.260414 299.174359 387.758870 298.844872 388.257326 314.660256 388.755782 278.746154 389.254238 310.047436 389.752694 351.892308 390.251150 314.660256 390.749606 277.757692 391.248062 347.279487 391.746518 351.233333 392.244974 271.167949 392.743430 334.429487 393.241886 326.521795 393.740342 246.126923 394.238798 289.948718 394.737254 341.678205 395.235710 332.452564 395.734166 353.210256 396.232622 329.487179 396.731078 349.915385 397.229534 317.625641 397.727990 286.983333 398.226446 305.764103 398.724902 329.816667 399.223358 308.729487 399.721814 343.984615 400.220270 274.462821 400.718726 323.885897 401.217182 355.187179 401.715638 353.869231 402.214094 366.719231 402.712550 295.220513 403.211006 334.100000 403.709462 376.933333 404.207918 349.915385 404.706374 316.307692 405.204830 322.567949 405.703286 377.592308 406.201742 344.314103 406.700198 373.308974 407.198654 304.446154 407.697110 359.470513 408.195566 328.828205 408.694022 287.971795 409.192478 290.607692 409.690934 324.215385 410.189390 347.608974 410.687846 364.083333 411.186302 272.485897 411.684758 326.521795 412.183214 360.788462 412.681670 342.666667 413.180126 354.198718 413.678582 332.123077 414.177038 363.424359 414.675494 259.306410 415.173950 284.676923 415.672406 284.676923 416.170862 299.833333 416.669319 262.271795 417.167775 323.556410 417.666231 284.017949 418.164687 245.467949 418.663143 312.024359 419.161599 353.539744 419.660055 328.828205 420.158511 307.741026 420.656967 333.441026 421.155423 314.660256 421.653879 333.111538 422.152335 330.805128 422.650791 382.534615 423.149247 326.192308 423.647703 378.251282 424.146159 374.956410 424.644615 334.100000 425.143071 351.892308 425.641527 335.088462 426.139983 337.394872 426.638439 364.742308 427.136396 372.979487 427.635351 323.556410 428.133807 277.428205 428.632263 412.188462 429.130719 328.828205 429.629175 359.141026 430.127631 367.707692 430.626087 329.816667 431.124543 392.089744 431.622999 353.539744 432.121455 387.476923 432.619911 332.123077 433.118367 336.076923 433.616823 380.557692 434.115279 351.562821 434.613735 319.932051 435.112191 337.724359 435.610647 372.650000 436.109103 370.673077 436.607559 311.365385 437.106015 322.238462 437.604471 327.839744 438.102927 347.279487 438.601383 336.735897 439.099839 297.856410 439.598295 368.037179 440.096751 361.117949 440.594708 418.119231 441.093663 340.689744 441.592119 366.719231 442.090575 339.042308 442.589031 322.238462 443.087487 320.261538 443.585943 330.146154 444.084399 250.410256 444.582855 239.866667 445.081311 284.017949 445.579767 256.670513 446.078223 334.429487 446.576679 230.641026 447.075135 281.382051 447.573591 284.676923 448.072047 330.475641 448.570503 364.412821 449.068959 321.579487 449.567415 383.523077 450.065871 365.071795 450.564327 342.666667 451.062783 373.638462 451.561239 332.452564 452.059695 340.689744 452.558151 347.279487 453.056607 354.198718 453.555063 317.296154 454.053519 342.996154 454.551975 285.006410 455.050431 349.915385 455.548887 256.670513 456.047343 338.053846 456.545799 361.776923 457.044255 296.208974 457.542711 363.424359 458.041167 336.735897 458.539623 360.458974 459.038079 370.343590 459.536535 345.961538 460.034991 273.803846 460.533447 330.475641 461.031903 375.944872 461.530359 362.765385 462.028815 284.676923 462.527271 288.630769 463.025727 360.458974 463.524183 360.129487 464.022639 319.932051 464.521095 329.816667 465.019551 369.025641 465.518007 325.203846 466.016463 343.325641 466.514919 341.348718 467.013375 369.684615 467.511831 353.869231 468.010287 330.475641 468.508743 339.701282 469.007199 302.798718 469.505655 219.108974 470.004111 344.973077 470.502567 324.215385 471.001023 219.108974 471.499479 298.515385 471.997935 339.701282 472.496391 306.752564 472.994847 360.129487 473.493303 344.973077 473.991759 311.035897 474.490215 310.376923 474.988671 328.169231 475.487127 331.464103 475.985583 354.198718 476.484039 344.973077 476.982495 359.141026 477.480951 338.053846 477.979407 354.857692 478.477863 338.712821 478.976319 367.378205 479.474775 393.407692 479.973231 314.001282 480.471687 293.243590 480.970143 266.225641 481.468599 292.255128 481.967055 323.885897 482.465511 343.984615 482.963967 258.317949 483.462423 326.192308 483.960879 326.192308 484.459335 329.487179 484.957791 351.562821 485.456247 350.903846 485.954703 362.435897 486.453159 331.134615 486.951615 303.787179 487.450071 312.353846 487.948527 347.279487 488.446983 284.676923 488.945439 296.208974 489.443895 357.164103 489.942351 353.869231 490.440807 304.775641 490.939263 302.798718 491.437719 342.007692 491.936175 308.070513 492.434631 368.366667 492.933087 373.308974 493.431543 381.546154 493.929999 360.129487 494.428455 295.220513 494.926911 324.544872 495.425367 357.823077 495.923823 304.775641 496.422279 325.862821 496.920735 338.383333 497.419191 289.948718 497.917647 361.117949 498.416103 343.984615 498.914559 337.394872 499.413015 337.394872 499.911471 273.144872 500.409927 267.543590 500.908383 345.302564 501.406839 323.885897 501.905295 357.493590 502.403751 326.851282 502.902207 329.487179 503.400663 336.735897 503.899119 298.515385 504.397575 343.984615 504.896031 367.707692 505.394487 372.320513 505.892943 359.141026 506.391399 363.753846 506.889856 343.655128 507.388312 297.197436 507.886768 380.228205 508.385224 287.642308 508.884178 317.625641 509.382634 376.603846 509.881090 352.221795 510.379546 338.053846 510.878002 372.650000 511.376458 338.712821 511.874914 336.076923 512.373370 305.764103 512.871826 396.043590 513.370282 322.897436 513.868738 266.225641 514.367194 294.232051 514.865650 298.185897 515.364106 365.071795 515.862562 322.567949 516.361018 326.192308 516.859474 351.562821 517.357930 309.388462 517.856386 322.567949 518.354842 247.774359 518.853298 351.562821 519.351754 292.255128 519.850210 323.226923 520.348666 340.030769 520.847122 340.030769 521.345578 350.244872 521.844034 375.944872 522.342490 343.984615 522.840946 334.758974 523.339402 316.307692 523.837858 324.874359 524.336314 263.919231 524.834770 304.775641 525.333226 310.047436 525.831682 394.396154 526.330138 365.730769 526.828594 312.353846 527.327050 304.446154 527.825506 319.273077 528.323962 346.291026 528.822418 339.701282 529.320874 337.724359 529.819330 350.574359 530.317786 323.226923 530.816242 389.453846 531.314698 339.371795 531.813154 302.798718 532.311610 290.937179 532.810066 297.526923 533.308522 349.915385 533.806978 349.256410 534.305434 343.984615 534.803890 325.533333 535.302346 326.851282 535.800802 385.500000 536.299258 277.428205 536.797714 350.903846 537.296170 314.001282 537.794626 352.551282 538.293082 316.307692 538.791538 391.101282 539.289994 347.279487 539.788450 344.643590 540.286906 311.694872 540.785362 345.632051 541.283818 311.365385 541.782274 320.261538 542.280730 365.730769 542.779186 338.712821 543.277642 343.325641 543.776098 328.169231 544.274554 339.371795 544.773010 268.532051 545.271466 302.798718 545.769922 330.146154 546.268378 352.221795 546.766834 367.707692 547.265290 265.566667 547.763746 349.256410 548.262202 343.984615 548.760658 287.312821 549.259114 335.088462 549.757570 328.169231 550.256026 375.285897 550.754482 270.179487 551.252938 278.746154 551.751394 378.251282 552.249850 315.978205 552.748306 382.205128 553.246762 303.457692 553.745218 382.534615 554.243674 349.915385 554.742130 243.491026 555.240586 243.491026 555.739042 339.701282 556.237499 388.465385 556.735955 297.197436 557.234411 269.850000 557.732867 259.635897 558.231323 328.828205 558.729779 307.411538 559.228235 345.302564 559.726691 346.291026 560.225147 397.032051 560.723603 346.950000 561.222059 290.278205 561.720515 382.864103 562.218971 297.197436 562.717427 343.984615 563.215883 343.655128 563.714339 369.684615 564.212795 279.405128 564.711251 329.487179 565.209707 332.782051 565.708163 366.389744 566.206619 319.602564 566.705075 278.087179 567.203531 317.955128 567.701987 322.897436 568.200443 376.274359 568.698899 345.632051 569.197355 303.457692 569.695811 339.371795 570.194267 290.607692 570.692723 318.284615 571.191179 322.897436 571.689635 354.528205 572.188091 241.184615 572.686547 363.094872 573.185003 331.793590 573.683459 308.070513 574.181915 301.480769 574.680371 322.567949 575.178827 338.053846 575.677283 352.880769 576.175739 369.355128 576.674195 338.383333 577.172651 327.510256 577.671107 323.226923 578.169563 354.198718 578.668019 394.725641 579.166475 301.480769 579.664931 350.244872 580.163387 352.880769 580.661843 300.492308 581.160299 316.637179 581.658755 322.897436 582.157211 297.197436 582.655667 356.175641 583.154123 356.175641 583.652579 276.439744 584.151035 366.719231 584.649491 319.602564 585.147947 302.139744 585.646403 338.712821 586.144859 316.966667 586.643315 332.452564 587.141771 281.052564 587.640227 367.707692 588.138683 314.330769 588.637139 320.261538 589.135595 326.851282 589.634051 328.828205 590.132507 331.464103 590.630963 319.932051 591.129419 305.105128 591.627875 399.997436 592.126331 363.753846 592.624787 301.151282 593.123243 371.991026 593.621699 320.920513 594.120155 337.065385 594.618611 303.787179 595.117067 313.342308 595.615523 294.561538 596.113979 299.503846 596.612435 301.480769 597.110891 365.401282 597.609347 339.701282 598.107803 392.748718 598.606259 377.262821 599.104715 288.960256 599.603171 321.250000 600.101627 290.937179 600.600083 240.196154 601.098539 209.224359 601.596995 161.119231 602.095451 216.143590 602.593907 235.583333 603.092363 236.571795 603.590819 263.589744 604.089275 347.279487 604.587731 423.061538 605.086187 437.888462 605.584643 418.448718 606.083099 430.969231 606.581555 289.289744 607.080011 359.470513 607.578467 372.650000 608.076923 355.187179" /></g><g class="series serie-2 color-2"><path class="line reactive nofill" d="M11.923077 174.628205 L12.421214 174.628205 12.919510 174.628205 13.418126 174.628205 13.916582 174.628205 14.414878 174.628205 14.913494 174.628205 15.411785 174.628205 15.910391 174.628205 16.408847 174.628205 16.907453 174.628205 17.405609 174.628205 17.904215 174.628205 18.402521 174.628205 18.901127 174.628205 19.399583 174.628205 19.897890 174.628205 20.396495 174.628205 20.894951 174.628205 21.393407 174.628205 21.891714 174.628205 22.390319 174.628205 22.888775 174.628205 23.387231 174.628205 23.885687 174.628205 24.384143 174.628205 24.882450 174.628205 25.381055 174.628205 25.879362 174.628205 26.377967 174.628205 26.876423 174.628205 27.374879 174.628205 27.873186 174.628205 28.371791 174.628205 28.870098 174.628205 29.368554 174.628205 29.867159 174.628205 30.365615 174.628205 30.864071 174.628205 31.362378 174.628205 31.860983 174.628205 32.359788 174.628205 32.857746 174.628205 33.356351 174.628205 33.855156 174.628205 34.353413 174.628205 34.851869 174.628205 35.350524 174.628205 35.848781 174.628205 36.347237 174.628205 36.845892 174.628205 37.344149 174.628205 37.842605 174.628205 38.341260 174.628205 38.839367 174.628205 39.338172 174.628205 39.836778 174.628205 40.335084 174.628205 40.833341 174.628205 41.331996 174.628205 41.830253 174.628205 42.328908 174.628205 42.827364 174.628205 43.325820 174.628205 43.824426 174.628205 44.322732 174.628205 44.820989 174.628205 45.319644 174.628205 45.818250 174.628205 46.316706 174.628205 46.815012 174.628205 47.313468 174.628205 47.811924 174.628205 48.310380 174.628205 48.808836 174.628205 49.307292 174.628205 49.805748 174.628205 50.304204 174.628205 50.802660 174.628205 51.300917 174.628205 51.799373 174.628205 52.298028 174.628205 52.796484 174.628205 53.294940 174.628205 53.793546 174.628205 54.291852 174.628205 54.790308 174.628205 55.288764 174.628205 55.787021 174.628205 56.285477 174.628205 56.783933 174.628205 57.282389 174.628205 57.780695 174.628205 58.279500 174.628205 58.777956 174.628205 59.276412 174.628205 59.774868 174.628205 60.273275 174.628205 60.771731 174.628205 61.270187 174.628205 61.768643 174.628205 62.267099 174.628205 62.765555 174.628205 63.264011 174.628205 63.762467 174.628205 64.260923 174.628205 64.759379 174.628205 65.257835 174.628205 65.756291 174.628205 66.254747 174.628205 66.753203 174.628205 67.251659 174.628205 67.750115 174.628205 68.248571 174.628205 68.747027 174.628205 69.245483 174.628205 69.743939 174.628205 70.242395 174.628205 70.740851 174.628205 71.239307 174.628205 71.737763 174.628205 72.236219 174.628205 72.734675 174.628205 73.233131 174.628205 73.731587 174.628205 74.230043 174.628205 74.728499 174.628205 75.226955 174.628205 75.725411 174.628205 76.223867 174.628205 76.722323 174.628205 77.220779 174.628205 77.719235 174.628205 78.217691 174.628205 78.716147 174.628205 79.214603 174.628205 79.713059 174.628205 80.211515 174.628205 80.709971 174.628205 81.208427 174.628205 81.706883 174.628205 82.205339 174.628205 82.703795 174.628205 83.202251 174.628205 83.700707 174.628205 84.198664 174.628205 84.697619 174.628205 85.196075 174.628205 85.694531 174.628205 86.192987 174.628205 86.691443 174.628205 87.189899 174.628205 87.688355 174.628205 88.186811 174.628205 88.685267 174.628205 89.183723 174.628205 89.682179 174.628205 90.180635 174.628205 90.679091 174.628205 91.177547 174.628205 91.676003 174.628205 92.174459 174.628205 92.672915 174.628205 93.171371 174.628205 93.669827 174.628205 94.168283 174.628205 94.666739 174.628205 95.165195 174.628205 95.663651 174.628205 96.162107 174.628205 96.660563 174.628205 97.159019 174.628205 97.657475 174.628205 98.155931 174.628205 98.654387 174.628205 99.152843 174.628205 99.651299 174.628205 100.149755 174.628205 100.648211 174.628205 101.146667 174.628205 101.645123 174.628205 102.143579 174.628205 102.642035 174.628205 103.140491 174.628205 103.638947 174.628205 104.137403 174.628205 104.635859 174.628205 105.134315 174.628205 105.632771 174.628205 106.131227 174.628205 106.629683 174.628205 107.128139 174.628205 107.626595 174.628205 108.125051 174.628205 108.623507 174.628205 109.121963 174.628205 109.620419 174.628205 110.118875 174.628205 110.617331 174.628205 111.115787 174.628205 111.614243 174.628205 112.112699 174.628205 112.611155 174.628205 113.109611 174.628205 113.608067 174.628205 114.106523 174.628205 114.604979 174.628205 115.103435 174.628205 115.601891 174.628205 116.100347 174.628205 116.598803 174.628205 117.097259 174.628205 117.595715 174.628205 118.094171 174.628205 118.592627 174.628205 119.091083 174.628205 119.589539 174.628205 120.087995 174.628205 120.586451 174.628205 121.084907 174.628205 121.583363 174.628205 122.081819 174.628205 122.580275 174.628205 123.078731 174.628205 123.577187 174.628205 124.075643 174.628205 124.574099 174.628205 125.072555 174.628205 125.571011 174.628205 126.069467 174.628205 126.567923 174.628205 127.066379 174.628205 127.564835 174.628205 128.063291 174.628205 128.561747 174.628205 129.060203 174.628205 129.558659 174.628205 130.057115 174.628205 130.555571 174.628205 131.054027 174.628205 131.552483 174.628205 132.050939 174.628205 132.549395 174.628205 133.047851 174.628205 133.546307 174.628205 134.044763 174.628205 134.543219 174.628205 135.041675 174.628205 135.540131 174.628205 136.038587 174.628205 136.537043 174.628205 137.035499 174.628205 137.533955 174.628205 138.032411 174.628205 138.530867 174.628205 139.029323 174.628205 139.527779 174.628205 140.026235 174.628205 140.524691 174.628205 141.023147 174.628205 141.521603 174.628205 142.020059 174.628205 142.518515 174.628205 143.016971 174.628205 143.515427 174.628205 144.013883 174.628205 144.512339 174.628205 145.010796 174.628205 145.509252 174.628205 146.007708 174.628205 146.506164 174.628205 147.004620 174.628205 147.503076 174.628205 148.001532 174.628205 148.499988 174.628205 148.998444 174.628205 149.496900 174.628205 149.995356 174.628205 150.493812 174.628205 150.992268 174.628205 151.490724 174.628205 151.989180 174.628205 152.487636 174.628205 152.986092 174.628205 153.484548 174.628205 153.983004 174.628205 154.481460 174.628205 154.979916 174.628205 155.478372 174.628205 155.976828 174.628205 156.475284 174.628205 156.973740 174.628205 157.472196 174.628205 157.970652 174.628205 158.469108 174.628205 158.967564 174.628205 159.466020 174.628205 159.964476 174.628205 160.462932 174.628205 160.961388 174.628205 161.459844 174.628205 161.958300 174.628205 162.456756 174.628205 162.954713 174.628205 163.453668 174.628205 163.952124 174.628205 164.450580 174.628205 164.949036 174.628205 165.447492 174.628205 165.945948 174.628205 166.444404 174.628205 166.942860 174.628205 167.440817 174.628205 167.939772 174.628205 168.438228 174.628205 168.936684 174.628205 169.435140 174.628205 169.933596 174.628205 170.432052 174.628205 170.930508 174.628205 171.428964 174.628205 171.927420 174.628205 172.425876 174.628205 172.924332 174.628205 173.422788 174.628205 173.921244 174.628205 174.419700 174.628205 174.918156 174.628205 175.416612 174.628205 175.915068 174.628205 176.413524 174.628205 176.911980 174.628205 177.410436 174.628205 177.908892 174.628205 178.407348 174.628205 178.905804 174.628205 179.404260 174.628205 179.902716 174.628205 180.401172 174.628205 180.899628 174.628205 181.398084 174.628205 181.896540 174.628205 182.394996 174.628205 182.893452 174.628205 183.391908 174.628205 183.890364 174.628205 184.388820 174.628205 184.887276 174.628205 185.385732 174.628205 185.884188 174.628205 186.382644 174.628205 186.881100 174.628205 187.379556 174.628205 187.877514 174.628205 188.376468 174.628205 188.874924 174.628205 189.373380 174.628205 189.871836 174.628205 190.370292 174.628205 190.868748 174.628205 191.367204 174.628205 191.865660 174.628205 192.364116 174.628205 192.862572 174.628205 193.361028 174.628205 193.859484 174.628205 194.357940 174.628205 194.856396 174.628205 195.354852 174.628205 195.853308 174.628205 196.351764 174.628205 196.850220 174.628205 197.348676 174.628205 197.847132 174.628205 198.345588 174.628205 198.844044 174.628205 199.342500 174.628205 199.840956 174.628205 200.339412 174.628205 200.837868 174.628205 201.336324 174.628205 201.834780 174.628205 202.333236 174.628205 202.831692 174.628205 203.330148 174.628205 203.828604 174.628205 204.327060 174.628205 204.825516 174.628205 205.323972 174.628205 205.822428 174.628205 206.320884 174.628205 206.819340 174.628205 207.317796 174.628205 207.816252 174.628205 208.314708 174.628205 208.813164 174.628205 209.311620 174.628205 209.810076 174.628205 210.308532 174.628205 210.806988 174.628205 211.305444 174.628205 211.803900 174.628205 212.302356 174.628205 212.800812 174.628205 213.299268 174.628205 213.797724 174.628205 214.296180 174.628205 214.794636 174.628205 215.293092 174.628205 215.791548 174.628205 216.290004 174.628205 216.788460 174.628205 217.286916 174.628205 217.785372 174.628205 218.283828 174.628205 218.782284 174.628205 219.280740 174.628205 219.779196 174.628205 220.277652 174.628205 220.776108 174.628205 221.274564 174.628205 221.773020 174.628205 222.271476 174.628205 222.769932 174.628205 223.268388 174.628205 223.766844 174.628205 224.265300 174.628205 224.763756 174.628205 225.262212 174.628205 225.760668 174.628205 226.259124 174.628205 226.757580 174.628205 227.256036 174.628205 227.754492 174.628205 228.252948 174.628205 228.751404 174.628205 229.249860 174.628205 229.748316 174.628205 230.246772 174.628205 230.745228 174.628205 231.243684 174.628205 231.742140 174.628205 232.240596 174.628205 232.739052 174.628205 233.237508 174.628205 233.735964 174.628205 234.234420 174.628205 234.732876 174.628205 235.231332 174.628205 235.729789 174.628205 236.228245 174.628205 236.726701 174.628205 237.225157 174.628205 237.723613 174.628205 238.222069 174.628205 238.720525 174.628205 239.218981 174.628205 239.717437 174.628205 240.215893 174.628205 240.714349 174.628205 241.212805 174.628205 241.711261 174.628205 242.209717 174.628205 242.708173 174.628205 243.206629 174.628205 243.705085 174.628205 244.203541 174.628205 244.701997 174.628205 245.200453 174.628205 245.698909 174.628205 246.197365 174.628205 246.695821 174.628205 247.194277 174.628205 247.692733 174.628205 248.191189 174.628205 248.689645 174.628205 249.188101 174.628205 249.686557 174.628205 250.185013 174.628205 250.683469 174.628205 251.181925 174.628205 251.680381 174.628205 252.178837 174.628205 252.677293 174.628205 253.175749 174.628205 253.674205 174.628205 254.172661 174.628205 254.671117 174.628205 255.169573 174.628205 255.668029 174.628205 256.166485 174.628205 256.664941 174.628205 257.163397 174.628205 257.661853 174.628205 258.160309 174.628205 258.658765 174.628205 259.157221 174.628205 259.655677 174.628205 260.154133 174.628205 260.652589 174.628205 261.151045 174.628205 261.649501 174.628205 262.147957 174.628205 262.646413 174.628205 263.144869 174.628205 263.643325 174.628205 264.141781 174.628205 264.640237 174.628205 265.138693 174.628205 265.637149 174.628205 266.135605 174.628205 266.634061 174.628205 267.132517 174.628205 267.630973 174.628205 268.129429 174.628205 268.627885 174.628205 269.126341 174.628205 269.624797 174.628205 270.123253 174.628205 270.621709 174.628205 271.120165 174.628205 271.618621 174.628205 272.117077 174.628205 272.615533 174.628205 273.113989 174.628205 273.612445 174.628205 274.110901 174.628205 274.609357 174.628205 275.107813 174.628205 275.606269 174.628205 276.104725 174.628205 276.603181 174.628205 277.101637 174.628205 277.600093 174.628205 278.098549 174.628205 278.597005 174.628205 279.095461 174.628205 279.593917 174.628205 280.092373 174.628205 280.590829 174.628205 281.089285 174.628205 281.587741 174.628205 282.086197 174.628205 282.584653 174.628205 283.083109 174.628205 283.581565 174.628205 284.080021 174.628205 284.578477 174.628205 285.076933 174.628205 285.575389 174.628205 286.073845 174.628205 286.572301 174.628205 287.071256 174.628205 287.569213 174.628205 288.067669 174.628205 288.566125 174.628205 289.064581 174.628205 289.563037 174.628205 290.061992 174.628205 290.559949 174.628205 291.058405 174.628205 291.556861 174.628205 292.055317 174.628205 292.553773 174.628205 293.052229 174.628205 293.550685 174.628205 294.049141 174.628205 294.547099 174.628205 295.046053 174.628205 295.544509 174.628205 296.042965 174.628205 296.541421 174.628205 297.039877 174.628205 297.538333 174.628205 298.036789 174.628205 298.535245 174.628205 299.033701 174.628205 299.532157 174.628205 300.030613 174.628205 300.529069 174.628205 301.027525 174.628205 301.525981 174.628205 302.024437 174.628205 302.522893 174.628205 303.021349 174.628205 303.519805 174.628205 304.018261 174.628205 304.516717 174.628205 305.015173 174.628205 305.513629 174.628205 306.012085 174.628205 306.510541 174.628205 307.008997 174.628205 307.507453 174.628205 308.005909 174.628205 308.504365 174.628205 309.002821 174.628205 309.501277 174.628205 309.999733 174.628205 310.498189 174.628205 310.996645 174.628205 311.495101 174.628205 311.993557 174.628205 312.492013 174.628205 312.990469 174.628205 313.488925 174.628205 313.987381 174.628205 314.485837 174.628205 314.984293 174.628205 315.482749 174.628205 315.981205 174.628205 316.479661 174.628205 316.978117 174.628205 317.476573 174.628205 317.975029 174.628205 318.473485 174.628205 318.971941 174.628205 319.470397 174.628205 319.968853 174.628205 320.467309 174.628205 320.965765 174.628205 321.464221 174.628205 321.962677 174.628205 322.461133 174.628205 322.959589 174.628205 323.458045 174.628205 323.956501 174.628205 324.454957 174.628205 324.953413 174.628205 325.451869 174.628205 325.950326 174.628205 326.448782 174.628205 326.947238 174.628205 327.445694 174.628205 327.944150 174.628205 328.442606 174.628205 328.941062 174.628205 329.439518 174.628205 329.937974 174.628205 330.436430 174.628205 330.934886 174.628205 331.433342 174.628205 331.931798 174.628205 332.430254 174.628205 332.928710 174.628205 333.427166 174.628205 333.925622 174.628205 334.424078 174.628205 334.922534 174.628205 335.420990 174.628205 335.919446 174.628205 336.417902 174.628205 336.916358 174.628205 337.414814 174.628205 337.913270 174.628205 338.411726 174.628205 338.910182 174.628205 339.408638 174.628205 339.907094 174.628205 340.405550 174.628205 340.904006 174.628205 341.402462 174.628205 341.900918 174.628205 342.399374 174.628205 342.897830 174.628205 343.395787 174.628205 343.894243 174.628205 344.392699 174.628205 344.891654 174.628205 345.390110 174.628205 345.888566 174.628205 346.387022 174.628205 346.885478 174.628205 347.383934 174.628205 347.882390 174.628205 348.380846 174.628205 348.879302 174.628205 349.377758 174.628205 349.876214 174.628205 350.374670 174.628205 350.873126 174.628205 351.371582 174.628205 351.870038 174.628205 352.368494 174.628205 352.866950 174.628205 353.365406 174.628205 353.863862 174.628205 354.362318 174.628205 354.860774 174.628205 355.359230 174.628205 355.857686 174.628205 356.356142 174.628205 356.854598 174.628205 357.353054 174.628205 357.851510 174.628205 358.349966 174.628205 358.848422 174.628205 359.346878 174.628205 359.845334 174.628205 360.343790 174.628205 360.842246 174.628205 361.340702 174.628205 361.839158 174.628205 362.337614 174.628205 362.836070 174.628205 363.334526 174.628205 363.832982 174.628205 364.331438 174.628205 364.829894 174.628205 365.328350 174.628205 365.826806 174.628205 366.325262 174.628205 366.823718 174.628205 367.322174 174.628205 367.820630 174.628205 368.319086 174.628205 368.817542 174.628205 369.315998 174.628205 369.814454 174.628205 370.312910 174.628205 370.811366 174.628205 371.309822 174.628205 371.808278 174.628205 372.306734 174.628205 372.805190 174.628205 373.303646 174.628205 373.802102 174.628205 374.300558 174.628205 374.799014 174.628205 375.297470 174.628205 375.795926 174.628205 376.294382 174.628205 376.792838 174.628205 377.291294 174.628205 377.789750 174.628205 378.288206 174.628205 378.786662 174.628205 379.285118 174.628205 379.783574 174.628205 380.282030 174.628205 380.780486 174.628205 381.278942 174.628205 381.777398 174.628205 382.275854 174.628205 382.774310 174.628205 383.272766 174.628205 383.771222 174.628205 384.269678 174.628205 384.768134 174.628205 385.266590 174.628205 385.765046 174.628205 386.263502 174.628205 386.761958 174.628205 387.260414 174.628205 387.758870 174.628205 388.257326 174.628205 388.755782 174.628205 389.254238 174.628205 389.752694 174.628205 390.251150 174.628205 390.749606 174.628205 391.248062 174.628205 391.746518 174.628205 392.244974 174.628205 392.743430 174.628205 393.241886 174.628205 393.740342 174.628205 394.238798 174.628205 394.737254 174.628205 395.235710 174.628205 395.734166 174.628205 396.232622 174.628205 396.731078 174.628205 397.229534 174.628205 397.727990 174.628205 398.226446 174.628205 398.724902 174.628205 399.223358 174.628205 399.721814 174.628205 400.220270 174.628205 400.718726 174.628205 401.217182 174.628205 401.715638 174.628205 402.214094 174.628205 402.712550 174.628205 403.211006 174.628205 403.709462 174.628205 404.207918 174.628205 404.706374 174.628205 405.204830 174.628205 405.703286 174.628205 406.201742 174.628205 406.700198 174.628205 407.198654 174.628205 407.697110 174.628205 408.195566 174.628205 408.694022 174.628205 409.192478 174.628205 409.690934 174.628205 410.189390 174.628205 410.687846 174.628205 411.186302 174.628205 411.684758 174.628205 412.183214 174.628205 412.681670 174.628205 413.180126 174.628205 413.678582 174.628205 414.177038 174.628205 414.675494 174.628205 415.173950 174.628205 415.672406 174.628205 416.170862 174.628205 416.669319 174.628205 417.167775 174.628205 417.666231 174.628205 418.164687 174.628205 418.663143 174.628205 419.161599 174.628205 419.660055 174.628205 420.158511 174.628205 420.656967 174.628205 421.155423 174.628205 421.653879 174.628205 422.152335 174.628205 422.650791 174.628205 423.149247 174.628205 423.647703 174.628205 424.146159 174.628205 424.644615 174.628205 425.143071 174.628205 425.641527 174.628205 426.139983 174.628205 426.638439 174.628205 427.136396 174.628205 427.635351 174.628205 428.133807 174.628205 428.632263 174.628205 429.130719 174.628205 429.629175 174.628205 430.127631 174.628205 430.626087 174.628205 431.124543 174.628205 431.622999 174.628205 432.121455 174.628205 432.619911 174.628205 433.118367 174.628205 433.616823 174.628205 434.115279 174.628205 434.613735 174.628205 435.112191 174.628205 435.610647 174.628205 436.109103 174.628205 436.607559 174.628205 437.106015 174.628205 437.604471 174.628205 438.102927 174.628205 438.601383 174.628205 439.099839 174.628205 439.598295 174.628205 440.096751 174.628205 440.594708 174.628205 441.093663 174.628205 441.592119 174.628205 442.090575 174.628205 442.589031 174.628205 443.087487 174.628205 443.585943 174.628205 444.084399 174.628205 444.582855 174.628205 445.081311 174.628205 445.579767 174.628205 446.078223 174.628205 446.576679 174.628205 447.075135 174.628205 447.573591 174.628205 448.072047 174.628205 448.570503 174.628205 449.068959 174.628205 449.567415 174.628205 450.065871 174.628205 450.564327 174.628205 451.062783 174.628205 451.561239 174.628205 452.059695 174.628205 452.558151 174.628205 453.056607 174.628205 453.555063 174.628205 454.053519 174.628205 454.551975 174.628205 455.050431 174.628205 455.548887 174.628205 456.047343 174.628205 456.545799 174.628205 457.044255 174.628205 457.542711 174.628205 458.041167 174.628205 458.539623 174.628205 459.038079 174.628205 459.536535 174.628205 460.034991 174.628205 460.533447 174.628205 461.031903 174.628205 461.530359 174.628205 462.028815 174.628205 462.527271 174.628205 463.025727 174.628205 463.524183 174.628205 464.022639 174.628205 464.521095 174.628205 465.019551 174.628205 465.518007 174.628205 466.016463 174.628205 466.514919 174.628205 467.013375 174.628205 467.511831 174.628205 468.010287 174.628205 468.508743 174.628205 469.007199 174.628205 469.505655 174.628205 470.004111 174.628205 470.502567 174.628205 471.001023 174.628205 471.499479 174.628205 471.997935 174.628205 472.496391 174.628205 472.994847 174.628205 473.493303 174.628205 473.991759 174.628205 474.490215 174.628205 474.988671 174.628205 475.487127 174.628205 475.985583 174.628205 476.484039 174.628205 476.982495 174.628205 477.480951 174.628205 477.979407 174.628205 478.477863 174.628205 478.976319 174.628205 479.474775 174.628205 479.973231 174.628205 480.471687 174.628205 480.970143 174.628205 481.468599 174.628205 481.967055 174.628205 482.465511 174.628205 482.963967 174.628205 483.462423 174.628205 483.960879 174.628205 484.459335 174.628205 484.957791 174.628205 485.456247 174.628205 485.954703 174.628205 486.453159 174.628205 486.951615 174.628205 487.450071 174.628205 487.948527 174.628205 488.446983 174.628205 488.945439 174.628205 489.443895 174.628205 489.942351 174.628205 490.440807 174.628205 490.939263 174.628205 491.437719 174.628205 491.936175 174.628205 492.434631 174.628205 492.933087 174.628205 493.431543 174.628205 493.929999 174.628205 494.428455 174.628205 494.926911 174.628205 495.425367 174.628205 495.923823 174.628205 496.422279 174.628205 496.920735 174.628205 497.419191 174.628205 497.917647 174.628205 498.416103 174.628205 498.914559 174.628205 499.413015 174.628205 499.911471 174.628205 500.409927 174.628205 500.908383 174.628205 501.406839 174.628205 501.905295 174.628205 502.403751 174.628205 502.902207 174.628205 503.400663 174.628205 503.899119 174.628205 504.397575 174.628205 504.896031 174.628205 505.394487 174.628205 505.892943 174.628205 506.391399 174.628205 506.889856 174.628205 507.388312 174.628205 507.886768 174.628205 508.385224 174.628205 508.884178 174.628205 509.382634 174.628205 509.881090 174.628205 510.379546 174.628205 510.878002 174.628205 511.376458 174.628205 511.874914 174.628205 512.373370 174.628205 512.871826 174.628205 513.370282 174.628205 513.868738 174.628205 514.367194 174.628205 514.865650 174.628205 515.364106 174.628205 515.862562 174.628205 516.361018 174.628205 516.859474 174.628205 517.357930 174.628205 517.856386 174.628205 518.354842 174.628205 518.853298 174.628205 519.351754 174.628205 519.850210 174.628205 520.348666 174.628205 520.847122 174.628205 521.345578 174.628205 521.844034 174.628205 522.342490 174.628205 522.840946 174.628205 523.339402 174.628205 523.837858 174.628205 524.336314 174.628205 524.834770 174.628205 525.333226 174.628205 525.831682 174.628205 526.330138 174.628205 526.828594 174.628205 527.327050 174.628205 527.825506 174.628205 528.323962 174.628205 528.822418 174.628205 529.320874 174.628205 529.819330 174.628205 530.317786 174.628205 530.816242 174.628205 531.314698 174.628205 531.813154 174.628205 532.311610 174.628205 532.810066 174.628205 533.308522 174.628205 533.806978 174.628205 534.305434 174.628205 534.803890 174.628205 535.302346 174.628205 535.800802 174.628205 536.299258 174.628205 536.797714 174.628205 537.296170 174.628205 537.794626 174.628205 538.293082 174.628205 538.791538 174.628205 539.289994 174.628205 539.788450 174.628205 540.286906 174.628205 540.785362 174.628205 541.283818 174.628205 541.782274 174.628205 542.280730 174.628205 542.779186 174.628205 543.277642 174.628205 543.776098 174.628205 544.274554 174.628205 544.773010 174.628205 545.271466 174.628205 545.769922 174.628205 546.268378 174.628205 546.766834 174.628205 547.265290 174.628205 547.763746 174.628205 548.262202 174.628205 548.760658 174.628205 549.259114 174.628205 549.757570 174.628205 550.256026 174.628205 550.754482 174.628205 551.252938 174.628205 551.751394 174.628205 552.249850 174.628205 552.748306 174.628205 553.246762 174.628205 553.745218 174.628205 554.243674 174.628205 554.742130 174.628205 555.240586 174.628205 555.739042 174.628205 556.237499 174.628205 556.735955 174.628205 557.234411 174.628205 557.732867 174.628205 558.231323 174.628205 558.729779 174.628205 559.228235 174.628205 559.726691 174.628205 560.225147 174.628205 560.723603 174.628205 561.222059 174.628205 561.720515 174.628205 562.218971 174.628205 562.717427 174.628205 563.215883 174.628205 563.714339 174.628205 564.212795 174.628205 564.711251 174.628205 565.209707 174.628205 565.708163 174.628205 566.206619 174.628205 566.705075 174.628205 567.203531 174.628205 567.701987 174.628205 568.200443 174.628205 568.698899 174.628205 569.197355 174.628205 569.695811 174.628205 570.194267 174.628205 570.692723 174.628205 571.191179 174.628205 571.689635 174.628205 572.188091 174.628205 572.686547 174.628205 573.185003 174.628205 573.683459 174.628205 574.181915 174.628205 574.680371 174.628205 575.178827 174.628205 575.677283 174.628205 576.175739 174.628205 576.674195 174.628205 577.172651 174.628205 577.671107 174.628205 578.169563 174.628205 578.668019 174.628205 579.166475 174.628205 579.664931 174.628205 580.163387 174.628205 580.661843 174.628205 581.160299 174.628205 581.658755 174.628205 582.157211 174.628205 582.655667 174.628205 583.154123 174.628205 583.652579 174.628205 584.151035 174.628205 584.649491 174.628205 585.147947 174.628205 585.646403 174.628205 586.144859 174.628205 586.643315 174.628205 587.141771 174.628205 587.640227 174.628205 588.138683 174.628205 588.637139 174.628205 589.135595 174.628205 589.634051 174.628205 590.132507 174.628205 590.630963 174.628205 591.129419 174.628205 591.627875 174.628205 592.126331 174.628205 592.624787 174.628205 593.123243 174.628205 593.621699 174.628205 594.120155 174.628205 594.618611 174.628205 595.117067 174.628205 595.615523 174.628205 596.113979 174.628205 596.612435 174.628205 597.110891 174.628205 597.609347 174.628205 598.107803 174.628205 598.606259 174.628205 599.104715 174.628205 599.603171 174.628205 600.101627 174.628205 600.600083 174.628205 601.098539 174.628205 601.596995 174.628205 602.095451 174.628205 602.593907 174.628205 603.092363 174.628205 603.590819 174.628205 604.089275 174.628205 604.587731 174.628205 605.086187 174.628205 605.584643 174.628205 606.083099 174.628205 606.581555 174.628205 607.080011 174.628205 607.578467 174.628205 608.076923 174.628205" /></g></g><g class="titles"><text class="title" x="470.0" y="580">udp_1000kbps</text></g><g class="plot overlay" transform="translate(160, 20)"><g class="series serie-0 color-0" /><g class="series serie-1 color-1" /><g class="series serie-2 color-2" /></g><g class="plot text-overlay" transform="translate(160, 20)"><g class="series serie-0 color-0" /><g class="series serie-1 color-1" /><g class="series serie-2 color-2" /></g><g class="plot tooltip-overlay" transform="translate(160, 20)"><g class="tooltip" style="opacity: 0" transform="translate(0 0)"><rect class="tooltip-box" height="0" rx="0" ry="0" width="0" /><g class="text" /></g></g><g class="legends" transform="translate(10, 30)"><g class="legend reactive activate-serie" id="activate-serie-0"><rect class="color-0 reactive" height="12" width="12" x="0.0" y="1.0" /><text x="17.0" y="11.2">qdelay</text></g><g class="legend reactive activate-serie" id="activate-serie-1"><rect class="color-1 reactive" height="12" width="12" x="0.0" y="22.0" /><text x="17.0" y="32.2">txed(kbps)</text></g><g class="legend reactive activate-serie" id="activate-serie-2"><rect class="color-2 reactive" height="12" width="12" x="0.0" y="43.0" /><text x="17.0" y="53.2">topo(kbps)</text></g></g><g class="legends" transform="translate(790, 30)" /></g></svg>