<?xml version='1.0' encoding='utf-8'?>
<svg xmlns:xlink="http://www.w3.org/1999/xlink" class="pygal-chart" id="chart-1abada81-49af-497e-bcdc-48e10b1efbd2" viewBox="0 0 800 600" xmlns="http://www.w3.org/2000/svg"><!--Generated with pygal 2.4.0 (etree) ©Kozea 2012-2016 on 2019-09-27--><!--http://pygal.org--><!--http://github.com/Kozea/pygal--><defs><style type="text/css">#chart-1abada81-49af-497e-bcdc-48e10b1efbd2{-webkit-user-select:none;-webkit-font-smoothing:antialiased;font-family:Consolas,"Liberation Mono",Menlo,Courier,monospace}#chart-1abada81-49af-497e-bcdc-48e10b1efbd2 .title{font-family:Consolas,"Liberation Mono",Menlo,Courier,monospace;font-size:16px}#chart-1abada81-49af-497e-bcdc-48e10b1efbd2 .legends .legend text{font-family:Consolas,"Liberation Mono",Menlo,Courier,monospace;font-size:14px}#chart-1abada81-49af-497e-bcdc-48e10b1efbd2 .axis text{font-family:Consolas,"Liberation Mono",Menlo,Courier,monospace;font-size:10px}#chart-1abada81-49af-497e-bcdc-48e10b1efbd2 .axis text.major{font-family:Consolas,"Liberation Mono",Menlo,Courier,monospace;font-size:10px}#chart-1abada81-49af-497e-bcdc-48e10b1efbd2 .text-overlay text.value{font-family:Consolas,"Liberation Mono",Menlo,Courier,monospace;font-size:16px}#chart-1abada81-49af-497e-bcdc-48e10b1efbd2 .text-overlay text.label{font-family:Consolas,"Liberation Mono",Menlo,Courier,monospace;font-size:10px}#chart-1abada81-49af-497e-bcdc-48e10b1efbd2 .tooltip{font-family:Consolas,"Liberation Mono",Menlo,Courier,monospace;font-size:14px}#chart-1abada81-49af-497e-bcdc-48e10b1efbd2 text.no_data{font-family:Consolas,"Liberation Mono",Menlo,Courier,monospace;font-size:64px}
#chart-1abada81-49af-497e-bcdc-48e10b1efbd2{background-color:transparent}#chart-1abada81-49af-497e-bcdc-48e10b1efbd2 path,#chart-1abada81-49af-497e-bcdc-48e10b1efbd2 line,#chart-1abada81-49af-497e-bcdc-48e10b1efbd2 rect,#chart-1abada81-49af-497e-bcdc-48e10b1efbd2 circle{-webkit-transition:100ms ease-in;-moz-transition:100ms ease-in;transition:100ms ease-in}#chart-1abada81-49af-497e-bcdc-48e10b1efbd2 .graph &gt; .background{fill:transparent}#chart-1abada81-49af-497e-bcdc-48e10b1efbd2 .plot &gt; .background{fill:transparent}#chart-1abada81-49af-497e-bcdc-48e10b1efbd2 .graph{fill:#000000}#chart-1abada81-49af-497e-bcdc-48e10b1efbd2 text.no_data{fill:#000000}#chart-1abada81-49af-497e-bcdc-48e10b1efbd2 .title{fill:#000000}#chart-1abada81-49af-497e-bcdc-48e10b1efbd2 .legends .legend text{fill:#000000}#chart-1abada81-49af-497e-bcdc-48e10b1efbd2 .legends .legend:hover text{fill:#000000}#chart-1abada81-49af-497e-bcdc-48e10b1efbd2 .axis .line{stroke:#000000}#chart-1abada81-49af-497e-bcdc-48e10b1efbd2 .axis .guide.line{stroke:#006400d}#chart-1abada81-49af-497e-bcdc-48e10b1efbd2 .axis .major.line{stroke:#000000}#chart-1abada81-49af-497e-bcdc-48e10b1efbd2 .axis text.major{fill:#000000}#chart-1abada81-49af-497e-bcdc-48e10b1efbd2 .axis.y .guides:hover .guide.line,#chart-1abada81-49af-497e-bcdc-48e10b1efbd2 .line-graph .axis.x .guides:hover .guide.line,#chart-1abada81-49af-497e-bcdc-48e10b1efbd2 .stackedline-graph .axis.x .guides:hover .guide.line,#chart-1abada81-49af-497e-bcdc-48e10b1efbd2 .xy-graph .axis.x .guides:hover .guide.line{stroke:#000000}#chart-1abada81-49af-497e-bcdc-48e10b1efbd2 .axis .guides:hover text{fill:#000000}#chart-1abada81-49af-497e-bcdc-48e10b1efbd2 .reactive{fill-opacity:.6;stroke-opacity:.8}#chart-1abada81-49af-497e-bcdc-48e10b1efbd2 .ci{stroke:#000000}#chart-1abada81-49af-497e-bcdc-48e10b1efbd2 .reactive.active,#chart-1abada81-49af-497e-bcdc-48e10b1efbd2 .active .reactive{fill-opacity:.9;stroke-opacity:.9;stroke-width:4}#chart-1abada81-49af-497e-bcdc-48e10b1efbd2 .ci .reactive.active{stroke-width:1.5}#chart-1abada81-49af-497e-bcdc-48e10b1efbd2 .series text{fill:#000000}#chart-1abada81-49af-497e-bcdc-48e10b1efbd2 .tooltip rect{fill:transparent;stroke:#000000;-webkit-transition:opacity 100ms ease-in;-moz-transition:opacity 100ms ease-in;transition:opacity 100ms ease-in}#chart-1abada81-49af-497e-bcdc-48e10b1efbd2 .tooltip .label{fill:#000000}#chart-1abada81-49af-497e-bcdc-48e10b1efbd2 .tooltip .label{fill:#000000}#chart-1abada81-49af-497e-bcdc-48e10b1efbd2 .tooltip .legend{font-size:.8em;fill:#006400d}#chart-1abada81-49af-497e-bcdc-48e10b1efbd2 .tooltip .x_label{font-size:.6em;fill:#000000}#chart-1abada81-49af-497e-bcdc-48e10b1efbd2 .tooltip .xlink{font-size:.5em;text-decoration:underline}#chart-1abada81-49af-497e-bcdc-48e10b1efbd2 .tooltip .value{font-size:1.5em}#chart-1abada81-49af-497e-bcdc-48e10b1efbd2 .bound{font-size:.5em}#chart-1abada81-49af-497e-bcdc-48e10b1efbd2 .max-value{font-size:.75em;fill:#006400d}#chart-1abada81-49af-497e-bcdc-48e10b1efbd2 .map-element{fill:transparent;stroke:#006400d !important}#chart-1abada81-49af-497e-bcdc-48e10b1efbd2 .map-element .reactive{fill-opacity:inherit;stroke-opacity:inherit}#chart-1abada81-49af-497e-bcdc-48e10b1efbd2 .color-0,#chart-1abada81-49af-497e-bcdc-48e10b1efbd2 .color-0 a:visited{stroke:#006400;fill:#006400}#chart-1abada81-49af-497e-bcdc-48e10b1efbd2 .color-1,#chart-1abada81-49af-497e-bcdc-48e10b1efbd2 .color-1 a:visited{stroke:#0022AA;fill:#0022AA}#chart-1abada81-49af-497e-bcdc-48e10b1efbd2 .color-2,#chart-1abada81-49af-497e-bcdc-48e10b1efbd2 .color-2 a:visited{stroke:#FF1111;fill:#FF1111}#chart-1abada81-49af-497e-bcdc-48e10b1efbd2 .text-overlay .color-0 text{fill:black}#chart-1abada81-49af-497e-bcdc-48e10b1efbd2 .text-overlay .color-1 text{fill:black}#chart-1abada81-49af-497e-bcdc-48e10b1efbd2 .text-overlay .color-2 text{fill:black}
#chart-1abada81-49af-497e-bcdc-48e10b1efbd2 text.no_data{text-anchor:middle}#chart-1abada81-49af-497e-bcdc-48e10b1efbd2 .guide.line{fill:none}#chart-1abada81-49af-497e-bcdc-48e10b1efbd2 .centered{text-anchor:middle}#chart-1abada81-49af-497e-bcdc-48e10b1efbd2 .title{text-anchor:middle}#chart-1abada81-49af-497e-bcdc-48e10b1efbd2 .legends .legend text{fill-opacity:1}#chart-1abada81-49af-497e-bcdc-48e10b1efbd2 .axis.x text{text-anchor:middle}#chart-1abada81-49af-497e-bcdc-48e10b1efbd2 .axis.x:not(.web) text[transform]{text-anchor:start}#chart-1abada81-49af-497e-bcdc-48e10b1efbd2 .axis.x:not(.web) text[transform].backwards{text-anchor:end}#chart-1abada81-49af-497e-bcdc-48e10b1efbd2 .axis.y text{text-anchor:end}#chart-1abada81-49af-497e-bcdc-48e10b1efbd2 .axis.y text[transform].backwards{text-anchor:start}#chart-1abada81-49af-497e-bcdc-48e10b1efbd2 .axis.y2 text{text-anchor:start}#chart-1abada81-49af-497e-bcdc-48e10b1efbd2 .axis.y2 text[transform].backwards{text-anchor:end}#chart-1abada81-49af-497e-bcdc-48e10b1efbd2 .axis .guide.line{stroke-dasharray:4,4}#chart-1abada81-49af-497e-bcdc-48e10b1efbd2 .axis .major.guide.line{stroke-dasharray:6,6}#chart-1abada81-49af-497e-bcdc-48e10b1efbd2 .horizontal .axis.y .guide.line,#chart-1abada81-49af-497e-bcdc-48e10b1efbd2 .horizontal .axis.y2 .guide.line,#chart-1abada81-49af-497e-bcdc-48e10b1efbd2 .vertical .axis.x .guide.line{opacity:0}#chart-1abada81-49af-497e-bcdc-48e10b1efbd2 .horizontal .axis.always_show .guide.line,#chart-1abada81-49af-497e-bcdc-48e10b1efbd2 .vertical .axis.always_show .guide.line{opacity:1 !important}#chart-1abada81-49af-497e-bcdc-48e10b1efbd2 .axis.y .guides:hover .guide.line,#chart-1abada81-49af-497e-bcdc-48e10b1efbd2 .axis.y2 .guides:hover .guide.line,#chart-1abada81-49af-497e-bcdc-48e10b1efbd2 .axis.x .guides:hover .guide.line{opacity:1}#chart-1abada81-49af-497e-bcdc-48e10b1efbd2 .axis .guides:hover text{opacity:1}#chart-1abada81-49af-497e-bcdc-48e10b1efbd2 .nofill{fill:none}#chart-1abada81-49af-497e-bcdc-48e10b1efbd2 .subtle-fill{fill-opacity:.2}#chart-1abada81-49af-497e-bcdc-48e10b1efbd2 .dot{stroke-width:1px;fill-opacity:1}#chart-1abada81-49af-497e-bcdc-48e10b1efbd2 .dot.active{stroke-width:5px}#chart-1abada81-49af-497e-bcdc-48e10b1efbd2 .dot.negative{fill:transparent}#chart-1abada81-49af-497e-bcdc-48e10b1efbd2 text,#chart-1abada81-49af-497e-bcdc-48e10b1efbd2 tspan{stroke:none !important}#chart-1abada81-49af-497e-bcdc-48e10b1efbd2 .series text.active{opacity:1}#chart-1abada81-49af-497e-bcdc-48e10b1efbd2 .tooltip rect{fill-opacity:.95;stroke-width:.5}#chart-1abada81-49af-497e-bcdc-48e10b1efbd2 .tooltip text{fill-opacity:1}#chart-1abada81-49af-497e-bcdc-48e10b1efbd2 .showable{visibility:hidden}#chart-1abada81-49af-497e-bcdc-48e10b1efbd2 .showable.shown{visibility:visible}#chart-1abada81-49af-497e-bcdc-48e10b1efbd2 .gauge-background{fill:rgba(229,229,229,1);stroke:none}#chart-1abada81-49af-497e-bcdc-48e10b1efbd2 .bg-lines{stroke:transparent;stroke-width:2px}</style><script type="text/javascript">window.pygal = window.pygal || {};window.pygal.config = window.pygal.config || {};window.pygal.config['1abada81-49af-497e-bcdc-48e10b1efbd2'] = {"dynamic_print_values": false, "truncate_label": null, "inner_radius": 0, "print_values": false, "xrange": null, "box_mode": "extremes", "title": null, "legend_at_bottom_columns": null, "height": 600, "legend_at_bottom": false, "show_legend": true, "show_dots": false, "explicit_size": false, "y_labels_major": null, "show_minor_x_labels": true, "width": 800, "force_uri_protocol": "https", "half_pie": false, "style": {"major_label_font_family": "Consolas, \"Liberation Mono\", Menlo, Courier, monospace", "title_font_family": "Consolas, \"Liberation Mono\", Menlo, Courier, monospace", "stroke_opacity": ".8", "legend_font_family": "Consolas, \"Liberation Mono\", Menlo, Courier, monospace", "colors": ["#006400", "#0022AA", "#FF1111", "#FFEBCD", "#DC143C", "#FFFFFF", "#6495ED", "#B0C4DE", "#D2691E", "#8B0000"], "legend_font_size": 14, "no_data_font_family": "Consolas, \"Liberation Mono\", Menlo, Courier, monospace", "major_label_font_size": 10, "value_background": "rgba(229, 229, 229, 1)", "ci_colors": [], "label_font_family": "Consolas, \"Liberation Mono\", Menlo, Courier, monospace", "label_font_size": 10, "tooltip_font_size": 14, "value_font_size": 16, "font_family": "Consolas, \"Liberation Mono\", Menlo, Courier, monospace", "opacity": ".6", "foreground": "#000000", "plot_background": "transparent", "value_label_font_size": 10, "value_label_font_family": "Consolas, \"Liberation Mono\", Menlo, Courier, monospace", "background": "transparent", "no_data_font_size": 64, "value_colors": [], "guide_stroke_dasharray": "4,4", "transition": "100ms ease-in", "foreground_subtle": "#006400d", "value_font_family": "Consolas, \"Liberation Mono\", Menlo, Courier, monospace", "tooltip_font_family": "Consolas, \"Liberation Mono\", Menlo, Courier, monospace", "title_font_size": 16, "stroke_opacity_hover": ".9", "major_guide_stroke_dasharray": "6,6", "opacity_hover": ".9", "foreground_strong": "#000000"}, "x_label_rotation": 0, "fill": false, "missing_value_fill_truncation": "x", "zero": 0, "margin_right": null, "interpolation_parameters": {}, "x_labels_major": null, "rounded_bars": null, "show_y_labels": true, "dots_size": 2.5, "show_y_guides": true, "show_minor_y_labels": true, "x_labels": null, "y_title": null, "order_min": null, "formatter": null, "disable_xml_declaration": false, "strict": false, "css": ["file://style.css", "file://graph.css"], "tooltip_fancy_mode": true, "defs": [], "show_only_major_dots": false, "y_label_rotation": 0, "show_x_labels": true, "min_scale": 4, "show_x_guides": false, "spacing": 10, "x_labels_major_count": null, "pretty_print": false, "tooltip_border_radius": 0, "interpolate": null, "js": ["//kozea.github.io/pygal.js/2.0.x/pygal-tooltips.min.js"], "y_labels": null, "stroke_style": null, "print_labels": false, "interpolation_precision": 250, "x_title": "udp_500kbps", "y_labels_major_every": null, "logarithmic": false, "legends": ["qdelay", "txed(kbps)", "topo(kbps)"], "max_scale": 16, "print_zeroes": true, "no_data_text": "No data", "truncate_legend": null, "x_labels_major_every": null, "secondary_range": null, "legend_box_size": 12, "no_prefix": false, "stroke": true, "stack_from_top": false, "include_x_axis": false, "range": [0, 1000], "classes": ["pygal-chart"], "margin_top": null, "margin_left": null, "y_labels_major_count": null, "margin_bottom": null, "inverse_y_axis": false, "margin": 20, "allow_interruptions": false, "print_values_position": "center"}</script><script type="text/javascript" xlink:href="https://kozea.github.io/pygal.js/2.0.x/pygal-tooltips.min.js" /></defs><title>Pygal</title><g class="graph xy-graph vertical"><rect class="background" height="600" width="800" x="0" y="0" /><g class="plot" transform="translate(160, 20)"><rect class="background" height="514" width="620.0" x="0" y="0" /><g class="axis y always_show"><g class="guides"><path class="axis major line" d="M0.000000 504.115385 h620.000000" /><text class="major" x="-5" y="507.615384615">0</text><title>0</title></g><g class="guides"><path class="guide line" d="M0.000000 454.692308 h620.000000" /><text class="" x="-5" y="458.192307692">100</text><title>100</title></g><g class="guides"><path class="guide line" d="M0.000000 405.269231 h620.000000" /><text class="" x="-5" y="408.769230769">200</text><title>200</title></g><g class="guides"><path class="guide line" d="M0.000000 355.846154 h620.000000" /><text class="" x="-5" y="359.346153846">300</text><title>300</title></g><g class="guides"><path class="guide line" d="M0.000000 306.423077 h620.000000" /><text class="" x="-5" y="309.923076923">400</text><title>400</title></g><g class="guides"><path class="major guide line" d="M0.000000 257.000000 h620.000000" /><text class="major" x="-5" y="260.5">500</text><title>500</title></g><g class="guides"><path class="guide line" d="M0.000000 207.576923 h620.000000" /><text class="" x="-5" y="211.076923077">600</text><title>600</title></g><g class="guides"><path class="guide line" d="M0.000000 158.153846 h620.000000" /><text class="" x="-5" y="161.653846154">700</text><title>700</title></g><g class="guides"><path class="guide line" d="M0.000000 108.730769 h620.000000" /><text class="" x="-5" y="112.230769231">800</text><title>800</title></g><g class="guides"><path class="guide line" d="M0.000000 59.307692 h620.000000" /><text class="" x="-5" y="62.8076923077">900</text><title>900</title></g><g class="guides"><path class="major guide line" d="M0.000000 9.884615 h620.000000" /><text class="major" x="-5" y="13.3846153846">1000</text><title>1000</title></g></g><g class="axis x"><path class="line" d="M0.000000 0.000000 v514.000000" /><g class="guides"><path class="guide line" d="M60.163563 0.000000 v514.000000" /><text class="" x="60.163562955" y="529.0">10</text><title>10</title></g><g class="guides"><path class="guide line" d="M110.009214 0.000000 v514.000000" /><text class="" x="110.009213518" y="529.0">20</text><title>20</title></g><g class="guides"><path class="guide line" d="M159.854864 0.000000 v514.000000" /><text class="" x="159.854864082" y="529.0">30</text><title>30</title></g><g class="guides"><path class="guide line" d="M209.700515 0.000000 v514.000000" /><text class="" x="209.700514645" y="529.0">40</text><title>40</title></g><g class="guides"><path class="guide line" d="M259.546165 0.000000 v514.000000" /><text class="" x="259.546165208" y="529.0">50</text><title>50</title></g><g class="guides"><path class="guide line" d="M309.391816 0.000000 v514.000000" /><text class="" x="309.391815771" y="529.0">60</text><title>60</title></g><g class="guides"><path class="guide line" d="M359.237466 0.000000 v514.000000" /><text class="" x="359.237466335" y="529.0">70</text><title>70</title></g><g class="guides"><path class="guide line" d="M409.083117 0.000000 v514.000000" /><text class="" x="409.083116898" y="529.0">80</text><title>80</title></g><g class="guides"><path class="guide line" d="M458.928767 0.000000 v514.000000" /><text class="" x="458.928767461" y="529.0">90</text><title>90</title></g><g class="guides"><path class="guide line" d="M508.774418 0.000000 v514.000000" /><text class="" x="508.774418025" y="529.0">100</text><title>100</title></g><g class="guides"><path class="guide line" d="M558.620069 0.000000 v514.000000" /><text class="" x="558.620068588" y="529.0">110</text><title>110</title></g></g><g class="series serie-0 color-0"><path class="line reactive nofill" d="M11.923077 504.115385 L12.421214 477.921154 12.919671 480.392308 13.417808 482.863462 13.916584 483.357692 14.415040 481.875000 14.913178 475.944231 15.411639 473.967308 15.910395 471.990385 16.408552 468.036538 16.907308 458.151923 17.405765 457.163462 17.903922 442.830769 18.402678 441.842308 18.900835 438.382692 19.399291 435.417308 19.898047 429.980769 20.396504 424.050000 20.894661 423.061538 21.393117 420.590385 21.891873 417.625000 22.390330 412.188462 22.888487 406.257692 23.387243 408.728846 23.885699 404.775000 24.383857 402.798077 24.882313 399.832692 25.380770 396.867308 25.879525 396.373077 26.378331 380.063462 26.876438 382.534615 27.375244 380.557692 27.873351 381.051923 28.372157 381.051923 28.870264 378.086538 29.369070 375.615385 29.867526 384.017308 30.365634 374.132692 30.864738 384.511538 31.362896 374.626923 31.861352 373.144231 32.359809 377.098077 32.857617 373.638462 33.356722 378.580769 33.855178 381.051923 34.353635 380.063462 34.852091 377.098077 35.350199 376.109615 35.849004 382.040385 36.347461 371.167308 36.845917 379.569231 37.344025 378.086538 37.842830 376.603846 38.341287 385.994231 38.839394 376.603846 39.338200 378.580769 39.836307 380.557692 40.334764 380.557692 40.833569 377.098077 41.332026 383.523077 41.830133 377.098077 42.328939 377.592308 42.827046 374.626923 43.325503 378.086538 43.824308 380.557692 44.322416 377.098077 44.820872 380.063462 45.319678 378.580769 45.817785 375.615385 46.316591 381.051923 46.814698 386.488462 47.313504 384.017308 47.811960 379.075000 48.310068 381.546154 48.808873 376.603846 49.306981 374.626923 49.805437 379.075000 50.304243 378.086538 50.802699 381.051923 51.300807 379.075000 51.798964 385.005769 52.298069 380.557692 52.796176 378.580769 53.294982 383.028846 53.793089 373.638462 54.291546 373.144231 54.790650 383.028846 55.288459 382.534615 55.786915 375.121154 56.285721 373.638462 56.783828 377.592308 57.282285 370.178846 57.780741 381.051923 58.279198 381.051923 58.778003 385.994231 59.276111 378.580769 59.774916 381.051923 60.273223 379.075000 60.771680 374.626923 61.270136 382.534615 61.768593 384.511538 62.267049 381.546154 62.765506 385.500000 63.263962 379.075000 63.762419 375.121154 64.260875 377.592308 64.759332 379.075000 65.257788 380.557692 65.756245 381.546154 66.254701 378.086538 66.753158 378.086538 67.251614 379.569231 67.749573 367.707692 68.248527 382.534615 68.746984 379.075000 69.245440 377.592308 69.743897 384.017308 70.242353 375.121154 70.740312 381.546154 71.239267 371.661538 71.737723 382.040385 72.236180 373.638462 72.734636 377.098077 73.233093 377.098077 73.731549 382.040385 74.230006 373.638462 74.728462 377.098077 75.226919 373.638462 75.725375 378.086538 76.223832 378.086538 76.721790 373.144231 77.220745 378.580769 77.719201 379.075000 78.217658 374.132692 78.716114 376.603846 79.214571 375.615385 79.713027 379.569231 80.211484 380.557692 80.709940 379.569231 81.208397 378.086538 81.706853 383.523077 82.205310 378.086538 82.703268 374.626923 83.202223 377.098077 83.700679 374.626923 84.199136 381.051923 84.697592 377.592308 85.196049 382.534615 85.694007 374.132692 86.192463 379.075000 86.691418 383.028846 87.189875 377.592308 87.688331 377.098077 88.186788 378.580769 88.685244 377.592308 89.183202 374.132692 89.682157 375.121154 90.180614 378.086538 90.679070 378.086538 91.177527 377.098077 91.675983 374.132692 92.174440 379.569231 92.672896 378.580769 93.171353 379.569231 93.669809 380.557692 94.168266 378.580769 94.666722 377.098077 95.164680 377.592308 95.663635 375.121154 96.162092 375.615385 96.660548 378.580769 97.159503 379.569231 97.657461 377.098077 98.155918 382.040385 98.654374 375.121154 99.152831 383.028846 99.651287 378.580769 100.149744 372.155769 100.648200 375.121154 101.146657 374.132692 101.645113 382.534615 102.143570 382.040385 102.642026 380.557692 103.140483 385.005769 103.638939 378.580769 104.137396 380.557692 104.635852 383.028846 105.133810 374.132692 105.632765 379.569231 106.130723 375.121154 106.629678 384.017308 107.128633 378.086538 107.626093 368.696154 108.125048 375.615385 108.623504 379.075000 109.121961 374.132692 109.620417 381.546154 110.118874 376.603846 110.617330 381.546154 111.115787 378.580769 111.614243 376.603846 112.112700 383.523077 112.611156 379.569231 113.109613 381.051923 113.608069 377.592308 114.106526 375.121154 114.604983 375.615385 115.103937 379.075000 115.601896 379.075000 116.100352 381.546154 116.598809 375.615385 117.097265 379.075000 117.595722 382.040385 118.094178 378.086538 118.592635 380.063462 119.091091 373.638462 119.589548 373.638462 120.088004 370.673077 120.586461 382.534615 121.084917 376.603846 121.582875 372.650000 122.081830 383.028846 122.580287 378.086538 123.078743 379.075000 123.577200 380.063462 124.075656 380.557692 124.573614 378.580769 125.072569 376.603846 125.571026 378.580769 126.069482 382.040385 126.567939 370.673077 127.066395 380.063462 127.564852 374.626923 128.063308 377.592308 128.561765 379.075000 129.060221 380.557692 129.558678 382.040385 130.057134 379.569231 130.555591 379.075000 131.054047 378.580769 131.552504 383.523077 132.050960 372.155769 132.549417 383.028846 133.047375 377.592308 133.546330 371.661538 134.044786 377.098077 134.543243 380.063462 135.041699 379.075000 135.540156 373.638462 136.038612 375.615385 136.537069 375.121154 137.035027 376.109615 137.533982 381.051923 138.032438 376.109615 138.530895 375.615385 139.029351 376.109615 139.528306 377.592308 140.026264 378.086538 140.524721 381.051923 141.023177 373.144231 141.521135 379.569231 142.020090 381.546154 142.518547 377.098077 143.017003 384.017308 143.515460 381.546154 144.013916 380.063462 144.512373 376.603846 145.010829 383.523077 145.509286 377.592308 146.007742 381.051923 146.506199 377.592308 147.004655 375.121154 147.503112 379.075000 148.001568 381.051923 148.500025 381.546154 148.998481 377.098077 149.496938 384.017308 149.995394 372.155769 150.493352 379.569231 150.992307 379.075000 151.490764 377.592308 151.989220 378.086538 152.487677 381.051923 152.986133 379.569231 153.484091 382.534615 153.983046 380.063462 154.481503 379.569231 154.979959 378.086538 155.478416 377.592308 155.976374 375.121154 156.474831 374.626923 156.973287 375.615385 157.471744 373.144231 157.970698 380.063462 158.469155 378.580769 158.967612 380.557692 159.466068 380.557692 159.964525 387.476923 160.462981 380.557692 160.960939 376.109615 161.460392 382.534615 161.958351 384.017308 162.456309 377.592308 162.955264 378.086538 163.453222 370.178846 163.952177 375.615385 164.450633 379.075000 164.949090 382.040385 165.447546 373.144231 165.945504 379.075000 166.444459 385.994231 166.942916 382.534615 167.441372 381.546154 167.939829 381.546154 168.438285 386.488462 168.936742 381.546154 169.435198 378.086538 169.933655 370.673077 170.432111 374.132692 170.930568 382.534615 171.429024 379.569231 171.927481 380.063462 172.426436 381.546154 172.924394 376.109615 173.422850 379.075000 173.920808 374.132692 174.419763 385.005769 174.917721 378.086538 175.416676 374.626923 175.915133 379.075000 176.413589 380.063462 176.912046 385.005769 177.410502 382.040385 177.908959 377.098077 178.407415 380.063462 178.905872 373.144231 179.404328 380.063462 179.902785 378.580769 180.401241 377.098077 180.900196 378.086538 181.397656 375.615385 181.896611 382.040385 182.395067 381.546154 182.893524 379.075000 183.391980 379.075000 183.890437 373.638462 184.388893 379.569231 184.887350 381.051923 185.385806 378.086538 185.884263 382.040385 186.382719 377.592308 186.881176 381.546154 187.379632 377.098077 187.878089 373.638462 188.376545 383.028846 188.874503 377.098077 189.373458 376.109615 189.872413 382.534615 190.370371 383.028846 190.868828 377.098077 191.367284 375.615385 191.865741 373.638462 192.364197 384.017308 192.862155 369.190385 193.361110 380.557692 193.859567 378.086538 194.358023 380.557692 194.856480 379.075000 195.354936 376.109615 195.853393 382.534615 196.351849 380.063462 196.850306 379.569231 197.348762 382.040385 197.847219 376.603846 198.345675 381.546154 198.844132 376.603846 199.342588 371.661538 199.841045 377.098077 200.339501 373.638462 200.837958 374.132692 201.336414 381.546154 201.834871 376.603846 202.333327 383.523077 202.831784 378.580769 203.329742 376.109615 203.828697 382.040385 204.327154 379.075000 204.825610 382.040385 205.324067 378.086538 205.822523 376.603846 206.320980 378.086538 206.819436 376.109615 207.317893 382.040385 207.816349 374.626923 208.314806 374.626923 208.813262 381.051923 209.311719 382.040385 209.810175 379.569231 210.308632 379.569231 210.807088 383.028846 211.305545 377.098077 211.804500 375.615385 212.302458 382.040385 212.800914 380.557692 213.299371 371.167308 213.798326 380.557692 214.296284 385.500000 214.794740 379.569231 215.293197 374.132692 215.791653 378.086538 216.290110 380.063462 216.788566 384.017308 217.286524 383.523077 217.785479 382.040385 218.283936 373.144231 218.782891 378.580769 219.280849 378.086538 219.779305 380.557692 220.277762 380.063462 220.775720 370.178846 221.275173 381.546154 221.773131 378.086538 222.271588 380.063462 222.770044 376.603846 223.268501 373.638462 223.766459 379.569231 224.265414 374.626923 224.763372 377.098077 225.262327 375.615385 225.760783 378.580769 226.259240 382.534615 226.757696 381.051923 227.256153 374.132692 227.754111 373.638462 228.253066 381.051923 228.751522 375.121154 229.249979 380.063462 229.748435 379.569231 230.246892 379.075000 230.744850 376.109615 231.243805 382.534615 231.741763 376.603846 232.240718 377.592308 232.739174 379.075000 233.237631 378.580769 233.735589 373.638462 234.234544 385.005769 234.733000 379.075000 235.231457 378.580769 235.729913 380.063462 236.228370 376.109615 236.726826 380.557692 237.225283 379.075000 237.723739 377.098077 238.222196 382.040385 238.720154 374.626923 239.219109 383.028846 239.717565 381.051923 240.215523 375.615385 240.714478 379.075000 241.212935 377.592308 241.711391 384.511538 242.209848 381.051923 242.708304 381.051923 243.206761 382.534615 243.705217 378.086538 244.203674 379.075000 244.702130 378.086538 245.200587 377.592308 245.699043 369.684615 246.197500 377.098077 246.695956 378.086538 247.193915 378.580769 247.692870 379.569231 248.191326 379.569231 248.689783 379.075000 249.188737 384.511538 249.686696 384.511538 250.185152 380.557692 250.683609 379.569231 251.182065 380.557692 251.680522 378.580769 252.178978 376.109615 252.677435 377.592308 253.175891 377.592308 253.674348 377.098077 254.172804 384.511538 254.671759 383.523077 255.169717 380.063462 255.668174 385.500000 256.166630 380.063462 256.665087 376.603846 257.163543 381.546154 257.661501 375.121154 258.160456 376.109615 258.658913 380.557692 259.157369 376.603846 259.655826 376.109615 260.153784 383.028846 260.652739 378.580769 261.151195 379.569231 261.649652 374.132692 262.148108 377.098077 262.646565 378.086538 263.145021 378.086538 263.643478 370.673077 264.141934 377.592308 264.639892 376.603846 265.139346 380.063462 265.637304 377.592308 266.135760 385.500000 266.634217 376.109615 267.132673 382.040385 267.631130 381.051923 268.129586 371.167308 268.628043 375.121154 269.126998 380.557692 269.624956 385.005769 270.123911 380.063462 270.621869 384.511538 271.120325 378.086538 271.618283 385.005769 272.117238 380.557692 272.615695 379.075000 273.113653 378.580769 273.612608 379.075000 274.111064 378.086538 274.609521 377.592308 275.107977 377.592308 275.606434 376.603846 276.104890 377.592308 276.603347 377.098077 277.101803 383.523077 277.600260 379.569231 278.098716 373.638462 278.597173 385.500000 279.095629 377.098077 279.594086 380.063462 280.092542 380.557692 280.591497 380.063462 281.089455 378.086538 281.587912 378.086538 282.086368 381.051923 282.584825 379.569231 283.083281 378.580769 283.581738 380.063462 284.080194 374.626923 284.578651 383.523077 285.077107 375.615385 285.576062 377.592308 286.074020 377.098077 286.572477 381.051923 287.070933 377.592308 287.569390 379.075000 288.068345 380.557692 288.565805 377.592308 289.064759 379.569231 289.563216 378.086538 290.061672 378.086538 290.560129 374.626923 291.058585 381.546154 291.557042 378.086538 292.055499 372.155769 292.553457 376.109615 293.052412 380.063462 293.550868 381.546154 294.049325 382.534615 294.547283 377.098077 295.045739 377.592308 295.544694 379.569231 296.043151 381.546154 296.541607 376.603846 297.040064 376.109615 297.538520 376.109615 298.036977 379.569231 298.535433 379.569231 299.033890 382.040385 299.531848 372.155769 300.030803 382.534615 300.529259 374.626923 301.027217 381.546154 301.526671 380.063462 302.024629 379.569231 302.523085 382.040385 303.022040 378.580769 303.519998 376.603846 304.018455 380.063462 304.516413 371.661538 305.015368 383.523077 305.513824 378.580769 306.011782 377.592308 306.510239 371.167308 307.009194 381.546154 307.507650 373.144231 308.006107 385.500000 308.504563 385.005769 309.003020 382.534615 309.501476 371.167308 309.999933 384.017308 310.497891 377.098077 310.996347 369.190385 311.495801 377.592308 311.993759 377.098077 312.492215 380.557692 312.990672 378.086538 313.489128 383.028846 313.987585 378.086538 314.486041 381.546154 314.983999 370.178846 315.482954 379.569231 315.981909 378.086538 316.479867 376.109615 316.978324 383.523077 317.476780 375.615385 317.975237 379.569231 318.473693 384.017308 318.972150 378.086538 319.470606 372.650000 319.969063 373.144231 320.467021 370.178846 320.965976 369.190385 321.464432 380.557692 321.962889 383.523077 322.461345 382.040385 322.959802 379.569231 323.458258 376.603846 323.956216 378.086538 324.455171 381.051923 324.953628 373.638462 325.452084 377.098077 325.950541 379.075000 326.448997 378.086538 326.947454 378.086538 327.445910 376.109615 327.944367 373.144231 328.442823 374.626923 328.941280 375.121154 329.439736 378.086538 329.938193 379.569231 330.436649 377.592308 330.935106 372.650000 331.433562 382.040385 331.932019 380.063462 332.430475 378.580769 332.928932 378.086538 333.427887 375.615385 333.925845 380.063462 334.424301 379.075000 334.922758 378.086538 335.421214 379.075000 335.919173 369.190385 336.418128 376.109615 336.916584 383.028846 337.415041 382.040385 337.913497 378.086538 338.411954 378.086538 338.910410 378.580769 339.408867 377.592308 339.907323 381.051923 340.405281 378.580769 340.904236 374.132692 341.402693 376.603846 341.901149 376.603846 342.399606 382.040385 342.898062 376.109615 343.396519 381.546154 343.894975 379.075000 344.392933 375.121154 344.891888 377.098077 345.390345 378.086538 345.888801 378.086538 346.387258 378.580769 346.885216 374.626923 347.384171 373.638462 347.882627 378.580769 348.381084 380.063462 348.879540 376.603846 349.377997 374.626923 349.876453 379.075000 350.374910 377.098077 350.873366 380.557692 351.371823 382.040385 351.870279 383.028846 352.368736 378.086538 352.867691 379.075000 353.365649 375.121154 353.864105 381.546154 354.362562 380.557692 354.861018 374.132692 355.359475 378.086538 355.857931 378.086538 356.356388 379.569231 356.854844 377.098077 357.353301 378.086538 357.851757 376.109615 358.350712 385.005769 358.848670 380.557692 359.347127 378.580769 359.845583 379.569231 360.344538 378.580769 360.842496 372.155769 361.340953 379.569231 361.839409 376.109615 362.337866 382.040385 362.836322 380.557692 363.334779 377.098077 363.833235 381.051923 364.332190 378.086538 364.830148 375.615385 365.328106 385.500000 365.827061 378.086538 366.325518 380.063462 366.823974 374.132692 367.322431 385.005769 367.820887 379.569231 368.319344 376.109615 368.817800 376.603846 369.316257 375.615385 369.814215 379.569231 370.313170 373.638462 370.811626 383.523077 371.310083 377.592308 371.808539 381.546154 372.306996 382.534615 372.805452 382.040385 373.303410 368.201923 373.802864 379.569231 374.300822 378.580769 374.799278 380.063462 375.297735 379.569231 375.796191 376.603846 376.294150 376.603846 376.793104 379.075000 377.291063 374.132692 377.790516 384.511538 378.287976 379.075000 378.786930 381.546154 379.285387 381.051923 379.783843 382.534615 380.282300 375.121154 380.780757 379.569231 381.279711 382.534615 381.777670 378.580769 382.276126 376.603846 382.774583 382.534615 383.273039 374.132692 383.771496 374.132692 384.269952 379.569231 384.768409 377.592308 385.266865 379.569231 385.765322 379.075000 386.263778 374.132692 386.762235 374.626923 387.260691 379.569231 387.758649 373.638462 388.257604 378.086538 388.756061 377.592308 389.254517 379.075000 389.752974 378.580769 390.251430 383.028846 390.749887 377.098077 391.247845 376.603846 391.747298 380.063462 392.245256 379.569231 392.743214 380.557692 393.242169 379.075000 393.740626 374.132692 394.239082 379.569231 394.737539 377.098077 395.236494 376.603846 395.734452 379.569231 396.232410 383.028846 396.731365 378.580769 397.229821 375.615385 397.728278 379.075000 398.226734 376.109615 398.725191 384.511538 399.223647 380.063462 399.722104 380.557692 400.220560 384.017308 400.719017 380.063462 401.217473 376.109615 401.715930 378.580769 402.214386 378.580769 402.712344 384.511538 403.211299 382.534615 403.709756 381.546154 404.208212 383.028846 404.706669 378.086538 405.205125 377.592308 405.703582 384.017308 406.202038 376.603846 406.700495 384.017308 407.198951 382.040385 407.697408 376.603846 408.195864 380.063462 408.694321 377.098077 409.192777 381.546154 409.691234 385.005769 410.189192 376.603846 410.688147 385.500000 411.186603 377.098077 411.685060 380.557692 412.183516 379.569231 412.681973 378.580769 413.180429 378.580769 413.678886 377.592308 414.177342 378.580769 414.675799 385.005769 415.174255 385.500000 415.672712 381.546154 416.171168 378.086538 416.669625 378.580769 417.168081 377.592308 417.666538 379.075000 418.164994 380.063462 418.663451 380.063462 419.161907 382.040385 419.660364 377.098077 420.158820 380.063462 420.656779 379.569231 421.155733 378.086538 421.654190 384.017308 422.152646 379.569231 422.651103 379.569231 423.149559 380.063462 423.648016 376.109615 424.146472 380.557692 424.644929 386.488462 425.142887 380.557692 425.641842 379.075000 426.140299 377.592308 426.638755 387.476923 427.137212 379.075000 427.635668 379.569231 428.134125 380.063462 428.632581 375.121154 429.131038 380.063462 429.629494 380.557692 430.127951 378.580769 430.626407 379.075000 431.124864 381.546154 431.623320 385.005769 432.121777 377.592308 432.619735 376.603846 433.118690 380.557692 433.617146 382.534615 434.115603 375.615385 434.614059 377.098077 435.112516 384.017308 435.610972 383.028846 436.109429 380.063462 436.607885 381.051923 437.106342 381.546154 437.604798 380.063462 438.103255 381.051923 438.601711 377.098077 439.100168 375.121154 439.598126 374.626923 440.097081 377.098077 440.595537 382.534615 441.093994 377.592308 441.592450 379.075000 442.090907 382.534615 442.589363 381.051923 443.087820 378.580769 443.586276 379.569231 444.084733 379.569231 444.583189 373.144231 445.081646 380.557692 445.580102 379.075000 446.078559 380.557692 446.577015 383.523077 447.075472 383.028846 447.573928 385.994231 448.072385 378.086538 448.570841 381.546154 449.069298 382.534615 449.567754 375.121154 450.066211 377.098077 450.564667 373.638462 451.063124 379.569231 451.561580 383.028846 452.060037 381.051923 452.558493 379.569231 453.056950 379.075000 453.555406 381.546154 454.053863 382.534615 454.552319 379.569231 455.050776 375.121154 455.549232 382.040385 456.048187 379.075000 456.546145 379.569231 457.044602 379.075000 457.543058 376.109615 458.041515 385.005769 458.539971 377.098077 459.038428 380.063462 459.536386 369.190385 460.035341 377.098077 460.533797 377.592308 461.032254 372.650000 461.530710 378.086538 462.029167 379.569231 462.527623 378.580769 463.026080 377.592308 463.524536 383.523077 464.022993 378.580769 464.521449 384.511538 465.019906 382.040385 465.518362 374.626923 466.016819 378.086538 466.515275 376.109615 467.013234 376.603846 467.512188 378.086538 468.010645 378.086538 468.509101 375.121154 469.007060 375.121154 469.506015 380.557692 470.004471 376.603846 470.502928 379.075000 471.000886 379.569231 471.499841 375.615385 471.998297 377.098077 472.497750 378.086538 472.995210 372.650000 473.493667 379.075000 473.992123 381.051923 474.490580 377.592308 474.989036 383.028846 475.487493 383.523077 475.985949 378.086538 476.484406 379.569231 476.982862 374.626923 477.481319 379.569231 477.979277 373.144231 478.478232 384.511538 478.976688 374.626923 479.475145 378.086538 479.973601 377.592308 480.472058 378.580769 480.970514 374.132692 481.468971 373.638462 481.967427 378.086538 482.465884 376.603846 482.964839 383.028846 483.462797 381.546154 483.961253 377.098077 484.459710 378.086538 484.958166 378.086538 485.456623 385.994231 485.955079 373.638462 486.453037 385.005769 486.951992 383.028846 487.450449 386.488462 487.948905 378.086538 488.447362 376.109615 488.945818 379.569231 489.444275 375.615385 489.942731 378.086538 490.440689 369.684615 490.939644 378.086538 491.437602 377.592308 491.936557 383.028846 492.435014 376.109615 492.933470 376.603846 493.431927 380.557692 493.930383 370.178846 494.428840 380.557692 494.927296 377.592308 495.425753 381.051923 495.924209 380.063462 496.422666 379.569231 496.921122 382.040385 497.419579 371.661538 497.918035 382.040385 498.416492 383.028846 498.914948 377.098077 499.413405 378.580769 499.911861 380.557692 500.410318 380.557692 500.908774 377.592308 501.407729 379.075000 501.905189 368.201923 502.404144 379.569231 502.902600 380.063462 503.401057 381.051923 503.899513 381.546154 504.397970 386.488462 504.896426 380.557692 505.394883 378.580769 505.893339 377.592308 506.391297 379.075000 506.890252 378.086538 507.388709 378.086538 507.887165 384.017308 508.385622 379.569231 508.884078 380.063462 509.382535 376.603846 509.880991 376.109615 510.379448 382.040385 510.877904 381.051923 511.376361 383.523077 511.874817 384.511538 512.373274 377.098077 512.871731 378.580769 513.370187 381.051923 513.868644 381.546154 514.367100 377.098077 514.865557 374.132692 515.364013 377.098077 515.862470 379.569231 516.360926 380.063462 516.859383 378.086538 517.357839 378.086538 517.856296 379.569231 518.354752 379.075000 518.853209 375.615385 519.351665 374.626923 519.850122 376.603846 520.348578 380.557692 520.847035 379.075000 521.345491 385.005769 521.843948 385.005769 522.342404 378.580769 522.840861 384.017308 523.339317 384.017308 523.837774 378.086538 524.336230 376.109615 524.834687 377.098077 525.333143 379.075000 525.831600 377.592308 526.330056 377.098077 526.828513 379.569231 527.326969 377.098077 527.825426 379.569231 528.323882 378.580769 528.822339 376.603846 529.320795 383.028846 529.819252 382.534615 530.317708 381.051923 530.816165 373.638462 531.314621 375.615385 531.813078 381.546154 532.311534 380.063462 532.809991 372.155769 533.308447 381.546154 533.806904 377.592308 534.305360 385.005769 534.803817 382.534615 535.302273 378.580769 535.800730 375.121154 536.299186 376.603846 536.797643 380.557692 537.296099 377.098077 537.794556 371.167308 538.293012 377.592308 538.791469 380.557692 539.289925 381.051923 539.788382 378.580769 540.286838 381.051923 540.785295 375.615385 541.283751 381.546154 541.782208 379.569231 542.280664 380.063462 542.779121 379.075000 543.277577 376.109615 543.776034 382.534615 544.274490 377.592308 544.772947 383.028846 545.271403 380.063462 545.769860 374.626923 546.268316 378.086538 546.766773 378.580769 547.265229 383.028846 547.763686 381.546154 548.262142 375.121154 548.760599 382.534615 549.259055 382.534615 549.757512 375.615385 550.255968 377.098077 550.754425 381.051923 551.252881 378.086538 551.751338 375.121154 552.249794 377.098077 552.748251 383.028846 553.246707 377.592308 553.745164 375.121154 554.243620 380.063462 554.742077 375.121154 555.240533 383.028846 555.738990 375.615385 556.237446 383.028846 556.735903 376.109615 557.234360 384.017308 557.732816 380.063462 558.231273 377.098077 558.729729 379.075000 559.228186 382.534615 559.726642 379.569231 560.225099 375.615385 560.723555 368.696154 561.222012 382.534615 561.720468 381.546154 562.218925 377.592308 562.717381 380.063462 563.215838 389.453846 563.714294 373.638462 564.212751 374.132692 564.711207 375.615385 565.209664 373.144231 565.708120 377.098077 566.206577 383.523077 566.705033 375.615385 567.203490 378.580769 567.701946 375.615385 568.200403 379.569231 568.698859 375.615385 569.197316 379.075000 569.695772 382.040385 570.194229 382.534615 570.692685 373.144231 571.191142 376.603846 571.689598 378.086538 572.188055 374.132692 572.686511 381.051923 573.184968 381.546154 573.683424 376.109615 574.181881 387.476923 574.680337 378.086538 575.178794 377.592308 575.677250 383.028846 576.175707 381.546154 576.674163 378.086538 577.172620 376.109615 577.671076 382.534615 578.169533 378.086538 578.667989 381.051923 579.166446 380.557692 579.664902 382.534615 580.163359 378.086538 580.661815 376.603846 581.160272 375.121154 581.658728 376.109615 582.157185 375.615385 582.655641 374.626923 583.154098 381.051923 583.652554 375.615385 584.151011 378.086538 584.649467 380.063462 585.147924 375.121154 585.646380 375.615385 586.144837 383.523077 586.643293 379.569231 587.141750 379.075000 587.640206 380.557692 588.138663 375.615385 588.637119 375.121154 589.135576 380.557692 589.634032 376.603846 590.132489 380.063462 590.630945 378.580769 591.129402 374.626923 591.627858 375.121154 592.126315 378.086538 592.624771 377.098077 593.123228 377.098077 593.621684 382.534615 594.120141 381.051923 594.618597 382.040385 595.117054 381.546154 595.615510 376.109615 596.113967 378.580769 596.612423 379.569231 597.110880 377.098077 597.609336 378.580769 598.107793 377.098077 598.606249 378.086538 599.104706 368.201923 599.603162 378.580769 600.101619 381.546154 600.600075 377.098077 601.098532 378.086538 601.596989 377.098077 602.095445 379.569231 602.593902 379.569231 603.092358 377.592308 603.590815 377.098077 604.089271 377.592308 604.587728 384.511538 605.086184 377.592308 605.584641 377.098077 606.083097 380.557692 606.581554 374.132692 607.080010 383.523077 607.578467 380.063462 608.076923 376.109615" /></g><g class="series serie-1 color-1"><path class="line reactive nofill" d="M11.923077 298.515385 L12.421214 462.105769 12.919671 476.932692 13.417808 472.484615 13.916584 414.165385 14.415040 430.475000 14.913178 440.853846 15.411639 446.290385 15.910395 416.636538 16.408552 409.717308 16.907308 397.855769 17.405765 392.419231 17.903922 408.234615 18.402678 402.303846 18.900835 455.680769 19.399291 436.405769 19.898047 418.119231 20.396504 417.130769 20.894661 418.613462 21.393117 452.715385 21.891873 401.315385 22.390330 442.336538 22.888487 447.773077 23.387243 480.886538 23.885699 404.280769 24.383857 415.153846 24.882313 444.313462 25.380770 443.819231 25.879525 310.871154 26.378331 355.351923 26.876438 355.351923 27.375244 354.363462 27.873351 358.317308 28.372157 281.217308 28.870264 365.236538 29.369070 268.861538 29.867526 290.607692 30.365634 308.894231 30.864738 334.594231 31.362896 310.871154 31.861352 300.986538 32.359809 290.607692 32.857617 324.215385 33.356722 279.240385 33.855178 202.140385 34.353635 334.100000 34.852091 329.157692 35.350199 356.834615 35.849004 294.561538 36.347461 271.332692 36.845917 298.021154 37.344025 305.928846 37.842830 319.767308 38.341287 339.536538 38.839394 323.226923 39.338200 324.709615 39.836307 348.432692 40.334764 376.109615 40.833569 283.194231 41.332026 344.973077 41.830133 373.144231 42.328939 342.996154 42.827046 355.846154 43.325503 353.869231 43.824308 327.180769 44.322416 375.615385 44.820872 329.157692 45.319678 328.663462 45.817785 376.109615 46.316591 346.950000 46.814698 304.446154 47.313504 305.434615 47.811960 314.825000 48.310068 393.901923 48.808873 312.848077 49.306981 363.753846 49.805437 349.421154 50.304243 340.525000 50.802699 338.053846 51.300807 383.028846 51.798964 346.455769 52.298069 352.386538 52.796176 345.467308 53.294982 336.571154 53.793089 348.432692 54.291546 333.111538 54.790650 270.838462 55.288459 378.580769 55.786915 318.284615 56.285721 378.580769 56.783828 321.250000 57.282285 379.075000 57.780741 361.282692 58.279198 396.373077 58.778003 400.821154 59.276111 381.051923 59.774916 343.984615 60.273223 377.592308 60.771680 319.273077 61.270136 346.950000 61.768593 357.328846 62.267049 356.834615 62.765506 319.273077 63.263962 336.076923 63.762419 343.490385 64.260875 313.342308 64.759332 330.640385 65.257788 345.467308 65.756245 319.273077 66.254701 342.007692 66.753158 377.592308 67.251614 356.834615 67.749573 369.190385 68.248527 364.742308 68.746984 333.111538 69.245440 328.663462 69.743897 370.673077 70.242353 349.421154 70.740312 355.846154 71.239267 372.155769 71.737723 323.721154 72.236180 345.467308 72.734636 350.409615 73.233093 303.457692 73.731549 350.409615 74.230006 336.571154 74.728462 297.032692 75.226919 376.603846 75.725375 344.478846 76.223832 317.296154 76.721790 352.386538 77.220745 366.719231 77.719201 315.813462 78.217658 320.755769 78.716114 361.776923 79.214571 337.559615 79.713027 314.330769 80.211484 352.386538 80.709940 340.030769 81.208397 323.721154 81.706853 333.111538 82.205310 341.513462 82.703268 337.559615 83.202223 361.282692 83.700679 335.088462 84.199136 334.594231 84.697592 337.559615 85.196049 420.096154 85.694007 408.728846 86.192463 366.719231 86.691418 315.813462 87.189875 369.190385 87.688331 362.765385 88.186788 364.248077 88.685244 353.375000 89.183202 348.926923 89.682157 337.559615 90.180614 294.561538 90.679070 327.180769 91.177527 383.523077 91.675983 376.603846 92.174440 304.446154 92.672896 328.663462 93.171353 384.017308 93.669809 365.730769 94.168266 342.501923 94.666722 347.444231 95.164680 379.075000 95.663635 329.651923 96.162092 343.490385 96.660548 340.525000 97.159503 353.869231 97.657461 344.478846 98.155918 365.730769 98.654374 345.961538 99.152831 373.144231 99.651287 337.559615 100.149744 375.615385 100.648200 346.950000 101.146657 348.926923 101.645113 394.890385 102.143570 389.948077 102.642026 376.109615 103.140483 370.178846 103.638939 342.501923 104.137396 309.882692 104.635852 339.536538 105.133810 341.019231 105.632765 380.557692 106.130723 344.973077 106.629678 350.903846 107.128633 270.838462 107.626093 322.732692 108.125048 369.684615 108.623504 314.330769 109.121961 287.642308 109.620417 319.767308 110.118874 332.123077 110.617330 348.926923 111.115787 354.363462 111.614243 349.421154 112.112700 414.659615 112.611156 319.273077 113.109613 315.319231 113.608069 358.811538 114.106526 346.455769 114.604983 323.226923 115.103937 278.251923 115.601896 400.326923 116.100352 424.544231 116.598809 358.811538 117.097265 300.986538 117.595722 349.915385 118.094178 369.190385 118.592635 366.225000 119.091091 351.892308 119.589548 354.363462 120.088004 382.040385 120.586461 304.940385 121.084917 309.882692 121.582875 356.340385 122.081830 406.751923 122.580287 348.432692 123.078743 366.225000 123.577200 325.203846 124.075656 322.732692 124.573614 356.340385 125.072569 365.236538 125.571026 323.226923 126.069482 383.028846 126.567939 374.132692 127.066395 342.007692 127.564852 373.144231 128.063308 337.065385 128.561765 326.686538 129.060221 368.201923 129.558678 367.213462 130.057134 344.478846 130.555591 323.721154 131.054047 285.665385 131.552504 397.361538 132.050960 332.123077 132.549417 436.405769 133.047375 392.913462 133.546330 357.823077 134.044786 289.125000 134.543243 320.755769 135.041699 375.121154 135.540156 380.557692 136.038612 362.765385 136.537069 328.663462 137.035027 301.975000 137.533982 351.892308 138.032438 309.882692 138.530895 293.078846 139.029351 329.157692 139.528306 286.159615 140.026264 310.376923 140.524721 312.353846 141.023177 329.157692 141.521135 316.307692 142.020090 362.271154 142.518547 339.536538 143.017003 379.569231 143.515460 363.753846 144.013916 340.525000 144.512373 354.363462 145.010829 312.353846 145.509286 367.707692 146.007742 324.215385 146.506199 367.707692 147.004655 280.723077 147.503112 277.757692 148.001568 384.017308 148.500025 346.950000 148.998481 386.982692 149.496938 315.319231 149.995394 303.951923 150.493352 330.640385 150.992307 335.582692 151.490764 354.363462 151.989220 308.894231 152.487677 324.215385 152.986133 301.480769 153.484091 306.917308 153.983046 348.926923 154.481503 318.284615 154.979959 344.478846 155.478416 341.019231 155.976374 353.375000 156.474831 393.407692 156.973287 325.698077 157.471744 362.765385 157.970698 349.915385 158.469155 343.490385 158.967612 350.903846 159.466068 366.225000 159.964525 346.950000 160.462981 324.215385 160.960939 367.707692 161.460392 301.480769 161.958351 313.836538 162.456309 395.878846 162.955264 341.513462 163.453222 324.709615 163.952177 363.753846 164.450633 394.396154 164.949090 348.432692 165.447546 371.167308 165.945504 366.719231 166.444459 401.315385 166.942916 300.492308 167.441372 323.226923 167.939829 343.984615 168.438285 424.050000 168.936742 405.269231 169.435198 319.273077 169.933655 335.088462 170.432111 386.982692 170.930568 361.776923 171.429024 353.869231 171.927481 373.638462 172.426436 326.686538 172.924394 375.121154 173.422850 333.605769 173.920808 409.223077 174.419763 412.188462 174.917721 387.476923 175.416676 318.778846 175.915133 300.492308 176.413589 277.757692 176.912046 375.121154 177.410502 366.719231 177.908959 335.088462 178.407415 332.617308 178.905872 353.869231 179.404328 345.961538 179.902785 322.238462 180.401241 356.340385 180.900196 326.686538 181.397656 359.800000 181.896611 359.800000 182.395067 324.215385 182.893524 319.767308 183.391980 336.571154 183.890437 357.823077 184.388893 340.030769 184.887350 332.123077 185.385806 348.926923 185.884263 377.098077 186.382719 377.592308 186.881176 312.353846 187.379632 324.215385 187.878089 344.973077 188.376545 339.536538 188.874503 412.682692 189.373458 353.375000 189.872413 269.850000 190.370371 310.871154 190.868828 353.869231 191.367284 321.250000 191.865741 350.903846 192.364197 342.007692 192.862155 341.513462 193.361110 336.076923 193.859567 324.709615 194.358023 336.571154 194.856480 380.063462 195.354936 379.569231 195.853393 381.051923 196.351849 393.901923 196.850306 315.319231 197.348762 371.167308 197.847219 369.190385 198.345675 342.007692 198.844132 376.109615 199.342588 297.032692 199.841045 331.134615 200.339501 317.296154 200.837958 346.455769 201.336414 352.880769 201.834871 376.603846 202.333327 359.305769 202.831784 362.271154 203.329742 342.996154 203.828697 348.432692 204.327154 275.780769 204.825610 344.478846 205.324067 328.169231 205.822523 342.996154 206.320980 308.400000 206.819436 335.582692 207.317893 306.423077 207.816349 297.526923 208.314806 375.615385 208.813262 363.753846 209.311719 334.100000 209.810175 320.261538 210.308632 387.476923 210.807088 320.755769 211.305545 345.961538 211.804500 319.273077 212.302458 322.238462 212.800914 361.282692 213.299371 371.167308 213.798326 302.469231 214.296284 316.307692 214.794740 343.984615 215.293197 380.557692 215.791653 344.973077 216.290110 335.582692 216.788566 361.282692 217.286524 381.546154 217.785479 339.042308 218.283936 313.836538 218.782891 339.536538 219.280849 336.076923 219.779305 337.065385 220.277762 351.892308 220.775720 346.950000 221.275173 265.896154 221.773131 328.663462 222.271588 343.490385 222.770044 341.513462 223.268501 332.123077 223.766459 358.811538 224.265414 356.834615 224.763372 376.109615 225.262327 284.182692 225.760783 324.709615 226.259240 331.628846 226.757696 374.132692 227.256153 390.442308 227.754111 396.373077 228.253066 366.225000 228.751522 315.813462 229.249979 361.282692 229.748435 425.038462 230.246892 346.455769 230.744850 333.605769 231.243805 353.869231 231.741763 348.926923 232.240718 354.857692 232.739174 319.273077 233.237631 342.501923 233.735589 324.709615 234.234544 347.444231 234.733000 389.453846 235.231457 361.776923 235.729913 354.857692 236.228370 322.732692 236.726826 343.984615 237.225283 356.834615 237.723739 309.388462 238.222196 305.434615 238.720154 333.605769 239.219109 316.307692 239.717565 362.271154 240.215523 317.296154 240.714478 328.663462 241.212935 353.375000 241.711391 361.776923 242.209848 345.961538 242.708304 378.580769 243.206761 379.569231 243.705217 359.305769 244.203674 284.676923 244.702130 320.261538 245.200587 309.388462 245.699043 356.340385 246.197500 377.592308 246.695956 349.421154 247.193915 355.351923 247.692870 343.984615 248.191326 325.203846 248.689783 368.696154 249.188737 316.801923 249.686696 362.765385 250.185152 343.984615 250.683609 312.353846 251.182065 305.434615 251.680522 366.719231 252.178978 340.030769 252.677435 361.282692 253.175891 336.571154 253.674348 355.846154 254.172804 361.776923 254.671759 298.021154 255.169717 380.063462 255.668174 395.878846 256.166630 350.903846 256.665087 359.305769 257.163543 378.086538 257.661501 383.523077 258.160456 342.007692 258.658913 301.975000 259.157369 345.961538 259.655826 393.901923 260.153784 419.107692 260.652739 327.675000 261.151195 311.859615 261.649652 342.996154 262.148108 355.351923 262.646565 347.938462 263.145021 368.201923 263.643478 335.088462 264.141934 320.755769 264.639892 372.650000 265.139346 400.326923 265.637304 383.523077 266.135760 321.250000 266.634217 308.894231 267.132673 351.892308 267.631130 361.282692 268.129586 381.051923 268.628043 347.938462 269.126998 284.182692 269.624956 348.432692 270.123911 322.238462 270.621869 397.361538 271.120325 350.903846 271.618283 320.261538 272.117238 311.365385 272.615695 383.028846 273.113653 344.973077 273.612608 319.767308 274.111064 348.926923 274.609521 405.763462 275.107977 313.836538 275.606434 320.261538 276.104890 384.511538 276.603347 423.061538 277.101803 394.396154 277.600260 335.088462 278.098716 356.834615 278.597173 376.603846 279.095629 353.869231 279.594086 299.998077 280.092542 375.615385 280.591497 294.561538 281.089455 331.134615 281.587912 332.617308 282.086368 323.721154 282.584825 325.203846 283.083281 342.007692 283.581738 357.328846 284.080194 343.490385 284.578651 390.936538 285.077107 366.719231 285.576062 302.963462 286.074020 361.282692 286.572477 314.330769 287.070933 327.180769 287.569390 333.111538 288.068345 300.492308 288.565805 338.548077 289.064759 335.582692 289.563216 346.950000 290.061672 297.526923 290.560129 363.753846 291.058585 326.686538 291.557042 361.282692 292.055499 342.996154 292.553457 316.801923 293.052412 295.550000 293.550868 355.846154 294.049325 355.846154 294.547283 354.363462 295.045739 388.959615 295.544694 390.442308 296.043151 394.890385 296.541607 341.019231 297.040064 343.490385 297.538520 379.075000 298.036977 354.363462 298.535433 300.492308 299.033890 341.513462 299.531848 366.719231 300.030803 375.615385 300.529259 291.596154 301.027217 393.901923 301.526671 352.386538 302.024629 331.134615 302.523085 350.409615 303.022040 283.194231 303.519998 358.811538 304.018455 341.019231 304.516413 377.098077 305.015368 376.603846 305.513824 337.559615 306.011782 342.007692 306.510239 372.650000 307.009194 320.261538 307.507650 361.776923 308.006107 406.257692 308.504563 363.753846 309.003020 364.248077 309.501476 310.871154 309.999933 384.017308 310.497891 370.673077 310.996347 364.742308 311.495801 320.261538 311.993759 355.846154 312.492215 310.871154 312.990672 305.928846 313.489128 308.400000 313.987585 351.398077 314.486041 376.109615 314.983999 333.605769 315.482954 355.846154 315.981909 250.080769 316.479867 291.596154 316.978324 399.338462 317.476780 387.971154 317.975237 322.238462 318.473693 356.340385 318.972150 355.351923 319.470606 358.811538 319.969063 321.250000 320.467021 415.153846 320.965976 367.213462 321.464432 350.409615 321.962889 372.650000 322.461345 361.282692 322.959802 382.040385 323.458258 329.157692 323.956216 314.825000 324.455171 365.730769 324.953628 332.617308 325.452084 427.509615 325.950541 318.778846 326.448997 330.146154 326.947454 356.834615 327.445910 347.444231 327.944367 405.763462 328.442823 360.294231 328.941280 391.925000 329.439736 361.776923 329.938193 375.121154 330.436649 334.594231 330.935106 325.698077 331.433562 367.707692 331.932019 342.996154 332.430475 334.594231 332.928932 345.467308 333.427887 326.192308 333.925845 367.707692 334.424301 335.582692 334.922758 314.825000 335.421214 321.744231 335.919173 342.007692 336.418128 371.167308 336.916584 354.857692 337.415041 358.317308 337.913497 310.871154 338.411954 306.917308 338.910410 393.901923 339.408867 360.294231 339.907323 381.546154 340.405281 379.075000 340.904236 346.455769 341.402693 336.076923 341.901149 340.525000 342.399606 342.007692 342.898062 352.880769 343.396519 410.211538 343.894975 331.628846 344.392933 385.005769 344.891888 369.684615 345.390345 358.811538 345.888801 335.088462 346.387258 339.042308 346.885216 421.578846 347.384171 347.444231 347.882627 344.973077 348.381084 362.765385 348.879540 369.684615 349.377997 328.169231 349.876453 343.490385 350.374910 360.788462 350.873366 408.234615 351.371823 387.476923 351.870279 400.326923 352.368736 341.019231 352.867691 342.996154 353.365649 368.201923 353.864105 353.869231 354.362562 347.938462 354.861018 341.513462 355.359475 363.259615 355.857931 371.167308 356.356388 359.800000 356.854844 370.673077 357.353301 380.063462 357.851757 374.132692 358.350712 306.917308 358.848670 361.282692 359.347127 369.190385 359.845583 346.455769 360.344538 338.548077 360.842496 370.673077 361.340953 273.803846 361.839409 352.386538 362.337866 335.088462 362.836322 319.767308 363.334779 384.511538 363.833235 396.373077 364.332190 312.848077 364.830148 354.363462 365.328106 364.248077 365.827061 356.340385 366.325518 376.603846 366.823974 323.721154 367.322431 350.409615 367.820887 349.421154 368.319344 310.871154 368.817800 343.984615 369.316257 320.755769 369.814215 351.398077 370.313170 314.330769 370.811626 310.871154 371.310083 380.557692 371.808539 309.388462 372.306996 387.476923 372.805452 331.628846 373.303410 362.765385 373.802864 256.011538 374.300822 329.157692 374.799278 404.280769 375.297735 377.098077 375.796191 366.225000 376.294150 340.030769 376.793104 341.019231 377.291063 342.007692 377.790516 306.917308 378.287976 319.767308 378.786930 377.098077 379.285387 363.753846 379.783843 366.719231 380.282300 355.846154 380.780757 406.751923 381.279711 332.123077 381.777670 357.328846 382.276126 381.051923 382.774583 356.340385 383.273039 355.846154 383.771496 295.055769 384.269952 318.284615 384.768409 357.823077 385.266865 341.513462 385.765322 319.273077 386.263778 374.132692 386.762235 345.467308 387.260691 351.398077 387.758649 330.146154 388.257604 348.432692 388.756061 300.492308 389.254517 331.134615 389.752974 302.469231 390.251430 351.892308 390.749887 343.490385 391.247845 382.534615 391.747298 304.940385 392.245256 378.086538 392.743214 342.996154 393.242169 310.376923 393.740626 375.121154 394.239082 364.248077 394.737539 320.755769 395.236494 283.194231 395.734452 340.525000 396.232410 411.694231 396.731365 336.076923 397.229821 341.019231 397.728278 384.511538 398.226734 355.846154 398.725191 316.801923 399.223647 308.894231 399.722104 321.250000 400.220560 353.869231 400.719017 371.661538 401.217473 315.319231 401.715930 376.603846 402.214386 374.626923 402.712344 400.326923 403.211299 325.698077 403.709756 377.098077 404.208212 332.617308 404.706669 364.248077 405.205125 366.719231 405.703582 394.396154 406.202038 353.375000 406.700495 365.236538 407.198951 414.165385 407.697408 369.684615 408.195864 342.501923 408.694321 318.284615 409.192777 379.075000 409.691234 321.250000 410.189192 311.859615 410.688147 342.007692 411.186603 376.603846 411.685060 386.488462 412.183516 327.180769 412.681973 283.194231 413.180429 346.950000 413.678886 386.982692 414.177342 391.925000 414.675799 351.892308 415.174255 363.753846 415.672712 363.259615 416.171168 337.559615 416.669625 311.859615 417.168081 377.098077 417.666538 324.215385 418.164994 389.948077 418.663451 356.340385 419.161907 342.007692 419.660364 392.913462 420.158820 404.280769 420.656779 385.500000 421.155733 310.871154 421.654190 341.019231 422.152646 308.400000 422.651103 368.201923 423.149559 333.605769 423.648016 342.007692 424.146472 385.994231 424.644929 368.696154 425.142887 428.992308 425.641842 377.098077 426.140299 329.651923 426.638755 324.709615 427.137212 388.959615 427.635668 340.525000 428.134125 375.615385 428.632581 367.707692 429.131038 349.915385 429.629494 368.696154 430.127951 390.442308 430.626407 334.594231 431.124864 367.707692 431.623320 394.890385 432.121777 317.296154 432.619735 395.878846 433.118690 339.536538 433.617146 387.476923 434.115603 372.155769 434.614059 349.915385 435.112516 351.892308 435.610972 341.019231 436.109429 351.398077 436.607885 355.351923 437.106342 397.855769 437.604798 372.155769 438.103255 311.365385 438.601711 304.446154 439.100168 336.076923 439.598126 349.915385 440.097081 342.996154 440.595537 383.523077 441.093994 390.442308 441.592450 386.982692 442.090907 408.728846 442.589363 325.698077 443.087820 368.201923 443.586276 348.432692 444.084733 336.076923 444.583189 355.846154 445.081646 370.673077 445.580102 322.238462 446.078559 332.617308 446.577015 350.903846 447.075472 382.534615 447.573928 309.882692 448.072385 342.007692 448.570841 316.307692 449.069298 395.878846 449.567754 352.386538 450.066211 375.615385 450.564667 359.305769 451.063124 304.940385 451.561580 348.432692 452.060037 364.742308 452.558493 365.236538 453.056950 294.067308 453.555406 337.065385 454.053863 358.317308 454.552319 378.580769 455.050776 342.996154 455.549232 315.319231 456.048187 275.780769 456.546145 301.975000 457.044602 337.559615 457.543058 373.638462 458.041515 347.444231 458.539971 308.894231 459.038428 383.523077 459.536386 367.707692 460.035341 355.351923 460.533797 414.165385 461.032254 282.700000 461.530710 357.823077 462.029167 371.661538 462.527623 395.384615 463.026080 319.767308 463.524536 321.250000 464.022993 372.650000 464.521449 385.994231 465.019906 332.123077 465.518362 351.892308 466.016819 400.821154 466.515275 363.753846 467.013234 337.559615 467.512188 372.650000 468.010645 331.628846 468.509101 384.017308 469.007060 371.661538 469.506015 368.696154 470.004471 374.626923 470.502928 219.438462 471.000886 358.317308 471.499841 391.430769 471.998297 357.328846 472.497750 276.275000 472.995210 362.271154 473.493667 341.513462 473.992123 387.971154 474.490580 393.407692 474.989036 334.100000 475.487493 336.571154 475.985949 329.157692 476.484406 385.500000 476.982862 344.478846 477.481319 365.730769 477.979277 371.661538 478.478232 372.650000 478.976688 387.971154 479.475145 341.513462 479.973601 335.582692 480.472058 400.821154 480.970514 399.832692 481.468971 316.307692 481.967427 332.123077 482.465884 278.746154 482.964839 338.053846 483.462797 380.557692 483.961253 324.215385 484.459710 302.469231 484.958166 379.569231 485.456623 339.536538 485.955079 337.559615 486.453037 382.040385 486.951992 341.513462 487.450449 353.869231 487.948905 393.407692 488.447362 300.986538 488.945818 372.650000 489.444275 332.617308 489.942731 287.642308 490.440689 350.409615 490.939644 374.626923 491.437602 322.732692 491.936557 379.569231 492.435014 312.848077 492.933470 332.123077 493.431927 327.675000 493.930383 333.605769 494.428840 401.315385 494.927296 387.971154 495.425753 363.753846 495.924209 362.765385 496.422666 377.592308 496.921122 353.869231 497.419579 305.434615 497.918035 317.790385 498.416492 361.776923 498.914948 341.019231 499.413405 385.994231 499.911861 359.800000 500.410318 364.248077 500.908774 346.455769 501.407729 284.182692 501.905189 349.915385 502.404144 358.317308 502.902600 349.915385 503.401057 363.753846 503.899513 355.846154 504.397970 367.707692 504.896426 332.123077 505.394883 350.409615 505.893339 390.936538 506.391297 358.317308 506.890252 390.442308 507.388709 407.246154 507.887165 356.340385 508.385622 330.146154 508.884078 343.984615 509.382535 367.213462 509.880991 323.226923 510.379448 338.053846 510.877904 386.982692 511.376361 347.444231 511.874817 352.386538 512.373274 371.167308 512.871731 324.215385 513.370187 368.696154 513.868644 378.086538 514.367100 395.384615 514.865557 306.423077 515.364013 340.030769 515.862470 279.734615 516.360926 349.915385 516.859383 378.580769 517.357839 291.101923 517.856296 366.225000 518.354752 358.317308 518.853209 362.271154 519.351665 310.376923 519.850122 315.813462 520.348578 364.742308 520.847035 348.926923 521.345491 348.926923 521.843948 349.421154 522.342404 376.603846 522.840861 399.338462 523.339317 360.788462 523.837774 343.984615 524.336230 350.903846 524.834687 323.226923 525.333143 280.723077 525.831600 387.476923 526.330056 261.942308 526.828513 353.375000 527.326969 415.153846 527.825426 344.478846 528.323882 329.157692 528.822339 302.469231 529.320795 355.846154 529.819252 379.569231 530.317708 384.511538 530.816165 338.548077 531.314621 363.753846 531.813078 339.042308 532.311534 383.028846 532.809991 359.305769 533.308447 318.284615 533.806904 289.619231 534.305360 318.284615 534.803817 397.855769 535.302273 354.857692 535.800730 386.488462 536.299186 340.030769 536.797643 409.717308 537.296099 345.961538 537.794556 314.330769 538.293012 365.730769 538.791469 358.811538 539.289925 332.123077 539.788382 350.903846 540.286838 344.973077 540.785295 354.363462 541.283751 335.582692 541.782208 379.569231 542.280664 342.501923 542.779121 354.857692 543.277577 342.501923 543.776034 405.763462 544.274490 332.123077 544.772947 357.328846 545.271403 331.134615 545.769860 286.653846 546.268316 324.709615 546.766773 352.386538 547.265229 332.617308 547.763686 388.465385 548.262142 321.250000 548.760599 349.421154 549.259055 348.432692 549.757512 336.571154 550.255968 364.248077 550.754425 323.721154 551.252881 391.925000 551.751338 399.832692 552.249794 313.342308 552.748251 314.330769 553.246707 381.051923 553.745164 376.109615 554.243620 347.938462 554.742077 371.661538 555.240533 393.407692 555.738990 347.444231 556.237446 268.367308 556.735903 355.351923 557.234360 383.523077 557.732816 362.765385 558.231273 254.034615 558.729729 259.471154 559.228186 354.363462 559.726642 300.492308 560.225099 384.017308 560.723555 349.915385 561.222012 405.269231 561.720468 402.798077 562.218925 338.053846 562.717381 372.155769 563.215838 340.030769 563.714294 337.559615 564.212751 349.421154 564.711207 410.705769 565.209664 371.167308 565.708120 345.961538 566.206577 334.100000 566.705033 368.696154 567.203490 347.444231 567.701946 340.525000 568.200403 316.801923 568.698859 355.351923 569.197316 356.340385 569.695772 381.051923 570.194229 323.721154 570.692685 362.765385 571.191142 333.605769 571.689598 321.250000 572.188055 323.226923 572.686511 343.490385 573.184968 297.526923 573.683424 313.342308 574.181881 361.776923 574.680337 340.525000 575.178794 288.630769 575.677250 326.192308 576.175707 386.982692 576.674163 333.605769 577.172620 370.673077 577.671076 336.571154 578.169533 337.559615 578.667989 350.903846 579.166446 326.686538 579.664902 420.590385 580.163359 371.661538 580.661815 333.605769 581.160272 375.615385 581.658728 337.065385 582.157185 338.053846 582.655641 336.076923 583.154098 320.755769 583.652554 355.351923 584.151011 389.948077 584.649467 359.800000 585.147924 312.353846 585.646380 415.648077 586.144837 335.582692 586.643293 330.640385 587.141750 338.548077 587.640206 383.028846 588.138663 316.801923 588.637119 352.880769 589.135576 368.201923 589.634032 310.376923 590.132489 391.430769 590.630945 311.859615 591.129402 328.663462 591.627858 364.248077 592.126315 313.342308 592.624771 367.707692 593.123228 384.511538 593.621684 379.075000 594.120141 339.536538 594.618597 382.534615 595.117054 341.019231 595.615510 330.640385 596.113967 343.984615 596.612423 327.180769 597.110880 365.236538 597.609336 336.076923 598.107793 379.075000 598.606249 365.730769 599.104706 326.686538 599.603162 433.934615 600.101619 319.273077 600.600075 381.051923 601.098532 372.155769 601.596989 331.628846 602.095445 346.455769 602.593902 262.930769 603.092358 343.490385 603.590815 331.628846 604.089271 381.546154 604.587728 375.615385 605.086184 373.638462 605.584641 342.501923 606.083097 323.226923 606.581554 371.661538 607.080010 331.628846 607.578467 352.880769 608.076923 332.617308" /></g><g class="series serie-2 color-2"><path class="line reactive nofill" d="M11.923077 257.000000 L12.421214 257.000000 12.919671 257.000000 13.417808 257.000000 13.916584 257.000000 14.415040 257.000000 14.913178 257.000000 15.411639 257.000000 15.910395 257.000000 16.408552 257.000000 16.907308 257.000000 17.405765 257.000000 17.903922 257.000000 18.402678 257.000000 18.900835 257.000000 19.399291 257.000000 19.898047 257.000000 20.396504 257.000000 20.894661 257.000000 21.393117 257.000000 21.891873 257.000000 22.390330 257.000000 22.888487 257.000000 23.387243 257.000000 23.885699 257.000000 24.383857 257.000000 24.882313 257.000000 25.380770 257.000000 25.879525 257.000000 26.378331 257.000000 26.876438 257.000000 27.375244 257.000000 27.873351 257.000000 28.372157 257.000000 28.870264 257.000000 29.369070 257.000000 29.867526 257.000000 30.365634 257.000000 30.864738 257.000000 31.362896 257.000000 31.861352 257.000000 32.359809 257.000000 32.857617 257.000000 33.356722 257.000000 33.855178 257.000000 34.353635 257.000000 34.852091 257.000000 35.350199 257.000000 35.849004 257.000000 36.347461 257.000000 36.845917 257.000000 37.344025 257.000000 37.842830 257.000000 38.341287 257.000000 38.839394 257.000000 39.338200 257.000000 39.836307 257.000000 40.334764 257.000000 40.833569 257.000000 41.332026 257.000000 41.830133 257.000000 42.328939 257.000000 42.827046 257.000000 43.325503 257.000000 43.824308 257.000000 44.322416 257.000000 44.820872 257.000000 45.319678 257.000000 45.817785 257.000000 46.316591 257.000000 46.814698 257.000000 47.313504 257.000000 47.811960 257.000000 48.310068 257.000000 48.808873 257.000000 49.306981 257.000000 49.805437 257.000000 50.304243 257.000000 50.802699 257.000000 51.300807 257.000000 51.798964 257.000000 52.298069 257.000000 52.796176 257.000000 53.294982 257.000000 53.793089 257.000000 54.291546 257.000000 54.790650 257.000000 55.288459 257.000000 55.786915 257.000000 56.285721 257.000000 56.783828 257.000000 57.282285 257.000000 57.780741 257.000000 58.279198 257.000000 58.778003 257.000000 59.276111 257.000000 59.774916 257.000000 60.273223 257.000000 60.771680 257.000000 61.270136 257.000000 61.768593 257.000000 62.267049 257.000000 62.765506 257.000000 63.263962 257.000000 63.762419 257.000000 64.260875 257.000000 64.759332 257.000000 65.257788 257.000000 65.756245 257.000000 66.254701 257.000000 66.753158 257.000000 67.251614 257.000000 67.749573 257.000000 68.248527 257.000000 68.746984 257.000000 69.245440 257.000000 69.743897 257.000000 70.242353 257.000000 70.740312 257.000000 71.239267 257.000000 71.737723 257.000000 72.236180 257.000000 72.734636 257.000000 73.233093 257.000000 73.731549 257.000000 74.230006 257.000000 74.728462 257.000000 75.226919 257.000000 75.725375 257.000000 76.223832 257.000000 76.721790 257.000000 77.220745 257.000000 77.719201 257.000000 78.217658 257.000000 78.716114 257.000000 79.214571 257.000000 79.713027 257.000000 80.211484 257.000000 80.709940 257.000000 81.208397 257.000000 81.706853 257.000000 82.205310 257.000000 82.703268 257.000000 83.202223 257.000000 83.700679 257.000000 84.199136 257.000000 84.697592 257.000000 85.196049 257.000000 85.694007 257.000000 86.192463 257.000000 86.691418 257.000000 87.189875 257.000000 87.688331 257.000000 88.186788 257.000000 88.685244 257.000000 89.183202 257.000000 89.682157 257.000000 90.180614 257.000000 90.679070 257.000000 91.177527 257.000000 91.675983 257.000000 92.174440 257.000000 92.672896 257.000000 93.171353 257.000000 93.669809 257.000000 94.168266 257.000000 94.666722 257.000000 95.164680 257.000000 95.663635 257.000000 96.162092 257.000000 96.660548 257.000000 97.159503 257.000000 97.657461 257.000000 98.155918 257.000000 98.654374 257.000000 99.152831 257.000000 99.651287 257.000000 100.149744 257.000000 100.648200 257.000000 101.146657 257.000000 101.645113 257.000000 102.143570 257.000000 102.642026 257.000000 103.140483 257.000000 103.638939 257.000000 104.137396 257.000000 104.635852 257.000000 105.133810 257.000000 105.632765 257.000000 106.130723 257.000000 106.629678 257.000000 107.128633 257.000000 107.626093 257.000000 108.125048 257.000000 108.623504 257.000000 109.121961 257.000000 109.620417 257.000000 110.118874 257.000000 110.617330 257.000000 111.115787 257.000000 111.614243 257.000000 112.112700 257.000000 112.611156 257.000000 113.109613 257.000000 113.608069 257.000000 114.106526 257.000000 114.604983 257.000000 115.103937 257.000000 115.601896 257.000000 116.100352 257.000000 116.598809 257.000000 117.097265 257.000000 117.595722 257.000000 118.094178 257.000000 118.592635 257.000000 119.091091 257.000000 119.589548 257.000000 120.088004 257.000000 120.586461 257.000000 121.084917 257.000000 121.582875 257.000000 122.081830 257.000000 122.580287 257.000000 123.078743 257.000000 123.577200 257.000000 124.075656 257.000000 124.573614 257.000000 125.072569 257.000000 125.571026 257.000000 126.069482 257.000000 126.567939 257.000000 127.066395 257.000000 127.564852 257.000000 128.063308 257.000000 128.561765 257.000000 129.060221 257.000000 129.558678 257.000000 130.057134 257.000000 130.555591 257.000000 131.054047 257.000000 131.552504 257.000000 132.050960 257.000000 132.549417 257.000000 133.047375 257.000000 133.546330 257.000000 134.044786 257.000000 134.543243 257.000000 135.041699 257.000000 135.540156 257.000000 136.038612 257.000000 136.537069 257.000000 137.035027 257.000000 137.533982 257.000000 138.032438 257.000000 138.530895 257.000000 139.029351 257.000000 139.528306 257.000000 140.026264 257.000000 140.524721 257.000000 141.023177 257.000000 141.521135 257.000000 142.020090 257.000000 142.518547 257.000000 143.017003 257.000000 143.515460 257.000000 144.013916 257.000000 144.512373 257.000000 145.010829 257.000000 145.509286 257.000000 146.007742 257.000000 146.506199 257.000000 147.004655 257.000000 147.503112 257.000000 148.001568 257.000000 148.500025 257.000000 148.998481 257.000000 149.496938 257.000000 149.995394 257.000000 150.493352 257.000000 150.992307 257.000000 151.490764 257.000000 151.989220 257.000000 152.487677 257.000000 152.986133 257.000000 153.484091 257.000000 153.983046 257.000000 154.481503 257.000000 154.979959 257.000000 155.478416 257.000000 155.976374 257.000000 156.474831 257.000000 156.973287 257.000000 157.471744 257.000000 157.970698 257.000000 158.469155 257.000000 158.967612 257.000000 159.466068 257.000000 159.964525 257.000000 160.462981 257.000000 160.960939 257.000000 161.460392 257.000000 161.958351 257.000000 162.456309 257.000000 162.955264 257.000000 163.453222 257.000000 163.952177 257.000000 164.450633 257.000000 164.949090 257.000000 165.447546 257.000000 165.945504 257.000000 166.444459 257.000000 166.942916 257.000000 167.441372 257.000000 167.939829 257.000000 168.438285 257.000000 168.936742 257.000000 169.435198 257.000000 169.933655 257.000000 170.432111 257.000000 170.930568 257.000000 171.429024 257.000000 171.927481 257.000000 172.426436 257.000000 172.924394 257.000000 173.422850 257.000000 173.920808 257.000000 174.419763 257.000000 174.917721 257.000000 175.416676 257.000000 175.915133 257.000000 176.413589 257.000000 176.912046 257.000000 177.410502 257.000000 177.908959 257.000000 178.407415 257.000000 178.905872 257.000000 179.404328 257.000000 179.902785 257.000000 180.401241 257.000000 180.900196 257.000000 181.397656 257.000000 181.896611 257.000000 182.395067 257.000000 182.893524 257.000000 183.391980 257.000000 183.890437 257.000000 184.388893 257.000000 184.887350 257.000000 185.385806 257.000000 185.884263 257.000000 186.382719 257.000000 186.881176 257.000000 187.379632 257.000000 187.878089 257.000000 188.376545 257.000000 188.874503 257.000000 189.373458 257.000000 189.872413 257.000000 190.370371 257.000000 190.868828 257.000000 191.367284 257.000000 191.865741 257.000000 192.364197 257.000000 192.862155 257.000000 193.361110 257.000000 193.859567 257.000000 194.358023 257.000000 194.856480 257.000000 195.354936 257.000000 195.853393 257.000000 196.351849 257.000000 196.850306 257.000000 197.348762 257.000000 197.847219 257.000000 198.345675 257.000000 198.844132 257.000000 199.342588 257.000000 199.841045 257.000000 200.339501 257.000000 200.837958 257.000000 201.336414 257.000000 201.834871 257.000000 202.333327 257.000000 202.831784 257.000000 203.329742 257.000000 203.828697 257.000000 204.327154 257.000000 204.825610 257.000000 205.324067 257.000000 205.822523 257.000000 206.320980 257.000000 206.819436 257.000000 207.317893 257.000000 207.816349 257.000000 208.314806 257.000000 208.813262 257.000000 209.311719 257.000000 209.810175 257.000000 210.308632 257.000000 210.807088 257.000000 211.305545 257.000000 211.804500 257.000000 212.302458 257.000000 212.800914 257.000000 213.299371 257.000000 213.798326 257.000000 214.296284 257.000000 214.794740 257.000000 215.293197 257.000000 215.791653 257.000000 216.290110 257.000000 216.788566 257.000000 217.286524 257.000000 217.785479 257.000000 218.283936 257.000000 218.782891 257.000000 219.280849 257.000000 219.779305 257.000000 220.277762 257.000000 220.775720 257.000000 221.275173 257.000000 221.773131 257.000000 222.271588 257.000000 222.770044 257.000000 223.268501 257.000000 223.766459 257.000000 224.265414 257.000000 224.763372 257.000000 225.262327 257.000000 225.760783 257.000000 226.259240 257.000000 226.757696 257.000000 227.256153 257.000000 227.754111 257.000000 228.253066 257.000000 228.751522 257.000000 229.249979 257.000000 229.748435 257.000000 230.246892 257.000000 230.744850 257.000000 231.243805 257.000000 231.741763 257.000000 232.240718 257.000000 232.739174 257.000000 233.237631 257.000000 233.735589 257.000000 234.234544 257.000000 234.733000 257.000000 235.231457 257.000000 235.729913 257.000000 236.228370 257.000000 236.726826 257.000000 237.225283 257.000000 237.723739 257.000000 238.222196 257.000000 238.720154 257.000000 239.219109 257.000000 239.717565 257.000000 240.215523 257.000000 240.714478 257.000000 241.212935 257.000000 241.711391 257.000000 242.209848 257.000000 242.708304 257.000000 243.206761 257.000000 243.705217 257.000000 244.203674 257.000000 244.702130 257.000000 245.200587 257.000000 245.699043 257.000000 246.197500 257.000000 246.695956 257.000000 247.193915 257.000000 247.692870 257.000000 248.191326 257.000000 248.689783 257.000000 249.188737 257.000000 249.686696 257.000000 250.185152 257.000000 250.683609 257.000000 251.182065 257.000000 251.680522 257.000000 252.178978 257.000000 252.677435 257.000000 253.175891 257.000000 253.674348 257.000000 254.172804 257.000000 254.671759 257.000000 255.169717 257.000000 255.668174 257.000000 256.166630 257.000000 256.665087 257.000000 257.163543 257.000000 257.661501 257.000000 258.160456 257.000000 258.658913 257.000000 259.157369 257.000000 259.655826 257.000000 260.153784 257.000000 260.652739 257.000000 261.151195 257.000000 261.649652 257.000000 262.148108 257.000000 262.646565 257.000000 263.145021 257.000000 263.643478 257.000000 264.141934 257.000000 264.639892 257.000000 265.139346 257.000000 265.637304 257.000000 266.135760 257.000000 266.634217 257.000000 267.132673 257.000000 267.631130 257.000000 268.129586 257.000000 268.628043 257.000000 269.126998 257.000000 269.624956 257.000000 270.123911 257.000000 270.621869 257.000000 271.120325 257.000000 271.618283 257.000000 272.117238 257.000000 272.615695 257.000000 273.113653 257.000000 273.612608 257.000000 274.111064 257.000000 274.609521 257.000000 275.107977 257.000000 275.606434 257.000000 276.104890 257.000000 276.603347 257.000000 277.101803 257.000000 277.600260 257.000000 278.098716 257.000000 278.597173 257.000000 279.095629 257.000000 279.594086 257.000000 280.092542 257.000000 280.591497 257.000000 281.089455 257.000000 281.587912 257.000000 282.086368 257.000000 282.584825 257.000000 283.083281 257.000000 283.581738 257.000000 284.080194 257.000000 284.578651 257.000000 285.077107 257.000000 285.576062 257.000000 286.074020 257.000000 286.572477 257.000000 287.070933 257.000000 287.569390 257.000000 288.068345 257.000000 288.565805 257.000000 289.064759 257.000000 289.563216 257.000000 290.061672 257.000000 290.560129 257.000000 291.058585 257.000000 291.557042 257.000000 292.055499 257.000000 292.553457 257.000000 293.052412 257.000000 293.550868 257.000000 294.049325 257.000000 294.547283 257.000000 295.045739 257.000000 295.544694 257.000000 296.043151 257.000000 296.541607 257.000000 297.040064 257.000000 297.538520 257.000000 298.036977 257.000000 298.535433 257.000000 299.033890 257.000000 299.531848 257.000000 300.030803 257.000000 300.529259 257.000000 301.027217 257.000000 301.526671 257.000000 302.024629 257.000000 302.523085 257.000000 303.022040 257.000000 303.519998 257.000000 304.018455 257.000000 304.516413 257.000000 305.015368 257.000000 305.513824 257.000000 306.011782 257.000000 306.510239 257.000000 307.009194 257.000000 307.507650 257.000000 308.006107 257.000000 308.504563 257.000000 309.003020 257.000000 309.501476 257.000000 309.999933 257.000000 310.497891 257.000000 310.996347 257.000000 311.495801 257.000000 311.993759 257.000000 312.492215 257.000000 312.990672 257.000000 313.489128 257.000000 313.987585 257.000000 314.486041 257.000000 314.983999 257.000000 315.482954 257.000000 315.981909 257.000000 316.479867 257.000000 316.978324 257.000000 317.476780 257.000000 317.975237 257.000000 318.473693 257.000000 318.972150 257.000000 319.470606 257.000000 319.969063 257.000000 320.467021 257.000000 320.965976 257.000000 321.464432 257.000000 321.962889 257.000000 322.461345 257.000000 322.959802 257.000000 323.458258 257.000000 323.956216 257.000000 324.455171 257.000000 324.953628 257.000000 325.452084 257.000000 325.950541 257.000000 326.448997 257.000000 326.947454 257.000000 327.445910 257.000000 327.944367 257.000000 328.442823 257.000000 328.941280 257.000000 329.439736 257.000000 329.938193 257.000000 330.436649 257.000000 330.935106 257.000000 331.433562 257.000000 331.932019 257.000000 332.430475 257.000000 332.928932 257.000000 333.427887 257.000000 333.925845 257.000000 334.424301 257.000000 334.922758 257.000000 335.421214 257.000000 335.919173 257.000000 336.418128 257.000000 336.916584 257.000000 337.415041 257.000000 337.913497 257.000000 338.411954 257.000000 338.910410 257.000000 339.408867 257.000000 339.907323 257.000000 340.405281 257.000000 340.904236 257.000000 341.402693 257.000000 341.901149 257.000000 342.399606 257.000000 342.898062 257.000000 343.396519 257.000000 343.894975 257.000000 344.392933 257.000000 344.891888 257.000000 345.390345 257.000000 345.888801 257.000000 346.387258 257.000000 346.885216 257.000000 347.384171 257.000000 347.882627 257.000000 348.381084 257.000000 348.879540 257.000000 349.377997 257.000000 349.876453 257.000000 350.374910 257.000000 350.873366 257.000000 351.371823 257.000000 351.870279 257.000000 352.368736 257.000000 352.867691 257.000000 353.365649 257.000000 353.864105 257.000000 354.362562 257.000000 354.861018 257.000000 355.359475 257.000000 355.857931 257.000000 356.356388 257.000000 356.854844 257.000000 357.353301 257.000000 357.851757 257.000000 358.350712 257.000000 358.848670 257.000000 359.347127 257.000000 359.845583 257.000000 360.344538 257.000000 360.842496 257.000000 361.340953 257.000000 361.839409 257.000000 362.337866 257.000000 362.836322 257.000000 363.334779 257.000000 363.833235 257.000000 364.332190 257.000000 364.830148 257.000000 365.328106 257.000000 365.827061 257.000000 366.325518 257.000000 366.823974 257.000000 367.322431 257.000000 367.820887 257.000000 368.319344 257.000000 368.817800 257.000000 369.316257 257.000000 369.814215 257.000000 370.313170 257.000000 370.811626 257.000000 371.310083 257.000000 371.808539 257.000000 372.306996 257.000000 372.805452 257.000000 373.303410 257.000000 373.802864 257.000000 374.300822 257.000000 374.799278 257.000000 375.297735 257.000000 375.796191 257.000000 376.294150 257.000000 376.793104 257.000000 377.291063 257.000000 377.790516 257.000000 378.287976 257.000000 378.786930 257.000000 379.285387 257.000000 379.783843 257.000000 380.282300 257.000000 380.780757 257.000000 381.279711 257.000000 381.777670 257.000000 382.276126 257.000000 382.774583 257.000000 383.273039 257.000000 383.771496 257.000000 384.269952 257.000000 384.768409 257.000000 385.266865 257.000000 385.765322 257.000000 386.263778 257.000000 386.762235 257.000000 387.260691 257.000000 387.758649 257.000000 388.257604 257.000000 388.756061 257.000000 389.254517 257.000000 389.752974 257.000000 390.251430 257.000000 390.749887 257.000000 391.247845 257.000000 391.747298 257.000000 392.245256 257.000000 392.743214 257.000000 393.242169 257.000000 393.740626 257.000000 394.239082 257.000000 394.737539 257.000000 395.236494 257.000000 395.734452 257.000000 396.232410 257.000000 396.731365 257.000000 397.229821 257.000000 397.728278 257.000000 398.226734 257.000000 398.725191 257.000000 399.223647 257.000000 399.722104 257.000000 400.220560 257.000000 400.719017 257.000000 401.217473 257.000000 401.715930 257.000000 402.214386 257.000000 402.712344 257.000000 403.211299 257.000000 403.709756 257.000000 404.208212 257.000000 404.706669 257.000000 405.205125 257.000000 405.703582 257.000000 406.202038 257.000000 406.700495 257.000000 407.198951 257.000000 407.697408 257.000000 408.195864 257.000000 408.694321 257.000000 409.192777 257.000000 409.691234 257.000000 410.189192 257.000000 410.688147 257.000000 411.186603 257.000000 411.685060 257.000000 412.183516 257.000000 412.681973 257.000000 413.180429 257.000000 413.678886 257.000000 414.177342 257.000000 414.675799 257.000000 415.174255 257.000000 415.672712 257.000000 416.171168 257.000000 416.669625 257.000000 417.168081 257.000000 417.666538 257.000000 418.164994 257.000000 418.663451 257.000000 419.161907 257.000000 419.660364 257.000000 420.158820 257.000000 420.656779 257.000000 421.155733 257.000000 421.654190 257.000000 422.152646 257.000000 422.651103 257.000000 423.149559 257.000000 423.648016 257.000000 424.146472 257.000000 424.644929 257.000000 425.142887 257.000000 425.641842 257.000000 426.140299 257.000000 426.638755 257.000000 427.137212 257.000000 427.635668 257.000000 428.134125 257.000000 428.632581 257.000000 429.131038 257.000000 429.629494 257.000000 430.127951 257.000000 430.626407 257.000000 431.124864 257.000000 431.623320 257.000000 432.121777 257.000000 432.619735 257.000000 433.118690 257.000000 433.617146 257.000000 434.115603 257.000000 434.614059 257.000000 435.112516 257.000000 435.610972 257.000000 436.109429 257.000000 436.607885 257.000000 437.106342 257.000000 437.604798 257.000000 438.103255 257.000000 438.601711 257.000000 439.100168 257.000000 439.598126 257.000000 440.097081 257.000000 440.595537 257.000000 441.093994 257.000000 441.592450 257.000000 442.090907 257.000000 442.589363 257.000000 443.087820 257.000000 443.586276 257.000000 444.084733 257.000000 444.583189 257.000000 445.081646 257.000000 445.580102 257.000000 446.078559 257.000000 446.577015 257.000000 447.075472 257.000000 447.573928 257.000000 448.072385 257.000000 448.570841 257.000000 449.069298 257.000000 449.567754 257.000000 450.066211 257.000000 450.564667 257.000000 451.063124 257.000000 451.561580 257.000000 452.060037 257.000000 452.558493 257.000000 453.056950 257.000000 453.555406 257.000000 454.053863 257.000000 454.552319 257.000000 455.050776 257.000000 455.549232 257.000000 456.048187 257.000000 456.546145 257.000000 457.044602 257.000000 457.543058 257.000000 458.041515 257.000000 458.539971 257.000000 459.038428 257.000000 459.536386 257.000000 460.035341 257.000000 460.533797 257.000000 461.032254 257.000000 461.530710 257.000000 462.029167 257.000000 462.527623 257.000000 463.026080 257.000000 463.524536 257.000000 464.022993 257.000000 464.521449 257.000000 465.019906 257.000000 465.518362 257.000000 466.016819 257.000000 466.515275 257.000000 467.013234 257.000000 467.512188 257.000000 468.010645 257.000000 468.509101 257.000000 469.007060 257.000000 469.506015 257.000000 470.004471 257.000000 470.502928 257.000000 471.000886 257.000000 471.499841 257.000000 471.998297 257.000000 472.497750 257.000000 472.995210 257.000000 473.493667 257.000000 473.992123 257.000000 474.490580 257.000000 474.989036 257.000000 475.487493 257.000000 475.985949 257.000000 476.484406 257.000000 476.982862 257.000000 477.481319 257.000000 477.979277 257.000000 478.478232 257.000000 478.976688 257.000000 479.475145 257.000000 479.973601 257.000000 480.472058 257.000000 480.970514 257.000000 481.468971 257.000000 481.967427 257.000000 482.465884 257.000000 482.964839 257.000000 483.462797 257.000000 483.961253 257.000000 484.459710 257.000000 484.958166 257.000000 485.456623 257.000000 485.955079 257.000000 486.453037 257.000000 486.951992 257.000000 487.450449 257.000000 487.948905 257.000000 488.447362 257.000000 488.945818 257.000000 489.444275 257.000000 489.942731 257.000000 490.440689 257.000000 490.939644 257.000000 491.437602 257.000000 491.936557 257.000000 492.435014 257.000000 492.933470 257.000000 493.431927 257.000000 493.930383 257.000000 494.428840 257.000000 494.927296 257.000000 495.425753 257.000000 495.924209 257.000000 496.422666 257.000000 496.921122 257.000000 497.419579 257.000000 497.918035 257.000000 498.416492 257.000000 498.914948 257.000000 499.413405 257.000000 499.911861 257.000000 500.410318 257.000000 500.908774 257.000000 501.407729 257.000000 501.905189 257.000000 502.404144 257.000000 502.902600 257.000000 503.401057 257.000000 503.899513 257.000000 504.397970 257.000000 504.896426 257.000000 505.394883 257.000000 505.893339 257.000000 506.391297 257.000000 506.890252 257.000000 507.388709 257.000000 507.887165 257.000000 508.385622 257.000000 508.884078 257.000000 509.382535 257.000000 509.880991 257.000000 510.379448 257.000000 510.877904 257.000000 511.376361 257.000000 511.874817 257.000000 512.373274 257.000000 512.871731 257.000000 513.370187 257.000000 513.868644 257.000000 514.367100 257.000000 514.865557 257.000000 515.364013 257.000000 515.862470 257.000000 516.360926 257.000000 516.859383 257.000000 517.357839 257.000000 517.856296 257.000000 518.354752 257.000000 518.853209 257.000000 519.351665 257.000000 519.850122 257.000000 520.348578 257.000000 520.847035 257.000000 521.345491 257.000000 521.843948 257.000000 522.342404 257.000000 522.840861 257.000000 523.339317 257.000000 523.837774 257.000000 524.336230 257.000000 524.834687 257.000000 525.333143 257.000000 525.831600 257.000000 526.330056 257.000000 526.828513 257.000000 527.326969 257.000000 527.825426 257.000000 528.323882 257.000000 528.822339 257.000000 529.320795 257.000000 529.819252 257.000000 530.317708 257.000000 530.816165 257.000000 531.314621 257.000000 531.813078 257.000000 532.311534 257.000000 532.809991 257.000000 533.308447 257.000000 533.806904 257.000000 534.305360 257.000000 534.803817 257.000000 535.302273 257.000000 535.800730 257.000000 536.299186 257.000000 536.797643 257.000000 537.296099 257.000000 537.794556 257.000000 538.293012 257.000000 538.791469 257.000000 539.289925 257.000000 539.788382 257.000000 540.286838 257.000000 540.785295 257.000000 541.283751 257.000000 541.782208 257.000000 542.280664 257.000000 542.779121 257.000000 543.277577 257.000000 543.776034 257.000000 544.274490 257.000000 544.772947 257.000000 545.271403 257.000000 545.769860 257.000000 546.268316 257.000000 546.766773 257.000000 547.265229 257.000000 547.763686 257.000000 548.262142 257.000000 548.760599 257.000000 549.259055 257.000000 549.757512 257.000000 550.255968 257.000000 550.754425 257.000000 551.252881 257.000000 551.751338 257.000000 552.249794 257.000000 552.748251 257.000000 553.246707 257.000000 553.745164 257.000000 554.243620 257.000000 554.742077 257.000000 555.240533 257.000000 555.738990 257.000000 556.237446 257.000000 556.735903 257.000000 557.234360 257.000000 557.732816 257.000000 558.231273 257.000000 558.729729 257.000000 559.228186 257.000000 559.726642 257.000000 560.225099 257.000000 560.723555 257.000000 561.222012 257.000000 561.720468 257.000000 562.218925 257.000000 562.717381 257.000000 563.215838 257.000000 563.714294 257.000000 564.212751 257.000000 564.711207 257.000000 565.209664 257.000000 565.708120 257.000000 566.206577 257.000000 566.705033 257.000000 567.203490 257.000000 567.701946 257.000000 568.200403 257.000000 568.698859 257.000000 569.197316 257.000000 569.695772 257.000000 570.194229 257.000000 570.692685 257.000000 571.191142 257.000000 571.689598 257.000000 572.188055 257.000000 572.686511 257.000000 573.184968 257.000000 573.683424 257.000000 574.181881 257.000000 574.680337 257.000000 575.178794 257.000000 575.677250 257.000000 576.175707 257.000000 576.674163 257.000000 577.172620 257.000000 577.671076 257.000000 578.169533 257.000000 578.667989 257.000000 579.166446 257.000000 579.664902 257.000000 580.163359 257.000000 580.661815 257.000000 581.160272 257.000000 581.658728 257.000000 582.157185 257.000000 582.655641 257.000000 583.154098 257.000000 583.652554 257.000000 584.151011 257.000000 584.649467 257.000000 585.147924 257.000000 585.646380 257.000000 586.144837 257.000000 586.643293 257.000000 587.141750 257.000000 587.640206 257.000000 588.138663 257.000000 588.637119 257.000000 589.135576 257.000000 589.634032 257.000000 590.132489 257.000000 590.630945 257.000000 591.129402 257.000000 591.627858 257.000000 592.126315 257.000000 592.624771 257.000000 593.123228 257.000000 593.621684 257.000000 594.120141 257.000000 594.618597 257.000000 595.117054 257.000000 595.615510 257.000000 596.113967 257.000000 596.612423 257.000000 597.110880 257.000000 597.609336 257.000000 598.107793 257.000000 598.606249 257.000000 599.104706 257.000000 599.603162 257.000000 600.101619 257.000000 600.600075 257.000000 601.098532 257.000000 601.596989 257.000000 602.095445 257.000000 602.593902 257.000000 603.092358 257.000000 603.590815 257.000000 604.089271 257.000000 604.587728 257.000000 605.086184 257.000000 605.584641 257.000000 606.083097 257.000000 606.581554 257.000000 607.080010 257.000000 607.578467 257.000000 608.076923 257.000000" /></g></g><g class="titles"><text class="title" x="470.0" y="580">udp_500kbps</text></g><g class="plot overlay" transform="translate(160, 20)"><g class="series serie-0 color-0" /><g class="series serie-1 color-1" /><g class="series serie-2 color-2" /></g><g class="plot text-overlay" transform="translate(160, 20)"><g class="series serie-0 color-0" /><g class="series serie-1 color-1" /><g class="series serie-2 color-2" /></g><g class="plot tooltip-overlay" transform="translate(160, 20)"><g class="tooltip" style="opacity: 0" transform="translate(0 0)"><rect class="tooltip-box" height="0" rx="0" ry="0" width="0" /><g class="text" /></g></g><g class="legends" transform="translate(10, 30)"><g class="legend reactive activate-serie" id="activate-serie-0"><rect class="color-0 reactive" height="12" width="12" x="0.0" y="1.0" /><text x="17.0" y="11.2">qdelay</text></g><g class="legend reactive activate-serie" id="activate-serie-1"><rect class="color-1 reactive" height="12" width="12" x="0.0" y="22.0" /><text x="17.0" y="32.2">txed(kbps)</text></g><g class="legend reactive activate-serie" id="activate-serie-2"><rect class="color-2 reactive" height="12" width="12" x="0.0" y="43.0" /><text x="17.0" y="53.2">topo(kbps)</text></g></g><g class="legends" transform="translate(790, 30)" /></g></svg>